%TF.GenerationSoftware,KiCad,Pcbnew,(6.0.0-rc1-415-g653c7b78d7)*%
%TF.CreationDate,2021-12-14T13:23:56-08:00*%
%TF.ProjectId,Emitter,456d6974-7465-4722-9e6b-696361645f70,rev?*%
%TF.SameCoordinates,Original*%
%TF.FileFunction,Legend,Top*%
%TF.FilePolarity,Positive*%
%FSLAX46Y46*%
G04 Gerber Fmt 4.6, Leading zero omitted, Abs format (unit mm)*
G04 Created by KiCad (PCBNEW (6.0.0-rc1-415-g653c7b78d7)) date 2021-12-14 13:23:56*
%MOMM*%
%LPD*%
G01*
G04 APERTURE LIST*
%ADD10C,0.150000*%
%ADD11C,0.120000*%
G04 APERTURE END LIST*
D10*
%TO.C,D2*%
X139261904Y-122287380D02*
X139261904Y-121287380D01*
X139500000Y-121287380D01*
X139642857Y-121335000D01*
X139738095Y-121430238D01*
X139785714Y-121525476D01*
X139833333Y-121715952D01*
X139833333Y-121858809D01*
X139785714Y-122049285D01*
X139738095Y-122144523D01*
X139642857Y-122239761D01*
X139500000Y-122287380D01*
X139261904Y-122287380D01*
X140214285Y-121382619D02*
X140261904Y-121335000D01*
X140357142Y-121287380D01*
X140595238Y-121287380D01*
X140690476Y-121335000D01*
X140738095Y-121382619D01*
X140785714Y-121477857D01*
X140785714Y-121573095D01*
X140738095Y-121715952D01*
X140166666Y-122287380D01*
X140785714Y-122287380D01*
%TO.C,D3*%
X139261904Y-103987380D02*
X139261904Y-102987380D01*
X139500000Y-102987380D01*
X139642857Y-103035000D01*
X139738095Y-103130238D01*
X139785714Y-103225476D01*
X139833333Y-103415952D01*
X139833333Y-103558809D01*
X139785714Y-103749285D01*
X139738095Y-103844523D01*
X139642857Y-103939761D01*
X139500000Y-103987380D01*
X139261904Y-103987380D01*
X140166666Y-102987380D02*
X140785714Y-102987380D01*
X140452380Y-103368333D01*
X140595238Y-103368333D01*
X140690476Y-103415952D01*
X140738095Y-103463571D01*
X140785714Y-103558809D01*
X140785714Y-103796904D01*
X140738095Y-103892142D01*
X140690476Y-103939761D01*
X140595238Y-103987380D01*
X140309523Y-103987380D01*
X140214285Y-103939761D01*
X140166666Y-103892142D01*
%TO.C,D6*%
X139261904Y-69987380D02*
X139261904Y-68987380D01*
X139500000Y-68987380D01*
X139642857Y-69035000D01*
X139738095Y-69130238D01*
X139785714Y-69225476D01*
X139833333Y-69415952D01*
X139833333Y-69558809D01*
X139785714Y-69749285D01*
X139738095Y-69844523D01*
X139642857Y-69939761D01*
X139500000Y-69987380D01*
X139261904Y-69987380D01*
X140690476Y-68987380D02*
X140500000Y-68987380D01*
X140404761Y-69035000D01*
X140357142Y-69082619D01*
X140261904Y-69225476D01*
X140214285Y-69415952D01*
X140214285Y-69796904D01*
X140261904Y-69892142D01*
X140309523Y-69939761D01*
X140404761Y-69987380D01*
X140595238Y-69987380D01*
X140690476Y-69939761D01*
X140738095Y-69892142D01*
X140785714Y-69796904D01*
X140785714Y-69558809D01*
X140738095Y-69463571D01*
X140690476Y-69415952D01*
X140595238Y-69368333D01*
X140404761Y-69368333D01*
X140309523Y-69415952D01*
X140261904Y-69463571D01*
X140214285Y-69558809D01*
%TO.C,D7*%
X139261904Y-51687380D02*
X139261904Y-50687380D01*
X139500000Y-50687380D01*
X139642857Y-50735000D01*
X139738095Y-50830238D01*
X139785714Y-50925476D01*
X139833333Y-51115952D01*
X139833333Y-51258809D01*
X139785714Y-51449285D01*
X139738095Y-51544523D01*
X139642857Y-51639761D01*
X139500000Y-51687380D01*
X139261904Y-51687380D01*
X140166666Y-50687380D02*
X140833333Y-50687380D01*
X140404761Y-51687380D01*
%TO.C,D4*%
X139261904Y-95487380D02*
X139261904Y-94487380D01*
X139500000Y-94487380D01*
X139642857Y-94535000D01*
X139738095Y-94630238D01*
X139785714Y-94725476D01*
X139833333Y-94915952D01*
X139833333Y-95058809D01*
X139785714Y-95249285D01*
X139738095Y-95344523D01*
X139642857Y-95439761D01*
X139500000Y-95487380D01*
X139261904Y-95487380D01*
X140690476Y-94820714D02*
X140690476Y-95487380D01*
X140452380Y-94439761D02*
X140214285Y-95154047D01*
X140833333Y-95154047D01*
%TO.C,D8*%
X139261904Y-42487380D02*
X139261904Y-41487380D01*
X139500000Y-41487380D01*
X139642857Y-41535000D01*
X139738095Y-41630238D01*
X139785714Y-41725476D01*
X139833333Y-41915952D01*
X139833333Y-42058809D01*
X139785714Y-42249285D01*
X139738095Y-42344523D01*
X139642857Y-42439761D01*
X139500000Y-42487380D01*
X139261904Y-42487380D01*
X140404761Y-41915952D02*
X140309523Y-41868333D01*
X140261904Y-41820714D01*
X140214285Y-41725476D01*
X140214285Y-41677857D01*
X140261904Y-41582619D01*
X140309523Y-41535000D01*
X140404761Y-41487380D01*
X140595238Y-41487380D01*
X140690476Y-41535000D01*
X140738095Y-41582619D01*
X140785714Y-41677857D01*
X140785714Y-41725476D01*
X140738095Y-41820714D01*
X140690476Y-41868333D01*
X140595238Y-41915952D01*
X140404761Y-41915952D01*
X140309523Y-41963571D01*
X140261904Y-42011190D01*
X140214285Y-42106428D01*
X140214285Y-42296904D01*
X140261904Y-42392142D01*
X140309523Y-42439761D01*
X140404761Y-42487380D01*
X140595238Y-42487380D01*
X140690476Y-42439761D01*
X140738095Y-42392142D01*
X140785714Y-42296904D01*
X140785714Y-42106428D01*
X140738095Y-42011190D01*
X140690476Y-41963571D01*
X140595238Y-41915952D01*
%TO.C,D5*%
X139261904Y-78487380D02*
X139261904Y-77487380D01*
X139500000Y-77487380D01*
X139642857Y-77535000D01*
X139738095Y-77630238D01*
X139785714Y-77725476D01*
X139833333Y-77915952D01*
X139833333Y-78058809D01*
X139785714Y-78249285D01*
X139738095Y-78344523D01*
X139642857Y-78439761D01*
X139500000Y-78487380D01*
X139261904Y-78487380D01*
X140738095Y-77487380D02*
X140261904Y-77487380D01*
X140214285Y-77963571D01*
X140261904Y-77915952D01*
X140357142Y-77868333D01*
X140595238Y-77868333D01*
X140690476Y-77915952D01*
X140738095Y-77963571D01*
X140785714Y-78058809D01*
X140785714Y-78296904D01*
X140738095Y-78392142D01*
X140690476Y-78439761D01*
X140595238Y-78487380D01*
X140357142Y-78487380D01*
X140261904Y-78439761D01*
X140214285Y-78392142D01*
%TO.C,D1*%
X139261904Y-131487380D02*
X139261904Y-130487380D01*
X139500000Y-130487380D01*
X139642857Y-130535000D01*
X139738095Y-130630238D01*
X139785714Y-130725476D01*
X139833333Y-130915952D01*
X139833333Y-131058809D01*
X139785714Y-131249285D01*
X139738095Y-131344523D01*
X139642857Y-131439761D01*
X139500000Y-131487380D01*
X139261904Y-131487380D01*
X140785714Y-131487380D02*
X140214285Y-131487380D01*
X140500000Y-131487380D02*
X140500000Y-130487380D01*
X140404761Y-130630238D01*
X140309523Y-130725476D01*
X140214285Y-130773095D01*
D11*
%TO.C,D2*%
X137440000Y-124250000D02*
X137440000Y-127340000D01*
X142990000Y-125795462D02*
G75*
G03*
X137440000Y-124250170I-2990000J462D01*
G01*
X137440000Y-127339830D02*
G75*
G03*
X142990000Y-125794538I2560000J1544830D01*
G01*
X142500000Y-125795000D02*
G75*
G03*
X142500000Y-125795000I-2500000J0D01*
G01*
%TO.C,D3*%
X137440000Y-105950000D02*
X137440000Y-109040000D01*
X137440000Y-109039830D02*
G75*
G03*
X142990000Y-107494538I2560000J1544830D01*
G01*
X142990000Y-107495462D02*
G75*
G03*
X137440000Y-105950170I-2990000J462D01*
G01*
X142500000Y-107495000D02*
G75*
G03*
X142500000Y-107495000I-2500000J0D01*
G01*
%TO.C,D6*%
X137440000Y-71950000D02*
X137440000Y-75040000D01*
X142990000Y-73495462D02*
G75*
G03*
X137440000Y-71950170I-2990000J462D01*
G01*
X137440000Y-75039830D02*
G75*
G03*
X142990000Y-73494538I2560000J1544830D01*
G01*
X142500000Y-73495000D02*
G75*
G03*
X142500000Y-73495000I-2500000J0D01*
G01*
%TO.C,D7*%
X137440000Y-53650000D02*
X137440000Y-56740000D01*
X142990000Y-55195462D02*
G75*
G03*
X137440000Y-53650170I-2990000J462D01*
G01*
X137440000Y-56739830D02*
G75*
G03*
X142990000Y-55194538I2560000J1544830D01*
G01*
X142500000Y-55195000D02*
G75*
G03*
X142500000Y-55195000I-2500000J0D01*
G01*
%TO.C,D4*%
X137440000Y-97450000D02*
X137440000Y-100540000D01*
X142990000Y-98995462D02*
G75*
G03*
X137440000Y-97450170I-2990000J462D01*
G01*
X137440000Y-100539830D02*
G75*
G03*
X142990000Y-98994538I2560000J1544830D01*
G01*
X142500000Y-98995000D02*
G75*
G03*
X142500000Y-98995000I-2500000J0D01*
G01*
%TO.C,D8*%
X137440000Y-44450000D02*
X137440000Y-47540000D01*
X137440000Y-47539830D02*
G75*
G03*
X142990000Y-45994538I2560000J1544830D01*
G01*
X142990000Y-45995462D02*
G75*
G03*
X137440000Y-44450170I-2990000J462D01*
G01*
X142500000Y-45995000D02*
G75*
G03*
X142500000Y-45995000I-2500000J0D01*
G01*
%TO.C,D5*%
X137440000Y-80450000D02*
X137440000Y-83540000D01*
X142990000Y-81995462D02*
G75*
G03*
X137440000Y-80450170I-2990000J462D01*
G01*
X137440000Y-83539830D02*
G75*
G03*
X142990000Y-81994538I2560000J1544830D01*
G01*
X142500000Y-81995000D02*
G75*
G03*
X142500000Y-81995000I-2500000J0D01*
G01*
%TO.C,D1*%
X137440000Y-133450000D02*
X137440000Y-136540000D01*
X142990000Y-134995462D02*
G75*
G03*
X137440000Y-133450170I-2990000J462D01*
G01*
X137440000Y-136539830D02*
G75*
G03*
X142990000Y-134994538I2560000J1544830D01*
G01*
X142500000Y-134995000D02*
G75*
G03*
X142500000Y-134995000I-2500000J0D01*
G01*
%TD*%
M02*
