%FSLAX45Y45*%
G04 Gerber Fmt 4.5, Leading zero omitted, Abs format (unit mm)*
G04 Created by KiCad (PCBNEW (6.0.0-rc1-415-g653c7b78d7)) date 2021-12-14 13:24:05*
%MOMM*%
%LPD*%
G01*
G04 APERTURE LIST*
%TA.AperFunction,Profile*%
%ADD10C,0.100000*%
%TD*%
%ADD11C,0.200000*%
%ADD12C,0.075000*%
%ADD13C,0.080000*%
%ADD14C,0.090000*%
%ADD15C,0.110000*%
G04 APERTURE END LIST*
D10*
X13650500Y-13949500D02*
X15200500Y-13949500D01*
X15200500Y-13949500D02*
X15200500Y-4099500D01*
X15200500Y-4099500D02*
X13650500Y-4099500D01*
X13650500Y-4099500D02*
X13650500Y-13949500D01*
D11*
D12*
X14586000Y-7424750D02*
X14661000Y-7499750D01*
X14661000Y-7424750D02*
X14586000Y-7499750D01*
X14586000Y-9224750D02*
X14661000Y-9299750D01*
X14661000Y-9224750D02*
X14586000Y-9299750D01*
X14713000Y-7424750D02*
X14788000Y-7499750D01*
X14788000Y-7424750D02*
X14713000Y-7499750D01*
X14713000Y-9224750D02*
X14788000Y-9299750D01*
X14788000Y-9224750D02*
X14713000Y-9299750D01*
X14840000Y-7424750D02*
X14915000Y-7499750D01*
X14915000Y-7424750D02*
X14840000Y-7499750D01*
X14840000Y-9224750D02*
X14915000Y-9299750D01*
X14915000Y-9224750D02*
X14840000Y-9299750D01*
D13*
X14540500Y-11899500D02*
G75*
G03*
X14540500Y-11899500I-40000J0D01*
G01*
X14672262Y-11199500D02*
G75*
G03*
X14672262Y-11199500I-40000J0D01*
G01*
X14790500Y-8144500D02*
G75*
G03*
X14790500Y-8144500I-40000J0D01*
G01*
X14790500Y-8398500D02*
G75*
G03*
X14790500Y-8398500I-40000J0D01*
G01*
X14790500Y-8652500D02*
G75*
G03*
X14790500Y-8652500I-40000J0D01*
G01*
X14790500Y-9818500D02*
G75*
G03*
X14790500Y-9818500I-40000J0D01*
G01*
X14790500Y-10580500D02*
G75*
G03*
X14790500Y-10580500I-40000J0D01*
G01*
X14922262Y-11199500D02*
G75*
G03*
X14922262Y-11199500I-40000J0D01*
G01*
X15040500Y-11899500D02*
G75*
G03*
X15040500Y-11899500I-40000J0D01*
G01*
D14*
X13873000Y-4554500D02*
X13873000Y-4644500D01*
X13828000Y-4599500D02*
X13918000Y-4599500D01*
X13873000Y-5474500D02*
X13873000Y-5564500D01*
X13828000Y-5519500D02*
X13918000Y-5519500D01*
X13873000Y-7304500D02*
X13873000Y-7394500D01*
X13828000Y-7349500D02*
X13918000Y-7349500D01*
X13873000Y-8154500D02*
X13873000Y-8244500D01*
X13828000Y-8199500D02*
X13918000Y-8199500D01*
X13873000Y-9854500D02*
X13873000Y-9944500D01*
X13828000Y-9899500D02*
X13918000Y-9899500D01*
X13873000Y-10704500D02*
X13873000Y-10794500D01*
X13828000Y-10749500D02*
X13918000Y-10749500D01*
X13873000Y-12534500D02*
X13873000Y-12624500D01*
X13828000Y-12579500D02*
X13918000Y-12579500D01*
X13873000Y-13454500D02*
X13873000Y-13544500D01*
X13828000Y-13499500D02*
X13918000Y-13499500D01*
X14127000Y-4554500D02*
X14127000Y-4644500D01*
X14082000Y-4599500D02*
X14172000Y-4599500D01*
X14127000Y-5474500D02*
X14127000Y-5564500D01*
X14082000Y-5519500D02*
X14172000Y-5519500D01*
X14127000Y-7304500D02*
X14127000Y-7394500D01*
X14082000Y-7349500D02*
X14172000Y-7349500D01*
X14127000Y-8154500D02*
X14127000Y-8244500D01*
X14082000Y-8199500D02*
X14172000Y-8199500D01*
X14127000Y-9854500D02*
X14127000Y-9944500D01*
X14082000Y-9899500D02*
X14172000Y-9899500D01*
X14127000Y-10704500D02*
X14127000Y-10794500D01*
X14082000Y-10749500D02*
X14172000Y-10749500D01*
X14127000Y-12534500D02*
X14127000Y-12624500D01*
X14082000Y-12579500D02*
X14172000Y-12579500D01*
X14127000Y-13454500D02*
X14127000Y-13544500D01*
X14082000Y-13499500D02*
X14172000Y-13499500D01*
D15*
X14662391Y-13388391D02*
X14662391Y-13310609D01*
X14584609Y-13310609D01*
X14584609Y-13388391D01*
X14662391Y-13388391D01*
X14916391Y-13388391D02*
X14916391Y-13310609D01*
X14838609Y-13310609D01*
X14838609Y-13388391D01*
X14916391Y-13388391D01*
D11*
X13903119Y-14264976D02*
X13903119Y-14064976D01*
X13950738Y-14064976D01*
X13979309Y-14074500D01*
X13998357Y-14093548D01*
X14007881Y-14112595D01*
X14017405Y-14150690D01*
X14017405Y-14179262D01*
X14007881Y-14217357D01*
X13998357Y-14236405D01*
X13979309Y-14255452D01*
X13950738Y-14264976D01*
X13903119Y-14264976D01*
X14103119Y-14264976D02*
X14103119Y-14131643D01*
X14103119Y-14169738D02*
X14112643Y-14150690D01*
X14122167Y-14141167D01*
X14141214Y-14131643D01*
X14160262Y-14131643D01*
X14226928Y-14264976D02*
X14226928Y-14131643D01*
X14226928Y-14064976D02*
X14217405Y-14074500D01*
X14226928Y-14084024D01*
X14236452Y-14074500D01*
X14226928Y-14064976D01*
X14226928Y-14084024D01*
X14350738Y-14264976D02*
X14331690Y-14255452D01*
X14322167Y-14236405D01*
X14322167Y-14064976D01*
X14455500Y-14264976D02*
X14436452Y-14255452D01*
X14426928Y-14236405D01*
X14426928Y-14064976D01*
X14684071Y-14264976D02*
X14684071Y-14064976D01*
X14750738Y-14207833D01*
X14817405Y-14064976D01*
X14817405Y-14264976D01*
X14998357Y-14264976D02*
X14998357Y-14160214D01*
X14988833Y-14141167D01*
X14969786Y-14131643D01*
X14931690Y-14131643D01*
X14912643Y-14141167D01*
X14998357Y-14255452D02*
X14979309Y-14264976D01*
X14931690Y-14264976D01*
X14912643Y-14255452D01*
X14903119Y-14236405D01*
X14903119Y-14217357D01*
X14912643Y-14198309D01*
X14931690Y-14188786D01*
X14979309Y-14188786D01*
X14998357Y-14179262D01*
X15093595Y-14131643D02*
X15093595Y-14331643D01*
X15093595Y-14141167D02*
X15112643Y-14131643D01*
X15150738Y-14131643D01*
X15169786Y-14141167D01*
X15179309Y-14150690D01*
X15188833Y-14169738D01*
X15188833Y-14226881D01*
X15179309Y-14245928D01*
X15169786Y-14255452D01*
X15150738Y-14264976D01*
X15112643Y-14264976D01*
X15093595Y-14255452D01*
X15274548Y-14245928D02*
X15284071Y-14255452D01*
X15274548Y-14264976D01*
X15265024Y-14255452D01*
X15274548Y-14245928D01*
X15274548Y-14264976D01*
X15274548Y-14141167D02*
X15284071Y-14150690D01*
X15274548Y-14160214D01*
X15265024Y-14150690D01*
X15274548Y-14141167D01*
X15274548Y-14160214D01*
D12*
X13570500Y-14557000D02*
X13645500Y-14632000D01*
X13645500Y-14557000D02*
X13570500Y-14632000D01*
D11*
X13941214Y-14484976D02*
X13960262Y-14484976D01*
X13979309Y-14494500D01*
X13988833Y-14504024D01*
X13998357Y-14523071D01*
X14007881Y-14561167D01*
X14007881Y-14608786D01*
X13998357Y-14646881D01*
X13988833Y-14665928D01*
X13979309Y-14675452D01*
X13960262Y-14684976D01*
X13941214Y-14684976D01*
X13922167Y-14675452D01*
X13912643Y-14665928D01*
X13903119Y-14646881D01*
X13893595Y-14608786D01*
X13893595Y-14561167D01*
X13903119Y-14523071D01*
X13912643Y-14504024D01*
X13922167Y-14494500D01*
X13941214Y-14484976D01*
X14093595Y-14665928D02*
X14103119Y-14675452D01*
X14093595Y-14684976D01*
X14084071Y-14675452D01*
X14093595Y-14665928D01*
X14093595Y-14684976D01*
X14169786Y-14484976D02*
X14303119Y-14484976D01*
X14217405Y-14684976D01*
X14474548Y-14484976D02*
X14379309Y-14484976D01*
X14369786Y-14580214D01*
X14379309Y-14570690D01*
X14398357Y-14561167D01*
X14445976Y-14561167D01*
X14465024Y-14570690D01*
X14474548Y-14580214D01*
X14484071Y-14599262D01*
X14484071Y-14646881D01*
X14474548Y-14665928D01*
X14465024Y-14675452D01*
X14445976Y-14684976D01*
X14398357Y-14684976D01*
X14379309Y-14675452D01*
X14369786Y-14665928D01*
X14607881Y-14484976D02*
X14626928Y-14484976D01*
X14645976Y-14494500D01*
X14655500Y-14504024D01*
X14665024Y-14523071D01*
X14674548Y-14561167D01*
X14674548Y-14608786D01*
X14665024Y-14646881D01*
X14655500Y-14665928D01*
X14645976Y-14675452D01*
X14626928Y-14684976D01*
X14607881Y-14684976D01*
X14588833Y-14675452D01*
X14579309Y-14665928D01*
X14569786Y-14646881D01*
X14560262Y-14608786D01*
X14560262Y-14561167D01*
X14569786Y-14523071D01*
X14579309Y-14504024D01*
X14588833Y-14494500D01*
X14607881Y-14484976D01*
X14760262Y-14684976D02*
X14760262Y-14551643D01*
X14760262Y-14570690D02*
X14769786Y-14561167D01*
X14788833Y-14551643D01*
X14817405Y-14551643D01*
X14836452Y-14561167D01*
X14845976Y-14580214D01*
X14845976Y-14684976D01*
X14845976Y-14580214D02*
X14855500Y-14561167D01*
X14874548Y-14551643D01*
X14903119Y-14551643D01*
X14922167Y-14561167D01*
X14931690Y-14580214D01*
X14931690Y-14684976D01*
X15026928Y-14684976D02*
X15026928Y-14551643D01*
X15026928Y-14570690D02*
X15036452Y-14561167D01*
X15055500Y-14551643D01*
X15084071Y-14551643D01*
X15103119Y-14561167D01*
X15112643Y-14580214D01*
X15112643Y-14684976D01*
X15112643Y-14580214D02*
X15122167Y-14561167D01*
X15141214Y-14551643D01*
X15169786Y-14551643D01*
X15188833Y-14561167D01*
X15198357Y-14580214D01*
X15198357Y-14684976D01*
X15588833Y-14475452D02*
X15417405Y-14732595D01*
X15845976Y-14484976D02*
X15865024Y-14484976D01*
X15884071Y-14494500D01*
X15893595Y-14504024D01*
X15903119Y-14523071D01*
X15912643Y-14561167D01*
X15912643Y-14608786D01*
X15903119Y-14646881D01*
X15893595Y-14665928D01*
X15884071Y-14675452D01*
X15865024Y-14684976D01*
X15845976Y-14684976D01*
X15826928Y-14675452D01*
X15817405Y-14665928D01*
X15807881Y-14646881D01*
X15798357Y-14608786D01*
X15798357Y-14561167D01*
X15807881Y-14523071D01*
X15817405Y-14504024D01*
X15826928Y-14494500D01*
X15845976Y-14484976D01*
X15998357Y-14665928D02*
X16007881Y-14675452D01*
X15998357Y-14684976D01*
X15988833Y-14675452D01*
X15998357Y-14665928D01*
X15998357Y-14684976D01*
X16131690Y-14484976D02*
X16150738Y-14484976D01*
X16169786Y-14494500D01*
X16179309Y-14504024D01*
X16188833Y-14523071D01*
X16198357Y-14561167D01*
X16198357Y-14608786D01*
X16188833Y-14646881D01*
X16179309Y-14665928D01*
X16169786Y-14675452D01*
X16150738Y-14684976D01*
X16131690Y-14684976D01*
X16112643Y-14675452D01*
X16103119Y-14665928D01*
X16093595Y-14646881D01*
X16084071Y-14608786D01*
X16084071Y-14561167D01*
X16093595Y-14523071D01*
X16103119Y-14504024D01*
X16112643Y-14494500D01*
X16131690Y-14484976D01*
X16274548Y-14504024D02*
X16284071Y-14494500D01*
X16303119Y-14484976D01*
X16350738Y-14484976D01*
X16369786Y-14494500D01*
X16379309Y-14504024D01*
X16388833Y-14523071D01*
X16388833Y-14542119D01*
X16379309Y-14570690D01*
X16265024Y-14684976D01*
X16388833Y-14684976D01*
X16484071Y-14684976D02*
X16522167Y-14684976D01*
X16541214Y-14675452D01*
X16550738Y-14665928D01*
X16569786Y-14637357D01*
X16579309Y-14599262D01*
X16579309Y-14523071D01*
X16569786Y-14504024D01*
X16560262Y-14494500D01*
X16541214Y-14484976D01*
X16503119Y-14484976D01*
X16484071Y-14494500D01*
X16474548Y-14504024D01*
X16465024Y-14523071D01*
X16465024Y-14570690D01*
X16474548Y-14589738D01*
X16484071Y-14599262D01*
X16503119Y-14608786D01*
X16541214Y-14608786D01*
X16560262Y-14599262D01*
X16569786Y-14589738D01*
X16579309Y-14570690D01*
X16760262Y-14484976D02*
X16665024Y-14484976D01*
X16655500Y-14580214D01*
X16665024Y-14570690D01*
X16684071Y-14561167D01*
X16731690Y-14561167D01*
X16750738Y-14570690D01*
X16760262Y-14580214D01*
X16769786Y-14599262D01*
X16769786Y-14646881D01*
X16760262Y-14665928D01*
X16750738Y-14675452D01*
X16731690Y-14684976D01*
X16684071Y-14684976D01*
X16665024Y-14675452D01*
X16655500Y-14665928D01*
X16845976Y-14484976D02*
X16845976Y-14523071D01*
X16922167Y-14484976D02*
X16922167Y-14523071D01*
X17217405Y-14761167D02*
X17207881Y-14751643D01*
X17188833Y-14723071D01*
X17179310Y-14704024D01*
X17169786Y-14675452D01*
X17160262Y-14627833D01*
X17160262Y-14589738D01*
X17169786Y-14542119D01*
X17179310Y-14513548D01*
X17188833Y-14494500D01*
X17207881Y-14465928D01*
X17217405Y-14456405D01*
X17379310Y-14484976D02*
X17341214Y-14484976D01*
X17322167Y-14494500D01*
X17312643Y-14504024D01*
X17293595Y-14532595D01*
X17284071Y-14570690D01*
X17284071Y-14646881D01*
X17293595Y-14665928D01*
X17303119Y-14675452D01*
X17322167Y-14684976D01*
X17360262Y-14684976D01*
X17379310Y-14675452D01*
X17388833Y-14665928D01*
X17398357Y-14646881D01*
X17398357Y-14599262D01*
X17388833Y-14580214D01*
X17379310Y-14570690D01*
X17360262Y-14561167D01*
X17322167Y-14561167D01*
X17303119Y-14570690D01*
X17293595Y-14580214D01*
X17284071Y-14599262D01*
X17636452Y-14684976D02*
X17636452Y-14484976D01*
X17722167Y-14684976D02*
X17722167Y-14580214D01*
X17712643Y-14561167D01*
X17693595Y-14551643D01*
X17665024Y-14551643D01*
X17645976Y-14561167D01*
X17636452Y-14570690D01*
X17845976Y-14684976D02*
X17826929Y-14675452D01*
X17817405Y-14665928D01*
X17807881Y-14646881D01*
X17807881Y-14589738D01*
X17817405Y-14570690D01*
X17826929Y-14561167D01*
X17845976Y-14551643D01*
X17874548Y-14551643D01*
X17893595Y-14561167D01*
X17903119Y-14570690D01*
X17912643Y-14589738D01*
X17912643Y-14646881D01*
X17903119Y-14665928D01*
X17893595Y-14675452D01*
X17874548Y-14684976D01*
X17845976Y-14684976D01*
X18026929Y-14684976D02*
X18007881Y-14675452D01*
X17998357Y-14656405D01*
X17998357Y-14484976D01*
X18179310Y-14675452D02*
X18160262Y-14684976D01*
X18122167Y-14684976D01*
X18103119Y-14675452D01*
X18093595Y-14656405D01*
X18093595Y-14580214D01*
X18103119Y-14561167D01*
X18122167Y-14551643D01*
X18160262Y-14551643D01*
X18179310Y-14561167D01*
X18188833Y-14580214D01*
X18188833Y-14599262D01*
X18093595Y-14618309D01*
X18265024Y-14675452D02*
X18284071Y-14684976D01*
X18322167Y-14684976D01*
X18341214Y-14675452D01*
X18350738Y-14656405D01*
X18350738Y-14646881D01*
X18341214Y-14627833D01*
X18322167Y-14618309D01*
X18293595Y-14618309D01*
X18274548Y-14608786D01*
X18265024Y-14589738D01*
X18265024Y-14580214D01*
X18274548Y-14561167D01*
X18293595Y-14551643D01*
X18322167Y-14551643D01*
X18341214Y-14561167D01*
X18417405Y-14761167D02*
X18426929Y-14751643D01*
X18445976Y-14723071D01*
X18455500Y-14704024D01*
X18465024Y-14675452D01*
X18474548Y-14627833D01*
X18474548Y-14589738D01*
X18465024Y-14542119D01*
X18455500Y-14513548D01*
X18445976Y-14494500D01*
X18426929Y-14465928D01*
X18417405Y-14456405D01*
D13*
X13645500Y-14858500D02*
G75*
G03*
X13645500Y-14858500I-40000J0D01*
G01*
D11*
X13941214Y-14748976D02*
X13960262Y-14748976D01*
X13979309Y-14758500D01*
X13988833Y-14768024D01*
X13998357Y-14787071D01*
X14007881Y-14825167D01*
X14007881Y-14872786D01*
X13998357Y-14910881D01*
X13988833Y-14929928D01*
X13979309Y-14939452D01*
X13960262Y-14948976D01*
X13941214Y-14948976D01*
X13922167Y-14939452D01*
X13912643Y-14929928D01*
X13903119Y-14910881D01*
X13893595Y-14872786D01*
X13893595Y-14825167D01*
X13903119Y-14787071D01*
X13912643Y-14768024D01*
X13922167Y-14758500D01*
X13941214Y-14748976D01*
X14093595Y-14929928D02*
X14103119Y-14939452D01*
X14093595Y-14948976D01*
X14084071Y-14939452D01*
X14093595Y-14929928D01*
X14093595Y-14948976D01*
X14217405Y-14834690D02*
X14198357Y-14825167D01*
X14188833Y-14815643D01*
X14179309Y-14796595D01*
X14179309Y-14787071D01*
X14188833Y-14768024D01*
X14198357Y-14758500D01*
X14217405Y-14748976D01*
X14255500Y-14748976D01*
X14274548Y-14758500D01*
X14284071Y-14768024D01*
X14293595Y-14787071D01*
X14293595Y-14796595D01*
X14284071Y-14815643D01*
X14274548Y-14825167D01*
X14255500Y-14834690D01*
X14217405Y-14834690D01*
X14198357Y-14844214D01*
X14188833Y-14853738D01*
X14179309Y-14872786D01*
X14179309Y-14910881D01*
X14188833Y-14929928D01*
X14198357Y-14939452D01*
X14217405Y-14948976D01*
X14255500Y-14948976D01*
X14274548Y-14939452D01*
X14284071Y-14929928D01*
X14293595Y-14910881D01*
X14293595Y-14872786D01*
X14284071Y-14853738D01*
X14274548Y-14844214D01*
X14255500Y-14834690D01*
X14417405Y-14748976D02*
X14436452Y-14748976D01*
X14455500Y-14758500D01*
X14465024Y-14768024D01*
X14474548Y-14787071D01*
X14484071Y-14825167D01*
X14484071Y-14872786D01*
X14474548Y-14910881D01*
X14465024Y-14929928D01*
X14455500Y-14939452D01*
X14436452Y-14948976D01*
X14417405Y-14948976D01*
X14398357Y-14939452D01*
X14388833Y-14929928D01*
X14379309Y-14910881D01*
X14369786Y-14872786D01*
X14369786Y-14825167D01*
X14379309Y-14787071D01*
X14388833Y-14768024D01*
X14398357Y-14758500D01*
X14417405Y-14748976D01*
X14607881Y-14748976D02*
X14626928Y-14748976D01*
X14645976Y-14758500D01*
X14655500Y-14768024D01*
X14665024Y-14787071D01*
X14674548Y-14825167D01*
X14674548Y-14872786D01*
X14665024Y-14910881D01*
X14655500Y-14929928D01*
X14645976Y-14939452D01*
X14626928Y-14948976D01*
X14607881Y-14948976D01*
X14588833Y-14939452D01*
X14579309Y-14929928D01*
X14569786Y-14910881D01*
X14560262Y-14872786D01*
X14560262Y-14825167D01*
X14569786Y-14787071D01*
X14579309Y-14768024D01*
X14588833Y-14758500D01*
X14607881Y-14748976D01*
X14760262Y-14948976D02*
X14760262Y-14815643D01*
X14760262Y-14834690D02*
X14769786Y-14825167D01*
X14788833Y-14815643D01*
X14817405Y-14815643D01*
X14836452Y-14825167D01*
X14845976Y-14844214D01*
X14845976Y-14948976D01*
X14845976Y-14844214D02*
X14855500Y-14825167D01*
X14874548Y-14815643D01*
X14903119Y-14815643D01*
X14922167Y-14825167D01*
X14931690Y-14844214D01*
X14931690Y-14948976D01*
X15026928Y-14948976D02*
X15026928Y-14815643D01*
X15026928Y-14834690D02*
X15036452Y-14825167D01*
X15055500Y-14815643D01*
X15084071Y-14815643D01*
X15103119Y-14825167D01*
X15112643Y-14844214D01*
X15112643Y-14948976D01*
X15112643Y-14844214D02*
X15122167Y-14825167D01*
X15141214Y-14815643D01*
X15169786Y-14815643D01*
X15188833Y-14825167D01*
X15198357Y-14844214D01*
X15198357Y-14948976D01*
X15588833Y-14739452D02*
X15417405Y-14996595D01*
X15845976Y-14748976D02*
X15865024Y-14748976D01*
X15884071Y-14758500D01*
X15893595Y-14768024D01*
X15903119Y-14787071D01*
X15912643Y-14825167D01*
X15912643Y-14872786D01*
X15903119Y-14910881D01*
X15893595Y-14929928D01*
X15884071Y-14939452D01*
X15865024Y-14948976D01*
X15845976Y-14948976D01*
X15826928Y-14939452D01*
X15817405Y-14929928D01*
X15807881Y-14910881D01*
X15798357Y-14872786D01*
X15798357Y-14825167D01*
X15807881Y-14787071D01*
X15817405Y-14768024D01*
X15826928Y-14758500D01*
X15845976Y-14748976D01*
X15998357Y-14929928D02*
X16007881Y-14939452D01*
X15998357Y-14948976D01*
X15988833Y-14939452D01*
X15998357Y-14929928D01*
X15998357Y-14948976D01*
X16131690Y-14748976D02*
X16150738Y-14748976D01*
X16169786Y-14758500D01*
X16179309Y-14768024D01*
X16188833Y-14787071D01*
X16198357Y-14825167D01*
X16198357Y-14872786D01*
X16188833Y-14910881D01*
X16179309Y-14929928D01*
X16169786Y-14939452D01*
X16150738Y-14948976D01*
X16131690Y-14948976D01*
X16112643Y-14939452D01*
X16103119Y-14929928D01*
X16093595Y-14910881D01*
X16084071Y-14872786D01*
X16084071Y-14825167D01*
X16093595Y-14787071D01*
X16103119Y-14768024D01*
X16112643Y-14758500D01*
X16131690Y-14748976D01*
X16265024Y-14748976D02*
X16388833Y-14748976D01*
X16322167Y-14825167D01*
X16350738Y-14825167D01*
X16369786Y-14834690D01*
X16379309Y-14844214D01*
X16388833Y-14863262D01*
X16388833Y-14910881D01*
X16379309Y-14929928D01*
X16369786Y-14939452D01*
X16350738Y-14948976D01*
X16293595Y-14948976D01*
X16274548Y-14939452D01*
X16265024Y-14929928D01*
X16579309Y-14948976D02*
X16465024Y-14948976D01*
X16522167Y-14948976D02*
X16522167Y-14748976D01*
X16503119Y-14777548D01*
X16484071Y-14796595D01*
X16465024Y-14806119D01*
X16760262Y-14748976D02*
X16665024Y-14748976D01*
X16655500Y-14844214D01*
X16665024Y-14834690D01*
X16684071Y-14825167D01*
X16731690Y-14825167D01*
X16750738Y-14834690D01*
X16760262Y-14844214D01*
X16769786Y-14863262D01*
X16769786Y-14910881D01*
X16760262Y-14929928D01*
X16750738Y-14939452D01*
X16731690Y-14948976D01*
X16684071Y-14948976D01*
X16665024Y-14939452D01*
X16655500Y-14929928D01*
X16845976Y-14748976D02*
X16845976Y-14787071D01*
X16922167Y-14748976D02*
X16922167Y-14787071D01*
X17217405Y-15025167D02*
X17207881Y-15015643D01*
X17188833Y-14987071D01*
X17179310Y-14968024D01*
X17169786Y-14939452D01*
X17160262Y-14891833D01*
X17160262Y-14853738D01*
X17169786Y-14806119D01*
X17179310Y-14777548D01*
X17188833Y-14758500D01*
X17207881Y-14729928D01*
X17217405Y-14720405D01*
X17303119Y-14948976D02*
X17341214Y-14948976D01*
X17360262Y-14939452D01*
X17369786Y-14929928D01*
X17388833Y-14901357D01*
X17398357Y-14863262D01*
X17398357Y-14787071D01*
X17388833Y-14768024D01*
X17379310Y-14758500D01*
X17360262Y-14748976D01*
X17322167Y-14748976D01*
X17303119Y-14758500D01*
X17293595Y-14768024D01*
X17284071Y-14787071D01*
X17284071Y-14834690D01*
X17293595Y-14853738D01*
X17303119Y-14863262D01*
X17322167Y-14872786D01*
X17360262Y-14872786D01*
X17379310Y-14863262D01*
X17388833Y-14853738D01*
X17398357Y-14834690D01*
X17636452Y-14948976D02*
X17636452Y-14748976D01*
X17722167Y-14948976D02*
X17722167Y-14844214D01*
X17712643Y-14825167D01*
X17693595Y-14815643D01*
X17665024Y-14815643D01*
X17645976Y-14825167D01*
X17636452Y-14834690D01*
X17845976Y-14948976D02*
X17826929Y-14939452D01*
X17817405Y-14929928D01*
X17807881Y-14910881D01*
X17807881Y-14853738D01*
X17817405Y-14834690D01*
X17826929Y-14825167D01*
X17845976Y-14815643D01*
X17874548Y-14815643D01*
X17893595Y-14825167D01*
X17903119Y-14834690D01*
X17912643Y-14853738D01*
X17912643Y-14910881D01*
X17903119Y-14929928D01*
X17893595Y-14939452D01*
X17874548Y-14948976D01*
X17845976Y-14948976D01*
X18026929Y-14948976D02*
X18007881Y-14939452D01*
X17998357Y-14920405D01*
X17998357Y-14748976D01*
X18179310Y-14939452D02*
X18160262Y-14948976D01*
X18122167Y-14948976D01*
X18103119Y-14939452D01*
X18093595Y-14920405D01*
X18093595Y-14844214D01*
X18103119Y-14825167D01*
X18122167Y-14815643D01*
X18160262Y-14815643D01*
X18179310Y-14825167D01*
X18188833Y-14844214D01*
X18188833Y-14863262D01*
X18093595Y-14882309D01*
X18265024Y-14939452D02*
X18284071Y-14948976D01*
X18322167Y-14948976D01*
X18341214Y-14939452D01*
X18350738Y-14920405D01*
X18350738Y-14910881D01*
X18341214Y-14891833D01*
X18322167Y-14882309D01*
X18293595Y-14882309D01*
X18274548Y-14872786D01*
X18265024Y-14853738D01*
X18265024Y-14844214D01*
X18274548Y-14825167D01*
X18293595Y-14815643D01*
X18322167Y-14815643D01*
X18341214Y-14825167D01*
X18417405Y-15025167D02*
X18426929Y-15015643D01*
X18445976Y-14987071D01*
X18455500Y-14968024D01*
X18465024Y-14939452D01*
X18474548Y-14891833D01*
X18474548Y-14853738D01*
X18465024Y-14806119D01*
X18455500Y-14777548D01*
X18445976Y-14758500D01*
X18426929Y-14729928D01*
X18417405Y-14720405D01*
D14*
X13600500Y-15077500D02*
X13600500Y-15167500D01*
X13555500Y-15122500D02*
X13645500Y-15122500D01*
D11*
X13941214Y-15012976D02*
X13960262Y-15012976D01*
X13979309Y-15022500D01*
X13988833Y-15032024D01*
X13998357Y-15051071D01*
X14007881Y-15089167D01*
X14007881Y-15136786D01*
X13998357Y-15174881D01*
X13988833Y-15193928D01*
X13979309Y-15203452D01*
X13960262Y-15212976D01*
X13941214Y-15212976D01*
X13922167Y-15203452D01*
X13912643Y-15193928D01*
X13903119Y-15174881D01*
X13893595Y-15136786D01*
X13893595Y-15089167D01*
X13903119Y-15051071D01*
X13912643Y-15032024D01*
X13922167Y-15022500D01*
X13941214Y-15012976D01*
X14093595Y-15193928D02*
X14103119Y-15203452D01*
X14093595Y-15212976D01*
X14084071Y-15203452D01*
X14093595Y-15193928D01*
X14093595Y-15212976D01*
X14198357Y-15212976D02*
X14236452Y-15212976D01*
X14255500Y-15203452D01*
X14265024Y-15193928D01*
X14284071Y-15165357D01*
X14293595Y-15127262D01*
X14293595Y-15051071D01*
X14284071Y-15032024D01*
X14274548Y-15022500D01*
X14255500Y-15012976D01*
X14217405Y-15012976D01*
X14198357Y-15022500D01*
X14188833Y-15032024D01*
X14179309Y-15051071D01*
X14179309Y-15098690D01*
X14188833Y-15117738D01*
X14198357Y-15127262D01*
X14217405Y-15136786D01*
X14255500Y-15136786D01*
X14274548Y-15127262D01*
X14284071Y-15117738D01*
X14293595Y-15098690D01*
X14417405Y-15012976D02*
X14436452Y-15012976D01*
X14455500Y-15022500D01*
X14465024Y-15032024D01*
X14474548Y-15051071D01*
X14484071Y-15089167D01*
X14484071Y-15136786D01*
X14474548Y-15174881D01*
X14465024Y-15193928D01*
X14455500Y-15203452D01*
X14436452Y-15212976D01*
X14417405Y-15212976D01*
X14398357Y-15203452D01*
X14388833Y-15193928D01*
X14379309Y-15174881D01*
X14369786Y-15136786D01*
X14369786Y-15089167D01*
X14379309Y-15051071D01*
X14388833Y-15032024D01*
X14398357Y-15022500D01*
X14417405Y-15012976D01*
X14607881Y-15012976D02*
X14626928Y-15012976D01*
X14645976Y-15022500D01*
X14655500Y-15032024D01*
X14665024Y-15051071D01*
X14674548Y-15089167D01*
X14674548Y-15136786D01*
X14665024Y-15174881D01*
X14655500Y-15193928D01*
X14645976Y-15203452D01*
X14626928Y-15212976D01*
X14607881Y-15212976D01*
X14588833Y-15203452D01*
X14579309Y-15193928D01*
X14569786Y-15174881D01*
X14560262Y-15136786D01*
X14560262Y-15089167D01*
X14569786Y-15051071D01*
X14579309Y-15032024D01*
X14588833Y-15022500D01*
X14607881Y-15012976D01*
X14760262Y-15212976D02*
X14760262Y-15079643D01*
X14760262Y-15098690D02*
X14769786Y-15089167D01*
X14788833Y-15079643D01*
X14817405Y-15079643D01*
X14836452Y-15089167D01*
X14845976Y-15108214D01*
X14845976Y-15212976D01*
X14845976Y-15108214D02*
X14855500Y-15089167D01*
X14874548Y-15079643D01*
X14903119Y-15079643D01*
X14922167Y-15089167D01*
X14931690Y-15108214D01*
X14931690Y-15212976D01*
X15026928Y-15212976D02*
X15026928Y-15079643D01*
X15026928Y-15098690D02*
X15036452Y-15089167D01*
X15055500Y-15079643D01*
X15084071Y-15079643D01*
X15103119Y-15089167D01*
X15112643Y-15108214D01*
X15112643Y-15212976D01*
X15112643Y-15108214D02*
X15122167Y-15089167D01*
X15141214Y-15079643D01*
X15169786Y-15079643D01*
X15188833Y-15089167D01*
X15198357Y-15108214D01*
X15198357Y-15212976D01*
X15588833Y-15003452D02*
X15417405Y-15260595D01*
X15845976Y-15012976D02*
X15865024Y-15012976D01*
X15884071Y-15022500D01*
X15893595Y-15032024D01*
X15903119Y-15051071D01*
X15912643Y-15089167D01*
X15912643Y-15136786D01*
X15903119Y-15174881D01*
X15893595Y-15193928D01*
X15884071Y-15203452D01*
X15865024Y-15212976D01*
X15845976Y-15212976D01*
X15826928Y-15203452D01*
X15817405Y-15193928D01*
X15807881Y-15174881D01*
X15798357Y-15136786D01*
X15798357Y-15089167D01*
X15807881Y-15051071D01*
X15817405Y-15032024D01*
X15826928Y-15022500D01*
X15845976Y-15012976D01*
X15998357Y-15193928D02*
X16007881Y-15203452D01*
X15998357Y-15212976D01*
X15988833Y-15203452D01*
X15998357Y-15193928D01*
X15998357Y-15212976D01*
X16131690Y-15012976D02*
X16150738Y-15012976D01*
X16169786Y-15022500D01*
X16179309Y-15032024D01*
X16188833Y-15051071D01*
X16198357Y-15089167D01*
X16198357Y-15136786D01*
X16188833Y-15174881D01*
X16179309Y-15193928D01*
X16169786Y-15203452D01*
X16150738Y-15212976D01*
X16131690Y-15212976D01*
X16112643Y-15203452D01*
X16103119Y-15193928D01*
X16093595Y-15174881D01*
X16084071Y-15136786D01*
X16084071Y-15089167D01*
X16093595Y-15051071D01*
X16103119Y-15032024D01*
X16112643Y-15022500D01*
X16131690Y-15012976D01*
X16265024Y-15012976D02*
X16388833Y-15012976D01*
X16322167Y-15089167D01*
X16350738Y-15089167D01*
X16369786Y-15098690D01*
X16379309Y-15108214D01*
X16388833Y-15127262D01*
X16388833Y-15174881D01*
X16379309Y-15193928D01*
X16369786Y-15203452D01*
X16350738Y-15212976D01*
X16293595Y-15212976D01*
X16274548Y-15203452D01*
X16265024Y-15193928D01*
X16569786Y-15012976D02*
X16474548Y-15012976D01*
X16465024Y-15108214D01*
X16474548Y-15098690D01*
X16493595Y-15089167D01*
X16541214Y-15089167D01*
X16560262Y-15098690D01*
X16569786Y-15108214D01*
X16579309Y-15127262D01*
X16579309Y-15174881D01*
X16569786Y-15193928D01*
X16560262Y-15203452D01*
X16541214Y-15212976D01*
X16493595Y-15212976D01*
X16474548Y-15203452D01*
X16465024Y-15193928D01*
X16750738Y-15079643D02*
X16750738Y-15212976D01*
X16703119Y-15003452D02*
X16655500Y-15146309D01*
X16779310Y-15146309D01*
X16845976Y-15012976D02*
X16845976Y-15051071D01*
X16922167Y-15012976D02*
X16922167Y-15051071D01*
X17217405Y-15289167D02*
X17207881Y-15279643D01*
X17188833Y-15251071D01*
X17179310Y-15232024D01*
X17169786Y-15203452D01*
X17160262Y-15155833D01*
X17160262Y-15117738D01*
X17169786Y-15070119D01*
X17179310Y-15041548D01*
X17188833Y-15022500D01*
X17207881Y-14993928D01*
X17217405Y-14984405D01*
X17398357Y-15212976D02*
X17284071Y-15212976D01*
X17341214Y-15212976D02*
X17341214Y-15012976D01*
X17322167Y-15041548D01*
X17303119Y-15060595D01*
X17284071Y-15070119D01*
X17569786Y-15012976D02*
X17531690Y-15012976D01*
X17512643Y-15022500D01*
X17503119Y-15032024D01*
X17484071Y-15060595D01*
X17474548Y-15098690D01*
X17474548Y-15174881D01*
X17484071Y-15193928D01*
X17493595Y-15203452D01*
X17512643Y-15212976D01*
X17550738Y-15212976D01*
X17569786Y-15203452D01*
X17579310Y-15193928D01*
X17588833Y-15174881D01*
X17588833Y-15127262D01*
X17579310Y-15108214D01*
X17569786Y-15098690D01*
X17550738Y-15089167D01*
X17512643Y-15089167D01*
X17493595Y-15098690D01*
X17484071Y-15108214D01*
X17474548Y-15127262D01*
X17826929Y-15212976D02*
X17826929Y-15012976D01*
X17912643Y-15212976D02*
X17912643Y-15108214D01*
X17903119Y-15089167D01*
X17884071Y-15079643D01*
X17855500Y-15079643D01*
X17836452Y-15089167D01*
X17826929Y-15098690D01*
X18036452Y-15212976D02*
X18017405Y-15203452D01*
X18007881Y-15193928D01*
X17998357Y-15174881D01*
X17998357Y-15117738D01*
X18007881Y-15098690D01*
X18017405Y-15089167D01*
X18036452Y-15079643D01*
X18065024Y-15079643D01*
X18084071Y-15089167D01*
X18093595Y-15098690D01*
X18103119Y-15117738D01*
X18103119Y-15174881D01*
X18093595Y-15193928D01*
X18084071Y-15203452D01*
X18065024Y-15212976D01*
X18036452Y-15212976D01*
X18217405Y-15212976D02*
X18198357Y-15203452D01*
X18188833Y-15184405D01*
X18188833Y-15012976D01*
X18369786Y-15203452D02*
X18350738Y-15212976D01*
X18312643Y-15212976D01*
X18293595Y-15203452D01*
X18284071Y-15184405D01*
X18284071Y-15108214D01*
X18293595Y-15089167D01*
X18312643Y-15079643D01*
X18350738Y-15079643D01*
X18369786Y-15089167D01*
X18379310Y-15108214D01*
X18379310Y-15127262D01*
X18284071Y-15146309D01*
X18455500Y-15203452D02*
X18474548Y-15212976D01*
X18512643Y-15212976D01*
X18531690Y-15203452D01*
X18541214Y-15184405D01*
X18541214Y-15174881D01*
X18531690Y-15155833D01*
X18512643Y-15146309D01*
X18484071Y-15146309D01*
X18465024Y-15136786D01*
X18455500Y-15117738D01*
X18455500Y-15108214D01*
X18465024Y-15089167D01*
X18484071Y-15079643D01*
X18512643Y-15079643D01*
X18531690Y-15089167D01*
X18607881Y-15289167D02*
X18617405Y-15279643D01*
X18636452Y-15251071D01*
X18645976Y-15232024D01*
X18655500Y-15203452D01*
X18665024Y-15155833D01*
X18665024Y-15117738D01*
X18655500Y-15070119D01*
X18645976Y-15041548D01*
X18636452Y-15022500D01*
X18617405Y-14993928D01*
X18607881Y-14984405D01*
D15*
X13629391Y-15425391D02*
X13629391Y-15347609D01*
X13551609Y-15347609D01*
X13551609Y-15425391D01*
X13629391Y-15425391D01*
D11*
X14007881Y-15476976D02*
X13893595Y-15476976D01*
X13950738Y-15476976D02*
X13950738Y-15276976D01*
X13931690Y-15305548D01*
X13912643Y-15324595D01*
X13893595Y-15334119D01*
X14093595Y-15457928D02*
X14103119Y-15467452D01*
X14093595Y-15476976D01*
X14084071Y-15467452D01*
X14093595Y-15457928D01*
X14093595Y-15476976D01*
X14293595Y-15476976D02*
X14179309Y-15476976D01*
X14236452Y-15476976D02*
X14236452Y-15276976D01*
X14217405Y-15305548D01*
X14198357Y-15324595D01*
X14179309Y-15334119D01*
X14417405Y-15276976D02*
X14436452Y-15276976D01*
X14455500Y-15286500D01*
X14465024Y-15296024D01*
X14474548Y-15315071D01*
X14484071Y-15353167D01*
X14484071Y-15400786D01*
X14474548Y-15438881D01*
X14465024Y-15457928D01*
X14455500Y-15467452D01*
X14436452Y-15476976D01*
X14417405Y-15476976D01*
X14398357Y-15467452D01*
X14388833Y-15457928D01*
X14379309Y-15438881D01*
X14369786Y-15400786D01*
X14369786Y-15353167D01*
X14379309Y-15315071D01*
X14388833Y-15296024D01*
X14398357Y-15286500D01*
X14417405Y-15276976D01*
X14607881Y-15276976D02*
X14626928Y-15276976D01*
X14645976Y-15286500D01*
X14655500Y-15296024D01*
X14665024Y-15315071D01*
X14674548Y-15353167D01*
X14674548Y-15400786D01*
X14665024Y-15438881D01*
X14655500Y-15457928D01*
X14645976Y-15467452D01*
X14626928Y-15476976D01*
X14607881Y-15476976D01*
X14588833Y-15467452D01*
X14579309Y-15457928D01*
X14569786Y-15438881D01*
X14560262Y-15400786D01*
X14560262Y-15353167D01*
X14569786Y-15315071D01*
X14579309Y-15296024D01*
X14588833Y-15286500D01*
X14607881Y-15276976D01*
X14760262Y-15476976D02*
X14760262Y-15343643D01*
X14760262Y-15362690D02*
X14769786Y-15353167D01*
X14788833Y-15343643D01*
X14817405Y-15343643D01*
X14836452Y-15353167D01*
X14845976Y-15372214D01*
X14845976Y-15476976D01*
X14845976Y-15372214D02*
X14855500Y-15353167D01*
X14874548Y-15343643D01*
X14903119Y-15343643D01*
X14922167Y-15353167D01*
X14931690Y-15372214D01*
X14931690Y-15476976D01*
X15026928Y-15476976D02*
X15026928Y-15343643D01*
X15026928Y-15362690D02*
X15036452Y-15353167D01*
X15055500Y-15343643D01*
X15084071Y-15343643D01*
X15103119Y-15353167D01*
X15112643Y-15372214D01*
X15112643Y-15476976D01*
X15112643Y-15372214D02*
X15122167Y-15353167D01*
X15141214Y-15343643D01*
X15169786Y-15343643D01*
X15188833Y-15353167D01*
X15198357Y-15372214D01*
X15198357Y-15476976D01*
X15588833Y-15267452D02*
X15417405Y-15524595D01*
X15845976Y-15276976D02*
X15865024Y-15276976D01*
X15884071Y-15286500D01*
X15893595Y-15296024D01*
X15903119Y-15315071D01*
X15912643Y-15353167D01*
X15912643Y-15400786D01*
X15903119Y-15438881D01*
X15893595Y-15457928D01*
X15884071Y-15467452D01*
X15865024Y-15476976D01*
X15845976Y-15476976D01*
X15826928Y-15467452D01*
X15817405Y-15457928D01*
X15807881Y-15438881D01*
X15798357Y-15400786D01*
X15798357Y-15353167D01*
X15807881Y-15315071D01*
X15817405Y-15296024D01*
X15826928Y-15286500D01*
X15845976Y-15276976D01*
X15998357Y-15457928D02*
X16007881Y-15467452D01*
X15998357Y-15476976D01*
X15988833Y-15467452D01*
X15998357Y-15457928D01*
X15998357Y-15476976D01*
X16131690Y-15276976D02*
X16150738Y-15276976D01*
X16169786Y-15286500D01*
X16179309Y-15296024D01*
X16188833Y-15315071D01*
X16198357Y-15353167D01*
X16198357Y-15400786D01*
X16188833Y-15438881D01*
X16179309Y-15457928D01*
X16169786Y-15467452D01*
X16150738Y-15476976D01*
X16131690Y-15476976D01*
X16112643Y-15467452D01*
X16103119Y-15457928D01*
X16093595Y-15438881D01*
X16084071Y-15400786D01*
X16084071Y-15353167D01*
X16093595Y-15315071D01*
X16103119Y-15296024D01*
X16112643Y-15286500D01*
X16131690Y-15276976D01*
X16369786Y-15343643D02*
X16369786Y-15476976D01*
X16322167Y-15267452D02*
X16274548Y-15410309D01*
X16398357Y-15410309D01*
X16455500Y-15276976D02*
X16579309Y-15276976D01*
X16512643Y-15353167D01*
X16541214Y-15353167D01*
X16560262Y-15362690D01*
X16569786Y-15372214D01*
X16579309Y-15391262D01*
X16579309Y-15438881D01*
X16569786Y-15457928D01*
X16560262Y-15467452D01*
X16541214Y-15476976D01*
X16484071Y-15476976D01*
X16465024Y-15467452D01*
X16455500Y-15457928D01*
X16645976Y-15276976D02*
X16769786Y-15276976D01*
X16703119Y-15353167D01*
X16731690Y-15353167D01*
X16750738Y-15362690D01*
X16760262Y-15372214D01*
X16769786Y-15391262D01*
X16769786Y-15438881D01*
X16760262Y-15457928D01*
X16750738Y-15467452D01*
X16731690Y-15476976D01*
X16674548Y-15476976D01*
X16655500Y-15467452D01*
X16645976Y-15457928D01*
X16845976Y-15276976D02*
X16845976Y-15315071D01*
X16922167Y-15276976D02*
X16922167Y-15315071D01*
X17217405Y-15553167D02*
X17207881Y-15543643D01*
X17188833Y-15515071D01*
X17179310Y-15496024D01*
X17169786Y-15467452D01*
X17160262Y-15419833D01*
X17160262Y-15381738D01*
X17169786Y-15334119D01*
X17179310Y-15305548D01*
X17188833Y-15286500D01*
X17207881Y-15257928D01*
X17217405Y-15248405D01*
X17284071Y-15296024D02*
X17293595Y-15286500D01*
X17312643Y-15276976D01*
X17360262Y-15276976D01*
X17379310Y-15286500D01*
X17388833Y-15296024D01*
X17398357Y-15315071D01*
X17398357Y-15334119D01*
X17388833Y-15362690D01*
X17274548Y-15476976D01*
X17398357Y-15476976D01*
X17636452Y-15476976D02*
X17636452Y-15276976D01*
X17722167Y-15476976D02*
X17722167Y-15372214D01*
X17712643Y-15353167D01*
X17693595Y-15343643D01*
X17665024Y-15343643D01*
X17645976Y-15353167D01*
X17636452Y-15362690D01*
X17845976Y-15476976D02*
X17826929Y-15467452D01*
X17817405Y-15457928D01*
X17807881Y-15438881D01*
X17807881Y-15381738D01*
X17817405Y-15362690D01*
X17826929Y-15353167D01*
X17845976Y-15343643D01*
X17874548Y-15343643D01*
X17893595Y-15353167D01*
X17903119Y-15362690D01*
X17912643Y-15381738D01*
X17912643Y-15438881D01*
X17903119Y-15457928D01*
X17893595Y-15467452D01*
X17874548Y-15476976D01*
X17845976Y-15476976D01*
X18026929Y-15476976D02*
X18007881Y-15467452D01*
X17998357Y-15448405D01*
X17998357Y-15276976D01*
X18179310Y-15467452D02*
X18160262Y-15476976D01*
X18122167Y-15476976D01*
X18103119Y-15467452D01*
X18093595Y-15448405D01*
X18093595Y-15372214D01*
X18103119Y-15353167D01*
X18122167Y-15343643D01*
X18160262Y-15343643D01*
X18179310Y-15353167D01*
X18188833Y-15372214D01*
X18188833Y-15391262D01*
X18093595Y-15410309D01*
X18265024Y-15467452D02*
X18284071Y-15476976D01*
X18322167Y-15476976D01*
X18341214Y-15467452D01*
X18350738Y-15448405D01*
X18350738Y-15438881D01*
X18341214Y-15419833D01*
X18322167Y-15410309D01*
X18293595Y-15410309D01*
X18274548Y-15400786D01*
X18265024Y-15381738D01*
X18265024Y-15372214D01*
X18274548Y-15353167D01*
X18293595Y-15343643D01*
X18322167Y-15343643D01*
X18341214Y-15353167D01*
X18417405Y-15553167D02*
X18426929Y-15543643D01*
X18445976Y-15515071D01*
X18455500Y-15496024D01*
X18465024Y-15467452D01*
X18474548Y-15419833D01*
X18474548Y-15381738D01*
X18465024Y-15334119D01*
X18455500Y-15305548D01*
X18445976Y-15286500D01*
X18426929Y-15257928D01*
X18417405Y-15248405D01*
M02*
