%TF.GenerationSoftware,KiCad,Pcbnew,(5.99.0-12789-g9e557d84c6)*%
%TF.CreationDate,2021-11-25T22:39:53-08:00*%
%TF.ProjectId,Emitter,456d6974-7465-4722-9e6b-696361645f70,rev?*%
%TF.SameCoordinates,Original*%
%TF.FileFunction,Copper,L2,Bot*%
%TF.FilePolarity,Positive*%
%FSLAX46Y46*%
G04 Gerber Fmt 4.6, Leading zero omitted, Abs format (unit mm)*
G04 Created by KiCad (PCBNEW (5.99.0-12789-g9e557d84c6)) date 2021-11-25 22:39:53*
%MOMM*%
%LPD*%
G01*
G04 APERTURE LIST*
%TA.AperFunction,ComponentPad*%
%ADD10R,1.800000X1.800000*%
%TD*%
%TA.AperFunction,ComponentPad*%
%ADD11C,1.800000*%
%TD*%
%TA.AperFunction,ComponentPad*%
%ADD12C,1.600000*%
%TD*%
%TA.AperFunction,ComponentPad*%
%ADD13R,1.700000X1.700000*%
%TD*%
%TA.AperFunction,ComponentPad*%
%ADD14O,1.700000X1.700000*%
%TD*%
%TA.AperFunction,ComponentPad*%
%ADD15C,1.440000*%
%TD*%
%TA.AperFunction,ComponentPad*%
%ADD16O,1.600000X1.600000*%
%TD*%
%TA.AperFunction,ComponentPad*%
%ADD17R,1.600000X1.600000*%
%TD*%
%TA.AperFunction,ComponentPad*%
%ADD18R,1.050000X1.500000*%
%TD*%
%TA.AperFunction,ComponentPad*%
%ADD19O,1.050000X1.500000*%
%TD*%
G04 APERTURE END LIST*
D10*
%TO.P,D2,1,K*%
%TO.N,Net-(D2-Pad1)*%
X138730000Y-124495000D03*
D11*
%TO.P,D2,2,A*%
%TO.N,Net-(D1-Pad1)*%
X141270000Y-124495000D03*
%TD*%
D10*
%TO.P,D3,1,K*%
%TO.N,Net-(D3-Pad1)*%
X138730000Y-107495000D03*
D11*
%TO.P,D3,2,A*%
%TO.N,Net-(D2-Pad1)*%
X141270000Y-107495000D03*
%TD*%
D10*
%TO.P,D6,1,K*%
%TO.N,Net-(D6-Pad1)*%
X138730000Y-73495000D03*
D11*
%TO.P,D6,2,A*%
%TO.N,Net-(D5-Pad1)*%
X141270000Y-73495000D03*
%TD*%
D10*
%TO.P,D7,1,K*%
%TO.N,Net-(D7-Pad1)*%
X138730000Y-56495000D03*
D11*
%TO.P,D7,2,A*%
%TO.N,Net-(D6-Pad1)*%
X141270000Y-56495000D03*
%TD*%
D10*
%TO.P,D4,1,K*%
%TO.N,Net-(D4-Pad1)*%
X138730000Y-98995000D03*
D11*
%TO.P,D4,2,A*%
%TO.N,Net-(D3-Pad1)*%
X141270000Y-98995000D03*
%TD*%
D10*
%TO.P,D8,1,K*%
%TO.N,Net-(D8-Pad1)*%
X138730000Y-47995000D03*
D11*
%TO.P,D8,2,A*%
%TO.N,Net-(D7-Pad1)*%
X141270000Y-47995000D03*
%TD*%
D10*
%TO.P,D5,1,K*%
%TO.N,Net-(D5-Pad1)*%
X138730000Y-81995000D03*
D11*
%TO.P,D5,2,A*%
%TO.N,Net-(D4-Pad1)*%
X141270000Y-81995000D03*
%TD*%
D10*
%TO.P,D1,1,K*%
%TO.N,Net-(D1-Pad1)*%
X138730000Y-132995000D03*
D11*
%TO.P,D1,2,A*%
%TO.N,+12V*%
X141270000Y-132995000D03*
%TD*%
D12*
%TO.P,C2,1*%
%TO.N,+12V*%
X150005000Y-118995000D03*
%TO.P,C2,2*%
%TO.N,GND*%
X145005000Y-118995000D03*
%TD*%
D13*
%TO.P,J1,1,Pin_1*%
%TO.N,+12V*%
X146250000Y-133495000D03*
D14*
%TO.P,J1,2,Pin_2*%
%TO.N,GND*%
X148790000Y-133495000D03*
%TD*%
D15*
%TO.P,R2,1*%
%TO.N,Net-(Q1-Pad2)*%
X147505000Y-81445000D03*
%TO.P,R2,2*%
%TO.N,GND*%
X147505000Y-83985000D03*
%TO.P,R2,3*%
%TO.N,N/C*%
X147505000Y-86525000D03*
%TD*%
D12*
%TO.P,R1,1*%
%TO.N,+12V*%
X147505000Y-105805000D03*
D16*
%TO.P,R1,2*%
%TO.N,Net-(Q1-Pad3)*%
X147505000Y-98185000D03*
%TD*%
D17*
%TO.P,C1,1*%
%TO.N,+12V*%
X146322621Y-111995000D03*
D12*
%TO.P,C1,2*%
%TO.N,GND*%
X148822621Y-111995000D03*
%TD*%
D18*
%TO.P,Q2,1,S*%
%TO.N,Net-(Q1-Pad2)*%
X146235000Y-74622500D03*
D19*
%TO.P,Q2,2,G*%
%TO.N,Net-(Q1-Pad3)*%
X147505000Y-74622500D03*
%TO.P,Q2,3,D*%
%TO.N,Net-(D8-Pad1)*%
X148775000Y-74622500D03*
%TD*%
D18*
%TO.P,Q1,1,E*%
%TO.N,GND*%
X146235000Y-92622500D03*
D19*
%TO.P,Q1,2,B*%
%TO.N,Net-(Q1-Pad2)*%
X147505000Y-92622500D03*
%TO.P,Q1,3,C*%
%TO.N,Net-(Q1-Pad3)*%
X148775000Y-92622500D03*
%TD*%
%TA.AperFunction,Conductor*%
%TO.N,GND*%
G36*
X151439121Y-43523002D02*
G01*
X151485614Y-43576658D01*
X151497000Y-43629000D01*
X151497000Y-118550500D01*
X151476998Y-118618621D01*
X151423342Y-118665114D01*
X151353068Y-118675218D01*
X151288488Y-118645724D01*
X151249293Y-118583111D01*
X151240707Y-118551067D01*
X151240706Y-118551065D01*
X151239284Y-118545757D01*
X151144966Y-118343489D01*
X151144849Y-118343238D01*
X151144846Y-118343233D01*
X151142523Y-118338251D01*
X151011198Y-118150700D01*
X150849300Y-117988802D01*
X150844792Y-117985645D01*
X150844789Y-117985643D01*
X150718920Y-117897509D01*
X150661749Y-117857477D01*
X150656767Y-117855154D01*
X150656762Y-117855151D01*
X150459225Y-117763039D01*
X150459224Y-117763039D01*
X150454243Y-117760716D01*
X150448935Y-117759294D01*
X150448933Y-117759293D01*
X150238402Y-117702881D01*
X150238400Y-117702881D01*
X150233087Y-117701457D01*
X150005000Y-117681502D01*
X149776913Y-117701457D01*
X149771600Y-117702881D01*
X149771598Y-117702881D01*
X149561067Y-117759293D01*
X149561065Y-117759294D01*
X149555757Y-117760716D01*
X149550776Y-117763039D01*
X149550775Y-117763039D01*
X149353238Y-117855151D01*
X149353233Y-117855154D01*
X149348251Y-117857477D01*
X149291080Y-117897509D01*
X149165211Y-117985643D01*
X149165208Y-117985645D01*
X149160700Y-117988802D01*
X148998802Y-118150700D01*
X148867477Y-118338251D01*
X148865154Y-118343233D01*
X148865151Y-118343238D01*
X148865034Y-118343489D01*
X148770716Y-118545757D01*
X148769294Y-118551065D01*
X148769293Y-118551067D01*
X148748019Y-118630461D01*
X148711457Y-118766913D01*
X148691502Y-118995000D01*
X148711457Y-119223087D01*
X148712881Y-119228400D01*
X148712881Y-119228402D01*
X148750025Y-119367022D01*
X148770716Y-119444243D01*
X148773039Y-119449224D01*
X148773039Y-119449225D01*
X148865151Y-119646762D01*
X148865154Y-119646767D01*
X148867477Y-119651749D01*
X148998802Y-119839300D01*
X149160700Y-120001198D01*
X149165208Y-120004355D01*
X149165211Y-120004357D01*
X149243389Y-120059098D01*
X149348251Y-120132523D01*
X149353233Y-120134846D01*
X149353238Y-120134849D01*
X149549765Y-120226490D01*
X149555757Y-120229284D01*
X149561065Y-120230706D01*
X149561067Y-120230707D01*
X149771598Y-120287119D01*
X149771600Y-120287119D01*
X149776913Y-120288543D01*
X150005000Y-120308498D01*
X150233087Y-120288543D01*
X150238400Y-120287119D01*
X150238402Y-120287119D01*
X150448933Y-120230707D01*
X150448935Y-120230706D01*
X150454243Y-120229284D01*
X150460235Y-120226490D01*
X150656762Y-120134849D01*
X150656767Y-120134846D01*
X150661749Y-120132523D01*
X150766611Y-120059098D01*
X150844789Y-120004357D01*
X150844792Y-120004355D01*
X150849300Y-120001198D01*
X151011198Y-119839300D01*
X151142523Y-119651749D01*
X151144846Y-119646767D01*
X151144849Y-119646762D01*
X151236961Y-119449225D01*
X151236961Y-119449224D01*
X151239284Y-119444243D01*
X151249293Y-119406889D01*
X151286245Y-119346266D01*
X151350105Y-119315245D01*
X151420600Y-119323673D01*
X151475347Y-119368876D01*
X151497000Y-119439500D01*
X151497000Y-136861000D01*
X151476998Y-136929121D01*
X151423342Y-136975614D01*
X151371000Y-136987000D01*
X137139000Y-136987000D01*
X137070879Y-136966998D01*
X137024386Y-136913342D01*
X137013000Y-136861000D01*
X137013000Y-133943134D01*
X137321500Y-133943134D01*
X137328255Y-134005316D01*
X137379385Y-134141705D01*
X137466739Y-134258261D01*
X137583295Y-134345615D01*
X137719684Y-134396745D01*
X137781866Y-134403500D01*
X139678134Y-134403500D01*
X139740316Y-134396745D01*
X139876705Y-134345615D01*
X139993261Y-134258261D01*
X140080615Y-134141705D01*
X140105180Y-134076178D01*
X140147822Y-134019414D01*
X140214383Y-133994714D01*
X140283732Y-134009921D01*
X140303647Y-134023464D01*
X140368724Y-134077492D01*
X140459349Y-134152730D01*
X140659322Y-134269584D01*
X140875694Y-134352209D01*
X140880760Y-134353240D01*
X140880761Y-134353240D01*
X140933846Y-134364040D01*
X141102656Y-134398385D01*
X141232089Y-134403131D01*
X141328949Y-134406683D01*
X141328953Y-134406683D01*
X141334113Y-134406872D01*
X141339233Y-134406216D01*
X141339235Y-134406216D01*
X141414836Y-134396531D01*
X141441353Y-134393134D01*
X144891500Y-134393134D01*
X144898255Y-134455316D01*
X144949385Y-134591705D01*
X145036739Y-134708261D01*
X145153295Y-134795615D01*
X145289684Y-134846745D01*
X145351866Y-134853500D01*
X147148134Y-134853500D01*
X147210316Y-134846745D01*
X147346705Y-134795615D01*
X147463261Y-134708261D01*
X147550615Y-134591705D01*
X147594798Y-134473848D01*
X147637440Y-134417084D01*
X147704001Y-134392384D01*
X147773350Y-134407592D01*
X147808017Y-134435580D01*
X147833218Y-134464673D01*
X147840580Y-134471883D01*
X148004434Y-134607916D01*
X148012881Y-134613831D01*
X148196756Y-134721279D01*
X148206042Y-134725729D01*
X148405001Y-134801703D01*
X148414899Y-134804579D01*
X148518250Y-134825606D01*
X148532299Y-134824410D01*
X148536000Y-134814065D01*
X148536000Y-134813517D01*
X149044000Y-134813517D01*
X149048064Y-134827359D01*
X149061478Y-134829393D01*
X149068184Y-134828534D01*
X149078262Y-134826392D01*
X149282255Y-134765191D01*
X149291842Y-134761433D01*
X149483095Y-134667739D01*
X149491945Y-134662464D01*
X149665328Y-134538792D01*
X149673200Y-134532139D01*
X149824052Y-134381812D01*
X149830730Y-134373965D01*
X149955003Y-134201020D01*
X149960313Y-134192183D01*
X150054670Y-134001267D01*
X150058469Y-133991672D01*
X150120377Y-133787910D01*
X150122555Y-133777837D01*
X150123986Y-133766962D01*
X150121775Y-133752778D01*
X150108617Y-133749000D01*
X149062115Y-133749000D01*
X149046876Y-133753475D01*
X149045671Y-133754865D01*
X149044000Y-133762548D01*
X149044000Y-134813517D01*
X148536000Y-134813517D01*
X148536000Y-133222885D01*
X149044000Y-133222885D01*
X149048475Y-133238124D01*
X149049865Y-133239329D01*
X149057548Y-133241000D01*
X150108344Y-133241000D01*
X150121875Y-133237027D01*
X150123180Y-133227947D01*
X150081214Y-133060875D01*
X150077894Y-133051124D01*
X149992972Y-132855814D01*
X149988105Y-132846739D01*
X149872426Y-132667926D01*
X149866136Y-132659757D01*
X149722806Y-132502240D01*
X149715273Y-132495215D01*
X149548139Y-132363222D01*
X149539552Y-132357517D01*
X149353117Y-132254599D01*
X149343705Y-132250369D01*
X149142959Y-132179280D01*
X149132988Y-132176646D01*
X149061837Y-132163972D01*
X149048540Y-132165432D01*
X149044000Y-132179989D01*
X149044000Y-133222885D01*
X148536000Y-133222885D01*
X148536000Y-132178102D01*
X148532082Y-132164758D01*
X148517806Y-132162771D01*
X148479324Y-132168660D01*
X148469288Y-132171051D01*
X148266868Y-132237212D01*
X148257359Y-132241209D01*
X148068463Y-132339542D01*
X148059738Y-132345036D01*
X147889433Y-132472905D01*
X147881726Y-132479748D01*
X147804478Y-132560584D01*
X147742954Y-132596014D01*
X147672042Y-132592557D01*
X147614255Y-132551311D01*
X147595402Y-132517763D01*
X147553767Y-132406703D01*
X147550615Y-132398295D01*
X147463261Y-132281739D01*
X147346705Y-132194385D01*
X147210316Y-132143255D01*
X147148134Y-132136500D01*
X145351866Y-132136500D01*
X145289684Y-132143255D01*
X145153295Y-132194385D01*
X145036739Y-132281739D01*
X144949385Y-132398295D01*
X144898255Y-132534684D01*
X144891500Y-132596866D01*
X144891500Y-134393134D01*
X141441353Y-134393134D01*
X141563847Y-134377442D01*
X141568795Y-134375957D01*
X141568802Y-134375956D01*
X141780747Y-134312369D01*
X141785690Y-134310886D01*
X141866236Y-134271427D01*
X141989049Y-134211262D01*
X141989052Y-134211260D01*
X141993684Y-134208991D01*
X142182243Y-134074494D01*
X142346303Y-133911005D01*
X142481458Y-133722917D01*
X142584078Y-133515280D01*
X142651408Y-133293671D01*
X142681640Y-133064041D01*
X142683327Y-132995000D01*
X142671138Y-132846739D01*
X142664773Y-132769318D01*
X142664772Y-132769312D01*
X142664349Y-132764167D01*
X142613213Y-132560584D01*
X142609184Y-132544544D01*
X142609183Y-132544540D01*
X142607925Y-132539533D01*
X142605817Y-132534684D01*
X142517630Y-132331868D01*
X142517628Y-132331865D01*
X142515570Y-132327131D01*
X142389764Y-132132665D01*
X142233887Y-131961358D01*
X142229836Y-131958159D01*
X142229832Y-131958155D01*
X142056177Y-131821011D01*
X142056172Y-131821008D01*
X142052123Y-131817810D01*
X142047607Y-131815317D01*
X142047604Y-131815315D01*
X141853879Y-131708373D01*
X141853875Y-131708371D01*
X141849355Y-131705876D01*
X141844486Y-131704152D01*
X141844482Y-131704150D01*
X141635903Y-131630288D01*
X141635899Y-131630287D01*
X141631028Y-131628562D01*
X141625935Y-131627655D01*
X141625932Y-131627654D01*
X141408095Y-131588851D01*
X141408089Y-131588850D01*
X141403006Y-131587945D01*
X141330096Y-131587054D01*
X141176581Y-131585179D01*
X141176579Y-131585179D01*
X141171411Y-131585116D01*
X140942464Y-131620150D01*
X140722314Y-131692106D01*
X140717726Y-131694494D01*
X140717722Y-131694496D01*
X140521461Y-131796663D01*
X140516872Y-131799052D01*
X140512739Y-131802155D01*
X140512736Y-131802157D01*
X140440088Y-131856703D01*
X140331655Y-131938117D01*
X140314170Y-131956414D01*
X140252646Y-131991844D01*
X140181733Y-131988387D01*
X140123947Y-131947141D01*
X140105094Y-131913592D01*
X140083768Y-131856705D01*
X140083767Y-131856703D01*
X140080615Y-131848295D01*
X139993261Y-131731739D01*
X139876705Y-131644385D01*
X139740316Y-131593255D01*
X139678134Y-131586500D01*
X137781866Y-131586500D01*
X137719684Y-131593255D01*
X137583295Y-131644385D01*
X137466739Y-131731739D01*
X137379385Y-131848295D01*
X137328255Y-131984684D01*
X137321500Y-132046866D01*
X137321500Y-133943134D01*
X137013000Y-133943134D01*
X137013000Y-125995000D01*
X145391526Y-125995000D01*
X145411391Y-126247403D01*
X145470495Y-126493591D01*
X145567384Y-126727502D01*
X145699672Y-126943376D01*
X145864102Y-127135898D01*
X146056624Y-127300328D01*
X146272498Y-127432616D01*
X146277068Y-127434509D01*
X146277072Y-127434511D01*
X146501836Y-127527611D01*
X146506409Y-127529505D01*
X146591032Y-127549821D01*
X146747784Y-127587454D01*
X146747790Y-127587455D01*
X146752597Y-127588609D01*
X147005000Y-127608474D01*
X147257403Y-127588609D01*
X147262210Y-127587455D01*
X147262216Y-127587454D01*
X147418968Y-127549821D01*
X147503591Y-127529505D01*
X147508164Y-127527611D01*
X147732928Y-127434511D01*
X147732932Y-127434509D01*
X147737502Y-127432616D01*
X147953376Y-127300328D01*
X148145898Y-127135898D01*
X148310328Y-126943376D01*
X148442616Y-126727502D01*
X148539505Y-126493591D01*
X148598609Y-126247403D01*
X148618474Y-125995000D01*
X148598609Y-125742597D01*
X148591087Y-125711262D01*
X148545028Y-125519414D01*
X148539505Y-125496409D01*
X148517438Y-125443134D01*
X148444511Y-125267072D01*
X148444509Y-125267068D01*
X148442616Y-125262498D01*
X148310328Y-125046624D01*
X148145898Y-124854102D01*
X147953376Y-124689672D01*
X147737502Y-124557384D01*
X147732932Y-124555491D01*
X147732928Y-124555489D01*
X147508164Y-124462389D01*
X147508162Y-124462388D01*
X147503591Y-124460495D01*
X147418968Y-124440179D01*
X147262216Y-124402546D01*
X147262210Y-124402545D01*
X147257403Y-124401391D01*
X147005000Y-124381526D01*
X146752597Y-124401391D01*
X146747790Y-124402545D01*
X146747784Y-124402546D01*
X146591032Y-124440179D01*
X146506409Y-124460495D01*
X146501838Y-124462388D01*
X146501836Y-124462389D01*
X146277072Y-124555489D01*
X146277068Y-124555491D01*
X146272498Y-124557384D01*
X146056624Y-124689672D01*
X145864102Y-124854102D01*
X145699672Y-125046624D01*
X145567384Y-125262498D01*
X145565491Y-125267068D01*
X145565489Y-125267072D01*
X145492562Y-125443134D01*
X145470495Y-125496409D01*
X145464972Y-125519414D01*
X145418914Y-125711262D01*
X145411391Y-125742597D01*
X145391526Y-125995000D01*
X137013000Y-125995000D01*
X137013000Y-125443134D01*
X137321500Y-125443134D01*
X137328255Y-125505316D01*
X137379385Y-125641705D01*
X137466739Y-125758261D01*
X137583295Y-125845615D01*
X137719684Y-125896745D01*
X137781866Y-125903500D01*
X139678134Y-125903500D01*
X139740316Y-125896745D01*
X139876705Y-125845615D01*
X139993261Y-125758261D01*
X140080615Y-125641705D01*
X140105180Y-125576178D01*
X140147822Y-125519414D01*
X140214383Y-125494714D01*
X140283732Y-125509921D01*
X140303647Y-125523464D01*
X140368724Y-125577492D01*
X140459349Y-125652730D01*
X140659322Y-125769584D01*
X140875694Y-125852209D01*
X140880760Y-125853240D01*
X140880761Y-125853240D01*
X140933846Y-125864040D01*
X141102656Y-125898385D01*
X141232089Y-125903131D01*
X141328949Y-125906683D01*
X141328953Y-125906683D01*
X141334113Y-125906872D01*
X141339233Y-125906216D01*
X141339235Y-125906216D01*
X141413166Y-125896745D01*
X141563847Y-125877442D01*
X141568795Y-125875957D01*
X141568802Y-125875956D01*
X141780747Y-125812369D01*
X141785690Y-125810886D01*
X141866236Y-125771427D01*
X141989049Y-125711262D01*
X141989052Y-125711260D01*
X141993684Y-125708991D01*
X142182243Y-125574494D01*
X142346303Y-125411005D01*
X142481458Y-125222917D01*
X142584078Y-125015280D01*
X142651408Y-124793671D01*
X142681640Y-124564041D01*
X142681722Y-124560691D01*
X142683245Y-124498365D01*
X142683245Y-124498361D01*
X142683327Y-124495000D01*
X142673998Y-124381526D01*
X142664773Y-124269318D01*
X142664772Y-124269312D01*
X142664349Y-124264167D01*
X142607925Y-124039533D01*
X142515570Y-123827131D01*
X142389764Y-123632665D01*
X142233887Y-123461358D01*
X142229836Y-123458159D01*
X142229832Y-123458155D01*
X142056177Y-123321011D01*
X142056172Y-123321008D01*
X142052123Y-123317810D01*
X142047607Y-123315317D01*
X142047604Y-123315315D01*
X141853879Y-123208373D01*
X141853875Y-123208371D01*
X141849355Y-123205876D01*
X141844486Y-123204152D01*
X141844482Y-123204150D01*
X141635903Y-123130288D01*
X141635899Y-123130287D01*
X141631028Y-123128562D01*
X141625935Y-123127655D01*
X141625932Y-123127654D01*
X141408095Y-123088851D01*
X141408089Y-123088850D01*
X141403006Y-123087945D01*
X141330096Y-123087054D01*
X141176581Y-123085179D01*
X141176579Y-123085179D01*
X141171411Y-123085116D01*
X140942464Y-123120150D01*
X140722314Y-123192106D01*
X140717726Y-123194494D01*
X140717722Y-123194496D01*
X140521461Y-123296663D01*
X140516872Y-123299052D01*
X140512739Y-123302155D01*
X140512736Y-123302157D01*
X140440088Y-123356703D01*
X140331655Y-123438117D01*
X140314170Y-123456414D01*
X140252646Y-123491844D01*
X140181733Y-123488387D01*
X140123947Y-123447141D01*
X140105094Y-123413592D01*
X140083768Y-123356705D01*
X140083767Y-123356703D01*
X140080615Y-123348295D01*
X139993261Y-123231739D01*
X139876705Y-123144385D01*
X139740316Y-123093255D01*
X139678134Y-123086500D01*
X137781866Y-123086500D01*
X137719684Y-123093255D01*
X137583295Y-123144385D01*
X137466739Y-123231739D01*
X137379385Y-123348295D01*
X137328255Y-123484684D01*
X137321500Y-123546866D01*
X137321500Y-125443134D01*
X137013000Y-125443134D01*
X137013000Y-120081062D01*
X144283493Y-120081062D01*
X144292789Y-120093077D01*
X144343994Y-120128931D01*
X144353489Y-120134414D01*
X144550947Y-120226490D01*
X144561239Y-120230236D01*
X144771688Y-120286625D01*
X144782481Y-120288528D01*
X144999525Y-120307517D01*
X145010475Y-120307517D01*
X145227519Y-120288528D01*
X145238312Y-120286625D01*
X145448761Y-120230236D01*
X145459053Y-120226490D01*
X145656511Y-120134414D01*
X145666006Y-120128931D01*
X145718048Y-120092491D01*
X145726424Y-120082012D01*
X145719356Y-120068566D01*
X145017812Y-119367022D01*
X145003868Y-119359408D01*
X145002035Y-119359539D01*
X144995420Y-119363790D01*
X144289923Y-120069287D01*
X144283493Y-120081062D01*
X137013000Y-120081062D01*
X137013000Y-119000475D01*
X143692483Y-119000475D01*
X143711472Y-119217519D01*
X143713375Y-119228312D01*
X143769764Y-119438761D01*
X143773510Y-119449053D01*
X143865586Y-119646511D01*
X143871069Y-119656006D01*
X143907509Y-119708048D01*
X143917988Y-119716424D01*
X143931434Y-119709356D01*
X144632978Y-119007812D01*
X144639356Y-118996132D01*
X145369408Y-118996132D01*
X145369539Y-118997965D01*
X145373790Y-119004580D01*
X146079287Y-119710077D01*
X146091062Y-119716507D01*
X146103077Y-119707211D01*
X146138931Y-119656006D01*
X146144414Y-119646511D01*
X146236490Y-119449053D01*
X146240236Y-119438761D01*
X146296625Y-119228312D01*
X146298528Y-119217519D01*
X146317517Y-119000475D01*
X146317517Y-118989525D01*
X146298528Y-118772481D01*
X146296625Y-118761688D01*
X146240236Y-118551239D01*
X146236490Y-118540947D01*
X146144414Y-118343489D01*
X146138931Y-118333994D01*
X146102491Y-118281952D01*
X146092012Y-118273576D01*
X146078566Y-118280644D01*
X145377022Y-118982188D01*
X145369408Y-118996132D01*
X144639356Y-118996132D01*
X144640592Y-118993868D01*
X144640461Y-118992035D01*
X144636210Y-118985420D01*
X143930713Y-118279923D01*
X143918938Y-118273493D01*
X143906923Y-118282789D01*
X143871069Y-118333994D01*
X143865586Y-118343489D01*
X143773510Y-118540947D01*
X143769764Y-118551239D01*
X143713375Y-118761688D01*
X143711472Y-118772481D01*
X143692483Y-118989525D01*
X143692483Y-119000475D01*
X137013000Y-119000475D01*
X137013000Y-117907988D01*
X144283576Y-117907988D01*
X144290644Y-117921434D01*
X144992188Y-118622978D01*
X145006132Y-118630592D01*
X145007965Y-118630461D01*
X145014580Y-118626210D01*
X145720077Y-117920713D01*
X145726507Y-117908938D01*
X145717211Y-117896923D01*
X145666006Y-117861069D01*
X145656511Y-117855586D01*
X145459053Y-117763510D01*
X145448761Y-117759764D01*
X145238312Y-117703375D01*
X145227519Y-117701472D01*
X145010475Y-117682483D01*
X144999525Y-117682483D01*
X144782481Y-117701472D01*
X144771688Y-117703375D01*
X144561239Y-117759764D01*
X144550947Y-117763510D01*
X144353489Y-117855586D01*
X144343994Y-117861069D01*
X144291952Y-117897509D01*
X144283576Y-117907988D01*
X137013000Y-117907988D01*
X137013000Y-112843134D01*
X145014121Y-112843134D01*
X145020876Y-112905316D01*
X145072006Y-113041705D01*
X145159360Y-113158261D01*
X145275916Y-113245615D01*
X145412305Y-113296745D01*
X145474487Y-113303500D01*
X147170755Y-113303500D01*
X147232937Y-113296745D01*
X147369326Y-113245615D01*
X147485882Y-113158261D01*
X147543740Y-113081062D01*
X148101114Y-113081062D01*
X148110410Y-113093077D01*
X148161615Y-113128931D01*
X148171110Y-113134414D01*
X148368568Y-113226490D01*
X148378860Y-113230236D01*
X148589309Y-113286625D01*
X148600102Y-113288528D01*
X148817146Y-113307517D01*
X148828096Y-113307517D01*
X149045140Y-113288528D01*
X149055933Y-113286625D01*
X149266382Y-113230236D01*
X149276674Y-113226490D01*
X149474132Y-113134414D01*
X149483627Y-113128931D01*
X149535669Y-113092491D01*
X149544045Y-113082012D01*
X149536977Y-113068566D01*
X148835433Y-112367022D01*
X148821489Y-112359408D01*
X148819656Y-112359539D01*
X148813041Y-112363790D01*
X148107544Y-113069287D01*
X148101114Y-113081062D01*
X147543740Y-113081062D01*
X147573236Y-113041705D01*
X147624366Y-112905316D01*
X147631121Y-112843134D01*
X147631121Y-112839815D01*
X147654774Y-112772890D01*
X147700777Y-112737196D01*
X147699762Y-112735266D01*
X147710621Y-112729558D01*
X147710866Y-112729368D01*
X147711024Y-112729347D01*
X147749055Y-112709356D01*
X148450599Y-112007812D01*
X148456977Y-111996132D01*
X149187029Y-111996132D01*
X149187160Y-111997965D01*
X149191411Y-112004580D01*
X149896908Y-112710077D01*
X149908683Y-112716507D01*
X149920698Y-112707211D01*
X149956552Y-112656006D01*
X149962035Y-112646511D01*
X150054111Y-112449053D01*
X150057857Y-112438761D01*
X150114246Y-112228312D01*
X150116149Y-112217519D01*
X150135138Y-112000475D01*
X150135138Y-111989525D01*
X150116149Y-111772481D01*
X150114246Y-111761688D01*
X150057857Y-111551239D01*
X150054111Y-111540947D01*
X149962035Y-111343489D01*
X149956552Y-111333994D01*
X149920112Y-111281952D01*
X149909633Y-111273576D01*
X149896187Y-111280644D01*
X149194643Y-111982188D01*
X149187029Y-111996132D01*
X148456977Y-111996132D01*
X148458213Y-111993868D01*
X148458082Y-111992035D01*
X148453831Y-111985420D01*
X147748334Y-111279923D01*
X147706592Y-111257129D01*
X147696592Y-111254953D01*
X147646394Y-111204747D01*
X147631170Y-111151186D01*
X147631121Y-111150281D01*
X147631121Y-111146866D01*
X147624366Y-111084684D01*
X147573236Y-110948295D01*
X147543028Y-110907988D01*
X148101197Y-110907988D01*
X148108265Y-110921434D01*
X148809809Y-111622978D01*
X148823753Y-111630592D01*
X148825586Y-111630461D01*
X148832201Y-111626210D01*
X149537698Y-110920713D01*
X149544128Y-110908938D01*
X149534832Y-110896923D01*
X149483627Y-110861069D01*
X149474132Y-110855586D01*
X149276674Y-110763510D01*
X149266382Y-110759764D01*
X149055933Y-110703375D01*
X149045140Y-110701472D01*
X148828096Y-110682483D01*
X148817146Y-110682483D01*
X148600102Y-110701472D01*
X148589309Y-110703375D01*
X148378860Y-110759764D01*
X148368568Y-110763510D01*
X148171110Y-110855586D01*
X148161615Y-110861069D01*
X148109573Y-110897509D01*
X148101197Y-110907988D01*
X147543028Y-110907988D01*
X147485882Y-110831739D01*
X147369326Y-110744385D01*
X147232937Y-110693255D01*
X147170755Y-110686500D01*
X145474487Y-110686500D01*
X145412305Y-110693255D01*
X145275916Y-110744385D01*
X145159360Y-110831739D01*
X145072006Y-110948295D01*
X145020876Y-111084684D01*
X145014121Y-111146866D01*
X145014121Y-112843134D01*
X137013000Y-112843134D01*
X137013000Y-108443134D01*
X137321500Y-108443134D01*
X137328255Y-108505316D01*
X137379385Y-108641705D01*
X137466739Y-108758261D01*
X137583295Y-108845615D01*
X137719684Y-108896745D01*
X137781866Y-108903500D01*
X139678134Y-108903500D01*
X139740316Y-108896745D01*
X139876705Y-108845615D01*
X139993261Y-108758261D01*
X140080615Y-108641705D01*
X140105180Y-108576178D01*
X140147822Y-108519414D01*
X140214383Y-108494714D01*
X140283732Y-108509921D01*
X140303647Y-108523464D01*
X140368724Y-108577492D01*
X140459349Y-108652730D01*
X140659322Y-108769584D01*
X140875694Y-108852209D01*
X140880760Y-108853240D01*
X140880761Y-108853240D01*
X140933846Y-108864040D01*
X141102656Y-108898385D01*
X141232089Y-108903131D01*
X141328949Y-108906683D01*
X141328953Y-108906683D01*
X141334113Y-108906872D01*
X141339233Y-108906216D01*
X141339235Y-108906216D01*
X141413166Y-108896745D01*
X141563847Y-108877442D01*
X141568795Y-108875957D01*
X141568802Y-108875956D01*
X141780747Y-108812369D01*
X141785690Y-108810886D01*
X141866236Y-108771427D01*
X141989049Y-108711262D01*
X141989052Y-108711260D01*
X141993684Y-108708991D01*
X142182243Y-108574494D01*
X142346303Y-108411005D01*
X142481458Y-108222917D01*
X142584078Y-108015280D01*
X142651408Y-107793671D01*
X142681640Y-107564041D01*
X142683327Y-107495000D01*
X142677032Y-107418434D01*
X142664773Y-107269318D01*
X142664772Y-107269312D01*
X142664349Y-107264167D01*
X142607925Y-107039533D01*
X142605866Y-107034797D01*
X142517630Y-106831868D01*
X142517628Y-106831865D01*
X142515570Y-106827131D01*
X142389764Y-106632665D01*
X142233887Y-106461358D01*
X142229836Y-106458159D01*
X142229832Y-106458155D01*
X142056177Y-106321011D01*
X142056172Y-106321008D01*
X142052123Y-106317810D01*
X142047607Y-106315317D01*
X142047604Y-106315315D01*
X141853879Y-106208373D01*
X141853875Y-106208371D01*
X141849355Y-106205876D01*
X141844486Y-106204152D01*
X141844482Y-106204150D01*
X141635903Y-106130288D01*
X141635899Y-106130287D01*
X141631028Y-106128562D01*
X141625935Y-106127655D01*
X141625932Y-106127654D01*
X141408095Y-106088851D01*
X141408089Y-106088850D01*
X141403006Y-106087945D01*
X141330096Y-106087054D01*
X141176581Y-106085179D01*
X141176579Y-106085179D01*
X141171411Y-106085116D01*
X140942464Y-106120150D01*
X140722314Y-106192106D01*
X140717726Y-106194494D01*
X140717722Y-106194496D01*
X140593379Y-106259225D01*
X140516872Y-106299052D01*
X140512739Y-106302155D01*
X140512736Y-106302157D01*
X140440088Y-106356703D01*
X140331655Y-106438117D01*
X140314170Y-106456414D01*
X140252646Y-106491844D01*
X140181733Y-106488387D01*
X140123947Y-106447141D01*
X140105094Y-106413592D01*
X140083768Y-106356705D01*
X140083767Y-106356703D01*
X140080615Y-106348295D01*
X139993261Y-106231739D01*
X139876705Y-106144385D01*
X139740316Y-106093255D01*
X139678134Y-106086500D01*
X137781866Y-106086500D01*
X137719684Y-106093255D01*
X137583295Y-106144385D01*
X137466739Y-106231739D01*
X137379385Y-106348295D01*
X137328255Y-106484684D01*
X137321500Y-106546866D01*
X137321500Y-108443134D01*
X137013000Y-108443134D01*
X137013000Y-105805000D01*
X146191502Y-105805000D01*
X146211457Y-106033087D01*
X146212881Y-106038400D01*
X146212881Y-106038402D01*
X146257294Y-106204150D01*
X146270716Y-106254243D01*
X146273039Y-106259224D01*
X146273039Y-106259225D01*
X146365151Y-106456762D01*
X146365154Y-106456767D01*
X146367477Y-106461749D01*
X146388550Y-106491844D01*
X146490196Y-106637009D01*
X146498802Y-106649300D01*
X146660700Y-106811198D01*
X146665208Y-106814355D01*
X146665211Y-106814357D01*
X146743389Y-106869098D01*
X146848251Y-106942523D01*
X146853233Y-106944846D01*
X146853238Y-106944849D01*
X147050775Y-107036961D01*
X147055757Y-107039284D01*
X147061065Y-107040706D01*
X147061067Y-107040707D01*
X147271598Y-107097119D01*
X147271600Y-107097119D01*
X147276913Y-107098543D01*
X147505000Y-107118498D01*
X147733087Y-107098543D01*
X147738400Y-107097119D01*
X147738402Y-107097119D01*
X147948933Y-107040707D01*
X147948935Y-107040706D01*
X147954243Y-107039284D01*
X147959225Y-107036961D01*
X148156762Y-106944849D01*
X148156767Y-106944846D01*
X148161749Y-106942523D01*
X148266611Y-106869098D01*
X148344789Y-106814357D01*
X148344792Y-106814355D01*
X148349300Y-106811198D01*
X148511198Y-106649300D01*
X148519805Y-106637009D01*
X148621450Y-106491844D01*
X148642523Y-106461749D01*
X148644846Y-106456767D01*
X148644849Y-106456762D01*
X148736961Y-106259225D01*
X148736961Y-106259224D01*
X148739284Y-106254243D01*
X148752707Y-106204150D01*
X148797119Y-106038402D01*
X148797119Y-106038400D01*
X148798543Y-106033087D01*
X148818498Y-105805000D01*
X148798543Y-105576913D01*
X148739284Y-105355757D01*
X148736961Y-105350775D01*
X148644849Y-105153238D01*
X148644846Y-105153233D01*
X148642523Y-105148251D01*
X148511198Y-104960700D01*
X148349300Y-104798802D01*
X148344792Y-104795645D01*
X148344789Y-104795643D01*
X148266611Y-104740902D01*
X148161749Y-104667477D01*
X148156767Y-104665154D01*
X148156762Y-104665151D01*
X147959225Y-104573039D01*
X147959224Y-104573039D01*
X147954243Y-104570716D01*
X147948935Y-104569294D01*
X147948933Y-104569293D01*
X147738402Y-104512881D01*
X147738400Y-104512881D01*
X147733087Y-104511457D01*
X147505000Y-104491502D01*
X147276913Y-104511457D01*
X147271600Y-104512881D01*
X147271598Y-104512881D01*
X147061067Y-104569293D01*
X147061065Y-104569294D01*
X147055757Y-104570716D01*
X147050776Y-104573039D01*
X147050775Y-104573039D01*
X146853238Y-104665151D01*
X146853233Y-104665154D01*
X146848251Y-104667477D01*
X146743389Y-104740902D01*
X146665211Y-104795643D01*
X146665208Y-104795645D01*
X146660700Y-104798802D01*
X146498802Y-104960700D01*
X146367477Y-105148251D01*
X146365154Y-105153233D01*
X146365151Y-105153238D01*
X146273039Y-105350775D01*
X146270716Y-105355757D01*
X146211457Y-105576913D01*
X146191502Y-105805000D01*
X137013000Y-105805000D01*
X137013000Y-99943134D01*
X137321500Y-99943134D01*
X137328255Y-100005316D01*
X137379385Y-100141705D01*
X137466739Y-100258261D01*
X137583295Y-100345615D01*
X137719684Y-100396745D01*
X137781866Y-100403500D01*
X139678134Y-100403500D01*
X139740316Y-100396745D01*
X139876705Y-100345615D01*
X139993261Y-100258261D01*
X140080615Y-100141705D01*
X140105180Y-100076178D01*
X140147822Y-100019414D01*
X140214383Y-99994714D01*
X140283732Y-100009921D01*
X140303647Y-100023464D01*
X140368724Y-100077492D01*
X140459349Y-100152730D01*
X140659322Y-100269584D01*
X140875694Y-100352209D01*
X140880760Y-100353240D01*
X140880761Y-100353240D01*
X140933846Y-100364040D01*
X141102656Y-100398385D01*
X141232089Y-100403131D01*
X141328949Y-100406683D01*
X141328953Y-100406683D01*
X141334113Y-100406872D01*
X141339233Y-100406216D01*
X141339235Y-100406216D01*
X141413166Y-100396745D01*
X141563847Y-100377442D01*
X141568795Y-100375957D01*
X141568802Y-100375956D01*
X141780747Y-100312369D01*
X141785690Y-100310886D01*
X141866236Y-100271427D01*
X141989049Y-100211262D01*
X141989052Y-100211260D01*
X141993684Y-100208991D01*
X142182243Y-100074494D01*
X142346303Y-99911005D01*
X142481458Y-99722917D01*
X142584078Y-99515280D01*
X142651408Y-99293671D01*
X142681640Y-99064041D01*
X142683327Y-98995000D01*
X142671098Y-98846257D01*
X142664773Y-98769318D01*
X142664772Y-98769312D01*
X142664349Y-98764167D01*
X142607925Y-98539533D01*
X142515570Y-98327131D01*
X142423621Y-98185000D01*
X146191502Y-98185000D01*
X146211457Y-98413087D01*
X146270716Y-98634243D01*
X146273039Y-98639224D01*
X146273039Y-98639225D01*
X146365151Y-98836762D01*
X146365154Y-98836767D01*
X146367477Y-98841749D01*
X146498802Y-99029300D01*
X146660700Y-99191198D01*
X146665208Y-99194355D01*
X146665211Y-99194357D01*
X146743389Y-99249098D01*
X146848251Y-99322523D01*
X146853233Y-99324846D01*
X146853238Y-99324849D01*
X147050775Y-99416961D01*
X147055757Y-99419284D01*
X147061065Y-99420706D01*
X147061067Y-99420707D01*
X147271598Y-99477119D01*
X147271600Y-99477119D01*
X147276913Y-99478543D01*
X147505000Y-99498498D01*
X147733087Y-99478543D01*
X147738400Y-99477119D01*
X147738402Y-99477119D01*
X147948933Y-99420707D01*
X147948935Y-99420706D01*
X147954243Y-99419284D01*
X147959225Y-99416961D01*
X148156762Y-99324849D01*
X148156767Y-99324846D01*
X148161749Y-99322523D01*
X148266611Y-99249098D01*
X148344789Y-99194357D01*
X148344792Y-99194355D01*
X148349300Y-99191198D01*
X148511198Y-99029300D01*
X148642523Y-98841749D01*
X148644846Y-98836767D01*
X148644849Y-98836762D01*
X148736961Y-98639225D01*
X148736961Y-98639224D01*
X148739284Y-98634243D01*
X148798543Y-98413087D01*
X148818498Y-98185000D01*
X148798543Y-97956913D01*
X148739284Y-97735757D01*
X148726515Y-97708373D01*
X148644849Y-97533238D01*
X148644846Y-97533233D01*
X148642523Y-97528251D01*
X148511198Y-97340700D01*
X148349300Y-97178802D01*
X148344792Y-97175645D01*
X148344789Y-97175643D01*
X148266611Y-97120902D01*
X148161749Y-97047477D01*
X148156767Y-97045154D01*
X148156762Y-97045151D01*
X147959225Y-96953039D01*
X147959224Y-96953039D01*
X147954243Y-96950716D01*
X147948935Y-96949294D01*
X147948933Y-96949293D01*
X147738402Y-96892881D01*
X147738400Y-96892881D01*
X147733087Y-96891457D01*
X147505000Y-96871502D01*
X147276913Y-96891457D01*
X147271600Y-96892881D01*
X147271598Y-96892881D01*
X147061067Y-96949293D01*
X147061065Y-96949294D01*
X147055757Y-96950716D01*
X147050776Y-96953039D01*
X147050775Y-96953039D01*
X146853238Y-97045151D01*
X146853233Y-97045154D01*
X146848251Y-97047477D01*
X146743389Y-97120902D01*
X146665211Y-97175643D01*
X146665208Y-97175645D01*
X146660700Y-97178802D01*
X146498802Y-97340700D01*
X146367477Y-97528251D01*
X146365154Y-97533233D01*
X146365151Y-97533238D01*
X146283485Y-97708373D01*
X146270716Y-97735757D01*
X146211457Y-97956913D01*
X146191502Y-98185000D01*
X142423621Y-98185000D01*
X142389764Y-98132665D01*
X142233887Y-97961358D01*
X142229836Y-97958159D01*
X142229832Y-97958155D01*
X142056177Y-97821011D01*
X142056172Y-97821008D01*
X142052123Y-97817810D01*
X142047607Y-97815317D01*
X142047604Y-97815315D01*
X141853879Y-97708373D01*
X141853875Y-97708371D01*
X141849355Y-97705876D01*
X141844486Y-97704152D01*
X141844482Y-97704150D01*
X141635903Y-97630288D01*
X141635899Y-97630287D01*
X141631028Y-97628562D01*
X141625935Y-97627655D01*
X141625932Y-97627654D01*
X141408095Y-97588851D01*
X141408089Y-97588850D01*
X141403006Y-97587945D01*
X141330096Y-97587054D01*
X141176581Y-97585179D01*
X141176579Y-97585179D01*
X141171411Y-97585116D01*
X140942464Y-97620150D01*
X140722314Y-97692106D01*
X140717726Y-97694494D01*
X140717722Y-97694496D01*
X140628260Y-97741067D01*
X140516872Y-97799052D01*
X140512739Y-97802155D01*
X140512736Y-97802157D01*
X140440088Y-97856703D01*
X140331655Y-97938117D01*
X140318772Y-97951598D01*
X140314170Y-97956414D01*
X140252646Y-97991844D01*
X140181733Y-97988387D01*
X140123947Y-97947141D01*
X140105094Y-97913592D01*
X140083768Y-97856705D01*
X140083767Y-97856703D01*
X140080615Y-97848295D01*
X139993261Y-97731739D01*
X139876705Y-97644385D01*
X139740316Y-97593255D01*
X139678134Y-97586500D01*
X137781866Y-97586500D01*
X137719684Y-97593255D01*
X137583295Y-97644385D01*
X137466739Y-97731739D01*
X137379385Y-97848295D01*
X137328255Y-97984684D01*
X137321500Y-98046866D01*
X137321500Y-99943134D01*
X137013000Y-99943134D01*
X137013000Y-93417169D01*
X145202001Y-93417169D01*
X145202371Y-93423990D01*
X145207895Y-93474852D01*
X145211521Y-93490104D01*
X145256676Y-93610554D01*
X145265214Y-93626149D01*
X145341715Y-93728224D01*
X145354276Y-93740785D01*
X145456351Y-93817286D01*
X145471946Y-93825824D01*
X145592394Y-93870978D01*
X145607649Y-93874605D01*
X145658514Y-93880131D01*
X145665328Y-93880500D01*
X145962885Y-93880500D01*
X145978124Y-93876025D01*
X145979329Y-93874635D01*
X145981000Y-93866952D01*
X145981000Y-92898504D01*
X146471500Y-92898504D01*
X146486277Y-93049213D01*
X146486968Y-93051502D01*
X146489000Y-93072224D01*
X146489000Y-93862384D01*
X146493475Y-93877623D01*
X146494865Y-93878828D01*
X146502548Y-93880499D01*
X146804669Y-93880499D01*
X146811490Y-93880129D01*
X146862352Y-93874605D01*
X146877604Y-93870979D01*
X146998056Y-93825823D01*
X147013466Y-93817386D01*
X147082823Y-93802216D01*
X147111235Y-93807540D01*
X147296180Y-93864790D01*
X147302305Y-93865434D01*
X147302306Y-93865434D01*
X147491622Y-93885332D01*
X147491623Y-93885332D01*
X147497750Y-93885976D01*
X147607090Y-93876025D01*
X147693457Y-93868165D01*
X147693460Y-93868164D01*
X147699596Y-93867606D01*
X147705502Y-93865868D01*
X147705506Y-93865867D01*
X147888120Y-93812120D01*
X147888119Y-93812120D01*
X147894029Y-93810381D01*
X147899486Y-93807528D01*
X147899489Y-93807527D01*
X148051182Y-93728224D01*
X148073460Y-93716577D01*
X148073462Y-93716577D01*
X148073645Y-93716481D01*
X148073663Y-93716516D01*
X148139441Y-93696611D01*
X148200409Y-93711771D01*
X148372565Y-93804856D01*
X148469373Y-93834823D01*
X148560293Y-93862968D01*
X148560296Y-93862969D01*
X148566180Y-93864790D01*
X148572305Y-93865434D01*
X148572306Y-93865434D01*
X148761622Y-93885332D01*
X148761623Y-93885332D01*
X148767750Y-93885976D01*
X148877090Y-93876025D01*
X148963457Y-93868165D01*
X148963460Y-93868164D01*
X148969596Y-93867606D01*
X148975502Y-93865868D01*
X148975506Y-93865867D01*
X149158120Y-93812120D01*
X149158119Y-93812120D01*
X149164029Y-93810381D01*
X149169486Y-93807528D01*
X149169489Y-93807527D01*
X149321182Y-93728224D01*
X149343645Y-93716481D01*
X149501601Y-93589481D01*
X149631881Y-93434219D01*
X149634845Y-93428827D01*
X149634848Y-93428823D01*
X149726556Y-93262006D01*
X149729523Y-93256609D01*
X149790807Y-93063416D01*
X149792401Y-93049213D01*
X149808107Y-92909183D01*
X149808500Y-92905683D01*
X149808500Y-92346496D01*
X149793723Y-92195787D01*
X149735142Y-92001758D01*
X149639990Y-91822802D01*
X149511890Y-91665737D01*
X149474066Y-91634446D01*
X149360472Y-91540473D01*
X149360469Y-91540471D01*
X149355722Y-91536544D01*
X149177435Y-91440144D01*
X149080628Y-91410177D01*
X148989707Y-91382032D01*
X148989704Y-91382031D01*
X148983820Y-91380210D01*
X148977695Y-91379566D01*
X148977694Y-91379566D01*
X148788378Y-91359668D01*
X148788377Y-91359668D01*
X148782250Y-91359024D01*
X148703709Y-91366172D01*
X148586543Y-91376835D01*
X148586540Y-91376836D01*
X148580404Y-91377394D01*
X148574498Y-91379132D01*
X148574494Y-91379133D01*
X148438442Y-91419176D01*
X148385971Y-91434619D01*
X148380514Y-91437472D01*
X148380511Y-91437473D01*
X148296163Y-91481569D01*
X148206540Y-91528423D01*
X148206538Y-91528423D01*
X148206355Y-91528519D01*
X148206337Y-91528484D01*
X148140559Y-91548389D01*
X148079591Y-91533229D01*
X148070815Y-91528484D01*
X147907435Y-91440144D01*
X147810628Y-91410177D01*
X147719707Y-91382032D01*
X147719704Y-91382031D01*
X147713820Y-91380210D01*
X147707695Y-91379566D01*
X147707694Y-91379566D01*
X147518378Y-91359668D01*
X147518377Y-91359668D01*
X147512250Y-91359024D01*
X147433709Y-91366172D01*
X147316543Y-91376835D01*
X147316540Y-91376836D01*
X147310404Y-91377394D01*
X147304498Y-91379132D01*
X147304494Y-91379133D01*
X147213187Y-91406007D01*
X147115971Y-91434619D01*
X147115771Y-91433941D01*
X147049727Y-91440456D01*
X147012677Y-91427180D01*
X146998063Y-91419179D01*
X146877606Y-91374022D01*
X146862351Y-91370395D01*
X146811486Y-91364869D01*
X146804672Y-91364500D01*
X146507115Y-91364500D01*
X146491876Y-91368975D01*
X146490671Y-91370365D01*
X146489000Y-91378048D01*
X146489000Y-92176258D01*
X146488215Y-92190303D01*
X146471500Y-92339317D01*
X146471500Y-92898504D01*
X145981000Y-92898504D01*
X145981000Y-92894615D01*
X145976525Y-92879376D01*
X145975135Y-92878171D01*
X145967452Y-92876500D01*
X145220116Y-92876500D01*
X145204877Y-92880975D01*
X145203672Y-92882365D01*
X145202001Y-92890048D01*
X145202001Y-93417169D01*
X137013000Y-93417169D01*
X137013000Y-92350385D01*
X145202000Y-92350385D01*
X145206475Y-92365624D01*
X145207865Y-92366829D01*
X145215548Y-92368500D01*
X145962885Y-92368500D01*
X145978124Y-92364025D01*
X145979329Y-92362635D01*
X145981000Y-92354952D01*
X145981000Y-91382616D01*
X145976525Y-91367377D01*
X145975135Y-91366172D01*
X145967452Y-91364501D01*
X145665331Y-91364501D01*
X145658510Y-91364871D01*
X145607648Y-91370395D01*
X145592396Y-91374021D01*
X145471946Y-91419176D01*
X145456351Y-91427714D01*
X145354276Y-91504215D01*
X145341715Y-91516776D01*
X145265214Y-91618851D01*
X145256676Y-91634446D01*
X145211522Y-91754894D01*
X145207895Y-91770149D01*
X145202369Y-91821014D01*
X145202000Y-91827828D01*
X145202000Y-92350385D01*
X137013000Y-92350385D01*
X137013000Y-86525000D01*
X146271807Y-86525000D01*
X146290542Y-86739142D01*
X146346178Y-86946777D01*
X146437024Y-87141596D01*
X146560319Y-87317681D01*
X146712319Y-87469681D01*
X146888403Y-87592976D01*
X146893381Y-87595297D01*
X146893384Y-87595299D01*
X147078241Y-87681499D01*
X147083223Y-87683822D01*
X147088531Y-87685244D01*
X147088533Y-87685245D01*
X147285543Y-87738034D01*
X147285545Y-87738034D01*
X147290858Y-87739458D01*
X147505000Y-87758193D01*
X147719142Y-87739458D01*
X147724455Y-87738034D01*
X147724457Y-87738034D01*
X147921467Y-87685245D01*
X147921469Y-87685244D01*
X147926777Y-87683822D01*
X147931759Y-87681499D01*
X148116616Y-87595299D01*
X148116619Y-87595297D01*
X148121597Y-87592976D01*
X148297681Y-87469681D01*
X148449681Y-87317681D01*
X148572976Y-87141596D01*
X148663822Y-86946777D01*
X148719458Y-86739142D01*
X148738193Y-86525000D01*
X148719458Y-86310858D01*
X148663822Y-86103223D01*
X148572976Y-85908404D01*
X148449681Y-85732319D01*
X148297681Y-85580319D01*
X148121597Y-85457024D01*
X148116619Y-85454703D01*
X148116616Y-85454701D01*
X147932656Y-85368919D01*
X147879371Y-85322002D01*
X147859910Y-85253724D01*
X147880452Y-85185764D01*
X147932656Y-85140529D01*
X148116359Y-85054868D01*
X148125854Y-85049385D01*
X148160607Y-85025051D01*
X148168983Y-85014572D01*
X148161916Y-85001127D01*
X147517811Y-84357021D01*
X147503868Y-84349408D01*
X147502034Y-84349539D01*
X147495420Y-84353790D01*
X146847360Y-85001851D01*
X146840933Y-85013621D01*
X146850227Y-85025635D01*
X146884146Y-85049385D01*
X146893641Y-85054868D01*
X147077344Y-85140529D01*
X147130629Y-85187446D01*
X147150090Y-85255723D01*
X147129548Y-85323683D01*
X147077344Y-85368919D01*
X146893385Y-85454701D01*
X146893382Y-85454703D01*
X146888404Y-85457024D01*
X146712319Y-85580319D01*
X146560319Y-85732319D01*
X146437024Y-85908404D01*
X146346178Y-86103223D01*
X146290542Y-86310858D01*
X146271807Y-86525000D01*
X137013000Y-86525000D01*
X137013000Y-83990475D01*
X146272788Y-83990475D01*
X146290557Y-84193575D01*
X146292460Y-84204368D01*
X146345226Y-84401295D01*
X146348972Y-84411587D01*
X146435135Y-84596364D01*
X146440613Y-84605850D01*
X146464949Y-84640607D01*
X146475428Y-84648983D01*
X146488872Y-84641917D01*
X147132979Y-83997811D01*
X147139356Y-83986132D01*
X147869408Y-83986132D01*
X147869539Y-83987966D01*
X147873790Y-83994580D01*
X148521851Y-84642640D01*
X148533621Y-84649067D01*
X148545635Y-84639772D01*
X148569387Y-84605850D01*
X148574865Y-84596364D01*
X148661028Y-84411587D01*
X148664774Y-84401295D01*
X148717540Y-84204368D01*
X148719443Y-84193575D01*
X148737212Y-83990475D01*
X148737212Y-83979525D01*
X148719443Y-83776425D01*
X148717540Y-83765632D01*
X148664774Y-83568705D01*
X148661028Y-83558413D01*
X148574865Y-83373636D01*
X148569387Y-83364150D01*
X148545051Y-83329393D01*
X148534572Y-83321017D01*
X148521128Y-83328083D01*
X147877021Y-83972189D01*
X147869408Y-83986132D01*
X147139356Y-83986132D01*
X147140592Y-83983868D01*
X147140461Y-83982034D01*
X147136210Y-83975420D01*
X146488149Y-83327360D01*
X146476379Y-83320933D01*
X146464365Y-83330228D01*
X146440613Y-83364150D01*
X146435135Y-83373636D01*
X146348972Y-83558413D01*
X146345226Y-83568705D01*
X146292460Y-83765632D01*
X146290557Y-83776425D01*
X146272788Y-83979525D01*
X146272788Y-83990475D01*
X137013000Y-83990475D01*
X137013000Y-82943134D01*
X137321500Y-82943134D01*
X137328255Y-83005316D01*
X137379385Y-83141705D01*
X137466739Y-83258261D01*
X137583295Y-83345615D01*
X137719684Y-83396745D01*
X137781866Y-83403500D01*
X139678134Y-83403500D01*
X139740316Y-83396745D01*
X139876705Y-83345615D01*
X139993261Y-83258261D01*
X140080615Y-83141705D01*
X140105180Y-83076178D01*
X140147822Y-83019414D01*
X140214383Y-82994714D01*
X140283732Y-83009921D01*
X140303647Y-83023464D01*
X140368724Y-83077492D01*
X140459349Y-83152730D01*
X140659322Y-83269584D01*
X140875694Y-83352209D01*
X140880760Y-83353240D01*
X140880761Y-83353240D01*
X140933846Y-83364040D01*
X141102656Y-83398385D01*
X141232089Y-83403131D01*
X141328949Y-83406683D01*
X141328953Y-83406683D01*
X141334113Y-83406872D01*
X141339233Y-83406216D01*
X141339235Y-83406216D01*
X141413166Y-83396745D01*
X141563847Y-83377442D01*
X141568795Y-83375957D01*
X141568802Y-83375956D01*
X141780747Y-83312369D01*
X141785690Y-83310886D01*
X141866236Y-83271427D01*
X141989049Y-83211262D01*
X141989052Y-83211260D01*
X141993684Y-83208991D01*
X142182243Y-83074494D01*
X142346303Y-82911005D01*
X142481458Y-82722917D01*
X142584078Y-82515280D01*
X142651408Y-82293671D01*
X142681640Y-82064041D01*
X142681722Y-82060691D01*
X142683245Y-81998365D01*
X142683245Y-81998361D01*
X142683327Y-81995000D01*
X142672349Y-81861467D01*
X142664773Y-81769318D01*
X142664772Y-81769312D01*
X142664349Y-81764167D01*
X142607925Y-81539533D01*
X142605866Y-81534797D01*
X142566821Y-81445000D01*
X146271807Y-81445000D01*
X146290542Y-81659142D01*
X146291966Y-81664455D01*
X146291966Y-81664457D01*
X146318684Y-81764167D01*
X146346178Y-81866777D01*
X146348500Y-81871757D01*
X146348501Y-81871759D01*
X146405970Y-81995000D01*
X146437024Y-82061596D01*
X146560319Y-82237681D01*
X146712319Y-82389681D01*
X146888403Y-82512976D01*
X146893381Y-82515297D01*
X146893384Y-82515299D01*
X147077344Y-82601081D01*
X147130629Y-82647998D01*
X147150090Y-82716276D01*
X147129548Y-82784236D01*
X147077344Y-82829471D01*
X146893636Y-82915135D01*
X146884150Y-82920613D01*
X146849393Y-82944949D01*
X146841017Y-82955428D01*
X146848083Y-82968872D01*
X147492189Y-83612979D01*
X147506132Y-83620592D01*
X147507966Y-83620461D01*
X147514580Y-83616210D01*
X148162640Y-82968149D01*
X148169067Y-82956379D01*
X148159773Y-82944365D01*
X148125854Y-82920615D01*
X148116359Y-82915132D01*
X147932656Y-82829471D01*
X147879371Y-82782554D01*
X147859910Y-82714277D01*
X147880452Y-82646317D01*
X147932656Y-82601081D01*
X148116616Y-82515299D01*
X148116619Y-82515297D01*
X148121597Y-82512976D01*
X148297681Y-82389681D01*
X148449681Y-82237681D01*
X148572976Y-82061596D01*
X148604031Y-81995000D01*
X148661499Y-81871759D01*
X148661500Y-81871757D01*
X148663822Y-81866777D01*
X148691317Y-81764167D01*
X148718034Y-81664457D01*
X148718034Y-81664455D01*
X148719458Y-81659142D01*
X148738193Y-81445000D01*
X148719458Y-81230858D01*
X148718034Y-81225543D01*
X148665245Y-81028533D01*
X148665244Y-81028531D01*
X148663822Y-81023223D01*
X148642401Y-80977285D01*
X148575299Y-80833385D01*
X148575297Y-80833382D01*
X148572976Y-80828404D01*
X148449681Y-80652319D01*
X148297681Y-80500319D01*
X148121597Y-80377024D01*
X148116619Y-80374703D01*
X148116616Y-80374701D01*
X147931759Y-80288501D01*
X147931758Y-80288500D01*
X147926777Y-80286178D01*
X147921469Y-80284756D01*
X147921467Y-80284755D01*
X147724457Y-80231966D01*
X147724455Y-80231966D01*
X147719142Y-80230542D01*
X147505000Y-80211807D01*
X147290858Y-80230542D01*
X147285545Y-80231966D01*
X147285543Y-80231966D01*
X147088533Y-80284755D01*
X147088531Y-80284756D01*
X147083223Y-80286178D01*
X147078243Y-80288500D01*
X147078241Y-80288501D01*
X146893385Y-80374701D01*
X146893382Y-80374703D01*
X146888404Y-80377024D01*
X146712319Y-80500319D01*
X146560319Y-80652319D01*
X146437024Y-80828404D01*
X146434703Y-80833382D01*
X146434701Y-80833385D01*
X146367599Y-80977285D01*
X146346178Y-81023223D01*
X146344756Y-81028531D01*
X146344755Y-81028533D01*
X146291966Y-81225543D01*
X146290542Y-81230858D01*
X146271807Y-81445000D01*
X142566821Y-81445000D01*
X142517630Y-81331868D01*
X142517628Y-81331865D01*
X142515570Y-81327131D01*
X142389764Y-81132665D01*
X142233887Y-80961358D01*
X142229836Y-80958159D01*
X142229832Y-80958155D01*
X142056177Y-80821011D01*
X142056172Y-80821008D01*
X142052123Y-80817810D01*
X142047607Y-80815317D01*
X142047604Y-80815315D01*
X141853879Y-80708373D01*
X141853875Y-80708371D01*
X141849355Y-80705876D01*
X141844486Y-80704152D01*
X141844482Y-80704150D01*
X141635903Y-80630288D01*
X141635899Y-80630287D01*
X141631028Y-80628562D01*
X141625935Y-80627655D01*
X141625932Y-80627654D01*
X141408095Y-80588851D01*
X141408089Y-80588850D01*
X141403006Y-80587945D01*
X141330096Y-80587054D01*
X141176581Y-80585179D01*
X141176579Y-80585179D01*
X141171411Y-80585116D01*
X140942464Y-80620150D01*
X140722314Y-80692106D01*
X140717726Y-80694494D01*
X140717722Y-80694496D01*
X140521461Y-80796663D01*
X140516872Y-80799052D01*
X140512739Y-80802155D01*
X140512736Y-80802157D01*
X140440088Y-80856703D01*
X140331655Y-80938117D01*
X140314170Y-80956414D01*
X140252646Y-80991844D01*
X140181733Y-80988387D01*
X140123947Y-80947141D01*
X140105094Y-80913592D01*
X140083768Y-80856705D01*
X140083767Y-80856703D01*
X140080615Y-80848295D01*
X139993261Y-80731739D01*
X139876705Y-80644385D01*
X139740316Y-80593255D01*
X139678134Y-80586500D01*
X137781866Y-80586500D01*
X137719684Y-80593255D01*
X137583295Y-80644385D01*
X137466739Y-80731739D01*
X137379385Y-80848295D01*
X137328255Y-80984684D01*
X137321500Y-81046866D01*
X137321500Y-82943134D01*
X137013000Y-82943134D01*
X137013000Y-75420634D01*
X145201500Y-75420634D01*
X145208255Y-75482816D01*
X145259385Y-75619205D01*
X145346739Y-75735761D01*
X145463295Y-75823115D01*
X145599684Y-75874245D01*
X145661866Y-75881000D01*
X146808134Y-75881000D01*
X146870316Y-75874245D01*
X146911623Y-75858760D01*
X146998296Y-75826268D01*
X146998299Y-75826266D01*
X147006705Y-75823115D01*
X147013894Y-75817727D01*
X147014137Y-75817594D01*
X147083494Y-75802424D01*
X147111907Y-75807748D01*
X147296180Y-75864790D01*
X147302305Y-75865434D01*
X147302306Y-75865434D01*
X147491622Y-75885332D01*
X147491623Y-75885332D01*
X147497750Y-75885976D01*
X147581014Y-75878398D01*
X147693457Y-75868165D01*
X147693460Y-75868164D01*
X147699596Y-75867606D01*
X147705502Y-75865868D01*
X147705506Y-75865867D01*
X147888120Y-75812120D01*
X147888119Y-75812120D01*
X147894029Y-75810381D01*
X147899486Y-75807528D01*
X147899489Y-75807527D01*
X148036765Y-75735761D01*
X148073460Y-75716577D01*
X148073462Y-75716577D01*
X148073645Y-75716481D01*
X148073663Y-75716516D01*
X148139441Y-75696611D01*
X148200409Y-75711771D01*
X148372565Y-75804856D01*
X148441733Y-75826267D01*
X148560293Y-75862968D01*
X148560296Y-75862969D01*
X148566180Y-75864790D01*
X148572305Y-75865434D01*
X148572306Y-75865434D01*
X148761622Y-75885332D01*
X148761623Y-75885332D01*
X148767750Y-75885976D01*
X148851014Y-75878398D01*
X148963457Y-75868165D01*
X148963460Y-75868164D01*
X148969596Y-75867606D01*
X148975502Y-75865868D01*
X148975506Y-75865867D01*
X149158120Y-75812120D01*
X149158119Y-75812120D01*
X149164029Y-75810381D01*
X149169486Y-75807528D01*
X149169489Y-75807527D01*
X149306765Y-75735761D01*
X149343645Y-75716481D01*
X149501601Y-75589481D01*
X149631881Y-75434219D01*
X149634845Y-75428827D01*
X149634848Y-75428823D01*
X149726556Y-75262006D01*
X149729523Y-75256609D01*
X149790807Y-75063416D01*
X149808500Y-74905683D01*
X149808500Y-74346496D01*
X149793723Y-74195787D01*
X149735142Y-74001758D01*
X149639990Y-73822802D01*
X149511890Y-73665737D01*
X149473772Y-73634203D01*
X149360472Y-73540473D01*
X149360469Y-73540471D01*
X149355722Y-73536544D01*
X149177435Y-73440144D01*
X149080628Y-73410177D01*
X148989707Y-73382032D01*
X148989704Y-73382031D01*
X148983820Y-73380210D01*
X148977695Y-73379566D01*
X148977694Y-73379566D01*
X148788378Y-73359668D01*
X148788377Y-73359668D01*
X148782250Y-73359024D01*
X148698986Y-73366602D01*
X148586543Y-73376835D01*
X148586540Y-73376836D01*
X148580404Y-73377394D01*
X148574498Y-73379132D01*
X148574494Y-73379133D01*
X148439947Y-73418733D01*
X148385971Y-73434619D01*
X148380514Y-73437472D01*
X148380511Y-73437473D01*
X148296163Y-73481569D01*
X148206540Y-73528423D01*
X148206538Y-73528423D01*
X148206355Y-73528519D01*
X148206337Y-73528484D01*
X148140559Y-73548389D01*
X148079591Y-73533229D01*
X148070815Y-73528484D01*
X147907435Y-73440144D01*
X147810628Y-73410177D01*
X147719707Y-73382032D01*
X147719704Y-73382031D01*
X147713820Y-73380210D01*
X147707695Y-73379566D01*
X147707694Y-73379566D01*
X147518378Y-73359668D01*
X147518377Y-73359668D01*
X147512250Y-73359024D01*
X147428986Y-73366602D01*
X147316543Y-73376835D01*
X147316540Y-73376836D01*
X147310404Y-73377394D01*
X147304498Y-73379132D01*
X147304494Y-73379133D01*
X147121879Y-73432880D01*
X147121877Y-73432881D01*
X147120493Y-73433288D01*
X147115971Y-73434619D01*
X147115718Y-73433760D01*
X147050338Y-73440214D01*
X147013594Y-73427048D01*
X147006705Y-73421885D01*
X146998304Y-73418736D01*
X146998301Y-73418734D01*
X146886534Y-73376835D01*
X146870316Y-73370755D01*
X146808134Y-73364000D01*
X145661866Y-73364000D01*
X145599684Y-73370755D01*
X145463295Y-73421885D01*
X145346739Y-73509239D01*
X145259385Y-73625795D01*
X145208255Y-73762184D01*
X145201500Y-73824366D01*
X145201500Y-75420634D01*
X137013000Y-75420634D01*
X137013000Y-74443134D01*
X137321500Y-74443134D01*
X137328255Y-74505316D01*
X137379385Y-74641705D01*
X137466739Y-74758261D01*
X137583295Y-74845615D01*
X137719684Y-74896745D01*
X137781866Y-74903500D01*
X139678134Y-74903500D01*
X139740316Y-74896745D01*
X139876705Y-74845615D01*
X139993261Y-74758261D01*
X140080615Y-74641705D01*
X140105180Y-74576178D01*
X140147822Y-74519414D01*
X140214383Y-74494714D01*
X140283732Y-74509921D01*
X140303647Y-74523464D01*
X140368724Y-74577492D01*
X140459349Y-74652730D01*
X140659322Y-74769584D01*
X140875694Y-74852209D01*
X140880760Y-74853240D01*
X140880761Y-74853240D01*
X140933846Y-74864040D01*
X141102656Y-74898385D01*
X141232089Y-74903131D01*
X141328949Y-74906683D01*
X141328953Y-74906683D01*
X141334113Y-74906872D01*
X141339233Y-74906216D01*
X141339235Y-74906216D01*
X141413166Y-74896745D01*
X141563847Y-74877442D01*
X141568795Y-74875957D01*
X141568802Y-74875956D01*
X141780747Y-74812369D01*
X141785690Y-74810886D01*
X141866236Y-74771427D01*
X141989049Y-74711262D01*
X141989052Y-74711260D01*
X141993684Y-74708991D01*
X142182243Y-74574494D01*
X142346303Y-74411005D01*
X142481458Y-74222917D01*
X142491836Y-74201920D01*
X142581784Y-74019922D01*
X142581785Y-74019920D01*
X142584078Y-74015280D01*
X142651408Y-73793671D01*
X142681640Y-73564041D01*
X142681722Y-73560691D01*
X142683245Y-73498365D01*
X142683245Y-73498361D01*
X142683327Y-73495000D01*
X142672148Y-73359024D01*
X142664773Y-73269318D01*
X142664772Y-73269312D01*
X142664349Y-73264167D01*
X142607925Y-73039533D01*
X142515570Y-72827131D01*
X142389764Y-72632665D01*
X142233887Y-72461358D01*
X142229836Y-72458159D01*
X142229832Y-72458155D01*
X142056177Y-72321011D01*
X142056172Y-72321008D01*
X142052123Y-72317810D01*
X142047607Y-72315317D01*
X142047604Y-72315315D01*
X141853879Y-72208373D01*
X141853875Y-72208371D01*
X141849355Y-72205876D01*
X141844486Y-72204152D01*
X141844482Y-72204150D01*
X141635903Y-72130288D01*
X141635899Y-72130287D01*
X141631028Y-72128562D01*
X141625935Y-72127655D01*
X141625932Y-72127654D01*
X141408095Y-72088851D01*
X141408089Y-72088850D01*
X141403006Y-72087945D01*
X141330096Y-72087054D01*
X141176581Y-72085179D01*
X141176579Y-72085179D01*
X141171411Y-72085116D01*
X140942464Y-72120150D01*
X140722314Y-72192106D01*
X140717726Y-72194494D01*
X140717722Y-72194496D01*
X140521461Y-72296663D01*
X140516872Y-72299052D01*
X140512739Y-72302155D01*
X140512736Y-72302157D01*
X140440088Y-72356703D01*
X140331655Y-72438117D01*
X140314170Y-72456414D01*
X140252646Y-72491844D01*
X140181733Y-72488387D01*
X140123947Y-72447141D01*
X140105094Y-72413592D01*
X140083768Y-72356705D01*
X140083767Y-72356703D01*
X140080615Y-72348295D01*
X139993261Y-72231739D01*
X139876705Y-72144385D01*
X139740316Y-72093255D01*
X139678134Y-72086500D01*
X137781866Y-72086500D01*
X137719684Y-72093255D01*
X137583295Y-72144385D01*
X137466739Y-72231739D01*
X137379385Y-72348295D01*
X137328255Y-72484684D01*
X137321500Y-72546866D01*
X137321500Y-74443134D01*
X137013000Y-74443134D01*
X137013000Y-57443134D01*
X137321500Y-57443134D01*
X137328255Y-57505316D01*
X137379385Y-57641705D01*
X137466739Y-57758261D01*
X137583295Y-57845615D01*
X137719684Y-57896745D01*
X137781866Y-57903500D01*
X139678134Y-57903500D01*
X139740316Y-57896745D01*
X139876705Y-57845615D01*
X139993261Y-57758261D01*
X140080615Y-57641705D01*
X140105180Y-57576178D01*
X140147822Y-57519414D01*
X140214383Y-57494714D01*
X140283732Y-57509921D01*
X140303647Y-57523464D01*
X140368724Y-57577492D01*
X140459349Y-57652730D01*
X140659322Y-57769584D01*
X140875694Y-57852209D01*
X140880760Y-57853240D01*
X140880761Y-57853240D01*
X140933846Y-57864040D01*
X141102656Y-57898385D01*
X141232089Y-57903131D01*
X141328949Y-57906683D01*
X141328953Y-57906683D01*
X141334113Y-57906872D01*
X141339233Y-57906216D01*
X141339235Y-57906216D01*
X141413166Y-57896745D01*
X141563847Y-57877442D01*
X141568795Y-57875957D01*
X141568802Y-57875956D01*
X141780747Y-57812369D01*
X141785690Y-57810886D01*
X141866236Y-57771427D01*
X141989049Y-57711262D01*
X141989052Y-57711260D01*
X141993684Y-57708991D01*
X142182243Y-57574494D01*
X142346303Y-57411005D01*
X142481458Y-57222917D01*
X142584078Y-57015280D01*
X142651408Y-56793671D01*
X142681640Y-56564041D01*
X142683327Y-56495000D01*
X142677032Y-56418434D01*
X142664773Y-56269318D01*
X142664772Y-56269312D01*
X142664349Y-56264167D01*
X142607925Y-56039533D01*
X142515570Y-55827131D01*
X142389764Y-55632665D01*
X142233887Y-55461358D01*
X142229836Y-55458159D01*
X142229832Y-55458155D01*
X142056177Y-55321011D01*
X142056172Y-55321008D01*
X142052123Y-55317810D01*
X142047607Y-55315317D01*
X142047604Y-55315315D01*
X141853879Y-55208373D01*
X141853875Y-55208371D01*
X141849355Y-55205876D01*
X141844486Y-55204152D01*
X141844482Y-55204150D01*
X141635903Y-55130288D01*
X141635899Y-55130287D01*
X141631028Y-55128562D01*
X141625935Y-55127655D01*
X141625932Y-55127654D01*
X141408095Y-55088851D01*
X141408089Y-55088850D01*
X141403006Y-55087945D01*
X141330096Y-55087054D01*
X141176581Y-55085179D01*
X141176579Y-55085179D01*
X141171411Y-55085116D01*
X140942464Y-55120150D01*
X140722314Y-55192106D01*
X140717726Y-55194494D01*
X140717722Y-55194496D01*
X140521461Y-55296663D01*
X140516872Y-55299052D01*
X140512739Y-55302155D01*
X140512736Y-55302157D01*
X140440088Y-55356703D01*
X140331655Y-55438117D01*
X140314170Y-55456414D01*
X140252646Y-55491844D01*
X140181733Y-55488387D01*
X140123947Y-55447141D01*
X140105094Y-55413592D01*
X140083768Y-55356705D01*
X140083767Y-55356703D01*
X140080615Y-55348295D01*
X139993261Y-55231739D01*
X139876705Y-55144385D01*
X139740316Y-55093255D01*
X139678134Y-55086500D01*
X137781866Y-55086500D01*
X137719684Y-55093255D01*
X137583295Y-55144385D01*
X137466739Y-55231739D01*
X137379385Y-55348295D01*
X137328255Y-55484684D01*
X137321500Y-55546866D01*
X137321500Y-57443134D01*
X137013000Y-57443134D01*
X137013000Y-52495000D01*
X145391526Y-52495000D01*
X145411391Y-52747403D01*
X145470495Y-52993591D01*
X145567384Y-53227502D01*
X145699672Y-53443376D01*
X145864102Y-53635898D01*
X146056624Y-53800328D01*
X146272498Y-53932616D01*
X146277068Y-53934509D01*
X146277072Y-53934511D01*
X146501836Y-54027611D01*
X146506409Y-54029505D01*
X146591032Y-54049821D01*
X146747784Y-54087454D01*
X146747790Y-54087455D01*
X146752597Y-54088609D01*
X147005000Y-54108474D01*
X147257403Y-54088609D01*
X147262210Y-54087455D01*
X147262216Y-54087454D01*
X147418968Y-54049821D01*
X147503591Y-54029505D01*
X147508164Y-54027611D01*
X147732928Y-53934511D01*
X147732932Y-53934509D01*
X147737502Y-53932616D01*
X147953376Y-53800328D01*
X148145898Y-53635898D01*
X148310328Y-53443376D01*
X148442616Y-53227502D01*
X148539505Y-52993591D01*
X148598609Y-52747403D01*
X148618474Y-52495000D01*
X148598609Y-52242597D01*
X148539505Y-51996409D01*
X148442616Y-51762498D01*
X148310328Y-51546624D01*
X148145898Y-51354102D01*
X147953376Y-51189672D01*
X147737502Y-51057384D01*
X147732932Y-51055491D01*
X147732928Y-51055489D01*
X147508164Y-50962389D01*
X147508162Y-50962388D01*
X147503591Y-50960495D01*
X147418968Y-50940179D01*
X147262216Y-50902546D01*
X147262210Y-50902545D01*
X147257403Y-50901391D01*
X147005000Y-50881526D01*
X146752597Y-50901391D01*
X146747790Y-50902545D01*
X146747784Y-50902546D01*
X146591032Y-50940179D01*
X146506409Y-50960495D01*
X146501838Y-50962388D01*
X146501836Y-50962389D01*
X146277072Y-51055489D01*
X146277068Y-51055491D01*
X146272498Y-51057384D01*
X146056624Y-51189672D01*
X145864102Y-51354102D01*
X145699672Y-51546624D01*
X145567384Y-51762498D01*
X145470495Y-51996409D01*
X145411391Y-52242597D01*
X145391526Y-52495000D01*
X137013000Y-52495000D01*
X137013000Y-48943134D01*
X137321500Y-48943134D01*
X137328255Y-49005316D01*
X137379385Y-49141705D01*
X137466739Y-49258261D01*
X137583295Y-49345615D01*
X137719684Y-49396745D01*
X137781866Y-49403500D01*
X139678134Y-49403500D01*
X139740316Y-49396745D01*
X139876705Y-49345615D01*
X139993261Y-49258261D01*
X140080615Y-49141705D01*
X140105180Y-49076178D01*
X140147822Y-49019414D01*
X140214383Y-48994714D01*
X140283732Y-49009921D01*
X140303647Y-49023464D01*
X140368724Y-49077492D01*
X140459349Y-49152730D01*
X140659322Y-49269584D01*
X140875694Y-49352209D01*
X140880760Y-49353240D01*
X140880761Y-49353240D01*
X140933846Y-49364040D01*
X141102656Y-49398385D01*
X141232089Y-49403131D01*
X141328949Y-49406683D01*
X141328953Y-49406683D01*
X141334113Y-49406872D01*
X141339233Y-49406216D01*
X141339235Y-49406216D01*
X141413166Y-49396745D01*
X141563847Y-49377442D01*
X141568795Y-49375957D01*
X141568802Y-49375956D01*
X141780747Y-49312369D01*
X141785690Y-49310886D01*
X141866236Y-49271427D01*
X141989049Y-49211262D01*
X141989052Y-49211260D01*
X141993684Y-49208991D01*
X142182243Y-49074494D01*
X142346303Y-48911005D01*
X142481458Y-48722917D01*
X142584078Y-48515280D01*
X142651408Y-48293671D01*
X142681640Y-48064041D01*
X142683327Y-47995000D01*
X142677032Y-47918434D01*
X142664773Y-47769318D01*
X142664772Y-47769312D01*
X142664349Y-47764167D01*
X142607925Y-47539533D01*
X142515570Y-47327131D01*
X142389764Y-47132665D01*
X142233887Y-46961358D01*
X142229836Y-46958159D01*
X142229832Y-46958155D01*
X142056177Y-46821011D01*
X142056172Y-46821008D01*
X142052123Y-46817810D01*
X142047607Y-46815317D01*
X142047604Y-46815315D01*
X141853879Y-46708373D01*
X141853875Y-46708371D01*
X141849355Y-46705876D01*
X141844486Y-46704152D01*
X141844482Y-46704150D01*
X141635903Y-46630288D01*
X141635899Y-46630287D01*
X141631028Y-46628562D01*
X141625935Y-46627655D01*
X141625932Y-46627654D01*
X141408095Y-46588851D01*
X141408089Y-46588850D01*
X141403006Y-46587945D01*
X141330096Y-46587054D01*
X141176581Y-46585179D01*
X141176579Y-46585179D01*
X141171411Y-46585116D01*
X140942464Y-46620150D01*
X140722314Y-46692106D01*
X140717726Y-46694494D01*
X140717722Y-46694496D01*
X140521461Y-46796663D01*
X140516872Y-46799052D01*
X140512739Y-46802155D01*
X140512736Y-46802157D01*
X140440088Y-46856703D01*
X140331655Y-46938117D01*
X140314170Y-46956414D01*
X140252646Y-46991844D01*
X140181733Y-46988387D01*
X140123947Y-46947141D01*
X140105094Y-46913592D01*
X140083768Y-46856705D01*
X140083767Y-46856703D01*
X140080615Y-46848295D01*
X139993261Y-46731739D01*
X139876705Y-46644385D01*
X139740316Y-46593255D01*
X139678134Y-46586500D01*
X137781866Y-46586500D01*
X137719684Y-46593255D01*
X137583295Y-46644385D01*
X137466739Y-46731739D01*
X137379385Y-46848295D01*
X137328255Y-46984684D01*
X137321500Y-47046866D01*
X137321500Y-48943134D01*
X137013000Y-48943134D01*
X137013000Y-43629000D01*
X137033002Y-43560879D01*
X137086658Y-43514386D01*
X137139000Y-43503000D01*
X151371000Y-43503000D01*
X151439121Y-43523002D01*
G37*
%TD.AperFunction*%
%TD*%
M02*
