%FSLAX45Y45*%
G04 Gerber Fmt 4.5, Leading zero omitted, Abs format (unit mm)*
G04 Created by KiCad (PCBNEW (5.99.0-12789-g9e557d84c6)) date 2021-11-25 22:40:08*
%MOMM*%
%LPD*%
G01*
G04 APERTURE LIST*
%TA.AperFunction,Profile*%
%ADD10C,0.100000*%
%TD*%
%ADD11C,0.200000*%
%ADD12C,0.220000*%
G04 APERTURE END LIST*
D10*
X13650500Y-13749500D02*
X15200500Y-13749500D01*
X15200500Y-13749500D02*
X15200500Y-4299500D01*
X15200500Y-4299500D02*
X13650500Y-4299500D01*
X13650500Y-4299500D02*
X13650500Y-13749500D01*
D11*
D12*
X14590500Y-5139500D02*
X14810500Y-5359500D01*
X14810500Y-5139500D02*
X14590500Y-5359500D01*
X14590500Y-12489500D02*
X14810500Y-12709500D01*
X14810500Y-12489500D02*
X14590500Y-12709500D01*
D11*
X13903119Y-14064976D02*
X13903119Y-13864976D01*
X13950738Y-13864976D01*
X13979309Y-13874500D01*
X13998357Y-13893548D01*
X14007881Y-13912595D01*
X14017405Y-13950690D01*
X14017405Y-13979262D01*
X14007881Y-14017357D01*
X13998357Y-14036405D01*
X13979309Y-14055452D01*
X13950738Y-14064976D01*
X13903119Y-14064976D01*
X14103119Y-14064976D02*
X14103119Y-13931643D01*
X14103119Y-13969738D02*
X14112643Y-13950690D01*
X14122167Y-13941167D01*
X14141214Y-13931643D01*
X14160262Y-13931643D01*
X14226928Y-14064976D02*
X14226928Y-13931643D01*
X14226928Y-13864976D02*
X14217405Y-13874500D01*
X14226928Y-13884024D01*
X14236452Y-13874500D01*
X14226928Y-13864976D01*
X14226928Y-13884024D01*
X14350738Y-14064976D02*
X14331690Y-14055452D01*
X14322167Y-14036405D01*
X14322167Y-13864976D01*
X14455500Y-14064976D02*
X14436452Y-14055452D01*
X14426928Y-14036405D01*
X14426928Y-13864976D01*
X14684071Y-14064976D02*
X14684071Y-13864976D01*
X14750738Y-14007833D01*
X14817405Y-13864976D01*
X14817405Y-14064976D01*
X14998357Y-14064976D02*
X14998357Y-13960214D01*
X14988833Y-13941167D01*
X14969786Y-13931643D01*
X14931690Y-13931643D01*
X14912643Y-13941167D01*
X14998357Y-14055452D02*
X14979309Y-14064976D01*
X14931690Y-14064976D01*
X14912643Y-14055452D01*
X14903119Y-14036405D01*
X14903119Y-14017357D01*
X14912643Y-13998309D01*
X14931690Y-13988786D01*
X14979309Y-13988786D01*
X14998357Y-13979262D01*
X15093595Y-13931643D02*
X15093595Y-14131643D01*
X15093595Y-13941167D02*
X15112643Y-13931643D01*
X15150738Y-13931643D01*
X15169786Y-13941167D01*
X15179309Y-13950690D01*
X15188833Y-13969738D01*
X15188833Y-14026881D01*
X15179309Y-14045928D01*
X15169786Y-14055452D01*
X15150738Y-14064976D01*
X15112643Y-14064976D01*
X15093595Y-14055452D01*
X15274548Y-14045928D02*
X15284071Y-14055452D01*
X15274548Y-14064976D01*
X15265024Y-14055452D01*
X15274548Y-14045928D01*
X15274548Y-14064976D01*
X15274548Y-13941167D02*
X15284071Y-13950690D01*
X15274548Y-13960214D01*
X15265024Y-13950690D01*
X15274548Y-13941167D01*
X15274548Y-13960214D01*
X13445500Y-14294500D02*
X13645500Y-14494500D01*
X13645500Y-14294500D02*
X13445500Y-14494500D01*
X13893595Y-14304024D02*
X13903119Y-14294500D01*
X13922167Y-14284976D01*
X13969786Y-14284976D01*
X13988833Y-14294500D01*
X13998357Y-14304024D01*
X14007881Y-14323071D01*
X14007881Y-14342119D01*
X13998357Y-14370690D01*
X13884071Y-14484976D01*
X14007881Y-14484976D01*
X14093595Y-14465928D02*
X14103119Y-14475452D01*
X14093595Y-14484976D01*
X14084071Y-14475452D01*
X14093595Y-14465928D01*
X14093595Y-14484976D01*
X14179309Y-14304024D02*
X14188833Y-14294500D01*
X14207881Y-14284976D01*
X14255500Y-14284976D01*
X14274548Y-14294500D01*
X14284071Y-14304024D01*
X14293595Y-14323071D01*
X14293595Y-14342119D01*
X14284071Y-14370690D01*
X14169786Y-14484976D01*
X14293595Y-14484976D01*
X14417405Y-14284976D02*
X14436452Y-14284976D01*
X14455500Y-14294500D01*
X14465024Y-14304024D01*
X14474548Y-14323071D01*
X14484071Y-14361167D01*
X14484071Y-14408786D01*
X14474548Y-14446881D01*
X14465024Y-14465928D01*
X14455500Y-14475452D01*
X14436452Y-14484976D01*
X14417405Y-14484976D01*
X14398357Y-14475452D01*
X14388833Y-14465928D01*
X14379309Y-14446881D01*
X14369786Y-14408786D01*
X14369786Y-14361167D01*
X14379309Y-14323071D01*
X14388833Y-14304024D01*
X14398357Y-14294500D01*
X14417405Y-14284976D01*
X14607881Y-14284976D02*
X14626928Y-14284976D01*
X14645976Y-14294500D01*
X14655500Y-14304024D01*
X14665024Y-14323071D01*
X14674548Y-14361167D01*
X14674548Y-14408786D01*
X14665024Y-14446881D01*
X14655500Y-14465928D01*
X14645976Y-14475452D01*
X14626928Y-14484976D01*
X14607881Y-14484976D01*
X14588833Y-14475452D01*
X14579309Y-14465928D01*
X14569786Y-14446881D01*
X14560262Y-14408786D01*
X14560262Y-14361167D01*
X14569786Y-14323071D01*
X14579309Y-14304024D01*
X14588833Y-14294500D01*
X14607881Y-14284976D01*
X14760262Y-14484976D02*
X14760262Y-14351643D01*
X14760262Y-14370690D02*
X14769786Y-14361167D01*
X14788833Y-14351643D01*
X14817405Y-14351643D01*
X14836452Y-14361167D01*
X14845976Y-14380214D01*
X14845976Y-14484976D01*
X14845976Y-14380214D02*
X14855500Y-14361167D01*
X14874548Y-14351643D01*
X14903119Y-14351643D01*
X14922167Y-14361167D01*
X14931690Y-14380214D01*
X14931690Y-14484976D01*
X15026928Y-14484976D02*
X15026928Y-14351643D01*
X15026928Y-14370690D02*
X15036452Y-14361167D01*
X15055500Y-14351643D01*
X15084071Y-14351643D01*
X15103119Y-14361167D01*
X15112643Y-14380214D01*
X15112643Y-14484976D01*
X15112643Y-14380214D02*
X15122167Y-14361167D01*
X15141214Y-14351643D01*
X15169786Y-14351643D01*
X15188833Y-14361167D01*
X15198357Y-14380214D01*
X15198357Y-14484976D01*
X15588833Y-14275452D02*
X15417405Y-14532595D01*
X15845976Y-14284976D02*
X15865024Y-14284976D01*
X15884071Y-14294500D01*
X15893595Y-14304024D01*
X15903119Y-14323071D01*
X15912643Y-14361167D01*
X15912643Y-14408786D01*
X15903119Y-14446881D01*
X15893595Y-14465928D01*
X15884071Y-14475452D01*
X15865024Y-14484976D01*
X15845976Y-14484976D01*
X15826928Y-14475452D01*
X15817405Y-14465928D01*
X15807881Y-14446881D01*
X15798357Y-14408786D01*
X15798357Y-14361167D01*
X15807881Y-14323071D01*
X15817405Y-14304024D01*
X15826928Y-14294500D01*
X15845976Y-14284976D01*
X15998357Y-14465928D02*
X16007881Y-14475452D01*
X15998357Y-14484976D01*
X15988833Y-14475452D01*
X15998357Y-14465928D01*
X15998357Y-14484976D01*
X16131690Y-14284976D02*
X16150738Y-14284976D01*
X16169786Y-14294500D01*
X16179309Y-14304024D01*
X16188833Y-14323071D01*
X16198357Y-14361167D01*
X16198357Y-14408786D01*
X16188833Y-14446881D01*
X16179309Y-14465928D01*
X16169786Y-14475452D01*
X16150738Y-14484976D01*
X16131690Y-14484976D01*
X16112643Y-14475452D01*
X16103119Y-14465928D01*
X16093595Y-14446881D01*
X16084071Y-14408786D01*
X16084071Y-14361167D01*
X16093595Y-14323071D01*
X16103119Y-14304024D01*
X16112643Y-14294500D01*
X16131690Y-14284976D01*
X16312643Y-14370690D02*
X16293595Y-14361167D01*
X16284071Y-14351643D01*
X16274548Y-14332595D01*
X16274548Y-14323071D01*
X16284071Y-14304024D01*
X16293595Y-14294500D01*
X16312643Y-14284976D01*
X16350738Y-14284976D01*
X16369786Y-14294500D01*
X16379309Y-14304024D01*
X16388833Y-14323071D01*
X16388833Y-14332595D01*
X16379309Y-14351643D01*
X16369786Y-14361167D01*
X16350738Y-14370690D01*
X16312643Y-14370690D01*
X16293595Y-14380214D01*
X16284071Y-14389738D01*
X16274548Y-14408786D01*
X16274548Y-14446881D01*
X16284071Y-14465928D01*
X16293595Y-14475452D01*
X16312643Y-14484976D01*
X16350738Y-14484976D01*
X16369786Y-14475452D01*
X16379309Y-14465928D01*
X16388833Y-14446881D01*
X16388833Y-14408786D01*
X16379309Y-14389738D01*
X16369786Y-14380214D01*
X16350738Y-14370690D01*
X16560262Y-14284976D02*
X16522167Y-14284976D01*
X16503119Y-14294500D01*
X16493595Y-14304024D01*
X16474548Y-14332595D01*
X16465024Y-14370690D01*
X16465024Y-14446881D01*
X16474548Y-14465928D01*
X16484071Y-14475452D01*
X16503119Y-14484976D01*
X16541214Y-14484976D01*
X16560262Y-14475452D01*
X16569786Y-14465928D01*
X16579309Y-14446881D01*
X16579309Y-14399262D01*
X16569786Y-14380214D01*
X16560262Y-14370690D01*
X16541214Y-14361167D01*
X16503119Y-14361167D01*
X16484071Y-14370690D01*
X16474548Y-14380214D01*
X16465024Y-14399262D01*
X16750738Y-14284976D02*
X16712643Y-14284976D01*
X16693595Y-14294500D01*
X16684071Y-14304024D01*
X16665024Y-14332595D01*
X16655500Y-14370690D01*
X16655500Y-14446881D01*
X16665024Y-14465928D01*
X16674548Y-14475452D01*
X16693595Y-14484976D01*
X16731690Y-14484976D01*
X16750738Y-14475452D01*
X16760262Y-14465928D01*
X16769786Y-14446881D01*
X16769786Y-14399262D01*
X16760262Y-14380214D01*
X16750738Y-14370690D01*
X16731690Y-14361167D01*
X16693595Y-14361167D01*
X16674548Y-14370690D01*
X16665024Y-14380214D01*
X16655500Y-14399262D01*
X16845976Y-14284976D02*
X16845976Y-14323071D01*
X16922167Y-14284976D02*
X16922167Y-14323071D01*
X17217405Y-14561167D02*
X17207881Y-14551643D01*
X17188833Y-14523071D01*
X17179310Y-14504024D01*
X17169786Y-14475452D01*
X17160262Y-14427833D01*
X17160262Y-14389738D01*
X17169786Y-14342119D01*
X17179310Y-14313548D01*
X17188833Y-14294500D01*
X17207881Y-14265928D01*
X17217405Y-14256405D01*
X17284071Y-14304024D02*
X17293595Y-14294500D01*
X17312643Y-14284976D01*
X17360262Y-14284976D01*
X17379310Y-14294500D01*
X17388833Y-14304024D01*
X17398357Y-14323071D01*
X17398357Y-14342119D01*
X17388833Y-14370690D01*
X17274548Y-14484976D01*
X17398357Y-14484976D01*
X17636452Y-14484976D02*
X17636452Y-14284976D01*
X17722167Y-14484976D02*
X17722167Y-14380214D01*
X17712643Y-14361167D01*
X17693595Y-14351643D01*
X17665024Y-14351643D01*
X17645976Y-14361167D01*
X17636452Y-14370690D01*
X17845976Y-14484976D02*
X17826929Y-14475452D01*
X17817405Y-14465928D01*
X17807881Y-14446881D01*
X17807881Y-14389738D01*
X17817405Y-14370690D01*
X17826929Y-14361167D01*
X17845976Y-14351643D01*
X17874548Y-14351643D01*
X17893595Y-14361167D01*
X17903119Y-14370690D01*
X17912643Y-14389738D01*
X17912643Y-14446881D01*
X17903119Y-14465928D01*
X17893595Y-14475452D01*
X17874548Y-14484976D01*
X17845976Y-14484976D01*
X18026929Y-14484976D02*
X18007881Y-14475452D01*
X17998357Y-14456405D01*
X17998357Y-14284976D01*
X18179310Y-14475452D02*
X18160262Y-14484976D01*
X18122167Y-14484976D01*
X18103119Y-14475452D01*
X18093595Y-14456405D01*
X18093595Y-14380214D01*
X18103119Y-14361167D01*
X18122167Y-14351643D01*
X18160262Y-14351643D01*
X18179310Y-14361167D01*
X18188833Y-14380214D01*
X18188833Y-14399262D01*
X18093595Y-14418309D01*
X18265024Y-14475452D02*
X18284071Y-14484976D01*
X18322167Y-14484976D01*
X18341214Y-14475452D01*
X18350738Y-14456405D01*
X18350738Y-14446881D01*
X18341214Y-14427833D01*
X18322167Y-14418309D01*
X18293595Y-14418309D01*
X18274548Y-14408786D01*
X18265024Y-14389738D01*
X18265024Y-14380214D01*
X18274548Y-14361167D01*
X18293595Y-14351643D01*
X18322167Y-14351643D01*
X18341214Y-14361167D01*
X18417405Y-14561167D02*
X18426929Y-14551643D01*
X18445976Y-14523071D01*
X18455500Y-14504024D01*
X18465024Y-14475452D01*
X18474548Y-14427833D01*
X18474548Y-14389738D01*
X18465024Y-14342119D01*
X18455500Y-14313548D01*
X18445976Y-14294500D01*
X18426929Y-14265928D01*
X18417405Y-14256405D01*
X18779310Y-14561167D02*
X18769786Y-14551643D01*
X18750738Y-14523071D01*
X18741214Y-14504024D01*
X18731690Y-14475452D01*
X18722167Y-14427833D01*
X18722167Y-14389738D01*
X18731690Y-14342119D01*
X18741214Y-14313548D01*
X18750738Y-14294500D01*
X18769786Y-14265928D01*
X18779310Y-14256405D01*
X18855500Y-14351643D02*
X18855500Y-14484976D01*
X18855500Y-14370690D02*
X18865024Y-14361167D01*
X18884071Y-14351643D01*
X18912643Y-14351643D01*
X18931690Y-14361167D01*
X18941214Y-14380214D01*
X18941214Y-14484976D01*
X19065024Y-14484976D02*
X19045976Y-14475452D01*
X19036452Y-14465928D01*
X19026929Y-14446881D01*
X19026929Y-14389738D01*
X19036452Y-14370690D01*
X19045976Y-14361167D01*
X19065024Y-14351643D01*
X19093595Y-14351643D01*
X19112643Y-14361167D01*
X19122167Y-14370690D01*
X19131690Y-14389738D01*
X19131690Y-14446881D01*
X19122167Y-14465928D01*
X19112643Y-14475452D01*
X19093595Y-14484976D01*
X19065024Y-14484976D01*
X19188833Y-14351643D02*
X19265024Y-14351643D01*
X19217405Y-14284976D02*
X19217405Y-14456405D01*
X19226929Y-14475452D01*
X19245976Y-14484976D01*
X19265024Y-14484976D01*
X19484071Y-14351643D02*
X19484071Y-14551643D01*
X19484071Y-14361167D02*
X19503119Y-14351643D01*
X19541214Y-14351643D01*
X19560262Y-14361167D01*
X19569786Y-14370690D01*
X19579310Y-14389738D01*
X19579310Y-14446881D01*
X19569786Y-14465928D01*
X19560262Y-14475452D01*
X19541214Y-14484976D01*
X19503119Y-14484976D01*
X19484071Y-14475452D01*
X19693595Y-14484976D02*
X19674548Y-14475452D01*
X19665024Y-14456405D01*
X19665024Y-14284976D01*
X19855500Y-14484976D02*
X19855500Y-14380214D01*
X19845976Y-14361167D01*
X19826929Y-14351643D01*
X19788833Y-14351643D01*
X19769786Y-14361167D01*
X19855500Y-14475452D02*
X19836452Y-14484976D01*
X19788833Y-14484976D01*
X19769786Y-14475452D01*
X19760262Y-14456405D01*
X19760262Y-14437357D01*
X19769786Y-14418309D01*
X19788833Y-14408786D01*
X19836452Y-14408786D01*
X19855500Y-14399262D01*
X19922167Y-14351643D02*
X19998357Y-14351643D01*
X19950738Y-14284976D02*
X19950738Y-14456405D01*
X19960262Y-14475452D01*
X19979310Y-14484976D01*
X19998357Y-14484976D01*
X20141214Y-14475452D02*
X20122167Y-14484976D01*
X20084071Y-14484976D01*
X20065024Y-14475452D01*
X20055500Y-14456405D01*
X20055500Y-14380214D01*
X20065024Y-14361167D01*
X20084071Y-14351643D01*
X20122167Y-14351643D01*
X20141214Y-14361167D01*
X20150738Y-14380214D01*
X20150738Y-14399262D01*
X20055500Y-14418309D01*
X20322167Y-14484976D02*
X20322167Y-14284976D01*
X20322167Y-14475452D02*
X20303119Y-14484976D01*
X20265024Y-14484976D01*
X20245976Y-14475452D01*
X20236452Y-14465928D01*
X20226929Y-14446881D01*
X20226929Y-14389738D01*
X20236452Y-14370690D01*
X20245976Y-14361167D01*
X20265024Y-14351643D01*
X20303119Y-14351643D01*
X20322167Y-14361167D01*
X20398357Y-14561167D02*
X20407881Y-14551643D01*
X20426929Y-14523071D01*
X20436452Y-14504024D01*
X20445976Y-14475452D01*
X20455500Y-14427833D01*
X20455500Y-14389738D01*
X20445976Y-14342119D01*
X20436452Y-14313548D01*
X20426929Y-14294500D01*
X20407881Y-14265928D01*
X20398357Y-14256405D01*
M02*
