%FSLAX45Y45*%
G04 Gerber Fmt 4.5, Leading zero omitted, Abs format (unit mm)*
G04 Created by KiCad (PCBNEW (6.0.0-rc1-415-g653c7b78d7)) date 2021-12-14 13:24:05*
%MOMM*%
%LPD*%
G01*
G04 APERTURE LIST*
%TA.AperFunction,Profile*%
%ADD10C,0.100000*%
%TD*%
%ADD11C,0.200000*%
%ADD12C,0.220000*%
G04 APERTURE END LIST*
D10*
X13650500Y-13949500D02*
X15200500Y-13949500D01*
X15200500Y-13949500D02*
X15200500Y-4099500D01*
X15200500Y-4099500D02*
X13650500Y-4099500D01*
X13650500Y-4099500D02*
X13650500Y-13949500D01*
D11*
D12*
X14590500Y-5139500D02*
X14810500Y-5359500D01*
X14810500Y-5139500D02*
X14590500Y-5359500D01*
X14590500Y-12489500D02*
X14810500Y-12709500D01*
X14810500Y-12489500D02*
X14590500Y-12709500D01*
D11*
X13903119Y-14264976D02*
X13903119Y-14064976D01*
X13950738Y-14064976D01*
X13979309Y-14074500D01*
X13998357Y-14093548D01*
X14007881Y-14112595D01*
X14017405Y-14150690D01*
X14017405Y-14179262D01*
X14007881Y-14217357D01*
X13998357Y-14236405D01*
X13979309Y-14255452D01*
X13950738Y-14264976D01*
X13903119Y-14264976D01*
X14103119Y-14264976D02*
X14103119Y-14131643D01*
X14103119Y-14169738D02*
X14112643Y-14150690D01*
X14122167Y-14141167D01*
X14141214Y-14131643D01*
X14160262Y-14131643D01*
X14226928Y-14264976D02*
X14226928Y-14131643D01*
X14226928Y-14064976D02*
X14217405Y-14074500D01*
X14226928Y-14084024D01*
X14236452Y-14074500D01*
X14226928Y-14064976D01*
X14226928Y-14084024D01*
X14350738Y-14264976D02*
X14331690Y-14255452D01*
X14322167Y-14236405D01*
X14322167Y-14064976D01*
X14455500Y-14264976D02*
X14436452Y-14255452D01*
X14426928Y-14236405D01*
X14426928Y-14064976D01*
X14684071Y-14264976D02*
X14684071Y-14064976D01*
X14750738Y-14207833D01*
X14817405Y-14064976D01*
X14817405Y-14264976D01*
X14998357Y-14264976D02*
X14998357Y-14160214D01*
X14988833Y-14141167D01*
X14969786Y-14131643D01*
X14931690Y-14131643D01*
X14912643Y-14141167D01*
X14998357Y-14255452D02*
X14979309Y-14264976D01*
X14931690Y-14264976D01*
X14912643Y-14255452D01*
X14903119Y-14236405D01*
X14903119Y-14217357D01*
X14912643Y-14198309D01*
X14931690Y-14188786D01*
X14979309Y-14188786D01*
X14998357Y-14179262D01*
X15093595Y-14131643D02*
X15093595Y-14331643D01*
X15093595Y-14141167D02*
X15112643Y-14131643D01*
X15150738Y-14131643D01*
X15169786Y-14141167D01*
X15179309Y-14150690D01*
X15188833Y-14169738D01*
X15188833Y-14226881D01*
X15179309Y-14245928D01*
X15169786Y-14255452D01*
X15150738Y-14264976D01*
X15112643Y-14264976D01*
X15093595Y-14255452D01*
X15274548Y-14245928D02*
X15284071Y-14255452D01*
X15274548Y-14264976D01*
X15265024Y-14255452D01*
X15274548Y-14245928D01*
X15274548Y-14264976D01*
X15274548Y-14141167D02*
X15284071Y-14150690D01*
X15274548Y-14160214D01*
X15265024Y-14150690D01*
X15274548Y-14141167D01*
X15274548Y-14160214D01*
X13445500Y-14494500D02*
X13645500Y-14694500D01*
X13645500Y-14494500D02*
X13445500Y-14694500D01*
X13893595Y-14504024D02*
X13903119Y-14494500D01*
X13922167Y-14484976D01*
X13969786Y-14484976D01*
X13988833Y-14494500D01*
X13998357Y-14504024D01*
X14007881Y-14523071D01*
X14007881Y-14542119D01*
X13998357Y-14570690D01*
X13884071Y-14684976D01*
X14007881Y-14684976D01*
X14093595Y-14665928D02*
X14103119Y-14675452D01*
X14093595Y-14684976D01*
X14084071Y-14675452D01*
X14093595Y-14665928D01*
X14093595Y-14684976D01*
X14179309Y-14504024D02*
X14188833Y-14494500D01*
X14207881Y-14484976D01*
X14255500Y-14484976D01*
X14274548Y-14494500D01*
X14284071Y-14504024D01*
X14293595Y-14523071D01*
X14293595Y-14542119D01*
X14284071Y-14570690D01*
X14169786Y-14684976D01*
X14293595Y-14684976D01*
X14417405Y-14484976D02*
X14436452Y-14484976D01*
X14455500Y-14494500D01*
X14465024Y-14504024D01*
X14474548Y-14523071D01*
X14484071Y-14561167D01*
X14484071Y-14608786D01*
X14474548Y-14646881D01*
X14465024Y-14665928D01*
X14455500Y-14675452D01*
X14436452Y-14684976D01*
X14417405Y-14684976D01*
X14398357Y-14675452D01*
X14388833Y-14665928D01*
X14379309Y-14646881D01*
X14369786Y-14608786D01*
X14369786Y-14561167D01*
X14379309Y-14523071D01*
X14388833Y-14504024D01*
X14398357Y-14494500D01*
X14417405Y-14484976D01*
X14607881Y-14484976D02*
X14626928Y-14484976D01*
X14645976Y-14494500D01*
X14655500Y-14504024D01*
X14665024Y-14523071D01*
X14674548Y-14561167D01*
X14674548Y-14608786D01*
X14665024Y-14646881D01*
X14655500Y-14665928D01*
X14645976Y-14675452D01*
X14626928Y-14684976D01*
X14607881Y-14684976D01*
X14588833Y-14675452D01*
X14579309Y-14665928D01*
X14569786Y-14646881D01*
X14560262Y-14608786D01*
X14560262Y-14561167D01*
X14569786Y-14523071D01*
X14579309Y-14504024D01*
X14588833Y-14494500D01*
X14607881Y-14484976D01*
X14760262Y-14684976D02*
X14760262Y-14551643D01*
X14760262Y-14570690D02*
X14769786Y-14561167D01*
X14788833Y-14551643D01*
X14817405Y-14551643D01*
X14836452Y-14561167D01*
X14845976Y-14580214D01*
X14845976Y-14684976D01*
X14845976Y-14580214D02*
X14855500Y-14561167D01*
X14874548Y-14551643D01*
X14903119Y-14551643D01*
X14922167Y-14561167D01*
X14931690Y-14580214D01*
X14931690Y-14684976D01*
X15026928Y-14684976D02*
X15026928Y-14551643D01*
X15026928Y-14570690D02*
X15036452Y-14561167D01*
X15055500Y-14551643D01*
X15084071Y-14551643D01*
X15103119Y-14561167D01*
X15112643Y-14580214D01*
X15112643Y-14684976D01*
X15112643Y-14580214D02*
X15122167Y-14561167D01*
X15141214Y-14551643D01*
X15169786Y-14551643D01*
X15188833Y-14561167D01*
X15198357Y-14580214D01*
X15198357Y-14684976D01*
X15588833Y-14475452D02*
X15417405Y-14732595D01*
X15845976Y-14484976D02*
X15865024Y-14484976D01*
X15884071Y-14494500D01*
X15893595Y-14504024D01*
X15903119Y-14523071D01*
X15912643Y-14561167D01*
X15912643Y-14608786D01*
X15903119Y-14646881D01*
X15893595Y-14665928D01*
X15884071Y-14675452D01*
X15865024Y-14684976D01*
X15845976Y-14684976D01*
X15826928Y-14675452D01*
X15817405Y-14665928D01*
X15807881Y-14646881D01*
X15798357Y-14608786D01*
X15798357Y-14561167D01*
X15807881Y-14523071D01*
X15817405Y-14504024D01*
X15826928Y-14494500D01*
X15845976Y-14484976D01*
X15998357Y-14665928D02*
X16007881Y-14675452D01*
X15998357Y-14684976D01*
X15988833Y-14675452D01*
X15998357Y-14665928D01*
X15998357Y-14684976D01*
X16131690Y-14484976D02*
X16150738Y-14484976D01*
X16169786Y-14494500D01*
X16179309Y-14504024D01*
X16188833Y-14523071D01*
X16198357Y-14561167D01*
X16198357Y-14608786D01*
X16188833Y-14646881D01*
X16179309Y-14665928D01*
X16169786Y-14675452D01*
X16150738Y-14684976D01*
X16131690Y-14684976D01*
X16112643Y-14675452D01*
X16103119Y-14665928D01*
X16093595Y-14646881D01*
X16084071Y-14608786D01*
X16084071Y-14561167D01*
X16093595Y-14523071D01*
X16103119Y-14504024D01*
X16112643Y-14494500D01*
X16131690Y-14484976D01*
X16312643Y-14570690D02*
X16293595Y-14561167D01*
X16284071Y-14551643D01*
X16274548Y-14532595D01*
X16274548Y-14523071D01*
X16284071Y-14504024D01*
X16293595Y-14494500D01*
X16312643Y-14484976D01*
X16350738Y-14484976D01*
X16369786Y-14494500D01*
X16379309Y-14504024D01*
X16388833Y-14523071D01*
X16388833Y-14532595D01*
X16379309Y-14551643D01*
X16369786Y-14561167D01*
X16350738Y-14570690D01*
X16312643Y-14570690D01*
X16293595Y-14580214D01*
X16284071Y-14589738D01*
X16274548Y-14608786D01*
X16274548Y-14646881D01*
X16284071Y-14665928D01*
X16293595Y-14675452D01*
X16312643Y-14684976D01*
X16350738Y-14684976D01*
X16369786Y-14675452D01*
X16379309Y-14665928D01*
X16388833Y-14646881D01*
X16388833Y-14608786D01*
X16379309Y-14589738D01*
X16369786Y-14580214D01*
X16350738Y-14570690D01*
X16560262Y-14484976D02*
X16522167Y-14484976D01*
X16503119Y-14494500D01*
X16493595Y-14504024D01*
X16474548Y-14532595D01*
X16465024Y-14570690D01*
X16465024Y-14646881D01*
X16474548Y-14665928D01*
X16484071Y-14675452D01*
X16503119Y-14684976D01*
X16541214Y-14684976D01*
X16560262Y-14675452D01*
X16569786Y-14665928D01*
X16579309Y-14646881D01*
X16579309Y-14599262D01*
X16569786Y-14580214D01*
X16560262Y-14570690D01*
X16541214Y-14561167D01*
X16503119Y-14561167D01*
X16484071Y-14570690D01*
X16474548Y-14580214D01*
X16465024Y-14599262D01*
X16750738Y-14484976D02*
X16712643Y-14484976D01*
X16693595Y-14494500D01*
X16684071Y-14504024D01*
X16665024Y-14532595D01*
X16655500Y-14570690D01*
X16655500Y-14646881D01*
X16665024Y-14665928D01*
X16674548Y-14675452D01*
X16693595Y-14684976D01*
X16731690Y-14684976D01*
X16750738Y-14675452D01*
X16760262Y-14665928D01*
X16769786Y-14646881D01*
X16769786Y-14599262D01*
X16760262Y-14580214D01*
X16750738Y-14570690D01*
X16731690Y-14561167D01*
X16693595Y-14561167D01*
X16674548Y-14570690D01*
X16665024Y-14580214D01*
X16655500Y-14599262D01*
X16845976Y-14484976D02*
X16845976Y-14523071D01*
X16922167Y-14484976D02*
X16922167Y-14523071D01*
X17217405Y-14761167D02*
X17207881Y-14751643D01*
X17188833Y-14723071D01*
X17179310Y-14704024D01*
X17169786Y-14675452D01*
X17160262Y-14627833D01*
X17160262Y-14589738D01*
X17169786Y-14542119D01*
X17179310Y-14513548D01*
X17188833Y-14494500D01*
X17207881Y-14465928D01*
X17217405Y-14456405D01*
X17284071Y-14504024D02*
X17293595Y-14494500D01*
X17312643Y-14484976D01*
X17360262Y-14484976D01*
X17379310Y-14494500D01*
X17388833Y-14504024D01*
X17398357Y-14523071D01*
X17398357Y-14542119D01*
X17388833Y-14570690D01*
X17274548Y-14684976D01*
X17398357Y-14684976D01*
X17636452Y-14684976D02*
X17636452Y-14484976D01*
X17722167Y-14684976D02*
X17722167Y-14580214D01*
X17712643Y-14561167D01*
X17693595Y-14551643D01*
X17665024Y-14551643D01*
X17645976Y-14561167D01*
X17636452Y-14570690D01*
X17845976Y-14684976D02*
X17826929Y-14675452D01*
X17817405Y-14665928D01*
X17807881Y-14646881D01*
X17807881Y-14589738D01*
X17817405Y-14570690D01*
X17826929Y-14561167D01*
X17845976Y-14551643D01*
X17874548Y-14551643D01*
X17893595Y-14561167D01*
X17903119Y-14570690D01*
X17912643Y-14589738D01*
X17912643Y-14646881D01*
X17903119Y-14665928D01*
X17893595Y-14675452D01*
X17874548Y-14684976D01*
X17845976Y-14684976D01*
X18026929Y-14684976D02*
X18007881Y-14675452D01*
X17998357Y-14656405D01*
X17998357Y-14484976D01*
X18179310Y-14675452D02*
X18160262Y-14684976D01*
X18122167Y-14684976D01*
X18103119Y-14675452D01*
X18093595Y-14656405D01*
X18093595Y-14580214D01*
X18103119Y-14561167D01*
X18122167Y-14551643D01*
X18160262Y-14551643D01*
X18179310Y-14561167D01*
X18188833Y-14580214D01*
X18188833Y-14599262D01*
X18093595Y-14618309D01*
X18265024Y-14675452D02*
X18284071Y-14684976D01*
X18322167Y-14684976D01*
X18341214Y-14675452D01*
X18350738Y-14656405D01*
X18350738Y-14646881D01*
X18341214Y-14627833D01*
X18322167Y-14618309D01*
X18293595Y-14618309D01*
X18274548Y-14608786D01*
X18265024Y-14589738D01*
X18265024Y-14580214D01*
X18274548Y-14561167D01*
X18293595Y-14551643D01*
X18322167Y-14551643D01*
X18341214Y-14561167D01*
X18417405Y-14761167D02*
X18426929Y-14751643D01*
X18445976Y-14723071D01*
X18455500Y-14704024D01*
X18465024Y-14675452D01*
X18474548Y-14627833D01*
X18474548Y-14589738D01*
X18465024Y-14542119D01*
X18455500Y-14513548D01*
X18445976Y-14494500D01*
X18426929Y-14465928D01*
X18417405Y-14456405D01*
X18779310Y-14761167D02*
X18769786Y-14751643D01*
X18750738Y-14723071D01*
X18741214Y-14704024D01*
X18731690Y-14675452D01*
X18722167Y-14627833D01*
X18722167Y-14589738D01*
X18731690Y-14542119D01*
X18741214Y-14513548D01*
X18750738Y-14494500D01*
X18769786Y-14465928D01*
X18779310Y-14456405D01*
X18855500Y-14551643D02*
X18855500Y-14684976D01*
X18855500Y-14570690D02*
X18865024Y-14561167D01*
X18884071Y-14551643D01*
X18912643Y-14551643D01*
X18931690Y-14561167D01*
X18941214Y-14580214D01*
X18941214Y-14684976D01*
X19065024Y-14684976D02*
X19045976Y-14675452D01*
X19036452Y-14665928D01*
X19026929Y-14646881D01*
X19026929Y-14589738D01*
X19036452Y-14570690D01*
X19045976Y-14561167D01*
X19065024Y-14551643D01*
X19093595Y-14551643D01*
X19112643Y-14561167D01*
X19122167Y-14570690D01*
X19131690Y-14589738D01*
X19131690Y-14646881D01*
X19122167Y-14665928D01*
X19112643Y-14675452D01*
X19093595Y-14684976D01*
X19065024Y-14684976D01*
X19188833Y-14551643D02*
X19265024Y-14551643D01*
X19217405Y-14484976D02*
X19217405Y-14656405D01*
X19226929Y-14675452D01*
X19245976Y-14684976D01*
X19265024Y-14684976D01*
X19484071Y-14551643D02*
X19484071Y-14751643D01*
X19484071Y-14561167D02*
X19503119Y-14551643D01*
X19541214Y-14551643D01*
X19560262Y-14561167D01*
X19569786Y-14570690D01*
X19579310Y-14589738D01*
X19579310Y-14646881D01*
X19569786Y-14665928D01*
X19560262Y-14675452D01*
X19541214Y-14684976D01*
X19503119Y-14684976D01*
X19484071Y-14675452D01*
X19693595Y-14684976D02*
X19674548Y-14675452D01*
X19665024Y-14656405D01*
X19665024Y-14484976D01*
X19855500Y-14684976D02*
X19855500Y-14580214D01*
X19845976Y-14561167D01*
X19826929Y-14551643D01*
X19788833Y-14551643D01*
X19769786Y-14561167D01*
X19855500Y-14675452D02*
X19836452Y-14684976D01*
X19788833Y-14684976D01*
X19769786Y-14675452D01*
X19760262Y-14656405D01*
X19760262Y-14637357D01*
X19769786Y-14618309D01*
X19788833Y-14608786D01*
X19836452Y-14608786D01*
X19855500Y-14599262D01*
X19922167Y-14551643D02*
X19998357Y-14551643D01*
X19950738Y-14484976D02*
X19950738Y-14656405D01*
X19960262Y-14675452D01*
X19979310Y-14684976D01*
X19998357Y-14684976D01*
X20141214Y-14675452D02*
X20122167Y-14684976D01*
X20084071Y-14684976D01*
X20065024Y-14675452D01*
X20055500Y-14656405D01*
X20055500Y-14580214D01*
X20065024Y-14561167D01*
X20084071Y-14551643D01*
X20122167Y-14551643D01*
X20141214Y-14561167D01*
X20150738Y-14580214D01*
X20150738Y-14599262D01*
X20055500Y-14618309D01*
X20322167Y-14684976D02*
X20322167Y-14484976D01*
X20322167Y-14675452D02*
X20303119Y-14684976D01*
X20265024Y-14684976D01*
X20245976Y-14675452D01*
X20236452Y-14665928D01*
X20226929Y-14646881D01*
X20226929Y-14589738D01*
X20236452Y-14570690D01*
X20245976Y-14561167D01*
X20265024Y-14551643D01*
X20303119Y-14551643D01*
X20322167Y-14561167D01*
X20398357Y-14761167D02*
X20407881Y-14751643D01*
X20426929Y-14723071D01*
X20436452Y-14704024D01*
X20445976Y-14675452D01*
X20455500Y-14627833D01*
X20455500Y-14589738D01*
X20445976Y-14542119D01*
X20436452Y-14513548D01*
X20426929Y-14494500D01*
X20407881Y-14465928D01*
X20398357Y-14456405D01*
M02*
