M48
; DRILL file {KiCad (5.99.0-12789-g9e557d84c6)} date Thu Nov 25 22:40:06 2021
; FORMAT={-:-/ absolute / metric / decimal}
; #@! TF.CreationDate,2021-11-25T22:40:06-08:00
; #@! TF.GenerationSoftware,Kicad,Pcbnew,(5.99.0-12789-g9e557d84c6)
; #@! TF.FileFunction,Plated,1,2,PTH
FMAT,2
METRIC
; #@! TA.AperFunction,Plated,PTH,ComponentDrill
T1C0.750
; #@! TA.AperFunction,Plated,PTH,ComponentDrill
T2C0.800
; #@! TA.AperFunction,Plated,PTH,ComponentDrill
T3C0.900
; #@! TA.AperFunction,Plated,PTH,ComponentDrill
T4C1.000
%
G90
G05
T1
X146.235Y-74.623
X146.235Y-92.623
X147.505Y-74.623
X147.505Y-92.623
X148.775Y-74.623
X148.775Y-92.623
T2
X145.005Y-118.995
X146.323Y-111.995
X147.505Y-81.445
X147.505Y-83.985
X147.505Y-86.525
X147.505Y-98.185
X147.505Y-105.805
X148.823Y-111.995
X150.005Y-118.995
T3
X138.73Y-47.995
X138.73Y-56.495
X138.73Y-73.495
X138.73Y-81.995
X138.73Y-98.995
X138.73Y-107.495
X138.73Y-124.495
X138.73Y-132.995
X141.27Y-47.995
X141.27Y-56.495
X141.27Y-73.495
X141.27Y-81.995
X141.27Y-98.995
X141.27Y-107.495
X141.27Y-124.495
X141.27Y-132.995
T4
X146.25Y-133.495
X148.79Y-133.495
T0
M30
