%TF.GenerationSoftware,KiCad,Pcbnew,(6.0.0-rc1-415-g653c7b78d7)*%
%TF.CreationDate,2021-12-23T14:23:56-08:00*%
%TF.ProjectId,Emitter,456d6974-7465-4722-9e6b-696361645f70,rev?*%
%TF.SameCoordinates,Original*%
%TF.FileFunction,Legend,Bot*%
%TF.FilePolarity,Positive*%
%FSLAX46Y46*%
G04 Gerber Fmt 4.6, Leading zero omitted, Abs format (unit mm)*
G04 Created by KiCad (PCBNEW (6.0.0-rc1-415-g653c7b78d7)) date 2021-12-23 14:23:56*
%MOMM*%
%LPD*%
G01*
G04 APERTURE LIST*
%ADD10C,0.150000*%
%ADD11C,0.120000*%
G04 APERTURE END LIST*
D10*
X149515238Y-66947380D02*
X149467619Y-66804523D01*
X149467619Y-66566428D01*
X149515238Y-66471190D01*
X149562857Y-66423571D01*
X149658095Y-66375952D01*
X149753333Y-66375952D01*
X149848571Y-66423571D01*
X149896190Y-66471190D01*
X149943809Y-66566428D01*
X149991428Y-66756904D01*
X150039047Y-66852142D01*
X150086666Y-66899761D01*
X150181904Y-66947380D01*
X150277142Y-66947380D01*
X150372380Y-66899761D01*
X150420000Y-66852142D01*
X150467619Y-66756904D01*
X150467619Y-66518809D01*
X150420000Y-66375952D01*
X149467619Y-65518809D02*
X149991428Y-65518809D01*
X150086666Y-65566428D01*
X150134285Y-65661666D01*
X150134285Y-65852142D01*
X150086666Y-65947380D01*
X149515238Y-65518809D02*
X149467619Y-65614047D01*
X149467619Y-65852142D01*
X149515238Y-65947380D01*
X149610476Y-65995000D01*
X149705714Y-65995000D01*
X149800952Y-65947380D01*
X149848571Y-65852142D01*
X149848571Y-65614047D01*
X149896190Y-65518809D01*
X149467619Y-65042619D02*
X150134285Y-65042619D01*
X150467619Y-65042619D02*
X150420000Y-65090238D01*
X150372380Y-65042619D01*
X150420000Y-64995000D01*
X150467619Y-65042619D01*
X150372380Y-65042619D01*
X150134285Y-64566428D02*
X149467619Y-64566428D01*
X150039047Y-64566428D02*
X150086666Y-64518809D01*
X150134285Y-64423571D01*
X150134285Y-64280714D01*
X150086666Y-64185476D01*
X149991428Y-64137857D01*
X149467619Y-64137857D01*
X150134285Y-63804523D02*
X150134285Y-63423571D01*
X150467619Y-63661666D02*
X149610476Y-63661666D01*
X149515238Y-63614047D01*
X149467619Y-63518809D01*
X149467619Y-63423571D01*
X150420000Y-61804523D02*
X150467619Y-61899761D01*
X150467619Y-62042619D01*
X150420000Y-62185476D01*
X150324761Y-62280714D01*
X150229523Y-62328333D01*
X150039047Y-62375952D01*
X149896190Y-62375952D01*
X149705714Y-62328333D01*
X149610476Y-62280714D01*
X149515238Y-62185476D01*
X149467619Y-62042619D01*
X149467619Y-61947380D01*
X149515238Y-61804523D01*
X149562857Y-61756904D01*
X149896190Y-61756904D01*
X149896190Y-61947380D01*
X149467619Y-61328333D02*
X150134285Y-61328333D01*
X150467619Y-61328333D02*
X150420000Y-61375952D01*
X150372380Y-61328333D01*
X150420000Y-61280714D01*
X150467619Y-61328333D01*
X150372380Y-61328333D01*
X149467619Y-60852142D02*
X150134285Y-60852142D01*
X150039047Y-60852142D02*
X150086666Y-60804523D01*
X150134285Y-60709285D01*
X150134285Y-60566428D01*
X150086666Y-60471190D01*
X149991428Y-60423571D01*
X149467619Y-60423571D01*
X149991428Y-60423571D02*
X150086666Y-60375952D01*
X150134285Y-60280714D01*
X150134285Y-60137857D01*
X150086666Y-60042619D01*
X149991428Y-59995000D01*
X149467619Y-59995000D01*
X150134285Y-59518809D02*
X149134285Y-59518809D01*
X150086666Y-59518809D02*
X150134285Y-59423571D01*
X150134285Y-59233095D01*
X150086666Y-59137857D01*
X150039047Y-59090238D01*
X149943809Y-59042619D01*
X149658095Y-59042619D01*
X149562857Y-59090238D01*
X149515238Y-59137857D01*
X149467619Y-59233095D01*
X149467619Y-59423571D01*
X149515238Y-59518809D01*
X148381428Y-65495000D02*
X148333809Y-65352142D01*
X148286190Y-65304523D01*
X148190952Y-65256904D01*
X148048095Y-65256904D01*
X147952857Y-65304523D01*
X147905238Y-65352142D01*
X147857619Y-65447380D01*
X147857619Y-65828333D01*
X148857619Y-65828333D01*
X148857619Y-65495000D01*
X148810000Y-65399761D01*
X148762380Y-65352142D01*
X148667142Y-65304523D01*
X148571904Y-65304523D01*
X148476666Y-65352142D01*
X148429047Y-65399761D01*
X148381428Y-65495000D01*
X148381428Y-65828333D01*
X147857619Y-64399761D02*
X148381428Y-64399761D01*
X148476666Y-64447380D01*
X148524285Y-64542619D01*
X148524285Y-64733095D01*
X148476666Y-64828333D01*
X147905238Y-64399761D02*
X147857619Y-64495000D01*
X147857619Y-64733095D01*
X147905238Y-64828333D01*
X148000476Y-64875952D01*
X148095714Y-64875952D01*
X148190952Y-64828333D01*
X148238571Y-64733095D01*
X148238571Y-64495000D01*
X148286190Y-64399761D01*
X147857619Y-63780714D02*
X147905238Y-63875952D01*
X148000476Y-63923571D01*
X148857619Y-63923571D01*
X147857619Y-63256904D02*
X147905238Y-63352142D01*
X148000476Y-63399761D01*
X148857619Y-63399761D01*
X147857619Y-62875952D02*
X148524285Y-62875952D01*
X148857619Y-62875952D02*
X148810000Y-62923571D01*
X148762380Y-62875952D01*
X148810000Y-62828333D01*
X148857619Y-62875952D01*
X148762380Y-62875952D01*
X147905238Y-62447380D02*
X147857619Y-62352142D01*
X147857619Y-62161666D01*
X147905238Y-62066428D01*
X148000476Y-62018809D01*
X148048095Y-62018809D01*
X148143333Y-62066428D01*
X148190952Y-62161666D01*
X148190952Y-62304523D01*
X148238571Y-62399761D01*
X148333809Y-62447380D01*
X148381428Y-62447380D01*
X148476666Y-62399761D01*
X148524285Y-62304523D01*
X148524285Y-62161666D01*
X148476666Y-62066428D01*
X148524285Y-61733095D02*
X148524285Y-61352142D01*
X148857619Y-61590238D02*
X148000476Y-61590238D01*
X147905238Y-61542619D01*
X147857619Y-61447380D01*
X147857619Y-61352142D01*
X147857619Y-61018809D02*
X148524285Y-61018809D01*
X148857619Y-61018809D02*
X148810000Y-61066428D01*
X148762380Y-61018809D01*
X148810000Y-60971190D01*
X148857619Y-61018809D01*
X148762380Y-61018809D01*
X147905238Y-60114047D02*
X147857619Y-60209285D01*
X147857619Y-60399761D01*
X147905238Y-60495000D01*
X147952857Y-60542619D01*
X148048095Y-60590238D01*
X148333809Y-60590238D01*
X148429047Y-60542619D01*
X148476666Y-60495000D01*
X148524285Y-60399761D01*
X148524285Y-60209285D01*
X148476666Y-60114047D01*
X146342857Y-66923571D02*
X146295238Y-66971190D01*
X146247619Y-67114047D01*
X146247619Y-67209285D01*
X146295238Y-67352142D01*
X146390476Y-67447380D01*
X146485714Y-67495000D01*
X146676190Y-67542619D01*
X146819047Y-67542619D01*
X147009523Y-67495000D01*
X147104761Y-67447380D01*
X147200000Y-67352142D01*
X147247619Y-67209285D01*
X147247619Y-67114047D01*
X147200000Y-66971190D01*
X147152380Y-66923571D01*
X146247619Y-66495000D02*
X147247619Y-66495000D01*
X146247619Y-66066428D02*
X146771428Y-66066428D01*
X146866666Y-66114047D01*
X146914285Y-66209285D01*
X146914285Y-66352142D01*
X146866666Y-66447380D01*
X146819047Y-66495000D01*
X146247619Y-65590238D02*
X146914285Y-65590238D01*
X146723809Y-65590238D02*
X146819047Y-65542619D01*
X146866666Y-65495000D01*
X146914285Y-65399761D01*
X146914285Y-65304523D01*
X146247619Y-64828333D02*
X146295238Y-64923571D01*
X146342857Y-64971190D01*
X146438095Y-65018809D01*
X146723809Y-65018809D01*
X146819047Y-64971190D01*
X146866666Y-64923571D01*
X146914285Y-64828333D01*
X146914285Y-64685476D01*
X146866666Y-64590238D01*
X146819047Y-64542619D01*
X146723809Y-64495000D01*
X146438095Y-64495000D01*
X146342857Y-64542619D01*
X146295238Y-64590238D01*
X146247619Y-64685476D01*
X146247619Y-64828333D01*
X146914285Y-64066428D02*
X146247619Y-64066428D01*
X146819047Y-64066428D02*
X146866666Y-64018809D01*
X146914285Y-63923571D01*
X146914285Y-63780714D01*
X146866666Y-63685476D01*
X146771428Y-63637857D01*
X146247619Y-63637857D01*
X146247619Y-63018809D02*
X146295238Y-63114047D01*
X146342857Y-63161666D01*
X146438095Y-63209285D01*
X146723809Y-63209285D01*
X146819047Y-63161666D01*
X146866666Y-63114047D01*
X146914285Y-63018809D01*
X146914285Y-62875952D01*
X146866666Y-62780714D01*
X146819047Y-62733095D01*
X146723809Y-62685476D01*
X146438095Y-62685476D01*
X146342857Y-62733095D01*
X146295238Y-62780714D01*
X146247619Y-62875952D01*
X146247619Y-63018809D01*
X146914285Y-61828333D02*
X146104761Y-61828333D01*
X146009523Y-61875952D01*
X145961904Y-61923571D01*
X145914285Y-62018809D01*
X145914285Y-62161666D01*
X145961904Y-62256904D01*
X146295238Y-61828333D02*
X146247619Y-61923571D01*
X146247619Y-62114047D01*
X146295238Y-62209285D01*
X146342857Y-62256904D01*
X146438095Y-62304523D01*
X146723809Y-62304523D01*
X146819047Y-62256904D01*
X146866666Y-62209285D01*
X146914285Y-62114047D01*
X146914285Y-61923571D01*
X146866666Y-61828333D01*
X146247619Y-61352142D02*
X146914285Y-61352142D01*
X146723809Y-61352142D02*
X146819047Y-61304523D01*
X146866666Y-61256904D01*
X146914285Y-61161666D01*
X146914285Y-61066428D01*
X146247619Y-60304523D02*
X146771428Y-60304523D01*
X146866666Y-60352142D01*
X146914285Y-60447380D01*
X146914285Y-60637857D01*
X146866666Y-60733095D01*
X146295238Y-60304523D02*
X146247619Y-60399761D01*
X146247619Y-60637857D01*
X146295238Y-60733095D01*
X146390476Y-60780714D01*
X146485714Y-60780714D01*
X146580952Y-60733095D01*
X146628571Y-60637857D01*
X146628571Y-60399761D01*
X146676190Y-60304523D01*
X146914285Y-59828333D02*
X145914285Y-59828333D01*
X146866666Y-59828333D02*
X146914285Y-59733095D01*
X146914285Y-59542619D01*
X146866666Y-59447380D01*
X146819047Y-59399761D01*
X146723809Y-59352142D01*
X146438095Y-59352142D01*
X146342857Y-59399761D01*
X146295238Y-59447380D01*
X146247619Y-59542619D01*
X146247619Y-59733095D01*
X146295238Y-59828333D01*
X146247619Y-58923571D02*
X147247619Y-58923571D01*
X146247619Y-58495000D02*
X146771428Y-58495000D01*
X146866666Y-58542619D01*
X146914285Y-58637857D01*
X146914285Y-58780714D01*
X146866666Y-58875952D01*
X146819047Y-58923571D01*
X145161428Y-67709285D02*
X145161428Y-67375952D01*
X144637619Y-67233095D02*
X144637619Y-67709285D01*
X145637619Y-67709285D01*
X145637619Y-67233095D01*
X144637619Y-66804523D02*
X145304285Y-66804523D01*
X145209047Y-66804523D02*
X145256666Y-66756904D01*
X145304285Y-66661666D01*
X145304285Y-66518809D01*
X145256666Y-66423571D01*
X145161428Y-66375952D01*
X144637619Y-66375952D01*
X145161428Y-66375952D02*
X145256666Y-66328333D01*
X145304285Y-66233095D01*
X145304285Y-66090238D01*
X145256666Y-65995000D01*
X145161428Y-65947380D01*
X144637619Y-65947380D01*
X144637619Y-65471190D02*
X145304285Y-65471190D01*
X145637619Y-65471190D02*
X145590000Y-65518809D01*
X145542380Y-65471190D01*
X145590000Y-65423571D01*
X145637619Y-65471190D01*
X145542380Y-65471190D01*
X145304285Y-65137857D02*
X145304285Y-64756904D01*
X145637619Y-64995000D02*
X144780476Y-64995000D01*
X144685238Y-64947380D01*
X144637619Y-64852142D01*
X144637619Y-64756904D01*
X145304285Y-64566428D02*
X145304285Y-64185476D01*
X145637619Y-64423571D02*
X144780476Y-64423571D01*
X144685238Y-64375952D01*
X144637619Y-64280714D01*
X144637619Y-64185476D01*
X144685238Y-63471190D02*
X144637619Y-63566428D01*
X144637619Y-63756904D01*
X144685238Y-63852142D01*
X144780476Y-63899761D01*
X145161428Y-63899761D01*
X145256666Y-63852142D01*
X145304285Y-63756904D01*
X145304285Y-63566428D01*
X145256666Y-63471190D01*
X145161428Y-63423571D01*
X145066190Y-63423571D01*
X144970952Y-63899761D01*
X144637619Y-62995000D02*
X145304285Y-62995000D01*
X145113809Y-62995000D02*
X145209047Y-62947380D01*
X145256666Y-62899761D01*
X145304285Y-62804523D01*
X145304285Y-62709285D01*
X144637619Y-61090238D02*
X144637619Y-61661666D01*
X144637619Y-61375952D02*
X145637619Y-61375952D01*
X145494761Y-61471190D01*
X145399523Y-61566428D01*
X145351904Y-61661666D01*
X144732857Y-60661666D02*
X144685238Y-60614047D01*
X144637619Y-60661666D01*
X144685238Y-60709285D01*
X144732857Y-60661666D01*
X144637619Y-60661666D01*
X144637619Y-59661666D02*
X144637619Y-60233095D01*
X144637619Y-59947380D02*
X145637619Y-59947380D01*
X145494761Y-60042619D01*
X145399523Y-60137857D01*
X145351904Y-60233095D01*
X144732857Y-59233095D02*
X144685238Y-59185476D01*
X144637619Y-59233095D01*
X144685238Y-59280714D01*
X144732857Y-59233095D01*
X144637619Y-59233095D01*
X144637619Y-58233095D02*
X144637619Y-58804523D01*
X144637619Y-58518809D02*
X145637619Y-58518809D01*
X145494761Y-58614047D01*
X145399523Y-58709285D01*
X145351904Y-58804523D01*
X144362142Y-80566428D02*
X144409761Y-80518809D01*
X144457380Y-80375952D01*
X144457380Y-80280714D01*
X144409761Y-80137857D01*
X144314523Y-80042619D01*
X144219285Y-79995000D01*
X144028809Y-79947380D01*
X143885952Y-79947380D01*
X143695476Y-79995000D01*
X143600238Y-80042619D01*
X143505000Y-80137857D01*
X143457380Y-80280714D01*
X143457380Y-80375952D01*
X143505000Y-80518809D01*
X143552619Y-80566428D01*
X143790714Y-81423571D02*
X144457380Y-81423571D01*
X143790714Y-80995000D02*
X144314523Y-80995000D01*
X144409761Y-81042619D01*
X144457380Y-81137857D01*
X144457380Y-81280714D01*
X144409761Y-81375952D01*
X144362142Y-81423571D01*
X144457380Y-81899761D02*
X143790714Y-81899761D01*
X143981190Y-81899761D02*
X143885952Y-81947380D01*
X143838333Y-81995000D01*
X143790714Y-82090238D01*
X143790714Y-82185476D01*
X144457380Y-82518809D02*
X143790714Y-82518809D01*
X143981190Y-82518809D02*
X143885952Y-82566428D01*
X143838333Y-82614047D01*
X143790714Y-82709285D01*
X143790714Y-82804523D01*
X144409761Y-83518809D02*
X144457380Y-83423571D01*
X144457380Y-83233095D01*
X144409761Y-83137857D01*
X144314523Y-83090238D01*
X143933571Y-83090238D01*
X143838333Y-83137857D01*
X143790714Y-83233095D01*
X143790714Y-83423571D01*
X143838333Y-83518809D01*
X143933571Y-83566428D01*
X144028809Y-83566428D01*
X144124047Y-83090238D01*
X143790714Y-83995000D02*
X144457380Y-83995000D01*
X143885952Y-83995000D02*
X143838333Y-84042619D01*
X143790714Y-84137857D01*
X143790714Y-84280714D01*
X143838333Y-84375952D01*
X143933571Y-84423571D01*
X144457380Y-84423571D01*
X143790714Y-84756904D02*
X143790714Y-85137857D01*
X143457380Y-84899761D02*
X144314523Y-84899761D01*
X144409761Y-84947380D01*
X144457380Y-85042619D01*
X144457380Y-85137857D01*
X144171666Y-86185476D02*
X144171666Y-86661666D01*
X144457380Y-86090238D02*
X143457380Y-86423571D01*
X144457380Y-86756904D01*
X144457380Y-87518809D02*
X143457380Y-87518809D01*
X144409761Y-87518809D02*
X144457380Y-87423571D01*
X144457380Y-87233095D01*
X144409761Y-87137857D01*
X144362142Y-87090238D01*
X144266904Y-87042619D01*
X143981190Y-87042619D01*
X143885952Y-87090238D01*
X143838333Y-87137857D01*
X143790714Y-87233095D01*
X143790714Y-87423571D01*
X143838333Y-87518809D01*
X143790714Y-87995000D02*
X144647857Y-87995000D01*
X144743095Y-87947380D01*
X144790714Y-87852142D01*
X144790714Y-87804523D01*
X143457380Y-87995000D02*
X143505000Y-87947380D01*
X143552619Y-87995000D01*
X143505000Y-88042619D01*
X143457380Y-87995000D01*
X143552619Y-87995000D01*
X146266904Y-137995000D02*
X146362142Y-137947380D01*
X146505000Y-137947380D01*
X146647857Y-137995000D01*
X146743095Y-138090238D01*
X146790714Y-138185476D01*
X146838333Y-138375952D01*
X146838333Y-138518809D01*
X146790714Y-138709285D01*
X146743095Y-138804523D01*
X146647857Y-138899761D01*
X146505000Y-138947380D01*
X146409761Y-138947380D01*
X146266904Y-138899761D01*
X146219285Y-138852142D01*
X146219285Y-138518809D01*
X146409761Y-138518809D01*
X145790714Y-138947380D02*
X145790714Y-137947380D01*
X145219285Y-138947380D01*
X145219285Y-137947380D01*
X144743095Y-138947380D02*
X144743095Y-137947380D01*
X144505000Y-137947380D01*
X144362142Y-137995000D01*
X144266904Y-138090238D01*
X144219285Y-138185476D01*
X144171666Y-138375952D01*
X144171666Y-138518809D01*
X144219285Y-138709285D01*
X144266904Y-138804523D01*
X144362142Y-138899761D01*
X144505000Y-138947380D01*
X144743095Y-138947380D01*
X150124047Y-138947380D02*
X150695476Y-138947380D01*
X150409761Y-138947380D02*
X150409761Y-137947380D01*
X150505000Y-138090238D01*
X150600238Y-138185476D01*
X150695476Y-138233095D01*
X149219285Y-137947380D02*
X149695476Y-137947380D01*
X149743095Y-138423571D01*
X149695476Y-138375952D01*
X149600238Y-138328333D01*
X149362142Y-138328333D01*
X149266904Y-138375952D01*
X149219285Y-138423571D01*
X149171666Y-138518809D01*
X149171666Y-138756904D01*
X149219285Y-138852142D01*
X149266904Y-138899761D01*
X149362142Y-138947380D01*
X149600238Y-138947380D01*
X149695476Y-138899761D01*
X149743095Y-138852142D01*
X148885952Y-137947380D02*
X148552619Y-138947380D01*
X148219285Y-137947380D01*
%TO.C,C2*%
X147671666Y-121852142D02*
X147719285Y-121899761D01*
X147862142Y-121947380D01*
X147957380Y-121947380D01*
X148100238Y-121899761D01*
X148195476Y-121804523D01*
X148243095Y-121709285D01*
X148290714Y-121518809D01*
X148290714Y-121375952D01*
X148243095Y-121185476D01*
X148195476Y-121090238D01*
X148100238Y-120995000D01*
X147957380Y-120947380D01*
X147862142Y-120947380D01*
X147719285Y-120995000D01*
X147671666Y-121042619D01*
X147290714Y-121042619D02*
X147243095Y-120995000D01*
X147147857Y-120947380D01*
X146909761Y-120947380D01*
X146814523Y-120995000D01*
X146766904Y-121042619D01*
X146719285Y-121137857D01*
X146719285Y-121233095D01*
X146766904Y-121375952D01*
X147338333Y-121947380D01*
X146719285Y-121947380D01*
%TO.C,R2*%
X151457380Y-83818333D02*
X150981190Y-83485000D01*
X151457380Y-83246904D02*
X150457380Y-83246904D01*
X150457380Y-83627857D01*
X150505000Y-83723095D01*
X150552619Y-83770714D01*
X150647857Y-83818333D01*
X150790714Y-83818333D01*
X150885952Y-83770714D01*
X150933571Y-83723095D01*
X150981190Y-83627857D01*
X150981190Y-83246904D01*
X150552619Y-84199285D02*
X150505000Y-84246904D01*
X150457380Y-84342142D01*
X150457380Y-84580238D01*
X150505000Y-84675476D01*
X150552619Y-84723095D01*
X150647857Y-84770714D01*
X150743095Y-84770714D01*
X150885952Y-84723095D01*
X151457380Y-84151666D01*
X151457380Y-84770714D01*
%TO.C,R1*%
X150327380Y-101828333D02*
X149851190Y-101495000D01*
X150327380Y-101256904D02*
X149327380Y-101256904D01*
X149327380Y-101637857D01*
X149375000Y-101733095D01*
X149422619Y-101780714D01*
X149517857Y-101828333D01*
X149660714Y-101828333D01*
X149755952Y-101780714D01*
X149803571Y-101733095D01*
X149851190Y-101637857D01*
X149851190Y-101256904D01*
X150327380Y-102780714D02*
X150327380Y-102209285D01*
X150327380Y-102495000D02*
X149327380Y-102495000D01*
X149470238Y-102399761D01*
X149565476Y-102304523D01*
X149613095Y-102209285D01*
%TO.C,C1*%
X147739287Y-116752142D02*
X147786906Y-116799761D01*
X147929763Y-116847380D01*
X148025001Y-116847380D01*
X148167859Y-116799761D01*
X148263097Y-116704523D01*
X148310716Y-116609285D01*
X148358335Y-116418809D01*
X148358335Y-116275952D01*
X148310716Y-116085476D01*
X148263097Y-115990238D01*
X148167859Y-115895000D01*
X148025001Y-115847380D01*
X147929763Y-115847380D01*
X147786906Y-115895000D01*
X147739287Y-115942619D01*
X146786906Y-116847380D02*
X147358335Y-116847380D01*
X147072621Y-116847380D02*
X147072621Y-115847380D01*
X147167859Y-115990238D01*
X147263097Y-116085476D01*
X147358335Y-116133095D01*
%TO.C,Q2*%
X147600238Y-72542619D02*
X147695476Y-72495000D01*
X147790714Y-72399761D01*
X147933571Y-72256904D01*
X148028809Y-72209285D01*
X148124047Y-72209285D01*
X148076428Y-72447380D02*
X148171666Y-72399761D01*
X148266904Y-72304523D01*
X148314523Y-72114047D01*
X148314523Y-71780714D01*
X148266904Y-71590238D01*
X148171666Y-71495000D01*
X148076428Y-71447380D01*
X147885952Y-71447380D01*
X147790714Y-71495000D01*
X147695476Y-71590238D01*
X147647857Y-71780714D01*
X147647857Y-72114047D01*
X147695476Y-72304523D01*
X147790714Y-72399761D01*
X147885952Y-72447380D01*
X148076428Y-72447380D01*
X147266904Y-71542619D02*
X147219285Y-71495000D01*
X147124047Y-71447380D01*
X146885952Y-71447380D01*
X146790714Y-71495000D01*
X146743095Y-71542619D01*
X146695476Y-71637857D01*
X146695476Y-71733095D01*
X146743095Y-71875952D01*
X147314523Y-72447380D01*
X146695476Y-72447380D01*
%TO.C,Q1*%
X144552619Y-92899761D02*
X144505000Y-92804523D01*
X144409761Y-92709285D01*
X144266904Y-92566428D01*
X144219285Y-92471190D01*
X144219285Y-92375952D01*
X144457380Y-92423571D02*
X144409761Y-92328333D01*
X144314523Y-92233095D01*
X144124047Y-92185476D01*
X143790714Y-92185476D01*
X143600238Y-92233095D01*
X143505000Y-92328333D01*
X143457380Y-92423571D01*
X143457380Y-92614047D01*
X143505000Y-92709285D01*
X143600238Y-92804523D01*
X143790714Y-92852142D01*
X144124047Y-92852142D01*
X144314523Y-92804523D01*
X144409761Y-92709285D01*
X144457380Y-92614047D01*
X144457380Y-92423571D01*
X144457380Y-93804523D02*
X144457380Y-93233095D01*
X144457380Y-93518809D02*
X143457380Y-93518809D01*
X143600238Y-93423571D01*
X143695476Y-93328333D01*
X143743095Y-93233095D01*
D11*
%TO.C,C2*%
X149975000Y-120365000D02*
X145035000Y-120365000D01*
X149975000Y-120050000D02*
X149975000Y-120365000D01*
X149975000Y-117625000D02*
X145035000Y-117625000D01*
X145035000Y-120050000D02*
X145035000Y-120365000D01*
X149975000Y-117625000D02*
X149975000Y-117940000D01*
X145035000Y-117625000D02*
X145035000Y-117940000D01*
%TO.C,J1*%
X150395000Y-130125000D02*
X150395000Y-136865000D01*
X150395000Y-136345000D02*
X144615000Y-136345000D01*
X144615000Y-130125000D02*
X144615000Y-136865000D01*
X150395000Y-131245000D02*
X144615000Y-131245000D01*
X150635000Y-137105000D02*
X150235000Y-137105000D01*
X150395000Y-136865000D02*
X144615000Y-136865000D01*
X150635000Y-136465000D02*
X150635000Y-137105000D01*
X150395000Y-130125000D02*
X144615000Y-130125000D01*
%TO.C,R2*%
X150035000Y-88870000D02*
X144965000Y-88870000D01*
X144965000Y-88870000D02*
X144965000Y-79100000D01*
X150035000Y-88870000D02*
X150035000Y-79100000D01*
X150035000Y-79100000D02*
X144965000Y-79100000D01*
%TO.C,R1*%
X146135000Y-98725000D02*
X146465000Y-98725000D01*
X148545000Y-105265000D02*
X148875000Y-105265000D01*
X146135000Y-105265000D02*
X146135000Y-98725000D01*
X148875000Y-105265000D02*
X148875000Y-98725000D01*
X146465000Y-105265000D02*
X146135000Y-105265000D01*
X148875000Y-98725000D02*
X148545000Y-98725000D01*
%TO.C,C1*%
X148773621Y-114997000D02*
X148773621Y-113035000D01*
X149293621Y-110955000D02*
X149293621Y-109253000D01*
X149493621Y-114602000D02*
X149493621Y-113035000D01*
X149493621Y-110955000D02*
X149493621Y-109388000D01*
X149453621Y-114631000D02*
X149453621Y-113035000D01*
X148373621Y-110955000D02*
X148373621Y-108864000D01*
X149533621Y-114573000D02*
X149533621Y-113035000D01*
X150493621Y-113427000D02*
X150493621Y-110563000D01*
X149613621Y-114511000D02*
X149613621Y-113035000D01*
X148813621Y-110955000D02*
X148813621Y-109009000D01*
X149053621Y-110955000D02*
X149053621Y-109119000D01*
X149613621Y-110955000D02*
X149613621Y-109479000D01*
X150453621Y-113504000D02*
X150453621Y-110486000D01*
X147692621Y-115223000D02*
X147692621Y-108767000D01*
X150413621Y-113576000D02*
X150413621Y-110414000D01*
X149773621Y-110955000D02*
X149773621Y-109615000D01*
X149133621Y-114829000D02*
X149133621Y-113035000D01*
X149773621Y-114375000D02*
X149773621Y-113035000D01*
X149653621Y-110955000D02*
X149653621Y-109511000D01*
X150093621Y-114039000D02*
X150093621Y-109951000D01*
X148132621Y-115177000D02*
X148132621Y-113035000D01*
X148893621Y-110955000D02*
X148893621Y-109043000D01*
X148973621Y-114911000D02*
X148973621Y-113035000D01*
X149293621Y-114737000D02*
X149293621Y-113035000D01*
X149813621Y-110955000D02*
X149813621Y-109652000D01*
X149013621Y-114891000D02*
X149013621Y-113035000D01*
X149693621Y-110955000D02*
X149693621Y-109545000D01*
X148493621Y-115093000D02*
X148493621Y-113035000D01*
X150813621Y-112397000D02*
X150813621Y-111593000D01*
X148052621Y-110955000D02*
X148052621Y-108800000D01*
X148893621Y-114947000D02*
X148893621Y-113035000D01*
X148853621Y-114965000D02*
X148853621Y-113035000D01*
X149733621Y-110955000D02*
X149733621Y-109579000D01*
X149653621Y-114479000D02*
X149653621Y-113035000D01*
X149813621Y-114338000D02*
X149813621Y-113035000D01*
X149213621Y-110955000D02*
X149213621Y-109205000D01*
X148333621Y-115136000D02*
X148333621Y-113035000D01*
X148413621Y-110955000D02*
X148413621Y-108874000D01*
X149573621Y-110955000D02*
X149573621Y-109447000D01*
X149533621Y-110955000D02*
X149533621Y-109417000D01*
X147972621Y-115201000D02*
X147972621Y-113035000D01*
X150653621Y-113054000D02*
X150653621Y-110936000D01*
X149333621Y-110955000D02*
X149333621Y-109279000D01*
X148933621Y-114929000D02*
X148933621Y-113035000D01*
X149893621Y-114260000D02*
X149893621Y-109730000D01*
X147972621Y-110955000D02*
X147972621Y-108789000D01*
X148453621Y-115105000D02*
X148453621Y-113035000D01*
X148172621Y-115170000D02*
X148172621Y-113035000D01*
X148252621Y-115154000D02*
X148252621Y-113035000D01*
X149013621Y-110955000D02*
X149013621Y-109099000D01*
X147932621Y-110955000D02*
X147932621Y-108784000D01*
X149693621Y-114445000D02*
X149693621Y-113035000D01*
X150533621Y-113345000D02*
X150533621Y-110645000D01*
X148293621Y-115145000D02*
X148293621Y-113035000D01*
X150733621Y-112797000D02*
X150733621Y-111193000D01*
X150133621Y-113990000D02*
X150133621Y-110000000D01*
X149733621Y-114411000D02*
X149733621Y-113035000D01*
X148573621Y-115069000D02*
X148573621Y-113035000D01*
X148132621Y-110955000D02*
X148132621Y-108813000D01*
X149453621Y-110955000D02*
X149453621Y-109359000D01*
X148693621Y-110955000D02*
X148693621Y-108962000D01*
X149253621Y-110955000D02*
X149253621Y-109229000D01*
X149853621Y-114300000D02*
X149853621Y-113035000D01*
X148212621Y-115162000D02*
X148212621Y-113035000D01*
X148613621Y-110955000D02*
X148613621Y-108934000D01*
X149093621Y-110955000D02*
X149093621Y-109139000D01*
X150613621Y-113160000D02*
X150613621Y-110830000D01*
X149413621Y-110955000D02*
X149413621Y-109331000D01*
X150053621Y-114087000D02*
X150053621Y-109903000D01*
X149973621Y-114177000D02*
X149973621Y-109813000D01*
X148933621Y-110955000D02*
X148933621Y-109061000D01*
X147772621Y-115219000D02*
X147772621Y-108771000D01*
X148813621Y-114981000D02*
X148813621Y-113035000D01*
X148333621Y-110955000D02*
X148333621Y-108854000D01*
X150293621Y-113771000D02*
X150293621Y-110219000D01*
X150373621Y-113645000D02*
X150373621Y-110345000D01*
X147892621Y-110955000D02*
X147892621Y-108780000D01*
X149093621Y-114851000D02*
X149093621Y-113035000D01*
X149373621Y-114685000D02*
X149373621Y-113035000D01*
X150573621Y-113257000D02*
X150573621Y-110733000D01*
X148973621Y-110955000D02*
X148973621Y-109079000D01*
X148653621Y-115042000D02*
X148653621Y-113035000D01*
X149253621Y-114761000D02*
X149253621Y-113035000D01*
X148212621Y-110955000D02*
X148212621Y-108828000D01*
X148092621Y-110955000D02*
X148092621Y-108806000D01*
X149173621Y-110955000D02*
X149173621Y-109183000D01*
X150333621Y-113709000D02*
X150333621Y-110281000D01*
X148293621Y-110955000D02*
X148293621Y-108845000D01*
X148453621Y-110955000D02*
X148453621Y-108885000D01*
X148613621Y-115056000D02*
X148613621Y-113035000D01*
X147892621Y-115210000D02*
X147892621Y-113035000D01*
X148172621Y-110955000D02*
X148172621Y-108820000D01*
X150253621Y-113829000D02*
X150253621Y-110161000D01*
X148493621Y-110955000D02*
X148493621Y-108897000D01*
X150213621Y-113885000D02*
X150213621Y-110105000D01*
X148413621Y-115116000D02*
X148413621Y-113035000D01*
X148052621Y-115190000D02*
X148052621Y-113035000D01*
X149933621Y-114219000D02*
X149933621Y-109771000D01*
X149173621Y-114807000D02*
X149173621Y-113035000D01*
X148653621Y-110955000D02*
X148653621Y-108948000D01*
X147812621Y-115217000D02*
X147812621Y-113035000D01*
X147572621Y-115225000D02*
X147572621Y-108765000D01*
X149133621Y-110955000D02*
X149133621Y-109161000D01*
X147932621Y-115206000D02*
X147932621Y-113035000D01*
X150013621Y-114132000D02*
X150013621Y-109858000D01*
X147732621Y-115222000D02*
X147732621Y-108768000D01*
X149213621Y-114785000D02*
X149213621Y-113035000D01*
X147652621Y-115225000D02*
X147652621Y-108765000D01*
X147852621Y-110955000D02*
X147852621Y-108777000D01*
X148533621Y-110955000D02*
X148533621Y-108909000D01*
X149853621Y-110955000D02*
X149853621Y-109690000D01*
X149413621Y-114659000D02*
X149413621Y-113035000D01*
X147812621Y-110955000D02*
X147812621Y-108773000D01*
X148853621Y-110955000D02*
X148853621Y-109025000D01*
X148533621Y-115081000D02*
X148533621Y-113035000D01*
X147612621Y-115225000D02*
X147612621Y-108765000D01*
X149053621Y-114871000D02*
X149053621Y-113035000D01*
X149333621Y-114711000D02*
X149333621Y-113035000D01*
X148573621Y-110955000D02*
X148573621Y-108921000D01*
X150693621Y-112935000D02*
X150693621Y-111055000D01*
X149573621Y-114543000D02*
X149573621Y-113035000D01*
X150773621Y-112628000D02*
X150773621Y-111362000D01*
X148092621Y-115184000D02*
X148092621Y-113035000D01*
X148012621Y-115196000D02*
X148012621Y-113035000D01*
X148773621Y-110955000D02*
X148773621Y-108993000D01*
X148373621Y-115126000D02*
X148373621Y-113035000D01*
X148012621Y-110955000D02*
X148012621Y-108794000D01*
X149373621Y-110955000D02*
X149373621Y-109305000D01*
X150173621Y-113939000D02*
X150173621Y-110051000D01*
X147852621Y-115213000D02*
X147852621Y-113035000D01*
X144387380Y-114149000D02*
X144387380Y-113519000D01*
X144072380Y-113834000D02*
X144702380Y-113834000D01*
X148693621Y-115028000D02*
X148693621Y-113035000D01*
X148733621Y-110955000D02*
X148733621Y-108977000D01*
X148252621Y-110955000D02*
X148252621Y-108836000D01*
X148733621Y-115013000D02*
X148733621Y-113035000D01*
X150842621Y-111995000D02*
G75*
G03*
X150842621Y-111995000I-3270000J0D01*
G01*
%TO.C,Q2*%
X145705000Y-72772500D02*
X149305000Y-72772500D01*
X147505000Y-77222501D02*
G75*
G03*
X149343478Y-72784022I0J2600001D01*
G01*
X145666522Y-72784022D02*
G75*
G03*
X147505000Y-77222500I1838478J-1838478D01*
G01*
%TO.C,Q1*%
X145705000Y-90772500D02*
X149305000Y-90772500D01*
X145666522Y-90784022D02*
G75*
G03*
X147505000Y-95222500I1838478J-1838478D01*
G01*
X147505000Y-95222501D02*
G75*
G03*
X149343478Y-90784022I0J2600001D01*
G01*
%TD*%
M02*
