%FSLAX45Y45*%
G04 Gerber Fmt 4.5, Leading zero omitted, Abs format (unit mm)*
G04 Created by KiCad (PCBNEW (6.0.0-rc1-415-g653c7b78d7)) date 2021-12-14 13:22:23*
%MOMM*%
%LPD*%
G01*
G04 APERTURE LIST*
%TA.AperFunction,Profile*%
%ADD10C,0.100000*%
%TD*%
%ADD11C,0.200000*%
%ADD12C,0.220000*%
G04 APERTURE END LIST*
D10*
X11072500Y-4726000D02*
X14072500Y-4726000D01*
X14072500Y-4726000D02*
X14072500Y-14836000D01*
X14072500Y-14836000D02*
X11072500Y-14836000D01*
X11072500Y-14836000D02*
X11072500Y-4726000D01*
D11*
D12*
X13162500Y-5346000D02*
X13382500Y-5566000D01*
X13382500Y-5346000D02*
X13162500Y-5566000D01*
X13162500Y-9596000D02*
X13382500Y-9816000D01*
X13382500Y-9596000D02*
X13162500Y-9816000D01*
D11*
X11325119Y-15151476D02*
X11325119Y-14951476D01*
X11372738Y-14951476D01*
X11401309Y-14961000D01*
X11420357Y-14980048D01*
X11429881Y-14999095D01*
X11439405Y-15037190D01*
X11439405Y-15065762D01*
X11429881Y-15103857D01*
X11420357Y-15122905D01*
X11401309Y-15141952D01*
X11372738Y-15151476D01*
X11325119Y-15151476D01*
X11525119Y-15151476D02*
X11525119Y-15018143D01*
X11525119Y-15056238D02*
X11534643Y-15037190D01*
X11544167Y-15027667D01*
X11563214Y-15018143D01*
X11582262Y-15018143D01*
X11648928Y-15151476D02*
X11648928Y-15018143D01*
X11648928Y-14951476D02*
X11639405Y-14961000D01*
X11648928Y-14970524D01*
X11658452Y-14961000D01*
X11648928Y-14951476D01*
X11648928Y-14970524D01*
X11772738Y-15151476D02*
X11753690Y-15141952D01*
X11744167Y-15122905D01*
X11744167Y-14951476D01*
X11877500Y-15151476D02*
X11858452Y-15141952D01*
X11848928Y-15122905D01*
X11848928Y-14951476D01*
X12106071Y-15151476D02*
X12106071Y-14951476D01*
X12172738Y-15094333D01*
X12239405Y-14951476D01*
X12239405Y-15151476D01*
X12420357Y-15151476D02*
X12420357Y-15046714D01*
X12410833Y-15027667D01*
X12391786Y-15018143D01*
X12353690Y-15018143D01*
X12334643Y-15027667D01*
X12420357Y-15141952D02*
X12401309Y-15151476D01*
X12353690Y-15151476D01*
X12334643Y-15141952D01*
X12325119Y-15122905D01*
X12325119Y-15103857D01*
X12334643Y-15084809D01*
X12353690Y-15075286D01*
X12401309Y-15075286D01*
X12420357Y-15065762D01*
X12515595Y-15018143D02*
X12515595Y-15218143D01*
X12515595Y-15027667D02*
X12534643Y-15018143D01*
X12572738Y-15018143D01*
X12591786Y-15027667D01*
X12601309Y-15037190D01*
X12610833Y-15056238D01*
X12610833Y-15113381D01*
X12601309Y-15132428D01*
X12591786Y-15141952D01*
X12572738Y-15151476D01*
X12534643Y-15151476D01*
X12515595Y-15141952D01*
X12696548Y-15132428D02*
X12706071Y-15141952D01*
X12696548Y-15151476D01*
X12687024Y-15141952D01*
X12696548Y-15132428D01*
X12696548Y-15151476D01*
X12696548Y-15027667D02*
X12706071Y-15037190D01*
X12696548Y-15046714D01*
X12687024Y-15037190D01*
X12696548Y-15027667D01*
X12696548Y-15046714D01*
X10867500Y-15381000D02*
X11067500Y-15581000D01*
X11067500Y-15381000D02*
X10867500Y-15581000D01*
X11315595Y-15390524D02*
X11325119Y-15381000D01*
X11344167Y-15371476D01*
X11391786Y-15371476D01*
X11410833Y-15381000D01*
X11420357Y-15390524D01*
X11429881Y-15409571D01*
X11429881Y-15428619D01*
X11420357Y-15457190D01*
X11306071Y-15571476D01*
X11429881Y-15571476D01*
X11515595Y-15552428D02*
X11525119Y-15561952D01*
X11515595Y-15571476D01*
X11506071Y-15561952D01*
X11515595Y-15552428D01*
X11515595Y-15571476D01*
X11601309Y-15390524D02*
X11610833Y-15381000D01*
X11629881Y-15371476D01*
X11677500Y-15371476D01*
X11696548Y-15381000D01*
X11706071Y-15390524D01*
X11715595Y-15409571D01*
X11715595Y-15428619D01*
X11706071Y-15457190D01*
X11591786Y-15571476D01*
X11715595Y-15571476D01*
X11839405Y-15371476D02*
X11858452Y-15371476D01*
X11877500Y-15381000D01*
X11887024Y-15390524D01*
X11896548Y-15409571D01*
X11906071Y-15447667D01*
X11906071Y-15495286D01*
X11896548Y-15533381D01*
X11887024Y-15552428D01*
X11877500Y-15561952D01*
X11858452Y-15571476D01*
X11839405Y-15571476D01*
X11820357Y-15561952D01*
X11810833Y-15552428D01*
X11801309Y-15533381D01*
X11791786Y-15495286D01*
X11791786Y-15447667D01*
X11801309Y-15409571D01*
X11810833Y-15390524D01*
X11820357Y-15381000D01*
X11839405Y-15371476D01*
X12029881Y-15371476D02*
X12048928Y-15371476D01*
X12067976Y-15381000D01*
X12077500Y-15390524D01*
X12087024Y-15409571D01*
X12096548Y-15447667D01*
X12096548Y-15495286D01*
X12087024Y-15533381D01*
X12077500Y-15552428D01*
X12067976Y-15561952D01*
X12048928Y-15571476D01*
X12029881Y-15571476D01*
X12010833Y-15561952D01*
X12001309Y-15552428D01*
X11991786Y-15533381D01*
X11982262Y-15495286D01*
X11982262Y-15447667D01*
X11991786Y-15409571D01*
X12001309Y-15390524D01*
X12010833Y-15381000D01*
X12029881Y-15371476D01*
X12182262Y-15571476D02*
X12182262Y-15438143D01*
X12182262Y-15457190D02*
X12191786Y-15447667D01*
X12210833Y-15438143D01*
X12239405Y-15438143D01*
X12258452Y-15447667D01*
X12267976Y-15466714D01*
X12267976Y-15571476D01*
X12267976Y-15466714D02*
X12277500Y-15447667D01*
X12296548Y-15438143D01*
X12325119Y-15438143D01*
X12344167Y-15447667D01*
X12353690Y-15466714D01*
X12353690Y-15571476D01*
X12448928Y-15571476D02*
X12448928Y-15438143D01*
X12448928Y-15457190D02*
X12458452Y-15447667D01*
X12477500Y-15438143D01*
X12506071Y-15438143D01*
X12525119Y-15447667D01*
X12534643Y-15466714D01*
X12534643Y-15571476D01*
X12534643Y-15466714D02*
X12544167Y-15447667D01*
X12563214Y-15438143D01*
X12591786Y-15438143D01*
X12610833Y-15447667D01*
X12620357Y-15466714D01*
X12620357Y-15571476D01*
X13010833Y-15361952D02*
X12839405Y-15619095D01*
X13267976Y-15371476D02*
X13287024Y-15371476D01*
X13306071Y-15381000D01*
X13315595Y-15390524D01*
X13325119Y-15409571D01*
X13334643Y-15447667D01*
X13334643Y-15495286D01*
X13325119Y-15533381D01*
X13315595Y-15552428D01*
X13306071Y-15561952D01*
X13287024Y-15571476D01*
X13267976Y-15571476D01*
X13248928Y-15561952D01*
X13239405Y-15552428D01*
X13229881Y-15533381D01*
X13220357Y-15495286D01*
X13220357Y-15447667D01*
X13229881Y-15409571D01*
X13239405Y-15390524D01*
X13248928Y-15381000D01*
X13267976Y-15371476D01*
X13420357Y-15552428D02*
X13429881Y-15561952D01*
X13420357Y-15571476D01*
X13410833Y-15561952D01*
X13420357Y-15552428D01*
X13420357Y-15571476D01*
X13553690Y-15371476D02*
X13572738Y-15371476D01*
X13591786Y-15381000D01*
X13601309Y-15390524D01*
X13610833Y-15409571D01*
X13620357Y-15447667D01*
X13620357Y-15495286D01*
X13610833Y-15533381D01*
X13601309Y-15552428D01*
X13591786Y-15561952D01*
X13572738Y-15571476D01*
X13553690Y-15571476D01*
X13534643Y-15561952D01*
X13525119Y-15552428D01*
X13515595Y-15533381D01*
X13506071Y-15495286D01*
X13506071Y-15447667D01*
X13515595Y-15409571D01*
X13525119Y-15390524D01*
X13534643Y-15381000D01*
X13553690Y-15371476D01*
X13734643Y-15457190D02*
X13715595Y-15447667D01*
X13706071Y-15438143D01*
X13696548Y-15419095D01*
X13696548Y-15409571D01*
X13706071Y-15390524D01*
X13715595Y-15381000D01*
X13734643Y-15371476D01*
X13772738Y-15371476D01*
X13791786Y-15381000D01*
X13801309Y-15390524D01*
X13810833Y-15409571D01*
X13810833Y-15419095D01*
X13801309Y-15438143D01*
X13791786Y-15447667D01*
X13772738Y-15457190D01*
X13734643Y-15457190D01*
X13715595Y-15466714D01*
X13706071Y-15476238D01*
X13696548Y-15495286D01*
X13696548Y-15533381D01*
X13706071Y-15552428D01*
X13715595Y-15561952D01*
X13734643Y-15571476D01*
X13772738Y-15571476D01*
X13791786Y-15561952D01*
X13801309Y-15552428D01*
X13810833Y-15533381D01*
X13810833Y-15495286D01*
X13801309Y-15476238D01*
X13791786Y-15466714D01*
X13772738Y-15457190D01*
X13982262Y-15371476D02*
X13944167Y-15371476D01*
X13925119Y-15381000D01*
X13915595Y-15390524D01*
X13896548Y-15419095D01*
X13887024Y-15457190D01*
X13887024Y-15533381D01*
X13896548Y-15552428D01*
X13906071Y-15561952D01*
X13925119Y-15571476D01*
X13963214Y-15571476D01*
X13982262Y-15561952D01*
X13991786Y-15552428D01*
X14001309Y-15533381D01*
X14001309Y-15485762D01*
X13991786Y-15466714D01*
X13982262Y-15457190D01*
X13963214Y-15447667D01*
X13925119Y-15447667D01*
X13906071Y-15457190D01*
X13896548Y-15466714D01*
X13887024Y-15485762D01*
X14172738Y-15371476D02*
X14134643Y-15371476D01*
X14115595Y-15381000D01*
X14106071Y-15390524D01*
X14087024Y-15419095D01*
X14077500Y-15457190D01*
X14077500Y-15533381D01*
X14087024Y-15552428D01*
X14096548Y-15561952D01*
X14115595Y-15571476D01*
X14153690Y-15571476D01*
X14172738Y-15561952D01*
X14182262Y-15552428D01*
X14191786Y-15533381D01*
X14191786Y-15485762D01*
X14182262Y-15466714D01*
X14172738Y-15457190D01*
X14153690Y-15447667D01*
X14115595Y-15447667D01*
X14096548Y-15457190D01*
X14087024Y-15466714D01*
X14077500Y-15485762D01*
X14267976Y-15371476D02*
X14267976Y-15409571D01*
X14344167Y-15371476D02*
X14344167Y-15409571D01*
X14639405Y-15647667D02*
X14629881Y-15638143D01*
X14610833Y-15609571D01*
X14601309Y-15590524D01*
X14591786Y-15561952D01*
X14582262Y-15514333D01*
X14582262Y-15476238D01*
X14591786Y-15428619D01*
X14601309Y-15400048D01*
X14610833Y-15381000D01*
X14629881Y-15352428D01*
X14639405Y-15342905D01*
X14706071Y-15390524D02*
X14715595Y-15381000D01*
X14734643Y-15371476D01*
X14782262Y-15371476D01*
X14801309Y-15381000D01*
X14810833Y-15390524D01*
X14820357Y-15409571D01*
X14820357Y-15428619D01*
X14810833Y-15457190D01*
X14696548Y-15571476D01*
X14820357Y-15571476D01*
X15058452Y-15571476D02*
X15058452Y-15371476D01*
X15144167Y-15571476D02*
X15144167Y-15466714D01*
X15134643Y-15447667D01*
X15115595Y-15438143D01*
X15087024Y-15438143D01*
X15067976Y-15447667D01*
X15058452Y-15457190D01*
X15267976Y-15571476D02*
X15248928Y-15561952D01*
X15239405Y-15552428D01*
X15229881Y-15533381D01*
X15229881Y-15476238D01*
X15239405Y-15457190D01*
X15248928Y-15447667D01*
X15267976Y-15438143D01*
X15296548Y-15438143D01*
X15315595Y-15447667D01*
X15325119Y-15457190D01*
X15334643Y-15476238D01*
X15334643Y-15533381D01*
X15325119Y-15552428D01*
X15315595Y-15561952D01*
X15296548Y-15571476D01*
X15267976Y-15571476D01*
X15448928Y-15571476D02*
X15429881Y-15561952D01*
X15420357Y-15542905D01*
X15420357Y-15371476D01*
X15601309Y-15561952D02*
X15582262Y-15571476D01*
X15544167Y-15571476D01*
X15525119Y-15561952D01*
X15515595Y-15542905D01*
X15515595Y-15466714D01*
X15525119Y-15447667D01*
X15544167Y-15438143D01*
X15582262Y-15438143D01*
X15601309Y-15447667D01*
X15610833Y-15466714D01*
X15610833Y-15485762D01*
X15515595Y-15504809D01*
X15687024Y-15561952D02*
X15706071Y-15571476D01*
X15744167Y-15571476D01*
X15763214Y-15561952D01*
X15772738Y-15542905D01*
X15772738Y-15533381D01*
X15763214Y-15514333D01*
X15744167Y-15504809D01*
X15715595Y-15504809D01*
X15696548Y-15495286D01*
X15687024Y-15476238D01*
X15687024Y-15466714D01*
X15696548Y-15447667D01*
X15715595Y-15438143D01*
X15744167Y-15438143D01*
X15763214Y-15447667D01*
X15839405Y-15647667D02*
X15848928Y-15638143D01*
X15867976Y-15609571D01*
X15877500Y-15590524D01*
X15887024Y-15561952D01*
X15896548Y-15514333D01*
X15896548Y-15476238D01*
X15887024Y-15428619D01*
X15877500Y-15400048D01*
X15867976Y-15381000D01*
X15848928Y-15352428D01*
X15839405Y-15342905D01*
X16201309Y-15647667D02*
X16191786Y-15638143D01*
X16172738Y-15609571D01*
X16163214Y-15590524D01*
X16153690Y-15561952D01*
X16144167Y-15514333D01*
X16144167Y-15476238D01*
X16153690Y-15428619D01*
X16163214Y-15400048D01*
X16172738Y-15381000D01*
X16191786Y-15352428D01*
X16201309Y-15342905D01*
X16277500Y-15438143D02*
X16277500Y-15571476D01*
X16277500Y-15457190D02*
X16287024Y-15447667D01*
X16306071Y-15438143D01*
X16334643Y-15438143D01*
X16353690Y-15447667D01*
X16363214Y-15466714D01*
X16363214Y-15571476D01*
X16487024Y-15571476D02*
X16467976Y-15561952D01*
X16458452Y-15552428D01*
X16448928Y-15533381D01*
X16448928Y-15476238D01*
X16458452Y-15457190D01*
X16467976Y-15447667D01*
X16487024Y-15438143D01*
X16515595Y-15438143D01*
X16534643Y-15447667D01*
X16544167Y-15457190D01*
X16553690Y-15476238D01*
X16553690Y-15533381D01*
X16544167Y-15552428D01*
X16534643Y-15561952D01*
X16515595Y-15571476D01*
X16487024Y-15571476D01*
X16610833Y-15438143D02*
X16687024Y-15438143D01*
X16639405Y-15371476D02*
X16639405Y-15542905D01*
X16648928Y-15561952D01*
X16667976Y-15571476D01*
X16687024Y-15571476D01*
X16906071Y-15438143D02*
X16906071Y-15638143D01*
X16906071Y-15447667D02*
X16925119Y-15438143D01*
X16963214Y-15438143D01*
X16982262Y-15447667D01*
X16991786Y-15457190D01*
X17001310Y-15476238D01*
X17001310Y-15533381D01*
X16991786Y-15552428D01*
X16982262Y-15561952D01*
X16963214Y-15571476D01*
X16925119Y-15571476D01*
X16906071Y-15561952D01*
X17115595Y-15571476D02*
X17096548Y-15561952D01*
X17087024Y-15542905D01*
X17087024Y-15371476D01*
X17277500Y-15571476D02*
X17277500Y-15466714D01*
X17267976Y-15447667D01*
X17248929Y-15438143D01*
X17210833Y-15438143D01*
X17191786Y-15447667D01*
X17277500Y-15561952D02*
X17258452Y-15571476D01*
X17210833Y-15571476D01*
X17191786Y-15561952D01*
X17182262Y-15542905D01*
X17182262Y-15523857D01*
X17191786Y-15504809D01*
X17210833Y-15495286D01*
X17258452Y-15495286D01*
X17277500Y-15485762D01*
X17344167Y-15438143D02*
X17420357Y-15438143D01*
X17372738Y-15371476D02*
X17372738Y-15542905D01*
X17382262Y-15561952D01*
X17401310Y-15571476D01*
X17420357Y-15571476D01*
X17563214Y-15561952D02*
X17544167Y-15571476D01*
X17506071Y-15571476D01*
X17487024Y-15561952D01*
X17477500Y-15542905D01*
X17477500Y-15466714D01*
X17487024Y-15447667D01*
X17506071Y-15438143D01*
X17544167Y-15438143D01*
X17563214Y-15447667D01*
X17572738Y-15466714D01*
X17572738Y-15485762D01*
X17477500Y-15504809D01*
X17744167Y-15571476D02*
X17744167Y-15371476D01*
X17744167Y-15561952D02*
X17725119Y-15571476D01*
X17687024Y-15571476D01*
X17667976Y-15561952D01*
X17658452Y-15552428D01*
X17648929Y-15533381D01*
X17648929Y-15476238D01*
X17658452Y-15457190D01*
X17667976Y-15447667D01*
X17687024Y-15438143D01*
X17725119Y-15438143D01*
X17744167Y-15447667D01*
X17820357Y-15647667D02*
X17829881Y-15638143D01*
X17848929Y-15609571D01*
X17858452Y-15590524D01*
X17867976Y-15561952D01*
X17877500Y-15514333D01*
X17877500Y-15476238D01*
X17867976Y-15428619D01*
X17858452Y-15400048D01*
X17848929Y-15381000D01*
X17829881Y-15352428D01*
X17820357Y-15342905D01*
M02*
