%TF.GenerationSoftware,KiCad,Pcbnew,(5.99.0-12789-g9e557d84c6)*%
%TF.CreationDate,2021-11-25T19:19:57-08:00*%
%TF.ProjectId,Detector,44657465-6374-46f7-922e-6b696361645f,rev?*%
%TF.SameCoordinates,Original*%
%TF.FileFunction,Legend,Top*%
%TF.FilePolarity,Positive*%
%FSLAX46Y46*%
G04 Gerber Fmt 4.6, Leading zero omitted, Abs format (unit mm)*
G04 Created by KiCad (PCBNEW (5.99.0-12789-g9e557d84c6)) date 2021-11-25 19:19:57*
%MOMM*%
%LPD*%
G01*
G04 APERTURE LIST*
G04 Aperture macros list*
%AMRoundRect*
0 Rectangle with rounded corners*
0 $1 Rounding radius*
0 $2 $3 $4 $5 $6 $7 $8 $9 X,Y pos of 4 corners*
0 Add a 4 corners polygon primitive as box body*
4,1,4,$2,$3,$4,$5,$6,$7,$8,$9,$2,$3,0*
0 Add four circle primitives for the rounded corners*
1,1,$1+$1,$2,$3*
1,1,$1+$1,$4,$5*
1,1,$1+$1,$6,$7*
1,1,$1+$1,$8,$9*
0 Add four rect primitives between the rounded corners*
20,1,$1+$1,$2,$3,$4,$5,0*
20,1,$1+$1,$4,$5,$6,$7,0*
20,1,$1+$1,$6,$7,$8,$9,0*
20,1,$1+$1,$8,$9,$2,$3,0*%
G04 Aperture macros list end*
%ADD10C,0.150000*%
%ADD11C,0.120000*%
%ADD12R,1.700000X1.700000*%
%ADD13O,1.700000X1.700000*%
%ADD14RoundRect,0.250000X-0.337500X-0.475000X0.337500X-0.475000X0.337500X0.475000X-0.337500X0.475000X0*%
%ADD15R,1.800000X1.800000*%
%ADD16C,1.800000*%
%ADD17RoundRect,0.250000X-0.350000X-0.450000X0.350000X-0.450000X0.350000X0.450000X-0.350000X0.450000X0*%
%ADD18RoundRect,0.250000X-0.475000X0.337500X-0.475000X-0.337500X0.475000X-0.337500X0.475000X0.337500X0*%
%ADD19RoundRect,0.100000X-0.100000X0.637500X-0.100000X-0.637500X0.100000X-0.637500X0.100000X0.637500X0*%
%ADD20RoundRect,0.250000X-0.412500X-0.650000X0.412500X-0.650000X0.412500X0.650000X-0.412500X0.650000X0*%
%ADD21C,2.200000*%
%ADD22R,1.000000X1.500000*%
%ADD23RoundRect,0.250000X0.412500X0.650000X-0.412500X0.650000X-0.412500X-0.650000X0.412500X-0.650000X0*%
%ADD24C,1.120000*%
%ADD25R,1.050000X1.500000*%
%ADD26O,1.050000X1.500000*%
G04 APERTURE END LIST*
D10*
%TO.C,C6*%
X122558333Y-119737142D02*
X122510714Y-119784761D01*
X122367857Y-119832380D01*
X122272619Y-119832380D01*
X122129761Y-119784761D01*
X122034523Y-119689523D01*
X121986904Y-119594285D01*
X121939285Y-119403809D01*
X121939285Y-119260952D01*
X121986904Y-119070476D01*
X122034523Y-118975238D01*
X122129761Y-118880000D01*
X122272619Y-118832380D01*
X122367857Y-118832380D01*
X122510714Y-118880000D01*
X122558333Y-118927619D01*
X123415476Y-118832380D02*
X123225000Y-118832380D01*
X123129761Y-118880000D01*
X123082142Y-118927619D01*
X122986904Y-119070476D01*
X122939285Y-119260952D01*
X122939285Y-119641904D01*
X122986904Y-119737142D01*
X123034523Y-119784761D01*
X123129761Y-119832380D01*
X123320238Y-119832380D01*
X123415476Y-119784761D01*
X123463095Y-119737142D01*
X123510714Y-119641904D01*
X123510714Y-119403809D01*
X123463095Y-119308571D01*
X123415476Y-119260952D01*
X123320238Y-119213333D01*
X123129761Y-119213333D01*
X123034523Y-119260952D01*
X122986904Y-119308571D01*
X122939285Y-119403809D01*
%TO.C,Q8*%
X113763274Y-138107619D02*
X113668036Y-138060000D01*
X113572798Y-137964761D01*
X113429941Y-137821904D01*
X113334703Y-137774285D01*
X113239465Y-137774285D01*
X113287084Y-138012380D02*
X113191846Y-137964761D01*
X113096608Y-137869523D01*
X113048989Y-137679047D01*
X113048989Y-137345714D01*
X113096608Y-137155238D01*
X113191846Y-137060000D01*
X113287084Y-137012380D01*
X113477560Y-137012380D01*
X113572798Y-137060000D01*
X113668036Y-137155238D01*
X113715655Y-137345714D01*
X113715655Y-137679047D01*
X113668036Y-137869523D01*
X113572798Y-137964761D01*
X113477560Y-138012380D01*
X113287084Y-138012380D01*
X114287084Y-137440952D02*
X114191846Y-137393333D01*
X114144227Y-137345714D01*
X114096608Y-137250476D01*
X114096608Y-137202857D01*
X114144227Y-137107619D01*
X114191846Y-137060000D01*
X114287084Y-137012380D01*
X114477560Y-137012380D01*
X114572798Y-137060000D01*
X114620417Y-137107619D01*
X114668036Y-137202857D01*
X114668036Y-137250476D01*
X114620417Y-137345714D01*
X114572798Y-137393333D01*
X114477560Y-137440952D01*
X114287084Y-137440952D01*
X114191846Y-137488571D01*
X114144227Y-137536190D01*
X114096608Y-137631428D01*
X114096608Y-137821904D01*
X114144227Y-137917142D01*
X114191846Y-137964761D01*
X114287084Y-138012380D01*
X114477560Y-138012380D01*
X114572798Y-137964761D01*
X114620417Y-137917142D01*
X114668036Y-137821904D01*
X114668036Y-137631428D01*
X114620417Y-137536190D01*
X114572798Y-137488571D01*
X114477560Y-137440952D01*
%TO.C,Q6*%
X113859761Y-114107619D02*
X113764523Y-114060000D01*
X113669285Y-113964761D01*
X113526428Y-113821904D01*
X113431190Y-113774285D01*
X113335952Y-113774285D01*
X113383571Y-114012380D02*
X113288333Y-113964761D01*
X113193095Y-113869523D01*
X113145476Y-113679047D01*
X113145476Y-113345714D01*
X113193095Y-113155238D01*
X113288333Y-113060000D01*
X113383571Y-113012380D01*
X113574047Y-113012380D01*
X113669285Y-113060000D01*
X113764523Y-113155238D01*
X113812142Y-113345714D01*
X113812142Y-113679047D01*
X113764523Y-113869523D01*
X113669285Y-113964761D01*
X113574047Y-114012380D01*
X113383571Y-114012380D01*
X114669285Y-113012380D02*
X114478809Y-113012380D01*
X114383571Y-113060000D01*
X114335952Y-113107619D01*
X114240714Y-113250476D01*
X114193095Y-113440952D01*
X114193095Y-113821904D01*
X114240714Y-113917142D01*
X114288333Y-113964761D01*
X114383571Y-114012380D01*
X114574047Y-114012380D01*
X114669285Y-113964761D01*
X114716904Y-113917142D01*
X114764523Y-113821904D01*
X114764523Y-113583809D01*
X114716904Y-113488571D01*
X114669285Y-113440952D01*
X114574047Y-113393333D01*
X114383571Y-113393333D01*
X114288333Y-113440952D01*
X114240714Y-113488571D01*
X114193095Y-113583809D01*
%TO.C,R11*%
X112082142Y-120012380D02*
X111748809Y-119536190D01*
X111510714Y-120012380D02*
X111510714Y-119012380D01*
X111891666Y-119012380D01*
X111986904Y-119060000D01*
X112034523Y-119107619D01*
X112082142Y-119202857D01*
X112082142Y-119345714D01*
X112034523Y-119440952D01*
X111986904Y-119488571D01*
X111891666Y-119536190D01*
X111510714Y-119536190D01*
X113034523Y-120012380D02*
X112463095Y-120012380D01*
X112748809Y-120012380D02*
X112748809Y-119012380D01*
X112653571Y-119155238D01*
X112558333Y-119250476D01*
X112463095Y-119298095D01*
X113986904Y-120012380D02*
X113415476Y-120012380D01*
X113701190Y-120012380D02*
X113701190Y-119012380D01*
X113605952Y-119155238D01*
X113510714Y-119250476D01*
X113415476Y-119298095D01*
%TO.C,R8*%
X118058333Y-95862380D02*
X117725000Y-95386190D01*
X117486904Y-95862380D02*
X117486904Y-94862380D01*
X117867857Y-94862380D01*
X117963095Y-94910000D01*
X118010714Y-94957619D01*
X118058333Y-95052857D01*
X118058333Y-95195714D01*
X118010714Y-95290952D01*
X117963095Y-95338571D01*
X117867857Y-95386190D01*
X117486904Y-95386190D01*
X118629761Y-95290952D02*
X118534523Y-95243333D01*
X118486904Y-95195714D01*
X118439285Y-95100476D01*
X118439285Y-95052857D01*
X118486904Y-94957619D01*
X118534523Y-94910000D01*
X118629761Y-94862380D01*
X118820238Y-94862380D01*
X118915476Y-94910000D01*
X118963095Y-94957619D01*
X119010714Y-95052857D01*
X119010714Y-95100476D01*
X118963095Y-95195714D01*
X118915476Y-95243333D01*
X118820238Y-95290952D01*
X118629761Y-95290952D01*
X118534523Y-95338571D01*
X118486904Y-95386190D01*
X118439285Y-95481428D01*
X118439285Y-95671904D01*
X118486904Y-95767142D01*
X118534523Y-95814761D01*
X118629761Y-95862380D01*
X118820238Y-95862380D01*
X118915476Y-95814761D01*
X118963095Y-95767142D01*
X119010714Y-95671904D01*
X119010714Y-95481428D01*
X118963095Y-95386190D01*
X118915476Y-95338571D01*
X118820238Y-95290952D01*
%TO.C,Q1*%
X113859761Y-57067619D02*
X113764523Y-57020000D01*
X113669285Y-56924761D01*
X113526428Y-56781904D01*
X113431190Y-56734285D01*
X113335952Y-56734285D01*
X113383571Y-56972380D02*
X113288333Y-56924761D01*
X113193095Y-56829523D01*
X113145476Y-56639047D01*
X113145476Y-56305714D01*
X113193095Y-56115238D01*
X113288333Y-56020000D01*
X113383571Y-55972380D01*
X113574047Y-55972380D01*
X113669285Y-56020000D01*
X113764523Y-56115238D01*
X113812142Y-56305714D01*
X113812142Y-56639047D01*
X113764523Y-56829523D01*
X113669285Y-56924761D01*
X113574047Y-56972380D01*
X113383571Y-56972380D01*
X114764523Y-56972380D02*
X114193095Y-56972380D01*
X114478809Y-56972380D02*
X114478809Y-55972380D01*
X114383571Y-56115238D01*
X114288333Y-56210476D01*
X114193095Y-56258095D01*
%TO.C,C2*%
X122558333Y-72237142D02*
X122510714Y-72284761D01*
X122367857Y-72332380D01*
X122272619Y-72332380D01*
X122129761Y-72284761D01*
X122034523Y-72189523D01*
X121986904Y-72094285D01*
X121939285Y-71903809D01*
X121939285Y-71760952D01*
X121986904Y-71570476D01*
X122034523Y-71475238D01*
X122129761Y-71380000D01*
X122272619Y-71332380D01*
X122367857Y-71332380D01*
X122510714Y-71380000D01*
X122558333Y-71427619D01*
X122939285Y-71427619D02*
X122986904Y-71380000D01*
X123082142Y-71332380D01*
X123320238Y-71332380D01*
X123415476Y-71380000D01*
X123463095Y-71427619D01*
X123510714Y-71522857D01*
X123510714Y-71618095D01*
X123463095Y-71760952D01*
X122891666Y-72332380D01*
X123510714Y-72332380D01*
%TO.C,R2*%
X118058333Y-59362380D02*
X117725000Y-58886190D01*
X117486904Y-59362380D02*
X117486904Y-58362380D01*
X117867857Y-58362380D01*
X117963095Y-58410000D01*
X118010714Y-58457619D01*
X118058333Y-58552857D01*
X118058333Y-58695714D01*
X118010714Y-58790952D01*
X117963095Y-58838571D01*
X117867857Y-58886190D01*
X117486904Y-58886190D01*
X118439285Y-58457619D02*
X118486904Y-58410000D01*
X118582142Y-58362380D01*
X118820238Y-58362380D01*
X118915476Y-58410000D01*
X118963095Y-58457619D01*
X119010714Y-58552857D01*
X119010714Y-58648095D01*
X118963095Y-58790952D01*
X118391666Y-59362380D01*
X119010714Y-59362380D01*
%TO.C,R13*%
X113082142Y-130362380D02*
X112748809Y-129886190D01*
X112510714Y-130362380D02*
X112510714Y-129362380D01*
X112891666Y-129362380D01*
X112986904Y-129410000D01*
X113034523Y-129457619D01*
X113082142Y-129552857D01*
X113082142Y-129695714D01*
X113034523Y-129790952D01*
X112986904Y-129838571D01*
X112891666Y-129886190D01*
X112510714Y-129886190D01*
X114034523Y-130362380D02*
X113463095Y-130362380D01*
X113748809Y-130362380D02*
X113748809Y-129362380D01*
X113653571Y-129505238D01*
X113558333Y-129600476D01*
X113463095Y-129648095D01*
X114367857Y-129362380D02*
X114986904Y-129362380D01*
X114653571Y-129743333D01*
X114796428Y-129743333D01*
X114891666Y-129790952D01*
X114939285Y-129838571D01*
X114986904Y-129933809D01*
X114986904Y-130171904D01*
X114939285Y-130267142D01*
X114891666Y-130314761D01*
X114796428Y-130362380D01*
X114510714Y-130362380D01*
X114415476Y-130314761D01*
X114367857Y-130267142D01*
%TO.C,C9*%
X126082142Y-73987918D02*
X126129761Y-74035537D01*
X126177380Y-74178394D01*
X126177380Y-74273632D01*
X126129761Y-74416490D01*
X126034523Y-74511728D01*
X125939285Y-74559347D01*
X125748809Y-74606966D01*
X125605952Y-74606966D01*
X125415476Y-74559347D01*
X125320238Y-74511728D01*
X125225000Y-74416490D01*
X125177380Y-74273632D01*
X125177380Y-74178394D01*
X125225000Y-74035537D01*
X125272619Y-73987918D01*
X126177380Y-73511728D02*
X126177380Y-73321252D01*
X126129761Y-73226013D01*
X126082142Y-73178394D01*
X125939285Y-73083156D01*
X125748809Y-73035537D01*
X125367857Y-73035537D01*
X125272619Y-73083156D01*
X125225000Y-73130775D01*
X125177380Y-73226013D01*
X125177380Y-73416490D01*
X125225000Y-73511728D01*
X125272619Y-73559347D01*
X125367857Y-73606966D01*
X125605952Y-73606966D01*
X125701190Y-73559347D01*
X125748809Y-73511728D01*
X125796428Y-73416490D01*
X125796428Y-73226013D01*
X125748809Y-73130775D01*
X125701190Y-73083156D01*
X125605952Y-73035537D01*
%TO.C,Q4*%
X113629761Y-90607619D02*
X113534523Y-90560000D01*
X113439285Y-90464761D01*
X113296428Y-90321904D01*
X113201190Y-90274285D01*
X113105952Y-90274285D01*
X113153571Y-90512380D02*
X113058333Y-90464761D01*
X112963095Y-90369523D01*
X112915476Y-90179047D01*
X112915476Y-89845714D01*
X112963095Y-89655238D01*
X113058333Y-89560000D01*
X113153571Y-89512380D01*
X113344047Y-89512380D01*
X113439285Y-89560000D01*
X113534523Y-89655238D01*
X113582142Y-89845714D01*
X113582142Y-90179047D01*
X113534523Y-90369523D01*
X113439285Y-90464761D01*
X113344047Y-90512380D01*
X113153571Y-90512380D01*
X114439285Y-89845714D02*
X114439285Y-90512380D01*
X114201190Y-89464761D02*
X113963095Y-90179047D01*
X114582142Y-90179047D01*
%TO.C,R9*%
X113558333Y-106862380D02*
X113225000Y-106386190D01*
X112986904Y-106862380D02*
X112986904Y-105862380D01*
X113367857Y-105862380D01*
X113463095Y-105910000D01*
X113510714Y-105957619D01*
X113558333Y-106052857D01*
X113558333Y-106195714D01*
X113510714Y-106290952D01*
X113463095Y-106338571D01*
X113367857Y-106386190D01*
X112986904Y-106386190D01*
X114034523Y-106862380D02*
X114225000Y-106862380D01*
X114320238Y-106814761D01*
X114367857Y-106767142D01*
X114463095Y-106624285D01*
X114510714Y-106433809D01*
X114510714Y-106052857D01*
X114463095Y-105957619D01*
X114415476Y-105910000D01*
X114320238Y-105862380D01*
X114129761Y-105862380D01*
X114034523Y-105910000D01*
X113986904Y-105957619D01*
X113939285Y-106052857D01*
X113939285Y-106290952D01*
X113986904Y-106386190D01*
X114034523Y-106433809D01*
X114129761Y-106481428D01*
X114320238Y-106481428D01*
X114415476Y-106433809D01*
X114463095Y-106386190D01*
X114510714Y-106290952D01*
%TO.C,Q3*%
X113859761Y-80767619D02*
X113764523Y-80720000D01*
X113669285Y-80624761D01*
X113526428Y-80481904D01*
X113431190Y-80434285D01*
X113335952Y-80434285D01*
X113383571Y-80672380D02*
X113288333Y-80624761D01*
X113193095Y-80529523D01*
X113145476Y-80339047D01*
X113145476Y-80005714D01*
X113193095Y-79815238D01*
X113288333Y-79720000D01*
X113383571Y-79672380D01*
X113574047Y-79672380D01*
X113669285Y-79720000D01*
X113764523Y-79815238D01*
X113812142Y-80005714D01*
X113812142Y-80339047D01*
X113764523Y-80529523D01*
X113669285Y-80624761D01*
X113574047Y-80672380D01*
X113383571Y-80672380D01*
X114145476Y-79672380D02*
X114764523Y-79672380D01*
X114431190Y-80053333D01*
X114574047Y-80053333D01*
X114669285Y-80100952D01*
X114716904Y-80148571D01*
X114764523Y-80243809D01*
X114764523Y-80481904D01*
X114716904Y-80577142D01*
X114669285Y-80624761D01*
X114574047Y-80672380D01*
X114288333Y-80672380D01*
X114193095Y-80624761D01*
X114145476Y-80577142D01*
%TO.C,R5*%
X113558333Y-82862380D02*
X113225000Y-82386190D01*
X112986904Y-82862380D02*
X112986904Y-81862380D01*
X113367857Y-81862380D01*
X113463095Y-81910000D01*
X113510714Y-81957619D01*
X113558333Y-82052857D01*
X113558333Y-82195714D01*
X113510714Y-82290952D01*
X113463095Y-82338571D01*
X113367857Y-82386190D01*
X112986904Y-82386190D01*
X114463095Y-81862380D02*
X113986904Y-81862380D01*
X113939285Y-82338571D01*
X113986904Y-82290952D01*
X114082142Y-82243333D01*
X114320238Y-82243333D01*
X114415476Y-82290952D01*
X114463095Y-82338571D01*
X114510714Y-82433809D01*
X114510714Y-82671904D01*
X114463095Y-82767142D01*
X114415476Y-82814761D01*
X114320238Y-82862380D01*
X114082142Y-82862380D01*
X113986904Y-82814761D01*
X113939285Y-82767142D01*
%TO.C,R15*%
X111482142Y-143512380D02*
X111148809Y-143036190D01*
X110910714Y-143512380D02*
X110910714Y-142512380D01*
X111291666Y-142512380D01*
X111386904Y-142560000D01*
X111434523Y-142607619D01*
X111482142Y-142702857D01*
X111482142Y-142845714D01*
X111434523Y-142940952D01*
X111386904Y-142988571D01*
X111291666Y-143036190D01*
X110910714Y-143036190D01*
X112434523Y-143512380D02*
X111863095Y-143512380D01*
X112148809Y-143512380D02*
X112148809Y-142512380D01*
X112053571Y-142655238D01*
X111958333Y-142750476D01*
X111863095Y-142798095D01*
X113339285Y-142512380D02*
X112863095Y-142512380D01*
X112815476Y-142988571D01*
X112863095Y-142940952D01*
X112958333Y-142893333D01*
X113196428Y-142893333D01*
X113291666Y-142940952D01*
X113339285Y-142988571D01*
X113386904Y-143083809D01*
X113386904Y-143321904D01*
X113339285Y-143417142D01*
X113291666Y-143464761D01*
X113196428Y-143512380D01*
X112958333Y-143512380D01*
X112863095Y-143464761D01*
X112815476Y-143417142D01*
%TO.C,C1*%
X122558333Y-59237142D02*
X122510714Y-59284761D01*
X122367857Y-59332380D01*
X122272619Y-59332380D01*
X122129761Y-59284761D01*
X122034523Y-59189523D01*
X121986904Y-59094285D01*
X121939285Y-58903809D01*
X121939285Y-58760952D01*
X121986904Y-58570476D01*
X122034523Y-58475238D01*
X122129761Y-58380000D01*
X122272619Y-58332380D01*
X122367857Y-58332380D01*
X122510714Y-58380000D01*
X122558333Y-58427619D01*
X123510714Y-59332380D02*
X122939285Y-59332380D01*
X123225000Y-59332380D02*
X123225000Y-58332380D01*
X123129761Y-58475238D01*
X123034523Y-58570476D01*
X122939285Y-58618095D01*
%TO.C,U1*%
X130463095Y-68512380D02*
X130463095Y-69321904D01*
X130510714Y-69417142D01*
X130558333Y-69464761D01*
X130653571Y-69512380D01*
X130844047Y-69512380D01*
X130939285Y-69464761D01*
X130986904Y-69417142D01*
X131034523Y-69321904D01*
X131034523Y-68512380D01*
X132034523Y-69512380D02*
X131463095Y-69512380D01*
X131748809Y-69512380D02*
X131748809Y-68512380D01*
X131653571Y-68655238D01*
X131558333Y-68750476D01*
X131463095Y-68798095D01*
%TO.C,C7*%
X122558333Y-130237142D02*
X122510714Y-130284761D01*
X122367857Y-130332380D01*
X122272619Y-130332380D01*
X122129761Y-130284761D01*
X122034523Y-130189523D01*
X121986904Y-130094285D01*
X121939285Y-129903809D01*
X121939285Y-129760952D01*
X121986904Y-129570476D01*
X122034523Y-129475238D01*
X122129761Y-129380000D01*
X122272619Y-129332380D01*
X122367857Y-129332380D01*
X122510714Y-129380000D01*
X122558333Y-129427619D01*
X122891666Y-129332380D02*
X123558333Y-129332380D01*
X123129761Y-130332380D01*
%TO.C,C11*%
X137582142Y-138202857D02*
X137629761Y-138250476D01*
X137677380Y-138393333D01*
X137677380Y-138488571D01*
X137629761Y-138631428D01*
X137534523Y-138726666D01*
X137439285Y-138774285D01*
X137248809Y-138821904D01*
X137105952Y-138821904D01*
X136915476Y-138774285D01*
X136820238Y-138726666D01*
X136725000Y-138631428D01*
X136677380Y-138488571D01*
X136677380Y-138393333D01*
X136725000Y-138250476D01*
X136772619Y-138202857D01*
X137677380Y-137250476D02*
X137677380Y-137821904D01*
X137677380Y-137536190D02*
X136677380Y-137536190D01*
X136820238Y-137631428D01*
X136915476Y-137726666D01*
X136963095Y-137821904D01*
X137677380Y-136298095D02*
X137677380Y-136869523D01*
X137677380Y-136583809D02*
X136677380Y-136583809D01*
X136820238Y-136679047D01*
X136915476Y-136774285D01*
X136963095Y-136869523D01*
%TO.C,R17*%
X137582142Y-132862380D02*
X137248809Y-132386190D01*
X137010714Y-132862380D02*
X137010714Y-131862380D01*
X137391666Y-131862380D01*
X137486904Y-131910000D01*
X137534523Y-131957619D01*
X137582142Y-132052857D01*
X137582142Y-132195714D01*
X137534523Y-132290952D01*
X137486904Y-132338571D01*
X137391666Y-132386190D01*
X137010714Y-132386190D01*
X138534523Y-132862380D02*
X137963095Y-132862380D01*
X138248809Y-132862380D02*
X138248809Y-131862380D01*
X138153571Y-132005238D01*
X138058333Y-132100476D01*
X137963095Y-132148095D01*
X138867857Y-131862380D02*
X139534523Y-131862380D01*
X139105952Y-132862380D01*
%TO.C,C10*%
X126082142Y-121964109D02*
X126129761Y-122011728D01*
X126177380Y-122154585D01*
X126177380Y-122249823D01*
X126129761Y-122392680D01*
X126034523Y-122487918D01*
X125939285Y-122535537D01*
X125748809Y-122583156D01*
X125605952Y-122583156D01*
X125415476Y-122535537D01*
X125320238Y-122487918D01*
X125225000Y-122392680D01*
X125177380Y-122249823D01*
X125177380Y-122154585D01*
X125225000Y-122011728D01*
X125272619Y-121964109D01*
X126177380Y-121011728D02*
X126177380Y-121583156D01*
X126177380Y-121297442D02*
X125177380Y-121297442D01*
X125320238Y-121392680D01*
X125415476Y-121487918D01*
X125463095Y-121583156D01*
X125177380Y-120392680D02*
X125177380Y-120297442D01*
X125225000Y-120202204D01*
X125272619Y-120154585D01*
X125367857Y-120106966D01*
X125558333Y-120059347D01*
X125796428Y-120059347D01*
X125986904Y-120106966D01*
X126082142Y-120154585D01*
X126129761Y-120202204D01*
X126177380Y-120297442D01*
X126177380Y-120392680D01*
X126129761Y-120487918D01*
X126082142Y-120535537D01*
X125986904Y-120583156D01*
X125796428Y-120630775D01*
X125558333Y-120630775D01*
X125367857Y-120583156D01*
X125272619Y-120535537D01*
X125225000Y-120487918D01*
X125177380Y-120392680D01*
%TO.C,Q7*%
X113859761Y-128167619D02*
X113764523Y-128120000D01*
X113669285Y-128024761D01*
X113526428Y-127881904D01*
X113431190Y-127834285D01*
X113335952Y-127834285D01*
X113383571Y-128072380D02*
X113288333Y-128024761D01*
X113193095Y-127929523D01*
X113145476Y-127739047D01*
X113145476Y-127405714D01*
X113193095Y-127215238D01*
X113288333Y-127120000D01*
X113383571Y-127072380D01*
X113574047Y-127072380D01*
X113669285Y-127120000D01*
X113764523Y-127215238D01*
X113812142Y-127405714D01*
X113812142Y-127739047D01*
X113764523Y-127929523D01*
X113669285Y-128024761D01*
X113574047Y-128072380D01*
X113383571Y-128072380D01*
X114145476Y-127072380D02*
X114812142Y-127072380D01*
X114383571Y-128072380D01*
%TO.C,R6*%
X118058333Y-82862380D02*
X117725000Y-82386190D01*
X117486904Y-82862380D02*
X117486904Y-81862380D01*
X117867857Y-81862380D01*
X117963095Y-81910000D01*
X118010714Y-81957619D01*
X118058333Y-82052857D01*
X118058333Y-82195714D01*
X118010714Y-82290952D01*
X117963095Y-82338571D01*
X117867857Y-82386190D01*
X117486904Y-82386190D01*
X118915476Y-81862380D02*
X118725000Y-81862380D01*
X118629761Y-81910000D01*
X118582142Y-81957619D01*
X118486904Y-82100476D01*
X118439285Y-82290952D01*
X118439285Y-82671904D01*
X118486904Y-82767142D01*
X118534523Y-82814761D01*
X118629761Y-82862380D01*
X118820238Y-82862380D01*
X118915476Y-82814761D01*
X118963095Y-82767142D01*
X119010714Y-82671904D01*
X119010714Y-82433809D01*
X118963095Y-82338571D01*
X118915476Y-82290952D01*
X118820238Y-82243333D01*
X118629761Y-82243333D01*
X118534523Y-82290952D01*
X118486904Y-82338571D01*
X118439285Y-82433809D01*
%TO.C,R1*%
X113558333Y-59362380D02*
X113225000Y-58886190D01*
X112986904Y-59362380D02*
X112986904Y-58362380D01*
X113367857Y-58362380D01*
X113463095Y-58410000D01*
X113510714Y-58457619D01*
X113558333Y-58552857D01*
X113558333Y-58695714D01*
X113510714Y-58790952D01*
X113463095Y-58838571D01*
X113367857Y-58886190D01*
X112986904Y-58886190D01*
X114510714Y-59362380D02*
X113939285Y-59362380D01*
X114225000Y-59362380D02*
X114225000Y-58362380D01*
X114129761Y-58505238D01*
X114034523Y-58600476D01*
X113939285Y-58648095D01*
%TO.C,R14*%
X117582142Y-130362380D02*
X117248809Y-129886190D01*
X117010714Y-130362380D02*
X117010714Y-129362380D01*
X117391666Y-129362380D01*
X117486904Y-129410000D01*
X117534523Y-129457619D01*
X117582142Y-129552857D01*
X117582142Y-129695714D01*
X117534523Y-129790952D01*
X117486904Y-129838571D01*
X117391666Y-129886190D01*
X117010714Y-129886190D01*
X118534523Y-130362380D02*
X117963095Y-130362380D01*
X118248809Y-130362380D02*
X118248809Y-129362380D01*
X118153571Y-129505238D01*
X118058333Y-129600476D01*
X117963095Y-129648095D01*
X119391666Y-129695714D02*
X119391666Y-130362380D01*
X119153571Y-129314761D02*
X118915476Y-130029047D01*
X119534523Y-130029047D01*
%TO.C,U2*%
X130463095Y-116012380D02*
X130463095Y-116821904D01*
X130510714Y-116917142D01*
X130558333Y-116964761D01*
X130653571Y-117012380D01*
X130844047Y-117012380D01*
X130939285Y-116964761D01*
X130986904Y-116917142D01*
X131034523Y-116821904D01*
X131034523Y-116012380D01*
X131463095Y-116107619D02*
X131510714Y-116060000D01*
X131605952Y-116012380D01*
X131844047Y-116012380D01*
X131939285Y-116060000D01*
X131986904Y-116107619D01*
X132034523Y-116202857D01*
X132034523Y-116298095D01*
X131986904Y-116440952D01*
X131415476Y-117012380D01*
X132034523Y-117012380D01*
%TO.C,R10*%
X117582142Y-106862380D02*
X117248809Y-106386190D01*
X117010714Y-106862380D02*
X117010714Y-105862380D01*
X117391666Y-105862380D01*
X117486904Y-105910000D01*
X117534523Y-105957619D01*
X117582142Y-106052857D01*
X117582142Y-106195714D01*
X117534523Y-106290952D01*
X117486904Y-106338571D01*
X117391666Y-106386190D01*
X117010714Y-106386190D01*
X118534523Y-106862380D02*
X117963095Y-106862380D01*
X118248809Y-106862380D02*
X118248809Y-105862380D01*
X118153571Y-106005238D01*
X118058333Y-106100476D01*
X117963095Y-106148095D01*
X119153571Y-105862380D02*
X119248809Y-105862380D01*
X119344047Y-105910000D01*
X119391666Y-105957619D01*
X119439285Y-106052857D01*
X119486904Y-106243333D01*
X119486904Y-106481428D01*
X119439285Y-106671904D01*
X119391666Y-106767142D01*
X119344047Y-106814761D01*
X119248809Y-106862380D01*
X119153571Y-106862380D01*
X119058333Y-106814761D01*
X119010714Y-106767142D01*
X118963095Y-106671904D01*
X118915476Y-106481428D01*
X118915476Y-106243333D01*
X118963095Y-106052857D01*
X119010714Y-105957619D01*
X119058333Y-105910000D01*
X119153571Y-105862380D01*
%TO.C,R4*%
X118058333Y-72362380D02*
X117725000Y-71886190D01*
X117486904Y-72362380D02*
X117486904Y-71362380D01*
X117867857Y-71362380D01*
X117963095Y-71410000D01*
X118010714Y-71457619D01*
X118058333Y-71552857D01*
X118058333Y-71695714D01*
X118010714Y-71790952D01*
X117963095Y-71838571D01*
X117867857Y-71886190D01*
X117486904Y-71886190D01*
X118915476Y-71695714D02*
X118915476Y-72362380D01*
X118677380Y-71314761D02*
X118439285Y-72029047D01*
X119058333Y-72029047D01*
%TO.C,C8*%
X122558333Y-143237142D02*
X122510714Y-143284761D01*
X122367857Y-143332380D01*
X122272619Y-143332380D01*
X122129761Y-143284761D01*
X122034523Y-143189523D01*
X121986904Y-143094285D01*
X121939285Y-142903809D01*
X121939285Y-142760952D01*
X121986904Y-142570476D01*
X122034523Y-142475238D01*
X122129761Y-142380000D01*
X122272619Y-142332380D01*
X122367857Y-142332380D01*
X122510714Y-142380000D01*
X122558333Y-142427619D01*
X123129761Y-142760952D02*
X123034523Y-142713333D01*
X122986904Y-142665714D01*
X122939285Y-142570476D01*
X122939285Y-142522857D01*
X122986904Y-142427619D01*
X123034523Y-142380000D01*
X123129761Y-142332380D01*
X123320238Y-142332380D01*
X123415476Y-142380000D01*
X123463095Y-142427619D01*
X123510714Y-142522857D01*
X123510714Y-142570476D01*
X123463095Y-142665714D01*
X123415476Y-142713333D01*
X123320238Y-142760952D01*
X123129761Y-142760952D01*
X123034523Y-142808571D01*
X122986904Y-142856190D01*
X122939285Y-142951428D01*
X122939285Y-143141904D01*
X122986904Y-143237142D01*
X123034523Y-143284761D01*
X123129761Y-143332380D01*
X123320238Y-143332380D01*
X123415476Y-143284761D01*
X123463095Y-143237142D01*
X123510714Y-143141904D01*
X123510714Y-142951428D01*
X123463095Y-142856190D01*
X123415476Y-142808571D01*
X123320238Y-142760952D01*
%TO.C,R16*%
X118082142Y-143362380D02*
X117748809Y-142886190D01*
X117510714Y-143362380D02*
X117510714Y-142362380D01*
X117891666Y-142362380D01*
X117986904Y-142410000D01*
X118034523Y-142457619D01*
X118082142Y-142552857D01*
X118082142Y-142695714D01*
X118034523Y-142790952D01*
X117986904Y-142838571D01*
X117891666Y-142886190D01*
X117510714Y-142886190D01*
X119034523Y-143362380D02*
X118463095Y-143362380D01*
X118748809Y-143362380D02*
X118748809Y-142362380D01*
X118653571Y-142505238D01*
X118558333Y-142600476D01*
X118463095Y-142648095D01*
X119891666Y-142362380D02*
X119701190Y-142362380D01*
X119605952Y-142410000D01*
X119558333Y-142457619D01*
X119463095Y-142600476D01*
X119415476Y-142790952D01*
X119415476Y-143171904D01*
X119463095Y-143267142D01*
X119510714Y-143314761D01*
X119605952Y-143362380D01*
X119796428Y-143362380D01*
X119891666Y-143314761D01*
X119939285Y-143267142D01*
X119986904Y-143171904D01*
X119986904Y-142933809D01*
X119939285Y-142838571D01*
X119891666Y-142790952D01*
X119796428Y-142743333D01*
X119605952Y-142743333D01*
X119510714Y-142790952D01*
X119463095Y-142838571D01*
X119415476Y-142933809D01*
%TO.C,R7*%
X112058333Y-96012380D02*
X111725000Y-95536190D01*
X111486904Y-96012380D02*
X111486904Y-95012380D01*
X111867857Y-95012380D01*
X111963095Y-95060000D01*
X112010714Y-95107619D01*
X112058333Y-95202857D01*
X112058333Y-95345714D01*
X112010714Y-95440952D01*
X111963095Y-95488571D01*
X111867857Y-95536190D01*
X111486904Y-95536190D01*
X112391666Y-95012380D02*
X113058333Y-95012380D01*
X112629761Y-96012380D01*
%TO.C,Q5*%
X113859761Y-104467619D02*
X113764523Y-104420000D01*
X113669285Y-104324761D01*
X113526428Y-104181904D01*
X113431190Y-104134285D01*
X113335952Y-104134285D01*
X113383571Y-104372380D02*
X113288333Y-104324761D01*
X113193095Y-104229523D01*
X113145476Y-104039047D01*
X113145476Y-103705714D01*
X113193095Y-103515238D01*
X113288333Y-103420000D01*
X113383571Y-103372380D01*
X113574047Y-103372380D01*
X113669285Y-103420000D01*
X113764523Y-103515238D01*
X113812142Y-103705714D01*
X113812142Y-104039047D01*
X113764523Y-104229523D01*
X113669285Y-104324761D01*
X113574047Y-104372380D01*
X113383571Y-104372380D01*
X114716904Y-103372380D02*
X114240714Y-103372380D01*
X114193095Y-103848571D01*
X114240714Y-103800952D01*
X114335952Y-103753333D01*
X114574047Y-103753333D01*
X114669285Y-103800952D01*
X114716904Y-103848571D01*
X114764523Y-103943809D01*
X114764523Y-104181904D01*
X114716904Y-104277142D01*
X114669285Y-104324761D01*
X114574047Y-104372380D01*
X114335952Y-104372380D01*
X114240714Y-104324761D01*
X114193095Y-104277142D01*
%TO.C,R12*%
X117582142Y-119862380D02*
X117248809Y-119386190D01*
X117010714Y-119862380D02*
X117010714Y-118862380D01*
X117391666Y-118862380D01*
X117486904Y-118910000D01*
X117534523Y-118957619D01*
X117582142Y-119052857D01*
X117582142Y-119195714D01*
X117534523Y-119290952D01*
X117486904Y-119338571D01*
X117391666Y-119386190D01*
X117010714Y-119386190D01*
X118534523Y-119862380D02*
X117963095Y-119862380D01*
X118248809Y-119862380D02*
X118248809Y-118862380D01*
X118153571Y-119005238D01*
X118058333Y-119100476D01*
X117963095Y-119148095D01*
X118915476Y-118957619D02*
X118963095Y-118910000D01*
X119058333Y-118862380D01*
X119296428Y-118862380D01*
X119391666Y-118910000D01*
X119439285Y-118957619D01*
X119486904Y-119052857D01*
X119486904Y-119148095D01*
X119439285Y-119290952D01*
X118867857Y-119862380D01*
X119486904Y-119862380D01*
%TO.C,C5*%
X122558333Y-106737142D02*
X122510714Y-106784761D01*
X122367857Y-106832380D01*
X122272619Y-106832380D01*
X122129761Y-106784761D01*
X122034523Y-106689523D01*
X121986904Y-106594285D01*
X121939285Y-106403809D01*
X121939285Y-106260952D01*
X121986904Y-106070476D01*
X122034523Y-105975238D01*
X122129761Y-105880000D01*
X122272619Y-105832380D01*
X122367857Y-105832380D01*
X122510714Y-105880000D01*
X122558333Y-105927619D01*
X123463095Y-105832380D02*
X122986904Y-105832380D01*
X122939285Y-106308571D01*
X122986904Y-106260952D01*
X123082142Y-106213333D01*
X123320238Y-106213333D01*
X123415476Y-106260952D01*
X123463095Y-106308571D01*
X123510714Y-106403809D01*
X123510714Y-106641904D01*
X123463095Y-106737142D01*
X123415476Y-106784761D01*
X123320238Y-106832380D01*
X123082142Y-106832380D01*
X122986904Y-106784761D01*
X122939285Y-106737142D01*
%TO.C,C3*%
X122558333Y-82737142D02*
X122510714Y-82784761D01*
X122367857Y-82832380D01*
X122272619Y-82832380D01*
X122129761Y-82784761D01*
X122034523Y-82689523D01*
X121986904Y-82594285D01*
X121939285Y-82403809D01*
X121939285Y-82260952D01*
X121986904Y-82070476D01*
X122034523Y-81975238D01*
X122129761Y-81880000D01*
X122272619Y-81832380D01*
X122367857Y-81832380D01*
X122510714Y-81880000D01*
X122558333Y-81927619D01*
X122891666Y-81832380D02*
X123510714Y-81832380D01*
X123177380Y-82213333D01*
X123320238Y-82213333D01*
X123415476Y-82260952D01*
X123463095Y-82308571D01*
X123510714Y-82403809D01*
X123510714Y-82641904D01*
X123463095Y-82737142D01*
X123415476Y-82784761D01*
X123320238Y-82832380D01*
X123034523Y-82832380D01*
X122939285Y-82784761D01*
X122891666Y-82737142D01*
%TO.C,R3*%
X112558333Y-72512380D02*
X112225000Y-72036190D01*
X111986904Y-72512380D02*
X111986904Y-71512380D01*
X112367857Y-71512380D01*
X112463095Y-71560000D01*
X112510714Y-71607619D01*
X112558333Y-71702857D01*
X112558333Y-71845714D01*
X112510714Y-71940952D01*
X112463095Y-71988571D01*
X112367857Y-72036190D01*
X111986904Y-72036190D01*
X112891666Y-71512380D02*
X113510714Y-71512380D01*
X113177380Y-71893333D01*
X113320238Y-71893333D01*
X113415476Y-71940952D01*
X113463095Y-71988571D01*
X113510714Y-72083809D01*
X113510714Y-72321904D01*
X113463095Y-72417142D01*
X113415476Y-72464761D01*
X113320238Y-72512380D01*
X113034523Y-72512380D01*
X112939285Y-72464761D01*
X112891666Y-72417142D01*
%TO.C,JP1*%
X137391666Y-127012380D02*
X137391666Y-127726666D01*
X137344047Y-127869523D01*
X137248809Y-127964761D01*
X137105952Y-128012380D01*
X137010714Y-128012380D01*
X137867857Y-128012380D02*
X137867857Y-127012380D01*
X138248809Y-127012380D01*
X138344047Y-127060000D01*
X138391666Y-127107619D01*
X138439285Y-127202857D01*
X138439285Y-127345714D01*
X138391666Y-127440952D01*
X138344047Y-127488571D01*
X138248809Y-127536190D01*
X137867857Y-127536190D01*
X139391666Y-128012380D02*
X138820238Y-128012380D01*
X139105952Y-128012380D02*
X139105952Y-127012380D01*
X139010714Y-127155238D01*
X138915476Y-127250476D01*
X138820238Y-127298095D01*
%TO.C,C12*%
X133582142Y-127917142D02*
X133534523Y-127964761D01*
X133391666Y-128012380D01*
X133296428Y-128012380D01*
X133153571Y-127964761D01*
X133058333Y-127869523D01*
X133010714Y-127774285D01*
X132963095Y-127583809D01*
X132963095Y-127440952D01*
X133010714Y-127250476D01*
X133058333Y-127155238D01*
X133153571Y-127060000D01*
X133296428Y-127012380D01*
X133391666Y-127012380D01*
X133534523Y-127060000D01*
X133582142Y-127107619D01*
X134534523Y-128012380D02*
X133963095Y-128012380D01*
X134248809Y-128012380D02*
X134248809Y-127012380D01*
X134153571Y-127155238D01*
X134058333Y-127250476D01*
X133963095Y-127298095D01*
X134915476Y-127107619D02*
X134963095Y-127060000D01*
X135058333Y-127012380D01*
X135296428Y-127012380D01*
X135391666Y-127060000D01*
X135439285Y-127107619D01*
X135486904Y-127202857D01*
X135486904Y-127298095D01*
X135439285Y-127440952D01*
X134867857Y-128012380D01*
X135486904Y-128012380D01*
%TO.C,C4*%
X122558333Y-95737142D02*
X122510714Y-95784761D01*
X122367857Y-95832380D01*
X122272619Y-95832380D01*
X122129761Y-95784761D01*
X122034523Y-95689523D01*
X121986904Y-95594285D01*
X121939285Y-95403809D01*
X121939285Y-95260952D01*
X121986904Y-95070476D01*
X122034523Y-94975238D01*
X122129761Y-94880000D01*
X122272619Y-94832380D01*
X122367857Y-94832380D01*
X122510714Y-94880000D01*
X122558333Y-94927619D01*
X123415476Y-95165714D02*
X123415476Y-95832380D01*
X123177380Y-94784761D02*
X122939285Y-95499047D01*
X123558333Y-95499047D01*
%TO.C,Q2*%
X113629761Y-66607619D02*
X113534523Y-66560000D01*
X113439285Y-66464761D01*
X113296428Y-66321904D01*
X113201190Y-66274285D01*
X113105952Y-66274285D01*
X113153571Y-66512380D02*
X113058333Y-66464761D01*
X112963095Y-66369523D01*
X112915476Y-66179047D01*
X112915476Y-65845714D01*
X112963095Y-65655238D01*
X113058333Y-65560000D01*
X113153571Y-65512380D01*
X113344047Y-65512380D01*
X113439285Y-65560000D01*
X113534523Y-65655238D01*
X113582142Y-65845714D01*
X113582142Y-66179047D01*
X113534523Y-66369523D01*
X113439285Y-66464761D01*
X113344047Y-66512380D01*
X113153571Y-66512380D01*
X113963095Y-65607619D02*
X114010714Y-65560000D01*
X114105952Y-65512380D01*
X114344047Y-65512380D01*
X114439285Y-65560000D01*
X114486904Y-65607619D01*
X114534523Y-65702857D01*
X114534523Y-65798095D01*
X114486904Y-65940952D01*
X113915476Y-66512380D01*
X114534523Y-66512380D01*
D11*
%TO.C,C6*%
X122463748Y-121795000D02*
X122986252Y-121795000D01*
X122463748Y-120325000D02*
X122986252Y-120325000D01*
%TO.C,Q8*%
X115515000Y-139380000D02*
X115515000Y-139224000D01*
X115515000Y-141696000D02*
X115515000Y-141540000D01*
X112282665Y-141538608D02*
G75*
G03*
X115515000Y-141695516I1672335J1078608D01*
G01*
X112913870Y-141539837D02*
G75*
G03*
X114995961Y-141540000I1041130J1079837D01*
G01*
X112282665Y-139381392D02*
G75*
G02*
X115515000Y-139224484I1672335J-1078608D01*
G01*
X112913870Y-139380163D02*
G75*
G02*
X114995961Y-139380000I1041130J-1079837D01*
G01*
%TO.C,Q6*%
X115515000Y-117996000D02*
X115515000Y-117840000D01*
X115515000Y-115680000D02*
X115515000Y-115524000D01*
X112913870Y-117839837D02*
G75*
G03*
X114995961Y-117840000I1041130J1079837D01*
G01*
X112282665Y-115681392D02*
G75*
G02*
X115515000Y-115524484I1672335J-1078608D01*
G01*
X112913870Y-115680163D02*
G75*
G02*
X114995961Y-115680000I1041130J-1079837D01*
G01*
X112282665Y-117838608D02*
G75*
G03*
X115515000Y-117995516I1672335J1078608D01*
G01*
%TO.C,R11*%
X113497936Y-120325000D02*
X113952064Y-120325000D01*
X113497936Y-121795000D02*
X113952064Y-121795000D01*
%TO.C,R8*%
X117997936Y-96325000D02*
X118452064Y-96325000D01*
X117997936Y-97795000D02*
X118452064Y-97795000D01*
%TO.C,Q1*%
X115515000Y-52480000D02*
X115515000Y-52324000D01*
X115515000Y-54796000D02*
X115515000Y-54640000D01*
X112282665Y-54638608D02*
G75*
G03*
X115515000Y-54795516I1672335J1078608D01*
G01*
X112913870Y-52480163D02*
G75*
G02*
X114995961Y-52480000I1041130J-1079837D01*
G01*
X112282665Y-52481392D02*
G75*
G02*
X115515000Y-52324484I1672335J-1078608D01*
G01*
X112913870Y-54639837D02*
G75*
G03*
X114995961Y-54640000I1041130J1079837D01*
G01*
%TO.C,C2*%
X122463748Y-72825000D02*
X122986252Y-72825000D01*
X122463748Y-74295000D02*
X122986252Y-74295000D01*
%TO.C,R2*%
X117997936Y-61295000D02*
X118452064Y-61295000D01*
X117997936Y-59825000D02*
X118452064Y-59825000D01*
%TO.C,R13*%
X113497936Y-130825000D02*
X113952064Y-130825000D01*
X113497936Y-132295000D02*
X113952064Y-132295000D01*
%TO.C,C9*%
X127960000Y-73298748D02*
X127960000Y-73821252D01*
X126490000Y-73298748D02*
X126490000Y-73821252D01*
%TO.C,Q4*%
X115515000Y-91980000D02*
X115515000Y-91824000D01*
X115515000Y-94296000D02*
X115515000Y-94140000D01*
X112913870Y-91980163D02*
G75*
G02*
X114995961Y-91980000I1041130J-1079837D01*
G01*
X112282665Y-94138608D02*
G75*
G03*
X115515000Y-94295516I1672335J1078608D01*
G01*
X112913870Y-94139837D02*
G75*
G03*
X114995961Y-94140000I1041130J1079837D01*
G01*
X112282665Y-91981392D02*
G75*
G02*
X115515000Y-91824484I1672335J-1078608D01*
G01*
%TO.C,R9*%
X113497936Y-108795000D02*
X113952064Y-108795000D01*
X113497936Y-107325000D02*
X113952064Y-107325000D01*
%TO.C,Q3*%
X115515000Y-78496000D02*
X115515000Y-78340000D01*
X115515000Y-76180000D02*
X115515000Y-76024000D01*
X112282665Y-78338608D02*
G75*
G03*
X115515000Y-78495516I1672335J1078608D01*
G01*
X112913870Y-76180163D02*
G75*
G02*
X114995961Y-76180000I1041130J-1079837D01*
G01*
X112282665Y-76181392D02*
G75*
G02*
X115515000Y-76024484I1672335J-1078608D01*
G01*
X112913870Y-78339837D02*
G75*
G03*
X114995961Y-78340000I1041130J1079837D01*
G01*
%TO.C,R5*%
X113497936Y-83325000D02*
X113952064Y-83325000D01*
X113497936Y-84795000D02*
X113952064Y-84795000D01*
%TO.C,R15*%
X113497936Y-145295000D02*
X113952064Y-145295000D01*
X113497936Y-143825000D02*
X113952064Y-143825000D01*
%TO.C,C1*%
X122463748Y-59825000D02*
X122986252Y-59825000D01*
X122463748Y-61295000D02*
X122986252Y-61295000D01*
%TO.C,U1*%
X128615000Y-73560000D02*
X128615000Y-75760000D01*
X133835000Y-73560000D02*
X133835000Y-75760000D01*
X133835000Y-73560000D02*
X133835000Y-69960000D01*
X128615000Y-73560000D02*
X128615000Y-71360000D01*
%TO.C,C7*%
X122463748Y-132295000D02*
X122986252Y-132295000D01*
X122463748Y-130825000D02*
X122986252Y-130825000D01*
%TO.C,C11*%
X133013748Y-136650000D02*
X134436252Y-136650000D01*
X133013748Y-138470000D02*
X134436252Y-138470000D01*
%TO.C,R17*%
X137997936Y-134795000D02*
X138452064Y-134795000D01*
X137997936Y-133325000D02*
X138452064Y-133325000D01*
%TO.C,C10*%
X126490000Y-120798748D02*
X126490000Y-121321252D01*
X127960000Y-120798748D02*
X127960000Y-121321252D01*
%TO.C,Q7*%
X115515000Y-125896000D02*
X115515000Y-125740000D01*
X115515000Y-123580000D02*
X115515000Y-123424000D01*
X112282665Y-125738608D02*
G75*
G03*
X115515000Y-125895516I1672335J1078608D01*
G01*
X112913870Y-125739837D02*
G75*
G03*
X114995961Y-125740000I1041130J1079837D01*
G01*
X112913870Y-123580163D02*
G75*
G02*
X114995961Y-123580000I1041130J-1079837D01*
G01*
X112282665Y-123581392D02*
G75*
G02*
X115515000Y-123424484I1672335J-1078608D01*
G01*
%TO.C,R6*%
X117997936Y-83325000D02*
X118452064Y-83325000D01*
X117997936Y-84795000D02*
X118452064Y-84795000D01*
%TO.C,R1*%
X113497936Y-59825000D02*
X113952064Y-59825000D01*
X113497936Y-61295000D02*
X113952064Y-61295000D01*
%TO.C,R14*%
X117997936Y-130825000D02*
X118452064Y-130825000D01*
X117997936Y-132295000D02*
X118452064Y-132295000D01*
%TO.C,U2*%
X128615000Y-121060000D02*
X128615000Y-123260000D01*
X133835000Y-121060000D02*
X133835000Y-123260000D01*
X133835000Y-121060000D02*
X133835000Y-117460000D01*
X128615000Y-121060000D02*
X128615000Y-118860000D01*
%TO.C,R10*%
X117997936Y-108795000D02*
X118452064Y-108795000D01*
X117997936Y-107325000D02*
X118452064Y-107325000D01*
%TO.C,R4*%
X117997936Y-72825000D02*
X118452064Y-72825000D01*
X117997936Y-74295000D02*
X118452064Y-74295000D01*
%TO.C,C8*%
X122463748Y-145295000D02*
X122986252Y-145295000D01*
X122463748Y-143825000D02*
X122986252Y-143825000D01*
%TO.C,R16*%
X117997936Y-143825000D02*
X118452064Y-143825000D01*
X117997936Y-145295000D02*
X118452064Y-145295000D01*
%TO.C,R7*%
X113497936Y-96325000D02*
X113952064Y-96325000D01*
X113497936Y-97795000D02*
X113952064Y-97795000D01*
%TO.C,Q5*%
X115515000Y-102196000D02*
X115515000Y-102040000D01*
X115515000Y-99880000D02*
X115515000Y-99724000D01*
X112282665Y-99881392D02*
G75*
G02*
X115515000Y-99724484I1672335J-1078608D01*
G01*
X112282665Y-102038608D02*
G75*
G03*
X115515000Y-102195516I1672335J1078608D01*
G01*
X112913870Y-102039837D02*
G75*
G03*
X114995961Y-102040000I1041130J1079837D01*
G01*
X112913870Y-99880163D02*
G75*
G02*
X114995961Y-99880000I1041130J-1079837D01*
G01*
%TO.C,R12*%
X117997936Y-120325000D02*
X118452064Y-120325000D01*
X117997936Y-121795000D02*
X118452064Y-121795000D01*
%TO.C,C5*%
X122463748Y-107325000D02*
X122986252Y-107325000D01*
X122463748Y-108795000D02*
X122986252Y-108795000D01*
%TO.C,C3*%
X122463748Y-83325000D02*
X122986252Y-83325000D01*
X122463748Y-84795000D02*
X122986252Y-84795000D01*
%TO.C,R3*%
X113497936Y-72825000D02*
X113952064Y-72825000D01*
X113497936Y-74295000D02*
X113952064Y-74295000D01*
%TO.C,JP1*%
X136825000Y-128560000D02*
X139625000Y-128560000D01*
X139625000Y-130560000D02*
X136825000Y-130560000D01*
X139625000Y-128560000D02*
X139625000Y-130560000D01*
X136825000Y-130560000D02*
X136825000Y-128560000D01*
%TO.C,C12*%
X134436252Y-130470000D02*
X133013748Y-130470000D01*
X134436252Y-128650000D02*
X133013748Y-128650000D01*
%TO.C,C4*%
X122463748Y-96325000D02*
X122986252Y-96325000D01*
X122463748Y-97795000D02*
X122986252Y-97795000D01*
%TO.C,Q2*%
X115515000Y-68280000D02*
X115515000Y-68124000D01*
X115515000Y-70596000D02*
X115515000Y-70440000D01*
X112282665Y-68281392D02*
G75*
G02*
X115515000Y-68124484I1672335J-1078608D01*
G01*
X112913870Y-70439837D02*
G75*
G03*
X114995961Y-70440000I1041130J1079837D01*
G01*
X112913870Y-68280163D02*
G75*
G02*
X114995961Y-68280000I1041130J-1079837D01*
G01*
X112282665Y-70438608D02*
G75*
G03*
X115515000Y-70595516I1672335J1078608D01*
G01*
%TD*%
%LPC*%
D12*
%TO.C,J3*%
X131200000Y-142060000D03*
D13*
X133740000Y-142060000D03*
X136280000Y-142060000D03*
%TD*%
D14*
%TO.C,C6*%
X121687500Y-121060000D03*
X123762500Y-121060000D03*
%TD*%
D15*
%TO.C,Q8*%
X115225000Y-140460000D03*
D16*
X112685000Y-140460000D03*
%TD*%
D15*
%TO.C,Q6*%
X115225000Y-116760000D03*
D16*
X112685000Y-116760000D03*
%TD*%
D17*
%TO.C,R11*%
X112725000Y-121060000D03*
X114725000Y-121060000D03*
%TD*%
%TO.C,R8*%
X117225000Y-97060000D03*
X119225000Y-97060000D03*
%TD*%
D15*
%TO.C,Q1*%
X115225000Y-53560000D03*
D16*
X112685000Y-53560000D03*
%TD*%
D14*
%TO.C,C2*%
X121687500Y-73560000D03*
X123762500Y-73560000D03*
%TD*%
D17*
%TO.C,R2*%
X117225000Y-60560000D03*
X119225000Y-60560000D03*
%TD*%
%TO.C,R13*%
X112725000Y-131560000D03*
X114725000Y-131560000D03*
%TD*%
D18*
%TO.C,C9*%
X127225000Y-72522500D03*
X127225000Y-74597500D03*
%TD*%
D15*
%TO.C,Q4*%
X115225000Y-93060000D03*
D16*
X112685000Y-93060000D03*
%TD*%
D17*
%TO.C,R9*%
X112725000Y-108060000D03*
X114725000Y-108060000D03*
%TD*%
D15*
%TO.C,Q3*%
X115225000Y-77260000D03*
D16*
X112685000Y-77260000D03*
%TD*%
D17*
%TO.C,R5*%
X112725000Y-84060000D03*
X114725000Y-84060000D03*
%TD*%
%TO.C,R15*%
X112725000Y-144560000D03*
X114725000Y-144560000D03*
%TD*%
D14*
%TO.C,C1*%
X121687500Y-60560000D03*
X123762500Y-60560000D03*
%TD*%
D19*
%TO.C,U1*%
X133175000Y-70697500D03*
X132525000Y-70697500D03*
X131875000Y-70697500D03*
X131225000Y-70697500D03*
X130575000Y-70697500D03*
X129925000Y-70697500D03*
X129275000Y-70697500D03*
X129275000Y-76422500D03*
X129925000Y-76422500D03*
X130575000Y-76422500D03*
X131225000Y-76422500D03*
X131875000Y-76422500D03*
X132525000Y-76422500D03*
X133175000Y-76422500D03*
%TD*%
D14*
%TO.C,C7*%
X121687500Y-131560000D03*
X123762500Y-131560000D03*
%TD*%
D20*
%TO.C,C11*%
X132162500Y-137560000D03*
X135287500Y-137560000D03*
%TD*%
D17*
%TO.C,R17*%
X137225000Y-134060000D03*
X139225000Y-134060000D03*
%TD*%
D18*
%TO.C,C10*%
X127225000Y-120022500D03*
X127225000Y-122097500D03*
%TD*%
D15*
%TO.C,Q7*%
X115225000Y-124660000D03*
D16*
X112685000Y-124660000D03*
%TD*%
D21*
%TO.C,REF\u002A\u002A*%
X132725000Y-97060000D03*
%TD*%
D17*
%TO.C,R6*%
X117225000Y-84060000D03*
X119225000Y-84060000D03*
%TD*%
%TO.C,R1*%
X112725000Y-60560000D03*
X114725000Y-60560000D03*
%TD*%
D21*
%TO.C,REF\u002A\u002A*%
X132725000Y-54560000D03*
%TD*%
D17*
%TO.C,R14*%
X117225000Y-131560000D03*
X119225000Y-131560000D03*
%TD*%
D19*
%TO.C,U2*%
X133175000Y-118197500D03*
X132525000Y-118197500D03*
X131875000Y-118197500D03*
X131225000Y-118197500D03*
X130575000Y-118197500D03*
X129925000Y-118197500D03*
X129275000Y-118197500D03*
X129275000Y-123922500D03*
X129925000Y-123922500D03*
X130575000Y-123922500D03*
X131225000Y-123922500D03*
X131875000Y-123922500D03*
X132525000Y-123922500D03*
X133175000Y-123922500D03*
%TD*%
D17*
%TO.C,R10*%
X117225000Y-108060000D03*
X119225000Y-108060000D03*
%TD*%
%TO.C,R4*%
X117225000Y-73560000D03*
X119225000Y-73560000D03*
%TD*%
D14*
%TO.C,C8*%
X121687500Y-144560000D03*
X123762500Y-144560000D03*
%TD*%
D17*
%TO.C,R16*%
X117225000Y-144560000D03*
X119225000Y-144560000D03*
%TD*%
%TO.C,R7*%
X112725000Y-97060000D03*
X114725000Y-97060000D03*
%TD*%
D15*
%TO.C,Q5*%
X115225000Y-100960000D03*
D16*
X112685000Y-100960000D03*
%TD*%
D17*
%TO.C,R12*%
X117225000Y-121060000D03*
X119225000Y-121060000D03*
%TD*%
D14*
%TO.C,C5*%
X121687500Y-108060000D03*
X123762500Y-108060000D03*
%TD*%
%TO.C,C3*%
X121687500Y-84060000D03*
X123762500Y-84060000D03*
%TD*%
D17*
%TO.C,R3*%
X112725000Y-73560000D03*
X114725000Y-73560000D03*
%TD*%
D22*
%TO.C,JP1*%
X137575000Y-129560000D03*
X138875000Y-129560000D03*
%TD*%
D23*
%TO.C,C12*%
X135287500Y-129560000D03*
X132162500Y-129560000D03*
%TD*%
D14*
%TO.C,C4*%
X121687500Y-97060000D03*
X123762500Y-97060000D03*
%TD*%
D15*
%TO.C,Q2*%
X115225000Y-69360000D03*
D16*
X112685000Y-69360000D03*
%TD*%
D12*
%TO.C,J1*%
X135950000Y-77360000D03*
D13*
X138490000Y-77360000D03*
X135950000Y-74820000D03*
X138490000Y-74820000D03*
X135950000Y-72280000D03*
X138490000Y-72280000D03*
X135950000Y-69740000D03*
X138490000Y-69740000D03*
%TD*%
D12*
%TO.C,TP5*%
X126725000Y-104060000D03*
D13*
X126725000Y-101520000D03*
%TD*%
D12*
%TO.C,TP2*%
X126725000Y-69560000D03*
D13*
X126725000Y-67020000D03*
%TD*%
D12*
%TO.C,TP3*%
X126725000Y-80060000D03*
D13*
X126725000Y-77520000D03*
%TD*%
D12*
%TO.C,TP4*%
X126725000Y-93060000D03*
D13*
X126725000Y-90520000D03*
%TD*%
D24*
%TO.C,RV1*%
X118185000Y-55090000D03*
X120725000Y-57630000D03*
X123265000Y-55090000D03*
%TD*%
D25*
%TO.C,U3*%
X134995000Y-133932500D03*
D26*
X133725000Y-133932500D03*
X132455000Y-133932500D03*
%TD*%
D24*
%TO.C,RV7*%
X118185000Y-126090000D03*
X120725000Y-128630000D03*
X123265000Y-126090000D03*
%TD*%
%TO.C,RV5*%
X118185000Y-102590000D03*
X120725000Y-105130000D03*
X123265000Y-102590000D03*
%TD*%
D12*
%TO.C,TP8*%
X126725000Y-140560000D03*
D13*
X126725000Y-138020000D03*
%TD*%
D24*
%TO.C,RV3*%
X118185000Y-78670000D03*
X120725000Y-81210000D03*
X123265000Y-78670000D03*
%TD*%
%TO.C,RV8*%
X118185000Y-139090000D03*
X120725000Y-141630000D03*
X123265000Y-139090000D03*
%TD*%
D12*
%TO.C,TP6*%
X126725000Y-117060000D03*
D13*
X126725000Y-114520000D03*
%TD*%
D24*
%TO.C,RV2*%
X118185000Y-68090000D03*
X120725000Y-70630000D03*
X123265000Y-68090000D03*
%TD*%
%TO.C,RV6*%
X118185000Y-115540000D03*
X120725000Y-118080000D03*
X123265000Y-115540000D03*
%TD*%
D12*
%TO.C,TP7*%
X126725000Y-127560000D03*
D13*
X126725000Y-125020000D03*
%TD*%
D24*
%TO.C,RV4*%
X118185000Y-91590000D03*
X120725000Y-94130000D03*
X123265000Y-91590000D03*
%TD*%
D12*
%TO.C,J2*%
X135950000Y-124860000D03*
D13*
X138490000Y-124860000D03*
X135950000Y-122320000D03*
X138490000Y-122320000D03*
X135950000Y-119780000D03*
X138490000Y-119780000D03*
X135950000Y-117240000D03*
X138490000Y-117240000D03*
%TD*%
D12*
%TO.C,TP1*%
X126725000Y-56560000D03*
D13*
X126725000Y-54020000D03*
%TD*%
M02*
