%TF.GenerationSoftware,KiCad,Pcbnew,(6.0.0-rc1-415-g653c7b78d7)*%
%TF.CreationDate,2021-12-14T13:19:45-08:00*%
%TF.ProjectId,Detector,44657465-6374-46f7-922e-6b696361645f,rev?*%
%TF.SameCoordinates,Original*%
%TF.FileFunction,Copper,L2,Bot*%
%TF.FilePolarity,Positive*%
%FSLAX46Y46*%
G04 Gerber Fmt 4.6, Leading zero omitted, Abs format (unit mm)*
G04 Created by KiCad (PCBNEW (6.0.0-rc1-415-g653c7b78d7)) date 2021-12-14 13:19:45*
%MOMM*%
%LPD*%
G01*
G04 APERTURE LIST*
%TA.AperFunction,ComponentPad*%
%ADD10R,1.800000X1.800000*%
%TD*%
%TA.AperFunction,ComponentPad*%
%ADD11C,1.800000*%
%TD*%
%TA.AperFunction,ComponentPad*%
%ADD12R,2.100000X2.100000*%
%TD*%
%TA.AperFunction,ComponentPad*%
%ADD13C,2.100000*%
%TD*%
%TA.AperFunction,ComponentPad*%
%ADD14R,1.700000X1.700000*%
%TD*%
%TA.AperFunction,ComponentPad*%
%ADD15O,1.700000X1.700000*%
%TD*%
%TA.AperFunction,ComponentPad*%
%ADD16C,1.120000*%
%TD*%
%TA.AperFunction,ComponentPad*%
%ADD17R,1.050000X1.500000*%
%TD*%
%TA.AperFunction,ComponentPad*%
%ADD18O,1.050000X1.500000*%
%TD*%
%TA.AperFunction,ViaPad*%
%ADD19C,0.800000*%
%TD*%
%TA.AperFunction,ViaPad*%
%ADD20C,1.600000*%
%TD*%
%TA.AperFunction,Conductor*%
%ADD21C,0.500000*%
%TD*%
G04 APERTURE END LIST*
D10*
%TO.P,Q8,1,C*%
%TO.N,Net-(Q8-Pad1)*%
X115225000Y-142760000D03*
D11*
%TO.P,Q8,2,E*%
%TO.N,GND*%
X112685000Y-142760000D03*
%TD*%
D10*
%TO.P,Q6,1,C*%
%TO.N,Net-(Q6-Pad1)*%
X115225000Y-116760000D03*
D11*
%TO.P,Q6,2,E*%
%TO.N,GND*%
X112685000Y-116760000D03*
%TD*%
D10*
%TO.P,Q1,1,C*%
%TO.N,Net-(Q1-Pad1)*%
X115225000Y-51260000D03*
D11*
%TO.P,Q1,2,E*%
%TO.N,GND*%
X112685000Y-51260000D03*
%TD*%
D10*
%TO.P,Q4,1,C*%
%TO.N,Net-(Q4-Pad1)*%
X115225000Y-93060000D03*
D11*
%TO.P,Q4,2,E*%
%TO.N,GND*%
X112685000Y-93060000D03*
%TD*%
D10*
%TO.P,Q3,1,C*%
%TO.N,Net-(Q3-Pad1)*%
X115225000Y-77260000D03*
D11*
%TO.P,Q3,2,E*%
%TO.N,GND*%
X112685000Y-77260000D03*
%TD*%
D10*
%TO.P,Q7,1,C*%
%TO.N,Net-(Q7-Pad1)*%
X115225000Y-126660000D03*
D11*
%TO.P,Q7,2,E*%
%TO.N,GND*%
X112685000Y-126660000D03*
%TD*%
D10*
%TO.P,Q5,1,C*%
%TO.N,Net-(Q5-Pad1)*%
X115225000Y-100960000D03*
D11*
%TO.P,Q5,2,E*%
%TO.N,GND*%
X112685000Y-100960000D03*
%TD*%
D10*
%TO.P,Q2,1,C*%
%TO.N,Net-(Q2-Pad1)*%
X115225000Y-67360000D03*
D11*
%TO.P,Q2,2,E*%
%TO.N,GND*%
X112685000Y-67360000D03*
%TD*%
D12*
%TO.P,J3,1,Pin_1*%
%TO.N,/Group-A/Group-A-Output*%
X137405000Y-142860000D03*
D13*
%TO.P,J3,2,Pin_2*%
%TO.N,+5V*%
X134865000Y-142860000D03*
%TO.P,J3,3,Pin_3*%
%TO.N,GND*%
X132325000Y-142860000D03*
%TD*%
D14*
%TO.P,J1,1,Pin_1*%
%TO.N,Net-(J1-Pad1)*%
X135950000Y-77360000D03*
D15*
%TO.P,J1,2,Pin_2*%
%TO.N,/Group-A/Group-A-Output*%
X138490000Y-77360000D03*
%TO.P,J1,3,Pin_3*%
%TO.N,Net-(J1-Pad3)*%
X135950000Y-74820000D03*
%TO.P,J1,4,Pin_4*%
%TO.N,/Group-A/Group-A-Output*%
X138490000Y-74820000D03*
%TO.P,J1,5,Pin_5*%
%TO.N,Net-(J1-Pad5)*%
X135950000Y-72280000D03*
%TO.P,J1,6,Pin_6*%
%TO.N,/Group-A/Group-A-Output*%
X138490000Y-72280000D03*
%TO.P,J1,7,Pin_7*%
%TO.N,Net-(J1-Pad7)*%
X135950000Y-69740000D03*
%TO.P,J1,8,Pin_8*%
%TO.N,/Group-A/Group-A-Output*%
X138490000Y-69740000D03*
%TD*%
D14*
%TO.P,TP5,1,1*%
%TO.N,Net-(C5-Pad1)*%
X126725000Y-104060000D03*
D15*
%TO.P,TP5,2,2*%
%TO.N,Net-(Q5-Pad1)*%
X126725000Y-101520000D03*
%TD*%
D14*
%TO.P,TP2,1,1*%
%TO.N,Net-(C2-Pad1)*%
X126725000Y-69560000D03*
D15*
%TO.P,TP2,2,2*%
%TO.N,Net-(Q2-Pad1)*%
X126725000Y-67020000D03*
%TD*%
D14*
%TO.P,TP3,1,1*%
%TO.N,Net-(C3-Pad1)*%
X126725000Y-80060000D03*
D15*
%TO.P,TP3,2,2*%
%TO.N,Net-(Q3-Pad1)*%
X126725000Y-77520000D03*
%TD*%
D14*
%TO.P,TP4,1,1*%
%TO.N,Net-(C4-Pad1)*%
X126725000Y-93060000D03*
D15*
%TO.P,TP4,2,2*%
%TO.N,Net-(Q4-Pad1)*%
X126725000Y-90520000D03*
%TD*%
D16*
%TO.P,RV1,1*%
%TO.N,+3V3*%
X118185000Y-52790000D03*
%TO.P,RV1,2*%
%TO.N,Net-(R1-Pad1)*%
X120725000Y-55330000D03*
%TO.P,RV1,3*%
%TO.N,N/C*%
X123265000Y-52790000D03*
%TD*%
D17*
%TO.P,U3,1,VO*%
%TO.N,+3V3*%
X134995000Y-133932500D03*
D18*
%TO.P,U3,2,GND*%
%TO.N,GND*%
X133725000Y-133932500D03*
%TO.P,U3,3,VI*%
%TO.N,+5V*%
X132455000Y-133932500D03*
%TD*%
D16*
%TO.P,RV7,1*%
%TO.N,+3V3*%
X118185000Y-126090000D03*
%TO.P,RV7,2*%
%TO.N,Net-(R13-Pad1)*%
X120725000Y-128630000D03*
%TO.P,RV7,3*%
%TO.N,N/C*%
X123265000Y-126090000D03*
%TD*%
D14*
%TO.P,TP9,1,1*%
%TO.N,GND*%
X135725000Y-109360000D03*
%TD*%
D16*
%TO.P,RV5,1*%
%TO.N,+3V3*%
X118185000Y-102590000D03*
%TO.P,RV5,2*%
%TO.N,Net-(R10-Pad1)*%
X120725000Y-105130000D03*
%TO.P,RV5,3*%
%TO.N,N/C*%
X123265000Y-102590000D03*
%TD*%
D14*
%TO.P,TP8,1,1*%
%TO.N,Net-(C8-Pad1)*%
X126725000Y-142860000D03*
D15*
%TO.P,TP8,2,2*%
%TO.N,Net-(Q8-Pad1)*%
X126725000Y-140320000D03*
%TD*%
D16*
%TO.P,RV3,1*%
%TO.N,+3V3*%
X118185000Y-78670000D03*
%TO.P,RV3,2*%
%TO.N,Net-(R5-Pad1)*%
X120725000Y-81210000D03*
%TO.P,RV3,3*%
%TO.N,N/C*%
X123265000Y-78670000D03*
%TD*%
%TO.P,RV8,1*%
%TO.N,+3V3*%
X118185000Y-141390000D03*
%TO.P,RV8,2*%
%TO.N,Net-(R15-Pad1)*%
X120725000Y-143930000D03*
%TO.P,RV8,3*%
%TO.N,N/C*%
X123265000Y-141390000D03*
%TD*%
D14*
%TO.P,TP6,1,1*%
%TO.N,Net-(C6-Pad1)*%
X126725000Y-117060000D03*
D15*
%TO.P,TP6,2,2*%
%TO.N,Net-(Q6-Pad1)*%
X126725000Y-114520000D03*
%TD*%
D16*
%TO.P,RV2,1*%
%TO.N,+3V3*%
X118185000Y-68090000D03*
%TO.P,RV2,2*%
%TO.N,Net-(R3-Pad1)*%
X120725000Y-70630000D03*
%TO.P,RV2,3*%
%TO.N,N/C*%
X123265000Y-68090000D03*
%TD*%
D14*
%TO.P,TP10,1,1*%
%TO.N,GND*%
X135725000Y-84760000D03*
%TD*%
D16*
%TO.P,RV6,1*%
%TO.N,+3V3*%
X118185000Y-115540000D03*
%TO.P,RV6,2*%
%TO.N,Net-(R11-Pad1)*%
X120725000Y-118080000D03*
%TO.P,RV6,3*%
%TO.N,N/C*%
X123265000Y-115540000D03*
%TD*%
D14*
%TO.P,TP7,1,1*%
%TO.N,Net-(C7-Pad1)*%
X126725000Y-127560000D03*
D15*
%TO.P,TP7,2,2*%
%TO.N,Net-(Q7-Pad1)*%
X126725000Y-125020000D03*
%TD*%
D16*
%TO.P,RV4,1*%
%TO.N,+3V3*%
X118185000Y-91590000D03*
%TO.P,RV4,2*%
%TO.N,Net-(R7-Pad1)*%
X120725000Y-94130000D03*
%TO.P,RV4,3*%
%TO.N,N/C*%
X123265000Y-91590000D03*
%TD*%
D14*
%TO.P,J2,1,Pin_1*%
%TO.N,Net-(J2-Pad1)*%
X135950000Y-124860000D03*
D15*
%TO.P,J2,2,Pin_2*%
%TO.N,/Group-A/Group-A-Output*%
X138490000Y-124860000D03*
%TO.P,J2,3,Pin_3*%
%TO.N,Net-(J2-Pad3)*%
X135950000Y-122320000D03*
%TO.P,J2,4,Pin_4*%
%TO.N,/Group-A/Group-A-Output*%
X138490000Y-122320000D03*
%TO.P,J2,5,Pin_5*%
%TO.N,Net-(J2-Pad5)*%
X135950000Y-119780000D03*
%TO.P,J2,6,Pin_6*%
%TO.N,/Group-A/Group-A-Output*%
X138490000Y-119780000D03*
%TO.P,J2,7,Pin_7*%
%TO.N,Net-(J2-Pad7)*%
X135950000Y-117240000D03*
%TO.P,J2,8,Pin_8*%
%TO.N,/Group-A/Group-A-Output*%
X138490000Y-117240000D03*
%TD*%
D14*
%TO.P,TP1,1,1*%
%TO.N,Net-(C1-Pad1)*%
X126725000Y-54260000D03*
D15*
%TO.P,TP1,2,2*%
%TO.N,Net-(Q1-Pad1)*%
X126725000Y-51720000D03*
%TD*%
D19*
%TO.N,GND*%
X129687500Y-74597500D03*
X125225000Y-72060000D03*
X125725000Y-58260000D03*
X130687500Y-74597500D03*
X129687500Y-122097500D03*
X130687500Y-122097500D03*
X125725000Y-108060000D03*
X125225000Y-119560000D03*
X125725000Y-84060000D03*
X125725000Y-97060000D03*
X125225000Y-146860000D03*
X125725000Y-131560000D03*
D20*
%TO.N,+3V3*%
X129450500Y-129560000D03*
X132225000Y-127560000D03*
%TD*%
D21*
%TO.N,+3V3*%
X131450500Y-127560000D02*
X132225000Y-127560000D01*
X129450500Y-129560000D02*
X131450500Y-127560000D01*
%TD*%
%TA.AperFunction,Conductor*%
%TO.N,GND*%
G36*
X140159121Y-47788002D02*
G01*
X140205614Y-47841658D01*
X140217000Y-47894000D01*
X140217000Y-147726000D01*
X140196998Y-147794121D01*
X140143342Y-147840614D01*
X140091000Y-147852000D01*
X111359000Y-147852000D01*
X111290879Y-147831998D01*
X111244386Y-147778342D01*
X111233000Y-147726000D01*
X111233000Y-143921406D01*
X111888423Y-143921406D01*
X111893704Y-143928461D01*
X112070080Y-144031527D01*
X112079363Y-144035974D01*
X112286003Y-144114883D01*
X112295901Y-144117759D01*
X112512653Y-144161857D01*
X112522883Y-144163076D01*
X112743914Y-144171182D01*
X112754223Y-144170714D01*
X112973623Y-144142608D01*
X112983688Y-144140468D01*
X113195557Y-144076905D01*
X113205152Y-144073144D01*
X113403778Y-143975838D01*
X113412636Y-143970559D01*
X113470097Y-143929572D01*
X113478497Y-143918874D01*
X113471510Y-143905721D01*
X112697811Y-143132021D01*
X112683868Y-143124408D01*
X112682034Y-143124539D01*
X112675420Y-143128790D01*
X111895180Y-143909031D01*
X111888423Y-143921406D01*
X111233000Y-143921406D01*
X111233000Y-143532202D01*
X111253002Y-143464081D01*
X111306658Y-143417588D01*
X111376932Y-143407484D01*
X111441512Y-143436978D01*
X111466433Y-143466368D01*
X111515097Y-143545781D01*
X111525553Y-143555242D01*
X111534331Y-143551458D01*
X112312979Y-142772811D01*
X112319356Y-142761132D01*
X113049408Y-142761132D01*
X113049539Y-142762966D01*
X113053790Y-142769580D01*
X113779595Y-143495384D01*
X113813620Y-143557697D01*
X113816500Y-143584480D01*
X113816500Y-143708134D01*
X113823255Y-143770316D01*
X113874385Y-143906705D01*
X113961739Y-144023261D01*
X114078295Y-144110615D01*
X114214684Y-144161745D01*
X114276866Y-144168500D01*
X116173134Y-144168500D01*
X116235316Y-144161745D01*
X116371705Y-144110615D01*
X116488261Y-144023261D01*
X116569391Y-143915009D01*
X119651435Y-143915009D01*
X119651951Y-143921153D01*
X119668219Y-144114883D01*
X119668969Y-144123818D01*
X119726727Y-144325244D01*
X119822509Y-144511616D01*
X119826334Y-144516442D01*
X119826336Y-144516445D01*
X119948837Y-144671004D01*
X119948841Y-144671009D01*
X119952666Y-144675834D01*
X120112242Y-144811643D01*
X120295157Y-144913871D01*
X120494445Y-144978624D01*
X120702515Y-145003435D01*
X120708650Y-145002963D01*
X120708652Y-145002963D01*
X120905299Y-144987832D01*
X120905303Y-144987831D01*
X120911441Y-144987359D01*
X121006363Y-144960856D01*
X121107321Y-144932668D01*
X121107325Y-144932667D01*
X121113265Y-144931008D01*
X121118769Y-144928228D01*
X121118771Y-144928227D01*
X121294800Y-144839309D01*
X121294802Y-144839308D01*
X121300301Y-144836530D01*
X121465424Y-144707522D01*
X121602344Y-144548898D01*
X121705846Y-144366701D01*
X121771989Y-144167870D01*
X121772906Y-144160615D01*
X121783480Y-144076905D01*
X121798251Y-143959979D01*
X121798670Y-143930000D01*
X121778222Y-143721456D01*
X121717657Y-143520856D01*
X121619283Y-143335840D01*
X121528401Y-143224408D01*
X121490740Y-143178230D01*
X121490737Y-143178227D01*
X121486845Y-143173455D01*
X121436760Y-143132021D01*
X121330139Y-143043816D01*
X121330135Y-143043814D01*
X121325389Y-143039887D01*
X121141064Y-142940223D01*
X120940891Y-142878259D01*
X120934766Y-142877615D01*
X120934765Y-142877615D01*
X120738624Y-142857000D01*
X120738623Y-142857000D01*
X120732496Y-142856356D01*
X120659877Y-142862965D01*
X120529953Y-142874789D01*
X120529950Y-142874790D01*
X120523814Y-142875348D01*
X120517908Y-142877086D01*
X120517904Y-142877087D01*
X120370946Y-142920340D01*
X120322796Y-142934511D01*
X120317339Y-142937364D01*
X120317336Y-142937365D01*
X120306265Y-142943153D01*
X120137098Y-143031591D01*
X119973792Y-143162892D01*
X119839100Y-143323412D01*
X119836136Y-143328804D01*
X119836133Y-143328808D01*
X119825852Y-143347510D01*
X119738152Y-143507036D01*
X119736291Y-143512903D01*
X119736290Y-143512905D01*
X119716996Y-143573728D01*
X119674792Y-143706771D01*
X119651435Y-143915009D01*
X116569391Y-143915009D01*
X116575615Y-143906705D01*
X116626745Y-143770316D01*
X116633500Y-143708134D01*
X116633500Y-141811866D01*
X116626745Y-141749684D01*
X116575615Y-141613295D01*
X116488261Y-141496739D01*
X116371705Y-141409385D01*
X116280007Y-141375009D01*
X117111435Y-141375009D01*
X117114017Y-141405756D01*
X117127952Y-141571703D01*
X117128969Y-141583818D01*
X117141601Y-141627870D01*
X117179008Y-141758323D01*
X117186727Y-141785244D01*
X117189543Y-141790723D01*
X117264894Y-141937340D01*
X117282509Y-141971616D01*
X117286334Y-141976442D01*
X117286336Y-141976445D01*
X117408837Y-142131004D01*
X117408841Y-142131009D01*
X117412666Y-142135834D01*
X117572242Y-142271643D01*
X117755157Y-142373871D01*
X117954445Y-142438624D01*
X118162515Y-142463435D01*
X118168650Y-142462963D01*
X118168652Y-142462963D01*
X118365299Y-142447832D01*
X118365303Y-142447831D01*
X118371441Y-142447359D01*
X118466363Y-142420856D01*
X118567321Y-142392668D01*
X118567325Y-142392667D01*
X118573265Y-142391008D01*
X118578769Y-142388228D01*
X118578771Y-142388227D01*
X118754800Y-142299309D01*
X118754802Y-142299308D01*
X118760301Y-142296530D01*
X118925424Y-142167522D01*
X119062344Y-142008898D01*
X119082696Y-141973073D01*
X119162799Y-141832064D01*
X119165846Y-141826701D01*
X119231989Y-141627870D01*
X119258251Y-141419979D01*
X119258450Y-141405756D01*
X119258621Y-141393522D01*
X119258621Y-141393518D01*
X119258670Y-141390000D01*
X119257200Y-141375009D01*
X122191435Y-141375009D01*
X122194017Y-141405756D01*
X122207952Y-141571703D01*
X122208969Y-141583818D01*
X122221601Y-141627870D01*
X122259008Y-141758323D01*
X122266727Y-141785244D01*
X122269543Y-141790723D01*
X122344894Y-141937340D01*
X122362509Y-141971616D01*
X122366334Y-141976442D01*
X122366336Y-141976445D01*
X122488837Y-142131004D01*
X122488841Y-142131009D01*
X122492666Y-142135834D01*
X122652242Y-142271643D01*
X122835157Y-142373871D01*
X123034445Y-142438624D01*
X123242515Y-142463435D01*
X123248650Y-142462963D01*
X123248652Y-142462963D01*
X123445299Y-142447832D01*
X123445303Y-142447831D01*
X123451441Y-142447359D01*
X123546363Y-142420856D01*
X123647321Y-142392668D01*
X123647325Y-142392667D01*
X123653265Y-142391008D01*
X123658769Y-142388228D01*
X123658771Y-142388227D01*
X123834800Y-142299309D01*
X123834802Y-142299308D01*
X123840301Y-142296530D01*
X124005424Y-142167522D01*
X124142344Y-142008898D01*
X124162696Y-141973073D01*
X124242799Y-141832064D01*
X124245846Y-141826701D01*
X124311989Y-141627870D01*
X124338251Y-141419979D01*
X124338450Y-141405756D01*
X124338621Y-141393522D01*
X124338621Y-141393518D01*
X124338670Y-141390000D01*
X124318222Y-141181456D01*
X124257657Y-140980856D01*
X124159283Y-140795840D01*
X124084812Y-140704530D01*
X124030740Y-140638230D01*
X124030737Y-140638227D01*
X124026845Y-140633455D01*
X123996159Y-140608069D01*
X123870139Y-140503816D01*
X123870135Y-140503814D01*
X123865389Y-140499887D01*
X123681064Y-140400223D01*
X123480891Y-140338259D01*
X123474766Y-140337615D01*
X123474765Y-140337615D01*
X123278624Y-140317000D01*
X123278623Y-140317000D01*
X123272496Y-140316356D01*
X123195482Y-140323365D01*
X123069953Y-140334789D01*
X123069950Y-140334790D01*
X123063814Y-140335348D01*
X123057908Y-140337086D01*
X123057904Y-140337087D01*
X122910946Y-140380340D01*
X122862796Y-140394511D01*
X122857339Y-140397364D01*
X122857336Y-140397365D01*
X122846265Y-140403153D01*
X122677098Y-140491591D01*
X122513792Y-140622892D01*
X122379100Y-140783412D01*
X122376136Y-140788804D01*
X122376133Y-140788808D01*
X122369276Y-140801281D01*
X122278152Y-140967036D01*
X122276291Y-140972903D01*
X122276290Y-140972905D01*
X122246472Y-141066903D01*
X122214792Y-141166771D01*
X122191435Y-141375009D01*
X119257200Y-141375009D01*
X119238222Y-141181456D01*
X119177657Y-140980856D01*
X119079283Y-140795840D01*
X119004812Y-140704530D01*
X118950740Y-140638230D01*
X118950737Y-140638227D01*
X118946845Y-140633455D01*
X118916159Y-140608069D01*
X118790139Y-140503816D01*
X118790135Y-140503814D01*
X118785389Y-140499887D01*
X118601064Y-140400223D01*
X118400891Y-140338259D01*
X118394766Y-140337615D01*
X118394765Y-140337615D01*
X118198624Y-140317000D01*
X118198623Y-140317000D01*
X118192496Y-140316356D01*
X118115482Y-140323365D01*
X117989953Y-140334789D01*
X117989950Y-140334790D01*
X117983814Y-140335348D01*
X117977908Y-140337086D01*
X117977904Y-140337087D01*
X117830946Y-140380340D01*
X117782796Y-140394511D01*
X117777339Y-140397364D01*
X117777336Y-140397365D01*
X117766265Y-140403153D01*
X117597098Y-140491591D01*
X117433792Y-140622892D01*
X117299100Y-140783412D01*
X117296136Y-140788804D01*
X117296133Y-140788808D01*
X117289276Y-140801281D01*
X117198152Y-140967036D01*
X117196291Y-140972903D01*
X117196290Y-140972905D01*
X117166472Y-141066903D01*
X117134792Y-141166771D01*
X117111435Y-141375009D01*
X116280007Y-141375009D01*
X116235316Y-141358255D01*
X116173134Y-141351500D01*
X114276866Y-141351500D01*
X114214684Y-141358255D01*
X114078295Y-141409385D01*
X113961739Y-141496739D01*
X113874385Y-141613295D01*
X113823255Y-141749684D01*
X113816500Y-141811866D01*
X113816500Y-141935520D01*
X113796498Y-142003641D01*
X113779595Y-142024616D01*
X113057021Y-142747189D01*
X113049408Y-142761132D01*
X112319356Y-142761132D01*
X112320592Y-142758868D01*
X112320461Y-142757034D01*
X112316210Y-142750420D01*
X111538862Y-141973073D01*
X111527330Y-141966776D01*
X111515048Y-141976399D01*
X111463088Y-142052569D01*
X111408176Y-142097571D01*
X111337652Y-142105742D01*
X111273905Y-142074488D01*
X111237175Y-142013730D01*
X111233000Y-141981564D01*
X111233000Y-141600711D01*
X111890508Y-141600711D01*
X111897251Y-141613040D01*
X112672189Y-142387979D01*
X112686132Y-142395592D01*
X112687966Y-142395461D01*
X112694580Y-142391210D01*
X113473994Y-141611795D01*
X113481011Y-141598944D01*
X113473237Y-141588274D01*
X113470902Y-141586430D01*
X113462320Y-141580729D01*
X113268678Y-141473833D01*
X113259272Y-141469606D01*
X113050772Y-141395772D01*
X113040809Y-141393140D01*
X112823047Y-141354350D01*
X112812796Y-141353381D01*
X112591616Y-141350679D01*
X112581332Y-141351399D01*
X112362693Y-141384855D01*
X112352666Y-141387244D01*
X112142426Y-141455961D01*
X112132916Y-141459958D01*
X111936725Y-141562089D01*
X111928007Y-141567578D01*
X111898961Y-141589386D01*
X111890508Y-141600711D01*
X111233000Y-141600711D01*
X111233000Y-140286695D01*
X125362251Y-140286695D01*
X125362548Y-140291848D01*
X125362548Y-140291851D01*
X125368632Y-140397365D01*
X125375110Y-140509715D01*
X125376247Y-140514761D01*
X125376248Y-140514767D01*
X125396119Y-140602939D01*
X125424222Y-140727639D01*
X125508266Y-140934616D01*
X125624987Y-141125088D01*
X125771250Y-141293938D01*
X125775230Y-141297242D01*
X125779981Y-141301187D01*
X125819616Y-141360090D01*
X125821113Y-141431071D01*
X125783997Y-141491593D01*
X125743724Y-141516112D01*
X125628295Y-141559385D01*
X125511739Y-141646739D01*
X125424385Y-141763295D01*
X125373255Y-141899684D01*
X125366500Y-141961866D01*
X125366500Y-143758134D01*
X125373255Y-143820316D01*
X125424385Y-143956705D01*
X125511739Y-144073261D01*
X125628295Y-144160615D01*
X125764684Y-144211745D01*
X125826866Y-144218500D01*
X127623134Y-144218500D01*
X127685316Y-144211745D01*
X127821705Y-144160615D01*
X127863849Y-144129030D01*
X131420800Y-144129030D01*
X131426527Y-144136680D01*
X131611272Y-144249893D01*
X131620067Y-144254375D01*
X131837490Y-144344434D01*
X131846875Y-144347483D01*
X132075708Y-144402422D01*
X132085455Y-144403965D01*
X132320070Y-144422430D01*
X132329930Y-144422430D01*
X132564545Y-144403965D01*
X132574292Y-144402422D01*
X132803125Y-144347483D01*
X132812510Y-144344434D01*
X133029933Y-144254375D01*
X133038728Y-144249893D01*
X133219805Y-144138928D01*
X133229267Y-144128470D01*
X133225484Y-144119694D01*
X132337812Y-143232022D01*
X132323868Y-143224408D01*
X132322035Y-143224539D01*
X132315420Y-143228790D01*
X131427560Y-144116650D01*
X131420800Y-144129030D01*
X127863849Y-144129030D01*
X127938261Y-144073261D01*
X128025615Y-143956705D01*
X128076745Y-143820316D01*
X128083500Y-143758134D01*
X128083500Y-142864930D01*
X130762570Y-142864930D01*
X130781035Y-143099545D01*
X130782578Y-143109292D01*
X130837517Y-143338125D01*
X130840566Y-143347510D01*
X130930625Y-143564933D01*
X130935107Y-143573728D01*
X131046072Y-143754805D01*
X131056530Y-143764267D01*
X131065306Y-143760484D01*
X131952978Y-142872812D01*
X131959356Y-142861132D01*
X132689408Y-142861132D01*
X132689539Y-142862965D01*
X132693790Y-142869580D01*
X133587395Y-143763185D01*
X133598810Y-143776549D01*
X133600248Y-143778896D01*
X133603463Y-143782660D01*
X133752113Y-143956705D01*
X133759567Y-143965433D01*
X133763323Y-143968641D01*
X133940182Y-144119694D01*
X133946104Y-144124752D01*
X133950327Y-144127340D01*
X133950330Y-144127342D01*
X134009771Y-144163767D01*
X134155268Y-144252927D01*
X134299967Y-144312864D01*
X134377335Y-144344911D01*
X134377337Y-144344912D01*
X134381908Y-144346805D01*
X134452560Y-144363767D01*
X134615630Y-144402917D01*
X134615636Y-144402918D01*
X134620443Y-144404072D01*
X134865000Y-144423319D01*
X135109557Y-144404072D01*
X135114364Y-144402918D01*
X135114370Y-144402917D01*
X135277440Y-144363767D01*
X135348092Y-144346805D01*
X135352663Y-144344912D01*
X135352665Y-144344911D01*
X135430033Y-144312864D01*
X135574732Y-144252927D01*
X135720229Y-144163767D01*
X135752212Y-144144168D01*
X135820745Y-144125630D01*
X135888422Y-144147087D01*
X135918872Y-144176035D01*
X135991739Y-144273261D01*
X136108295Y-144360615D01*
X136244684Y-144411745D01*
X136306866Y-144418500D01*
X138503134Y-144418500D01*
X138565316Y-144411745D01*
X138701705Y-144360615D01*
X138818261Y-144273261D01*
X138905615Y-144156705D01*
X138956745Y-144020316D01*
X138963500Y-143958134D01*
X138963500Y-141761866D01*
X138956745Y-141699684D01*
X138905615Y-141563295D01*
X138818261Y-141446739D01*
X138701705Y-141359385D01*
X138565316Y-141308255D01*
X138503134Y-141301500D01*
X136306866Y-141301500D01*
X136244684Y-141308255D01*
X136108295Y-141359385D01*
X135991739Y-141446739D01*
X135958645Y-141490896D01*
X135918872Y-141543965D01*
X135862012Y-141586479D01*
X135791194Y-141591504D01*
X135752212Y-141575832D01*
X135700209Y-141543965D01*
X135574732Y-141467073D01*
X135426701Y-141405756D01*
X135352665Y-141375089D01*
X135352663Y-141375088D01*
X135348092Y-141373195D01*
X135254306Y-141350679D01*
X135114370Y-141317083D01*
X135114364Y-141317082D01*
X135109557Y-141315928D01*
X134865000Y-141296681D01*
X134620443Y-141315928D01*
X134615636Y-141317082D01*
X134615630Y-141317083D01*
X134475694Y-141350679D01*
X134381908Y-141373195D01*
X134377337Y-141375088D01*
X134377335Y-141375089D01*
X134303299Y-141405756D01*
X134155268Y-141467073D01*
X134029791Y-141543965D01*
X133950330Y-141592658D01*
X133950327Y-141592660D01*
X133946104Y-141595248D01*
X133942340Y-141598463D01*
X133942337Y-141598465D01*
X133863911Y-141665448D01*
X133759567Y-141754567D01*
X133756359Y-141758323D01*
X133750415Y-141765283D01*
X133600248Y-141941104D01*
X133598810Y-141943451D01*
X133587395Y-141956815D01*
X132697022Y-142847188D01*
X132689408Y-142861132D01*
X131959356Y-142861132D01*
X131960592Y-142858868D01*
X131960461Y-142857035D01*
X131956210Y-142850420D01*
X131068350Y-141962560D01*
X131055970Y-141955800D01*
X131048320Y-141961527D01*
X130935107Y-142146272D01*
X130930625Y-142155067D01*
X130840566Y-142372490D01*
X130837517Y-142381875D01*
X130782578Y-142610708D01*
X130781035Y-142620455D01*
X130762570Y-142855070D01*
X130762570Y-142864930D01*
X128083500Y-142864930D01*
X128083500Y-141961866D01*
X128076745Y-141899684D01*
X128025615Y-141763295D01*
X127938261Y-141646739D01*
X127864596Y-141591530D01*
X131420733Y-141591530D01*
X131424516Y-141600306D01*
X132312188Y-142487978D01*
X132326132Y-142495592D01*
X132327965Y-142495461D01*
X132334580Y-142491210D01*
X133222440Y-141603350D01*
X133229200Y-141590970D01*
X133223473Y-141583320D01*
X133038728Y-141470107D01*
X133029933Y-141465625D01*
X132812510Y-141375566D01*
X132803125Y-141372517D01*
X132574292Y-141317578D01*
X132564545Y-141316035D01*
X132329930Y-141297570D01*
X132320070Y-141297570D01*
X132085455Y-141316035D01*
X132075708Y-141317578D01*
X131846875Y-141372517D01*
X131837490Y-141375566D01*
X131620067Y-141465625D01*
X131611272Y-141470107D01*
X131430195Y-141581072D01*
X131420733Y-141591530D01*
X127864596Y-141591530D01*
X127821705Y-141559385D01*
X127809132Y-141554672D01*
X127703203Y-141514960D01*
X127646439Y-141472318D01*
X127621739Y-141405756D01*
X127636947Y-141336408D01*
X127658493Y-141307727D01*
X127658819Y-141307402D01*
X127763096Y-141203489D01*
X127789481Y-141166771D01*
X127890435Y-141026277D01*
X127893453Y-141022077D01*
X127992430Y-140821811D01*
X128051433Y-140627611D01*
X128055865Y-140613023D01*
X128055865Y-140613021D01*
X128057370Y-140608069D01*
X128086529Y-140386590D01*
X128086611Y-140383240D01*
X128088074Y-140323365D01*
X128088074Y-140323361D01*
X128088156Y-140320000D01*
X128069852Y-140097361D01*
X128015431Y-139880702D01*
X127926354Y-139675840D01*
X127805014Y-139488277D01*
X127654670Y-139323051D01*
X127650619Y-139319852D01*
X127650615Y-139319848D01*
X127483414Y-139187800D01*
X127483410Y-139187798D01*
X127479359Y-139184598D01*
X127283789Y-139076638D01*
X127278920Y-139074914D01*
X127278916Y-139074912D01*
X127078087Y-139003795D01*
X127078083Y-139003794D01*
X127073212Y-139002069D01*
X127068119Y-139001162D01*
X127068116Y-139001161D01*
X126858373Y-138963800D01*
X126858367Y-138963799D01*
X126853284Y-138962894D01*
X126779452Y-138961992D01*
X126635081Y-138960228D01*
X126635079Y-138960228D01*
X126629911Y-138960165D01*
X126409091Y-138993955D01*
X126196756Y-139063357D01*
X125998607Y-139166507D01*
X125994474Y-139169610D01*
X125994471Y-139169612D01*
X125970247Y-139187800D01*
X125819965Y-139300635D01*
X125665629Y-139462138D01*
X125539743Y-139646680D01*
X125445688Y-139849305D01*
X125385989Y-140064570D01*
X125362251Y-140286695D01*
X111233000Y-140286695D01*
X111233000Y-134208504D01*
X131421500Y-134208504D01*
X131436277Y-134359213D01*
X131494858Y-134553242D01*
X131590010Y-134732198D01*
X131718110Y-134889263D01*
X131722857Y-134893190D01*
X131722859Y-134893192D01*
X131869528Y-135014527D01*
X131869531Y-135014529D01*
X131874278Y-135018456D01*
X132052565Y-135114856D01*
X132149372Y-135144823D01*
X132240293Y-135172968D01*
X132240296Y-135172969D01*
X132246180Y-135174790D01*
X132252305Y-135175434D01*
X132252306Y-135175434D01*
X132441622Y-135195332D01*
X132441623Y-135195332D01*
X132447750Y-135195976D01*
X132531014Y-135188398D01*
X132643457Y-135178165D01*
X132643460Y-135178164D01*
X132649596Y-135177606D01*
X132655502Y-135175868D01*
X132655506Y-135175867D01*
X132838120Y-135122120D01*
X132838119Y-135122120D01*
X132844029Y-135120381D01*
X132849486Y-135117528D01*
X132849489Y-135117527D01*
X133018181Y-135029338D01*
X133018185Y-135029335D01*
X133023645Y-135026481D01*
X133023897Y-135026279D01*
X133089912Y-135006299D01*
X133150885Y-135021459D01*
X133317342Y-135111462D01*
X133328647Y-135116214D01*
X133453692Y-135154922D01*
X133467795Y-135155128D01*
X133471000Y-135148373D01*
X133471000Y-134730634D01*
X133961500Y-134730634D01*
X133968255Y-134792816D01*
X133971029Y-134800215D01*
X133972856Y-134807900D01*
X133972416Y-134808005D01*
X133979000Y-134844320D01*
X133979000Y-135141486D01*
X133982973Y-135155017D01*
X133990768Y-135156137D01*
X134107933Y-135121654D01*
X134108440Y-135121449D01*
X134108724Y-135121421D01*
X134113841Y-135119915D01*
X134114127Y-135120888D01*
X134179094Y-135114475D01*
X134216131Y-135127746D01*
X134223295Y-135133115D01*
X134359684Y-135184245D01*
X134421866Y-135191000D01*
X135568134Y-135191000D01*
X135630316Y-135184245D01*
X135766705Y-135133115D01*
X135883261Y-135045761D01*
X135970615Y-134929205D01*
X136021745Y-134792816D01*
X136028500Y-134730634D01*
X136028500Y-133134366D01*
X136021745Y-133072184D01*
X135970615Y-132935795D01*
X135883261Y-132819239D01*
X135766705Y-132731885D01*
X135630316Y-132680755D01*
X135568134Y-132674000D01*
X134421866Y-132674000D01*
X134359684Y-132680755D01*
X134343466Y-132686835D01*
X134231699Y-132728734D01*
X134231696Y-132728736D01*
X134223295Y-132731885D01*
X134216112Y-132737268D01*
X134215247Y-132737742D01*
X134145890Y-132752911D01*
X134117478Y-132747587D01*
X133996307Y-132710078D01*
X133982205Y-132709872D01*
X133979000Y-132716627D01*
X133979000Y-133020680D01*
X133972416Y-133056995D01*
X133972856Y-133057100D01*
X133971029Y-133064784D01*
X133968255Y-133072184D01*
X133961500Y-133134366D01*
X133961500Y-134730634D01*
X133471000Y-134730634D01*
X133471000Y-134378742D01*
X133471785Y-134364697D01*
X133488107Y-134219183D01*
X133488500Y-134215683D01*
X133488500Y-133656496D01*
X133473723Y-133505787D01*
X133473032Y-133503498D01*
X133471000Y-133482776D01*
X133471000Y-132723514D01*
X133467027Y-132709983D01*
X133459232Y-132708863D01*
X133342068Y-132743346D01*
X133330700Y-132747939D01*
X133162093Y-132836084D01*
X133159017Y-132838097D01*
X133157178Y-132838654D01*
X133156630Y-132838940D01*
X133156576Y-132838836D01*
X133091064Y-132858661D01*
X133030094Y-132843501D01*
X132998502Y-132826419D01*
X132857435Y-132750144D01*
X132724078Y-132708863D01*
X132669707Y-132692032D01*
X132669704Y-132692031D01*
X132663820Y-132690210D01*
X132657695Y-132689566D01*
X132657694Y-132689566D01*
X132468378Y-132669668D01*
X132468377Y-132669668D01*
X132462250Y-132669024D01*
X132378986Y-132676602D01*
X132266543Y-132686835D01*
X132266540Y-132686836D01*
X132260404Y-132687394D01*
X132254498Y-132689132D01*
X132254494Y-132689133D01*
X132161079Y-132716627D01*
X132065971Y-132744619D01*
X132060514Y-132747472D01*
X132060511Y-132747473D01*
X131976163Y-132791569D01*
X131886355Y-132838519D01*
X131728399Y-132965519D01*
X131598119Y-133120781D01*
X131595155Y-133126173D01*
X131595152Y-133126177D01*
X131588772Y-133137783D01*
X131500477Y-133298391D01*
X131439193Y-133491584D01*
X131438507Y-133497701D01*
X131438506Y-133497705D01*
X131436912Y-133511918D01*
X131421500Y-133649317D01*
X131421500Y-134208504D01*
X111233000Y-134208504D01*
X111233000Y-128615009D01*
X119651435Y-128615009D01*
X119651951Y-128621153D01*
X119665176Y-128778642D01*
X119668969Y-128823818D01*
X119726727Y-129025244D01*
X119822509Y-129211616D01*
X119826334Y-129216442D01*
X119826336Y-129216445D01*
X119948837Y-129371004D01*
X119948841Y-129371009D01*
X119952666Y-129375834D01*
X120112242Y-129511643D01*
X120295157Y-129613871D01*
X120494445Y-129678624D01*
X120702515Y-129703435D01*
X120708650Y-129702963D01*
X120708652Y-129702963D01*
X120905299Y-129687832D01*
X120905303Y-129687831D01*
X120911441Y-129687359D01*
X121006363Y-129660856D01*
X121107321Y-129632668D01*
X121107325Y-129632667D01*
X121113265Y-129631008D01*
X121118769Y-129628228D01*
X121118771Y-129628227D01*
X121253838Y-129560000D01*
X128137002Y-129560000D01*
X128156957Y-129788087D01*
X128216216Y-130009243D01*
X128218539Y-130014224D01*
X128218539Y-130014225D01*
X128310651Y-130211762D01*
X128310654Y-130211767D01*
X128312977Y-130216749D01*
X128444302Y-130404300D01*
X128606200Y-130566198D01*
X128610708Y-130569355D01*
X128610711Y-130569357D01*
X128688889Y-130624098D01*
X128793751Y-130697523D01*
X128798733Y-130699846D01*
X128798738Y-130699849D01*
X128996275Y-130791961D01*
X129001257Y-130794284D01*
X129006565Y-130795706D01*
X129006567Y-130795707D01*
X129217098Y-130852119D01*
X129217100Y-130852119D01*
X129222413Y-130853543D01*
X129450500Y-130873498D01*
X129678587Y-130853543D01*
X129683900Y-130852119D01*
X129683902Y-130852119D01*
X129894433Y-130795707D01*
X129894435Y-130795706D01*
X129899743Y-130794284D01*
X129904725Y-130791961D01*
X130102262Y-130699849D01*
X130102267Y-130699846D01*
X130107249Y-130697523D01*
X130212111Y-130624098D01*
X130290289Y-130569357D01*
X130290292Y-130569355D01*
X130294800Y-130566198D01*
X130456698Y-130404300D01*
X130588023Y-130216749D01*
X130590346Y-130211767D01*
X130590349Y-130211762D01*
X130682461Y-130014225D01*
X130682461Y-130014224D01*
X130684784Y-130009243D01*
X130744043Y-129788087D01*
X130763998Y-129560000D01*
X130749745Y-129397087D01*
X130763734Y-129327482D01*
X130786171Y-129297010D01*
X131386096Y-128697085D01*
X131448408Y-128663059D01*
X131519223Y-128668124D01*
X131547460Y-128682965D01*
X131568251Y-128697523D01*
X131573233Y-128699846D01*
X131573238Y-128699849D01*
X131742212Y-128778642D01*
X131775757Y-128794284D01*
X131781065Y-128795706D01*
X131781067Y-128795707D01*
X131991598Y-128852119D01*
X131991600Y-128852119D01*
X131996913Y-128853543D01*
X132225000Y-128873498D01*
X132453087Y-128853543D01*
X132458400Y-128852119D01*
X132458402Y-128852119D01*
X132668933Y-128795707D01*
X132668935Y-128795706D01*
X132674243Y-128794284D01*
X132707788Y-128778642D01*
X132876762Y-128699849D01*
X132876767Y-128699846D01*
X132881749Y-128697523D01*
X133008338Y-128608884D01*
X133064789Y-128569357D01*
X133064792Y-128569355D01*
X133069300Y-128566198D01*
X133231198Y-128404300D01*
X133362523Y-128216749D01*
X133364846Y-128211767D01*
X133364849Y-128211762D01*
X133456961Y-128014225D01*
X133456961Y-128014224D01*
X133459284Y-128009243D01*
X133497235Y-127867611D01*
X133517119Y-127793402D01*
X133517119Y-127793400D01*
X133518543Y-127788087D01*
X133538498Y-127560000D01*
X133518543Y-127331913D01*
X133468647Y-127145701D01*
X133460707Y-127116067D01*
X133460706Y-127116065D01*
X133459284Y-127110757D01*
X133422372Y-127031598D01*
X133364849Y-126908238D01*
X133364846Y-126908233D01*
X133362523Y-126903251D01*
X133231198Y-126715700D01*
X133069300Y-126553802D01*
X133064792Y-126550645D01*
X133064789Y-126550643D01*
X132929780Y-126456109D01*
X132881749Y-126422477D01*
X132876767Y-126420154D01*
X132876762Y-126420151D01*
X132679225Y-126328039D01*
X132679224Y-126328039D01*
X132674243Y-126325716D01*
X132668935Y-126324294D01*
X132668933Y-126324293D01*
X132458402Y-126267881D01*
X132458400Y-126267881D01*
X132453087Y-126266457D01*
X132225000Y-126246502D01*
X131996913Y-126266457D01*
X131991600Y-126267881D01*
X131991598Y-126267881D01*
X131781067Y-126324293D01*
X131781065Y-126324294D01*
X131775757Y-126325716D01*
X131770776Y-126328039D01*
X131770775Y-126328039D01*
X131573238Y-126420151D01*
X131573233Y-126420154D01*
X131568251Y-126422477D01*
X131520220Y-126456109D01*
X131385211Y-126550643D01*
X131385208Y-126550645D01*
X131380700Y-126553802D01*
X131218802Y-126715700D01*
X131215645Y-126720209D01*
X131215643Y-126720211D01*
X131117229Y-126860760D01*
X131083106Y-126893857D01*
X131047492Y-126917207D01*
X131043812Y-126919529D01*
X130981393Y-126957405D01*
X130973016Y-126964803D01*
X130972992Y-126964776D01*
X130970000Y-126967429D01*
X130966767Y-126970132D01*
X130960648Y-126974144D01*
X130936809Y-126999309D01*
X130907372Y-127030383D01*
X130904994Y-127032825D01*
X129713490Y-128224329D01*
X129651178Y-128258355D01*
X129613413Y-128260755D01*
X129455975Y-128246981D01*
X129450500Y-128246502D01*
X129222413Y-128266457D01*
X129217100Y-128267881D01*
X129217098Y-128267881D01*
X129006567Y-128324293D01*
X129006565Y-128324294D01*
X129001257Y-128325716D01*
X128996276Y-128328039D01*
X128996275Y-128328039D01*
X128798738Y-128420151D01*
X128798733Y-128420154D01*
X128793751Y-128422477D01*
X128688889Y-128495902D01*
X128610711Y-128550643D01*
X128610708Y-128550645D01*
X128606200Y-128553802D01*
X128444302Y-128715700D01*
X128312977Y-128903251D01*
X128310654Y-128908233D01*
X128310651Y-128908238D01*
X128234259Y-129072064D01*
X128216216Y-129110757D01*
X128214794Y-129116065D01*
X128214793Y-129116067D01*
X128179201Y-129248898D01*
X128156957Y-129331913D01*
X128137002Y-129560000D01*
X121253838Y-129560000D01*
X121294800Y-129539309D01*
X121294802Y-129539308D01*
X121300301Y-129536530D01*
X121465424Y-129407522D01*
X121602344Y-129248898D01*
X121705846Y-129066701D01*
X121771989Y-128867870D01*
X121772906Y-128860615D01*
X121783261Y-128778642D01*
X121798251Y-128659979D01*
X121798670Y-128630000D01*
X121778222Y-128421456D01*
X121717657Y-128220856D01*
X121619283Y-128035840D01*
X121534207Y-127931527D01*
X121490740Y-127878230D01*
X121490737Y-127878227D01*
X121486845Y-127873455D01*
X121420868Y-127818874D01*
X121330139Y-127743816D01*
X121330135Y-127743814D01*
X121325389Y-127739887D01*
X121141064Y-127640223D01*
X120940891Y-127578259D01*
X120934766Y-127577615D01*
X120934765Y-127577615D01*
X120738624Y-127557000D01*
X120738623Y-127557000D01*
X120732496Y-127556356D01*
X120646138Y-127564215D01*
X120529953Y-127574789D01*
X120529950Y-127574790D01*
X120523814Y-127575348D01*
X120517908Y-127577086D01*
X120517904Y-127577087D01*
X120424027Y-127604717D01*
X120322796Y-127634511D01*
X120317339Y-127637364D01*
X120317336Y-127637365D01*
X120306265Y-127643153D01*
X120137098Y-127731591D01*
X119973792Y-127862892D01*
X119839100Y-128023412D01*
X119836136Y-128028804D01*
X119836133Y-128028808D01*
X119812838Y-128071182D01*
X119738152Y-128207036D01*
X119736291Y-128212903D01*
X119736290Y-128212905D01*
X119721111Y-128260755D01*
X119674792Y-128406771D01*
X119651435Y-128615009D01*
X111233000Y-128615009D01*
X111233000Y-127821406D01*
X111888423Y-127821406D01*
X111893704Y-127828461D01*
X112070080Y-127931527D01*
X112079363Y-127935974D01*
X112286003Y-128014883D01*
X112295901Y-128017759D01*
X112512653Y-128061857D01*
X112522883Y-128063076D01*
X112743914Y-128071182D01*
X112754223Y-128070714D01*
X112973623Y-128042608D01*
X112983688Y-128040468D01*
X113195557Y-127976905D01*
X113205152Y-127973144D01*
X113403778Y-127875838D01*
X113412636Y-127870559D01*
X113470097Y-127829572D01*
X113478497Y-127818874D01*
X113471510Y-127805721D01*
X112697811Y-127032021D01*
X112683868Y-127024408D01*
X112682034Y-127024539D01*
X112675420Y-127028790D01*
X111895180Y-127809031D01*
X111888423Y-127821406D01*
X111233000Y-127821406D01*
X111233000Y-127432202D01*
X111253002Y-127364081D01*
X111306658Y-127317588D01*
X111376932Y-127307484D01*
X111441512Y-127336978D01*
X111466433Y-127366368D01*
X111515097Y-127445781D01*
X111525553Y-127455242D01*
X111534331Y-127451458D01*
X112312979Y-126672811D01*
X112319356Y-126661132D01*
X113049408Y-126661132D01*
X113049539Y-126662966D01*
X113053790Y-126669580D01*
X113779595Y-127395384D01*
X113813620Y-127457697D01*
X113816500Y-127484480D01*
X113816500Y-127608134D01*
X113823255Y-127670316D01*
X113874385Y-127806705D01*
X113961739Y-127923261D01*
X114078295Y-128010615D01*
X114214684Y-128061745D01*
X114276866Y-128068500D01*
X116173134Y-128068500D01*
X116235316Y-128061745D01*
X116371705Y-128010615D01*
X116488261Y-127923261D01*
X116575615Y-127806705D01*
X116626745Y-127670316D01*
X116633500Y-127608134D01*
X116633500Y-126075009D01*
X117111435Y-126075009D01*
X117111951Y-126081153D01*
X117127631Y-126267881D01*
X117128969Y-126283818D01*
X117140575Y-126324293D01*
X117178373Y-126456109D01*
X117186727Y-126485244D01*
X117221961Y-126553802D01*
X117278064Y-126662966D01*
X117282509Y-126671616D01*
X117286334Y-126676442D01*
X117286336Y-126676445D01*
X117408837Y-126831004D01*
X117408841Y-126831009D01*
X117412666Y-126835834D01*
X117572242Y-126971643D01*
X117577620Y-126974649D01*
X117577622Y-126974650D01*
X117609980Y-126992734D01*
X117755157Y-127073871D01*
X117954445Y-127138624D01*
X118162515Y-127163435D01*
X118168650Y-127162963D01*
X118168652Y-127162963D01*
X118365299Y-127147832D01*
X118365303Y-127147831D01*
X118371441Y-127147359D01*
X118502533Y-127110757D01*
X118567321Y-127092668D01*
X118567325Y-127092667D01*
X118573265Y-127091008D01*
X118578769Y-127088228D01*
X118578771Y-127088227D01*
X118754800Y-126999309D01*
X118754802Y-126999308D01*
X118760301Y-126996530D01*
X118925424Y-126867522D01*
X119062344Y-126708898D01*
X119097400Y-126647189D01*
X119128589Y-126592285D01*
X119165846Y-126526701D01*
X119231989Y-126327870D01*
X119258251Y-126119979D01*
X119258670Y-126090000D01*
X119257200Y-126075009D01*
X122191435Y-126075009D01*
X122191951Y-126081153D01*
X122207631Y-126267881D01*
X122208969Y-126283818D01*
X122220575Y-126324293D01*
X122258373Y-126456109D01*
X122266727Y-126485244D01*
X122301961Y-126553802D01*
X122358064Y-126662966D01*
X122362509Y-126671616D01*
X122366334Y-126676442D01*
X122366336Y-126676445D01*
X122488837Y-126831004D01*
X122488841Y-126831009D01*
X122492666Y-126835834D01*
X122652242Y-126971643D01*
X122657620Y-126974649D01*
X122657622Y-126974650D01*
X122689980Y-126992734D01*
X122835157Y-127073871D01*
X123034445Y-127138624D01*
X123242515Y-127163435D01*
X123248650Y-127162963D01*
X123248652Y-127162963D01*
X123445299Y-127147832D01*
X123445303Y-127147831D01*
X123451441Y-127147359D01*
X123582533Y-127110757D01*
X123647321Y-127092668D01*
X123647325Y-127092667D01*
X123653265Y-127091008D01*
X123658769Y-127088228D01*
X123658771Y-127088227D01*
X123834800Y-126999309D01*
X123834802Y-126999308D01*
X123840301Y-126996530D01*
X124005424Y-126867522D01*
X124142344Y-126708898D01*
X124177400Y-126647189D01*
X124208589Y-126592285D01*
X124245846Y-126526701D01*
X124311989Y-126327870D01*
X124338251Y-126119979D01*
X124338670Y-126090000D01*
X124318222Y-125881456D01*
X124257657Y-125680856D01*
X124159283Y-125495840D01*
X124074070Y-125391358D01*
X124030740Y-125338230D01*
X124030737Y-125338227D01*
X124026845Y-125333455D01*
X124002147Y-125313023D01*
X123870139Y-125203816D01*
X123870135Y-125203814D01*
X123865389Y-125199887D01*
X123681064Y-125100223D01*
X123480891Y-125038259D01*
X123474766Y-125037615D01*
X123474765Y-125037615D01*
X123278624Y-125017000D01*
X123278623Y-125017000D01*
X123272496Y-125016356D01*
X123195482Y-125023365D01*
X123069953Y-125034789D01*
X123069950Y-125034790D01*
X123063814Y-125035348D01*
X123057908Y-125037086D01*
X123057904Y-125037087D01*
X122910946Y-125080340D01*
X122862796Y-125094511D01*
X122857339Y-125097364D01*
X122857336Y-125097365D01*
X122846265Y-125103153D01*
X122677098Y-125191591D01*
X122513792Y-125322892D01*
X122379100Y-125483412D01*
X122376136Y-125488804D01*
X122376133Y-125488808D01*
X122298607Y-125629829D01*
X122278152Y-125667036D01*
X122276291Y-125672903D01*
X122276290Y-125672905D01*
X122252742Y-125747137D01*
X122214792Y-125866771D01*
X122191435Y-126075009D01*
X119257200Y-126075009D01*
X119238222Y-125881456D01*
X119177657Y-125680856D01*
X119079283Y-125495840D01*
X118994070Y-125391358D01*
X118950740Y-125338230D01*
X118950737Y-125338227D01*
X118946845Y-125333455D01*
X118922147Y-125313023D01*
X118790139Y-125203816D01*
X118790135Y-125203814D01*
X118785389Y-125199887D01*
X118601064Y-125100223D01*
X118400891Y-125038259D01*
X118394766Y-125037615D01*
X118394765Y-125037615D01*
X118198624Y-125017000D01*
X118198623Y-125017000D01*
X118192496Y-125016356D01*
X118115482Y-125023365D01*
X117989953Y-125034789D01*
X117989950Y-125034790D01*
X117983814Y-125035348D01*
X117977908Y-125037086D01*
X117977904Y-125037087D01*
X117830946Y-125080340D01*
X117782796Y-125094511D01*
X117777339Y-125097364D01*
X117777336Y-125097365D01*
X117766265Y-125103153D01*
X117597098Y-125191591D01*
X117433792Y-125322892D01*
X117299100Y-125483412D01*
X117296136Y-125488804D01*
X117296133Y-125488808D01*
X117218607Y-125629829D01*
X117198152Y-125667036D01*
X117196291Y-125672903D01*
X117196290Y-125672905D01*
X117172742Y-125747137D01*
X117134792Y-125866771D01*
X117111435Y-126075009D01*
X116633500Y-126075009D01*
X116633500Y-125711866D01*
X116626745Y-125649684D01*
X116575615Y-125513295D01*
X116488261Y-125396739D01*
X116371705Y-125309385D01*
X116235316Y-125258255D01*
X116173134Y-125251500D01*
X114276866Y-125251500D01*
X114214684Y-125258255D01*
X114078295Y-125309385D01*
X113961739Y-125396739D01*
X113874385Y-125513295D01*
X113823255Y-125649684D01*
X113816500Y-125711866D01*
X113816500Y-125835520D01*
X113796498Y-125903641D01*
X113779595Y-125924616D01*
X113057021Y-126647189D01*
X113049408Y-126661132D01*
X112319356Y-126661132D01*
X112320592Y-126658868D01*
X112320461Y-126657034D01*
X112316210Y-126650420D01*
X111538862Y-125873073D01*
X111527330Y-125866776D01*
X111515048Y-125876399D01*
X111463088Y-125952569D01*
X111408176Y-125997571D01*
X111337652Y-126005742D01*
X111273905Y-125974488D01*
X111237175Y-125913730D01*
X111233000Y-125881564D01*
X111233000Y-125500711D01*
X111890508Y-125500711D01*
X111897251Y-125513040D01*
X112672189Y-126287979D01*
X112686132Y-126295592D01*
X112687966Y-126295461D01*
X112694580Y-126291210D01*
X113473994Y-125511795D01*
X113481011Y-125498944D01*
X113473237Y-125488274D01*
X113470902Y-125486430D01*
X113462320Y-125480729D01*
X113268678Y-125373833D01*
X113259272Y-125369606D01*
X113050772Y-125295772D01*
X113040809Y-125293140D01*
X112823047Y-125254350D01*
X112812796Y-125253381D01*
X112591616Y-125250679D01*
X112581332Y-125251399D01*
X112362693Y-125284855D01*
X112352666Y-125287244D01*
X112142426Y-125355961D01*
X112132916Y-125359958D01*
X111936725Y-125462089D01*
X111928007Y-125467578D01*
X111898961Y-125489386D01*
X111890508Y-125500711D01*
X111233000Y-125500711D01*
X111233000Y-124986695D01*
X125362251Y-124986695D01*
X125362548Y-124991848D01*
X125362548Y-124991851D01*
X125371841Y-125153023D01*
X125375110Y-125209715D01*
X125376247Y-125214761D01*
X125376248Y-125214767D01*
X125385169Y-125254350D01*
X125424222Y-125427639D01*
X125508266Y-125634616D01*
X125533269Y-125675417D01*
X125622063Y-125820316D01*
X125624987Y-125825088D01*
X125771250Y-125993938D01*
X125775230Y-125997242D01*
X125779981Y-126001187D01*
X125819616Y-126060090D01*
X125821113Y-126131071D01*
X125783997Y-126191593D01*
X125743725Y-126216112D01*
X125730428Y-126221097D01*
X125628295Y-126259385D01*
X125511739Y-126346739D01*
X125424385Y-126463295D01*
X125373255Y-126599684D01*
X125366500Y-126661866D01*
X125366500Y-128458134D01*
X125373255Y-128520316D01*
X125424385Y-128656705D01*
X125511739Y-128773261D01*
X125628295Y-128860615D01*
X125764684Y-128911745D01*
X125826866Y-128918500D01*
X127623134Y-128918500D01*
X127685316Y-128911745D01*
X127821705Y-128860615D01*
X127938261Y-128773261D01*
X128025615Y-128656705D01*
X128076745Y-128520316D01*
X128083500Y-128458134D01*
X128083500Y-126661866D01*
X128076745Y-126599684D01*
X128025615Y-126463295D01*
X127938261Y-126346739D01*
X127821705Y-126259385D01*
X127809132Y-126254672D01*
X127703203Y-126214960D01*
X127646439Y-126172318D01*
X127621739Y-126105756D01*
X127636947Y-126036408D01*
X127658493Y-126007727D01*
X127691848Y-125974488D01*
X127763096Y-125903489D01*
X127789481Y-125866771D01*
X127890435Y-125726277D01*
X127893453Y-125722077D01*
X127900179Y-125708469D01*
X127990136Y-125526453D01*
X127990137Y-125526451D01*
X127992430Y-125521811D01*
X128051433Y-125327611D01*
X128055865Y-125313023D01*
X128055865Y-125313021D01*
X128057370Y-125308069D01*
X128086529Y-125086590D01*
X128086611Y-125083240D01*
X128088074Y-125023365D01*
X128088074Y-125023361D01*
X128088156Y-125020000D01*
X128069852Y-124797361D01*
X128015431Y-124580702D01*
X127926354Y-124375840D01*
X127825918Y-124220590D01*
X127807822Y-124192617D01*
X127807820Y-124192614D01*
X127805014Y-124188277D01*
X127654670Y-124023051D01*
X127650619Y-124019852D01*
X127650615Y-124019848D01*
X127483414Y-123887800D01*
X127483410Y-123887798D01*
X127479359Y-123884598D01*
X127283789Y-123776638D01*
X127278920Y-123774914D01*
X127278916Y-123774912D01*
X127078087Y-123703795D01*
X127078083Y-123703794D01*
X127073212Y-123702069D01*
X127068119Y-123701162D01*
X127068116Y-123701161D01*
X126858373Y-123663800D01*
X126858367Y-123663799D01*
X126853284Y-123662894D01*
X126779452Y-123661992D01*
X126635081Y-123660228D01*
X126635079Y-123660228D01*
X126629911Y-123660165D01*
X126409091Y-123693955D01*
X126196756Y-123763357D01*
X126166443Y-123779137D01*
X126048307Y-123840635D01*
X125998607Y-123866507D01*
X125994474Y-123869610D01*
X125994471Y-123869612D01*
X125824100Y-123997530D01*
X125819965Y-124000635D01*
X125665629Y-124162138D01*
X125539743Y-124346680D01*
X125445688Y-124549305D01*
X125385989Y-124764570D01*
X125362251Y-124986695D01*
X111233000Y-124986695D01*
X111233000Y-122286695D01*
X134587251Y-122286695D01*
X134587548Y-122291848D01*
X134587548Y-122291851D01*
X134593011Y-122386590D01*
X134600110Y-122509715D01*
X134601247Y-122514761D01*
X134601248Y-122514767D01*
X134621119Y-122602939D01*
X134649222Y-122727639D01*
X134733266Y-122934616D01*
X134784019Y-123017438D01*
X134847291Y-123120688D01*
X134849987Y-123125088D01*
X134996250Y-123293938D01*
X135000230Y-123297242D01*
X135004981Y-123301187D01*
X135044616Y-123360090D01*
X135046113Y-123431071D01*
X135008997Y-123491593D01*
X134968725Y-123516112D01*
X134880095Y-123549338D01*
X134853295Y-123559385D01*
X134736739Y-123646739D01*
X134649385Y-123763295D01*
X134598255Y-123899684D01*
X134591500Y-123961866D01*
X134591500Y-125758134D01*
X134598255Y-125820316D01*
X134649385Y-125956705D01*
X134736739Y-126073261D01*
X134853295Y-126160615D01*
X134989684Y-126211745D01*
X135051866Y-126218500D01*
X136848134Y-126218500D01*
X136910316Y-126211745D01*
X137046705Y-126160615D01*
X137163261Y-126073261D01*
X137250615Y-125956705D01*
X137272799Y-125897529D01*
X137294598Y-125839382D01*
X137337240Y-125782618D01*
X137403802Y-125757918D01*
X137473150Y-125773126D01*
X137507817Y-125801114D01*
X137536250Y-125833938D01*
X137708126Y-125976632D01*
X137901000Y-126089338D01*
X137905825Y-126091180D01*
X137905826Y-126091181D01*
X137943994Y-126105756D01*
X138109692Y-126169030D01*
X138114760Y-126170061D01*
X138114763Y-126170062D01*
X138217166Y-126190896D01*
X138328597Y-126213567D01*
X138333772Y-126213757D01*
X138333774Y-126213757D01*
X138546673Y-126221564D01*
X138546677Y-126221564D01*
X138551837Y-126221753D01*
X138556957Y-126221097D01*
X138556959Y-126221097D01*
X138768288Y-126194025D01*
X138768289Y-126194025D01*
X138773416Y-126193368D01*
X138778366Y-126191883D01*
X138982429Y-126130661D01*
X138982434Y-126130659D01*
X138987384Y-126129174D01*
X139187994Y-126030896D01*
X139369860Y-125901173D01*
X139398059Y-125873073D01*
X139513616Y-125757918D01*
X139528096Y-125743489D01*
X139546816Y-125717438D01*
X139655435Y-125566277D01*
X139658453Y-125562077D01*
X139676060Y-125526453D01*
X139755136Y-125366453D01*
X139755137Y-125366451D01*
X139757430Y-125361811D01*
X139802106Y-125214767D01*
X139820865Y-125153023D01*
X139820865Y-125153021D01*
X139822370Y-125148069D01*
X139851529Y-124926590D01*
X139853156Y-124860000D01*
X139834852Y-124637361D01*
X139780431Y-124420702D01*
X139691354Y-124215840D01*
X139570014Y-124028277D01*
X139419670Y-123863051D01*
X139415619Y-123859852D01*
X139415615Y-123859848D01*
X139248414Y-123727800D01*
X139248410Y-123727798D01*
X139244359Y-123724598D01*
X139203053Y-123701796D01*
X139153084Y-123651364D01*
X139138312Y-123581921D01*
X139163428Y-123515516D01*
X139190780Y-123488909D01*
X139234603Y-123457650D01*
X139369860Y-123361173D01*
X139528096Y-123203489D01*
X139587594Y-123120689D01*
X139655435Y-123026277D01*
X139658453Y-123022077D01*
X139679320Y-122979857D01*
X139755136Y-122826453D01*
X139755137Y-122826451D01*
X139757430Y-122821811D01*
X139822370Y-122608069D01*
X139851529Y-122386590D01*
X139853156Y-122320000D01*
X139834852Y-122097361D01*
X139780431Y-121880702D01*
X139691354Y-121675840D01*
X139570014Y-121488277D01*
X139419670Y-121323051D01*
X139415619Y-121319852D01*
X139415615Y-121319848D01*
X139248414Y-121187800D01*
X139248410Y-121187798D01*
X139244359Y-121184598D01*
X139203053Y-121161796D01*
X139153084Y-121111364D01*
X139138312Y-121041921D01*
X139163428Y-120975516D01*
X139190780Y-120948909D01*
X139234603Y-120917650D01*
X139369860Y-120821173D01*
X139528096Y-120663489D01*
X139587594Y-120580689D01*
X139655435Y-120486277D01*
X139658453Y-120482077D01*
X139679320Y-120439857D01*
X139755136Y-120286453D01*
X139755137Y-120286451D01*
X139757430Y-120281811D01*
X139822370Y-120068069D01*
X139851529Y-119846590D01*
X139853156Y-119780000D01*
X139834852Y-119557361D01*
X139780431Y-119340702D01*
X139691354Y-119135840D01*
X139570014Y-118948277D01*
X139419670Y-118783051D01*
X139415619Y-118779852D01*
X139415615Y-118779848D01*
X139248414Y-118647800D01*
X139248410Y-118647798D01*
X139244359Y-118644598D01*
X139203053Y-118621796D01*
X139153084Y-118571364D01*
X139138312Y-118501921D01*
X139163428Y-118435516D01*
X139190780Y-118408909D01*
X139258486Y-118360615D01*
X139369860Y-118281173D01*
X139528096Y-118123489D01*
X139532214Y-118117759D01*
X139655435Y-117946277D01*
X139658453Y-117942077D01*
X139664634Y-117929572D01*
X139755136Y-117746453D01*
X139755137Y-117746451D01*
X139757430Y-117741811D01*
X139822370Y-117528069D01*
X139851529Y-117306590D01*
X139853156Y-117240000D01*
X139834852Y-117017361D01*
X139780431Y-116800702D01*
X139691354Y-116595840D01*
X139570014Y-116408277D01*
X139419670Y-116243051D01*
X139415619Y-116239852D01*
X139415615Y-116239848D01*
X139248414Y-116107800D01*
X139248410Y-116107798D01*
X139244359Y-116104598D01*
X139235458Y-116099684D01*
X139099471Y-116024616D01*
X139048789Y-115996638D01*
X139043920Y-115994914D01*
X139043916Y-115994912D01*
X138843087Y-115923795D01*
X138843083Y-115923794D01*
X138838212Y-115922069D01*
X138833119Y-115921162D01*
X138833116Y-115921161D01*
X138623373Y-115883800D01*
X138623367Y-115883799D01*
X138618284Y-115882894D01*
X138544452Y-115881992D01*
X138400081Y-115880228D01*
X138400079Y-115880228D01*
X138394911Y-115880165D01*
X138174091Y-115913955D01*
X137961756Y-115983357D01*
X137763607Y-116086507D01*
X137759474Y-116089610D01*
X137759471Y-116089612D01*
X137658687Y-116165283D01*
X137584965Y-116220635D01*
X137581393Y-116224373D01*
X137492378Y-116317522D01*
X137430629Y-116382138D01*
X137323201Y-116539621D01*
X137268293Y-116584621D01*
X137197768Y-116592792D01*
X137134021Y-116561538D01*
X137113324Y-116537054D01*
X137032822Y-116412617D01*
X137032820Y-116412614D01*
X137030014Y-116408277D01*
X136879670Y-116243051D01*
X136875619Y-116239852D01*
X136875615Y-116239848D01*
X136708414Y-116107800D01*
X136708410Y-116107798D01*
X136704359Y-116104598D01*
X136695458Y-116099684D01*
X136559471Y-116024616D01*
X136508789Y-115996638D01*
X136503920Y-115994914D01*
X136503916Y-115994912D01*
X136303087Y-115923795D01*
X136303083Y-115923794D01*
X136298212Y-115922069D01*
X136293119Y-115921162D01*
X136293116Y-115921161D01*
X136083373Y-115883800D01*
X136083367Y-115883799D01*
X136078284Y-115882894D01*
X136004452Y-115881992D01*
X135860081Y-115880228D01*
X135860079Y-115880228D01*
X135854911Y-115880165D01*
X135634091Y-115913955D01*
X135421756Y-115983357D01*
X135223607Y-116086507D01*
X135219474Y-116089610D01*
X135219471Y-116089612D01*
X135118687Y-116165283D01*
X135044965Y-116220635D01*
X135041393Y-116224373D01*
X134952378Y-116317522D01*
X134890629Y-116382138D01*
X134887720Y-116386403D01*
X134887714Y-116386411D01*
X134861629Y-116424650D01*
X134764743Y-116566680D01*
X134750283Y-116597832D01*
X134674482Y-116761132D01*
X134670688Y-116769305D01*
X134610989Y-116984570D01*
X134587251Y-117206695D01*
X134587548Y-117211848D01*
X134587548Y-117211851D01*
X134598828Y-117407484D01*
X134600110Y-117429715D01*
X134601247Y-117434761D01*
X134601248Y-117434767D01*
X134614909Y-117495384D01*
X134649222Y-117647639D01*
X134733266Y-117854616D01*
X134772643Y-117918874D01*
X134847291Y-118040688D01*
X134849987Y-118045088D01*
X134996250Y-118213938D01*
X135168126Y-118356632D01*
X135238595Y-118397811D01*
X135241445Y-118399476D01*
X135290169Y-118451114D01*
X135303240Y-118520897D01*
X135276509Y-118586669D01*
X135236055Y-118620027D01*
X135223607Y-118626507D01*
X135219474Y-118629610D01*
X135219471Y-118629612D01*
X135049100Y-118757530D01*
X135044965Y-118760635D01*
X135041393Y-118764373D01*
X134952378Y-118857522D01*
X134890629Y-118922138D01*
X134887720Y-118926403D01*
X134887714Y-118926411D01*
X134861629Y-118964650D01*
X134764743Y-119106680D01*
X134670688Y-119309305D01*
X134610989Y-119524570D01*
X134587251Y-119746695D01*
X134587548Y-119751848D01*
X134587548Y-119751851D01*
X134593011Y-119846590D01*
X134600110Y-119969715D01*
X134601247Y-119974761D01*
X134601248Y-119974767D01*
X134621119Y-120062939D01*
X134649222Y-120187639D01*
X134733266Y-120394616D01*
X134784019Y-120477438D01*
X134847291Y-120580688D01*
X134849987Y-120585088D01*
X134996250Y-120753938D01*
X135168126Y-120896632D01*
X135238595Y-120937811D01*
X135241445Y-120939476D01*
X135290169Y-120991114D01*
X135303240Y-121060897D01*
X135276509Y-121126669D01*
X135236055Y-121160027D01*
X135223607Y-121166507D01*
X135219474Y-121169610D01*
X135219471Y-121169612D01*
X135195247Y-121187800D01*
X135044965Y-121300635D01*
X134890629Y-121462138D01*
X134764743Y-121646680D01*
X134670688Y-121849305D01*
X134610989Y-122064570D01*
X134587251Y-122286695D01*
X111233000Y-122286695D01*
X111233000Y-117921406D01*
X111888423Y-117921406D01*
X111893704Y-117928461D01*
X112070080Y-118031527D01*
X112079363Y-118035974D01*
X112286003Y-118114883D01*
X112295901Y-118117759D01*
X112512653Y-118161857D01*
X112522883Y-118163076D01*
X112743914Y-118171182D01*
X112754223Y-118170714D01*
X112973623Y-118142608D01*
X112983688Y-118140468D01*
X113195557Y-118076905D01*
X113205152Y-118073144D01*
X113403778Y-117975838D01*
X113412636Y-117970559D01*
X113470097Y-117929572D01*
X113478497Y-117918874D01*
X113471510Y-117905721D01*
X112697811Y-117132021D01*
X112683868Y-117124408D01*
X112682034Y-117124539D01*
X112675420Y-117128790D01*
X111895180Y-117909031D01*
X111888423Y-117921406D01*
X111233000Y-117921406D01*
X111233000Y-117532202D01*
X111253002Y-117464081D01*
X111306658Y-117417588D01*
X111376932Y-117407484D01*
X111441512Y-117436978D01*
X111466433Y-117466368D01*
X111515097Y-117545781D01*
X111525553Y-117555242D01*
X111534331Y-117551458D01*
X112312979Y-116772811D01*
X112319356Y-116761132D01*
X113049408Y-116761132D01*
X113049539Y-116762966D01*
X113053790Y-116769580D01*
X113779595Y-117495384D01*
X113813620Y-117557697D01*
X113816500Y-117584480D01*
X113816500Y-117708134D01*
X113823255Y-117770316D01*
X113874385Y-117906705D01*
X113961739Y-118023261D01*
X114078295Y-118110615D01*
X114214684Y-118161745D01*
X114276866Y-118168500D01*
X116173134Y-118168500D01*
X116235316Y-118161745D01*
X116371705Y-118110615D01*
X116432557Y-118065009D01*
X119651435Y-118065009D01*
X119651951Y-118071153D01*
X119660351Y-118171182D01*
X119668969Y-118273818D01*
X119697848Y-118374531D01*
X119708764Y-118412598D01*
X119726727Y-118475244D01*
X119750789Y-118522064D01*
X119815409Y-118647800D01*
X119822509Y-118661616D01*
X119826334Y-118666442D01*
X119826336Y-118666445D01*
X119948837Y-118821004D01*
X119948841Y-118821009D01*
X119952666Y-118825834D01*
X120112242Y-118961643D01*
X120295157Y-119063871D01*
X120494445Y-119128624D01*
X120702515Y-119153435D01*
X120708650Y-119152963D01*
X120708652Y-119152963D01*
X120905299Y-119137832D01*
X120905303Y-119137831D01*
X120911441Y-119137359D01*
X121006363Y-119110856D01*
X121107321Y-119082668D01*
X121107325Y-119082667D01*
X121113265Y-119081008D01*
X121118769Y-119078228D01*
X121118771Y-119078227D01*
X121294800Y-118989309D01*
X121294802Y-118989308D01*
X121300301Y-118986530D01*
X121465424Y-118857522D01*
X121602344Y-118698898D01*
X121705846Y-118516701D01*
X121771989Y-118317870D01*
X121798251Y-118109979D01*
X121798670Y-118080000D01*
X121778222Y-117871456D01*
X121717657Y-117670856D01*
X121619283Y-117485840D01*
X121544812Y-117394530D01*
X121490740Y-117328230D01*
X121490737Y-117328227D01*
X121486845Y-117323455D01*
X121474077Y-117312892D01*
X121330139Y-117193816D01*
X121330135Y-117193814D01*
X121325389Y-117189887D01*
X121141064Y-117090223D01*
X120940891Y-117028259D01*
X120934766Y-117027615D01*
X120934765Y-117027615D01*
X120738624Y-117007000D01*
X120738623Y-117007000D01*
X120732496Y-117006356D01*
X120646138Y-117014215D01*
X120529953Y-117024789D01*
X120529950Y-117024790D01*
X120523814Y-117025348D01*
X120517908Y-117027086D01*
X120517904Y-117027087D01*
X120370946Y-117070340D01*
X120322796Y-117084511D01*
X120317339Y-117087364D01*
X120317336Y-117087365D01*
X120246229Y-117124539D01*
X120137098Y-117181591D01*
X119973792Y-117312892D01*
X119839100Y-117473412D01*
X119836136Y-117478804D01*
X119836133Y-117478808D01*
X119792764Y-117557697D01*
X119738152Y-117657036D01*
X119736291Y-117662903D01*
X119736290Y-117662905D01*
X119721943Y-117708134D01*
X119674792Y-117856771D01*
X119651435Y-118065009D01*
X116432557Y-118065009D01*
X116488261Y-118023261D01*
X116575615Y-117906705D01*
X116626745Y-117770316D01*
X116633500Y-117708134D01*
X116633500Y-115811866D01*
X116626745Y-115749684D01*
X116575615Y-115613295D01*
X116509448Y-115525009D01*
X117111435Y-115525009D01*
X117111951Y-115531153D01*
X117119555Y-115621703D01*
X117128969Y-115733818D01*
X117141601Y-115777870D01*
X117182689Y-115921161D01*
X117186727Y-115935244D01*
X117221878Y-116003641D01*
X117275409Y-116107800D01*
X117282509Y-116121616D01*
X117286334Y-116126442D01*
X117286336Y-116126445D01*
X117408837Y-116281004D01*
X117408841Y-116281009D01*
X117412666Y-116285834D01*
X117572242Y-116421643D01*
X117755157Y-116523871D01*
X117954445Y-116588624D01*
X118162515Y-116613435D01*
X118168650Y-116612963D01*
X118168652Y-116612963D01*
X118365299Y-116597832D01*
X118365303Y-116597831D01*
X118371441Y-116597359D01*
X118466363Y-116570856D01*
X118567321Y-116542668D01*
X118567325Y-116542667D01*
X118573265Y-116541008D01*
X118578769Y-116538228D01*
X118578771Y-116538227D01*
X118754800Y-116449309D01*
X118754802Y-116449308D01*
X118760301Y-116446530D01*
X118925424Y-116317522D01*
X119062344Y-116158898D01*
X119097183Y-116097571D01*
X119122747Y-116052569D01*
X119165846Y-115976701D01*
X119231989Y-115777870D01*
X119258251Y-115569979D01*
X119258670Y-115540000D01*
X119257200Y-115525009D01*
X122191435Y-115525009D01*
X122191951Y-115531153D01*
X122199555Y-115621703D01*
X122208969Y-115733818D01*
X122221601Y-115777870D01*
X122262689Y-115921161D01*
X122266727Y-115935244D01*
X122301878Y-116003641D01*
X122355409Y-116107800D01*
X122362509Y-116121616D01*
X122366334Y-116126442D01*
X122366336Y-116126445D01*
X122488837Y-116281004D01*
X122488841Y-116281009D01*
X122492666Y-116285834D01*
X122652242Y-116421643D01*
X122835157Y-116523871D01*
X123034445Y-116588624D01*
X123242515Y-116613435D01*
X123248650Y-116612963D01*
X123248652Y-116612963D01*
X123445299Y-116597832D01*
X123445303Y-116597831D01*
X123451441Y-116597359D01*
X123546363Y-116570856D01*
X123647321Y-116542668D01*
X123647325Y-116542667D01*
X123653265Y-116541008D01*
X123658769Y-116538228D01*
X123658771Y-116538227D01*
X123834800Y-116449309D01*
X123834802Y-116449308D01*
X123840301Y-116446530D01*
X124005424Y-116317522D01*
X124142344Y-116158898D01*
X124177183Y-116097571D01*
X124202747Y-116052569D01*
X124245846Y-115976701D01*
X124311989Y-115777870D01*
X124338251Y-115569979D01*
X124338670Y-115540000D01*
X124318222Y-115331456D01*
X124257657Y-115130856D01*
X124159283Y-114945840D01*
X124042736Y-114802939D01*
X124030740Y-114788230D01*
X124030737Y-114788227D01*
X124026845Y-114783455D01*
X124009412Y-114769033D01*
X123870139Y-114653816D01*
X123870135Y-114653814D01*
X123865389Y-114649887D01*
X123681064Y-114550223D01*
X123480891Y-114488259D01*
X123474766Y-114487615D01*
X123474765Y-114487615D01*
X123466012Y-114486695D01*
X125362251Y-114486695D01*
X125362548Y-114491848D01*
X125362548Y-114491851D01*
X125371182Y-114641591D01*
X125375110Y-114709715D01*
X125376247Y-114714761D01*
X125376248Y-114714767D01*
X125388478Y-114769033D01*
X125424222Y-114927639D01*
X125462461Y-115021811D01*
X125501128Y-115117036D01*
X125508266Y-115134616D01*
X125624987Y-115325088D01*
X125771250Y-115493938D01*
X125775230Y-115497242D01*
X125779981Y-115501187D01*
X125819616Y-115560090D01*
X125821113Y-115631071D01*
X125783997Y-115691593D01*
X125743725Y-115716112D01*
X125673909Y-115742285D01*
X125628295Y-115759385D01*
X125511739Y-115846739D01*
X125424385Y-115963295D01*
X125373255Y-116099684D01*
X125366500Y-116161866D01*
X125366500Y-117958134D01*
X125373255Y-118020316D01*
X125424385Y-118156705D01*
X125511739Y-118273261D01*
X125628295Y-118360615D01*
X125764684Y-118411745D01*
X125826866Y-118418500D01*
X127623134Y-118418500D01*
X127685316Y-118411745D01*
X127821705Y-118360615D01*
X127938261Y-118273261D01*
X128025615Y-118156705D01*
X128076745Y-118020316D01*
X128083500Y-117958134D01*
X128083500Y-116161866D01*
X128076745Y-116099684D01*
X128025615Y-115963295D01*
X127938261Y-115846739D01*
X127821705Y-115759385D01*
X127776091Y-115742285D01*
X127703203Y-115714960D01*
X127646439Y-115672318D01*
X127621739Y-115605756D01*
X127636947Y-115536408D01*
X127658493Y-115507727D01*
X127669015Y-115497242D01*
X127763096Y-115403489D01*
X127770533Y-115393140D01*
X127890435Y-115226277D01*
X127893453Y-115222077D01*
X127992430Y-115021811D01*
X128057370Y-114808069D01*
X128086529Y-114586590D01*
X128087462Y-114548401D01*
X128088074Y-114523365D01*
X128088074Y-114523361D01*
X128088156Y-114520000D01*
X128069852Y-114297361D01*
X128015431Y-114080702D01*
X127926354Y-113875840D01*
X127805014Y-113688277D01*
X127654670Y-113523051D01*
X127650619Y-113519852D01*
X127650615Y-113519848D01*
X127483414Y-113387800D01*
X127483410Y-113387798D01*
X127479359Y-113384598D01*
X127283789Y-113276638D01*
X127278920Y-113274914D01*
X127278916Y-113274912D01*
X127078087Y-113203795D01*
X127078083Y-113203794D01*
X127073212Y-113202069D01*
X127068119Y-113201162D01*
X127068116Y-113201161D01*
X126858373Y-113163800D01*
X126858367Y-113163799D01*
X126853284Y-113162894D01*
X126779452Y-113161992D01*
X126635081Y-113160228D01*
X126635079Y-113160228D01*
X126629911Y-113160165D01*
X126409091Y-113193955D01*
X126196756Y-113263357D01*
X125998607Y-113366507D01*
X125994474Y-113369610D01*
X125994471Y-113369612D01*
X125970247Y-113387800D01*
X125819965Y-113500635D01*
X125665629Y-113662138D01*
X125539743Y-113846680D01*
X125445688Y-114049305D01*
X125385989Y-114264570D01*
X125362251Y-114486695D01*
X123466012Y-114486695D01*
X123278624Y-114467000D01*
X123278623Y-114467000D01*
X123272496Y-114466356D01*
X123186138Y-114474215D01*
X123069953Y-114484789D01*
X123069950Y-114484790D01*
X123063814Y-114485348D01*
X123057908Y-114487086D01*
X123057904Y-114487087D01*
X122910946Y-114530340D01*
X122862796Y-114544511D01*
X122857339Y-114547364D01*
X122857336Y-114547365D01*
X122846265Y-114553153D01*
X122677098Y-114641591D01*
X122513792Y-114772892D01*
X122379100Y-114933412D01*
X122376136Y-114938804D01*
X122376133Y-114938808D01*
X122369276Y-114951281D01*
X122278152Y-115117036D01*
X122214792Y-115316771D01*
X122191435Y-115525009D01*
X119257200Y-115525009D01*
X119238222Y-115331456D01*
X119177657Y-115130856D01*
X119079283Y-114945840D01*
X118962736Y-114802939D01*
X118950740Y-114788230D01*
X118950737Y-114788227D01*
X118946845Y-114783455D01*
X118929412Y-114769033D01*
X118790139Y-114653816D01*
X118790135Y-114653814D01*
X118785389Y-114649887D01*
X118601064Y-114550223D01*
X118400891Y-114488259D01*
X118394766Y-114487615D01*
X118394765Y-114487615D01*
X118198624Y-114467000D01*
X118198623Y-114467000D01*
X118192496Y-114466356D01*
X118106138Y-114474215D01*
X117989953Y-114484789D01*
X117989950Y-114484790D01*
X117983814Y-114485348D01*
X117977908Y-114487086D01*
X117977904Y-114487087D01*
X117830946Y-114530340D01*
X117782796Y-114544511D01*
X117777339Y-114547364D01*
X117777336Y-114547365D01*
X117766265Y-114553153D01*
X117597098Y-114641591D01*
X117433792Y-114772892D01*
X117299100Y-114933412D01*
X117296136Y-114938804D01*
X117296133Y-114938808D01*
X117289276Y-114951281D01*
X117198152Y-115117036D01*
X117134792Y-115316771D01*
X117111435Y-115525009D01*
X116509448Y-115525009D01*
X116488261Y-115496739D01*
X116371705Y-115409385D01*
X116235316Y-115358255D01*
X116173134Y-115351500D01*
X114276866Y-115351500D01*
X114214684Y-115358255D01*
X114078295Y-115409385D01*
X113961739Y-115496739D01*
X113874385Y-115613295D01*
X113823255Y-115749684D01*
X113816500Y-115811866D01*
X113816500Y-115935520D01*
X113796498Y-116003641D01*
X113779595Y-116024616D01*
X113057021Y-116747189D01*
X113049408Y-116761132D01*
X112319356Y-116761132D01*
X112320592Y-116758868D01*
X112320461Y-116757034D01*
X112316210Y-116750420D01*
X111538862Y-115973073D01*
X111527330Y-115966776D01*
X111515048Y-115976399D01*
X111463088Y-116052569D01*
X111408176Y-116097571D01*
X111337652Y-116105742D01*
X111273905Y-116074488D01*
X111237175Y-116013730D01*
X111233000Y-115981564D01*
X111233000Y-115600711D01*
X111890508Y-115600711D01*
X111897251Y-115613040D01*
X112672189Y-116387979D01*
X112686132Y-116395592D01*
X112687966Y-116395461D01*
X112694580Y-116391210D01*
X113473994Y-115611795D01*
X113481011Y-115598944D01*
X113473237Y-115588274D01*
X113470902Y-115586430D01*
X113462320Y-115580729D01*
X113268678Y-115473833D01*
X113259272Y-115469606D01*
X113050772Y-115395772D01*
X113040809Y-115393140D01*
X112823047Y-115354350D01*
X112812796Y-115353381D01*
X112591616Y-115350679D01*
X112581332Y-115351399D01*
X112362693Y-115384855D01*
X112352666Y-115387244D01*
X112142426Y-115455961D01*
X112132916Y-115459958D01*
X111936725Y-115562089D01*
X111928007Y-115567578D01*
X111898961Y-115589386D01*
X111890508Y-115600711D01*
X111233000Y-115600711D01*
X111233000Y-110254669D01*
X134367001Y-110254669D01*
X134367371Y-110261490D01*
X134372895Y-110312352D01*
X134376521Y-110327604D01*
X134421676Y-110448054D01*
X134430214Y-110463649D01*
X134506715Y-110565724D01*
X134519276Y-110578285D01*
X134621351Y-110654786D01*
X134636946Y-110663324D01*
X134757394Y-110708478D01*
X134772649Y-110712105D01*
X134823514Y-110717631D01*
X134830328Y-110718000D01*
X135452885Y-110718000D01*
X135468124Y-110713525D01*
X135469329Y-110712135D01*
X135471000Y-110704452D01*
X135471000Y-110699884D01*
X135979000Y-110699884D01*
X135983475Y-110715123D01*
X135984865Y-110716328D01*
X135992548Y-110717999D01*
X136619669Y-110717999D01*
X136626490Y-110717629D01*
X136677352Y-110712105D01*
X136692604Y-110708479D01*
X136813054Y-110663324D01*
X136828649Y-110654786D01*
X136930724Y-110578285D01*
X136943285Y-110565724D01*
X137019786Y-110463649D01*
X137028324Y-110448054D01*
X137073478Y-110327606D01*
X137077105Y-110312351D01*
X137082631Y-110261486D01*
X137083000Y-110254672D01*
X137083000Y-109632115D01*
X137078525Y-109616876D01*
X137077135Y-109615671D01*
X137069452Y-109614000D01*
X135997115Y-109614000D01*
X135981876Y-109618475D01*
X135980671Y-109619865D01*
X135979000Y-109627548D01*
X135979000Y-110699884D01*
X135471000Y-110699884D01*
X135471000Y-109632115D01*
X135466525Y-109616876D01*
X135465135Y-109615671D01*
X135457452Y-109614000D01*
X134385116Y-109614000D01*
X134369877Y-109618475D01*
X134368672Y-109619865D01*
X134367001Y-109627548D01*
X134367001Y-110254669D01*
X111233000Y-110254669D01*
X111233000Y-109087885D01*
X134367000Y-109087885D01*
X134371475Y-109103124D01*
X134372865Y-109104329D01*
X134380548Y-109106000D01*
X135452885Y-109106000D01*
X135468124Y-109101525D01*
X135469329Y-109100135D01*
X135471000Y-109092452D01*
X135471000Y-109087885D01*
X135979000Y-109087885D01*
X135983475Y-109103124D01*
X135984865Y-109104329D01*
X135992548Y-109106000D01*
X137064884Y-109106000D01*
X137080123Y-109101525D01*
X137081328Y-109100135D01*
X137082999Y-109092452D01*
X137082999Y-108465331D01*
X137082629Y-108458510D01*
X137077105Y-108407648D01*
X137073479Y-108392396D01*
X137028324Y-108271946D01*
X137019786Y-108256351D01*
X136943285Y-108154276D01*
X136930724Y-108141715D01*
X136828649Y-108065214D01*
X136813054Y-108056676D01*
X136692606Y-108011522D01*
X136677351Y-108007895D01*
X136626486Y-108002369D01*
X136619672Y-108002000D01*
X135997115Y-108002000D01*
X135981876Y-108006475D01*
X135980671Y-108007865D01*
X135979000Y-108015548D01*
X135979000Y-109087885D01*
X135471000Y-109087885D01*
X135471000Y-108020116D01*
X135466525Y-108004877D01*
X135465135Y-108003672D01*
X135457452Y-108002001D01*
X134830331Y-108002001D01*
X134823510Y-108002371D01*
X134772648Y-108007895D01*
X134757396Y-108011521D01*
X134636946Y-108056676D01*
X134621351Y-108065214D01*
X134519276Y-108141715D01*
X134506715Y-108154276D01*
X134430214Y-108256351D01*
X134421676Y-108271946D01*
X134376522Y-108392394D01*
X134372895Y-108407649D01*
X134367369Y-108458514D01*
X134367000Y-108465328D01*
X134367000Y-109087885D01*
X111233000Y-109087885D01*
X111233000Y-105115009D01*
X119651435Y-105115009D01*
X119651951Y-105121153D01*
X119665176Y-105278642D01*
X119668969Y-105323818D01*
X119726727Y-105525244D01*
X119822509Y-105711616D01*
X119826334Y-105716442D01*
X119826336Y-105716445D01*
X119948837Y-105871004D01*
X119948841Y-105871009D01*
X119952666Y-105875834D01*
X120112242Y-106011643D01*
X120295157Y-106113871D01*
X120494445Y-106178624D01*
X120702515Y-106203435D01*
X120708650Y-106202963D01*
X120708652Y-106202963D01*
X120905299Y-106187832D01*
X120905303Y-106187831D01*
X120911441Y-106187359D01*
X121006363Y-106160856D01*
X121107321Y-106132668D01*
X121107325Y-106132667D01*
X121113265Y-106131008D01*
X121118769Y-106128228D01*
X121118771Y-106128227D01*
X121294800Y-106039309D01*
X121294802Y-106039308D01*
X121300301Y-106036530D01*
X121465424Y-105907522D01*
X121602344Y-105748898D01*
X121705846Y-105566701D01*
X121771989Y-105367870D01*
X121772906Y-105360615D01*
X121783261Y-105278642D01*
X121798251Y-105159979D01*
X121798670Y-105130000D01*
X121778222Y-104921456D01*
X121717657Y-104720856D01*
X121619283Y-104535840D01*
X121544812Y-104444530D01*
X121490740Y-104378230D01*
X121490737Y-104378227D01*
X121486845Y-104373455D01*
X121469412Y-104359033D01*
X121330139Y-104243816D01*
X121330135Y-104243814D01*
X121325389Y-104239887D01*
X121141064Y-104140223D01*
X120940891Y-104078259D01*
X120934766Y-104077615D01*
X120934765Y-104077615D01*
X120738624Y-104057000D01*
X120738623Y-104057000D01*
X120732496Y-104056356D01*
X120646138Y-104064215D01*
X120529953Y-104074789D01*
X120529950Y-104074790D01*
X120523814Y-104075348D01*
X120517908Y-104077086D01*
X120517904Y-104077087D01*
X120370946Y-104120340D01*
X120322796Y-104134511D01*
X120317339Y-104137364D01*
X120317336Y-104137365D01*
X120306265Y-104143153D01*
X120137098Y-104231591D01*
X119973792Y-104362892D01*
X119839100Y-104523412D01*
X119836136Y-104528804D01*
X119836133Y-104528808D01*
X119829276Y-104541281D01*
X119738152Y-104707036D01*
X119674792Y-104906771D01*
X119651435Y-105115009D01*
X111233000Y-105115009D01*
X111233000Y-102575009D01*
X117111435Y-102575009D01*
X117111951Y-102581153D01*
X117127370Y-102764771D01*
X117128969Y-102783818D01*
X117141601Y-102827870D01*
X117178373Y-102956109D01*
X117186727Y-102985244D01*
X117282509Y-103171616D01*
X117286334Y-103176442D01*
X117286336Y-103176445D01*
X117408837Y-103331004D01*
X117408841Y-103331009D01*
X117412666Y-103335834D01*
X117572242Y-103471643D01*
X117755157Y-103573871D01*
X117954445Y-103638624D01*
X118162515Y-103663435D01*
X118168650Y-103662963D01*
X118168652Y-103662963D01*
X118365299Y-103647832D01*
X118365303Y-103647831D01*
X118371441Y-103647359D01*
X118466363Y-103620856D01*
X118567321Y-103592668D01*
X118567325Y-103592667D01*
X118573265Y-103591008D01*
X118578769Y-103588228D01*
X118578771Y-103588227D01*
X118754800Y-103499309D01*
X118754802Y-103499308D01*
X118760301Y-103496530D01*
X118925424Y-103367522D01*
X119062344Y-103208898D01*
X119165846Y-103026701D01*
X119231989Y-102827870D01*
X119258251Y-102619979D01*
X119258670Y-102590000D01*
X119257200Y-102575009D01*
X122191435Y-102575009D01*
X122191951Y-102581153D01*
X122207370Y-102764771D01*
X122208969Y-102783818D01*
X122221601Y-102827870D01*
X122258373Y-102956109D01*
X122266727Y-102985244D01*
X122362509Y-103171616D01*
X122366334Y-103176442D01*
X122366336Y-103176445D01*
X122488837Y-103331004D01*
X122488841Y-103331009D01*
X122492666Y-103335834D01*
X122652242Y-103471643D01*
X122835157Y-103573871D01*
X123034445Y-103638624D01*
X123242515Y-103663435D01*
X123248650Y-103662963D01*
X123248652Y-103662963D01*
X123445299Y-103647832D01*
X123445303Y-103647831D01*
X123451441Y-103647359D01*
X123546363Y-103620856D01*
X123647321Y-103592668D01*
X123647325Y-103592667D01*
X123653265Y-103591008D01*
X123658769Y-103588228D01*
X123658771Y-103588227D01*
X123834800Y-103499309D01*
X123834802Y-103499308D01*
X123840301Y-103496530D01*
X124005424Y-103367522D01*
X124142344Y-103208898D01*
X124245846Y-103026701D01*
X124311989Y-102827870D01*
X124338251Y-102619979D01*
X124338670Y-102590000D01*
X124318222Y-102381456D01*
X124257657Y-102180856D01*
X124159283Y-101995840D01*
X124084812Y-101904530D01*
X124030740Y-101838230D01*
X124030737Y-101838227D01*
X124026845Y-101833455D01*
X123996159Y-101808069D01*
X123870139Y-101703816D01*
X123870135Y-101703814D01*
X123865389Y-101699887D01*
X123681064Y-101600223D01*
X123480891Y-101538259D01*
X123474766Y-101537615D01*
X123474765Y-101537615D01*
X123278624Y-101517000D01*
X123278623Y-101517000D01*
X123272496Y-101516356D01*
X123195482Y-101523365D01*
X123069953Y-101534789D01*
X123069950Y-101534790D01*
X123063814Y-101535348D01*
X123057908Y-101537086D01*
X123057904Y-101537087D01*
X122910946Y-101580340D01*
X122862796Y-101594511D01*
X122857339Y-101597364D01*
X122857336Y-101597365D01*
X122781564Y-101636978D01*
X122677098Y-101691591D01*
X122513792Y-101822892D01*
X122379100Y-101983412D01*
X122376136Y-101988804D01*
X122376133Y-101988808D01*
X122311860Y-102105721D01*
X122278152Y-102167036D01*
X122276291Y-102172903D01*
X122276290Y-102172905D01*
X122258609Y-102228642D01*
X122214792Y-102366771D01*
X122191435Y-102575009D01*
X119257200Y-102575009D01*
X119238222Y-102381456D01*
X119177657Y-102180856D01*
X119079283Y-101995840D01*
X119004812Y-101904530D01*
X118950740Y-101838230D01*
X118950737Y-101838227D01*
X118946845Y-101833455D01*
X118916159Y-101808069D01*
X118790139Y-101703816D01*
X118790135Y-101703814D01*
X118785389Y-101699887D01*
X118601064Y-101600223D01*
X118400891Y-101538259D01*
X118394766Y-101537615D01*
X118394765Y-101537615D01*
X118198624Y-101517000D01*
X118198623Y-101517000D01*
X118192496Y-101516356D01*
X118115482Y-101523365D01*
X117989953Y-101534789D01*
X117989950Y-101534790D01*
X117983814Y-101535348D01*
X117977908Y-101537086D01*
X117977904Y-101537087D01*
X117830946Y-101580340D01*
X117782796Y-101594511D01*
X117777339Y-101597364D01*
X117777336Y-101597365D01*
X117701564Y-101636978D01*
X117597098Y-101691591D01*
X117433792Y-101822892D01*
X117299100Y-101983412D01*
X117296136Y-101988804D01*
X117296133Y-101988808D01*
X117231860Y-102105721D01*
X117198152Y-102167036D01*
X117196291Y-102172903D01*
X117196290Y-102172905D01*
X117178609Y-102228642D01*
X117134792Y-102366771D01*
X117111435Y-102575009D01*
X111233000Y-102575009D01*
X111233000Y-102121406D01*
X111888423Y-102121406D01*
X111893704Y-102128461D01*
X112070080Y-102231527D01*
X112079363Y-102235974D01*
X112286003Y-102314883D01*
X112295901Y-102317759D01*
X112512653Y-102361857D01*
X112522883Y-102363076D01*
X112743914Y-102371182D01*
X112754223Y-102370714D01*
X112973623Y-102342608D01*
X112983688Y-102340468D01*
X113195557Y-102276905D01*
X113205152Y-102273144D01*
X113403778Y-102175838D01*
X113412636Y-102170559D01*
X113470097Y-102129572D01*
X113478497Y-102118874D01*
X113471510Y-102105721D01*
X112697811Y-101332021D01*
X112683868Y-101324408D01*
X112682034Y-101324539D01*
X112675420Y-101328790D01*
X111895180Y-102109031D01*
X111888423Y-102121406D01*
X111233000Y-102121406D01*
X111233000Y-101732202D01*
X111253002Y-101664081D01*
X111306658Y-101617588D01*
X111376932Y-101607484D01*
X111441512Y-101636978D01*
X111466433Y-101666368D01*
X111515097Y-101745781D01*
X111525553Y-101755242D01*
X111534331Y-101751458D01*
X112312979Y-100972811D01*
X112319356Y-100961132D01*
X113049408Y-100961132D01*
X113049539Y-100962966D01*
X113053790Y-100969580D01*
X113779595Y-101695384D01*
X113813620Y-101757697D01*
X113816500Y-101784480D01*
X113816500Y-101908134D01*
X113823255Y-101970316D01*
X113874385Y-102106705D01*
X113961739Y-102223261D01*
X114078295Y-102310615D01*
X114214684Y-102361745D01*
X114276866Y-102368500D01*
X116173134Y-102368500D01*
X116235316Y-102361745D01*
X116371705Y-102310615D01*
X116488261Y-102223261D01*
X116575615Y-102106705D01*
X116626745Y-101970316D01*
X116633500Y-101908134D01*
X116633500Y-101486695D01*
X125362251Y-101486695D01*
X125362548Y-101491848D01*
X125362548Y-101491851D01*
X125369798Y-101617588D01*
X125375110Y-101709715D01*
X125376247Y-101714761D01*
X125376248Y-101714767D01*
X125383238Y-101745781D01*
X125424222Y-101927639D01*
X125462461Y-102021811D01*
X125499851Y-102113891D01*
X125508266Y-102134616D01*
X125533269Y-102175417D01*
X125618050Y-102313767D01*
X125624987Y-102325088D01*
X125771250Y-102493938D01*
X125775230Y-102497242D01*
X125779981Y-102501187D01*
X125819616Y-102560090D01*
X125821113Y-102631071D01*
X125783997Y-102691593D01*
X125743724Y-102716112D01*
X125628295Y-102759385D01*
X125511739Y-102846739D01*
X125424385Y-102963295D01*
X125373255Y-103099684D01*
X125366500Y-103161866D01*
X125366500Y-104958134D01*
X125373255Y-105020316D01*
X125424385Y-105156705D01*
X125511739Y-105273261D01*
X125628295Y-105360615D01*
X125764684Y-105411745D01*
X125826866Y-105418500D01*
X127623134Y-105418500D01*
X127685316Y-105411745D01*
X127821705Y-105360615D01*
X127938261Y-105273261D01*
X128025615Y-105156705D01*
X128076745Y-105020316D01*
X128083500Y-104958134D01*
X128083500Y-103161866D01*
X128076745Y-103099684D01*
X128025615Y-102963295D01*
X127938261Y-102846739D01*
X127821705Y-102759385D01*
X127809132Y-102754672D01*
X127703203Y-102714960D01*
X127646439Y-102672318D01*
X127621739Y-102605756D01*
X127636947Y-102536408D01*
X127658493Y-102507727D01*
X127759435Y-102407137D01*
X127763096Y-102403489D01*
X127789481Y-102366771D01*
X127890435Y-102226277D01*
X127893453Y-102222077D01*
X127896417Y-102216081D01*
X127990136Y-102026453D01*
X127990137Y-102026451D01*
X127992430Y-102021811D01*
X128051433Y-101827611D01*
X128055865Y-101813023D01*
X128055865Y-101813021D01*
X128057370Y-101808069D01*
X128086529Y-101586590D01*
X128086611Y-101583240D01*
X128088074Y-101523365D01*
X128088074Y-101523361D01*
X128088156Y-101520000D01*
X128069852Y-101297361D01*
X128015431Y-101080702D01*
X127926354Y-100875840D01*
X127805014Y-100688277D01*
X127654670Y-100523051D01*
X127650619Y-100519852D01*
X127650615Y-100519848D01*
X127483414Y-100387800D01*
X127483410Y-100387798D01*
X127479359Y-100384598D01*
X127283789Y-100276638D01*
X127278920Y-100274914D01*
X127278916Y-100274912D01*
X127078087Y-100203795D01*
X127078083Y-100203794D01*
X127073212Y-100202069D01*
X127068119Y-100201162D01*
X127068116Y-100201161D01*
X126858373Y-100163800D01*
X126858367Y-100163799D01*
X126853284Y-100162894D01*
X126779452Y-100161992D01*
X126635081Y-100160228D01*
X126635079Y-100160228D01*
X126629911Y-100160165D01*
X126409091Y-100193955D01*
X126196756Y-100263357D01*
X125998607Y-100366507D01*
X125994474Y-100369610D01*
X125994471Y-100369612D01*
X125970247Y-100387800D01*
X125819965Y-100500635D01*
X125665629Y-100662138D01*
X125539743Y-100846680D01*
X125445688Y-101049305D01*
X125385989Y-101264570D01*
X125362251Y-101486695D01*
X116633500Y-101486695D01*
X116633500Y-100011866D01*
X116626745Y-99949684D01*
X116575615Y-99813295D01*
X116488261Y-99696739D01*
X116371705Y-99609385D01*
X116235316Y-99558255D01*
X116173134Y-99551500D01*
X114276866Y-99551500D01*
X114214684Y-99558255D01*
X114078295Y-99609385D01*
X113961739Y-99696739D01*
X113874385Y-99813295D01*
X113823255Y-99949684D01*
X113816500Y-100011866D01*
X113816500Y-100135520D01*
X113796498Y-100203641D01*
X113779595Y-100224616D01*
X113057021Y-100947189D01*
X113049408Y-100961132D01*
X112319356Y-100961132D01*
X112320592Y-100958868D01*
X112320461Y-100957034D01*
X112316210Y-100950420D01*
X111538862Y-100173073D01*
X111527330Y-100166776D01*
X111515048Y-100176399D01*
X111463088Y-100252569D01*
X111408176Y-100297571D01*
X111337652Y-100305742D01*
X111273905Y-100274488D01*
X111237175Y-100213730D01*
X111233000Y-100181564D01*
X111233000Y-99800711D01*
X111890508Y-99800711D01*
X111897251Y-99813040D01*
X112672189Y-100587979D01*
X112686132Y-100595592D01*
X112687966Y-100595461D01*
X112694580Y-100591210D01*
X113473994Y-99811795D01*
X113481011Y-99798944D01*
X113473237Y-99788274D01*
X113470902Y-99786430D01*
X113462320Y-99780729D01*
X113268678Y-99673833D01*
X113259272Y-99669606D01*
X113050772Y-99595772D01*
X113040809Y-99593140D01*
X112823047Y-99554350D01*
X112812796Y-99553381D01*
X112591616Y-99550679D01*
X112581332Y-99551399D01*
X112362693Y-99584855D01*
X112352666Y-99587244D01*
X112142426Y-99655961D01*
X112132916Y-99659958D01*
X111936725Y-99762089D01*
X111928007Y-99767578D01*
X111898961Y-99789386D01*
X111890508Y-99800711D01*
X111233000Y-99800711D01*
X111233000Y-97060000D01*
X131111526Y-97060000D01*
X131131391Y-97312403D01*
X131190495Y-97558591D01*
X131287384Y-97792502D01*
X131419672Y-98008376D01*
X131584102Y-98200898D01*
X131776624Y-98365328D01*
X131992498Y-98497616D01*
X131997068Y-98499509D01*
X131997072Y-98499511D01*
X132221836Y-98592611D01*
X132226409Y-98594505D01*
X132311032Y-98614821D01*
X132467784Y-98652454D01*
X132467790Y-98652455D01*
X132472597Y-98653609D01*
X132572416Y-98661465D01*
X132659345Y-98668307D01*
X132659352Y-98668307D01*
X132661801Y-98668500D01*
X132788199Y-98668500D01*
X132790648Y-98668307D01*
X132790655Y-98668307D01*
X132877584Y-98661465D01*
X132977403Y-98653609D01*
X132982210Y-98652455D01*
X132982216Y-98652454D01*
X133138968Y-98614821D01*
X133223591Y-98594505D01*
X133228164Y-98592611D01*
X133452928Y-98499511D01*
X133452932Y-98499509D01*
X133457502Y-98497616D01*
X133673376Y-98365328D01*
X133865898Y-98200898D01*
X134030328Y-98008376D01*
X134162616Y-97792502D01*
X134259505Y-97558591D01*
X134318609Y-97312403D01*
X134338474Y-97060000D01*
X134318609Y-96807597D01*
X134259505Y-96561409D01*
X134162616Y-96327498D01*
X134030328Y-96111624D01*
X133865898Y-95919102D01*
X133673376Y-95754672D01*
X133457502Y-95622384D01*
X133452932Y-95620491D01*
X133452928Y-95620489D01*
X133228164Y-95527389D01*
X133228162Y-95527388D01*
X133223591Y-95525495D01*
X133138968Y-95505179D01*
X132982216Y-95467546D01*
X132982210Y-95467545D01*
X132977403Y-95466391D01*
X132877584Y-95458535D01*
X132790655Y-95451693D01*
X132790648Y-95451693D01*
X132788199Y-95451500D01*
X132661801Y-95451500D01*
X132659352Y-95451693D01*
X132659345Y-95451693D01*
X132572416Y-95458535D01*
X132472597Y-95466391D01*
X132467790Y-95467545D01*
X132467784Y-95467546D01*
X132311032Y-95505179D01*
X132226409Y-95525495D01*
X132221838Y-95527388D01*
X132221836Y-95527389D01*
X131997072Y-95620489D01*
X131997068Y-95620491D01*
X131992498Y-95622384D01*
X131776624Y-95754672D01*
X131584102Y-95919102D01*
X131419672Y-96111624D01*
X131287384Y-96327498D01*
X131190495Y-96561409D01*
X131131391Y-96807597D01*
X131111526Y-97060000D01*
X111233000Y-97060000D01*
X111233000Y-94221406D01*
X111888423Y-94221406D01*
X111893704Y-94228461D01*
X112070080Y-94331527D01*
X112079363Y-94335974D01*
X112286003Y-94414883D01*
X112295901Y-94417759D01*
X112512653Y-94461857D01*
X112522883Y-94463076D01*
X112743914Y-94471182D01*
X112754223Y-94470714D01*
X112973623Y-94442608D01*
X112983688Y-94440468D01*
X113195557Y-94376905D01*
X113205152Y-94373144D01*
X113403778Y-94275838D01*
X113412636Y-94270559D01*
X113470097Y-94229572D01*
X113478497Y-94218874D01*
X113471510Y-94205721D01*
X112697811Y-93432021D01*
X112683868Y-93424408D01*
X112682034Y-93424539D01*
X112675420Y-93428790D01*
X111895180Y-94209031D01*
X111888423Y-94221406D01*
X111233000Y-94221406D01*
X111233000Y-93832202D01*
X111253002Y-93764081D01*
X111306658Y-93717588D01*
X111376932Y-93707484D01*
X111441512Y-93736978D01*
X111466433Y-93766368D01*
X111515097Y-93845781D01*
X111525553Y-93855242D01*
X111534331Y-93851458D01*
X112312979Y-93072811D01*
X112319356Y-93061132D01*
X113049408Y-93061132D01*
X113049539Y-93062966D01*
X113053790Y-93069580D01*
X113779595Y-93795384D01*
X113813620Y-93857697D01*
X113816500Y-93884480D01*
X113816500Y-94008134D01*
X113823255Y-94070316D01*
X113874385Y-94206705D01*
X113961739Y-94323261D01*
X114078295Y-94410615D01*
X114214684Y-94461745D01*
X114276866Y-94468500D01*
X116173134Y-94468500D01*
X116235316Y-94461745D01*
X116371705Y-94410615D01*
X116488261Y-94323261D01*
X116575615Y-94206705D01*
X116609990Y-94115009D01*
X119651435Y-94115009D01*
X119651951Y-94121153D01*
X119665176Y-94278642D01*
X119668969Y-94323818D01*
X119695906Y-94417759D01*
X119708901Y-94463076D01*
X119726727Y-94525244D01*
X119822509Y-94711616D01*
X119826334Y-94716442D01*
X119826336Y-94716445D01*
X119948837Y-94871004D01*
X119948841Y-94871009D01*
X119952666Y-94875834D01*
X120112242Y-95011643D01*
X120295157Y-95113871D01*
X120494445Y-95178624D01*
X120702515Y-95203435D01*
X120708650Y-95202963D01*
X120708652Y-95202963D01*
X120905299Y-95187832D01*
X120905303Y-95187831D01*
X120911441Y-95187359D01*
X121006363Y-95160856D01*
X121107321Y-95132668D01*
X121107325Y-95132667D01*
X121113265Y-95131008D01*
X121118769Y-95128228D01*
X121118771Y-95128227D01*
X121294800Y-95039309D01*
X121294802Y-95039308D01*
X121300301Y-95036530D01*
X121465424Y-94907522D01*
X121602344Y-94748898D01*
X121705846Y-94566701D01*
X121771989Y-94367870D01*
X121772906Y-94360615D01*
X121776806Y-94329742D01*
X121798251Y-94159979D01*
X121798670Y-94130000D01*
X121778222Y-93921456D01*
X121717657Y-93720856D01*
X121619283Y-93535840D01*
X121528401Y-93424408D01*
X121490740Y-93378230D01*
X121490737Y-93378227D01*
X121486845Y-93373455D01*
X121469412Y-93359033D01*
X121330139Y-93243816D01*
X121330135Y-93243814D01*
X121325389Y-93239887D01*
X121141064Y-93140223D01*
X120940891Y-93078259D01*
X120934766Y-93077615D01*
X120934765Y-93077615D01*
X120738624Y-93057000D01*
X120738623Y-93057000D01*
X120732496Y-93056356D01*
X120659866Y-93062966D01*
X120529953Y-93074789D01*
X120529950Y-93074790D01*
X120523814Y-93075348D01*
X120517908Y-93077086D01*
X120517904Y-93077087D01*
X120370946Y-93120340D01*
X120322796Y-93134511D01*
X120317339Y-93137364D01*
X120317336Y-93137365D01*
X120306265Y-93143153D01*
X120137098Y-93231591D01*
X119973792Y-93362892D01*
X119839100Y-93523412D01*
X119836136Y-93528804D01*
X119836133Y-93528808D01*
X119829276Y-93541281D01*
X119738152Y-93707036D01*
X119736291Y-93712903D01*
X119736290Y-93712905D01*
X119733768Y-93720856D01*
X119674792Y-93906771D01*
X119651435Y-94115009D01*
X116609990Y-94115009D01*
X116626745Y-94070316D01*
X116633500Y-94008134D01*
X116633500Y-92111866D01*
X116626745Y-92049684D01*
X116575615Y-91913295D01*
X116488261Y-91796739D01*
X116371705Y-91709385D01*
X116235316Y-91658255D01*
X116173134Y-91651500D01*
X114276866Y-91651500D01*
X114214684Y-91658255D01*
X114078295Y-91709385D01*
X113961739Y-91796739D01*
X113874385Y-91913295D01*
X113823255Y-92049684D01*
X113816500Y-92111866D01*
X113816500Y-92235520D01*
X113796498Y-92303641D01*
X113779595Y-92324616D01*
X113057021Y-93047189D01*
X113049408Y-93061132D01*
X112319356Y-93061132D01*
X112320592Y-93058868D01*
X112320461Y-93057034D01*
X112316210Y-93050420D01*
X111538862Y-92273073D01*
X111527330Y-92266776D01*
X111515048Y-92276399D01*
X111463088Y-92352569D01*
X111408176Y-92397571D01*
X111337652Y-92405742D01*
X111273905Y-92374488D01*
X111237175Y-92313730D01*
X111233000Y-92281564D01*
X111233000Y-91900711D01*
X111890508Y-91900711D01*
X111897251Y-91913040D01*
X112672189Y-92687979D01*
X112686132Y-92695592D01*
X112687966Y-92695461D01*
X112694580Y-92691210D01*
X113473994Y-91911795D01*
X113481011Y-91898944D01*
X113473237Y-91888274D01*
X113470902Y-91886430D01*
X113462320Y-91880729D01*
X113268678Y-91773833D01*
X113259272Y-91769606D01*
X113050772Y-91695772D01*
X113040809Y-91693140D01*
X112823047Y-91654350D01*
X112812796Y-91653381D01*
X112591616Y-91650679D01*
X112581332Y-91651399D01*
X112362693Y-91684855D01*
X112352666Y-91687244D01*
X112142426Y-91755961D01*
X112132916Y-91759958D01*
X111936725Y-91862089D01*
X111928007Y-91867578D01*
X111898961Y-91889386D01*
X111890508Y-91900711D01*
X111233000Y-91900711D01*
X111233000Y-91575009D01*
X117111435Y-91575009D01*
X117111951Y-91581153D01*
X117128131Y-91773833D01*
X117128969Y-91783818D01*
X117141601Y-91827870D01*
X117178373Y-91956109D01*
X117186727Y-91985244D01*
X117282509Y-92171616D01*
X117286334Y-92176442D01*
X117286336Y-92176445D01*
X117408837Y-92331004D01*
X117408841Y-92331009D01*
X117412666Y-92335834D01*
X117572242Y-92471643D01*
X117755157Y-92573871D01*
X117954445Y-92638624D01*
X118162515Y-92663435D01*
X118168650Y-92662963D01*
X118168652Y-92662963D01*
X118365299Y-92647832D01*
X118365303Y-92647831D01*
X118371441Y-92647359D01*
X118466363Y-92620856D01*
X118567321Y-92592668D01*
X118567325Y-92592667D01*
X118573265Y-92591008D01*
X118578769Y-92588228D01*
X118578771Y-92588227D01*
X118754800Y-92499309D01*
X118754802Y-92499308D01*
X118760301Y-92496530D01*
X118925424Y-92367522D01*
X119062344Y-92208898D01*
X119165846Y-92026701D01*
X119231989Y-91827870D01*
X119258251Y-91619979D01*
X119258670Y-91590000D01*
X119257200Y-91575009D01*
X122191435Y-91575009D01*
X122191951Y-91581153D01*
X122208131Y-91773833D01*
X122208969Y-91783818D01*
X122221601Y-91827870D01*
X122258373Y-91956109D01*
X122266727Y-91985244D01*
X122362509Y-92171616D01*
X122366334Y-92176442D01*
X122366336Y-92176445D01*
X122488837Y-92331004D01*
X122488841Y-92331009D01*
X122492666Y-92335834D01*
X122652242Y-92471643D01*
X122835157Y-92573871D01*
X123034445Y-92638624D01*
X123242515Y-92663435D01*
X123248650Y-92662963D01*
X123248652Y-92662963D01*
X123445299Y-92647832D01*
X123445303Y-92647831D01*
X123451441Y-92647359D01*
X123546363Y-92620856D01*
X123647321Y-92592668D01*
X123647325Y-92592667D01*
X123653265Y-92591008D01*
X123658769Y-92588228D01*
X123658771Y-92588227D01*
X123834800Y-92499309D01*
X123834802Y-92499308D01*
X123840301Y-92496530D01*
X124005424Y-92367522D01*
X124142344Y-92208898D01*
X124245846Y-92026701D01*
X124311989Y-91827870D01*
X124338251Y-91619979D01*
X124338670Y-91590000D01*
X124318222Y-91381456D01*
X124257657Y-91180856D01*
X124159283Y-90995840D01*
X124084812Y-90904530D01*
X124030740Y-90838230D01*
X124030737Y-90838227D01*
X124026845Y-90833455D01*
X123996159Y-90808069D01*
X123870139Y-90703816D01*
X123870135Y-90703814D01*
X123865389Y-90699887D01*
X123681064Y-90600223D01*
X123480891Y-90538259D01*
X123474766Y-90537615D01*
X123474765Y-90537615D01*
X123278624Y-90517000D01*
X123278623Y-90517000D01*
X123272496Y-90516356D01*
X123195482Y-90523365D01*
X123069953Y-90534789D01*
X123069950Y-90534790D01*
X123063814Y-90535348D01*
X123057908Y-90537086D01*
X123057904Y-90537087D01*
X122910946Y-90580340D01*
X122862796Y-90594511D01*
X122857339Y-90597364D01*
X122857336Y-90597365D01*
X122846265Y-90603153D01*
X122677098Y-90691591D01*
X122513792Y-90822892D01*
X122379100Y-90983412D01*
X122376136Y-90988804D01*
X122376133Y-90988808D01*
X122369276Y-91001281D01*
X122278152Y-91167036D01*
X122276291Y-91172903D01*
X122276290Y-91172905D01*
X122246472Y-91266903D01*
X122214792Y-91366771D01*
X122191435Y-91575009D01*
X119257200Y-91575009D01*
X119238222Y-91381456D01*
X119177657Y-91180856D01*
X119079283Y-90995840D01*
X119004812Y-90904530D01*
X118950740Y-90838230D01*
X118950737Y-90838227D01*
X118946845Y-90833455D01*
X118916159Y-90808069D01*
X118790139Y-90703816D01*
X118790135Y-90703814D01*
X118785389Y-90699887D01*
X118601064Y-90600223D01*
X118400891Y-90538259D01*
X118394766Y-90537615D01*
X118394765Y-90537615D01*
X118198624Y-90517000D01*
X118198623Y-90517000D01*
X118192496Y-90516356D01*
X118115482Y-90523365D01*
X117989953Y-90534789D01*
X117989950Y-90534790D01*
X117983814Y-90535348D01*
X117977908Y-90537086D01*
X117977904Y-90537087D01*
X117830946Y-90580340D01*
X117782796Y-90594511D01*
X117777339Y-90597364D01*
X117777336Y-90597365D01*
X117766265Y-90603153D01*
X117597098Y-90691591D01*
X117433792Y-90822892D01*
X117299100Y-90983412D01*
X117296136Y-90988804D01*
X117296133Y-90988808D01*
X117289276Y-91001281D01*
X117198152Y-91167036D01*
X117196291Y-91172903D01*
X117196290Y-91172905D01*
X117166472Y-91266903D01*
X117134792Y-91366771D01*
X117111435Y-91575009D01*
X111233000Y-91575009D01*
X111233000Y-90486695D01*
X125362251Y-90486695D01*
X125362548Y-90491848D01*
X125362548Y-90491851D01*
X125368632Y-90597365D01*
X125375110Y-90709715D01*
X125376247Y-90714761D01*
X125376248Y-90714767D01*
X125396119Y-90802939D01*
X125424222Y-90927639D01*
X125508266Y-91134616D01*
X125624987Y-91325088D01*
X125771250Y-91493938D01*
X125775230Y-91497242D01*
X125779981Y-91501187D01*
X125819616Y-91560090D01*
X125821113Y-91631071D01*
X125783997Y-91691593D01*
X125743724Y-91716112D01*
X125628295Y-91759385D01*
X125511739Y-91846739D01*
X125424385Y-91963295D01*
X125373255Y-92099684D01*
X125366500Y-92161866D01*
X125366500Y-93958134D01*
X125373255Y-94020316D01*
X125424385Y-94156705D01*
X125511739Y-94273261D01*
X125628295Y-94360615D01*
X125764684Y-94411745D01*
X125826866Y-94418500D01*
X127623134Y-94418500D01*
X127685316Y-94411745D01*
X127821705Y-94360615D01*
X127938261Y-94273261D01*
X128025615Y-94156705D01*
X128076745Y-94020316D01*
X128083500Y-93958134D01*
X128083500Y-92161866D01*
X128076745Y-92099684D01*
X128025615Y-91963295D01*
X127938261Y-91846739D01*
X127821705Y-91759385D01*
X127809132Y-91754672D01*
X127703203Y-91714960D01*
X127646439Y-91672318D01*
X127621739Y-91605756D01*
X127636947Y-91536408D01*
X127658493Y-91507727D01*
X127759435Y-91407137D01*
X127763096Y-91403489D01*
X127789481Y-91366771D01*
X127890435Y-91226277D01*
X127893453Y-91222077D01*
X127992430Y-91021811D01*
X128051433Y-90827611D01*
X128055865Y-90813023D01*
X128055865Y-90813021D01*
X128057370Y-90808069D01*
X128086529Y-90586590D01*
X128086611Y-90583240D01*
X128088074Y-90523365D01*
X128088074Y-90523361D01*
X128088156Y-90520000D01*
X128069852Y-90297361D01*
X128015431Y-90080702D01*
X127926354Y-89875840D01*
X127805014Y-89688277D01*
X127654670Y-89523051D01*
X127650619Y-89519852D01*
X127650615Y-89519848D01*
X127483414Y-89387800D01*
X127483410Y-89387798D01*
X127479359Y-89384598D01*
X127283789Y-89276638D01*
X127278920Y-89274914D01*
X127278916Y-89274912D01*
X127078087Y-89203795D01*
X127078083Y-89203794D01*
X127073212Y-89202069D01*
X127068119Y-89201162D01*
X127068116Y-89201161D01*
X126858373Y-89163800D01*
X126858367Y-89163799D01*
X126853284Y-89162894D01*
X126779452Y-89161992D01*
X126635081Y-89160228D01*
X126635079Y-89160228D01*
X126629911Y-89160165D01*
X126409091Y-89193955D01*
X126196756Y-89263357D01*
X125998607Y-89366507D01*
X125994474Y-89369610D01*
X125994471Y-89369612D01*
X125970247Y-89387800D01*
X125819965Y-89500635D01*
X125665629Y-89662138D01*
X125539743Y-89846680D01*
X125445688Y-90049305D01*
X125385989Y-90264570D01*
X125362251Y-90486695D01*
X111233000Y-90486695D01*
X111233000Y-85654669D01*
X134367001Y-85654669D01*
X134367371Y-85661490D01*
X134372895Y-85712352D01*
X134376521Y-85727604D01*
X134421676Y-85848054D01*
X134430214Y-85863649D01*
X134506715Y-85965724D01*
X134519276Y-85978285D01*
X134621351Y-86054786D01*
X134636946Y-86063324D01*
X134757394Y-86108478D01*
X134772649Y-86112105D01*
X134823514Y-86117631D01*
X134830328Y-86118000D01*
X135452885Y-86118000D01*
X135468124Y-86113525D01*
X135469329Y-86112135D01*
X135471000Y-86104452D01*
X135471000Y-86099884D01*
X135979000Y-86099884D01*
X135983475Y-86115123D01*
X135984865Y-86116328D01*
X135992548Y-86117999D01*
X136619669Y-86117999D01*
X136626490Y-86117629D01*
X136677352Y-86112105D01*
X136692604Y-86108479D01*
X136813054Y-86063324D01*
X136828649Y-86054786D01*
X136930724Y-85978285D01*
X136943285Y-85965724D01*
X137019786Y-85863649D01*
X137028324Y-85848054D01*
X137073478Y-85727606D01*
X137077105Y-85712351D01*
X137082631Y-85661486D01*
X137083000Y-85654672D01*
X137083000Y-85032115D01*
X137078525Y-85016876D01*
X137077135Y-85015671D01*
X137069452Y-85014000D01*
X135997115Y-85014000D01*
X135981876Y-85018475D01*
X135980671Y-85019865D01*
X135979000Y-85027548D01*
X135979000Y-86099884D01*
X135471000Y-86099884D01*
X135471000Y-85032115D01*
X135466525Y-85016876D01*
X135465135Y-85015671D01*
X135457452Y-85014000D01*
X134385116Y-85014000D01*
X134369877Y-85018475D01*
X134368672Y-85019865D01*
X134367001Y-85027548D01*
X134367001Y-85654669D01*
X111233000Y-85654669D01*
X111233000Y-84487885D01*
X134367000Y-84487885D01*
X134371475Y-84503124D01*
X134372865Y-84504329D01*
X134380548Y-84506000D01*
X135452885Y-84506000D01*
X135468124Y-84501525D01*
X135469329Y-84500135D01*
X135471000Y-84492452D01*
X135471000Y-84487885D01*
X135979000Y-84487885D01*
X135983475Y-84503124D01*
X135984865Y-84504329D01*
X135992548Y-84506000D01*
X137064884Y-84506000D01*
X137080123Y-84501525D01*
X137081328Y-84500135D01*
X137082999Y-84492452D01*
X137082999Y-83865331D01*
X137082629Y-83858510D01*
X137077105Y-83807648D01*
X137073479Y-83792396D01*
X137028324Y-83671946D01*
X137019786Y-83656351D01*
X136943285Y-83554276D01*
X136930724Y-83541715D01*
X136828649Y-83465214D01*
X136813054Y-83456676D01*
X136692606Y-83411522D01*
X136677351Y-83407895D01*
X136626486Y-83402369D01*
X136619672Y-83402000D01*
X135997115Y-83402000D01*
X135981876Y-83406475D01*
X135980671Y-83407865D01*
X135979000Y-83415548D01*
X135979000Y-84487885D01*
X135471000Y-84487885D01*
X135471000Y-83420116D01*
X135466525Y-83404877D01*
X135465135Y-83403672D01*
X135457452Y-83402001D01*
X134830331Y-83402001D01*
X134823510Y-83402371D01*
X134772648Y-83407895D01*
X134757396Y-83411521D01*
X134636946Y-83456676D01*
X134621351Y-83465214D01*
X134519276Y-83541715D01*
X134506715Y-83554276D01*
X134430214Y-83656351D01*
X134421676Y-83671946D01*
X134376522Y-83792394D01*
X134372895Y-83807649D01*
X134367369Y-83858514D01*
X134367000Y-83865328D01*
X134367000Y-84487885D01*
X111233000Y-84487885D01*
X111233000Y-81195009D01*
X119651435Y-81195009D01*
X119668969Y-81403818D01*
X119726727Y-81605244D01*
X119822509Y-81791616D01*
X119826334Y-81796442D01*
X119826336Y-81796445D01*
X119948837Y-81951004D01*
X119948841Y-81951009D01*
X119952666Y-81955834D01*
X120112242Y-82091643D01*
X120295157Y-82193871D01*
X120494445Y-82258624D01*
X120702515Y-82283435D01*
X120708650Y-82282963D01*
X120708652Y-82282963D01*
X120905299Y-82267832D01*
X120905303Y-82267831D01*
X120911441Y-82267359D01*
X121006363Y-82240856D01*
X121107321Y-82212668D01*
X121107325Y-82212667D01*
X121113265Y-82211008D01*
X121118769Y-82208228D01*
X121118771Y-82208227D01*
X121294800Y-82119309D01*
X121294802Y-82119308D01*
X121300301Y-82116530D01*
X121465424Y-81987522D01*
X121602344Y-81828898D01*
X121705846Y-81646701D01*
X121771989Y-81447870D01*
X121798251Y-81239979D01*
X121798670Y-81210000D01*
X121778222Y-81001456D01*
X121717657Y-80800856D01*
X121619283Y-80615840D01*
X121544812Y-80524530D01*
X121490740Y-80458230D01*
X121490737Y-80458227D01*
X121486845Y-80453455D01*
X121469412Y-80439033D01*
X121330139Y-80323816D01*
X121330135Y-80323814D01*
X121325389Y-80319887D01*
X121141064Y-80220223D01*
X120940891Y-80158259D01*
X120934766Y-80157615D01*
X120934765Y-80157615D01*
X120738624Y-80137000D01*
X120738623Y-80137000D01*
X120732496Y-80136356D01*
X120646138Y-80144215D01*
X120529953Y-80154789D01*
X120529950Y-80154790D01*
X120523814Y-80155348D01*
X120517908Y-80157086D01*
X120517904Y-80157087D01*
X120370946Y-80200340D01*
X120322796Y-80214511D01*
X120317339Y-80217364D01*
X120317336Y-80217365D01*
X120306265Y-80223153D01*
X120137098Y-80311591D01*
X119973792Y-80442892D01*
X119839100Y-80603412D01*
X119836136Y-80608804D01*
X119836133Y-80608808D01*
X119829276Y-80621281D01*
X119738152Y-80787036D01*
X119674792Y-80986771D01*
X119651435Y-81195009D01*
X111233000Y-81195009D01*
X111233000Y-78421406D01*
X111888423Y-78421406D01*
X111893704Y-78428461D01*
X112070080Y-78531527D01*
X112079363Y-78535974D01*
X112286003Y-78614883D01*
X112295901Y-78617759D01*
X112512653Y-78661857D01*
X112522883Y-78663076D01*
X112743914Y-78671182D01*
X112754223Y-78670714D01*
X112973623Y-78642608D01*
X112983688Y-78640468D01*
X113195557Y-78576905D01*
X113205152Y-78573144D01*
X113403778Y-78475838D01*
X113412636Y-78470559D01*
X113470097Y-78429572D01*
X113478497Y-78418874D01*
X113471510Y-78405721D01*
X112697811Y-77632021D01*
X112683868Y-77624408D01*
X112682034Y-77624539D01*
X112675420Y-77628790D01*
X111895180Y-78409031D01*
X111888423Y-78421406D01*
X111233000Y-78421406D01*
X111233000Y-78032202D01*
X111253002Y-77964081D01*
X111306658Y-77917588D01*
X111376932Y-77907484D01*
X111441512Y-77936978D01*
X111466433Y-77966368D01*
X111515097Y-78045781D01*
X111525553Y-78055242D01*
X111534331Y-78051458D01*
X112312979Y-77272811D01*
X112319356Y-77261132D01*
X113049408Y-77261132D01*
X113049539Y-77262966D01*
X113053790Y-77269580D01*
X113779595Y-77995384D01*
X113813620Y-78057697D01*
X113816500Y-78084480D01*
X113816500Y-78208134D01*
X113823255Y-78270316D01*
X113874385Y-78406705D01*
X113961739Y-78523261D01*
X114078295Y-78610615D01*
X114214684Y-78661745D01*
X114276866Y-78668500D01*
X116173134Y-78668500D01*
X116235316Y-78661745D01*
X116253284Y-78655009D01*
X117111435Y-78655009D01*
X117114507Y-78691593D01*
X117128138Y-78853919D01*
X117128969Y-78863818D01*
X117186727Y-79065244D01*
X117282509Y-79251616D01*
X117286334Y-79256442D01*
X117286336Y-79256445D01*
X117408837Y-79411004D01*
X117408841Y-79411009D01*
X117412666Y-79415834D01*
X117572242Y-79551643D01*
X117755157Y-79653871D01*
X117954445Y-79718624D01*
X118162515Y-79743435D01*
X118168650Y-79742963D01*
X118168652Y-79742963D01*
X118365299Y-79727832D01*
X118365303Y-79727831D01*
X118371441Y-79727359D01*
X118466363Y-79700856D01*
X118567321Y-79672668D01*
X118567325Y-79672667D01*
X118573265Y-79671008D01*
X118578769Y-79668228D01*
X118578771Y-79668227D01*
X118754800Y-79579309D01*
X118754802Y-79579308D01*
X118760301Y-79576530D01*
X118925424Y-79447522D01*
X119062344Y-79288898D01*
X119165846Y-79106701D01*
X119231989Y-78907870D01*
X119258251Y-78699979D01*
X119258670Y-78670000D01*
X119257200Y-78655009D01*
X122191435Y-78655009D01*
X122194507Y-78691593D01*
X122208138Y-78853919D01*
X122208969Y-78863818D01*
X122266727Y-79065244D01*
X122362509Y-79251616D01*
X122366334Y-79256442D01*
X122366336Y-79256445D01*
X122488837Y-79411004D01*
X122488841Y-79411009D01*
X122492666Y-79415834D01*
X122652242Y-79551643D01*
X122835157Y-79653871D01*
X123034445Y-79718624D01*
X123242515Y-79743435D01*
X123248650Y-79742963D01*
X123248652Y-79742963D01*
X123445299Y-79727832D01*
X123445303Y-79727831D01*
X123451441Y-79727359D01*
X123546363Y-79700856D01*
X123647321Y-79672668D01*
X123647325Y-79672667D01*
X123653265Y-79671008D01*
X123658769Y-79668228D01*
X123658771Y-79668227D01*
X123834800Y-79579309D01*
X123834802Y-79579308D01*
X123840301Y-79576530D01*
X124005424Y-79447522D01*
X124142344Y-79288898D01*
X124245846Y-79106701D01*
X124311989Y-78907870D01*
X124338251Y-78699979D01*
X124338670Y-78670000D01*
X124318222Y-78461456D01*
X124257657Y-78260856D01*
X124159283Y-78075840D01*
X124042317Y-77932425D01*
X124030740Y-77918230D01*
X124030737Y-77918227D01*
X124026845Y-77913455D01*
X124019781Y-77907611D01*
X123870139Y-77783816D01*
X123870135Y-77783814D01*
X123865389Y-77779887D01*
X123681064Y-77680223D01*
X123480891Y-77618259D01*
X123474766Y-77617615D01*
X123474765Y-77617615D01*
X123278624Y-77597000D01*
X123278623Y-77597000D01*
X123272496Y-77596356D01*
X123186138Y-77604215D01*
X123069953Y-77614789D01*
X123069950Y-77614790D01*
X123063814Y-77615348D01*
X123057908Y-77617086D01*
X123057904Y-77617087D01*
X122910946Y-77660340D01*
X122862796Y-77674511D01*
X122857339Y-77677364D01*
X122857336Y-77677365D01*
X122785793Y-77714767D01*
X122677098Y-77771591D01*
X122513792Y-77902892D01*
X122379100Y-78063412D01*
X122376136Y-78068804D01*
X122376133Y-78068808D01*
X122297671Y-78211531D01*
X122278152Y-78247036D01*
X122276291Y-78252903D01*
X122276290Y-78252905D01*
X122251824Y-78330032D01*
X122214792Y-78446771D01*
X122191435Y-78655009D01*
X119257200Y-78655009D01*
X119238222Y-78461456D01*
X119177657Y-78260856D01*
X119079283Y-78075840D01*
X118962317Y-77932425D01*
X118950740Y-77918230D01*
X118950737Y-77918227D01*
X118946845Y-77913455D01*
X118939781Y-77907611D01*
X118790139Y-77783816D01*
X118790135Y-77783814D01*
X118785389Y-77779887D01*
X118601064Y-77680223D01*
X118400891Y-77618259D01*
X118394766Y-77617615D01*
X118394765Y-77617615D01*
X118198624Y-77597000D01*
X118198623Y-77597000D01*
X118192496Y-77596356D01*
X118106138Y-77604215D01*
X117989953Y-77614789D01*
X117989950Y-77614790D01*
X117983814Y-77615348D01*
X117977908Y-77617086D01*
X117977904Y-77617087D01*
X117830946Y-77660340D01*
X117782796Y-77674511D01*
X117777339Y-77677364D01*
X117777336Y-77677365D01*
X117705793Y-77714767D01*
X117597098Y-77771591D01*
X117433792Y-77902892D01*
X117299100Y-78063412D01*
X117296136Y-78068804D01*
X117296133Y-78068808D01*
X117217671Y-78211531D01*
X117198152Y-78247036D01*
X117196291Y-78252903D01*
X117196290Y-78252905D01*
X117171824Y-78330032D01*
X117134792Y-78446771D01*
X117111435Y-78655009D01*
X116253284Y-78655009D01*
X116371705Y-78610615D01*
X116488261Y-78523261D01*
X116575615Y-78406705D01*
X116626745Y-78270316D01*
X116633500Y-78208134D01*
X116633500Y-77486695D01*
X125362251Y-77486695D01*
X125362548Y-77491848D01*
X125362548Y-77491851D01*
X125373578Y-77683153D01*
X125375110Y-77709715D01*
X125376247Y-77714761D01*
X125376248Y-77714767D01*
X125396119Y-77802939D01*
X125424222Y-77927639D01*
X125508266Y-78134616D01*
X125510965Y-78139020D01*
X125622063Y-78320316D01*
X125624987Y-78325088D01*
X125771250Y-78493938D01*
X125775230Y-78497242D01*
X125779981Y-78501187D01*
X125819616Y-78560090D01*
X125821113Y-78631071D01*
X125783997Y-78691593D01*
X125743725Y-78716112D01*
X125730428Y-78721097D01*
X125628295Y-78759385D01*
X125511739Y-78846739D01*
X125424385Y-78963295D01*
X125373255Y-79099684D01*
X125366500Y-79161866D01*
X125366500Y-80958134D01*
X125373255Y-81020316D01*
X125424385Y-81156705D01*
X125511739Y-81273261D01*
X125628295Y-81360615D01*
X125764684Y-81411745D01*
X125826866Y-81418500D01*
X127623134Y-81418500D01*
X127685316Y-81411745D01*
X127821705Y-81360615D01*
X127938261Y-81273261D01*
X128025615Y-81156705D01*
X128076745Y-81020316D01*
X128083500Y-80958134D01*
X128083500Y-79161866D01*
X128076745Y-79099684D01*
X128025615Y-78963295D01*
X127938261Y-78846739D01*
X127821705Y-78759385D01*
X127809132Y-78754672D01*
X127703203Y-78714960D01*
X127646439Y-78672318D01*
X127621739Y-78605756D01*
X127636947Y-78536408D01*
X127658493Y-78507727D01*
X127690494Y-78475838D01*
X127763096Y-78403489D01*
X127810701Y-78337240D01*
X127890435Y-78226277D01*
X127893453Y-78222077D01*
X127963039Y-78081281D01*
X127990136Y-78026453D01*
X127990137Y-78026451D01*
X127992430Y-78021811D01*
X128057370Y-77808069D01*
X128086529Y-77586590D01*
X128088156Y-77520000D01*
X128069852Y-77297361D01*
X128015431Y-77080702D01*
X127926354Y-76875840D01*
X127825918Y-76720590D01*
X127807822Y-76692617D01*
X127807820Y-76692614D01*
X127805014Y-76688277D01*
X127654670Y-76523051D01*
X127650619Y-76519852D01*
X127650615Y-76519848D01*
X127483414Y-76387800D01*
X127483410Y-76387798D01*
X127479359Y-76384598D01*
X127283789Y-76276638D01*
X127278920Y-76274914D01*
X127278916Y-76274912D01*
X127078087Y-76203795D01*
X127078083Y-76203794D01*
X127073212Y-76202069D01*
X127068119Y-76201162D01*
X127068116Y-76201161D01*
X126858373Y-76163800D01*
X126858367Y-76163799D01*
X126853284Y-76162894D01*
X126779452Y-76161992D01*
X126635081Y-76160228D01*
X126635079Y-76160228D01*
X126629911Y-76160165D01*
X126409091Y-76193955D01*
X126196756Y-76263357D01*
X126166443Y-76279137D01*
X126048307Y-76340635D01*
X125998607Y-76366507D01*
X125994474Y-76369610D01*
X125994471Y-76369612D01*
X125865061Y-76466776D01*
X125819965Y-76500635D01*
X125665629Y-76662138D01*
X125539743Y-76846680D01*
X125445688Y-77049305D01*
X125385989Y-77264570D01*
X125362251Y-77486695D01*
X116633500Y-77486695D01*
X116633500Y-76311866D01*
X116626745Y-76249684D01*
X116575615Y-76113295D01*
X116488261Y-75996739D01*
X116371705Y-75909385D01*
X116235316Y-75858255D01*
X116173134Y-75851500D01*
X114276866Y-75851500D01*
X114214684Y-75858255D01*
X114078295Y-75909385D01*
X113961739Y-75996739D01*
X113874385Y-76113295D01*
X113823255Y-76249684D01*
X113816500Y-76311866D01*
X113816500Y-76435520D01*
X113796498Y-76503641D01*
X113779595Y-76524616D01*
X113057021Y-77247189D01*
X113049408Y-77261132D01*
X112319356Y-77261132D01*
X112320592Y-77258868D01*
X112320461Y-77257034D01*
X112316210Y-77250420D01*
X111538862Y-76473073D01*
X111527330Y-76466776D01*
X111515048Y-76476399D01*
X111463088Y-76552569D01*
X111408176Y-76597571D01*
X111337652Y-76605742D01*
X111273905Y-76574488D01*
X111237175Y-76513730D01*
X111233000Y-76481564D01*
X111233000Y-76100711D01*
X111890508Y-76100711D01*
X111897251Y-76113040D01*
X112672189Y-76887979D01*
X112686132Y-76895592D01*
X112687966Y-76895461D01*
X112694580Y-76891210D01*
X113473994Y-76111795D01*
X113481011Y-76098944D01*
X113473237Y-76088274D01*
X113470902Y-76086430D01*
X113462320Y-76080729D01*
X113268678Y-75973833D01*
X113259272Y-75969606D01*
X113050772Y-75895772D01*
X113040809Y-75893140D01*
X112823047Y-75854350D01*
X112812796Y-75853381D01*
X112591616Y-75850679D01*
X112581332Y-75851399D01*
X112362693Y-75884855D01*
X112352666Y-75887244D01*
X112142426Y-75955961D01*
X112132916Y-75959958D01*
X111936725Y-76062089D01*
X111928007Y-76067578D01*
X111898961Y-76089386D01*
X111890508Y-76100711D01*
X111233000Y-76100711D01*
X111233000Y-74786695D01*
X134587251Y-74786695D01*
X134587548Y-74791848D01*
X134587548Y-74791851D01*
X134593011Y-74886590D01*
X134600110Y-75009715D01*
X134601247Y-75014761D01*
X134601248Y-75014767D01*
X134621119Y-75102939D01*
X134649222Y-75227639D01*
X134733266Y-75434616D01*
X134784019Y-75517438D01*
X134847291Y-75620688D01*
X134849987Y-75625088D01*
X134996250Y-75793938D01*
X135000230Y-75797242D01*
X135004981Y-75801187D01*
X135044616Y-75860090D01*
X135046113Y-75931071D01*
X135008997Y-75991593D01*
X134968725Y-76016112D01*
X134880095Y-76049338D01*
X134853295Y-76059385D01*
X134736739Y-76146739D01*
X134649385Y-76263295D01*
X134598255Y-76399684D01*
X134591500Y-76461866D01*
X134591500Y-78258134D01*
X134598255Y-78320316D01*
X134649385Y-78456705D01*
X134736739Y-78573261D01*
X134853295Y-78660615D01*
X134989684Y-78711745D01*
X135051866Y-78718500D01*
X136848134Y-78718500D01*
X136910316Y-78711745D01*
X137046705Y-78660615D01*
X137163261Y-78573261D01*
X137250615Y-78456705D01*
X137272799Y-78397529D01*
X137294598Y-78339382D01*
X137337240Y-78282618D01*
X137403802Y-78257918D01*
X137473150Y-78273126D01*
X137507817Y-78301114D01*
X137536250Y-78333938D01*
X137708126Y-78476632D01*
X137901000Y-78589338D01*
X137905825Y-78591180D01*
X137905826Y-78591181D01*
X137975427Y-78617759D01*
X138109692Y-78669030D01*
X138114760Y-78670061D01*
X138114763Y-78670062D01*
X138217166Y-78690896D01*
X138328597Y-78713567D01*
X138333772Y-78713757D01*
X138333774Y-78713757D01*
X138546673Y-78721564D01*
X138546677Y-78721564D01*
X138551837Y-78721753D01*
X138556957Y-78721097D01*
X138556959Y-78721097D01*
X138768288Y-78694025D01*
X138768289Y-78694025D01*
X138773416Y-78693368D01*
X138778366Y-78691883D01*
X138982429Y-78630661D01*
X138982434Y-78630659D01*
X138987384Y-78629174D01*
X139187994Y-78530896D01*
X139369860Y-78401173D01*
X139528096Y-78243489D01*
X139546816Y-78217438D01*
X139655435Y-78066277D01*
X139658453Y-78062077D01*
X139676060Y-78026453D01*
X139755136Y-77866453D01*
X139755137Y-77866451D01*
X139757430Y-77861811D01*
X139802106Y-77714767D01*
X139820865Y-77653023D01*
X139820865Y-77653021D01*
X139822370Y-77648069D01*
X139851529Y-77426590D01*
X139853156Y-77360000D01*
X139834852Y-77137361D01*
X139780431Y-76920702D01*
X139691354Y-76715840D01*
X139651906Y-76654862D01*
X139572822Y-76532617D01*
X139572820Y-76532614D01*
X139570014Y-76528277D01*
X139419670Y-76363051D01*
X139415619Y-76359852D01*
X139415615Y-76359848D01*
X139248414Y-76227800D01*
X139248410Y-76227798D01*
X139244359Y-76224598D01*
X139203053Y-76201796D01*
X139153084Y-76151364D01*
X139138312Y-76081921D01*
X139163428Y-76015516D01*
X139190780Y-75988909D01*
X139236971Y-75955961D01*
X139369860Y-75861173D01*
X139377680Y-75853381D01*
X139524435Y-75707137D01*
X139528096Y-75703489D01*
X139587594Y-75620689D01*
X139655435Y-75526277D01*
X139658453Y-75522077D01*
X139679320Y-75479857D01*
X139755136Y-75326453D01*
X139755137Y-75326451D01*
X139757430Y-75321811D01*
X139822370Y-75108069D01*
X139851529Y-74886590D01*
X139853156Y-74820000D01*
X139834852Y-74597361D01*
X139780431Y-74380702D01*
X139691354Y-74175840D01*
X139570014Y-73988277D01*
X139419670Y-73823051D01*
X139415619Y-73819852D01*
X139415615Y-73819848D01*
X139248414Y-73687800D01*
X139248410Y-73687798D01*
X139244359Y-73684598D01*
X139203053Y-73661796D01*
X139153084Y-73611364D01*
X139138312Y-73541921D01*
X139163428Y-73475516D01*
X139190780Y-73448909D01*
X139234603Y-73417650D01*
X139369860Y-73321173D01*
X139528096Y-73163489D01*
X139587594Y-73080689D01*
X139655435Y-72986277D01*
X139658453Y-72982077D01*
X139679320Y-72939857D01*
X139755136Y-72786453D01*
X139755137Y-72786451D01*
X139757430Y-72781811D01*
X139822370Y-72568069D01*
X139851529Y-72346590D01*
X139853156Y-72280000D01*
X139834852Y-72057361D01*
X139780431Y-71840702D01*
X139691354Y-71635840D01*
X139628905Y-71539309D01*
X139572822Y-71452617D01*
X139572820Y-71452614D01*
X139570014Y-71448277D01*
X139419670Y-71283051D01*
X139415619Y-71279852D01*
X139415615Y-71279848D01*
X139248414Y-71147800D01*
X139248410Y-71147798D01*
X139244359Y-71144598D01*
X139203053Y-71121796D01*
X139153084Y-71071364D01*
X139138312Y-71001921D01*
X139163428Y-70935516D01*
X139190780Y-70908909D01*
X139234603Y-70877650D01*
X139369860Y-70781173D01*
X139528096Y-70623489D01*
X139534190Y-70615009D01*
X139655435Y-70446277D01*
X139658453Y-70442077D01*
X139665614Y-70427589D01*
X139755136Y-70246453D01*
X139755137Y-70246451D01*
X139757430Y-70241811D01*
X139822370Y-70028069D01*
X139851529Y-69806590D01*
X139853156Y-69740000D01*
X139834852Y-69517361D01*
X139780431Y-69300702D01*
X139691354Y-69095840D01*
X139628905Y-68999309D01*
X139572822Y-68912617D01*
X139572820Y-68912614D01*
X139570014Y-68908277D01*
X139419670Y-68743051D01*
X139415619Y-68739852D01*
X139415615Y-68739848D01*
X139248414Y-68607800D01*
X139248410Y-68607798D01*
X139244359Y-68604598D01*
X139235458Y-68599684D01*
X139108449Y-68529572D01*
X139048789Y-68496638D01*
X139043920Y-68494914D01*
X139043916Y-68494912D01*
X138843087Y-68423795D01*
X138843083Y-68423794D01*
X138838212Y-68422069D01*
X138833119Y-68421162D01*
X138833116Y-68421161D01*
X138623373Y-68383800D01*
X138623367Y-68383799D01*
X138618284Y-68382894D01*
X138544452Y-68381992D01*
X138400081Y-68380228D01*
X138400079Y-68380228D01*
X138394911Y-68380165D01*
X138174091Y-68413955D01*
X137961756Y-68483357D01*
X137763607Y-68586507D01*
X137759474Y-68589610D01*
X137759471Y-68589612D01*
X137589100Y-68717530D01*
X137584965Y-68720635D01*
X137430629Y-68882138D01*
X137323201Y-69039621D01*
X137268293Y-69084621D01*
X137197768Y-69092792D01*
X137134021Y-69061538D01*
X137113324Y-69037054D01*
X137032822Y-68912617D01*
X137032820Y-68912614D01*
X137030014Y-68908277D01*
X136879670Y-68743051D01*
X136875619Y-68739852D01*
X136875615Y-68739848D01*
X136708414Y-68607800D01*
X136708410Y-68607798D01*
X136704359Y-68604598D01*
X136695458Y-68599684D01*
X136568449Y-68529572D01*
X136508789Y-68496638D01*
X136503920Y-68494914D01*
X136503916Y-68494912D01*
X136303087Y-68423795D01*
X136303083Y-68423794D01*
X136298212Y-68422069D01*
X136293119Y-68421162D01*
X136293116Y-68421161D01*
X136083373Y-68383800D01*
X136083367Y-68383799D01*
X136078284Y-68382894D01*
X136004452Y-68381992D01*
X135860081Y-68380228D01*
X135860079Y-68380228D01*
X135854911Y-68380165D01*
X135634091Y-68413955D01*
X135421756Y-68483357D01*
X135223607Y-68586507D01*
X135219474Y-68589610D01*
X135219471Y-68589612D01*
X135049100Y-68717530D01*
X135044965Y-68720635D01*
X134890629Y-68882138D01*
X134764743Y-69066680D01*
X134670688Y-69269305D01*
X134610989Y-69484570D01*
X134587251Y-69706695D01*
X134587548Y-69711848D01*
X134587548Y-69711851D01*
X134596257Y-69862892D01*
X134600110Y-69929715D01*
X134601247Y-69934761D01*
X134601248Y-69934767D01*
X134621119Y-70022939D01*
X134649222Y-70147639D01*
X134733266Y-70354616D01*
X134777984Y-70427589D01*
X134847291Y-70540688D01*
X134849987Y-70545088D01*
X134996250Y-70713938D01*
X135168126Y-70856632D01*
X135187358Y-70867870D01*
X135241445Y-70899476D01*
X135290169Y-70951114D01*
X135303240Y-71020897D01*
X135276509Y-71086669D01*
X135236055Y-71120027D01*
X135223607Y-71126507D01*
X135219474Y-71129610D01*
X135219471Y-71129612D01*
X135067733Y-71243540D01*
X135044965Y-71260635D01*
X134890629Y-71422138D01*
X134764743Y-71606680D01*
X134670688Y-71809305D01*
X134610989Y-72024570D01*
X134587251Y-72246695D01*
X134587548Y-72251848D01*
X134587548Y-72251851D01*
X134593011Y-72346590D01*
X134600110Y-72469715D01*
X134601247Y-72474761D01*
X134601248Y-72474767D01*
X134621119Y-72562939D01*
X134649222Y-72687639D01*
X134733266Y-72894616D01*
X134784019Y-72977438D01*
X134847291Y-73080688D01*
X134849987Y-73085088D01*
X134996250Y-73253938D01*
X135168126Y-73396632D01*
X135238595Y-73437811D01*
X135241445Y-73439476D01*
X135290169Y-73491114D01*
X135303240Y-73560897D01*
X135276509Y-73626669D01*
X135236055Y-73660027D01*
X135223607Y-73666507D01*
X135219474Y-73669610D01*
X135219471Y-73669612D01*
X135195247Y-73687800D01*
X135044965Y-73800635D01*
X134890629Y-73962138D01*
X134764743Y-74146680D01*
X134670688Y-74349305D01*
X134610989Y-74564570D01*
X134587251Y-74786695D01*
X111233000Y-74786695D01*
X111233000Y-70615009D01*
X119651435Y-70615009D01*
X119651951Y-70621153D01*
X119665176Y-70778642D01*
X119668969Y-70823818D01*
X119693386Y-70908971D01*
X119705471Y-70951114D01*
X119726727Y-71025244D01*
X119822509Y-71211616D01*
X119826334Y-71216442D01*
X119826336Y-71216445D01*
X119948837Y-71371004D01*
X119948841Y-71371009D01*
X119952666Y-71375834D01*
X120112242Y-71511643D01*
X120295157Y-71613871D01*
X120494445Y-71678624D01*
X120702515Y-71703435D01*
X120708650Y-71702963D01*
X120708652Y-71702963D01*
X120905299Y-71687832D01*
X120905303Y-71687831D01*
X120911441Y-71687359D01*
X121006363Y-71660856D01*
X121107321Y-71632668D01*
X121107325Y-71632667D01*
X121113265Y-71631008D01*
X121118769Y-71628228D01*
X121118771Y-71628227D01*
X121294800Y-71539309D01*
X121294802Y-71539308D01*
X121300301Y-71536530D01*
X121446716Y-71422138D01*
X121460563Y-71411320D01*
X121460564Y-71411319D01*
X121465424Y-71407522D01*
X121602344Y-71248898D01*
X121705846Y-71066701D01*
X121771989Y-70867870D01*
X121772906Y-70860615D01*
X121783401Y-70777529D01*
X121798251Y-70659979D01*
X121798670Y-70630000D01*
X121778222Y-70421456D01*
X121717657Y-70220856D01*
X121619283Y-70035840D01*
X121528515Y-69924547D01*
X121490740Y-69878230D01*
X121490737Y-69878227D01*
X121486845Y-69873455D01*
X121410030Y-69809908D01*
X121330139Y-69743816D01*
X121330135Y-69743814D01*
X121325389Y-69739887D01*
X121141064Y-69640223D01*
X120940891Y-69578259D01*
X120934766Y-69577615D01*
X120934765Y-69577615D01*
X120738624Y-69557000D01*
X120738623Y-69557000D01*
X120732496Y-69556356D01*
X120646138Y-69564215D01*
X120529953Y-69574789D01*
X120529950Y-69574790D01*
X120523814Y-69575348D01*
X120517908Y-69577086D01*
X120517904Y-69577087D01*
X120370946Y-69620340D01*
X120322796Y-69634511D01*
X120317339Y-69637364D01*
X120317336Y-69637365D01*
X120306265Y-69643153D01*
X120137098Y-69731591D01*
X119973792Y-69862892D01*
X119839100Y-70023412D01*
X119836136Y-70028804D01*
X119836133Y-70028808D01*
X119829276Y-70041281D01*
X119738152Y-70207036D01*
X119674792Y-70406771D01*
X119651435Y-70615009D01*
X111233000Y-70615009D01*
X111233000Y-68521406D01*
X111888423Y-68521406D01*
X111893704Y-68528461D01*
X112070080Y-68631527D01*
X112079363Y-68635974D01*
X112286003Y-68714883D01*
X112295901Y-68717759D01*
X112512653Y-68761857D01*
X112522883Y-68763076D01*
X112743914Y-68771182D01*
X112754223Y-68770714D01*
X112973623Y-68742608D01*
X112983688Y-68740468D01*
X113195557Y-68676905D01*
X113205152Y-68673144D01*
X113403778Y-68575838D01*
X113412636Y-68570559D01*
X113470097Y-68529572D01*
X113478497Y-68518874D01*
X113471510Y-68505721D01*
X112697811Y-67732021D01*
X112683868Y-67724408D01*
X112682034Y-67724539D01*
X112675420Y-67728790D01*
X111895180Y-68509031D01*
X111888423Y-68521406D01*
X111233000Y-68521406D01*
X111233000Y-68132202D01*
X111253002Y-68064081D01*
X111306658Y-68017588D01*
X111376932Y-68007484D01*
X111441512Y-68036978D01*
X111466433Y-68066368D01*
X111515097Y-68145781D01*
X111525553Y-68155242D01*
X111534331Y-68151458D01*
X112312979Y-67372811D01*
X112319356Y-67361132D01*
X113049408Y-67361132D01*
X113049539Y-67362966D01*
X113053790Y-67369580D01*
X113779595Y-68095384D01*
X113813620Y-68157697D01*
X113816500Y-68184480D01*
X113816500Y-68308134D01*
X113823255Y-68370316D01*
X113874385Y-68506705D01*
X113961739Y-68623261D01*
X114078295Y-68710615D01*
X114214684Y-68761745D01*
X114276866Y-68768500D01*
X116173134Y-68768500D01*
X116235316Y-68761745D01*
X116371705Y-68710615D01*
X116488261Y-68623261D01*
X116575615Y-68506705D01*
X116626745Y-68370316D01*
X116633500Y-68308134D01*
X116633500Y-68075009D01*
X117111435Y-68075009D01*
X117111951Y-68081153D01*
X117127370Y-68264771D01*
X117128969Y-68283818D01*
X117141601Y-68327870D01*
X117178373Y-68456109D01*
X117186727Y-68485244D01*
X117210789Y-68532064D01*
X117264192Y-68635974D01*
X117282509Y-68671616D01*
X117286334Y-68676442D01*
X117286336Y-68676445D01*
X117408837Y-68831004D01*
X117408841Y-68831009D01*
X117412666Y-68835834D01*
X117572242Y-68971643D01*
X117755157Y-69073871D01*
X117954445Y-69138624D01*
X118162515Y-69163435D01*
X118168650Y-69162963D01*
X118168652Y-69162963D01*
X118365299Y-69147832D01*
X118365303Y-69147831D01*
X118371441Y-69147359D01*
X118466363Y-69120856D01*
X118567321Y-69092668D01*
X118567325Y-69092667D01*
X118573265Y-69091008D01*
X118578769Y-69088228D01*
X118578771Y-69088227D01*
X118754800Y-68999309D01*
X118754802Y-68999308D01*
X118760301Y-68996530D01*
X118906716Y-68882138D01*
X118920563Y-68871320D01*
X118920564Y-68871319D01*
X118925424Y-68867522D01*
X119052213Y-68720635D01*
X119058320Y-68713560D01*
X119058321Y-68713559D01*
X119062344Y-68708898D01*
X119165846Y-68526701D01*
X119231989Y-68327870D01*
X119258251Y-68119979D01*
X119258670Y-68090000D01*
X119257200Y-68075009D01*
X122191435Y-68075009D01*
X122191951Y-68081153D01*
X122207370Y-68264771D01*
X122208969Y-68283818D01*
X122221601Y-68327870D01*
X122258373Y-68456109D01*
X122266727Y-68485244D01*
X122290789Y-68532064D01*
X122344192Y-68635974D01*
X122362509Y-68671616D01*
X122366334Y-68676442D01*
X122366336Y-68676445D01*
X122488837Y-68831004D01*
X122488841Y-68831009D01*
X122492666Y-68835834D01*
X122652242Y-68971643D01*
X122835157Y-69073871D01*
X123034445Y-69138624D01*
X123242515Y-69163435D01*
X123248650Y-69162963D01*
X123248652Y-69162963D01*
X123445299Y-69147832D01*
X123445303Y-69147831D01*
X123451441Y-69147359D01*
X123546363Y-69120856D01*
X123647321Y-69092668D01*
X123647325Y-69092667D01*
X123653265Y-69091008D01*
X123658769Y-69088228D01*
X123658771Y-69088227D01*
X123834800Y-68999309D01*
X123834802Y-68999308D01*
X123840301Y-68996530D01*
X123986716Y-68882138D01*
X124000563Y-68871320D01*
X124000564Y-68871319D01*
X124005424Y-68867522D01*
X124132213Y-68720635D01*
X124138320Y-68713560D01*
X124138321Y-68713559D01*
X124142344Y-68708898D01*
X124245846Y-68526701D01*
X124311989Y-68327870D01*
X124338251Y-68119979D01*
X124338670Y-68090000D01*
X124318222Y-67881456D01*
X124257657Y-67680856D01*
X124159283Y-67495840D01*
X124049418Y-67361132D01*
X124030740Y-67338230D01*
X124030737Y-67338227D01*
X124026845Y-67333455D01*
X123996159Y-67308069D01*
X123870139Y-67203816D01*
X123870135Y-67203814D01*
X123865389Y-67199887D01*
X123681064Y-67100223D01*
X123480891Y-67038259D01*
X123474766Y-67037615D01*
X123474765Y-67037615D01*
X123278624Y-67017000D01*
X123278623Y-67017000D01*
X123272496Y-67016356D01*
X123195482Y-67023365D01*
X123069953Y-67034789D01*
X123069950Y-67034790D01*
X123063814Y-67035348D01*
X123057908Y-67037086D01*
X123057904Y-67037087D01*
X122910946Y-67080340D01*
X122862796Y-67094511D01*
X122857339Y-67097364D01*
X122857336Y-67097365D01*
X122846265Y-67103153D01*
X122677098Y-67191591D01*
X122513792Y-67322892D01*
X122379100Y-67483412D01*
X122376136Y-67488804D01*
X122376133Y-67488808D01*
X122369276Y-67501281D01*
X122278152Y-67667036D01*
X122276291Y-67672903D01*
X122276290Y-67672905D01*
X122258562Y-67728790D01*
X122214792Y-67866771D01*
X122191435Y-68075009D01*
X119257200Y-68075009D01*
X119238222Y-67881456D01*
X119177657Y-67680856D01*
X119079283Y-67495840D01*
X118969418Y-67361132D01*
X118950740Y-67338230D01*
X118950737Y-67338227D01*
X118946845Y-67333455D01*
X118916159Y-67308069D01*
X118790139Y-67203816D01*
X118790135Y-67203814D01*
X118785389Y-67199887D01*
X118601064Y-67100223D01*
X118400891Y-67038259D01*
X118394766Y-67037615D01*
X118394765Y-67037615D01*
X118198624Y-67017000D01*
X118198623Y-67017000D01*
X118192496Y-67016356D01*
X118115482Y-67023365D01*
X117989953Y-67034789D01*
X117989950Y-67034790D01*
X117983814Y-67035348D01*
X117977908Y-67037086D01*
X117977904Y-67037087D01*
X117830946Y-67080340D01*
X117782796Y-67094511D01*
X117777339Y-67097364D01*
X117777336Y-67097365D01*
X117766265Y-67103153D01*
X117597098Y-67191591D01*
X117433792Y-67322892D01*
X117299100Y-67483412D01*
X117296136Y-67488804D01*
X117296133Y-67488808D01*
X117289276Y-67501281D01*
X117198152Y-67667036D01*
X117196291Y-67672903D01*
X117196290Y-67672905D01*
X117178562Y-67728790D01*
X117134792Y-67866771D01*
X117111435Y-68075009D01*
X116633500Y-68075009D01*
X116633500Y-66986695D01*
X125362251Y-66986695D01*
X125362548Y-66991848D01*
X125362548Y-66991851D01*
X125368632Y-67097365D01*
X125375110Y-67209715D01*
X125376247Y-67214761D01*
X125376248Y-67214767D01*
X125396119Y-67302939D01*
X125424222Y-67427639D01*
X125508266Y-67634616D01*
X125624987Y-67825088D01*
X125771250Y-67993938D01*
X125775230Y-67997242D01*
X125779981Y-68001187D01*
X125819616Y-68060090D01*
X125821113Y-68131071D01*
X125783997Y-68191593D01*
X125743724Y-68216112D01*
X125628295Y-68259385D01*
X125511739Y-68346739D01*
X125424385Y-68463295D01*
X125373255Y-68599684D01*
X125366500Y-68661866D01*
X125366500Y-70458134D01*
X125373255Y-70520316D01*
X125424385Y-70656705D01*
X125511739Y-70773261D01*
X125628295Y-70860615D01*
X125764684Y-70911745D01*
X125826866Y-70918500D01*
X127623134Y-70918500D01*
X127685316Y-70911745D01*
X127821705Y-70860615D01*
X127938261Y-70773261D01*
X128025615Y-70656705D01*
X128076745Y-70520316D01*
X128083500Y-70458134D01*
X128083500Y-68661866D01*
X128076745Y-68599684D01*
X128025615Y-68463295D01*
X127938261Y-68346739D01*
X127821705Y-68259385D01*
X127809132Y-68254672D01*
X127703203Y-68214960D01*
X127646439Y-68172318D01*
X127621739Y-68105756D01*
X127636947Y-68036408D01*
X127658493Y-68007727D01*
X127759435Y-67907137D01*
X127763096Y-67903489D01*
X127789481Y-67866771D01*
X127890435Y-67726277D01*
X127893453Y-67722077D01*
X127992430Y-67521811D01*
X128037700Y-67372811D01*
X128055865Y-67313023D01*
X128055865Y-67313021D01*
X128057370Y-67308069D01*
X128086529Y-67086590D01*
X128086611Y-67083240D01*
X128088074Y-67023365D01*
X128088074Y-67023361D01*
X128088156Y-67020000D01*
X128069852Y-66797361D01*
X128015431Y-66580702D01*
X127926354Y-66375840D01*
X127886906Y-66314862D01*
X127807822Y-66192617D01*
X127807820Y-66192614D01*
X127805014Y-66188277D01*
X127654670Y-66023051D01*
X127650619Y-66019852D01*
X127650615Y-66019848D01*
X127483414Y-65887800D01*
X127483410Y-65887798D01*
X127479359Y-65884598D01*
X127283789Y-65776638D01*
X127278920Y-65774914D01*
X127278916Y-65774912D01*
X127078087Y-65703795D01*
X127078083Y-65703794D01*
X127073212Y-65702069D01*
X127068119Y-65701162D01*
X127068116Y-65701161D01*
X126858373Y-65663800D01*
X126858367Y-65663799D01*
X126853284Y-65662894D01*
X126779452Y-65661992D01*
X126635081Y-65660228D01*
X126635079Y-65660228D01*
X126629911Y-65660165D01*
X126409091Y-65693955D01*
X126196756Y-65763357D01*
X125998607Y-65866507D01*
X125994474Y-65869610D01*
X125994471Y-65869612D01*
X125824100Y-65997530D01*
X125819965Y-66000635D01*
X125665629Y-66162138D01*
X125662715Y-66166410D01*
X125662714Y-66166411D01*
X125577556Y-66291249D01*
X125539743Y-66346680D01*
X125524003Y-66380590D01*
X125452087Y-66535520D01*
X125445688Y-66549305D01*
X125385989Y-66764570D01*
X125362251Y-66986695D01*
X116633500Y-66986695D01*
X116633500Y-66411866D01*
X116626745Y-66349684D01*
X116575615Y-66213295D01*
X116488261Y-66096739D01*
X116371705Y-66009385D01*
X116235316Y-65958255D01*
X116173134Y-65951500D01*
X114276866Y-65951500D01*
X114214684Y-65958255D01*
X114078295Y-66009385D01*
X113961739Y-66096739D01*
X113874385Y-66213295D01*
X113823255Y-66349684D01*
X113816500Y-66411866D01*
X113816500Y-66535520D01*
X113796498Y-66603641D01*
X113779595Y-66624616D01*
X113057021Y-67347189D01*
X113049408Y-67361132D01*
X112319356Y-67361132D01*
X112320592Y-67358868D01*
X112320461Y-67357034D01*
X112316210Y-67350420D01*
X111538862Y-66573073D01*
X111527330Y-66566776D01*
X111515048Y-66576399D01*
X111463088Y-66652569D01*
X111408176Y-66697571D01*
X111337652Y-66705742D01*
X111273905Y-66674488D01*
X111237175Y-66613730D01*
X111233000Y-66581564D01*
X111233000Y-66200711D01*
X111890508Y-66200711D01*
X111897251Y-66213040D01*
X112672189Y-66987979D01*
X112686132Y-66995592D01*
X112687966Y-66995461D01*
X112694580Y-66991210D01*
X113473994Y-66211795D01*
X113481011Y-66198944D01*
X113473237Y-66188274D01*
X113470902Y-66186430D01*
X113462320Y-66180729D01*
X113268678Y-66073833D01*
X113259272Y-66069606D01*
X113050772Y-65995772D01*
X113040809Y-65993140D01*
X112823047Y-65954350D01*
X112812796Y-65953381D01*
X112591616Y-65950679D01*
X112581332Y-65951399D01*
X112362693Y-65984855D01*
X112352666Y-65987244D01*
X112142426Y-66055961D01*
X112132916Y-66059958D01*
X111936725Y-66162089D01*
X111928007Y-66167578D01*
X111898961Y-66189386D01*
X111890508Y-66200711D01*
X111233000Y-66200711D01*
X111233000Y-55315009D01*
X119651435Y-55315009D01*
X119651951Y-55321153D01*
X119665176Y-55478642D01*
X119668969Y-55523818D01*
X119726727Y-55725244D01*
X119822509Y-55911616D01*
X119826334Y-55916442D01*
X119826336Y-55916445D01*
X119948837Y-56071004D01*
X119948841Y-56071009D01*
X119952666Y-56075834D01*
X120112242Y-56211643D01*
X120295157Y-56313871D01*
X120494445Y-56378624D01*
X120702515Y-56403435D01*
X120708650Y-56402963D01*
X120708652Y-56402963D01*
X120905299Y-56387832D01*
X120905303Y-56387831D01*
X120911441Y-56387359D01*
X121006363Y-56360856D01*
X121107321Y-56332668D01*
X121107325Y-56332667D01*
X121113265Y-56331008D01*
X121118769Y-56328228D01*
X121118771Y-56328227D01*
X121294800Y-56239309D01*
X121294802Y-56239308D01*
X121300301Y-56236530D01*
X121465424Y-56107522D01*
X121602344Y-55948898D01*
X121705846Y-55766701D01*
X121771989Y-55567870D01*
X121772906Y-55560615D01*
X121783261Y-55478642D01*
X121798251Y-55359979D01*
X121798670Y-55330000D01*
X121778222Y-55121456D01*
X121717657Y-54920856D01*
X121619283Y-54735840D01*
X121544812Y-54644530D01*
X121490740Y-54578230D01*
X121490737Y-54578227D01*
X121486845Y-54573455D01*
X121469412Y-54559033D01*
X121330139Y-54443816D01*
X121330135Y-54443814D01*
X121325389Y-54439887D01*
X121141064Y-54340223D01*
X120940891Y-54278259D01*
X120934766Y-54277615D01*
X120934765Y-54277615D01*
X120738624Y-54257000D01*
X120738623Y-54257000D01*
X120732496Y-54256356D01*
X120646138Y-54264215D01*
X120529953Y-54274789D01*
X120529950Y-54274790D01*
X120523814Y-54275348D01*
X120517908Y-54277086D01*
X120517904Y-54277087D01*
X120397477Y-54312531D01*
X120322796Y-54334511D01*
X120317339Y-54337364D01*
X120317336Y-54337365D01*
X120306265Y-54343153D01*
X120137098Y-54431591D01*
X119973792Y-54562892D01*
X119839100Y-54723412D01*
X119836136Y-54728804D01*
X119836133Y-54728808D01*
X119829276Y-54741281D01*
X119738152Y-54907036D01*
X119674792Y-55106771D01*
X119651435Y-55315009D01*
X111233000Y-55315009D01*
X111233000Y-52775009D01*
X117111435Y-52775009D01*
X117111951Y-52781153D01*
X117127603Y-52967546D01*
X117128969Y-52983818D01*
X117140589Y-53024340D01*
X117178373Y-53156109D01*
X117186727Y-53185244D01*
X117282509Y-53371616D01*
X117286334Y-53376442D01*
X117286336Y-53376445D01*
X117408837Y-53531004D01*
X117408841Y-53531009D01*
X117412666Y-53535834D01*
X117572242Y-53671643D01*
X117755157Y-53773871D01*
X117954445Y-53838624D01*
X118162515Y-53863435D01*
X118168650Y-53862963D01*
X118168652Y-53862963D01*
X118365299Y-53847832D01*
X118365303Y-53847831D01*
X118371441Y-53847359D01*
X118466363Y-53820856D01*
X118567321Y-53792668D01*
X118567325Y-53792667D01*
X118573265Y-53791008D01*
X118578769Y-53788228D01*
X118578771Y-53788227D01*
X118754800Y-53699309D01*
X118754802Y-53699308D01*
X118760301Y-53696530D01*
X118925424Y-53567522D01*
X119062344Y-53408898D01*
X119165846Y-53226701D01*
X119231989Y-53027870D01*
X119258251Y-52819979D01*
X119258670Y-52790000D01*
X119257200Y-52775009D01*
X122191435Y-52775009D01*
X122191951Y-52781153D01*
X122207603Y-52967546D01*
X122208969Y-52983818D01*
X122220589Y-53024340D01*
X122258373Y-53156109D01*
X122266727Y-53185244D01*
X122362509Y-53371616D01*
X122366334Y-53376442D01*
X122366336Y-53376445D01*
X122488837Y-53531004D01*
X122488841Y-53531009D01*
X122492666Y-53535834D01*
X122652242Y-53671643D01*
X122835157Y-53773871D01*
X123034445Y-53838624D01*
X123242515Y-53863435D01*
X123248650Y-53862963D01*
X123248652Y-53862963D01*
X123445299Y-53847832D01*
X123445303Y-53847831D01*
X123451441Y-53847359D01*
X123546363Y-53820856D01*
X123647321Y-53792668D01*
X123647325Y-53792667D01*
X123653265Y-53791008D01*
X123658769Y-53788228D01*
X123658771Y-53788227D01*
X123834800Y-53699309D01*
X123834802Y-53699308D01*
X123840301Y-53696530D01*
X124005424Y-53567522D01*
X124142344Y-53408898D01*
X124245846Y-53226701D01*
X124311989Y-53027870D01*
X124338251Y-52819979D01*
X124338670Y-52790000D01*
X124318222Y-52581456D01*
X124257657Y-52380856D01*
X124159283Y-52195840D01*
X124068460Y-52084480D01*
X124030740Y-52038230D01*
X124030737Y-52038227D01*
X124026845Y-52033455D01*
X123996159Y-52008069D01*
X123870139Y-51903816D01*
X123870135Y-51903814D01*
X123865389Y-51899887D01*
X123681064Y-51800223D01*
X123480891Y-51738259D01*
X123474766Y-51737615D01*
X123474765Y-51737615D01*
X123278624Y-51717000D01*
X123278623Y-51717000D01*
X123272496Y-51716356D01*
X123195482Y-51723365D01*
X123069953Y-51734789D01*
X123069950Y-51734790D01*
X123063814Y-51735348D01*
X123057908Y-51737086D01*
X123057904Y-51737087D01*
X122910946Y-51780340D01*
X122862796Y-51794511D01*
X122857339Y-51797364D01*
X122857336Y-51797365D01*
X122846265Y-51803153D01*
X122677098Y-51891591D01*
X122513792Y-52022892D01*
X122379100Y-52183412D01*
X122376136Y-52188804D01*
X122376133Y-52188808D01*
X122298607Y-52329829D01*
X122278152Y-52367036D01*
X122276291Y-52372903D01*
X122276290Y-52372905D01*
X122258667Y-52428461D01*
X122214792Y-52566771D01*
X122191435Y-52775009D01*
X119257200Y-52775009D01*
X119238222Y-52581456D01*
X119177657Y-52380856D01*
X119079283Y-52195840D01*
X118988460Y-52084480D01*
X118950740Y-52038230D01*
X118950737Y-52038227D01*
X118946845Y-52033455D01*
X118916159Y-52008069D01*
X118790139Y-51903816D01*
X118790135Y-51903814D01*
X118785389Y-51899887D01*
X118601064Y-51800223D01*
X118400891Y-51738259D01*
X118394766Y-51737615D01*
X118394765Y-51737615D01*
X118198624Y-51717000D01*
X118198623Y-51717000D01*
X118192496Y-51716356D01*
X118115482Y-51723365D01*
X117989953Y-51734789D01*
X117989950Y-51734790D01*
X117983814Y-51735348D01*
X117977908Y-51737086D01*
X117977904Y-51737087D01*
X117830946Y-51780340D01*
X117782796Y-51794511D01*
X117777339Y-51797364D01*
X117777336Y-51797365D01*
X117766265Y-51803153D01*
X117597098Y-51891591D01*
X117433792Y-52022892D01*
X117299100Y-52183412D01*
X117296136Y-52188804D01*
X117296133Y-52188808D01*
X117218607Y-52329829D01*
X117198152Y-52367036D01*
X117196291Y-52372903D01*
X117196290Y-52372905D01*
X117178667Y-52428461D01*
X117134792Y-52566771D01*
X117111435Y-52775009D01*
X111233000Y-52775009D01*
X111233000Y-52421406D01*
X111888423Y-52421406D01*
X111893704Y-52428461D01*
X112070080Y-52531527D01*
X112079363Y-52535974D01*
X112286003Y-52614883D01*
X112295901Y-52617759D01*
X112512653Y-52661857D01*
X112522883Y-52663076D01*
X112743914Y-52671182D01*
X112754223Y-52670714D01*
X112973623Y-52642608D01*
X112983688Y-52640468D01*
X113195557Y-52576905D01*
X113205152Y-52573144D01*
X113403778Y-52475838D01*
X113412636Y-52470559D01*
X113470097Y-52429572D01*
X113478497Y-52418874D01*
X113471510Y-52405721D01*
X112697811Y-51632021D01*
X112683868Y-51624408D01*
X112682034Y-51624539D01*
X112675420Y-51628790D01*
X111895180Y-52409031D01*
X111888423Y-52421406D01*
X111233000Y-52421406D01*
X111233000Y-52032202D01*
X111253002Y-51964081D01*
X111306658Y-51917588D01*
X111376932Y-51907484D01*
X111441512Y-51936978D01*
X111466433Y-51966368D01*
X111515097Y-52045781D01*
X111525553Y-52055242D01*
X111534331Y-52051458D01*
X112312979Y-51272811D01*
X112319356Y-51261132D01*
X113049408Y-51261132D01*
X113049539Y-51262966D01*
X113053790Y-51269580D01*
X113779595Y-51995384D01*
X113813620Y-52057697D01*
X113816500Y-52084480D01*
X113816500Y-52208134D01*
X113823255Y-52270316D01*
X113874385Y-52406705D01*
X113961739Y-52523261D01*
X114078295Y-52610615D01*
X114214684Y-52661745D01*
X114276866Y-52668500D01*
X116173134Y-52668500D01*
X116235316Y-52661745D01*
X116371705Y-52610615D01*
X116488261Y-52523261D01*
X116575615Y-52406705D01*
X116626745Y-52270316D01*
X116633500Y-52208134D01*
X116633500Y-51686695D01*
X125362251Y-51686695D01*
X125362548Y-51691848D01*
X125362548Y-51691851D01*
X125368632Y-51797365D01*
X125375110Y-51909715D01*
X125376247Y-51914761D01*
X125376248Y-51914767D01*
X125396119Y-52002939D01*
X125424222Y-52127639D01*
X125508266Y-52334616D01*
X125533269Y-52375417D01*
X125619468Y-52516081D01*
X125624987Y-52525088D01*
X125771250Y-52693938D01*
X125775230Y-52697242D01*
X125779981Y-52701187D01*
X125819616Y-52760090D01*
X125821113Y-52831071D01*
X125783997Y-52891593D01*
X125743724Y-52916112D01*
X125628295Y-52959385D01*
X125511739Y-53046739D01*
X125424385Y-53163295D01*
X125373255Y-53299684D01*
X125366500Y-53361866D01*
X125366500Y-55158134D01*
X125373255Y-55220316D01*
X125424385Y-55356705D01*
X125511739Y-55473261D01*
X125628295Y-55560615D01*
X125764684Y-55611745D01*
X125826866Y-55618500D01*
X127623134Y-55618500D01*
X127685316Y-55611745D01*
X127821705Y-55560615D01*
X127938261Y-55473261D01*
X128025615Y-55356705D01*
X128076745Y-55220316D01*
X128083500Y-55158134D01*
X128083500Y-54560000D01*
X131111526Y-54560000D01*
X131131391Y-54812403D01*
X131190495Y-55058591D01*
X131192388Y-55063162D01*
X131192389Y-55063164D01*
X131257484Y-55220316D01*
X131287384Y-55292502D01*
X131419672Y-55508376D01*
X131584102Y-55700898D01*
X131776624Y-55865328D01*
X131992498Y-55997616D01*
X131997068Y-55999509D01*
X131997072Y-55999511D01*
X132221836Y-56092611D01*
X132226409Y-56094505D01*
X132296449Y-56111320D01*
X132467784Y-56152454D01*
X132467790Y-56152455D01*
X132472597Y-56153609D01*
X132572416Y-56161465D01*
X132659345Y-56168307D01*
X132659352Y-56168307D01*
X132661801Y-56168500D01*
X132788199Y-56168500D01*
X132790648Y-56168307D01*
X132790655Y-56168307D01*
X132877584Y-56161465D01*
X132977403Y-56153609D01*
X132982210Y-56152455D01*
X132982216Y-56152454D01*
X133153551Y-56111320D01*
X133223591Y-56094505D01*
X133228164Y-56092611D01*
X133452928Y-55999511D01*
X133452932Y-55999509D01*
X133457502Y-55997616D01*
X133673376Y-55865328D01*
X133865898Y-55700898D01*
X134030328Y-55508376D01*
X134162616Y-55292502D01*
X134192517Y-55220316D01*
X134257611Y-55063164D01*
X134257612Y-55063162D01*
X134259505Y-55058591D01*
X134318609Y-54812403D01*
X134338474Y-54560000D01*
X134318609Y-54307597D01*
X134311285Y-54277087D01*
X134260660Y-54066221D01*
X134259505Y-54061409D01*
X134170156Y-53845701D01*
X134164511Y-53832072D01*
X134164509Y-53832068D01*
X134162616Y-53827498D01*
X134030328Y-53611624D01*
X133865898Y-53419102D01*
X133673376Y-53254672D01*
X133457502Y-53122384D01*
X133452932Y-53120491D01*
X133452928Y-53120489D01*
X133228164Y-53027389D01*
X133228162Y-53027388D01*
X133223591Y-53025495D01*
X133138968Y-53005179D01*
X132982216Y-52967546D01*
X132982210Y-52967545D01*
X132977403Y-52966391D01*
X132877584Y-52958535D01*
X132790655Y-52951693D01*
X132790648Y-52951693D01*
X132788199Y-52951500D01*
X132661801Y-52951500D01*
X132659352Y-52951693D01*
X132659345Y-52951693D01*
X132572416Y-52958535D01*
X132472597Y-52966391D01*
X132467790Y-52967545D01*
X132467784Y-52967546D01*
X132311032Y-53005179D01*
X132226409Y-53025495D01*
X132221838Y-53027388D01*
X132221836Y-53027389D01*
X131997072Y-53120489D01*
X131997068Y-53120491D01*
X131992498Y-53122384D01*
X131776624Y-53254672D01*
X131584102Y-53419102D01*
X131419672Y-53611624D01*
X131287384Y-53827498D01*
X131285491Y-53832068D01*
X131285489Y-53832072D01*
X131279844Y-53845701D01*
X131190495Y-54061409D01*
X131189340Y-54066221D01*
X131138716Y-54277087D01*
X131131391Y-54307597D01*
X131111526Y-54560000D01*
X128083500Y-54560000D01*
X128083500Y-53361866D01*
X128076745Y-53299684D01*
X128025615Y-53163295D01*
X127938261Y-53046739D01*
X127821705Y-52959385D01*
X127800672Y-52951500D01*
X127703203Y-52914960D01*
X127646439Y-52872318D01*
X127621739Y-52805756D01*
X127636947Y-52736408D01*
X127658493Y-52707727D01*
X127723840Y-52642608D01*
X127763096Y-52603489D01*
X127782199Y-52576905D01*
X127890435Y-52426277D01*
X127893453Y-52422077D01*
X127901051Y-52406705D01*
X127990136Y-52226453D01*
X127990137Y-52226451D01*
X127992430Y-52221811D01*
X128024900Y-52114940D01*
X128055865Y-52013023D01*
X128055865Y-52013021D01*
X128057370Y-52008069D01*
X128086529Y-51786590D01*
X128086611Y-51783240D01*
X128088074Y-51723365D01*
X128088074Y-51723361D01*
X128088156Y-51720000D01*
X128069852Y-51497361D01*
X128015431Y-51280702D01*
X127926354Y-51075840D01*
X127886906Y-51014862D01*
X127807822Y-50892617D01*
X127807820Y-50892614D01*
X127805014Y-50888277D01*
X127654670Y-50723051D01*
X127650619Y-50719852D01*
X127650615Y-50719848D01*
X127483414Y-50587800D01*
X127483410Y-50587798D01*
X127479359Y-50584598D01*
X127283789Y-50476638D01*
X127278920Y-50474914D01*
X127278916Y-50474912D01*
X127078087Y-50403795D01*
X127078083Y-50403794D01*
X127073212Y-50402069D01*
X127068119Y-50401162D01*
X127068116Y-50401161D01*
X126858373Y-50363800D01*
X126858367Y-50363799D01*
X126853284Y-50362894D01*
X126779452Y-50361992D01*
X126635081Y-50360228D01*
X126635079Y-50360228D01*
X126629911Y-50360165D01*
X126409091Y-50393955D01*
X126196756Y-50463357D01*
X126166443Y-50479137D01*
X126025382Y-50552569D01*
X125998607Y-50566507D01*
X125994474Y-50569610D01*
X125994471Y-50569612D01*
X125824100Y-50697530D01*
X125819965Y-50700635D01*
X125665629Y-50862138D01*
X125662715Y-50866410D01*
X125662714Y-50866411D01*
X125642808Y-50895592D01*
X125539743Y-51046680D01*
X125445688Y-51249305D01*
X125385989Y-51464570D01*
X125362251Y-51686695D01*
X116633500Y-51686695D01*
X116633500Y-50311866D01*
X116626745Y-50249684D01*
X116575615Y-50113295D01*
X116488261Y-49996739D01*
X116371705Y-49909385D01*
X116235316Y-49858255D01*
X116173134Y-49851500D01*
X114276866Y-49851500D01*
X114214684Y-49858255D01*
X114078295Y-49909385D01*
X113961739Y-49996739D01*
X113874385Y-50113295D01*
X113823255Y-50249684D01*
X113816500Y-50311866D01*
X113816500Y-50435520D01*
X113796498Y-50503641D01*
X113779595Y-50524616D01*
X113057021Y-51247189D01*
X113049408Y-51261132D01*
X112319356Y-51261132D01*
X112320592Y-51258868D01*
X112320461Y-51257034D01*
X112316210Y-51250420D01*
X111538862Y-50473073D01*
X111527330Y-50466776D01*
X111515048Y-50476399D01*
X111463088Y-50552569D01*
X111408176Y-50597571D01*
X111337652Y-50605742D01*
X111273905Y-50574488D01*
X111237175Y-50513730D01*
X111233000Y-50481564D01*
X111233000Y-50100711D01*
X111890508Y-50100711D01*
X111897251Y-50113040D01*
X112672189Y-50887979D01*
X112686132Y-50895592D01*
X112687966Y-50895461D01*
X112694580Y-50891210D01*
X113473994Y-50111795D01*
X113481011Y-50098944D01*
X113473237Y-50088274D01*
X113470902Y-50086430D01*
X113462320Y-50080729D01*
X113268678Y-49973833D01*
X113259272Y-49969606D01*
X113050772Y-49895772D01*
X113040809Y-49893140D01*
X112823047Y-49854350D01*
X112812796Y-49853381D01*
X112591616Y-49850679D01*
X112581332Y-49851399D01*
X112362693Y-49884855D01*
X112352666Y-49887244D01*
X112142426Y-49955961D01*
X112132916Y-49959958D01*
X111936725Y-50062089D01*
X111928007Y-50067578D01*
X111898961Y-50089386D01*
X111890508Y-50100711D01*
X111233000Y-50100711D01*
X111233000Y-47894000D01*
X111253002Y-47825879D01*
X111306658Y-47779386D01*
X111359000Y-47768000D01*
X140091000Y-47768000D01*
X140159121Y-47788002D01*
G37*
%TD.AperFunction*%
%TD*%
M02*
