M48
; DRILL file {KiCad (6.0.0-rc1-415-g653c7b78d7)} date Tue Dec 14 13:19:58 2021
; FORMAT={-:-/ absolute / metric / decimal}
; #@! TF.CreationDate,2021-12-14T13:19:58-08:00
; #@! TF.GenerationSoftware,Kicad,Pcbnew,(6.0.0-rc1-415-g653c7b78d7)
; #@! TF.FileFunction,Plated,1,2,PTH
FMAT,2
METRIC
; #@! TA.AperFunction,Plated,PTH,ViaDrill
T1C0.400
; #@! TA.AperFunction,Plated,PTH,ComponentDrill
T2C0.690
; #@! TA.AperFunction,Plated,PTH,ComponentDrill
T3C0.750
; #@! TA.AperFunction,Plated,PTH,ViaDrill
T4C0.800
; #@! TA.AperFunction,Plated,PTH,ComponentDrill
T5C0.900
; #@! TA.AperFunction,Plated,PTH,ComponentDrill
T6C1.000
; #@! TA.AperFunction,Plated,PTH,ComponentDrill
T7C1.100
%
G90
G05
T1
X125.225Y-72.06
X125.225Y-119.56
X125.225Y-146.86
X125.725Y-58.26
X125.725Y-84.06
X125.725Y-97.06
X125.725Y-108.06
X125.725Y-131.56
X129.688Y-74.597
X129.688Y-122.097
X130.688Y-74.597
X130.688Y-122.097
T2
X118.185Y-52.79
X118.185Y-68.09
X118.185Y-78.67
X118.185Y-91.59
X118.185Y-102.59
X118.185Y-115.54
X118.185Y-126.09
X118.185Y-141.39
X120.725Y-55.33
X120.725Y-70.63
X120.725Y-81.21
X120.725Y-94.13
X120.725Y-105.13
X120.725Y-118.08
X120.725Y-128.63
X120.725Y-143.93
X123.265Y-52.79
X123.265Y-68.09
X123.265Y-78.67
X123.265Y-91.59
X123.265Y-102.59
X123.265Y-115.54
X123.265Y-126.09
X123.265Y-141.39
T3
X132.455Y-133.933
X133.725Y-133.933
X134.995Y-133.933
T4
X129.451Y-129.56
X132.225Y-127.56
T5
X112.685Y-51.26
X112.685Y-67.36
X112.685Y-77.26
X112.685Y-93.06
X112.685Y-100.96
X112.685Y-116.76
X112.685Y-126.66
X112.685Y-142.76
X115.225Y-51.26
X115.225Y-67.36
X115.225Y-77.26
X115.225Y-93.06
X115.225Y-100.96
X115.225Y-116.76
X115.225Y-126.66
X115.225Y-142.76
T6
X126.725Y-51.72
X126.725Y-54.26
X126.725Y-67.02
X126.725Y-69.56
X126.725Y-77.52
X126.725Y-80.06
X126.725Y-90.52
X126.725Y-93.06
X126.725Y-101.52
X126.725Y-104.06
X126.725Y-114.52
X126.725Y-117.06
X126.725Y-125.02
X126.725Y-127.56
X126.725Y-140.32
X126.725Y-142.86
X135.725Y-84.76
X135.725Y-109.36
X135.95Y-69.74
X135.95Y-72.28
X135.95Y-74.82
X135.95Y-77.36
X135.95Y-117.24
X135.95Y-119.78
X135.95Y-122.32
X135.95Y-124.86
X138.49Y-69.74
X138.49Y-72.28
X138.49Y-74.82
X138.49Y-77.36
X138.49Y-117.24
X138.49Y-119.78
X138.49Y-122.32
X138.49Y-124.86
T7
X132.325Y-142.86
X134.865Y-142.86
X137.405Y-142.86
T0
M30
