%TF.GenerationSoftware,KiCad,Pcbnew,(5.99.0-12789-g9e557d84c6)*%
%TF.CreationDate,2021-11-25T19:19:57-08:00*%
%TF.ProjectId,Detector,44657465-6374-46f7-922e-6b696361645f,rev?*%
%TF.SameCoordinates,Original*%
%TF.FileFunction,Paste,Top*%
%TF.FilePolarity,Positive*%
%FSLAX46Y46*%
G04 Gerber Fmt 4.6, Leading zero omitted, Abs format (unit mm)*
G04 Created by KiCad (PCBNEW (5.99.0-12789-g9e557d84c6)) date 2021-11-25 19:19:57*
%MOMM*%
%LPD*%
G01*
G04 APERTURE LIST*
G04 Aperture macros list*
%AMRoundRect*
0 Rectangle with rounded corners*
0 $1 Rounding radius*
0 $2 $3 $4 $5 $6 $7 $8 $9 X,Y pos of 4 corners*
0 Add a 4 corners polygon primitive as box body*
4,1,4,$2,$3,$4,$5,$6,$7,$8,$9,$2,$3,0*
0 Add four circle primitives for the rounded corners*
1,1,$1+$1,$2,$3*
1,1,$1+$1,$4,$5*
1,1,$1+$1,$6,$7*
1,1,$1+$1,$8,$9*
0 Add four rect primitives between the rounded corners*
20,1,$1+$1,$2,$3,$4,$5,0*
20,1,$1+$1,$4,$5,$6,$7,0*
20,1,$1+$1,$6,$7,$8,$9,0*
20,1,$1+$1,$8,$9,$2,$3,0*%
G04 Aperture macros list end*
%ADD10RoundRect,0.250000X-0.337500X-0.475000X0.337500X-0.475000X0.337500X0.475000X-0.337500X0.475000X0*%
%ADD11RoundRect,0.250000X-0.350000X-0.450000X0.350000X-0.450000X0.350000X0.450000X-0.350000X0.450000X0*%
%ADD12RoundRect,0.250000X-0.475000X0.337500X-0.475000X-0.337500X0.475000X-0.337500X0.475000X0.337500X0*%
%ADD13RoundRect,0.100000X-0.100000X0.637500X-0.100000X-0.637500X0.100000X-0.637500X0.100000X0.637500X0*%
%ADD14RoundRect,0.250000X-0.412500X-0.650000X0.412500X-0.650000X0.412500X0.650000X-0.412500X0.650000X0*%
%ADD15RoundRect,0.250000X0.412500X0.650000X-0.412500X0.650000X-0.412500X-0.650000X0.412500X-0.650000X0*%
G04 APERTURE END LIST*
D10*
%TO.C,C6*%
X121687500Y-121060000D03*
X123762500Y-121060000D03*
%TD*%
D11*
%TO.C,R11*%
X112725000Y-121060000D03*
X114725000Y-121060000D03*
%TD*%
%TO.C,R8*%
X117225000Y-97060000D03*
X119225000Y-97060000D03*
%TD*%
D10*
%TO.C,C2*%
X121687500Y-73560000D03*
X123762500Y-73560000D03*
%TD*%
D11*
%TO.C,R2*%
X117225000Y-60560000D03*
X119225000Y-60560000D03*
%TD*%
%TO.C,R13*%
X112725000Y-131560000D03*
X114725000Y-131560000D03*
%TD*%
D12*
%TO.C,C9*%
X127225000Y-72522500D03*
X127225000Y-74597500D03*
%TD*%
D11*
%TO.C,R9*%
X112725000Y-108060000D03*
X114725000Y-108060000D03*
%TD*%
%TO.C,R5*%
X112725000Y-84060000D03*
X114725000Y-84060000D03*
%TD*%
%TO.C,R15*%
X112725000Y-144560000D03*
X114725000Y-144560000D03*
%TD*%
D10*
%TO.C,C1*%
X121687500Y-60560000D03*
X123762500Y-60560000D03*
%TD*%
D13*
%TO.C,U1*%
X133175000Y-70697500D03*
X132525000Y-70697500D03*
X131875000Y-70697500D03*
X131225000Y-70697500D03*
X130575000Y-70697500D03*
X129925000Y-70697500D03*
X129275000Y-70697500D03*
X129275000Y-76422500D03*
X129925000Y-76422500D03*
X130575000Y-76422500D03*
X131225000Y-76422500D03*
X131875000Y-76422500D03*
X132525000Y-76422500D03*
X133175000Y-76422500D03*
%TD*%
D10*
%TO.C,C7*%
X121687500Y-131560000D03*
X123762500Y-131560000D03*
%TD*%
D14*
%TO.C,C11*%
X132162500Y-137560000D03*
X135287500Y-137560000D03*
%TD*%
D11*
%TO.C,R17*%
X137225000Y-134060000D03*
X139225000Y-134060000D03*
%TD*%
D12*
%TO.C,C10*%
X127225000Y-120022500D03*
X127225000Y-122097500D03*
%TD*%
D11*
%TO.C,R6*%
X117225000Y-84060000D03*
X119225000Y-84060000D03*
%TD*%
%TO.C,R1*%
X112725000Y-60560000D03*
X114725000Y-60560000D03*
%TD*%
%TO.C,R14*%
X117225000Y-131560000D03*
X119225000Y-131560000D03*
%TD*%
D13*
%TO.C,U2*%
X133175000Y-118197500D03*
X132525000Y-118197500D03*
X131875000Y-118197500D03*
X131225000Y-118197500D03*
X130575000Y-118197500D03*
X129925000Y-118197500D03*
X129275000Y-118197500D03*
X129275000Y-123922500D03*
X129925000Y-123922500D03*
X130575000Y-123922500D03*
X131225000Y-123922500D03*
X131875000Y-123922500D03*
X132525000Y-123922500D03*
X133175000Y-123922500D03*
%TD*%
D11*
%TO.C,R10*%
X117225000Y-108060000D03*
X119225000Y-108060000D03*
%TD*%
%TO.C,R4*%
X117225000Y-73560000D03*
X119225000Y-73560000D03*
%TD*%
D10*
%TO.C,C8*%
X121687500Y-144560000D03*
X123762500Y-144560000D03*
%TD*%
D11*
%TO.C,R16*%
X117225000Y-144560000D03*
X119225000Y-144560000D03*
%TD*%
%TO.C,R7*%
X112725000Y-97060000D03*
X114725000Y-97060000D03*
%TD*%
%TO.C,R12*%
X117225000Y-121060000D03*
X119225000Y-121060000D03*
%TD*%
D10*
%TO.C,C5*%
X121687500Y-108060000D03*
X123762500Y-108060000D03*
%TD*%
%TO.C,C3*%
X121687500Y-84060000D03*
X123762500Y-84060000D03*
%TD*%
D11*
%TO.C,R3*%
X112725000Y-73560000D03*
X114725000Y-73560000D03*
%TD*%
D15*
%TO.C,C12*%
X135287500Y-129560000D03*
X132162500Y-129560000D03*
%TD*%
D10*
%TO.C,C4*%
X121687500Y-97060000D03*
X123762500Y-97060000D03*
%TD*%
M02*
