%TF.GenerationSoftware,KiCad,Pcbnew,(5.99.0-12789-g9e557d84c6)*%
%TF.CreationDate,2021-11-25T19:19:57-08:00*%
%TF.ProjectId,Detector,44657465-6374-46f7-922e-6b696361645f,rev?*%
%TF.SameCoordinates,Original*%
%TF.FileFunction,Soldermask,Bot*%
%TF.FilePolarity,Negative*%
%FSLAX46Y46*%
G04 Gerber Fmt 4.6, Leading zero omitted, Abs format (unit mm)*
G04 Created by KiCad (PCBNEW (5.99.0-12789-g9e557d84c6)) date 2021-11-25 19:19:57*
%MOMM*%
%LPD*%
G01*
G04 APERTURE LIST*
%ADD10R,1.700000X1.700000*%
%ADD11O,1.700000X1.700000*%
%ADD12R,1.800000X1.800000*%
%ADD13C,1.800000*%
%ADD14C,2.200000*%
%ADD15C,1.120000*%
%ADD16R,1.050000X1.500000*%
%ADD17O,1.050000X1.500000*%
G04 APERTURE END LIST*
D10*
%TO.C,J3*%
X131200000Y-142060000D03*
D11*
X133740000Y-142060000D03*
X136280000Y-142060000D03*
%TD*%
D12*
%TO.C,Q8*%
X115225000Y-140460000D03*
D13*
X112685000Y-140460000D03*
%TD*%
D12*
%TO.C,Q6*%
X115225000Y-116760000D03*
D13*
X112685000Y-116760000D03*
%TD*%
D12*
%TO.C,Q1*%
X115225000Y-53560000D03*
D13*
X112685000Y-53560000D03*
%TD*%
D12*
%TO.C,Q4*%
X115225000Y-93060000D03*
D13*
X112685000Y-93060000D03*
%TD*%
D12*
%TO.C,Q3*%
X115225000Y-77260000D03*
D13*
X112685000Y-77260000D03*
%TD*%
D12*
%TO.C,Q7*%
X115225000Y-124660000D03*
D13*
X112685000Y-124660000D03*
%TD*%
D14*
%TO.C,REF\u002A\u002A*%
X132725000Y-97060000D03*
%TD*%
%TO.C,REF\u002A\u002A*%
X132725000Y-54560000D03*
%TD*%
D12*
%TO.C,Q5*%
X115225000Y-100960000D03*
D13*
X112685000Y-100960000D03*
%TD*%
D12*
%TO.C,Q2*%
X115225000Y-69360000D03*
D13*
X112685000Y-69360000D03*
%TD*%
D10*
%TO.C,J1*%
X135950000Y-77360000D03*
D11*
X138490000Y-77360000D03*
X135950000Y-74820000D03*
X138490000Y-74820000D03*
X135950000Y-72280000D03*
X138490000Y-72280000D03*
X135950000Y-69740000D03*
X138490000Y-69740000D03*
%TD*%
D10*
%TO.C,TP5*%
X126725000Y-104060000D03*
D11*
X126725000Y-101520000D03*
%TD*%
D10*
%TO.C,TP2*%
X126725000Y-69560000D03*
D11*
X126725000Y-67020000D03*
%TD*%
D10*
%TO.C,TP3*%
X126725000Y-80060000D03*
D11*
X126725000Y-77520000D03*
%TD*%
D10*
%TO.C,TP4*%
X126725000Y-93060000D03*
D11*
X126725000Y-90520000D03*
%TD*%
D15*
%TO.C,RV1*%
X118185000Y-55090000D03*
X120725000Y-57630000D03*
X123265000Y-55090000D03*
%TD*%
D16*
%TO.C,U3*%
X134995000Y-133932500D03*
D17*
X133725000Y-133932500D03*
X132455000Y-133932500D03*
%TD*%
D15*
%TO.C,RV7*%
X118185000Y-126090000D03*
X120725000Y-128630000D03*
X123265000Y-126090000D03*
%TD*%
%TO.C,RV5*%
X118185000Y-102590000D03*
X120725000Y-105130000D03*
X123265000Y-102590000D03*
%TD*%
D10*
%TO.C,TP8*%
X126725000Y-140560000D03*
D11*
X126725000Y-138020000D03*
%TD*%
D15*
%TO.C,RV3*%
X118185000Y-78670000D03*
X120725000Y-81210000D03*
X123265000Y-78670000D03*
%TD*%
%TO.C,RV8*%
X118185000Y-139090000D03*
X120725000Y-141630000D03*
X123265000Y-139090000D03*
%TD*%
D10*
%TO.C,TP6*%
X126725000Y-117060000D03*
D11*
X126725000Y-114520000D03*
%TD*%
D15*
%TO.C,RV2*%
X118185000Y-68090000D03*
X120725000Y-70630000D03*
X123265000Y-68090000D03*
%TD*%
%TO.C,RV6*%
X118185000Y-115540000D03*
X120725000Y-118080000D03*
X123265000Y-115540000D03*
%TD*%
D10*
%TO.C,TP7*%
X126725000Y-127560000D03*
D11*
X126725000Y-125020000D03*
%TD*%
D15*
%TO.C,RV4*%
X118185000Y-91590000D03*
X120725000Y-94130000D03*
X123265000Y-91590000D03*
%TD*%
D10*
%TO.C,J2*%
X135950000Y-124860000D03*
D11*
X138490000Y-124860000D03*
X135950000Y-122320000D03*
X138490000Y-122320000D03*
X135950000Y-119780000D03*
X138490000Y-119780000D03*
X135950000Y-117240000D03*
X138490000Y-117240000D03*
%TD*%
D10*
%TO.C,TP1*%
X126725000Y-56560000D03*
D11*
X126725000Y-54020000D03*
%TD*%
M02*
