%TF.GenerationSoftware,KiCad,Pcbnew,(5.99.0-12789-g9e557d84c6)*%
%TF.CreationDate,2021-11-25T19:19:57-08:00*%
%TF.ProjectId,Detector,44657465-6374-46f7-922e-6b696361645f,rev?*%
%TF.SameCoordinates,Original*%
%TF.FileFunction,Copper,L2,Bot*%
%TF.FilePolarity,Positive*%
%FSLAX46Y46*%
G04 Gerber Fmt 4.6, Leading zero omitted, Abs format (unit mm)*
G04 Created by KiCad (PCBNEW (5.99.0-12789-g9e557d84c6)) date 2021-11-25 19:19:57*
%MOMM*%
%LPD*%
G01*
G04 APERTURE LIST*
%TA.AperFunction,ComponentPad*%
%ADD10R,1.700000X1.700000*%
%TD*%
%TA.AperFunction,ComponentPad*%
%ADD11O,1.700000X1.700000*%
%TD*%
%TA.AperFunction,ComponentPad*%
%ADD12R,1.800000X1.800000*%
%TD*%
%TA.AperFunction,ComponentPad*%
%ADD13C,1.800000*%
%TD*%
%TA.AperFunction,ComponentPad*%
%ADD14C,1.120000*%
%TD*%
%TA.AperFunction,ComponentPad*%
%ADD15R,1.050000X1.500000*%
%TD*%
%TA.AperFunction,ComponentPad*%
%ADD16O,1.050000X1.500000*%
%TD*%
%TA.AperFunction,ViaPad*%
%ADD17C,1.600000*%
%TD*%
%TA.AperFunction,ViaPad*%
%ADD18C,0.800000*%
%TD*%
%TA.AperFunction,Conductor*%
%ADD19C,0.500000*%
%TD*%
G04 APERTURE END LIST*
D10*
%TO.P,J3,1,Pin_1*%
%TO.N,GND*%
X131200000Y-142060000D03*
D11*
%TO.P,J3,2,Pin_2*%
%TO.N,+5V*%
X133740000Y-142060000D03*
%TO.P,J3,3,Pin_3*%
%TO.N,/Group-A/Group-A-Output*%
X136280000Y-142060000D03*
%TD*%
D12*
%TO.P,Q8,1,C*%
%TO.N,Net-(Q8-Pad1)*%
X115225000Y-140460000D03*
D13*
%TO.P,Q8,2,E*%
%TO.N,GND*%
X112685000Y-140460000D03*
%TD*%
D12*
%TO.P,Q6,1,C*%
%TO.N,Net-(Q6-Pad1)*%
X115225000Y-116760000D03*
D13*
%TO.P,Q6,2,E*%
%TO.N,GND*%
X112685000Y-116760000D03*
%TD*%
D12*
%TO.P,Q1,1,C*%
%TO.N,Net-(Q1-Pad1)*%
X115225000Y-53560000D03*
D13*
%TO.P,Q1,2,E*%
%TO.N,GND*%
X112685000Y-53560000D03*
%TD*%
D12*
%TO.P,Q4,1,C*%
%TO.N,Net-(Q4-Pad1)*%
X115225000Y-93060000D03*
D13*
%TO.P,Q4,2,E*%
%TO.N,GND*%
X112685000Y-93060000D03*
%TD*%
D12*
%TO.P,Q3,1,C*%
%TO.N,Net-(Q3-Pad1)*%
X115225000Y-77260000D03*
D13*
%TO.P,Q3,2,E*%
%TO.N,GND*%
X112685000Y-77260000D03*
%TD*%
D12*
%TO.P,Q7,1,C*%
%TO.N,Net-(Q7-Pad1)*%
X115225000Y-124660000D03*
D13*
%TO.P,Q7,2,E*%
%TO.N,GND*%
X112685000Y-124660000D03*
%TD*%
D12*
%TO.P,Q5,1,C*%
%TO.N,Net-(Q5-Pad1)*%
X115225000Y-100960000D03*
D13*
%TO.P,Q5,2,E*%
%TO.N,GND*%
X112685000Y-100960000D03*
%TD*%
D12*
%TO.P,Q2,1,C*%
%TO.N,Net-(Q2-Pad1)*%
X115225000Y-69360000D03*
D13*
%TO.P,Q2,2,E*%
%TO.N,GND*%
X112685000Y-69360000D03*
%TD*%
D10*
%TO.P,J1,1,Pin_1*%
%TO.N,Net-(J1-Pad1)*%
X135950000Y-77360000D03*
D11*
%TO.P,J1,2,Pin_2*%
%TO.N,/Group-A/Group-A-Output*%
X138490000Y-77360000D03*
%TO.P,J1,3,Pin_3*%
%TO.N,Net-(J1-Pad3)*%
X135950000Y-74820000D03*
%TO.P,J1,4,Pin_4*%
%TO.N,/Group-A/Group-A-Output*%
X138490000Y-74820000D03*
%TO.P,J1,5,Pin_5*%
%TO.N,Net-(J1-Pad5)*%
X135950000Y-72280000D03*
%TO.P,J1,6,Pin_6*%
%TO.N,/Group-A/Group-A-Output*%
X138490000Y-72280000D03*
%TO.P,J1,7,Pin_7*%
%TO.N,Net-(J1-Pad7)*%
X135950000Y-69740000D03*
%TO.P,J1,8,Pin_8*%
%TO.N,/Group-A/Group-A-Output*%
X138490000Y-69740000D03*
%TD*%
D10*
%TO.P,TP5,1,1*%
%TO.N,Net-(C5-Pad1)*%
X126725000Y-104060000D03*
D11*
%TO.P,TP5,2,2*%
%TO.N,Net-(Q5-Pad1)*%
X126725000Y-101520000D03*
%TD*%
D10*
%TO.P,TP2,1,1*%
%TO.N,Net-(C2-Pad1)*%
X126725000Y-69560000D03*
D11*
%TO.P,TP2,2,2*%
%TO.N,Net-(Q2-Pad1)*%
X126725000Y-67020000D03*
%TD*%
D10*
%TO.P,TP3,1,1*%
%TO.N,Net-(C3-Pad1)*%
X126725000Y-80060000D03*
D11*
%TO.P,TP3,2,2*%
%TO.N,Net-(Q3-Pad1)*%
X126725000Y-77520000D03*
%TD*%
D10*
%TO.P,TP4,1,1*%
%TO.N,Net-(C4-Pad1)*%
X126725000Y-93060000D03*
D11*
%TO.P,TP4,2,2*%
%TO.N,Net-(Q4-Pad1)*%
X126725000Y-90520000D03*
%TD*%
D14*
%TO.P,RV1,1,1*%
%TO.N,Net-(R1-Pad2)*%
X118185000Y-55090000D03*
%TO.P,RV1,2,2*%
%TO.N,Net-(R2-Pad1)*%
X120725000Y-57630000D03*
%TO.P,RV1,3,3*%
%TO.N,Net-(Q1-Pad1)*%
X123265000Y-55090000D03*
%TD*%
D15*
%TO.P,U3,1,VO*%
%TO.N,+3V3*%
X134995000Y-133932500D03*
D16*
%TO.P,U3,2,GND*%
%TO.N,GND*%
X133725000Y-133932500D03*
%TO.P,U3,3,VI*%
%TO.N,+5V*%
X132455000Y-133932500D03*
%TD*%
D14*
%TO.P,RV7,1,1*%
%TO.N,Net-(R13-Pad2)*%
X118185000Y-126090000D03*
%TO.P,RV7,2,2*%
%TO.N,Net-(R14-Pad1)*%
X120725000Y-128630000D03*
%TO.P,RV7,3,3*%
%TO.N,Net-(Q7-Pad1)*%
X123265000Y-126090000D03*
%TD*%
%TO.P,RV5,1,1*%
%TO.N,Net-(R9-Pad2)*%
X118185000Y-102590000D03*
%TO.P,RV5,2,2*%
%TO.N,Net-(R10-Pad1)*%
X120725000Y-105130000D03*
%TO.P,RV5,3,3*%
%TO.N,Net-(Q5-Pad1)*%
X123265000Y-102590000D03*
%TD*%
D10*
%TO.P,TP8,1,1*%
%TO.N,Net-(C8-Pad1)*%
X126725000Y-140560000D03*
D11*
%TO.P,TP8,2,2*%
%TO.N,Net-(Q8-Pad1)*%
X126725000Y-138020000D03*
%TD*%
D14*
%TO.P,RV3,1,1*%
%TO.N,Net-(R5-Pad2)*%
X118185000Y-78670000D03*
%TO.P,RV3,2,2*%
%TO.N,Net-(R6-Pad1)*%
X120725000Y-81210000D03*
%TO.P,RV3,3,3*%
%TO.N,Net-(Q3-Pad1)*%
X123265000Y-78670000D03*
%TD*%
%TO.P,RV8,1,1*%
%TO.N,Net-(R15-Pad2)*%
X118185000Y-139090000D03*
%TO.P,RV8,2,2*%
%TO.N,Net-(R16-Pad1)*%
X120725000Y-141630000D03*
%TO.P,RV8,3,3*%
%TO.N,Net-(Q8-Pad1)*%
X123265000Y-139090000D03*
%TD*%
D10*
%TO.P,TP6,1,1*%
%TO.N,Net-(C6-Pad1)*%
X126725000Y-117060000D03*
D11*
%TO.P,TP6,2,2*%
%TO.N,Net-(Q6-Pad1)*%
X126725000Y-114520000D03*
%TD*%
D14*
%TO.P,RV2,1,1*%
%TO.N,Net-(R3-Pad2)*%
X118185000Y-68090000D03*
%TO.P,RV2,2,2*%
%TO.N,Net-(R4-Pad1)*%
X120725000Y-70630000D03*
%TO.P,RV2,3,3*%
%TO.N,Net-(Q2-Pad1)*%
X123265000Y-68090000D03*
%TD*%
%TO.P,RV6,1,1*%
%TO.N,Net-(R11-Pad2)*%
X118185000Y-115540000D03*
%TO.P,RV6,2,2*%
%TO.N,Net-(R12-Pad1)*%
X120725000Y-118080000D03*
%TO.P,RV6,3,3*%
%TO.N,Net-(Q6-Pad1)*%
X123265000Y-115540000D03*
%TD*%
D10*
%TO.P,TP7,1,1*%
%TO.N,Net-(C7-Pad1)*%
X126725000Y-127560000D03*
D11*
%TO.P,TP7,2,2*%
%TO.N,Net-(Q7-Pad1)*%
X126725000Y-125020000D03*
%TD*%
D14*
%TO.P,RV4,1,1*%
%TO.N,Net-(R7-Pad2)*%
X118185000Y-91590000D03*
%TO.P,RV4,2,2*%
%TO.N,Net-(R8-Pad1)*%
X120725000Y-94130000D03*
%TO.P,RV4,3,3*%
%TO.N,Net-(Q4-Pad1)*%
X123265000Y-91590000D03*
%TD*%
D10*
%TO.P,J2,1,Pin_1*%
%TO.N,Net-(J2-Pad1)*%
X135950000Y-124860000D03*
D11*
%TO.P,J2,2,Pin_2*%
%TO.N,/Group-A/Group-A-Output*%
X138490000Y-124860000D03*
%TO.P,J2,3,Pin_3*%
%TO.N,Net-(J2-Pad3)*%
X135950000Y-122320000D03*
%TO.P,J2,4,Pin_4*%
%TO.N,/Group-A/Group-A-Output*%
X138490000Y-122320000D03*
%TO.P,J2,5,Pin_5*%
%TO.N,Net-(J2-Pad5)*%
X135950000Y-119780000D03*
%TO.P,J2,6,Pin_6*%
%TO.N,/Group-A/Group-A-Output*%
X138490000Y-119780000D03*
%TO.P,J2,7,Pin_7*%
%TO.N,Net-(J2-Pad7)*%
X135950000Y-117240000D03*
%TO.P,J2,8,Pin_8*%
%TO.N,/Group-A/Group-A-Output*%
X138490000Y-117240000D03*
%TD*%
D10*
%TO.P,TP1,1,1*%
%TO.N,Net-(C1-Pad1)*%
X126725000Y-56560000D03*
D11*
%TO.P,TP1,2,2*%
%TO.N,Net-(Q1-Pad1)*%
X126725000Y-54020000D03*
%TD*%
D17*
%TO.N,+3V3*%
X132225000Y-127560000D03*
D18*
%TO.N,GND*%
X129687500Y-74597500D03*
X130687500Y-74597500D03*
X129687500Y-122097500D03*
X130687500Y-122097500D03*
X125225000Y-72060000D03*
D17*
%TO.N,+3V3*%
X129450500Y-129560000D03*
D18*
%TO.N,GND*%
X125725000Y-60560000D03*
X125725000Y-108060000D03*
X125225000Y-119560000D03*
X125725000Y-84060000D03*
X125725000Y-97060000D03*
X125225000Y-144560000D03*
X125725000Y-131560000D03*
%TD*%
D19*
%TO.N,+3V3*%
X129450500Y-129560000D02*
X131450500Y-127560000D01*
X131450500Y-127560000D02*
X132225000Y-127560000D01*
%TD*%
%TA.AperFunction,Conductor*%
%TO.N,GND*%
G36*
X140159121Y-50088002D02*
G01*
X140205614Y-50141658D01*
X140217000Y-50194000D01*
X140217000Y-145426000D01*
X140196998Y-145494121D01*
X140143342Y-145540614D01*
X140091000Y-145552000D01*
X111359000Y-145552000D01*
X111290879Y-145531998D01*
X111244386Y-145478342D01*
X111233000Y-145426000D01*
X111233000Y-142954669D01*
X129842001Y-142954669D01*
X129842371Y-142961490D01*
X129847895Y-143012352D01*
X129851521Y-143027604D01*
X129896676Y-143148054D01*
X129905214Y-143163649D01*
X129981715Y-143265724D01*
X129994276Y-143278285D01*
X130096351Y-143354786D01*
X130111946Y-143363324D01*
X130232394Y-143408478D01*
X130247649Y-143412105D01*
X130298514Y-143417631D01*
X130305328Y-143418000D01*
X130927885Y-143418000D01*
X130943124Y-143413525D01*
X130944329Y-143412135D01*
X130946000Y-143404452D01*
X130946000Y-143399884D01*
X131454000Y-143399884D01*
X131458475Y-143415123D01*
X131459865Y-143416328D01*
X131467548Y-143417999D01*
X132094669Y-143417999D01*
X132101490Y-143417629D01*
X132152352Y-143412105D01*
X132167604Y-143408479D01*
X132288054Y-143363324D01*
X132303649Y-143354786D01*
X132405724Y-143278285D01*
X132418285Y-143265724D01*
X132494786Y-143163649D01*
X132503324Y-143148054D01*
X132544225Y-143038952D01*
X132586867Y-142982188D01*
X132653428Y-142957488D01*
X132722777Y-142972696D01*
X132757444Y-143000684D01*
X132782865Y-143030031D01*
X132782869Y-143030035D01*
X132786250Y-143033938D01*
X132958126Y-143176632D01*
X133151000Y-143289338D01*
X133359692Y-143369030D01*
X133364760Y-143370061D01*
X133364763Y-143370062D01*
X133472017Y-143391883D01*
X133578597Y-143413567D01*
X133583772Y-143413757D01*
X133583774Y-143413757D01*
X133796673Y-143421564D01*
X133796677Y-143421564D01*
X133801837Y-143421753D01*
X133806957Y-143421097D01*
X133806959Y-143421097D01*
X134018288Y-143394025D01*
X134018289Y-143394025D01*
X134023416Y-143393368D01*
X134028366Y-143391883D01*
X134232429Y-143330661D01*
X134232434Y-143330659D01*
X134237384Y-143329174D01*
X134437994Y-143230896D01*
X134619860Y-143101173D01*
X134778096Y-142943489D01*
X134908453Y-142762077D01*
X134909776Y-142763028D01*
X134956645Y-142719857D01*
X135026580Y-142707625D01*
X135092026Y-142735144D01*
X135119875Y-142766994D01*
X135179987Y-142865088D01*
X135326250Y-143033938D01*
X135498126Y-143176632D01*
X135691000Y-143289338D01*
X135899692Y-143369030D01*
X135904760Y-143370061D01*
X135904763Y-143370062D01*
X136012017Y-143391883D01*
X136118597Y-143413567D01*
X136123772Y-143413757D01*
X136123774Y-143413757D01*
X136336673Y-143421564D01*
X136336677Y-143421564D01*
X136341837Y-143421753D01*
X136346957Y-143421097D01*
X136346959Y-143421097D01*
X136558288Y-143394025D01*
X136558289Y-143394025D01*
X136563416Y-143393368D01*
X136568366Y-143391883D01*
X136772429Y-143330661D01*
X136772434Y-143330659D01*
X136777384Y-143329174D01*
X136977994Y-143230896D01*
X137159860Y-143101173D01*
X137318096Y-142943489D01*
X137448453Y-142762077D01*
X137469320Y-142719857D01*
X137545136Y-142566453D01*
X137545137Y-142566451D01*
X137547430Y-142561811D01*
X137612370Y-142348069D01*
X137641529Y-142126590D01*
X137643156Y-142060000D01*
X137624852Y-141837361D01*
X137570431Y-141620702D01*
X137481354Y-141415840D01*
X137441906Y-141354862D01*
X137362822Y-141232617D01*
X137362820Y-141232614D01*
X137360014Y-141228277D01*
X137209670Y-141063051D01*
X137205619Y-141059852D01*
X137205615Y-141059848D01*
X137038414Y-140927800D01*
X137038410Y-140927798D01*
X137034359Y-140924598D01*
X136838789Y-140816638D01*
X136833920Y-140814914D01*
X136833916Y-140814912D01*
X136633087Y-140743795D01*
X136633083Y-140743794D01*
X136628212Y-140742069D01*
X136623119Y-140741162D01*
X136623116Y-140741161D01*
X136413373Y-140703800D01*
X136413367Y-140703799D01*
X136408284Y-140702894D01*
X136334452Y-140701992D01*
X136190081Y-140700228D01*
X136190079Y-140700228D01*
X136184911Y-140700165D01*
X135964091Y-140733955D01*
X135751756Y-140803357D01*
X135711066Y-140824539D01*
X135607927Y-140878230D01*
X135553607Y-140906507D01*
X135549474Y-140909610D01*
X135549471Y-140909612D01*
X135390717Y-141028808D01*
X135374965Y-141040635D01*
X135220629Y-141202138D01*
X135113201Y-141359621D01*
X135058293Y-141404621D01*
X134987768Y-141412792D01*
X134924021Y-141381538D01*
X134903324Y-141357054D01*
X134822822Y-141232617D01*
X134822820Y-141232614D01*
X134820014Y-141228277D01*
X134669670Y-141063051D01*
X134665619Y-141059852D01*
X134665615Y-141059848D01*
X134498414Y-140927800D01*
X134498410Y-140927798D01*
X134494359Y-140924598D01*
X134298789Y-140816638D01*
X134293920Y-140814914D01*
X134293916Y-140814912D01*
X134093087Y-140743795D01*
X134093083Y-140743794D01*
X134088212Y-140742069D01*
X134083119Y-140741162D01*
X134083116Y-140741161D01*
X133873373Y-140703800D01*
X133873367Y-140703799D01*
X133868284Y-140702894D01*
X133794452Y-140701992D01*
X133650081Y-140700228D01*
X133650079Y-140700228D01*
X133644911Y-140700165D01*
X133424091Y-140733955D01*
X133211756Y-140803357D01*
X133171066Y-140824539D01*
X133067927Y-140878230D01*
X133013607Y-140906507D01*
X133009474Y-140909610D01*
X133009471Y-140909612D01*
X132850717Y-141028808D01*
X132834965Y-141040635D01*
X132831393Y-141044373D01*
X132753898Y-141125466D01*
X132692374Y-141160895D01*
X132621462Y-141157438D01*
X132563676Y-141116192D01*
X132544823Y-141082644D01*
X132503324Y-140971946D01*
X132494786Y-140956351D01*
X132418285Y-140854276D01*
X132405724Y-140841715D01*
X132303649Y-140765214D01*
X132288054Y-140756676D01*
X132167606Y-140711522D01*
X132152351Y-140707895D01*
X132101486Y-140702369D01*
X132094672Y-140702000D01*
X131472115Y-140702000D01*
X131456876Y-140706475D01*
X131455671Y-140707865D01*
X131454000Y-140715548D01*
X131454000Y-143399884D01*
X130946000Y-143399884D01*
X130946000Y-142332115D01*
X130941525Y-142316876D01*
X130940135Y-142315671D01*
X130932452Y-142314000D01*
X129860116Y-142314000D01*
X129844877Y-142318475D01*
X129843672Y-142319865D01*
X129842001Y-142327548D01*
X129842001Y-142954669D01*
X111233000Y-142954669D01*
X111233000Y-141621406D01*
X111888423Y-141621406D01*
X111893704Y-141628461D01*
X112070080Y-141731527D01*
X112079363Y-141735974D01*
X112286003Y-141814883D01*
X112295901Y-141817759D01*
X112512653Y-141861857D01*
X112522883Y-141863076D01*
X112743914Y-141871182D01*
X112754223Y-141870714D01*
X112973623Y-141842608D01*
X112983688Y-141840468D01*
X113195557Y-141776905D01*
X113205152Y-141773144D01*
X113403778Y-141675838D01*
X113412636Y-141670559D01*
X113470097Y-141629572D01*
X113478497Y-141618874D01*
X113471510Y-141605721D01*
X112697811Y-140832021D01*
X112683868Y-140824408D01*
X112682034Y-140824539D01*
X112675420Y-140828790D01*
X111895180Y-141609031D01*
X111888423Y-141621406D01*
X111233000Y-141621406D01*
X111233000Y-141232202D01*
X111253002Y-141164081D01*
X111306658Y-141117588D01*
X111376932Y-141107484D01*
X111441512Y-141136978D01*
X111466433Y-141166368D01*
X111515097Y-141245781D01*
X111525553Y-141255242D01*
X111534331Y-141251458D01*
X112312979Y-140472811D01*
X112319356Y-140461132D01*
X113049408Y-140461132D01*
X113049539Y-140462966D01*
X113053790Y-140469580D01*
X113779595Y-141195384D01*
X113813620Y-141257697D01*
X113816500Y-141284480D01*
X113816500Y-141408134D01*
X113823255Y-141470316D01*
X113874385Y-141606705D01*
X113961739Y-141723261D01*
X114078295Y-141810615D01*
X114214684Y-141861745D01*
X114276866Y-141868500D01*
X116173134Y-141868500D01*
X116235316Y-141861745D01*
X116371705Y-141810615D01*
X116488261Y-141723261D01*
X116569391Y-141615009D01*
X119651435Y-141615009D01*
X119651951Y-141621153D01*
X119668219Y-141814883D01*
X119668969Y-141823818D01*
X119726727Y-142025244D01*
X119822509Y-142211616D01*
X119826334Y-142216442D01*
X119826336Y-142216445D01*
X119948837Y-142371004D01*
X119948841Y-142371009D01*
X119952666Y-142375834D01*
X120112242Y-142511643D01*
X120295157Y-142613871D01*
X120494445Y-142678624D01*
X120702515Y-142703435D01*
X120708650Y-142702963D01*
X120708652Y-142702963D01*
X120905299Y-142687832D01*
X120905303Y-142687831D01*
X120911441Y-142687359D01*
X121006363Y-142660856D01*
X121107321Y-142632668D01*
X121107325Y-142632667D01*
X121113265Y-142631008D01*
X121118769Y-142628228D01*
X121118771Y-142628227D01*
X121294800Y-142539309D01*
X121294802Y-142539308D01*
X121300301Y-142536530D01*
X121465424Y-142407522D01*
X121602344Y-142248898D01*
X121705846Y-142066701D01*
X121771989Y-141867870D01*
X121772906Y-141860615D01*
X121783480Y-141776905D01*
X121798251Y-141659979D01*
X121798670Y-141630000D01*
X121778222Y-141421456D01*
X121717657Y-141220856D01*
X121619283Y-141035840D01*
X121513802Y-140906507D01*
X121490740Y-140878230D01*
X121490737Y-140878227D01*
X121486845Y-140873455D01*
X121436760Y-140832021D01*
X121330139Y-140743816D01*
X121330135Y-140743814D01*
X121325389Y-140739887D01*
X121141064Y-140640223D01*
X120940891Y-140578259D01*
X120934766Y-140577615D01*
X120934765Y-140577615D01*
X120738624Y-140557000D01*
X120738623Y-140557000D01*
X120732496Y-140556356D01*
X120646138Y-140564215D01*
X120529953Y-140574789D01*
X120529950Y-140574790D01*
X120523814Y-140575348D01*
X120517908Y-140577086D01*
X120517904Y-140577087D01*
X120370946Y-140620340D01*
X120322796Y-140634511D01*
X120317339Y-140637364D01*
X120317336Y-140637365D01*
X120306265Y-140643153D01*
X120137098Y-140731591D01*
X119973792Y-140862892D01*
X119839100Y-141023412D01*
X119836136Y-141028804D01*
X119836133Y-141028808D01*
X119806537Y-141082644D01*
X119738152Y-141207036D01*
X119736291Y-141212903D01*
X119736290Y-141212905D01*
X119731896Y-141226756D01*
X119674792Y-141406771D01*
X119651435Y-141615009D01*
X116569391Y-141615009D01*
X116575615Y-141606705D01*
X116626745Y-141470316D01*
X116633500Y-141408134D01*
X116633500Y-139511866D01*
X116626745Y-139449684D01*
X116575615Y-139313295D01*
X116488261Y-139196739D01*
X116371705Y-139109385D01*
X116280007Y-139075009D01*
X117111435Y-139075009D01*
X117114017Y-139105756D01*
X117127370Y-139264771D01*
X117128969Y-139283818D01*
X117141601Y-139327870D01*
X117178373Y-139456109D01*
X117186727Y-139485244D01*
X117282509Y-139671616D01*
X117286334Y-139676442D01*
X117286336Y-139676445D01*
X117408837Y-139831004D01*
X117408841Y-139831009D01*
X117412666Y-139835834D01*
X117572242Y-139971643D01*
X117755157Y-140073871D01*
X117954445Y-140138624D01*
X118162515Y-140163435D01*
X118168650Y-140162963D01*
X118168652Y-140162963D01*
X118365299Y-140147832D01*
X118365303Y-140147831D01*
X118371441Y-140147359D01*
X118466363Y-140120856D01*
X118567321Y-140092668D01*
X118567325Y-140092667D01*
X118573265Y-140091008D01*
X118578769Y-140088228D01*
X118578771Y-140088227D01*
X118754800Y-139999309D01*
X118754802Y-139999308D01*
X118760301Y-139996530D01*
X118925424Y-139867522D01*
X119062344Y-139708898D01*
X119082696Y-139673073D01*
X119162799Y-139532064D01*
X119165846Y-139526701D01*
X119231989Y-139327870D01*
X119258251Y-139119979D01*
X119258450Y-139105756D01*
X119258621Y-139093522D01*
X119258621Y-139093518D01*
X119258670Y-139090000D01*
X119257200Y-139075009D01*
X122191435Y-139075009D01*
X122194017Y-139105756D01*
X122207370Y-139264771D01*
X122208969Y-139283818D01*
X122221601Y-139327870D01*
X122258373Y-139456109D01*
X122266727Y-139485244D01*
X122362509Y-139671616D01*
X122366334Y-139676442D01*
X122366336Y-139676445D01*
X122488837Y-139831004D01*
X122488841Y-139831009D01*
X122492666Y-139835834D01*
X122652242Y-139971643D01*
X122835157Y-140073871D01*
X123034445Y-140138624D01*
X123242515Y-140163435D01*
X123248650Y-140162963D01*
X123248652Y-140162963D01*
X123445299Y-140147832D01*
X123445303Y-140147831D01*
X123451441Y-140147359D01*
X123546363Y-140120856D01*
X123647321Y-140092668D01*
X123647325Y-140092667D01*
X123653265Y-140091008D01*
X123658769Y-140088228D01*
X123658771Y-140088227D01*
X123834800Y-139999309D01*
X123834802Y-139999308D01*
X123840301Y-139996530D01*
X124005424Y-139867522D01*
X124142344Y-139708898D01*
X124162696Y-139673073D01*
X124242799Y-139532064D01*
X124245846Y-139526701D01*
X124311989Y-139327870D01*
X124338251Y-139119979D01*
X124338450Y-139105756D01*
X124338621Y-139093522D01*
X124338621Y-139093518D01*
X124338670Y-139090000D01*
X124318222Y-138881456D01*
X124257657Y-138680856D01*
X124159283Y-138495840D01*
X124084812Y-138404530D01*
X124030740Y-138338230D01*
X124030737Y-138338227D01*
X124026845Y-138333455D01*
X123996159Y-138308069D01*
X123870139Y-138203816D01*
X123870135Y-138203814D01*
X123865389Y-138199887D01*
X123681064Y-138100223D01*
X123480891Y-138038259D01*
X123474766Y-138037615D01*
X123474765Y-138037615D01*
X123278624Y-138017000D01*
X123278623Y-138017000D01*
X123272496Y-138016356D01*
X123195482Y-138023365D01*
X123069953Y-138034789D01*
X123069950Y-138034790D01*
X123063814Y-138035348D01*
X123057908Y-138037086D01*
X123057904Y-138037087D01*
X122910946Y-138080340D01*
X122862796Y-138094511D01*
X122857339Y-138097364D01*
X122857336Y-138097365D01*
X122846265Y-138103153D01*
X122677098Y-138191591D01*
X122513792Y-138322892D01*
X122379100Y-138483412D01*
X122376136Y-138488804D01*
X122376133Y-138488808D01*
X122369276Y-138501281D01*
X122278152Y-138667036D01*
X122276291Y-138672903D01*
X122276290Y-138672905D01*
X122246472Y-138766903D01*
X122214792Y-138866771D01*
X122191435Y-139075009D01*
X119257200Y-139075009D01*
X119238222Y-138881456D01*
X119177657Y-138680856D01*
X119079283Y-138495840D01*
X119004812Y-138404530D01*
X118950740Y-138338230D01*
X118950737Y-138338227D01*
X118946845Y-138333455D01*
X118916159Y-138308069D01*
X118790139Y-138203816D01*
X118790135Y-138203814D01*
X118785389Y-138199887D01*
X118601064Y-138100223D01*
X118400891Y-138038259D01*
X118394766Y-138037615D01*
X118394765Y-138037615D01*
X118198624Y-138017000D01*
X118198623Y-138017000D01*
X118192496Y-138016356D01*
X118115482Y-138023365D01*
X117989953Y-138034789D01*
X117989950Y-138034790D01*
X117983814Y-138035348D01*
X117977908Y-138037086D01*
X117977904Y-138037087D01*
X117830946Y-138080340D01*
X117782796Y-138094511D01*
X117777339Y-138097364D01*
X117777336Y-138097365D01*
X117766265Y-138103153D01*
X117597098Y-138191591D01*
X117433792Y-138322892D01*
X117299100Y-138483412D01*
X117296136Y-138488804D01*
X117296133Y-138488808D01*
X117289276Y-138501281D01*
X117198152Y-138667036D01*
X117196291Y-138672903D01*
X117196290Y-138672905D01*
X117166472Y-138766903D01*
X117134792Y-138866771D01*
X117111435Y-139075009D01*
X116280007Y-139075009D01*
X116235316Y-139058255D01*
X116173134Y-139051500D01*
X114276866Y-139051500D01*
X114214684Y-139058255D01*
X114078295Y-139109385D01*
X113961739Y-139196739D01*
X113874385Y-139313295D01*
X113823255Y-139449684D01*
X113816500Y-139511866D01*
X113816500Y-139635520D01*
X113796498Y-139703641D01*
X113779595Y-139724616D01*
X113057021Y-140447189D01*
X113049408Y-140461132D01*
X112319356Y-140461132D01*
X112320592Y-140458868D01*
X112320461Y-140457034D01*
X112316210Y-140450420D01*
X111538862Y-139673073D01*
X111527330Y-139666776D01*
X111515048Y-139676399D01*
X111463088Y-139752569D01*
X111408176Y-139797571D01*
X111337652Y-139805742D01*
X111273905Y-139774488D01*
X111237175Y-139713730D01*
X111233000Y-139681564D01*
X111233000Y-139300711D01*
X111890508Y-139300711D01*
X111897251Y-139313040D01*
X112672189Y-140087979D01*
X112686132Y-140095592D01*
X112687966Y-140095461D01*
X112694580Y-140091210D01*
X113473994Y-139311795D01*
X113481011Y-139298944D01*
X113473237Y-139288274D01*
X113470902Y-139286430D01*
X113462320Y-139280729D01*
X113268678Y-139173833D01*
X113259272Y-139169606D01*
X113050772Y-139095772D01*
X113040809Y-139093140D01*
X112823047Y-139054350D01*
X112812796Y-139053381D01*
X112591616Y-139050679D01*
X112581332Y-139051399D01*
X112362693Y-139084855D01*
X112352666Y-139087244D01*
X112142426Y-139155961D01*
X112132916Y-139159958D01*
X111936725Y-139262089D01*
X111928007Y-139267578D01*
X111898961Y-139289386D01*
X111890508Y-139300711D01*
X111233000Y-139300711D01*
X111233000Y-137986695D01*
X125362251Y-137986695D01*
X125362548Y-137991848D01*
X125362548Y-137991851D01*
X125368632Y-138097365D01*
X125375110Y-138209715D01*
X125376247Y-138214761D01*
X125376248Y-138214767D01*
X125396119Y-138302939D01*
X125424222Y-138427639D01*
X125508266Y-138634616D01*
X125624987Y-138825088D01*
X125771250Y-138993938D01*
X125775230Y-138997242D01*
X125779981Y-139001187D01*
X125819616Y-139060090D01*
X125821113Y-139131071D01*
X125783997Y-139191593D01*
X125743724Y-139216112D01*
X125628295Y-139259385D01*
X125511739Y-139346739D01*
X125424385Y-139463295D01*
X125373255Y-139599684D01*
X125366500Y-139661866D01*
X125366500Y-141458134D01*
X125373255Y-141520316D01*
X125424385Y-141656705D01*
X125511739Y-141773261D01*
X125628295Y-141860615D01*
X125764684Y-141911745D01*
X125826866Y-141918500D01*
X127623134Y-141918500D01*
X127685316Y-141911745D01*
X127821705Y-141860615D01*
X127918748Y-141787885D01*
X129842000Y-141787885D01*
X129846475Y-141803124D01*
X129847865Y-141804329D01*
X129855548Y-141806000D01*
X130927885Y-141806000D01*
X130943124Y-141801525D01*
X130944329Y-141800135D01*
X130946000Y-141792452D01*
X130946000Y-140720116D01*
X130941525Y-140704877D01*
X130940135Y-140703672D01*
X130932452Y-140702001D01*
X130305331Y-140702001D01*
X130298510Y-140702371D01*
X130247648Y-140707895D01*
X130232396Y-140711521D01*
X130111946Y-140756676D01*
X130096351Y-140765214D01*
X129994276Y-140841715D01*
X129981715Y-140854276D01*
X129905214Y-140956351D01*
X129896676Y-140971946D01*
X129851522Y-141092394D01*
X129847895Y-141107649D01*
X129842369Y-141158514D01*
X129842000Y-141165328D01*
X129842000Y-141787885D01*
X127918748Y-141787885D01*
X127938261Y-141773261D01*
X128025615Y-141656705D01*
X128076745Y-141520316D01*
X128083500Y-141458134D01*
X128083500Y-139661866D01*
X128076745Y-139599684D01*
X128025615Y-139463295D01*
X127938261Y-139346739D01*
X127821705Y-139259385D01*
X127809132Y-139254672D01*
X127703203Y-139214960D01*
X127646439Y-139172318D01*
X127621739Y-139105756D01*
X127636947Y-139036408D01*
X127658493Y-139007727D01*
X127759435Y-138907137D01*
X127763096Y-138903489D01*
X127789481Y-138866771D01*
X127890435Y-138726277D01*
X127893453Y-138722077D01*
X127992430Y-138521811D01*
X128051433Y-138327611D01*
X128055865Y-138313023D01*
X128055865Y-138313021D01*
X128057370Y-138308069D01*
X128086529Y-138086590D01*
X128086611Y-138083240D01*
X128088074Y-138023365D01*
X128088074Y-138023361D01*
X128088156Y-138020000D01*
X128069852Y-137797361D01*
X128015431Y-137580702D01*
X127926354Y-137375840D01*
X127805014Y-137188277D01*
X127654670Y-137023051D01*
X127650619Y-137019852D01*
X127650615Y-137019848D01*
X127483414Y-136887800D01*
X127483410Y-136887798D01*
X127479359Y-136884598D01*
X127283789Y-136776638D01*
X127278920Y-136774914D01*
X127278916Y-136774912D01*
X127078087Y-136703795D01*
X127078083Y-136703794D01*
X127073212Y-136702069D01*
X127068119Y-136701162D01*
X127068116Y-136701161D01*
X126858373Y-136663800D01*
X126858367Y-136663799D01*
X126853284Y-136662894D01*
X126779452Y-136661992D01*
X126635081Y-136660228D01*
X126635079Y-136660228D01*
X126629911Y-136660165D01*
X126409091Y-136693955D01*
X126196756Y-136763357D01*
X125998607Y-136866507D01*
X125994474Y-136869610D01*
X125994471Y-136869612D01*
X125970247Y-136887800D01*
X125819965Y-137000635D01*
X125665629Y-137162138D01*
X125539743Y-137346680D01*
X125445688Y-137549305D01*
X125385989Y-137764570D01*
X125362251Y-137986695D01*
X111233000Y-137986695D01*
X111233000Y-134208504D01*
X131421500Y-134208504D01*
X131436277Y-134359213D01*
X131494858Y-134553242D01*
X131590010Y-134732198D01*
X131718110Y-134889263D01*
X131722857Y-134893190D01*
X131722859Y-134893192D01*
X131869528Y-135014527D01*
X131869531Y-135014529D01*
X131874278Y-135018456D01*
X132052565Y-135114856D01*
X132149372Y-135144823D01*
X132240293Y-135172968D01*
X132240296Y-135172969D01*
X132246180Y-135174790D01*
X132252305Y-135175434D01*
X132252306Y-135175434D01*
X132441622Y-135195332D01*
X132441623Y-135195332D01*
X132447750Y-135195976D01*
X132531014Y-135188398D01*
X132643457Y-135178165D01*
X132643460Y-135178164D01*
X132649596Y-135177606D01*
X132655502Y-135175868D01*
X132655506Y-135175867D01*
X132838120Y-135122120D01*
X132838119Y-135122120D01*
X132844029Y-135120381D01*
X132849486Y-135117528D01*
X132849489Y-135117527D01*
X133018181Y-135029338D01*
X133018185Y-135029335D01*
X133023645Y-135026481D01*
X133023897Y-135026279D01*
X133089912Y-135006299D01*
X133150885Y-135021459D01*
X133317342Y-135111462D01*
X133328647Y-135116214D01*
X133453692Y-135154922D01*
X133467795Y-135155128D01*
X133471000Y-135148373D01*
X133471000Y-134730634D01*
X133961500Y-134730634D01*
X133968255Y-134792816D01*
X133971029Y-134800215D01*
X133972856Y-134807900D01*
X133972416Y-134808005D01*
X133979000Y-134844320D01*
X133979000Y-135141486D01*
X133982973Y-135155017D01*
X133990768Y-135156137D01*
X134107933Y-135121654D01*
X134108440Y-135121449D01*
X134108724Y-135121421D01*
X134113841Y-135119915D01*
X134114127Y-135120888D01*
X134179094Y-135114475D01*
X134216131Y-135127746D01*
X134223295Y-135133115D01*
X134359684Y-135184245D01*
X134421866Y-135191000D01*
X135568134Y-135191000D01*
X135630316Y-135184245D01*
X135766705Y-135133115D01*
X135883261Y-135045761D01*
X135970615Y-134929205D01*
X136021745Y-134792816D01*
X136028500Y-134730634D01*
X136028500Y-133134366D01*
X136021745Y-133072184D01*
X135970615Y-132935795D01*
X135883261Y-132819239D01*
X135766705Y-132731885D01*
X135630316Y-132680755D01*
X135568134Y-132674000D01*
X134421866Y-132674000D01*
X134359684Y-132680755D01*
X134343466Y-132686835D01*
X134231699Y-132728734D01*
X134231696Y-132728736D01*
X134223295Y-132731885D01*
X134216112Y-132737268D01*
X134215247Y-132737742D01*
X134145890Y-132752911D01*
X134117478Y-132747587D01*
X133996307Y-132710078D01*
X133982205Y-132709872D01*
X133979000Y-132716627D01*
X133979000Y-133020680D01*
X133972416Y-133056995D01*
X133972856Y-133057100D01*
X133971029Y-133064784D01*
X133968255Y-133072184D01*
X133961500Y-133134366D01*
X133961500Y-134730634D01*
X133471000Y-134730634D01*
X133471000Y-134378742D01*
X133471785Y-134364697D01*
X133488107Y-134219183D01*
X133488500Y-134215683D01*
X133488500Y-133656496D01*
X133473723Y-133505787D01*
X133473032Y-133503498D01*
X133471000Y-133482776D01*
X133471000Y-132723514D01*
X133467027Y-132709983D01*
X133459232Y-132708863D01*
X133342068Y-132743346D01*
X133330700Y-132747939D01*
X133162093Y-132836084D01*
X133159017Y-132838097D01*
X133157178Y-132838654D01*
X133156630Y-132838940D01*
X133156576Y-132838836D01*
X133091064Y-132858661D01*
X133030094Y-132843501D01*
X132998502Y-132826419D01*
X132857435Y-132750144D01*
X132724078Y-132708863D01*
X132669707Y-132692032D01*
X132669704Y-132692031D01*
X132663820Y-132690210D01*
X132657695Y-132689566D01*
X132657694Y-132689566D01*
X132468378Y-132669668D01*
X132468377Y-132669668D01*
X132462250Y-132669024D01*
X132378986Y-132676602D01*
X132266543Y-132686835D01*
X132266540Y-132686836D01*
X132260404Y-132687394D01*
X132254498Y-132689132D01*
X132254494Y-132689133D01*
X132161079Y-132716627D01*
X132065971Y-132744619D01*
X132060514Y-132747472D01*
X132060511Y-132747473D01*
X131976163Y-132791569D01*
X131886355Y-132838519D01*
X131728399Y-132965519D01*
X131598119Y-133120781D01*
X131595155Y-133126173D01*
X131595152Y-133126177D01*
X131588772Y-133137783D01*
X131500477Y-133298391D01*
X131439193Y-133491584D01*
X131438507Y-133497701D01*
X131438506Y-133497705D01*
X131436912Y-133511918D01*
X131421500Y-133649317D01*
X131421500Y-134208504D01*
X111233000Y-134208504D01*
X111233000Y-128615009D01*
X119651435Y-128615009D01*
X119651951Y-128621153D01*
X119665176Y-128778642D01*
X119668969Y-128823818D01*
X119726727Y-129025244D01*
X119822509Y-129211616D01*
X119826334Y-129216442D01*
X119826336Y-129216445D01*
X119948837Y-129371004D01*
X119948841Y-129371009D01*
X119952666Y-129375834D01*
X120112242Y-129511643D01*
X120295157Y-129613871D01*
X120494445Y-129678624D01*
X120702515Y-129703435D01*
X120708650Y-129702963D01*
X120708652Y-129702963D01*
X120905299Y-129687832D01*
X120905303Y-129687831D01*
X120911441Y-129687359D01*
X121006363Y-129660856D01*
X121107321Y-129632668D01*
X121107325Y-129632667D01*
X121113265Y-129631008D01*
X121118769Y-129628228D01*
X121118771Y-129628227D01*
X121253838Y-129560000D01*
X128137002Y-129560000D01*
X128156957Y-129788087D01*
X128216216Y-130009243D01*
X128218539Y-130014224D01*
X128218539Y-130014225D01*
X128310651Y-130211762D01*
X128310654Y-130211767D01*
X128312977Y-130216749D01*
X128444302Y-130404300D01*
X128606200Y-130566198D01*
X128610708Y-130569355D01*
X128610711Y-130569357D01*
X128688889Y-130624098D01*
X128793751Y-130697523D01*
X128798733Y-130699846D01*
X128798738Y-130699849D01*
X128996275Y-130791961D01*
X129001257Y-130794284D01*
X129006565Y-130795706D01*
X129006567Y-130795707D01*
X129217098Y-130852119D01*
X129217100Y-130852119D01*
X129222413Y-130853543D01*
X129450500Y-130873498D01*
X129678587Y-130853543D01*
X129683900Y-130852119D01*
X129683902Y-130852119D01*
X129894433Y-130795707D01*
X129894435Y-130795706D01*
X129899743Y-130794284D01*
X129904725Y-130791961D01*
X130102262Y-130699849D01*
X130102267Y-130699846D01*
X130107249Y-130697523D01*
X130212111Y-130624098D01*
X130290289Y-130569357D01*
X130290292Y-130569355D01*
X130294800Y-130566198D01*
X130456698Y-130404300D01*
X130588023Y-130216749D01*
X130590346Y-130211767D01*
X130590349Y-130211762D01*
X130682461Y-130014225D01*
X130682461Y-130014224D01*
X130684784Y-130009243D01*
X130744043Y-129788087D01*
X130763998Y-129560000D01*
X130749745Y-129397087D01*
X130763734Y-129327482D01*
X130786171Y-129297010D01*
X131386096Y-128697085D01*
X131448408Y-128663059D01*
X131519223Y-128668124D01*
X131547460Y-128682965D01*
X131568251Y-128697523D01*
X131573233Y-128699846D01*
X131573238Y-128699849D01*
X131742212Y-128778642D01*
X131775757Y-128794284D01*
X131781065Y-128795706D01*
X131781067Y-128795707D01*
X131991598Y-128852119D01*
X131991600Y-128852119D01*
X131996913Y-128853543D01*
X132225000Y-128873498D01*
X132453087Y-128853543D01*
X132458400Y-128852119D01*
X132458402Y-128852119D01*
X132668933Y-128795707D01*
X132668935Y-128795706D01*
X132674243Y-128794284D01*
X132707788Y-128778642D01*
X132876762Y-128699849D01*
X132876767Y-128699846D01*
X132881749Y-128697523D01*
X133008338Y-128608884D01*
X133064789Y-128569357D01*
X133064792Y-128569355D01*
X133069300Y-128566198D01*
X133231198Y-128404300D01*
X133362523Y-128216749D01*
X133364846Y-128211767D01*
X133364849Y-128211762D01*
X133456961Y-128014225D01*
X133456961Y-128014224D01*
X133459284Y-128009243D01*
X133497235Y-127867611D01*
X133517119Y-127793402D01*
X133517119Y-127793400D01*
X133518543Y-127788087D01*
X133538498Y-127560000D01*
X133518543Y-127331913D01*
X133468647Y-127145701D01*
X133460707Y-127116067D01*
X133460706Y-127116065D01*
X133459284Y-127110757D01*
X133422372Y-127031598D01*
X133364849Y-126908238D01*
X133364846Y-126908233D01*
X133362523Y-126903251D01*
X133231198Y-126715700D01*
X133069300Y-126553802D01*
X133064792Y-126550645D01*
X133064789Y-126550643D01*
X132929780Y-126456109D01*
X132881749Y-126422477D01*
X132876767Y-126420154D01*
X132876762Y-126420151D01*
X132679225Y-126328039D01*
X132679224Y-126328039D01*
X132674243Y-126325716D01*
X132668935Y-126324294D01*
X132668933Y-126324293D01*
X132458402Y-126267881D01*
X132458400Y-126267881D01*
X132453087Y-126266457D01*
X132225000Y-126246502D01*
X131996913Y-126266457D01*
X131991600Y-126267881D01*
X131991598Y-126267881D01*
X131781067Y-126324293D01*
X131781065Y-126324294D01*
X131775757Y-126325716D01*
X131770776Y-126328039D01*
X131770775Y-126328039D01*
X131573238Y-126420151D01*
X131573233Y-126420154D01*
X131568251Y-126422477D01*
X131520220Y-126456109D01*
X131385211Y-126550643D01*
X131385208Y-126550645D01*
X131380700Y-126553802D01*
X131218802Y-126715700D01*
X131215645Y-126720209D01*
X131215643Y-126720211D01*
X131117229Y-126860760D01*
X131083106Y-126893857D01*
X131047492Y-126917207D01*
X131043812Y-126919529D01*
X130981393Y-126957405D01*
X130973016Y-126964803D01*
X130972992Y-126964776D01*
X130970000Y-126967429D01*
X130966767Y-126970132D01*
X130960648Y-126974144D01*
X130936809Y-126999309D01*
X130907372Y-127030383D01*
X130904994Y-127032825D01*
X129713490Y-128224329D01*
X129651178Y-128258355D01*
X129613413Y-128260755D01*
X129455975Y-128246981D01*
X129450500Y-128246502D01*
X129222413Y-128266457D01*
X129217100Y-128267881D01*
X129217098Y-128267881D01*
X129006567Y-128324293D01*
X129006565Y-128324294D01*
X129001257Y-128325716D01*
X128996276Y-128328039D01*
X128996275Y-128328039D01*
X128798738Y-128420151D01*
X128798733Y-128420154D01*
X128793751Y-128422477D01*
X128688889Y-128495902D01*
X128610711Y-128550643D01*
X128610708Y-128550645D01*
X128606200Y-128553802D01*
X128444302Y-128715700D01*
X128312977Y-128903251D01*
X128310654Y-128908233D01*
X128310651Y-128908238D01*
X128234259Y-129072064D01*
X128216216Y-129110757D01*
X128214794Y-129116065D01*
X128214793Y-129116067D01*
X128179201Y-129248898D01*
X128156957Y-129331913D01*
X128137002Y-129560000D01*
X121253838Y-129560000D01*
X121294800Y-129539309D01*
X121294802Y-129539308D01*
X121300301Y-129536530D01*
X121465424Y-129407522D01*
X121602344Y-129248898D01*
X121705846Y-129066701D01*
X121771989Y-128867870D01*
X121772906Y-128860615D01*
X121783261Y-128778642D01*
X121798251Y-128659979D01*
X121798670Y-128630000D01*
X121778222Y-128421456D01*
X121717657Y-128220856D01*
X121619283Y-128035840D01*
X121544812Y-127944530D01*
X121490740Y-127878230D01*
X121490737Y-127878227D01*
X121486845Y-127873455D01*
X121377029Y-127782607D01*
X121330139Y-127743816D01*
X121330135Y-127743814D01*
X121325389Y-127739887D01*
X121141064Y-127640223D01*
X120940891Y-127578259D01*
X120934766Y-127577615D01*
X120934765Y-127577615D01*
X120738624Y-127557000D01*
X120738623Y-127557000D01*
X120732496Y-127556356D01*
X120646138Y-127564215D01*
X120529953Y-127574789D01*
X120529950Y-127574790D01*
X120523814Y-127575348D01*
X120517908Y-127577086D01*
X120517904Y-127577087D01*
X120370946Y-127620340D01*
X120322796Y-127634511D01*
X120317339Y-127637364D01*
X120317336Y-127637365D01*
X120306265Y-127643153D01*
X120137098Y-127731591D01*
X119973792Y-127862892D01*
X119839100Y-128023412D01*
X119836136Y-128028804D01*
X119836133Y-128028808D01*
X119829276Y-128041281D01*
X119738152Y-128207036D01*
X119736291Y-128212903D01*
X119736290Y-128212905D01*
X119721111Y-128260755D01*
X119674792Y-128406771D01*
X119651435Y-128615009D01*
X111233000Y-128615009D01*
X111233000Y-126075009D01*
X117111435Y-126075009D01*
X117111951Y-126081153D01*
X117127631Y-126267881D01*
X117128969Y-126283818D01*
X117140575Y-126324293D01*
X117178373Y-126456109D01*
X117186727Y-126485244D01*
X117282509Y-126671616D01*
X117286334Y-126676442D01*
X117286336Y-126676445D01*
X117408837Y-126831004D01*
X117408841Y-126831009D01*
X117412666Y-126835834D01*
X117572242Y-126971643D01*
X117577620Y-126974649D01*
X117577622Y-126974650D01*
X117609980Y-126992734D01*
X117755157Y-127073871D01*
X117954445Y-127138624D01*
X118162515Y-127163435D01*
X118168650Y-127162963D01*
X118168652Y-127162963D01*
X118365299Y-127147832D01*
X118365303Y-127147831D01*
X118371441Y-127147359D01*
X118502533Y-127110757D01*
X118567321Y-127092668D01*
X118567325Y-127092667D01*
X118573265Y-127091008D01*
X118578769Y-127088228D01*
X118578771Y-127088227D01*
X118754800Y-126999309D01*
X118754802Y-126999308D01*
X118760301Y-126996530D01*
X118925424Y-126867522D01*
X119062344Y-126708898D01*
X119165846Y-126526701D01*
X119231989Y-126327870D01*
X119258251Y-126119979D01*
X119258670Y-126090000D01*
X119257200Y-126075009D01*
X122191435Y-126075009D01*
X122191951Y-126081153D01*
X122207631Y-126267881D01*
X122208969Y-126283818D01*
X122220575Y-126324293D01*
X122258373Y-126456109D01*
X122266727Y-126485244D01*
X122362509Y-126671616D01*
X122366334Y-126676442D01*
X122366336Y-126676445D01*
X122488837Y-126831004D01*
X122488841Y-126831009D01*
X122492666Y-126835834D01*
X122652242Y-126971643D01*
X122657620Y-126974649D01*
X122657622Y-126974650D01*
X122689980Y-126992734D01*
X122835157Y-127073871D01*
X123034445Y-127138624D01*
X123242515Y-127163435D01*
X123248650Y-127162963D01*
X123248652Y-127162963D01*
X123445299Y-127147832D01*
X123445303Y-127147831D01*
X123451441Y-127147359D01*
X123582533Y-127110757D01*
X123647321Y-127092668D01*
X123647325Y-127092667D01*
X123653265Y-127091008D01*
X123658769Y-127088228D01*
X123658771Y-127088227D01*
X123834800Y-126999309D01*
X123834802Y-126999308D01*
X123840301Y-126996530D01*
X124005424Y-126867522D01*
X124142344Y-126708898D01*
X124245846Y-126526701D01*
X124311989Y-126327870D01*
X124338251Y-126119979D01*
X124338670Y-126090000D01*
X124318222Y-125881456D01*
X124257657Y-125680856D01*
X124159283Y-125495840D01*
X124053758Y-125366453D01*
X124030740Y-125338230D01*
X124030737Y-125338227D01*
X124026845Y-125333455D01*
X123996159Y-125308069D01*
X123870139Y-125203816D01*
X123870135Y-125203814D01*
X123865389Y-125199887D01*
X123681064Y-125100223D01*
X123480891Y-125038259D01*
X123474766Y-125037615D01*
X123474765Y-125037615D01*
X123278624Y-125017000D01*
X123278623Y-125017000D01*
X123272496Y-125016356D01*
X123195482Y-125023365D01*
X123069953Y-125034789D01*
X123069950Y-125034790D01*
X123063814Y-125035348D01*
X123057908Y-125037086D01*
X123057904Y-125037087D01*
X122910946Y-125080340D01*
X122862796Y-125094511D01*
X122857339Y-125097364D01*
X122857336Y-125097365D01*
X122846265Y-125103153D01*
X122677098Y-125191591D01*
X122513792Y-125322892D01*
X122379100Y-125483412D01*
X122376136Y-125488804D01*
X122376133Y-125488808D01*
X122308666Y-125611531D01*
X122278152Y-125667036D01*
X122276291Y-125672903D01*
X122276290Y-125672905D01*
X122252742Y-125747137D01*
X122214792Y-125866771D01*
X122191435Y-126075009D01*
X119257200Y-126075009D01*
X119238222Y-125881456D01*
X119177657Y-125680856D01*
X119079283Y-125495840D01*
X118973758Y-125366453D01*
X118950740Y-125338230D01*
X118950737Y-125338227D01*
X118946845Y-125333455D01*
X118916159Y-125308069D01*
X118790139Y-125203816D01*
X118790135Y-125203814D01*
X118785389Y-125199887D01*
X118601064Y-125100223D01*
X118400891Y-125038259D01*
X118394766Y-125037615D01*
X118394765Y-125037615D01*
X118198624Y-125017000D01*
X118198623Y-125017000D01*
X118192496Y-125016356D01*
X118115482Y-125023365D01*
X117989953Y-125034789D01*
X117989950Y-125034790D01*
X117983814Y-125035348D01*
X117977908Y-125037086D01*
X117977904Y-125037087D01*
X117830946Y-125080340D01*
X117782796Y-125094511D01*
X117777339Y-125097364D01*
X117777336Y-125097365D01*
X117766265Y-125103153D01*
X117597098Y-125191591D01*
X117433792Y-125322892D01*
X117299100Y-125483412D01*
X117296136Y-125488804D01*
X117296133Y-125488808D01*
X117228666Y-125611531D01*
X117198152Y-125667036D01*
X117196291Y-125672903D01*
X117196290Y-125672905D01*
X117172742Y-125747137D01*
X117134792Y-125866771D01*
X117111435Y-126075009D01*
X111233000Y-126075009D01*
X111233000Y-125821406D01*
X111888423Y-125821406D01*
X111893704Y-125828461D01*
X112070080Y-125931527D01*
X112079363Y-125935974D01*
X112286003Y-126014883D01*
X112295901Y-126017759D01*
X112512653Y-126061857D01*
X112522883Y-126063076D01*
X112743914Y-126071182D01*
X112754223Y-126070714D01*
X112973623Y-126042608D01*
X112983688Y-126040468D01*
X113195557Y-125976905D01*
X113205152Y-125973144D01*
X113403778Y-125875838D01*
X113412636Y-125870559D01*
X113470097Y-125829572D01*
X113478497Y-125818874D01*
X113471510Y-125805721D01*
X112697811Y-125032021D01*
X112683868Y-125024408D01*
X112682034Y-125024539D01*
X112675420Y-125028790D01*
X111895180Y-125809031D01*
X111888423Y-125821406D01*
X111233000Y-125821406D01*
X111233000Y-125432202D01*
X111253002Y-125364081D01*
X111306658Y-125317588D01*
X111376932Y-125307484D01*
X111441512Y-125336978D01*
X111466433Y-125366368D01*
X111515097Y-125445781D01*
X111525553Y-125455242D01*
X111534331Y-125451458D01*
X112312979Y-124672811D01*
X112319356Y-124661132D01*
X113049408Y-124661132D01*
X113049539Y-124662966D01*
X113053790Y-124669580D01*
X113779595Y-125395384D01*
X113813620Y-125457697D01*
X113816500Y-125484480D01*
X113816500Y-125608134D01*
X113823255Y-125670316D01*
X113874385Y-125806705D01*
X113961739Y-125923261D01*
X114078295Y-126010615D01*
X114214684Y-126061745D01*
X114276866Y-126068500D01*
X116173134Y-126068500D01*
X116235316Y-126061745D01*
X116371705Y-126010615D01*
X116488261Y-125923261D01*
X116575615Y-125806705D01*
X116626745Y-125670316D01*
X116633500Y-125608134D01*
X116633500Y-124986695D01*
X125362251Y-124986695D01*
X125362548Y-124991848D01*
X125362548Y-124991851D01*
X125371841Y-125153023D01*
X125375110Y-125209715D01*
X125376247Y-125214761D01*
X125376248Y-125214767D01*
X125397275Y-125308069D01*
X125424222Y-125427639D01*
X125508266Y-125634616D01*
X125533269Y-125675417D01*
X125622063Y-125820316D01*
X125624987Y-125825088D01*
X125771250Y-125993938D01*
X125775230Y-125997242D01*
X125779981Y-126001187D01*
X125819616Y-126060090D01*
X125821113Y-126131071D01*
X125783997Y-126191593D01*
X125743725Y-126216112D01*
X125730428Y-126221097D01*
X125628295Y-126259385D01*
X125511739Y-126346739D01*
X125424385Y-126463295D01*
X125373255Y-126599684D01*
X125366500Y-126661866D01*
X125366500Y-128458134D01*
X125373255Y-128520316D01*
X125424385Y-128656705D01*
X125511739Y-128773261D01*
X125628295Y-128860615D01*
X125764684Y-128911745D01*
X125826866Y-128918500D01*
X127623134Y-128918500D01*
X127685316Y-128911745D01*
X127821705Y-128860615D01*
X127938261Y-128773261D01*
X128025615Y-128656705D01*
X128076745Y-128520316D01*
X128083500Y-128458134D01*
X128083500Y-126661866D01*
X128076745Y-126599684D01*
X128025615Y-126463295D01*
X127938261Y-126346739D01*
X127821705Y-126259385D01*
X127809132Y-126254672D01*
X127703203Y-126214960D01*
X127646439Y-126172318D01*
X127621739Y-126105756D01*
X127636947Y-126036408D01*
X127658493Y-126007727D01*
X127689697Y-125976632D01*
X127763096Y-125903489D01*
X127786759Y-125870559D01*
X127890435Y-125726277D01*
X127893453Y-125722077D01*
X127922918Y-125662460D01*
X127990136Y-125526453D01*
X127990137Y-125526451D01*
X127992430Y-125521811D01*
X128051433Y-125327611D01*
X128055865Y-125313023D01*
X128055865Y-125313021D01*
X128057370Y-125308069D01*
X128086529Y-125086590D01*
X128086611Y-125083240D01*
X128088074Y-125023365D01*
X128088074Y-125023361D01*
X128088156Y-125020000D01*
X128069852Y-124797361D01*
X128015431Y-124580702D01*
X127926354Y-124375840D01*
X127874439Y-124295592D01*
X127807822Y-124192617D01*
X127807820Y-124192614D01*
X127805014Y-124188277D01*
X127654670Y-124023051D01*
X127650619Y-124019852D01*
X127650615Y-124019848D01*
X127483414Y-123887800D01*
X127483410Y-123887798D01*
X127479359Y-123884598D01*
X127464507Y-123876399D01*
X127390454Y-123835520D01*
X127283789Y-123776638D01*
X127278920Y-123774914D01*
X127278916Y-123774912D01*
X127078087Y-123703795D01*
X127078083Y-123703794D01*
X127073212Y-123702069D01*
X127068119Y-123701162D01*
X127068116Y-123701161D01*
X126858373Y-123663800D01*
X126858367Y-123663799D01*
X126853284Y-123662894D01*
X126779452Y-123661992D01*
X126635081Y-123660228D01*
X126635079Y-123660228D01*
X126629911Y-123660165D01*
X126409091Y-123693955D01*
X126196756Y-123763357D01*
X126166443Y-123779137D01*
X126048307Y-123840635D01*
X125998607Y-123866507D01*
X125994474Y-123869610D01*
X125994471Y-123869612D01*
X125824100Y-123997530D01*
X125819965Y-124000635D01*
X125665629Y-124162138D01*
X125539743Y-124346680D01*
X125445688Y-124549305D01*
X125385989Y-124764570D01*
X125362251Y-124986695D01*
X116633500Y-124986695D01*
X116633500Y-123711866D01*
X116626745Y-123649684D01*
X116575615Y-123513295D01*
X116488261Y-123396739D01*
X116371705Y-123309385D01*
X116235316Y-123258255D01*
X116173134Y-123251500D01*
X114276866Y-123251500D01*
X114214684Y-123258255D01*
X114078295Y-123309385D01*
X113961739Y-123396739D01*
X113874385Y-123513295D01*
X113823255Y-123649684D01*
X113816500Y-123711866D01*
X113816500Y-123835520D01*
X113796498Y-123903641D01*
X113779595Y-123924616D01*
X113057021Y-124647189D01*
X113049408Y-124661132D01*
X112319356Y-124661132D01*
X112320592Y-124658868D01*
X112320461Y-124657034D01*
X112316210Y-124650420D01*
X111538862Y-123873073D01*
X111527330Y-123866776D01*
X111515048Y-123876399D01*
X111463088Y-123952569D01*
X111408176Y-123997571D01*
X111337652Y-124005742D01*
X111273905Y-123974488D01*
X111237175Y-123913730D01*
X111233000Y-123881564D01*
X111233000Y-123500711D01*
X111890508Y-123500711D01*
X111897251Y-123513040D01*
X112672189Y-124287979D01*
X112686132Y-124295592D01*
X112687966Y-124295461D01*
X112694580Y-124291210D01*
X113473994Y-123511795D01*
X113481011Y-123498944D01*
X113473237Y-123488274D01*
X113470902Y-123486430D01*
X113462320Y-123480729D01*
X113268678Y-123373833D01*
X113259272Y-123369606D01*
X113050772Y-123295772D01*
X113040809Y-123293140D01*
X112823047Y-123254350D01*
X112812796Y-123253381D01*
X112591616Y-123250679D01*
X112581332Y-123251399D01*
X112362693Y-123284855D01*
X112352666Y-123287244D01*
X112142426Y-123355961D01*
X112132916Y-123359958D01*
X111936725Y-123462089D01*
X111928007Y-123467578D01*
X111898961Y-123489386D01*
X111890508Y-123500711D01*
X111233000Y-123500711D01*
X111233000Y-122286695D01*
X134587251Y-122286695D01*
X134587548Y-122291848D01*
X134587548Y-122291851D01*
X134593011Y-122386590D01*
X134600110Y-122509715D01*
X134601247Y-122514761D01*
X134601248Y-122514767D01*
X134621119Y-122602939D01*
X134649222Y-122727639D01*
X134733266Y-122934616D01*
X134784019Y-123017438D01*
X134847291Y-123120688D01*
X134849987Y-123125088D01*
X134996250Y-123293938D01*
X135000230Y-123297242D01*
X135004981Y-123301187D01*
X135044616Y-123360090D01*
X135046113Y-123431071D01*
X135008997Y-123491593D01*
X134968725Y-123516112D01*
X134880095Y-123549338D01*
X134853295Y-123559385D01*
X134736739Y-123646739D01*
X134649385Y-123763295D01*
X134598255Y-123899684D01*
X134591500Y-123961866D01*
X134591500Y-125758134D01*
X134598255Y-125820316D01*
X134649385Y-125956705D01*
X134736739Y-126073261D01*
X134853295Y-126160615D01*
X134989684Y-126211745D01*
X135051866Y-126218500D01*
X136848134Y-126218500D01*
X136910316Y-126211745D01*
X137046705Y-126160615D01*
X137163261Y-126073261D01*
X137250615Y-125956705D01*
X137272799Y-125897529D01*
X137294598Y-125839382D01*
X137337240Y-125782618D01*
X137403802Y-125757918D01*
X137473150Y-125773126D01*
X137507817Y-125801114D01*
X137536250Y-125833938D01*
X137708126Y-125976632D01*
X137901000Y-126089338D01*
X137905825Y-126091180D01*
X137905826Y-126091181D01*
X137943994Y-126105756D01*
X138109692Y-126169030D01*
X138114760Y-126170061D01*
X138114763Y-126170062D01*
X138217166Y-126190896D01*
X138328597Y-126213567D01*
X138333772Y-126213757D01*
X138333774Y-126213757D01*
X138546673Y-126221564D01*
X138546677Y-126221564D01*
X138551837Y-126221753D01*
X138556957Y-126221097D01*
X138556959Y-126221097D01*
X138768288Y-126194025D01*
X138768289Y-126194025D01*
X138773416Y-126193368D01*
X138778366Y-126191883D01*
X138982429Y-126130661D01*
X138982434Y-126130659D01*
X138987384Y-126129174D01*
X139187994Y-126030896D01*
X139369860Y-125901173D01*
X139404383Y-125866771D01*
X139513616Y-125757918D01*
X139528096Y-125743489D01*
X139546816Y-125717438D01*
X139655435Y-125566277D01*
X139658453Y-125562077D01*
X139676060Y-125526453D01*
X139755136Y-125366453D01*
X139755137Y-125366451D01*
X139757430Y-125361811D01*
X139802106Y-125214767D01*
X139820865Y-125153023D01*
X139820865Y-125153021D01*
X139822370Y-125148069D01*
X139851529Y-124926590D01*
X139853156Y-124860000D01*
X139834852Y-124637361D01*
X139780431Y-124420702D01*
X139691354Y-124215840D01*
X139570014Y-124028277D01*
X139419670Y-123863051D01*
X139415619Y-123859852D01*
X139415615Y-123859848D01*
X139248414Y-123727800D01*
X139248410Y-123727798D01*
X139244359Y-123724598D01*
X139203053Y-123701796D01*
X139153084Y-123651364D01*
X139138312Y-123581921D01*
X139163428Y-123515516D01*
X139190780Y-123488909D01*
X139234603Y-123457650D01*
X139369860Y-123361173D01*
X139416425Y-123314771D01*
X139524435Y-123207137D01*
X139528096Y-123203489D01*
X139587594Y-123120689D01*
X139655435Y-123026277D01*
X139658453Y-123022077D01*
X139679320Y-122979857D01*
X139755136Y-122826453D01*
X139755137Y-122826451D01*
X139757430Y-122821811D01*
X139822370Y-122608069D01*
X139851529Y-122386590D01*
X139853156Y-122320000D01*
X139834852Y-122097361D01*
X139780431Y-121880702D01*
X139691354Y-121675840D01*
X139570014Y-121488277D01*
X139419670Y-121323051D01*
X139415619Y-121319852D01*
X139415615Y-121319848D01*
X139248414Y-121187800D01*
X139248410Y-121187798D01*
X139244359Y-121184598D01*
X139203053Y-121161796D01*
X139153084Y-121111364D01*
X139138312Y-121041921D01*
X139163428Y-120975516D01*
X139190780Y-120948909D01*
X139234603Y-120917650D01*
X139369860Y-120821173D01*
X139528096Y-120663489D01*
X139587594Y-120580689D01*
X139655435Y-120486277D01*
X139658453Y-120482077D01*
X139679320Y-120439857D01*
X139755136Y-120286453D01*
X139755137Y-120286451D01*
X139757430Y-120281811D01*
X139822370Y-120068069D01*
X139851529Y-119846590D01*
X139853156Y-119780000D01*
X139834852Y-119557361D01*
X139780431Y-119340702D01*
X139691354Y-119135840D01*
X139570014Y-118948277D01*
X139419670Y-118783051D01*
X139415619Y-118779852D01*
X139415615Y-118779848D01*
X139248414Y-118647800D01*
X139248410Y-118647798D01*
X139244359Y-118644598D01*
X139203053Y-118621796D01*
X139153084Y-118571364D01*
X139138312Y-118501921D01*
X139163428Y-118435516D01*
X139190780Y-118408909D01*
X139258486Y-118360615D01*
X139369860Y-118281173D01*
X139528096Y-118123489D01*
X139532214Y-118117759D01*
X139655435Y-117946277D01*
X139658453Y-117942077D01*
X139664634Y-117929572D01*
X139755136Y-117746453D01*
X139755137Y-117746451D01*
X139757430Y-117741811D01*
X139822370Y-117528069D01*
X139851529Y-117306590D01*
X139853156Y-117240000D01*
X139834852Y-117017361D01*
X139780431Y-116800702D01*
X139691354Y-116595840D01*
X139570014Y-116408277D01*
X139419670Y-116243051D01*
X139415619Y-116239852D01*
X139415615Y-116239848D01*
X139248414Y-116107800D01*
X139248410Y-116107798D01*
X139244359Y-116104598D01*
X139235458Y-116099684D01*
X139099471Y-116024616D01*
X139048789Y-115996638D01*
X139043920Y-115994914D01*
X139043916Y-115994912D01*
X138843087Y-115923795D01*
X138843083Y-115923794D01*
X138838212Y-115922069D01*
X138833119Y-115921162D01*
X138833116Y-115921161D01*
X138623373Y-115883800D01*
X138623367Y-115883799D01*
X138618284Y-115882894D01*
X138544452Y-115881992D01*
X138400081Y-115880228D01*
X138400079Y-115880228D01*
X138394911Y-115880165D01*
X138174091Y-115913955D01*
X137961756Y-115983357D01*
X137763607Y-116086507D01*
X137759474Y-116089610D01*
X137759471Y-116089612D01*
X137658687Y-116165283D01*
X137584965Y-116220635D01*
X137581393Y-116224373D01*
X137492378Y-116317522D01*
X137430629Y-116382138D01*
X137323201Y-116539621D01*
X137268293Y-116584621D01*
X137197768Y-116592792D01*
X137134021Y-116561538D01*
X137113324Y-116537054D01*
X137032822Y-116412617D01*
X137032820Y-116412614D01*
X137030014Y-116408277D01*
X136879670Y-116243051D01*
X136875619Y-116239852D01*
X136875615Y-116239848D01*
X136708414Y-116107800D01*
X136708410Y-116107798D01*
X136704359Y-116104598D01*
X136695458Y-116099684D01*
X136559471Y-116024616D01*
X136508789Y-115996638D01*
X136503920Y-115994914D01*
X136503916Y-115994912D01*
X136303087Y-115923795D01*
X136303083Y-115923794D01*
X136298212Y-115922069D01*
X136293119Y-115921162D01*
X136293116Y-115921161D01*
X136083373Y-115883800D01*
X136083367Y-115883799D01*
X136078284Y-115882894D01*
X136004452Y-115881992D01*
X135860081Y-115880228D01*
X135860079Y-115880228D01*
X135854911Y-115880165D01*
X135634091Y-115913955D01*
X135421756Y-115983357D01*
X135223607Y-116086507D01*
X135219474Y-116089610D01*
X135219471Y-116089612D01*
X135118687Y-116165283D01*
X135044965Y-116220635D01*
X135041393Y-116224373D01*
X134952378Y-116317522D01*
X134890629Y-116382138D01*
X134887720Y-116386403D01*
X134887714Y-116386411D01*
X134861629Y-116424650D01*
X134764743Y-116566680D01*
X134750283Y-116597832D01*
X134674482Y-116761132D01*
X134670688Y-116769305D01*
X134610989Y-116984570D01*
X134587251Y-117206695D01*
X134587548Y-117211848D01*
X134587548Y-117211851D01*
X134598828Y-117407484D01*
X134600110Y-117429715D01*
X134601247Y-117434761D01*
X134601248Y-117434767D01*
X134614909Y-117495384D01*
X134649222Y-117647639D01*
X134733266Y-117854616D01*
X134772643Y-117918874D01*
X134847291Y-118040688D01*
X134849987Y-118045088D01*
X134996250Y-118213938D01*
X135168126Y-118356632D01*
X135238595Y-118397811D01*
X135241445Y-118399476D01*
X135290169Y-118451114D01*
X135303240Y-118520897D01*
X135276509Y-118586669D01*
X135236055Y-118620027D01*
X135223607Y-118626507D01*
X135219474Y-118629610D01*
X135219471Y-118629612D01*
X135049100Y-118757530D01*
X135044965Y-118760635D01*
X135041393Y-118764373D01*
X134952378Y-118857522D01*
X134890629Y-118922138D01*
X134887720Y-118926403D01*
X134887714Y-118926411D01*
X134861629Y-118964650D01*
X134764743Y-119106680D01*
X134670688Y-119309305D01*
X134610989Y-119524570D01*
X134587251Y-119746695D01*
X134587548Y-119751848D01*
X134587548Y-119751851D01*
X134593011Y-119846590D01*
X134600110Y-119969715D01*
X134601247Y-119974761D01*
X134601248Y-119974767D01*
X134621119Y-120062939D01*
X134649222Y-120187639D01*
X134733266Y-120394616D01*
X134784019Y-120477438D01*
X134847291Y-120580688D01*
X134849987Y-120585088D01*
X134996250Y-120753938D01*
X135168126Y-120896632D01*
X135238595Y-120937811D01*
X135241445Y-120939476D01*
X135290169Y-120991114D01*
X135303240Y-121060897D01*
X135276509Y-121126669D01*
X135236055Y-121160027D01*
X135223607Y-121166507D01*
X135219474Y-121169610D01*
X135219471Y-121169612D01*
X135195247Y-121187800D01*
X135044965Y-121300635D01*
X134890629Y-121462138D01*
X134764743Y-121646680D01*
X134670688Y-121849305D01*
X134610989Y-122064570D01*
X134587251Y-122286695D01*
X111233000Y-122286695D01*
X111233000Y-117921406D01*
X111888423Y-117921406D01*
X111893704Y-117928461D01*
X112070080Y-118031527D01*
X112079363Y-118035974D01*
X112286003Y-118114883D01*
X112295901Y-118117759D01*
X112512653Y-118161857D01*
X112522883Y-118163076D01*
X112743914Y-118171182D01*
X112754223Y-118170714D01*
X112973623Y-118142608D01*
X112983688Y-118140468D01*
X113195557Y-118076905D01*
X113205152Y-118073144D01*
X113403778Y-117975838D01*
X113412636Y-117970559D01*
X113470097Y-117929572D01*
X113478497Y-117918874D01*
X113471510Y-117905721D01*
X112697811Y-117132021D01*
X112683868Y-117124408D01*
X112682034Y-117124539D01*
X112675420Y-117128790D01*
X111895180Y-117909031D01*
X111888423Y-117921406D01*
X111233000Y-117921406D01*
X111233000Y-117532202D01*
X111253002Y-117464081D01*
X111306658Y-117417588D01*
X111376932Y-117407484D01*
X111441512Y-117436978D01*
X111466433Y-117466368D01*
X111515097Y-117545781D01*
X111525553Y-117555242D01*
X111534331Y-117551458D01*
X112312979Y-116772811D01*
X112319356Y-116761132D01*
X113049408Y-116761132D01*
X113049539Y-116762966D01*
X113053790Y-116769580D01*
X113779595Y-117495384D01*
X113813620Y-117557697D01*
X113816500Y-117584480D01*
X113816500Y-117708134D01*
X113823255Y-117770316D01*
X113874385Y-117906705D01*
X113961739Y-118023261D01*
X114078295Y-118110615D01*
X114214684Y-118161745D01*
X114276866Y-118168500D01*
X116173134Y-118168500D01*
X116235316Y-118161745D01*
X116371705Y-118110615D01*
X116432557Y-118065009D01*
X119651435Y-118065009D01*
X119651951Y-118071153D01*
X119660351Y-118171182D01*
X119668969Y-118273818D01*
X119697848Y-118374531D01*
X119708764Y-118412598D01*
X119726727Y-118475244D01*
X119750789Y-118522064D01*
X119815409Y-118647800D01*
X119822509Y-118661616D01*
X119826334Y-118666442D01*
X119826336Y-118666445D01*
X119948837Y-118821004D01*
X119948841Y-118821009D01*
X119952666Y-118825834D01*
X120112242Y-118961643D01*
X120295157Y-119063871D01*
X120494445Y-119128624D01*
X120702515Y-119153435D01*
X120708650Y-119152963D01*
X120708652Y-119152963D01*
X120905299Y-119137832D01*
X120905303Y-119137831D01*
X120911441Y-119137359D01*
X121006363Y-119110856D01*
X121107321Y-119082668D01*
X121107325Y-119082667D01*
X121113265Y-119081008D01*
X121118769Y-119078228D01*
X121118771Y-119078227D01*
X121294800Y-118989309D01*
X121294802Y-118989308D01*
X121300301Y-118986530D01*
X121465424Y-118857522D01*
X121602344Y-118698898D01*
X121705846Y-118516701D01*
X121771989Y-118317870D01*
X121798251Y-118109979D01*
X121798670Y-118080000D01*
X121778222Y-117871456D01*
X121717657Y-117670856D01*
X121619283Y-117485840D01*
X121544812Y-117394530D01*
X121490740Y-117328230D01*
X121490737Y-117328227D01*
X121486845Y-117323455D01*
X121474077Y-117312892D01*
X121330139Y-117193816D01*
X121330135Y-117193814D01*
X121325389Y-117189887D01*
X121141064Y-117090223D01*
X120940891Y-117028259D01*
X120934766Y-117027615D01*
X120934765Y-117027615D01*
X120738624Y-117007000D01*
X120738623Y-117007000D01*
X120732496Y-117006356D01*
X120646138Y-117014215D01*
X120529953Y-117024789D01*
X120529950Y-117024790D01*
X120523814Y-117025348D01*
X120517908Y-117027086D01*
X120517904Y-117027087D01*
X120370946Y-117070340D01*
X120322796Y-117084511D01*
X120317339Y-117087364D01*
X120317336Y-117087365D01*
X120246229Y-117124539D01*
X120137098Y-117181591D01*
X119973792Y-117312892D01*
X119839100Y-117473412D01*
X119836136Y-117478804D01*
X119836133Y-117478808D01*
X119792764Y-117557697D01*
X119738152Y-117657036D01*
X119736291Y-117662903D01*
X119736290Y-117662905D01*
X119721943Y-117708134D01*
X119674792Y-117856771D01*
X119651435Y-118065009D01*
X116432557Y-118065009D01*
X116488261Y-118023261D01*
X116575615Y-117906705D01*
X116626745Y-117770316D01*
X116633500Y-117708134D01*
X116633500Y-115811866D01*
X116626745Y-115749684D01*
X116575615Y-115613295D01*
X116509448Y-115525009D01*
X117111435Y-115525009D01*
X117111951Y-115531153D01*
X117119555Y-115621703D01*
X117128969Y-115733818D01*
X117141601Y-115777870D01*
X117182689Y-115921161D01*
X117186727Y-115935244D01*
X117221878Y-116003641D01*
X117275409Y-116107800D01*
X117282509Y-116121616D01*
X117286334Y-116126442D01*
X117286336Y-116126445D01*
X117408837Y-116281004D01*
X117408841Y-116281009D01*
X117412666Y-116285834D01*
X117572242Y-116421643D01*
X117755157Y-116523871D01*
X117954445Y-116588624D01*
X118162515Y-116613435D01*
X118168650Y-116612963D01*
X118168652Y-116612963D01*
X118365299Y-116597832D01*
X118365303Y-116597831D01*
X118371441Y-116597359D01*
X118466363Y-116570856D01*
X118567321Y-116542668D01*
X118567325Y-116542667D01*
X118573265Y-116541008D01*
X118578769Y-116538228D01*
X118578771Y-116538227D01*
X118754800Y-116449309D01*
X118754802Y-116449308D01*
X118760301Y-116446530D01*
X118925424Y-116317522D01*
X119062344Y-116158898D01*
X119097183Y-116097571D01*
X119122747Y-116052569D01*
X119165846Y-115976701D01*
X119231989Y-115777870D01*
X119258251Y-115569979D01*
X119258670Y-115540000D01*
X119257200Y-115525009D01*
X122191435Y-115525009D01*
X122191951Y-115531153D01*
X122199555Y-115621703D01*
X122208969Y-115733818D01*
X122221601Y-115777870D01*
X122262689Y-115921161D01*
X122266727Y-115935244D01*
X122301878Y-116003641D01*
X122355409Y-116107800D01*
X122362509Y-116121616D01*
X122366334Y-116126442D01*
X122366336Y-116126445D01*
X122488837Y-116281004D01*
X122488841Y-116281009D01*
X122492666Y-116285834D01*
X122652242Y-116421643D01*
X122835157Y-116523871D01*
X123034445Y-116588624D01*
X123242515Y-116613435D01*
X123248650Y-116612963D01*
X123248652Y-116612963D01*
X123445299Y-116597832D01*
X123445303Y-116597831D01*
X123451441Y-116597359D01*
X123546363Y-116570856D01*
X123647321Y-116542668D01*
X123647325Y-116542667D01*
X123653265Y-116541008D01*
X123658769Y-116538228D01*
X123658771Y-116538227D01*
X123834800Y-116449309D01*
X123834802Y-116449308D01*
X123840301Y-116446530D01*
X124005424Y-116317522D01*
X124142344Y-116158898D01*
X124177183Y-116097571D01*
X124202747Y-116052569D01*
X124245846Y-115976701D01*
X124311989Y-115777870D01*
X124338251Y-115569979D01*
X124338670Y-115540000D01*
X124318222Y-115331456D01*
X124257657Y-115130856D01*
X124159283Y-114945840D01*
X124042736Y-114802939D01*
X124030740Y-114788230D01*
X124030737Y-114788227D01*
X124026845Y-114783455D01*
X124009412Y-114769033D01*
X123870139Y-114653816D01*
X123870135Y-114653814D01*
X123865389Y-114649887D01*
X123681064Y-114550223D01*
X123480891Y-114488259D01*
X123474766Y-114487615D01*
X123474765Y-114487615D01*
X123466012Y-114486695D01*
X125362251Y-114486695D01*
X125362548Y-114491848D01*
X125362548Y-114491851D01*
X125371182Y-114641591D01*
X125375110Y-114709715D01*
X125376247Y-114714761D01*
X125376248Y-114714767D01*
X125388478Y-114769033D01*
X125424222Y-114927639D01*
X125462461Y-115021811D01*
X125501128Y-115117036D01*
X125508266Y-115134616D01*
X125624987Y-115325088D01*
X125771250Y-115493938D01*
X125775230Y-115497242D01*
X125779981Y-115501187D01*
X125819616Y-115560090D01*
X125821113Y-115631071D01*
X125783997Y-115691593D01*
X125743725Y-115716112D01*
X125673909Y-115742285D01*
X125628295Y-115759385D01*
X125511739Y-115846739D01*
X125424385Y-115963295D01*
X125373255Y-116099684D01*
X125366500Y-116161866D01*
X125366500Y-117958134D01*
X125373255Y-118020316D01*
X125424385Y-118156705D01*
X125511739Y-118273261D01*
X125628295Y-118360615D01*
X125764684Y-118411745D01*
X125826866Y-118418500D01*
X127623134Y-118418500D01*
X127685316Y-118411745D01*
X127821705Y-118360615D01*
X127938261Y-118273261D01*
X128025615Y-118156705D01*
X128076745Y-118020316D01*
X128083500Y-117958134D01*
X128083500Y-116161866D01*
X128076745Y-116099684D01*
X128025615Y-115963295D01*
X127938261Y-115846739D01*
X127821705Y-115759385D01*
X127776091Y-115742285D01*
X127703203Y-115714960D01*
X127646439Y-115672318D01*
X127621739Y-115605756D01*
X127636947Y-115536408D01*
X127658493Y-115507727D01*
X127669015Y-115497242D01*
X127763096Y-115403489D01*
X127770533Y-115393140D01*
X127890435Y-115226277D01*
X127893453Y-115222077D01*
X127992430Y-115021811D01*
X128057370Y-114808069D01*
X128086529Y-114586590D01*
X128087462Y-114548401D01*
X128088074Y-114523365D01*
X128088074Y-114523361D01*
X128088156Y-114520000D01*
X128069852Y-114297361D01*
X128015431Y-114080702D01*
X127926354Y-113875840D01*
X127805014Y-113688277D01*
X127654670Y-113523051D01*
X127650619Y-113519852D01*
X127650615Y-113519848D01*
X127483414Y-113387800D01*
X127483410Y-113387798D01*
X127479359Y-113384598D01*
X127283789Y-113276638D01*
X127278920Y-113274914D01*
X127278916Y-113274912D01*
X127078087Y-113203795D01*
X127078083Y-113203794D01*
X127073212Y-113202069D01*
X127068119Y-113201162D01*
X127068116Y-113201161D01*
X126858373Y-113163800D01*
X126858367Y-113163799D01*
X126853284Y-113162894D01*
X126779452Y-113161992D01*
X126635081Y-113160228D01*
X126635079Y-113160228D01*
X126629911Y-113160165D01*
X126409091Y-113193955D01*
X126196756Y-113263357D01*
X125998607Y-113366507D01*
X125994474Y-113369610D01*
X125994471Y-113369612D01*
X125970247Y-113387800D01*
X125819965Y-113500635D01*
X125665629Y-113662138D01*
X125539743Y-113846680D01*
X125445688Y-114049305D01*
X125385989Y-114264570D01*
X125362251Y-114486695D01*
X123466012Y-114486695D01*
X123278624Y-114467000D01*
X123278623Y-114467000D01*
X123272496Y-114466356D01*
X123186138Y-114474215D01*
X123069953Y-114484789D01*
X123069950Y-114484790D01*
X123063814Y-114485348D01*
X123057908Y-114487086D01*
X123057904Y-114487087D01*
X122910946Y-114530340D01*
X122862796Y-114544511D01*
X122857339Y-114547364D01*
X122857336Y-114547365D01*
X122846265Y-114553153D01*
X122677098Y-114641591D01*
X122513792Y-114772892D01*
X122379100Y-114933412D01*
X122376136Y-114938804D01*
X122376133Y-114938808D01*
X122369276Y-114951281D01*
X122278152Y-115117036D01*
X122214792Y-115316771D01*
X122191435Y-115525009D01*
X119257200Y-115525009D01*
X119238222Y-115331456D01*
X119177657Y-115130856D01*
X119079283Y-114945840D01*
X118962736Y-114802939D01*
X118950740Y-114788230D01*
X118950737Y-114788227D01*
X118946845Y-114783455D01*
X118929412Y-114769033D01*
X118790139Y-114653816D01*
X118790135Y-114653814D01*
X118785389Y-114649887D01*
X118601064Y-114550223D01*
X118400891Y-114488259D01*
X118394766Y-114487615D01*
X118394765Y-114487615D01*
X118198624Y-114467000D01*
X118198623Y-114467000D01*
X118192496Y-114466356D01*
X118106138Y-114474215D01*
X117989953Y-114484789D01*
X117989950Y-114484790D01*
X117983814Y-114485348D01*
X117977908Y-114487086D01*
X117977904Y-114487087D01*
X117830946Y-114530340D01*
X117782796Y-114544511D01*
X117777339Y-114547364D01*
X117777336Y-114547365D01*
X117766265Y-114553153D01*
X117597098Y-114641591D01*
X117433792Y-114772892D01*
X117299100Y-114933412D01*
X117296136Y-114938804D01*
X117296133Y-114938808D01*
X117289276Y-114951281D01*
X117198152Y-115117036D01*
X117134792Y-115316771D01*
X117111435Y-115525009D01*
X116509448Y-115525009D01*
X116488261Y-115496739D01*
X116371705Y-115409385D01*
X116235316Y-115358255D01*
X116173134Y-115351500D01*
X114276866Y-115351500D01*
X114214684Y-115358255D01*
X114078295Y-115409385D01*
X113961739Y-115496739D01*
X113874385Y-115613295D01*
X113823255Y-115749684D01*
X113816500Y-115811866D01*
X113816500Y-115935520D01*
X113796498Y-116003641D01*
X113779595Y-116024616D01*
X113057021Y-116747189D01*
X113049408Y-116761132D01*
X112319356Y-116761132D01*
X112320592Y-116758868D01*
X112320461Y-116757034D01*
X112316210Y-116750420D01*
X111538862Y-115973073D01*
X111527330Y-115966776D01*
X111515048Y-115976399D01*
X111463088Y-116052569D01*
X111408176Y-116097571D01*
X111337652Y-116105742D01*
X111273905Y-116074488D01*
X111237175Y-116013730D01*
X111233000Y-115981564D01*
X111233000Y-115600711D01*
X111890508Y-115600711D01*
X111897251Y-115613040D01*
X112672189Y-116387979D01*
X112686132Y-116395592D01*
X112687966Y-116395461D01*
X112694580Y-116391210D01*
X113473994Y-115611795D01*
X113481011Y-115598944D01*
X113473237Y-115588274D01*
X113470902Y-115586430D01*
X113462320Y-115580729D01*
X113268678Y-115473833D01*
X113259272Y-115469606D01*
X113050772Y-115395772D01*
X113040809Y-115393140D01*
X112823047Y-115354350D01*
X112812796Y-115353381D01*
X112591616Y-115350679D01*
X112581332Y-115351399D01*
X112362693Y-115384855D01*
X112352666Y-115387244D01*
X112142426Y-115455961D01*
X112132916Y-115459958D01*
X111936725Y-115562089D01*
X111928007Y-115567578D01*
X111898961Y-115589386D01*
X111890508Y-115600711D01*
X111233000Y-115600711D01*
X111233000Y-105115009D01*
X119651435Y-105115009D01*
X119651951Y-105121153D01*
X119665176Y-105278642D01*
X119668969Y-105323818D01*
X119726727Y-105525244D01*
X119822509Y-105711616D01*
X119826334Y-105716442D01*
X119826336Y-105716445D01*
X119948837Y-105871004D01*
X119948841Y-105871009D01*
X119952666Y-105875834D01*
X120112242Y-106011643D01*
X120295157Y-106113871D01*
X120494445Y-106178624D01*
X120702515Y-106203435D01*
X120708650Y-106202963D01*
X120708652Y-106202963D01*
X120905299Y-106187832D01*
X120905303Y-106187831D01*
X120911441Y-106187359D01*
X121006363Y-106160856D01*
X121107321Y-106132668D01*
X121107325Y-106132667D01*
X121113265Y-106131008D01*
X121118769Y-106128228D01*
X121118771Y-106128227D01*
X121294800Y-106039309D01*
X121294802Y-106039308D01*
X121300301Y-106036530D01*
X121465424Y-105907522D01*
X121602344Y-105748898D01*
X121705846Y-105566701D01*
X121771989Y-105367870D01*
X121772906Y-105360615D01*
X121783261Y-105278642D01*
X121798251Y-105159979D01*
X121798670Y-105130000D01*
X121778222Y-104921456D01*
X121717657Y-104720856D01*
X121619283Y-104535840D01*
X121544812Y-104444530D01*
X121490740Y-104378230D01*
X121490737Y-104378227D01*
X121486845Y-104373455D01*
X121469412Y-104359033D01*
X121330139Y-104243816D01*
X121330135Y-104243814D01*
X121325389Y-104239887D01*
X121141064Y-104140223D01*
X120940891Y-104078259D01*
X120934766Y-104077615D01*
X120934765Y-104077615D01*
X120738624Y-104057000D01*
X120738623Y-104057000D01*
X120732496Y-104056356D01*
X120646138Y-104064215D01*
X120529953Y-104074789D01*
X120529950Y-104074790D01*
X120523814Y-104075348D01*
X120517908Y-104077086D01*
X120517904Y-104077087D01*
X120370946Y-104120340D01*
X120322796Y-104134511D01*
X120317339Y-104137364D01*
X120317336Y-104137365D01*
X120306265Y-104143153D01*
X120137098Y-104231591D01*
X119973792Y-104362892D01*
X119839100Y-104523412D01*
X119836136Y-104528804D01*
X119836133Y-104528808D01*
X119829276Y-104541281D01*
X119738152Y-104707036D01*
X119674792Y-104906771D01*
X119651435Y-105115009D01*
X111233000Y-105115009D01*
X111233000Y-102575009D01*
X117111435Y-102575009D01*
X117111951Y-102581153D01*
X117127370Y-102764771D01*
X117128969Y-102783818D01*
X117141601Y-102827870D01*
X117178373Y-102956109D01*
X117186727Y-102985244D01*
X117282509Y-103171616D01*
X117286334Y-103176442D01*
X117286336Y-103176445D01*
X117408837Y-103331004D01*
X117408841Y-103331009D01*
X117412666Y-103335834D01*
X117572242Y-103471643D01*
X117755157Y-103573871D01*
X117954445Y-103638624D01*
X118162515Y-103663435D01*
X118168650Y-103662963D01*
X118168652Y-103662963D01*
X118365299Y-103647832D01*
X118365303Y-103647831D01*
X118371441Y-103647359D01*
X118466363Y-103620856D01*
X118567321Y-103592668D01*
X118567325Y-103592667D01*
X118573265Y-103591008D01*
X118578769Y-103588228D01*
X118578771Y-103588227D01*
X118754800Y-103499309D01*
X118754802Y-103499308D01*
X118760301Y-103496530D01*
X118925424Y-103367522D01*
X119062344Y-103208898D01*
X119165846Y-103026701D01*
X119231989Y-102827870D01*
X119258251Y-102619979D01*
X119258670Y-102590000D01*
X119257200Y-102575009D01*
X122191435Y-102575009D01*
X122191951Y-102581153D01*
X122207370Y-102764771D01*
X122208969Y-102783818D01*
X122221601Y-102827870D01*
X122258373Y-102956109D01*
X122266727Y-102985244D01*
X122362509Y-103171616D01*
X122366334Y-103176442D01*
X122366336Y-103176445D01*
X122488837Y-103331004D01*
X122488841Y-103331009D01*
X122492666Y-103335834D01*
X122652242Y-103471643D01*
X122835157Y-103573871D01*
X123034445Y-103638624D01*
X123242515Y-103663435D01*
X123248650Y-103662963D01*
X123248652Y-103662963D01*
X123445299Y-103647832D01*
X123445303Y-103647831D01*
X123451441Y-103647359D01*
X123546363Y-103620856D01*
X123647321Y-103592668D01*
X123647325Y-103592667D01*
X123653265Y-103591008D01*
X123658769Y-103588228D01*
X123658771Y-103588227D01*
X123834800Y-103499309D01*
X123834802Y-103499308D01*
X123840301Y-103496530D01*
X124005424Y-103367522D01*
X124142344Y-103208898D01*
X124245846Y-103026701D01*
X124311989Y-102827870D01*
X124338251Y-102619979D01*
X124338670Y-102590000D01*
X124318222Y-102381456D01*
X124257657Y-102180856D01*
X124159283Y-101995840D01*
X124084812Y-101904530D01*
X124030740Y-101838230D01*
X124030737Y-101838227D01*
X124026845Y-101833455D01*
X123996159Y-101808069D01*
X123870139Y-101703816D01*
X123870135Y-101703814D01*
X123865389Y-101699887D01*
X123681064Y-101600223D01*
X123480891Y-101538259D01*
X123474766Y-101537615D01*
X123474765Y-101537615D01*
X123278624Y-101517000D01*
X123278623Y-101517000D01*
X123272496Y-101516356D01*
X123195482Y-101523365D01*
X123069953Y-101534789D01*
X123069950Y-101534790D01*
X123063814Y-101535348D01*
X123057908Y-101537086D01*
X123057904Y-101537087D01*
X122910946Y-101580340D01*
X122862796Y-101594511D01*
X122857339Y-101597364D01*
X122857336Y-101597365D01*
X122781564Y-101636978D01*
X122677098Y-101691591D01*
X122513792Y-101822892D01*
X122379100Y-101983412D01*
X122376136Y-101988804D01*
X122376133Y-101988808D01*
X122311860Y-102105721D01*
X122278152Y-102167036D01*
X122276291Y-102172903D01*
X122276290Y-102172905D01*
X122258609Y-102228642D01*
X122214792Y-102366771D01*
X122191435Y-102575009D01*
X119257200Y-102575009D01*
X119238222Y-102381456D01*
X119177657Y-102180856D01*
X119079283Y-101995840D01*
X119004812Y-101904530D01*
X118950740Y-101838230D01*
X118950737Y-101838227D01*
X118946845Y-101833455D01*
X118916159Y-101808069D01*
X118790139Y-101703816D01*
X118790135Y-101703814D01*
X118785389Y-101699887D01*
X118601064Y-101600223D01*
X118400891Y-101538259D01*
X118394766Y-101537615D01*
X118394765Y-101537615D01*
X118198624Y-101517000D01*
X118198623Y-101517000D01*
X118192496Y-101516356D01*
X118115482Y-101523365D01*
X117989953Y-101534789D01*
X117989950Y-101534790D01*
X117983814Y-101535348D01*
X117977908Y-101537086D01*
X117977904Y-101537087D01*
X117830946Y-101580340D01*
X117782796Y-101594511D01*
X117777339Y-101597364D01*
X117777336Y-101597365D01*
X117701564Y-101636978D01*
X117597098Y-101691591D01*
X117433792Y-101822892D01*
X117299100Y-101983412D01*
X117296136Y-101988804D01*
X117296133Y-101988808D01*
X117231860Y-102105721D01*
X117198152Y-102167036D01*
X117196291Y-102172903D01*
X117196290Y-102172905D01*
X117178609Y-102228642D01*
X117134792Y-102366771D01*
X117111435Y-102575009D01*
X111233000Y-102575009D01*
X111233000Y-102121406D01*
X111888423Y-102121406D01*
X111893704Y-102128461D01*
X112070080Y-102231527D01*
X112079363Y-102235974D01*
X112286003Y-102314883D01*
X112295901Y-102317759D01*
X112512653Y-102361857D01*
X112522883Y-102363076D01*
X112743914Y-102371182D01*
X112754223Y-102370714D01*
X112973623Y-102342608D01*
X112983688Y-102340468D01*
X113195557Y-102276905D01*
X113205152Y-102273144D01*
X113403778Y-102175838D01*
X113412636Y-102170559D01*
X113470097Y-102129572D01*
X113478497Y-102118874D01*
X113471510Y-102105721D01*
X112697811Y-101332021D01*
X112683868Y-101324408D01*
X112682034Y-101324539D01*
X112675420Y-101328790D01*
X111895180Y-102109031D01*
X111888423Y-102121406D01*
X111233000Y-102121406D01*
X111233000Y-101732202D01*
X111253002Y-101664081D01*
X111306658Y-101617588D01*
X111376932Y-101607484D01*
X111441512Y-101636978D01*
X111466433Y-101666368D01*
X111515097Y-101745781D01*
X111525553Y-101755242D01*
X111534331Y-101751458D01*
X112312979Y-100972811D01*
X112319356Y-100961132D01*
X113049408Y-100961132D01*
X113049539Y-100962966D01*
X113053790Y-100969580D01*
X113779595Y-101695384D01*
X113813620Y-101757697D01*
X113816500Y-101784480D01*
X113816500Y-101908134D01*
X113823255Y-101970316D01*
X113874385Y-102106705D01*
X113961739Y-102223261D01*
X114078295Y-102310615D01*
X114214684Y-102361745D01*
X114276866Y-102368500D01*
X116173134Y-102368500D01*
X116235316Y-102361745D01*
X116371705Y-102310615D01*
X116488261Y-102223261D01*
X116575615Y-102106705D01*
X116626745Y-101970316D01*
X116633500Y-101908134D01*
X116633500Y-101486695D01*
X125362251Y-101486695D01*
X125362548Y-101491848D01*
X125362548Y-101491851D01*
X125369798Y-101617588D01*
X125375110Y-101709715D01*
X125376247Y-101714761D01*
X125376248Y-101714767D01*
X125383238Y-101745781D01*
X125424222Y-101927639D01*
X125462461Y-102021811D01*
X125499851Y-102113891D01*
X125508266Y-102134616D01*
X125533269Y-102175417D01*
X125618050Y-102313767D01*
X125624987Y-102325088D01*
X125771250Y-102493938D01*
X125775230Y-102497242D01*
X125779981Y-102501187D01*
X125819616Y-102560090D01*
X125821113Y-102631071D01*
X125783997Y-102691593D01*
X125743724Y-102716112D01*
X125628295Y-102759385D01*
X125511739Y-102846739D01*
X125424385Y-102963295D01*
X125373255Y-103099684D01*
X125366500Y-103161866D01*
X125366500Y-104958134D01*
X125373255Y-105020316D01*
X125424385Y-105156705D01*
X125511739Y-105273261D01*
X125628295Y-105360615D01*
X125764684Y-105411745D01*
X125826866Y-105418500D01*
X127623134Y-105418500D01*
X127685316Y-105411745D01*
X127821705Y-105360615D01*
X127938261Y-105273261D01*
X128025615Y-105156705D01*
X128076745Y-105020316D01*
X128083500Y-104958134D01*
X128083500Y-103161866D01*
X128076745Y-103099684D01*
X128025615Y-102963295D01*
X127938261Y-102846739D01*
X127821705Y-102759385D01*
X127809132Y-102754672D01*
X127703203Y-102714960D01*
X127646439Y-102672318D01*
X127621739Y-102605756D01*
X127636947Y-102536408D01*
X127658493Y-102507727D01*
X127759435Y-102407137D01*
X127763096Y-102403489D01*
X127789481Y-102366771D01*
X127890435Y-102226277D01*
X127893453Y-102222077D01*
X127896417Y-102216081D01*
X127990136Y-102026453D01*
X127990137Y-102026451D01*
X127992430Y-102021811D01*
X128051433Y-101827611D01*
X128055865Y-101813023D01*
X128055865Y-101813021D01*
X128057370Y-101808069D01*
X128086529Y-101586590D01*
X128086611Y-101583240D01*
X128088074Y-101523365D01*
X128088074Y-101523361D01*
X128088156Y-101520000D01*
X128069852Y-101297361D01*
X128015431Y-101080702D01*
X127926354Y-100875840D01*
X127805014Y-100688277D01*
X127654670Y-100523051D01*
X127650619Y-100519852D01*
X127650615Y-100519848D01*
X127483414Y-100387800D01*
X127483410Y-100387798D01*
X127479359Y-100384598D01*
X127283789Y-100276638D01*
X127278920Y-100274914D01*
X127278916Y-100274912D01*
X127078087Y-100203795D01*
X127078083Y-100203794D01*
X127073212Y-100202069D01*
X127068119Y-100201162D01*
X127068116Y-100201161D01*
X126858373Y-100163800D01*
X126858367Y-100163799D01*
X126853284Y-100162894D01*
X126779452Y-100161992D01*
X126635081Y-100160228D01*
X126635079Y-100160228D01*
X126629911Y-100160165D01*
X126409091Y-100193955D01*
X126196756Y-100263357D01*
X125998607Y-100366507D01*
X125994474Y-100369610D01*
X125994471Y-100369612D01*
X125970247Y-100387800D01*
X125819965Y-100500635D01*
X125665629Y-100662138D01*
X125539743Y-100846680D01*
X125445688Y-101049305D01*
X125385989Y-101264570D01*
X125362251Y-101486695D01*
X116633500Y-101486695D01*
X116633500Y-100011866D01*
X116626745Y-99949684D01*
X116575615Y-99813295D01*
X116488261Y-99696739D01*
X116371705Y-99609385D01*
X116235316Y-99558255D01*
X116173134Y-99551500D01*
X114276866Y-99551500D01*
X114214684Y-99558255D01*
X114078295Y-99609385D01*
X113961739Y-99696739D01*
X113874385Y-99813295D01*
X113823255Y-99949684D01*
X113816500Y-100011866D01*
X113816500Y-100135520D01*
X113796498Y-100203641D01*
X113779595Y-100224616D01*
X113057021Y-100947189D01*
X113049408Y-100961132D01*
X112319356Y-100961132D01*
X112320592Y-100958868D01*
X112320461Y-100957034D01*
X112316210Y-100950420D01*
X111538862Y-100173073D01*
X111527330Y-100166776D01*
X111515048Y-100176399D01*
X111463088Y-100252569D01*
X111408176Y-100297571D01*
X111337652Y-100305742D01*
X111273905Y-100274488D01*
X111237175Y-100213730D01*
X111233000Y-100181564D01*
X111233000Y-99800711D01*
X111890508Y-99800711D01*
X111897251Y-99813040D01*
X112672189Y-100587979D01*
X112686132Y-100595592D01*
X112687966Y-100595461D01*
X112694580Y-100591210D01*
X113473994Y-99811795D01*
X113481011Y-99798944D01*
X113473237Y-99788274D01*
X113470902Y-99786430D01*
X113462320Y-99780729D01*
X113268678Y-99673833D01*
X113259272Y-99669606D01*
X113050772Y-99595772D01*
X113040809Y-99593140D01*
X112823047Y-99554350D01*
X112812796Y-99553381D01*
X112591616Y-99550679D01*
X112581332Y-99551399D01*
X112362693Y-99584855D01*
X112352666Y-99587244D01*
X112142426Y-99655961D01*
X112132916Y-99659958D01*
X111936725Y-99762089D01*
X111928007Y-99767578D01*
X111898961Y-99789386D01*
X111890508Y-99800711D01*
X111233000Y-99800711D01*
X111233000Y-97060000D01*
X131111526Y-97060000D01*
X131131391Y-97312403D01*
X131190495Y-97558591D01*
X131287384Y-97792502D01*
X131419672Y-98008376D01*
X131584102Y-98200898D01*
X131776624Y-98365328D01*
X131992498Y-98497616D01*
X131997068Y-98499509D01*
X131997072Y-98499511D01*
X132221836Y-98592611D01*
X132226409Y-98594505D01*
X132311032Y-98614821D01*
X132467784Y-98652454D01*
X132467790Y-98652455D01*
X132472597Y-98653609D01*
X132725000Y-98673474D01*
X132977403Y-98653609D01*
X132982210Y-98652455D01*
X132982216Y-98652454D01*
X133138968Y-98614821D01*
X133223591Y-98594505D01*
X133228164Y-98592611D01*
X133452928Y-98499511D01*
X133452932Y-98499509D01*
X133457502Y-98497616D01*
X133673376Y-98365328D01*
X133865898Y-98200898D01*
X134030328Y-98008376D01*
X134162616Y-97792502D01*
X134259505Y-97558591D01*
X134318609Y-97312403D01*
X134338474Y-97060000D01*
X134318609Y-96807597D01*
X134259505Y-96561409D01*
X134162616Y-96327498D01*
X134030328Y-96111624D01*
X133865898Y-95919102D01*
X133673376Y-95754672D01*
X133457502Y-95622384D01*
X133452932Y-95620491D01*
X133452928Y-95620489D01*
X133228164Y-95527389D01*
X133228162Y-95527388D01*
X133223591Y-95525495D01*
X133138968Y-95505179D01*
X132982216Y-95467546D01*
X132982210Y-95467545D01*
X132977403Y-95466391D01*
X132725000Y-95446526D01*
X132472597Y-95466391D01*
X132467790Y-95467545D01*
X132467784Y-95467546D01*
X132311032Y-95505179D01*
X132226409Y-95525495D01*
X132221838Y-95527388D01*
X132221836Y-95527389D01*
X131997072Y-95620489D01*
X131997068Y-95620491D01*
X131992498Y-95622384D01*
X131776624Y-95754672D01*
X131584102Y-95919102D01*
X131419672Y-96111624D01*
X131287384Y-96327498D01*
X131190495Y-96561409D01*
X131131391Y-96807597D01*
X131111526Y-97060000D01*
X111233000Y-97060000D01*
X111233000Y-94221406D01*
X111888423Y-94221406D01*
X111893704Y-94228461D01*
X112070080Y-94331527D01*
X112079363Y-94335974D01*
X112286003Y-94414883D01*
X112295901Y-94417759D01*
X112512653Y-94461857D01*
X112522883Y-94463076D01*
X112743914Y-94471182D01*
X112754223Y-94470714D01*
X112973623Y-94442608D01*
X112983688Y-94440468D01*
X113195557Y-94376905D01*
X113205152Y-94373144D01*
X113403778Y-94275838D01*
X113412636Y-94270559D01*
X113470097Y-94229572D01*
X113478497Y-94218874D01*
X113471510Y-94205721D01*
X112697811Y-93432021D01*
X112683868Y-93424408D01*
X112682034Y-93424539D01*
X112675420Y-93428790D01*
X111895180Y-94209031D01*
X111888423Y-94221406D01*
X111233000Y-94221406D01*
X111233000Y-93832202D01*
X111253002Y-93764081D01*
X111306658Y-93717588D01*
X111376932Y-93707484D01*
X111441512Y-93736978D01*
X111466433Y-93766368D01*
X111515097Y-93845781D01*
X111525553Y-93855242D01*
X111534331Y-93851458D01*
X112312979Y-93072811D01*
X112319356Y-93061132D01*
X113049408Y-93061132D01*
X113049539Y-93062966D01*
X113053790Y-93069580D01*
X113779595Y-93795384D01*
X113813620Y-93857697D01*
X113816500Y-93884480D01*
X113816500Y-94008134D01*
X113823255Y-94070316D01*
X113874385Y-94206705D01*
X113961739Y-94323261D01*
X114078295Y-94410615D01*
X114214684Y-94461745D01*
X114276866Y-94468500D01*
X116173134Y-94468500D01*
X116235316Y-94461745D01*
X116371705Y-94410615D01*
X116488261Y-94323261D01*
X116575615Y-94206705D01*
X116609990Y-94115009D01*
X119651435Y-94115009D01*
X119651951Y-94121153D01*
X119665176Y-94278642D01*
X119668969Y-94323818D01*
X119695906Y-94417759D01*
X119708901Y-94463076D01*
X119726727Y-94525244D01*
X119822509Y-94711616D01*
X119826334Y-94716442D01*
X119826336Y-94716445D01*
X119948837Y-94871004D01*
X119948841Y-94871009D01*
X119952666Y-94875834D01*
X120112242Y-95011643D01*
X120295157Y-95113871D01*
X120494445Y-95178624D01*
X120702515Y-95203435D01*
X120708650Y-95202963D01*
X120708652Y-95202963D01*
X120905299Y-95187832D01*
X120905303Y-95187831D01*
X120911441Y-95187359D01*
X121006363Y-95160856D01*
X121107321Y-95132668D01*
X121107325Y-95132667D01*
X121113265Y-95131008D01*
X121118769Y-95128228D01*
X121118771Y-95128227D01*
X121294800Y-95039309D01*
X121294802Y-95039308D01*
X121300301Y-95036530D01*
X121465424Y-94907522D01*
X121602344Y-94748898D01*
X121705846Y-94566701D01*
X121771989Y-94367870D01*
X121772906Y-94360615D01*
X121776806Y-94329742D01*
X121798251Y-94159979D01*
X121798670Y-94130000D01*
X121778222Y-93921456D01*
X121717657Y-93720856D01*
X121619283Y-93535840D01*
X121528401Y-93424408D01*
X121490740Y-93378230D01*
X121490737Y-93378227D01*
X121486845Y-93373455D01*
X121469412Y-93359033D01*
X121330139Y-93243816D01*
X121330135Y-93243814D01*
X121325389Y-93239887D01*
X121141064Y-93140223D01*
X120940891Y-93078259D01*
X120934766Y-93077615D01*
X120934765Y-93077615D01*
X120738624Y-93057000D01*
X120738623Y-93057000D01*
X120732496Y-93056356D01*
X120659866Y-93062966D01*
X120529953Y-93074789D01*
X120529950Y-93074790D01*
X120523814Y-93075348D01*
X120517908Y-93077086D01*
X120517904Y-93077087D01*
X120370946Y-93120340D01*
X120322796Y-93134511D01*
X120317339Y-93137364D01*
X120317336Y-93137365D01*
X120306265Y-93143153D01*
X120137098Y-93231591D01*
X119973792Y-93362892D01*
X119839100Y-93523412D01*
X119836136Y-93528804D01*
X119836133Y-93528808D01*
X119829276Y-93541281D01*
X119738152Y-93707036D01*
X119736291Y-93712903D01*
X119736290Y-93712905D01*
X119733768Y-93720856D01*
X119674792Y-93906771D01*
X119651435Y-94115009D01*
X116609990Y-94115009D01*
X116626745Y-94070316D01*
X116633500Y-94008134D01*
X116633500Y-92111866D01*
X116626745Y-92049684D01*
X116575615Y-91913295D01*
X116488261Y-91796739D01*
X116371705Y-91709385D01*
X116235316Y-91658255D01*
X116173134Y-91651500D01*
X114276866Y-91651500D01*
X114214684Y-91658255D01*
X114078295Y-91709385D01*
X113961739Y-91796739D01*
X113874385Y-91913295D01*
X113823255Y-92049684D01*
X113816500Y-92111866D01*
X113816500Y-92235520D01*
X113796498Y-92303641D01*
X113779595Y-92324616D01*
X113057021Y-93047189D01*
X113049408Y-93061132D01*
X112319356Y-93061132D01*
X112320592Y-93058868D01*
X112320461Y-93057034D01*
X112316210Y-93050420D01*
X111538862Y-92273073D01*
X111527330Y-92266776D01*
X111515048Y-92276399D01*
X111463088Y-92352569D01*
X111408176Y-92397571D01*
X111337652Y-92405742D01*
X111273905Y-92374488D01*
X111237175Y-92313730D01*
X111233000Y-92281564D01*
X111233000Y-91900711D01*
X111890508Y-91900711D01*
X111897251Y-91913040D01*
X112672189Y-92687979D01*
X112686132Y-92695592D01*
X112687966Y-92695461D01*
X112694580Y-92691210D01*
X113473994Y-91911795D01*
X113481011Y-91898944D01*
X113473237Y-91888274D01*
X113470902Y-91886430D01*
X113462320Y-91880729D01*
X113268678Y-91773833D01*
X113259272Y-91769606D01*
X113050772Y-91695772D01*
X113040809Y-91693140D01*
X112823047Y-91654350D01*
X112812796Y-91653381D01*
X112591616Y-91650679D01*
X112581332Y-91651399D01*
X112362693Y-91684855D01*
X112352666Y-91687244D01*
X112142426Y-91755961D01*
X112132916Y-91759958D01*
X111936725Y-91862089D01*
X111928007Y-91867578D01*
X111898961Y-91889386D01*
X111890508Y-91900711D01*
X111233000Y-91900711D01*
X111233000Y-91575009D01*
X117111435Y-91575009D01*
X117111951Y-91581153D01*
X117128131Y-91773833D01*
X117128969Y-91783818D01*
X117141601Y-91827870D01*
X117178373Y-91956109D01*
X117186727Y-91985244D01*
X117282509Y-92171616D01*
X117286334Y-92176442D01*
X117286336Y-92176445D01*
X117408837Y-92331004D01*
X117408841Y-92331009D01*
X117412666Y-92335834D01*
X117572242Y-92471643D01*
X117755157Y-92573871D01*
X117954445Y-92638624D01*
X118162515Y-92663435D01*
X118168650Y-92662963D01*
X118168652Y-92662963D01*
X118365299Y-92647832D01*
X118365303Y-92647831D01*
X118371441Y-92647359D01*
X118466363Y-92620856D01*
X118567321Y-92592668D01*
X118567325Y-92592667D01*
X118573265Y-92591008D01*
X118578769Y-92588228D01*
X118578771Y-92588227D01*
X118754800Y-92499309D01*
X118754802Y-92499308D01*
X118760301Y-92496530D01*
X118925424Y-92367522D01*
X119062344Y-92208898D01*
X119165846Y-92026701D01*
X119231989Y-91827870D01*
X119258251Y-91619979D01*
X119258670Y-91590000D01*
X119257200Y-91575009D01*
X122191435Y-91575009D01*
X122191951Y-91581153D01*
X122208131Y-91773833D01*
X122208969Y-91783818D01*
X122221601Y-91827870D01*
X122258373Y-91956109D01*
X122266727Y-91985244D01*
X122362509Y-92171616D01*
X122366334Y-92176442D01*
X122366336Y-92176445D01*
X122488837Y-92331004D01*
X122488841Y-92331009D01*
X122492666Y-92335834D01*
X122652242Y-92471643D01*
X122835157Y-92573871D01*
X123034445Y-92638624D01*
X123242515Y-92663435D01*
X123248650Y-92662963D01*
X123248652Y-92662963D01*
X123445299Y-92647832D01*
X123445303Y-92647831D01*
X123451441Y-92647359D01*
X123546363Y-92620856D01*
X123647321Y-92592668D01*
X123647325Y-92592667D01*
X123653265Y-92591008D01*
X123658769Y-92588228D01*
X123658771Y-92588227D01*
X123834800Y-92499309D01*
X123834802Y-92499308D01*
X123840301Y-92496530D01*
X124005424Y-92367522D01*
X124142344Y-92208898D01*
X124245846Y-92026701D01*
X124311989Y-91827870D01*
X124338251Y-91619979D01*
X124338670Y-91590000D01*
X124318222Y-91381456D01*
X124257657Y-91180856D01*
X124159283Y-90995840D01*
X124084812Y-90904530D01*
X124030740Y-90838230D01*
X124030737Y-90838227D01*
X124026845Y-90833455D01*
X123996159Y-90808069D01*
X123870139Y-90703816D01*
X123870135Y-90703814D01*
X123865389Y-90699887D01*
X123681064Y-90600223D01*
X123480891Y-90538259D01*
X123474766Y-90537615D01*
X123474765Y-90537615D01*
X123278624Y-90517000D01*
X123278623Y-90517000D01*
X123272496Y-90516356D01*
X123195482Y-90523365D01*
X123069953Y-90534789D01*
X123069950Y-90534790D01*
X123063814Y-90535348D01*
X123057908Y-90537086D01*
X123057904Y-90537087D01*
X122910946Y-90580340D01*
X122862796Y-90594511D01*
X122857339Y-90597364D01*
X122857336Y-90597365D01*
X122846265Y-90603153D01*
X122677098Y-90691591D01*
X122513792Y-90822892D01*
X122379100Y-90983412D01*
X122376136Y-90988804D01*
X122376133Y-90988808D01*
X122369276Y-91001281D01*
X122278152Y-91167036D01*
X122276291Y-91172903D01*
X122276290Y-91172905D01*
X122246472Y-91266903D01*
X122214792Y-91366771D01*
X122191435Y-91575009D01*
X119257200Y-91575009D01*
X119238222Y-91381456D01*
X119177657Y-91180856D01*
X119079283Y-90995840D01*
X119004812Y-90904530D01*
X118950740Y-90838230D01*
X118950737Y-90838227D01*
X118946845Y-90833455D01*
X118916159Y-90808069D01*
X118790139Y-90703816D01*
X118790135Y-90703814D01*
X118785389Y-90699887D01*
X118601064Y-90600223D01*
X118400891Y-90538259D01*
X118394766Y-90537615D01*
X118394765Y-90537615D01*
X118198624Y-90517000D01*
X118198623Y-90517000D01*
X118192496Y-90516356D01*
X118115482Y-90523365D01*
X117989953Y-90534789D01*
X117989950Y-90534790D01*
X117983814Y-90535348D01*
X117977908Y-90537086D01*
X117977904Y-90537087D01*
X117830946Y-90580340D01*
X117782796Y-90594511D01*
X117777339Y-90597364D01*
X117777336Y-90597365D01*
X117766265Y-90603153D01*
X117597098Y-90691591D01*
X117433792Y-90822892D01*
X117299100Y-90983412D01*
X117296136Y-90988804D01*
X117296133Y-90988808D01*
X117289276Y-91001281D01*
X117198152Y-91167036D01*
X117196291Y-91172903D01*
X117196290Y-91172905D01*
X117166472Y-91266903D01*
X117134792Y-91366771D01*
X117111435Y-91575009D01*
X111233000Y-91575009D01*
X111233000Y-90486695D01*
X125362251Y-90486695D01*
X125362548Y-90491848D01*
X125362548Y-90491851D01*
X125368632Y-90597365D01*
X125375110Y-90709715D01*
X125376247Y-90714761D01*
X125376248Y-90714767D01*
X125396119Y-90802939D01*
X125424222Y-90927639D01*
X125508266Y-91134616D01*
X125624987Y-91325088D01*
X125771250Y-91493938D01*
X125775230Y-91497242D01*
X125779981Y-91501187D01*
X125819616Y-91560090D01*
X125821113Y-91631071D01*
X125783997Y-91691593D01*
X125743724Y-91716112D01*
X125628295Y-91759385D01*
X125511739Y-91846739D01*
X125424385Y-91963295D01*
X125373255Y-92099684D01*
X125366500Y-92161866D01*
X125366500Y-93958134D01*
X125373255Y-94020316D01*
X125424385Y-94156705D01*
X125511739Y-94273261D01*
X125628295Y-94360615D01*
X125764684Y-94411745D01*
X125826866Y-94418500D01*
X127623134Y-94418500D01*
X127685316Y-94411745D01*
X127821705Y-94360615D01*
X127938261Y-94273261D01*
X128025615Y-94156705D01*
X128076745Y-94020316D01*
X128083500Y-93958134D01*
X128083500Y-92161866D01*
X128076745Y-92099684D01*
X128025615Y-91963295D01*
X127938261Y-91846739D01*
X127821705Y-91759385D01*
X127809132Y-91754672D01*
X127703203Y-91714960D01*
X127646439Y-91672318D01*
X127621739Y-91605756D01*
X127636947Y-91536408D01*
X127658493Y-91507727D01*
X127759435Y-91407137D01*
X127763096Y-91403489D01*
X127789481Y-91366771D01*
X127890435Y-91226277D01*
X127893453Y-91222077D01*
X127992430Y-91021811D01*
X128051433Y-90827611D01*
X128055865Y-90813023D01*
X128055865Y-90813021D01*
X128057370Y-90808069D01*
X128086529Y-90586590D01*
X128086611Y-90583240D01*
X128088074Y-90523365D01*
X128088074Y-90523361D01*
X128088156Y-90520000D01*
X128069852Y-90297361D01*
X128015431Y-90080702D01*
X127926354Y-89875840D01*
X127805014Y-89688277D01*
X127654670Y-89523051D01*
X127650619Y-89519852D01*
X127650615Y-89519848D01*
X127483414Y-89387800D01*
X127483410Y-89387798D01*
X127479359Y-89384598D01*
X127283789Y-89276638D01*
X127278920Y-89274914D01*
X127278916Y-89274912D01*
X127078087Y-89203795D01*
X127078083Y-89203794D01*
X127073212Y-89202069D01*
X127068119Y-89201162D01*
X127068116Y-89201161D01*
X126858373Y-89163800D01*
X126858367Y-89163799D01*
X126853284Y-89162894D01*
X126779452Y-89161992D01*
X126635081Y-89160228D01*
X126635079Y-89160228D01*
X126629911Y-89160165D01*
X126409091Y-89193955D01*
X126196756Y-89263357D01*
X125998607Y-89366507D01*
X125994474Y-89369610D01*
X125994471Y-89369612D01*
X125970247Y-89387800D01*
X125819965Y-89500635D01*
X125665629Y-89662138D01*
X125539743Y-89846680D01*
X125445688Y-90049305D01*
X125385989Y-90264570D01*
X125362251Y-90486695D01*
X111233000Y-90486695D01*
X111233000Y-81195009D01*
X119651435Y-81195009D01*
X119668969Y-81403818D01*
X119726727Y-81605244D01*
X119822509Y-81791616D01*
X119826334Y-81796442D01*
X119826336Y-81796445D01*
X119948837Y-81951004D01*
X119948841Y-81951009D01*
X119952666Y-81955834D01*
X120112242Y-82091643D01*
X120295157Y-82193871D01*
X120494445Y-82258624D01*
X120702515Y-82283435D01*
X120708650Y-82282963D01*
X120708652Y-82282963D01*
X120905299Y-82267832D01*
X120905303Y-82267831D01*
X120911441Y-82267359D01*
X121006363Y-82240856D01*
X121107321Y-82212668D01*
X121107325Y-82212667D01*
X121113265Y-82211008D01*
X121118769Y-82208228D01*
X121118771Y-82208227D01*
X121294800Y-82119309D01*
X121294802Y-82119308D01*
X121300301Y-82116530D01*
X121465424Y-81987522D01*
X121602344Y-81828898D01*
X121705846Y-81646701D01*
X121771989Y-81447870D01*
X121798251Y-81239979D01*
X121798670Y-81210000D01*
X121778222Y-81001456D01*
X121717657Y-80800856D01*
X121619283Y-80615840D01*
X121544812Y-80524530D01*
X121490740Y-80458230D01*
X121490737Y-80458227D01*
X121486845Y-80453455D01*
X121469412Y-80439033D01*
X121330139Y-80323816D01*
X121330135Y-80323814D01*
X121325389Y-80319887D01*
X121141064Y-80220223D01*
X120940891Y-80158259D01*
X120934766Y-80157615D01*
X120934765Y-80157615D01*
X120738624Y-80137000D01*
X120738623Y-80137000D01*
X120732496Y-80136356D01*
X120646138Y-80144215D01*
X120529953Y-80154789D01*
X120529950Y-80154790D01*
X120523814Y-80155348D01*
X120517908Y-80157086D01*
X120517904Y-80157087D01*
X120370946Y-80200340D01*
X120322796Y-80214511D01*
X120317339Y-80217364D01*
X120317336Y-80217365D01*
X120306265Y-80223153D01*
X120137098Y-80311591D01*
X119973792Y-80442892D01*
X119839100Y-80603412D01*
X119836136Y-80608804D01*
X119836133Y-80608808D01*
X119829276Y-80621281D01*
X119738152Y-80787036D01*
X119674792Y-80986771D01*
X119651435Y-81195009D01*
X111233000Y-81195009D01*
X111233000Y-78421406D01*
X111888423Y-78421406D01*
X111893704Y-78428461D01*
X112070080Y-78531527D01*
X112079363Y-78535974D01*
X112286003Y-78614883D01*
X112295901Y-78617759D01*
X112512653Y-78661857D01*
X112522883Y-78663076D01*
X112743914Y-78671182D01*
X112754223Y-78670714D01*
X112973623Y-78642608D01*
X112983688Y-78640468D01*
X113195557Y-78576905D01*
X113205152Y-78573144D01*
X113403778Y-78475838D01*
X113412636Y-78470559D01*
X113470097Y-78429572D01*
X113478497Y-78418874D01*
X113471510Y-78405721D01*
X112697811Y-77632021D01*
X112683868Y-77624408D01*
X112682034Y-77624539D01*
X112675420Y-77628790D01*
X111895180Y-78409031D01*
X111888423Y-78421406D01*
X111233000Y-78421406D01*
X111233000Y-78032202D01*
X111253002Y-77964081D01*
X111306658Y-77917588D01*
X111376932Y-77907484D01*
X111441512Y-77936978D01*
X111466433Y-77966368D01*
X111515097Y-78045781D01*
X111525553Y-78055242D01*
X111534331Y-78051458D01*
X112312979Y-77272811D01*
X112319356Y-77261132D01*
X113049408Y-77261132D01*
X113049539Y-77262966D01*
X113053790Y-77269580D01*
X113779595Y-77995384D01*
X113813620Y-78057697D01*
X113816500Y-78084480D01*
X113816500Y-78208134D01*
X113823255Y-78270316D01*
X113874385Y-78406705D01*
X113961739Y-78523261D01*
X114078295Y-78610615D01*
X114214684Y-78661745D01*
X114276866Y-78668500D01*
X116173134Y-78668500D01*
X116235316Y-78661745D01*
X116253284Y-78655009D01*
X117111435Y-78655009D01*
X117114507Y-78691593D01*
X117128138Y-78853919D01*
X117128969Y-78863818D01*
X117186727Y-79065244D01*
X117282509Y-79251616D01*
X117286334Y-79256442D01*
X117286336Y-79256445D01*
X117408837Y-79411004D01*
X117408841Y-79411009D01*
X117412666Y-79415834D01*
X117572242Y-79551643D01*
X117755157Y-79653871D01*
X117954445Y-79718624D01*
X118162515Y-79743435D01*
X118168650Y-79742963D01*
X118168652Y-79742963D01*
X118365299Y-79727832D01*
X118365303Y-79727831D01*
X118371441Y-79727359D01*
X118466363Y-79700856D01*
X118567321Y-79672668D01*
X118567325Y-79672667D01*
X118573265Y-79671008D01*
X118578769Y-79668228D01*
X118578771Y-79668227D01*
X118754800Y-79579309D01*
X118754802Y-79579308D01*
X118760301Y-79576530D01*
X118925424Y-79447522D01*
X119062344Y-79288898D01*
X119165846Y-79106701D01*
X119231989Y-78907870D01*
X119258251Y-78699979D01*
X119258670Y-78670000D01*
X119257200Y-78655009D01*
X122191435Y-78655009D01*
X122194507Y-78691593D01*
X122208138Y-78853919D01*
X122208969Y-78863818D01*
X122266727Y-79065244D01*
X122362509Y-79251616D01*
X122366334Y-79256442D01*
X122366336Y-79256445D01*
X122488837Y-79411004D01*
X122488841Y-79411009D01*
X122492666Y-79415834D01*
X122652242Y-79551643D01*
X122835157Y-79653871D01*
X123034445Y-79718624D01*
X123242515Y-79743435D01*
X123248650Y-79742963D01*
X123248652Y-79742963D01*
X123445299Y-79727832D01*
X123445303Y-79727831D01*
X123451441Y-79727359D01*
X123546363Y-79700856D01*
X123647321Y-79672668D01*
X123647325Y-79672667D01*
X123653265Y-79671008D01*
X123658769Y-79668228D01*
X123658771Y-79668227D01*
X123834800Y-79579309D01*
X123834802Y-79579308D01*
X123840301Y-79576530D01*
X124005424Y-79447522D01*
X124142344Y-79288898D01*
X124245846Y-79106701D01*
X124311989Y-78907870D01*
X124338251Y-78699979D01*
X124338670Y-78670000D01*
X124318222Y-78461456D01*
X124257657Y-78260856D01*
X124159283Y-78075840D01*
X124042317Y-77932425D01*
X124030740Y-77918230D01*
X124030737Y-77918227D01*
X124026845Y-77913455D01*
X124019781Y-77907611D01*
X123870139Y-77783816D01*
X123870135Y-77783814D01*
X123865389Y-77779887D01*
X123681064Y-77680223D01*
X123480891Y-77618259D01*
X123474766Y-77617615D01*
X123474765Y-77617615D01*
X123278624Y-77597000D01*
X123278623Y-77597000D01*
X123272496Y-77596356D01*
X123186138Y-77604215D01*
X123069953Y-77614789D01*
X123069950Y-77614790D01*
X123063814Y-77615348D01*
X123057908Y-77617086D01*
X123057904Y-77617087D01*
X122910946Y-77660340D01*
X122862796Y-77674511D01*
X122857339Y-77677364D01*
X122857336Y-77677365D01*
X122785793Y-77714767D01*
X122677098Y-77771591D01*
X122513792Y-77902892D01*
X122379100Y-78063412D01*
X122376136Y-78068804D01*
X122376133Y-78068808D01*
X122297671Y-78211531D01*
X122278152Y-78247036D01*
X122276291Y-78252903D01*
X122276290Y-78252905D01*
X122251824Y-78330032D01*
X122214792Y-78446771D01*
X122191435Y-78655009D01*
X119257200Y-78655009D01*
X119238222Y-78461456D01*
X119177657Y-78260856D01*
X119079283Y-78075840D01*
X118962317Y-77932425D01*
X118950740Y-77918230D01*
X118950737Y-77918227D01*
X118946845Y-77913455D01*
X118939781Y-77907611D01*
X118790139Y-77783816D01*
X118790135Y-77783814D01*
X118785389Y-77779887D01*
X118601064Y-77680223D01*
X118400891Y-77618259D01*
X118394766Y-77617615D01*
X118394765Y-77617615D01*
X118198624Y-77597000D01*
X118198623Y-77597000D01*
X118192496Y-77596356D01*
X118106138Y-77604215D01*
X117989953Y-77614789D01*
X117989950Y-77614790D01*
X117983814Y-77615348D01*
X117977908Y-77617086D01*
X117977904Y-77617087D01*
X117830946Y-77660340D01*
X117782796Y-77674511D01*
X117777339Y-77677364D01*
X117777336Y-77677365D01*
X117705793Y-77714767D01*
X117597098Y-77771591D01*
X117433792Y-77902892D01*
X117299100Y-78063412D01*
X117296136Y-78068804D01*
X117296133Y-78068808D01*
X117217671Y-78211531D01*
X117198152Y-78247036D01*
X117196291Y-78252903D01*
X117196290Y-78252905D01*
X117171824Y-78330032D01*
X117134792Y-78446771D01*
X117111435Y-78655009D01*
X116253284Y-78655009D01*
X116371705Y-78610615D01*
X116488261Y-78523261D01*
X116575615Y-78406705D01*
X116626745Y-78270316D01*
X116633500Y-78208134D01*
X116633500Y-77486695D01*
X125362251Y-77486695D01*
X125362548Y-77491848D01*
X125362548Y-77491851D01*
X125373578Y-77683153D01*
X125375110Y-77709715D01*
X125376247Y-77714761D01*
X125376248Y-77714767D01*
X125396119Y-77802939D01*
X125424222Y-77927639D01*
X125508266Y-78134616D01*
X125510965Y-78139020D01*
X125622063Y-78320316D01*
X125624987Y-78325088D01*
X125771250Y-78493938D01*
X125775230Y-78497242D01*
X125779981Y-78501187D01*
X125819616Y-78560090D01*
X125821113Y-78631071D01*
X125783997Y-78691593D01*
X125743725Y-78716112D01*
X125730428Y-78721097D01*
X125628295Y-78759385D01*
X125511739Y-78846739D01*
X125424385Y-78963295D01*
X125373255Y-79099684D01*
X125366500Y-79161866D01*
X125366500Y-80958134D01*
X125373255Y-81020316D01*
X125424385Y-81156705D01*
X125511739Y-81273261D01*
X125628295Y-81360615D01*
X125764684Y-81411745D01*
X125826866Y-81418500D01*
X127623134Y-81418500D01*
X127685316Y-81411745D01*
X127821705Y-81360615D01*
X127938261Y-81273261D01*
X128025615Y-81156705D01*
X128076745Y-81020316D01*
X128083500Y-80958134D01*
X128083500Y-79161866D01*
X128076745Y-79099684D01*
X128025615Y-78963295D01*
X127938261Y-78846739D01*
X127821705Y-78759385D01*
X127809132Y-78754672D01*
X127703203Y-78714960D01*
X127646439Y-78672318D01*
X127621739Y-78605756D01*
X127636947Y-78536408D01*
X127658493Y-78507727D01*
X127690494Y-78475838D01*
X127763096Y-78403489D01*
X127810701Y-78337240D01*
X127890435Y-78226277D01*
X127893453Y-78222077D01*
X127963039Y-78081281D01*
X127990136Y-78026453D01*
X127990137Y-78026451D01*
X127992430Y-78021811D01*
X128057370Y-77808069D01*
X128086529Y-77586590D01*
X128088156Y-77520000D01*
X128069852Y-77297361D01*
X128015431Y-77080702D01*
X127926354Y-76875840D01*
X127825918Y-76720590D01*
X127807822Y-76692617D01*
X127807820Y-76692614D01*
X127805014Y-76688277D01*
X127654670Y-76523051D01*
X127650619Y-76519852D01*
X127650615Y-76519848D01*
X127483414Y-76387800D01*
X127483410Y-76387798D01*
X127479359Y-76384598D01*
X127283789Y-76276638D01*
X127278920Y-76274914D01*
X127278916Y-76274912D01*
X127078087Y-76203795D01*
X127078083Y-76203794D01*
X127073212Y-76202069D01*
X127068119Y-76201162D01*
X127068116Y-76201161D01*
X126858373Y-76163800D01*
X126858367Y-76163799D01*
X126853284Y-76162894D01*
X126779452Y-76161992D01*
X126635081Y-76160228D01*
X126635079Y-76160228D01*
X126629911Y-76160165D01*
X126409091Y-76193955D01*
X126196756Y-76263357D01*
X126166443Y-76279137D01*
X126048307Y-76340635D01*
X125998607Y-76366507D01*
X125994474Y-76369610D01*
X125994471Y-76369612D01*
X125865061Y-76466776D01*
X125819965Y-76500635D01*
X125665629Y-76662138D01*
X125539743Y-76846680D01*
X125445688Y-77049305D01*
X125385989Y-77264570D01*
X125362251Y-77486695D01*
X116633500Y-77486695D01*
X116633500Y-76311866D01*
X116626745Y-76249684D01*
X116575615Y-76113295D01*
X116488261Y-75996739D01*
X116371705Y-75909385D01*
X116235316Y-75858255D01*
X116173134Y-75851500D01*
X114276866Y-75851500D01*
X114214684Y-75858255D01*
X114078295Y-75909385D01*
X113961739Y-75996739D01*
X113874385Y-76113295D01*
X113823255Y-76249684D01*
X113816500Y-76311866D01*
X113816500Y-76435520D01*
X113796498Y-76503641D01*
X113779595Y-76524616D01*
X113057021Y-77247189D01*
X113049408Y-77261132D01*
X112319356Y-77261132D01*
X112320592Y-77258868D01*
X112320461Y-77257034D01*
X112316210Y-77250420D01*
X111538862Y-76473073D01*
X111527330Y-76466776D01*
X111515048Y-76476399D01*
X111463088Y-76552569D01*
X111408176Y-76597571D01*
X111337652Y-76605742D01*
X111273905Y-76574488D01*
X111237175Y-76513730D01*
X111233000Y-76481564D01*
X111233000Y-76100711D01*
X111890508Y-76100711D01*
X111897251Y-76113040D01*
X112672189Y-76887979D01*
X112686132Y-76895592D01*
X112687966Y-76895461D01*
X112694580Y-76891210D01*
X113473994Y-76111795D01*
X113481011Y-76098944D01*
X113473237Y-76088274D01*
X113470902Y-76086430D01*
X113462320Y-76080729D01*
X113268678Y-75973833D01*
X113259272Y-75969606D01*
X113050772Y-75895772D01*
X113040809Y-75893140D01*
X112823047Y-75854350D01*
X112812796Y-75853381D01*
X112591616Y-75850679D01*
X112581332Y-75851399D01*
X112362693Y-75884855D01*
X112352666Y-75887244D01*
X112142426Y-75955961D01*
X112132916Y-75959958D01*
X111936725Y-76062089D01*
X111928007Y-76067578D01*
X111898961Y-76089386D01*
X111890508Y-76100711D01*
X111233000Y-76100711D01*
X111233000Y-74786695D01*
X134587251Y-74786695D01*
X134587548Y-74791848D01*
X134587548Y-74791851D01*
X134593011Y-74886590D01*
X134600110Y-75009715D01*
X134601247Y-75014761D01*
X134601248Y-75014767D01*
X134621119Y-75102939D01*
X134649222Y-75227639D01*
X134733266Y-75434616D01*
X134784019Y-75517438D01*
X134847291Y-75620688D01*
X134849987Y-75625088D01*
X134996250Y-75793938D01*
X135000230Y-75797242D01*
X135004981Y-75801187D01*
X135044616Y-75860090D01*
X135046113Y-75931071D01*
X135008997Y-75991593D01*
X134968725Y-76016112D01*
X134880095Y-76049338D01*
X134853295Y-76059385D01*
X134736739Y-76146739D01*
X134649385Y-76263295D01*
X134598255Y-76399684D01*
X134591500Y-76461866D01*
X134591500Y-78258134D01*
X134598255Y-78320316D01*
X134649385Y-78456705D01*
X134736739Y-78573261D01*
X134853295Y-78660615D01*
X134989684Y-78711745D01*
X135051866Y-78718500D01*
X136848134Y-78718500D01*
X136910316Y-78711745D01*
X137046705Y-78660615D01*
X137163261Y-78573261D01*
X137250615Y-78456705D01*
X137272799Y-78397529D01*
X137294598Y-78339382D01*
X137337240Y-78282618D01*
X137403802Y-78257918D01*
X137473150Y-78273126D01*
X137507817Y-78301114D01*
X137536250Y-78333938D01*
X137708126Y-78476632D01*
X137901000Y-78589338D01*
X137905825Y-78591180D01*
X137905826Y-78591181D01*
X137975427Y-78617759D01*
X138109692Y-78669030D01*
X138114760Y-78670061D01*
X138114763Y-78670062D01*
X138217166Y-78690896D01*
X138328597Y-78713567D01*
X138333772Y-78713757D01*
X138333774Y-78713757D01*
X138546673Y-78721564D01*
X138546677Y-78721564D01*
X138551837Y-78721753D01*
X138556957Y-78721097D01*
X138556959Y-78721097D01*
X138768288Y-78694025D01*
X138768289Y-78694025D01*
X138773416Y-78693368D01*
X138778366Y-78691883D01*
X138982429Y-78630661D01*
X138982434Y-78630659D01*
X138987384Y-78629174D01*
X139187994Y-78530896D01*
X139369860Y-78401173D01*
X139528096Y-78243489D01*
X139546816Y-78217438D01*
X139655435Y-78066277D01*
X139658453Y-78062077D01*
X139676060Y-78026453D01*
X139755136Y-77866453D01*
X139755137Y-77866451D01*
X139757430Y-77861811D01*
X139802106Y-77714767D01*
X139820865Y-77653023D01*
X139820865Y-77653021D01*
X139822370Y-77648069D01*
X139851529Y-77426590D01*
X139853156Y-77360000D01*
X139834852Y-77137361D01*
X139780431Y-76920702D01*
X139691354Y-76715840D01*
X139651906Y-76654862D01*
X139572822Y-76532617D01*
X139572820Y-76532614D01*
X139570014Y-76528277D01*
X139419670Y-76363051D01*
X139415619Y-76359852D01*
X139415615Y-76359848D01*
X139248414Y-76227800D01*
X139248410Y-76227798D01*
X139244359Y-76224598D01*
X139203053Y-76201796D01*
X139153084Y-76151364D01*
X139138312Y-76081921D01*
X139163428Y-76015516D01*
X139190780Y-75988909D01*
X139236971Y-75955961D01*
X139369860Y-75861173D01*
X139377680Y-75853381D01*
X139524435Y-75707137D01*
X139528096Y-75703489D01*
X139587594Y-75620689D01*
X139655435Y-75526277D01*
X139658453Y-75522077D01*
X139679320Y-75479857D01*
X139755136Y-75326453D01*
X139755137Y-75326451D01*
X139757430Y-75321811D01*
X139822370Y-75108069D01*
X139851529Y-74886590D01*
X139853156Y-74820000D01*
X139834852Y-74597361D01*
X139780431Y-74380702D01*
X139691354Y-74175840D01*
X139570014Y-73988277D01*
X139419670Y-73823051D01*
X139415619Y-73819852D01*
X139415615Y-73819848D01*
X139248414Y-73687800D01*
X139248410Y-73687798D01*
X139244359Y-73684598D01*
X139203053Y-73661796D01*
X139153084Y-73611364D01*
X139138312Y-73541921D01*
X139163428Y-73475516D01*
X139190780Y-73448909D01*
X139234603Y-73417650D01*
X139369860Y-73321173D01*
X139528096Y-73163489D01*
X139587594Y-73080689D01*
X139655435Y-72986277D01*
X139658453Y-72982077D01*
X139679320Y-72939857D01*
X139755136Y-72786453D01*
X139755137Y-72786451D01*
X139757430Y-72781811D01*
X139822370Y-72568069D01*
X139851529Y-72346590D01*
X139853156Y-72280000D01*
X139834852Y-72057361D01*
X139780431Y-71840702D01*
X139691354Y-71635840D01*
X139628905Y-71539309D01*
X139572822Y-71452617D01*
X139572820Y-71452614D01*
X139570014Y-71448277D01*
X139419670Y-71283051D01*
X139415619Y-71279852D01*
X139415615Y-71279848D01*
X139248414Y-71147800D01*
X139248410Y-71147798D01*
X139244359Y-71144598D01*
X139203053Y-71121796D01*
X139153084Y-71071364D01*
X139138312Y-71001921D01*
X139163428Y-70935516D01*
X139190780Y-70908909D01*
X139234603Y-70877650D01*
X139369860Y-70781173D01*
X139382578Y-70768500D01*
X139478267Y-70673144D01*
X139528096Y-70623489D01*
X139534190Y-70615009D01*
X139655435Y-70446277D01*
X139658453Y-70442077D01*
X139665614Y-70427589D01*
X139755136Y-70246453D01*
X139755137Y-70246451D01*
X139757430Y-70241811D01*
X139822370Y-70028069D01*
X139851529Y-69806590D01*
X139853156Y-69740000D01*
X139834852Y-69517361D01*
X139780431Y-69300702D01*
X139691354Y-69095840D01*
X139628905Y-68999309D01*
X139572822Y-68912617D01*
X139572820Y-68912614D01*
X139570014Y-68908277D01*
X139419670Y-68743051D01*
X139415619Y-68739852D01*
X139415615Y-68739848D01*
X139248414Y-68607800D01*
X139248410Y-68607798D01*
X139244359Y-68604598D01*
X139235458Y-68599684D01*
X139175844Y-68566776D01*
X139048789Y-68496638D01*
X139043920Y-68494914D01*
X139043916Y-68494912D01*
X138843087Y-68423795D01*
X138843083Y-68423794D01*
X138838212Y-68422069D01*
X138833119Y-68421162D01*
X138833116Y-68421161D01*
X138623373Y-68383800D01*
X138623367Y-68383799D01*
X138618284Y-68382894D01*
X138544452Y-68381992D01*
X138400081Y-68380228D01*
X138400079Y-68380228D01*
X138394911Y-68380165D01*
X138174091Y-68413955D01*
X137961756Y-68483357D01*
X137763607Y-68586507D01*
X137759474Y-68589610D01*
X137759471Y-68589612D01*
X137600597Y-68708898D01*
X137584965Y-68720635D01*
X137430629Y-68882138D01*
X137323201Y-69039621D01*
X137268293Y-69084621D01*
X137197768Y-69092792D01*
X137134021Y-69061538D01*
X137113324Y-69037054D01*
X137032822Y-68912617D01*
X137032820Y-68912614D01*
X137030014Y-68908277D01*
X136879670Y-68743051D01*
X136875619Y-68739852D01*
X136875615Y-68739848D01*
X136708414Y-68607800D01*
X136708410Y-68607798D01*
X136704359Y-68604598D01*
X136695458Y-68599684D01*
X136635844Y-68566776D01*
X136508789Y-68496638D01*
X136503920Y-68494914D01*
X136503916Y-68494912D01*
X136303087Y-68423795D01*
X136303083Y-68423794D01*
X136298212Y-68422069D01*
X136293119Y-68421162D01*
X136293116Y-68421161D01*
X136083373Y-68383800D01*
X136083367Y-68383799D01*
X136078284Y-68382894D01*
X136004452Y-68381992D01*
X135860081Y-68380228D01*
X135860079Y-68380228D01*
X135854911Y-68380165D01*
X135634091Y-68413955D01*
X135421756Y-68483357D01*
X135223607Y-68586507D01*
X135219474Y-68589610D01*
X135219471Y-68589612D01*
X135060597Y-68708898D01*
X135044965Y-68720635D01*
X134890629Y-68882138D01*
X134764743Y-69066680D01*
X134670688Y-69269305D01*
X134610989Y-69484570D01*
X134587251Y-69706695D01*
X134587548Y-69711848D01*
X134587548Y-69711851D01*
X134596257Y-69862892D01*
X134600110Y-69929715D01*
X134601247Y-69934761D01*
X134601248Y-69934767D01*
X134621119Y-70022939D01*
X134649222Y-70147639D01*
X134733266Y-70354616D01*
X134777984Y-70427589D01*
X134847291Y-70540688D01*
X134849987Y-70545088D01*
X134996250Y-70713938D01*
X135168126Y-70856632D01*
X135187358Y-70867870D01*
X135241445Y-70899476D01*
X135290169Y-70951114D01*
X135303240Y-71020897D01*
X135276509Y-71086669D01*
X135236055Y-71120027D01*
X135223607Y-71126507D01*
X135219474Y-71129610D01*
X135219471Y-71129612D01*
X135067733Y-71243540D01*
X135044965Y-71260635D01*
X134890629Y-71422138D01*
X134764743Y-71606680D01*
X134670688Y-71809305D01*
X134610989Y-72024570D01*
X134587251Y-72246695D01*
X134587548Y-72251848D01*
X134587548Y-72251851D01*
X134593011Y-72346590D01*
X134600110Y-72469715D01*
X134601247Y-72474761D01*
X134601248Y-72474767D01*
X134621119Y-72562939D01*
X134649222Y-72687639D01*
X134733266Y-72894616D01*
X134784019Y-72977438D01*
X134847291Y-73080688D01*
X134849987Y-73085088D01*
X134996250Y-73253938D01*
X135168126Y-73396632D01*
X135238595Y-73437811D01*
X135241445Y-73439476D01*
X135290169Y-73491114D01*
X135303240Y-73560897D01*
X135276509Y-73626669D01*
X135236055Y-73660027D01*
X135223607Y-73666507D01*
X135219474Y-73669610D01*
X135219471Y-73669612D01*
X135195247Y-73687800D01*
X135044965Y-73800635D01*
X134890629Y-73962138D01*
X134764743Y-74146680D01*
X134670688Y-74349305D01*
X134610989Y-74564570D01*
X134587251Y-74786695D01*
X111233000Y-74786695D01*
X111233000Y-70521406D01*
X111888423Y-70521406D01*
X111893704Y-70528461D01*
X112070080Y-70631527D01*
X112079363Y-70635974D01*
X112286003Y-70714883D01*
X112295901Y-70717759D01*
X112512653Y-70761857D01*
X112522883Y-70763076D01*
X112743914Y-70771182D01*
X112754223Y-70770714D01*
X112973623Y-70742608D01*
X112983688Y-70740468D01*
X113195557Y-70676905D01*
X113205152Y-70673144D01*
X113403778Y-70575838D01*
X113412636Y-70570559D01*
X113470097Y-70529572D01*
X113478497Y-70518874D01*
X113471510Y-70505721D01*
X112697811Y-69732021D01*
X112683868Y-69724408D01*
X112682034Y-69724539D01*
X112675420Y-69728790D01*
X111895180Y-70509031D01*
X111888423Y-70521406D01*
X111233000Y-70521406D01*
X111233000Y-70132202D01*
X111253002Y-70064081D01*
X111306658Y-70017588D01*
X111376932Y-70007484D01*
X111441512Y-70036978D01*
X111466433Y-70066368D01*
X111515097Y-70145781D01*
X111525553Y-70155242D01*
X111534331Y-70151458D01*
X112312979Y-69372811D01*
X112319356Y-69361132D01*
X113049408Y-69361132D01*
X113049539Y-69362966D01*
X113053790Y-69369580D01*
X113779595Y-70095384D01*
X113813620Y-70157697D01*
X113816500Y-70184480D01*
X113816500Y-70308134D01*
X113823255Y-70370316D01*
X113874385Y-70506705D01*
X113961739Y-70623261D01*
X114078295Y-70710615D01*
X114214684Y-70761745D01*
X114276866Y-70768500D01*
X116173134Y-70768500D01*
X116235316Y-70761745D01*
X116371705Y-70710615D01*
X116488261Y-70623261D01*
X116494446Y-70615009D01*
X119651435Y-70615009D01*
X119654230Y-70648297D01*
X119665176Y-70778642D01*
X119668969Y-70823818D01*
X119693386Y-70908971D01*
X119705471Y-70951114D01*
X119726727Y-71025244D01*
X119822509Y-71211616D01*
X119826334Y-71216442D01*
X119826336Y-71216445D01*
X119948837Y-71371004D01*
X119948841Y-71371009D01*
X119952666Y-71375834D01*
X120112242Y-71511643D01*
X120295157Y-71613871D01*
X120494445Y-71678624D01*
X120702515Y-71703435D01*
X120708650Y-71702963D01*
X120708652Y-71702963D01*
X120905299Y-71687832D01*
X120905303Y-71687831D01*
X120911441Y-71687359D01*
X121006363Y-71660856D01*
X121107321Y-71632668D01*
X121107325Y-71632667D01*
X121113265Y-71631008D01*
X121118769Y-71628228D01*
X121118771Y-71628227D01*
X121294800Y-71539309D01*
X121294802Y-71539308D01*
X121300301Y-71536530D01*
X121446716Y-71422138D01*
X121460563Y-71411320D01*
X121460564Y-71411319D01*
X121465424Y-71407522D01*
X121602344Y-71248898D01*
X121705846Y-71066701D01*
X121771989Y-70867870D01*
X121772906Y-70860615D01*
X121783401Y-70777529D01*
X121798251Y-70659979D01*
X121798670Y-70630000D01*
X121778222Y-70421456D01*
X121717657Y-70220856D01*
X121619283Y-70035840D01*
X121528515Y-69924547D01*
X121490740Y-69878230D01*
X121490737Y-69878227D01*
X121486845Y-69873455D01*
X121410030Y-69809908D01*
X121330139Y-69743816D01*
X121330135Y-69743814D01*
X121325389Y-69739887D01*
X121141064Y-69640223D01*
X120940891Y-69578259D01*
X120934766Y-69577615D01*
X120934765Y-69577615D01*
X120738624Y-69557000D01*
X120738623Y-69557000D01*
X120732496Y-69556356D01*
X120646138Y-69564215D01*
X120529953Y-69574789D01*
X120529950Y-69574790D01*
X120523814Y-69575348D01*
X120517908Y-69577086D01*
X120517904Y-69577087D01*
X120370946Y-69620340D01*
X120322796Y-69634511D01*
X120317339Y-69637364D01*
X120317336Y-69637365D01*
X120306265Y-69643153D01*
X120137098Y-69731591D01*
X119973792Y-69862892D01*
X119839100Y-70023412D01*
X119836136Y-70028804D01*
X119836133Y-70028808D01*
X119799533Y-70095384D01*
X119738152Y-70207036D01*
X119674792Y-70406771D01*
X119651435Y-70615009D01*
X116494446Y-70615009D01*
X116575615Y-70506705D01*
X116626745Y-70370316D01*
X116633500Y-70308134D01*
X116633500Y-68411866D01*
X116626745Y-68349684D01*
X116575615Y-68213295D01*
X116488261Y-68096739D01*
X116459267Y-68075009D01*
X117111435Y-68075009D01*
X117111951Y-68081153D01*
X117127370Y-68264771D01*
X117128969Y-68283818D01*
X117156596Y-68380165D01*
X117178373Y-68456109D01*
X117186727Y-68485244D01*
X117282509Y-68671616D01*
X117286334Y-68676442D01*
X117286336Y-68676445D01*
X117408837Y-68831004D01*
X117408841Y-68831009D01*
X117412666Y-68835834D01*
X117572242Y-68971643D01*
X117755157Y-69073871D01*
X117954445Y-69138624D01*
X118162515Y-69163435D01*
X118168650Y-69162963D01*
X118168652Y-69162963D01*
X118365299Y-69147832D01*
X118365303Y-69147831D01*
X118371441Y-69147359D01*
X118466363Y-69120856D01*
X118567321Y-69092668D01*
X118567325Y-69092667D01*
X118573265Y-69091008D01*
X118578769Y-69088228D01*
X118578771Y-69088227D01*
X118754800Y-68999309D01*
X118754802Y-68999308D01*
X118760301Y-68996530D01*
X118906716Y-68882138D01*
X118920563Y-68871320D01*
X118920564Y-68871319D01*
X118925424Y-68867522D01*
X119062344Y-68708898D01*
X119165846Y-68526701D01*
X119231989Y-68327870D01*
X119258251Y-68119979D01*
X119258450Y-68105756D01*
X119258621Y-68093522D01*
X119258621Y-68093518D01*
X119258670Y-68090000D01*
X119257200Y-68075009D01*
X122191435Y-68075009D01*
X122191951Y-68081153D01*
X122207370Y-68264771D01*
X122208969Y-68283818D01*
X122236596Y-68380165D01*
X122258373Y-68456109D01*
X122266727Y-68485244D01*
X122362509Y-68671616D01*
X122366334Y-68676442D01*
X122366336Y-68676445D01*
X122488837Y-68831004D01*
X122488841Y-68831009D01*
X122492666Y-68835834D01*
X122652242Y-68971643D01*
X122835157Y-69073871D01*
X123034445Y-69138624D01*
X123242515Y-69163435D01*
X123248650Y-69162963D01*
X123248652Y-69162963D01*
X123445299Y-69147832D01*
X123445303Y-69147831D01*
X123451441Y-69147359D01*
X123546363Y-69120856D01*
X123647321Y-69092668D01*
X123647325Y-69092667D01*
X123653265Y-69091008D01*
X123658769Y-69088228D01*
X123658771Y-69088227D01*
X123834800Y-68999309D01*
X123834802Y-68999308D01*
X123840301Y-68996530D01*
X123986716Y-68882138D01*
X124000563Y-68871320D01*
X124000564Y-68871319D01*
X124005424Y-68867522D01*
X124142344Y-68708898D01*
X124245846Y-68526701D01*
X124311989Y-68327870D01*
X124338251Y-68119979D01*
X124338450Y-68105756D01*
X124338621Y-68093522D01*
X124338621Y-68093518D01*
X124338670Y-68090000D01*
X124318222Y-67881456D01*
X124257657Y-67680856D01*
X124159283Y-67495840D01*
X124084812Y-67404530D01*
X124030740Y-67338230D01*
X124030737Y-67338227D01*
X124026845Y-67333455D01*
X123996159Y-67308069D01*
X123870139Y-67203816D01*
X123870135Y-67203814D01*
X123865389Y-67199887D01*
X123681064Y-67100223D01*
X123480891Y-67038259D01*
X123474766Y-67037615D01*
X123474765Y-67037615D01*
X123278624Y-67017000D01*
X123278623Y-67017000D01*
X123272496Y-67016356D01*
X123195482Y-67023365D01*
X123069953Y-67034789D01*
X123069950Y-67034790D01*
X123063814Y-67035348D01*
X123057908Y-67037086D01*
X123057904Y-67037087D01*
X122910946Y-67080340D01*
X122862796Y-67094511D01*
X122857339Y-67097364D01*
X122857336Y-67097365D01*
X122846265Y-67103153D01*
X122677098Y-67191591D01*
X122513792Y-67322892D01*
X122379100Y-67483412D01*
X122376136Y-67488804D01*
X122376133Y-67488808D01*
X122369276Y-67501281D01*
X122278152Y-67667036D01*
X122276291Y-67672903D01*
X122276290Y-67672905D01*
X122246472Y-67766903D01*
X122214792Y-67866771D01*
X122191435Y-68075009D01*
X119257200Y-68075009D01*
X119238222Y-67881456D01*
X119177657Y-67680856D01*
X119079283Y-67495840D01*
X119004812Y-67404530D01*
X118950740Y-67338230D01*
X118950737Y-67338227D01*
X118946845Y-67333455D01*
X118916159Y-67308069D01*
X118790139Y-67203816D01*
X118790135Y-67203814D01*
X118785389Y-67199887D01*
X118601064Y-67100223D01*
X118400891Y-67038259D01*
X118394766Y-67037615D01*
X118394765Y-67037615D01*
X118198624Y-67017000D01*
X118198623Y-67017000D01*
X118192496Y-67016356D01*
X118115482Y-67023365D01*
X117989953Y-67034789D01*
X117989950Y-67034790D01*
X117983814Y-67035348D01*
X117977908Y-67037086D01*
X117977904Y-67037087D01*
X117830946Y-67080340D01*
X117782796Y-67094511D01*
X117777339Y-67097364D01*
X117777336Y-67097365D01*
X117766265Y-67103153D01*
X117597098Y-67191591D01*
X117433792Y-67322892D01*
X117299100Y-67483412D01*
X117296136Y-67488804D01*
X117296133Y-67488808D01*
X117289276Y-67501281D01*
X117198152Y-67667036D01*
X117196291Y-67672903D01*
X117196290Y-67672905D01*
X117166472Y-67766903D01*
X117134792Y-67866771D01*
X117111435Y-68075009D01*
X116459267Y-68075009D01*
X116371705Y-68009385D01*
X116235316Y-67958255D01*
X116173134Y-67951500D01*
X114276866Y-67951500D01*
X114214684Y-67958255D01*
X114078295Y-68009385D01*
X113961739Y-68096739D01*
X113874385Y-68213295D01*
X113823255Y-68349684D01*
X113816500Y-68411866D01*
X113816500Y-68535520D01*
X113796498Y-68603641D01*
X113779595Y-68624616D01*
X113057021Y-69347189D01*
X113049408Y-69361132D01*
X112319356Y-69361132D01*
X112320592Y-69358868D01*
X112320461Y-69357034D01*
X112316210Y-69350420D01*
X111538862Y-68573073D01*
X111527330Y-68566776D01*
X111515048Y-68576399D01*
X111463088Y-68652569D01*
X111408176Y-68697571D01*
X111337652Y-68705742D01*
X111273905Y-68674488D01*
X111237175Y-68613730D01*
X111233000Y-68581564D01*
X111233000Y-68200711D01*
X111890508Y-68200711D01*
X111897251Y-68213040D01*
X112672189Y-68987979D01*
X112686132Y-68995592D01*
X112687966Y-68995461D01*
X112694580Y-68991210D01*
X113473994Y-68211795D01*
X113481011Y-68198944D01*
X113473237Y-68188274D01*
X113470902Y-68186430D01*
X113462320Y-68180729D01*
X113268678Y-68073833D01*
X113259272Y-68069606D01*
X113050772Y-67995772D01*
X113040809Y-67993140D01*
X112823047Y-67954350D01*
X112812796Y-67953381D01*
X112591616Y-67950679D01*
X112581332Y-67951399D01*
X112362693Y-67984855D01*
X112352666Y-67987244D01*
X112142426Y-68055961D01*
X112132916Y-68059958D01*
X111936725Y-68162089D01*
X111928007Y-68167578D01*
X111898961Y-68189386D01*
X111890508Y-68200711D01*
X111233000Y-68200711D01*
X111233000Y-66986695D01*
X125362251Y-66986695D01*
X125362548Y-66991848D01*
X125362548Y-66991851D01*
X125368632Y-67097365D01*
X125375110Y-67209715D01*
X125376247Y-67214761D01*
X125376248Y-67214767D01*
X125396119Y-67302939D01*
X125424222Y-67427639D01*
X125508266Y-67634616D01*
X125624987Y-67825088D01*
X125771250Y-67993938D01*
X125775230Y-67997242D01*
X125779981Y-68001187D01*
X125819616Y-68060090D01*
X125821113Y-68131071D01*
X125783997Y-68191593D01*
X125743725Y-68216112D01*
X125647751Y-68252091D01*
X125628295Y-68259385D01*
X125511739Y-68346739D01*
X125424385Y-68463295D01*
X125373255Y-68599684D01*
X125366500Y-68661866D01*
X125366500Y-70458134D01*
X125373255Y-70520316D01*
X125424385Y-70656705D01*
X125511739Y-70773261D01*
X125628295Y-70860615D01*
X125764684Y-70911745D01*
X125826866Y-70918500D01*
X127623134Y-70918500D01*
X127685316Y-70911745D01*
X127821705Y-70860615D01*
X127938261Y-70773261D01*
X128025615Y-70656705D01*
X128076745Y-70520316D01*
X128083500Y-70458134D01*
X128083500Y-68661866D01*
X128076745Y-68599684D01*
X128025615Y-68463295D01*
X127938261Y-68346739D01*
X127821705Y-68259385D01*
X127809132Y-68254672D01*
X127703203Y-68214960D01*
X127646439Y-68172318D01*
X127621739Y-68105756D01*
X127636947Y-68036408D01*
X127658493Y-68007727D01*
X127681445Y-67984855D01*
X127763096Y-67903489D01*
X127789481Y-67866771D01*
X127890435Y-67726277D01*
X127893453Y-67722077D01*
X127992430Y-67521811D01*
X128051433Y-67327611D01*
X128055865Y-67313023D01*
X128055865Y-67313021D01*
X128057370Y-67308069D01*
X128086529Y-67086590D01*
X128086611Y-67083240D01*
X128088074Y-67023365D01*
X128088074Y-67023361D01*
X128088156Y-67020000D01*
X128069852Y-66797361D01*
X128015431Y-66580702D01*
X127926354Y-66375840D01*
X127805014Y-66188277D01*
X127654670Y-66023051D01*
X127650619Y-66019852D01*
X127650615Y-66019848D01*
X127483414Y-65887800D01*
X127483410Y-65887798D01*
X127479359Y-65884598D01*
X127283789Y-65776638D01*
X127278920Y-65774914D01*
X127278916Y-65774912D01*
X127078087Y-65703795D01*
X127078083Y-65703794D01*
X127073212Y-65702069D01*
X127068119Y-65701162D01*
X127068116Y-65701161D01*
X126858373Y-65663800D01*
X126858367Y-65663799D01*
X126853284Y-65662894D01*
X126779452Y-65661992D01*
X126635081Y-65660228D01*
X126635079Y-65660228D01*
X126629911Y-65660165D01*
X126409091Y-65693955D01*
X126196756Y-65763357D01*
X125998607Y-65866507D01*
X125994474Y-65869610D01*
X125994471Y-65869612D01*
X125970247Y-65887800D01*
X125819965Y-66000635D01*
X125665629Y-66162138D01*
X125539743Y-66346680D01*
X125445688Y-66549305D01*
X125385989Y-66764570D01*
X125362251Y-66986695D01*
X111233000Y-66986695D01*
X111233000Y-57615009D01*
X119651435Y-57615009D01*
X119651951Y-57621153D01*
X119665176Y-57778642D01*
X119668969Y-57823818D01*
X119726727Y-58025244D01*
X119822509Y-58211616D01*
X119826334Y-58216442D01*
X119826336Y-58216445D01*
X119948837Y-58371004D01*
X119948841Y-58371009D01*
X119952666Y-58375834D01*
X120112242Y-58511643D01*
X120295157Y-58613871D01*
X120494445Y-58678624D01*
X120702515Y-58703435D01*
X120708650Y-58702963D01*
X120708652Y-58702963D01*
X120905299Y-58687832D01*
X120905303Y-58687831D01*
X120911441Y-58687359D01*
X121006363Y-58660856D01*
X121107321Y-58632668D01*
X121107325Y-58632667D01*
X121113265Y-58631008D01*
X121118769Y-58628228D01*
X121118771Y-58628227D01*
X121294800Y-58539309D01*
X121294802Y-58539308D01*
X121300301Y-58536530D01*
X121465424Y-58407522D01*
X121602344Y-58248898D01*
X121705846Y-58066701D01*
X121771989Y-57867870D01*
X121772906Y-57860615D01*
X121783261Y-57778642D01*
X121798251Y-57659979D01*
X121798670Y-57630000D01*
X121778222Y-57421456D01*
X121717657Y-57220856D01*
X121619283Y-57035840D01*
X121544812Y-56944530D01*
X121490740Y-56878230D01*
X121490737Y-56878227D01*
X121486845Y-56873455D01*
X121469412Y-56859033D01*
X121330139Y-56743816D01*
X121330135Y-56743814D01*
X121325389Y-56739887D01*
X121141064Y-56640223D01*
X120940891Y-56578259D01*
X120934766Y-56577615D01*
X120934765Y-56577615D01*
X120738624Y-56557000D01*
X120738623Y-56557000D01*
X120732496Y-56556356D01*
X120646138Y-56564215D01*
X120529953Y-56574789D01*
X120529950Y-56574790D01*
X120523814Y-56575348D01*
X120517908Y-56577086D01*
X120517904Y-56577087D01*
X120370946Y-56620340D01*
X120322796Y-56634511D01*
X120317339Y-56637364D01*
X120317336Y-56637365D01*
X120306265Y-56643153D01*
X120137098Y-56731591D01*
X119973792Y-56862892D01*
X119839100Y-57023412D01*
X119836136Y-57028804D01*
X119836133Y-57028808D01*
X119829276Y-57041281D01*
X119738152Y-57207036D01*
X119674792Y-57406771D01*
X119651435Y-57615009D01*
X111233000Y-57615009D01*
X111233000Y-55075009D01*
X117111435Y-55075009D01*
X117111951Y-55081153D01*
X117127370Y-55264771D01*
X117128969Y-55283818D01*
X117141601Y-55327870D01*
X117178373Y-55456109D01*
X117186727Y-55485244D01*
X117282509Y-55671616D01*
X117286334Y-55676442D01*
X117286336Y-55676445D01*
X117408837Y-55831004D01*
X117408841Y-55831009D01*
X117412666Y-55835834D01*
X117572242Y-55971643D01*
X117755157Y-56073871D01*
X117954445Y-56138624D01*
X118162515Y-56163435D01*
X118168650Y-56162963D01*
X118168652Y-56162963D01*
X118365299Y-56147832D01*
X118365303Y-56147831D01*
X118371441Y-56147359D01*
X118466363Y-56120856D01*
X118567321Y-56092668D01*
X118567325Y-56092667D01*
X118573265Y-56091008D01*
X118578769Y-56088228D01*
X118578771Y-56088227D01*
X118754800Y-55999309D01*
X118754802Y-55999308D01*
X118760301Y-55996530D01*
X118925424Y-55867522D01*
X119062344Y-55708898D01*
X119069023Y-55697142D01*
X119162799Y-55532064D01*
X119165846Y-55526701D01*
X119231989Y-55327870D01*
X119258251Y-55119979D01*
X119258670Y-55090000D01*
X119257200Y-55075009D01*
X122191435Y-55075009D01*
X122191951Y-55081153D01*
X122207370Y-55264771D01*
X122208969Y-55283818D01*
X122221601Y-55327870D01*
X122258373Y-55456109D01*
X122266727Y-55485244D01*
X122362509Y-55671616D01*
X122366334Y-55676442D01*
X122366336Y-55676445D01*
X122488837Y-55831004D01*
X122488841Y-55831009D01*
X122492666Y-55835834D01*
X122652242Y-55971643D01*
X122835157Y-56073871D01*
X123034445Y-56138624D01*
X123242515Y-56163435D01*
X123248650Y-56162963D01*
X123248652Y-56162963D01*
X123445299Y-56147832D01*
X123445303Y-56147831D01*
X123451441Y-56147359D01*
X123546363Y-56120856D01*
X123647321Y-56092668D01*
X123647325Y-56092667D01*
X123653265Y-56091008D01*
X123658769Y-56088228D01*
X123658771Y-56088227D01*
X123834800Y-55999309D01*
X123834802Y-55999308D01*
X123840301Y-55996530D01*
X124005424Y-55867522D01*
X124142344Y-55708898D01*
X124149023Y-55697142D01*
X124242799Y-55532064D01*
X124245846Y-55526701D01*
X124311989Y-55327870D01*
X124338251Y-55119979D01*
X124338670Y-55090000D01*
X124318222Y-54881456D01*
X124257657Y-54680856D01*
X124159283Y-54495840D01*
X124068460Y-54384480D01*
X124030740Y-54338230D01*
X124030737Y-54338227D01*
X124026845Y-54333455D01*
X124002147Y-54313023D01*
X123870139Y-54203816D01*
X123870135Y-54203814D01*
X123865389Y-54199887D01*
X123681064Y-54100223D01*
X123480891Y-54038259D01*
X123474766Y-54037615D01*
X123474765Y-54037615D01*
X123278624Y-54017000D01*
X123278623Y-54017000D01*
X123272496Y-54016356D01*
X123195482Y-54023365D01*
X123069953Y-54034789D01*
X123069950Y-54034790D01*
X123063814Y-54035348D01*
X123057908Y-54037086D01*
X123057904Y-54037087D01*
X122910946Y-54080340D01*
X122862796Y-54094511D01*
X122857339Y-54097364D01*
X122857336Y-54097365D01*
X122846265Y-54103153D01*
X122677098Y-54191591D01*
X122513792Y-54322892D01*
X122379100Y-54483412D01*
X122376136Y-54488804D01*
X122376133Y-54488808D01*
X122298607Y-54629829D01*
X122278152Y-54667036D01*
X122276291Y-54672903D01*
X122276290Y-54672905D01*
X122258667Y-54728461D01*
X122214792Y-54866771D01*
X122191435Y-55075009D01*
X119257200Y-55075009D01*
X119238222Y-54881456D01*
X119177657Y-54680856D01*
X119079283Y-54495840D01*
X118988460Y-54384480D01*
X118950740Y-54338230D01*
X118950737Y-54338227D01*
X118946845Y-54333455D01*
X118922147Y-54313023D01*
X118790139Y-54203816D01*
X118790135Y-54203814D01*
X118785389Y-54199887D01*
X118601064Y-54100223D01*
X118400891Y-54038259D01*
X118394766Y-54037615D01*
X118394765Y-54037615D01*
X118198624Y-54017000D01*
X118198623Y-54017000D01*
X118192496Y-54016356D01*
X118115482Y-54023365D01*
X117989953Y-54034789D01*
X117989950Y-54034790D01*
X117983814Y-54035348D01*
X117977908Y-54037086D01*
X117977904Y-54037087D01*
X117830946Y-54080340D01*
X117782796Y-54094511D01*
X117777339Y-54097364D01*
X117777336Y-54097365D01*
X117766265Y-54103153D01*
X117597098Y-54191591D01*
X117433792Y-54322892D01*
X117299100Y-54483412D01*
X117296136Y-54488804D01*
X117296133Y-54488808D01*
X117218607Y-54629829D01*
X117198152Y-54667036D01*
X117196291Y-54672903D01*
X117196290Y-54672905D01*
X117178667Y-54728461D01*
X117134792Y-54866771D01*
X117111435Y-55075009D01*
X111233000Y-55075009D01*
X111233000Y-54721406D01*
X111888423Y-54721406D01*
X111893704Y-54728461D01*
X112070080Y-54831527D01*
X112079363Y-54835974D01*
X112286003Y-54914883D01*
X112295901Y-54917759D01*
X112512653Y-54961857D01*
X112522883Y-54963076D01*
X112743914Y-54971182D01*
X112754223Y-54970714D01*
X112973623Y-54942608D01*
X112983688Y-54940468D01*
X113195557Y-54876905D01*
X113205152Y-54873144D01*
X113403778Y-54775838D01*
X113412636Y-54770559D01*
X113470097Y-54729572D01*
X113478497Y-54718874D01*
X113471510Y-54705721D01*
X112697811Y-53932021D01*
X112683868Y-53924408D01*
X112682034Y-53924539D01*
X112675420Y-53928790D01*
X111895180Y-54709031D01*
X111888423Y-54721406D01*
X111233000Y-54721406D01*
X111233000Y-54332202D01*
X111253002Y-54264081D01*
X111306658Y-54217588D01*
X111376932Y-54207484D01*
X111441512Y-54236978D01*
X111466433Y-54266368D01*
X111515097Y-54345781D01*
X111525553Y-54355242D01*
X111534331Y-54351458D01*
X112312979Y-53572811D01*
X112319356Y-53561132D01*
X113049408Y-53561132D01*
X113049539Y-53562966D01*
X113053790Y-53569580D01*
X113779595Y-54295384D01*
X113813620Y-54357697D01*
X113816500Y-54384480D01*
X113816500Y-54508134D01*
X113823255Y-54570316D01*
X113874385Y-54706705D01*
X113961739Y-54823261D01*
X114078295Y-54910615D01*
X114214684Y-54961745D01*
X114276866Y-54968500D01*
X116173134Y-54968500D01*
X116235316Y-54961745D01*
X116371705Y-54910615D01*
X116488261Y-54823261D01*
X116575615Y-54706705D01*
X116626745Y-54570316D01*
X116633500Y-54508134D01*
X116633500Y-53986695D01*
X125362251Y-53986695D01*
X125362548Y-53991848D01*
X125362548Y-53991851D01*
X125368632Y-54097365D01*
X125375110Y-54209715D01*
X125376247Y-54214761D01*
X125376248Y-54214767D01*
X125396084Y-54302784D01*
X125424222Y-54427639D01*
X125508266Y-54634616D01*
X125533269Y-54675417D01*
X125619468Y-54816081D01*
X125624987Y-54825088D01*
X125771250Y-54993938D01*
X125775230Y-54997242D01*
X125779981Y-55001187D01*
X125819616Y-55060090D01*
X125821113Y-55131071D01*
X125783997Y-55191593D01*
X125743724Y-55216112D01*
X125628295Y-55259385D01*
X125511739Y-55346739D01*
X125424385Y-55463295D01*
X125373255Y-55599684D01*
X125366500Y-55661866D01*
X125366500Y-57458134D01*
X125373255Y-57520316D01*
X125424385Y-57656705D01*
X125511739Y-57773261D01*
X125628295Y-57860615D01*
X125764684Y-57911745D01*
X125826866Y-57918500D01*
X127623134Y-57918500D01*
X127685316Y-57911745D01*
X127821705Y-57860615D01*
X127938261Y-57773261D01*
X128025615Y-57656705D01*
X128076745Y-57520316D01*
X128083500Y-57458134D01*
X128083500Y-55661866D01*
X128076745Y-55599684D01*
X128025615Y-55463295D01*
X127938261Y-55346739D01*
X127821705Y-55259385D01*
X127809132Y-55254672D01*
X127703203Y-55214960D01*
X127646439Y-55172318D01*
X127621739Y-55105756D01*
X127636947Y-55036408D01*
X127658493Y-55007727D01*
X127723840Y-54942608D01*
X127763096Y-54903489D01*
X127782199Y-54876905D01*
X127890435Y-54726277D01*
X127893453Y-54722077D01*
X127901051Y-54706705D01*
X127973556Y-54560000D01*
X131111526Y-54560000D01*
X131131391Y-54812403D01*
X131132545Y-54817210D01*
X131132546Y-54817216D01*
X131167271Y-54961857D01*
X131190495Y-55058591D01*
X131192388Y-55063162D01*
X131192389Y-55063164D01*
X131273667Y-55259385D01*
X131287384Y-55292502D01*
X131419672Y-55508376D01*
X131584102Y-55700898D01*
X131776624Y-55865328D01*
X131992498Y-55997616D01*
X131997068Y-55999509D01*
X131997072Y-55999511D01*
X132217966Y-56091008D01*
X132226409Y-56094505D01*
X132311032Y-56114821D01*
X132467784Y-56152454D01*
X132467790Y-56152455D01*
X132472597Y-56153609D01*
X132725000Y-56173474D01*
X132977403Y-56153609D01*
X132982210Y-56152455D01*
X132982216Y-56152454D01*
X133138968Y-56114821D01*
X133223591Y-56094505D01*
X133232034Y-56091008D01*
X133452928Y-55999511D01*
X133452932Y-55999509D01*
X133457502Y-55997616D01*
X133673376Y-55865328D01*
X133865898Y-55700898D01*
X134030328Y-55508376D01*
X134162616Y-55292502D01*
X134176334Y-55259385D01*
X134257611Y-55063164D01*
X134257612Y-55063162D01*
X134259505Y-55058591D01*
X134282729Y-54961857D01*
X134317454Y-54817216D01*
X134317455Y-54817210D01*
X134318609Y-54812403D01*
X134338474Y-54560000D01*
X134318609Y-54307597D01*
X134292751Y-54199887D01*
X134267452Y-54094511D01*
X134259505Y-54061409D01*
X134240964Y-54016646D01*
X134164511Y-53832072D01*
X134164509Y-53832068D01*
X134162616Y-53827498D01*
X134030328Y-53611624D01*
X133865898Y-53419102D01*
X133673376Y-53254672D01*
X133457502Y-53122384D01*
X133452932Y-53120491D01*
X133452928Y-53120489D01*
X133228164Y-53027389D01*
X133228162Y-53027388D01*
X133223591Y-53025495D01*
X133120041Y-53000635D01*
X132982216Y-52967546D01*
X132982210Y-52967545D01*
X132977403Y-52966391D01*
X132725000Y-52946526D01*
X132472597Y-52966391D01*
X132467790Y-52967545D01*
X132467784Y-52967546D01*
X132329959Y-53000635D01*
X132226409Y-53025495D01*
X132221838Y-53027388D01*
X132221836Y-53027389D01*
X131997072Y-53120489D01*
X131997068Y-53120491D01*
X131992498Y-53122384D01*
X131776624Y-53254672D01*
X131584102Y-53419102D01*
X131419672Y-53611624D01*
X131287384Y-53827498D01*
X131285491Y-53832068D01*
X131285489Y-53832072D01*
X131209036Y-54016646D01*
X131190495Y-54061409D01*
X131182548Y-54094511D01*
X131157250Y-54199887D01*
X131131391Y-54307597D01*
X131111526Y-54560000D01*
X127973556Y-54560000D01*
X127990136Y-54526453D01*
X127990137Y-54526451D01*
X127992430Y-54521811D01*
X128024900Y-54414940D01*
X128055865Y-54313023D01*
X128055865Y-54313021D01*
X128057370Y-54308069D01*
X128086529Y-54086590D01*
X128087256Y-54056836D01*
X128088074Y-54023365D01*
X128088074Y-54023361D01*
X128088156Y-54020000D01*
X128069852Y-53797361D01*
X128015431Y-53580702D01*
X127926354Y-53375840D01*
X127847967Y-53254672D01*
X127807822Y-53192617D01*
X127807820Y-53192614D01*
X127805014Y-53188277D01*
X127654670Y-53023051D01*
X127650619Y-53019852D01*
X127650615Y-53019848D01*
X127483414Y-52887800D01*
X127483410Y-52887798D01*
X127479359Y-52884598D01*
X127283789Y-52776638D01*
X127278920Y-52774914D01*
X127278916Y-52774912D01*
X127078087Y-52703795D01*
X127078083Y-52703794D01*
X127073212Y-52702069D01*
X127068119Y-52701162D01*
X127068116Y-52701161D01*
X126858373Y-52663800D01*
X126858367Y-52663799D01*
X126853284Y-52662894D01*
X126779452Y-52661992D01*
X126635081Y-52660228D01*
X126635079Y-52660228D01*
X126629911Y-52660165D01*
X126409091Y-52693955D01*
X126196756Y-52763357D01*
X126166443Y-52779137D01*
X126025382Y-52852569D01*
X125998607Y-52866507D01*
X125994474Y-52869610D01*
X125994471Y-52869612D01*
X125864035Y-52967546D01*
X125819965Y-53000635D01*
X125816393Y-53004373D01*
X125701148Y-53124970D01*
X125665629Y-53162138D01*
X125662715Y-53166410D01*
X125662714Y-53166411D01*
X125642808Y-53195592D01*
X125539743Y-53346680D01*
X125445688Y-53549305D01*
X125385989Y-53764570D01*
X125362251Y-53986695D01*
X116633500Y-53986695D01*
X116633500Y-52611866D01*
X116626745Y-52549684D01*
X116575615Y-52413295D01*
X116488261Y-52296739D01*
X116371705Y-52209385D01*
X116235316Y-52158255D01*
X116173134Y-52151500D01*
X114276866Y-52151500D01*
X114214684Y-52158255D01*
X114078295Y-52209385D01*
X113961739Y-52296739D01*
X113874385Y-52413295D01*
X113823255Y-52549684D01*
X113816500Y-52611866D01*
X113816500Y-52735520D01*
X113796498Y-52803641D01*
X113779595Y-52824616D01*
X113057021Y-53547189D01*
X113049408Y-53561132D01*
X112319356Y-53561132D01*
X112320592Y-53558868D01*
X112320461Y-53557034D01*
X112316210Y-53550420D01*
X111538862Y-52773073D01*
X111527330Y-52766776D01*
X111515048Y-52776399D01*
X111463088Y-52852569D01*
X111408176Y-52897571D01*
X111337652Y-52905742D01*
X111273905Y-52874488D01*
X111237175Y-52813730D01*
X111233000Y-52781564D01*
X111233000Y-52400711D01*
X111890508Y-52400711D01*
X111897251Y-52413040D01*
X112672189Y-53187979D01*
X112686132Y-53195592D01*
X112687966Y-53195461D01*
X112694580Y-53191210D01*
X113473994Y-52411795D01*
X113481011Y-52398944D01*
X113473237Y-52388274D01*
X113470902Y-52386430D01*
X113462320Y-52380729D01*
X113268678Y-52273833D01*
X113259272Y-52269606D01*
X113050772Y-52195772D01*
X113040809Y-52193140D01*
X112823047Y-52154350D01*
X112812796Y-52153381D01*
X112591616Y-52150679D01*
X112581332Y-52151399D01*
X112362693Y-52184855D01*
X112352666Y-52187244D01*
X112142426Y-52255961D01*
X112132916Y-52259958D01*
X111936725Y-52362089D01*
X111928007Y-52367578D01*
X111898961Y-52389386D01*
X111890508Y-52400711D01*
X111233000Y-52400711D01*
X111233000Y-50194000D01*
X111253002Y-50125879D01*
X111306658Y-50079386D01*
X111359000Y-50068000D01*
X140091000Y-50068000D01*
X140159121Y-50088002D01*
G37*
%TD.AperFunction*%
%TD*%
M02*
