M48
; DRILL file {KiCad (5.99.0-12789-g9e557d84c6)} date Thu Nov 25 19:20:45 2021
; FORMAT={-:-/ absolute / metric / decimal}
; #@! TF.CreationDate,2021-11-25T19:20:45-08:00
; #@! TF.GenerationSoftware,Kicad,Pcbnew,(5.99.0-12789-g9e557d84c6)
; #@! TF.FileFunction,Plated,1,2,PTH
FMAT,2
METRIC
; #@! TA.AperFunction,Plated,PTH,ViaDrill
T1C0.400
; #@! TA.AperFunction,Plated,PTH,ComponentDrill
T2C0.690
; #@! TA.AperFunction,Plated,PTH,ComponentDrill
T3C0.750
; #@! TA.AperFunction,Plated,PTH,ViaDrill
T4C0.800
; #@! TA.AperFunction,Plated,PTH,ComponentDrill
T5C0.900
; #@! TA.AperFunction,Plated,PTH,ComponentDrill
T6C1.000
%
G90
G05
T1
X125.225Y-72.06
X125.225Y-119.56
X125.225Y-144.56
X125.725Y-60.56
X125.725Y-84.06
X125.725Y-97.06
X125.725Y-108.06
X125.725Y-131.56
X129.688Y-74.597
X129.688Y-122.097
X130.688Y-74.597
X130.688Y-122.097
T2
X118.185Y-55.09
X118.185Y-68.09
X118.185Y-78.67
X118.185Y-91.59
X118.185Y-102.59
X118.185Y-115.54
X118.185Y-126.09
X118.185Y-139.09
X120.725Y-57.63
X120.725Y-70.63
X120.725Y-81.21
X120.725Y-94.13
X120.725Y-105.13
X120.725Y-118.08
X120.725Y-128.63
X120.725Y-141.63
X123.265Y-55.09
X123.265Y-68.09
X123.265Y-78.67
X123.265Y-91.59
X123.265Y-102.59
X123.265Y-115.54
X123.265Y-126.09
X123.265Y-139.09
T3
X132.455Y-133.933
X133.725Y-133.933
X134.995Y-133.933
T4
X129.451Y-129.56
X132.225Y-127.56
T5
X112.685Y-53.56
X112.685Y-69.36
X112.685Y-77.26
X112.685Y-93.06
X112.685Y-100.96
X112.685Y-116.76
X112.685Y-124.66
X112.685Y-140.46
X115.225Y-53.56
X115.225Y-69.36
X115.225Y-77.26
X115.225Y-93.06
X115.225Y-100.96
X115.225Y-116.76
X115.225Y-124.66
X115.225Y-140.46
T6
X126.725Y-54.02
X126.725Y-56.56
X126.725Y-67.02
X126.725Y-69.56
X126.725Y-77.52
X126.725Y-80.06
X126.725Y-90.52
X126.725Y-93.06
X126.725Y-101.52
X126.725Y-104.06
X126.725Y-114.52
X126.725Y-117.06
X126.725Y-125.02
X126.725Y-127.56
X126.725Y-138.02
X126.725Y-140.56
X131.2Y-142.06
X133.74Y-142.06
X135.95Y-69.74
X135.95Y-72.28
X135.95Y-74.82
X135.95Y-77.36
X135.95Y-117.24
X135.95Y-119.78
X135.95Y-122.32
X135.95Y-124.86
X136.28Y-142.06
X138.49Y-69.74
X138.49Y-72.28
X138.49Y-74.82
X138.49Y-77.36
X138.49Y-117.24
X138.49Y-119.78
X138.49Y-122.32
X138.49Y-124.86
T0
M30
