%FSLAX45Y45*%
G04 Gerber Fmt 4.5, Leading zero omitted, Abs format (unit mm)*
G04 Created by KiCad (PCBNEW (5.99.0-12789-g9e557d84c6)) date 2021-11-25 19:20:46*
%MOMM*%
%LPD*%
G01*
G04 APERTURE LIST*
%TA.AperFunction,Profile*%
%ADD10C,0.100000*%
%TD*%
%ADD11C,0.200000*%
%ADD12C,0.040000*%
%ADD13C,0.069000*%
%ADD14C,0.075000*%
%ADD15C,0.080000*%
%ADD16C,0.090000*%
%ADD17C,0.100000*%
G04 APERTURE END LIST*
D10*
X11072500Y-4956000D02*
X14072500Y-4956000D01*
X14072500Y-4956000D02*
X14072500Y-14606000D01*
X14072500Y-14606000D02*
X11072500Y-14606000D01*
X11072500Y-14606000D02*
X11072500Y-4956000D01*
D11*
D12*
X12502500Y-7186000D02*
X12542500Y-7226000D01*
X12542500Y-7186000D02*
X12502500Y-7226000D01*
X12502500Y-11936000D02*
X12542500Y-11976000D01*
X12542500Y-11936000D02*
X12502500Y-11976000D01*
X12502500Y-14436000D02*
X12542500Y-14476000D01*
X12542500Y-14436000D02*
X12502500Y-14476000D01*
X12552500Y-6036000D02*
X12592500Y-6076000D01*
X12592500Y-6036000D02*
X12552500Y-6076000D01*
X12552500Y-8386000D02*
X12592500Y-8426000D01*
X12592500Y-8386000D02*
X12552500Y-8426000D01*
X12552500Y-9686000D02*
X12592500Y-9726000D01*
X12592500Y-9686000D02*
X12552500Y-9726000D01*
X12552500Y-10786000D02*
X12592500Y-10826000D01*
X12592500Y-10786000D02*
X12552500Y-10826000D01*
X12552500Y-13136000D02*
X12592500Y-13176000D01*
X12592500Y-13136000D02*
X12552500Y-13176000D01*
X12948750Y-7439750D02*
X12988750Y-7479750D01*
X12988750Y-7439750D02*
X12948750Y-7479750D01*
X12948750Y-12189750D02*
X12988750Y-12229750D01*
X12988750Y-12189750D02*
X12948750Y-12229750D01*
X13048750Y-7439750D02*
X13088750Y-7479750D01*
X13088750Y-7439750D02*
X13048750Y-7479750D01*
X13048750Y-12189750D02*
X13088750Y-12229750D01*
X13088750Y-12189750D02*
X13048750Y-12229750D01*
D13*
X11853000Y-5509000D02*
G75*
G03*
X11853000Y-5509000I-34500J0D01*
G01*
X11853000Y-6809000D02*
G75*
G03*
X11853000Y-6809000I-34500J0D01*
G01*
X11853000Y-7867000D02*
G75*
G03*
X11853000Y-7867000I-34500J0D01*
G01*
X11853000Y-9159000D02*
G75*
G03*
X11853000Y-9159000I-34500J0D01*
G01*
X11853000Y-10259000D02*
G75*
G03*
X11853000Y-10259000I-34500J0D01*
G01*
X11853000Y-11554000D02*
G75*
G03*
X11853000Y-11554000I-34500J0D01*
G01*
X11853000Y-12609000D02*
G75*
G03*
X11853000Y-12609000I-34500J0D01*
G01*
X11853000Y-13909000D02*
G75*
G03*
X11853000Y-13909000I-34500J0D01*
G01*
X12107000Y-5763000D02*
G75*
G03*
X12107000Y-5763000I-34500J0D01*
G01*
X12107000Y-7063000D02*
G75*
G03*
X12107000Y-7063000I-34500J0D01*
G01*
X12107000Y-8121000D02*
G75*
G03*
X12107000Y-8121000I-34500J0D01*
G01*
X12107000Y-9413000D02*
G75*
G03*
X12107000Y-9413000I-34500J0D01*
G01*
X12107000Y-10513000D02*
G75*
G03*
X12107000Y-10513000I-34500J0D01*
G01*
X12107000Y-11808000D02*
G75*
G03*
X12107000Y-11808000I-34500J0D01*
G01*
X12107000Y-12863000D02*
G75*
G03*
X12107000Y-12863000I-34500J0D01*
G01*
X12107000Y-14163000D02*
G75*
G03*
X12107000Y-14163000I-34500J0D01*
G01*
X12361000Y-5509000D02*
G75*
G03*
X12361000Y-5509000I-34500J0D01*
G01*
X12361000Y-6809000D02*
G75*
G03*
X12361000Y-6809000I-34500J0D01*
G01*
X12361000Y-7867000D02*
G75*
G03*
X12361000Y-7867000I-34500J0D01*
G01*
X12361000Y-9159000D02*
G75*
G03*
X12361000Y-9159000I-34500J0D01*
G01*
X12361000Y-10259000D02*
G75*
G03*
X12361000Y-10259000I-34500J0D01*
G01*
X12361000Y-11554000D02*
G75*
G03*
X12361000Y-11554000I-34500J0D01*
G01*
X12361000Y-12609000D02*
G75*
G03*
X12361000Y-12609000I-34500J0D01*
G01*
X12361000Y-13909000D02*
G75*
G03*
X12361000Y-13909000I-34500J0D01*
G01*
D14*
X13245500Y-13355750D02*
X13245500Y-13430750D01*
X13208000Y-13393250D02*
X13283000Y-13393250D01*
X13372500Y-13355750D02*
X13372500Y-13430750D01*
X13335000Y-13393250D02*
X13410000Y-13393250D01*
X13499500Y-13355750D02*
X13499500Y-13430750D01*
X13462000Y-13393250D02*
X13537000Y-13393250D01*
D15*
X12973334Y-12984284D02*
X12973334Y-12927715D01*
X12916765Y-12927715D01*
X12916765Y-12984284D01*
X12973334Y-12984284D01*
X13250784Y-12784284D02*
X13250784Y-12727715D01*
X13194215Y-12727715D01*
X13194215Y-12784284D01*
X13250784Y-12784284D01*
D16*
X11268500Y-5401000D02*
X11313500Y-5356000D01*
X11268500Y-5311000D01*
X11223500Y-5356000D01*
X11268500Y-5401000D01*
X11268500Y-6981000D02*
X11313500Y-6936000D01*
X11268500Y-6891000D01*
X11223500Y-6936000D01*
X11268500Y-6981000D01*
X11268500Y-7771000D02*
X11313500Y-7726000D01*
X11268500Y-7681000D01*
X11223500Y-7726000D01*
X11268500Y-7771000D01*
X11268500Y-9351000D02*
X11313500Y-9306000D01*
X11268500Y-9261000D01*
X11223500Y-9306000D01*
X11268500Y-9351000D01*
X11268500Y-10141000D02*
X11313500Y-10096000D01*
X11268500Y-10051000D01*
X11223500Y-10096000D01*
X11268500Y-10141000D01*
X11268500Y-11721000D02*
X11313500Y-11676000D01*
X11268500Y-11631000D01*
X11223500Y-11676000D01*
X11268500Y-11721000D01*
X11268500Y-12511000D02*
X11313500Y-12466000D01*
X11268500Y-12421000D01*
X11223500Y-12466000D01*
X11268500Y-12511000D01*
X11268500Y-14091000D02*
X11313500Y-14046000D01*
X11268500Y-14001000D01*
X11223500Y-14046000D01*
X11268500Y-14091000D01*
X11522500Y-5401000D02*
X11567500Y-5356000D01*
X11522500Y-5311000D01*
X11477500Y-5356000D01*
X11522500Y-5401000D01*
X11522500Y-6981000D02*
X11567500Y-6936000D01*
X11522500Y-6891000D01*
X11477500Y-6936000D01*
X11522500Y-6981000D01*
X11522500Y-7771000D02*
X11567500Y-7726000D01*
X11522500Y-7681000D01*
X11477500Y-7726000D01*
X11522500Y-7771000D01*
X11522500Y-9351000D02*
X11567500Y-9306000D01*
X11522500Y-9261000D01*
X11477500Y-9306000D01*
X11522500Y-9351000D01*
X11522500Y-10141000D02*
X11567500Y-10096000D01*
X11522500Y-10051000D01*
X11477500Y-10096000D01*
X11522500Y-10141000D01*
X11522500Y-11721000D02*
X11567500Y-11676000D01*
X11522500Y-11631000D01*
X11477500Y-11676000D01*
X11522500Y-11721000D01*
X11522500Y-12511000D02*
X11567500Y-12466000D01*
X11522500Y-12421000D01*
X11477500Y-12466000D01*
X11522500Y-12511000D01*
X11522500Y-14091000D02*
X11567500Y-14046000D01*
X11522500Y-14001000D01*
X11477500Y-14046000D01*
X11522500Y-14091000D01*
D17*
X12622500Y-5352000D02*
X12722500Y-5452000D01*
X12722500Y-5352000D02*
X12622500Y-5452000D01*
X12722500Y-5402000D02*
G75*
G03*
X12722500Y-5402000I-50000J0D01*
G01*
X12622500Y-5606000D02*
X12722500Y-5706000D01*
X12722500Y-5606000D02*
X12622500Y-5706000D01*
X12722500Y-5656000D02*
G75*
G03*
X12722500Y-5656000I-50000J0D01*
G01*
X12622500Y-6652000D02*
X12722500Y-6752000D01*
X12722500Y-6652000D02*
X12622500Y-6752000D01*
X12722500Y-6702000D02*
G75*
G03*
X12722500Y-6702000I-50000J0D01*
G01*
X12622500Y-6906000D02*
X12722500Y-7006000D01*
X12722500Y-6906000D02*
X12622500Y-7006000D01*
X12722500Y-6956000D02*
G75*
G03*
X12722500Y-6956000I-50000J0D01*
G01*
X12622500Y-7702000D02*
X12722500Y-7802000D01*
X12722500Y-7702000D02*
X12622500Y-7802000D01*
X12722500Y-7752000D02*
G75*
G03*
X12722500Y-7752000I-50000J0D01*
G01*
X12622500Y-7956000D02*
X12722500Y-8056000D01*
X12722500Y-7956000D02*
X12622500Y-8056000D01*
X12722500Y-8006000D02*
G75*
G03*
X12722500Y-8006000I-50000J0D01*
G01*
X12622500Y-9002000D02*
X12722500Y-9102000D01*
X12722500Y-9002000D02*
X12622500Y-9102000D01*
X12722500Y-9052000D02*
G75*
G03*
X12722500Y-9052000I-50000J0D01*
G01*
X12622500Y-9256000D02*
X12722500Y-9356000D01*
X12722500Y-9256000D02*
X12622500Y-9356000D01*
X12722500Y-9306000D02*
G75*
G03*
X12722500Y-9306000I-50000J0D01*
G01*
X12622500Y-10102000D02*
X12722500Y-10202000D01*
X12722500Y-10102000D02*
X12622500Y-10202000D01*
X12722500Y-10152000D02*
G75*
G03*
X12722500Y-10152000I-50000J0D01*
G01*
X12622500Y-10356000D02*
X12722500Y-10456000D01*
X12722500Y-10356000D02*
X12622500Y-10456000D01*
X12722500Y-10406000D02*
G75*
G03*
X12722500Y-10406000I-50000J0D01*
G01*
X12622500Y-11402000D02*
X12722500Y-11502000D01*
X12722500Y-11402000D02*
X12622500Y-11502000D01*
X12722500Y-11452000D02*
G75*
G03*
X12722500Y-11452000I-50000J0D01*
G01*
X12622500Y-11656000D02*
X12722500Y-11756000D01*
X12722500Y-11656000D02*
X12622500Y-11756000D01*
X12722500Y-11706000D02*
G75*
G03*
X12722500Y-11706000I-50000J0D01*
G01*
X12622500Y-12452000D02*
X12722500Y-12552000D01*
X12722500Y-12452000D02*
X12622500Y-12552000D01*
X12722500Y-12502000D02*
G75*
G03*
X12722500Y-12502000I-50000J0D01*
G01*
X12622500Y-12706000D02*
X12722500Y-12806000D01*
X12722500Y-12706000D02*
X12622500Y-12806000D01*
X12722500Y-12756000D02*
G75*
G03*
X12722500Y-12756000I-50000J0D01*
G01*
X12622500Y-13752000D02*
X12722500Y-13852000D01*
X12722500Y-13752000D02*
X12622500Y-13852000D01*
X12722500Y-13802000D02*
G75*
G03*
X12722500Y-13802000I-50000J0D01*
G01*
X12622500Y-14006000D02*
X12722500Y-14106000D01*
X12722500Y-14006000D02*
X12622500Y-14106000D01*
X12722500Y-14056000D02*
G75*
G03*
X12722500Y-14056000I-50000J0D01*
G01*
X13070000Y-14156000D02*
X13170000Y-14256000D01*
X13170000Y-14156000D02*
X13070000Y-14256000D01*
X13170000Y-14206000D02*
G75*
G03*
X13170000Y-14206000I-50000J0D01*
G01*
X13324000Y-14156000D02*
X13424000Y-14256000D01*
X13424000Y-14156000D02*
X13324000Y-14256000D01*
X13424000Y-14206000D02*
G75*
G03*
X13424000Y-14206000I-50000J0D01*
G01*
X13545000Y-6924000D02*
X13645000Y-7024000D01*
X13645000Y-6924000D02*
X13545000Y-7024000D01*
X13645000Y-6974000D02*
G75*
G03*
X13645000Y-6974000I-50000J0D01*
G01*
X13545000Y-7178000D02*
X13645000Y-7278000D01*
X13645000Y-7178000D02*
X13545000Y-7278000D01*
X13645000Y-7228000D02*
G75*
G03*
X13645000Y-7228000I-50000J0D01*
G01*
X13545000Y-7432000D02*
X13645000Y-7532000D01*
X13645000Y-7432000D02*
X13545000Y-7532000D01*
X13645000Y-7482000D02*
G75*
G03*
X13645000Y-7482000I-50000J0D01*
G01*
X13545000Y-7686000D02*
X13645000Y-7786000D01*
X13645000Y-7686000D02*
X13545000Y-7786000D01*
X13645000Y-7736000D02*
G75*
G03*
X13645000Y-7736000I-50000J0D01*
G01*
X13545000Y-11674000D02*
X13645000Y-11774000D01*
X13645000Y-11674000D02*
X13545000Y-11774000D01*
X13645000Y-11724000D02*
G75*
G03*
X13645000Y-11724000I-50000J0D01*
G01*
X13545000Y-11928000D02*
X13645000Y-12028000D01*
X13645000Y-11928000D02*
X13545000Y-12028000D01*
X13645000Y-11978000D02*
G75*
G03*
X13645000Y-11978000I-50000J0D01*
G01*
X13545000Y-12182000D02*
X13645000Y-12282000D01*
X13645000Y-12182000D02*
X13545000Y-12282000D01*
X13645000Y-12232000D02*
G75*
G03*
X13645000Y-12232000I-50000J0D01*
G01*
X13545000Y-12436000D02*
X13645000Y-12536000D01*
X13645000Y-12436000D02*
X13545000Y-12536000D01*
X13645000Y-12486000D02*
G75*
G03*
X13645000Y-12486000I-50000J0D01*
G01*
X13578000Y-14156000D02*
X13678000Y-14256000D01*
X13678000Y-14156000D02*
X13578000Y-14256000D01*
X13678000Y-14206000D02*
G75*
G03*
X13678000Y-14206000I-50000J0D01*
G01*
X13799000Y-6924000D02*
X13899000Y-7024000D01*
X13899000Y-6924000D02*
X13799000Y-7024000D01*
X13899000Y-6974000D02*
G75*
G03*
X13899000Y-6974000I-50000J0D01*
G01*
X13799000Y-7178000D02*
X13899000Y-7278000D01*
X13899000Y-7178000D02*
X13799000Y-7278000D01*
X13899000Y-7228000D02*
G75*
G03*
X13899000Y-7228000I-50000J0D01*
G01*
X13799000Y-7432000D02*
X13899000Y-7532000D01*
X13899000Y-7432000D02*
X13799000Y-7532000D01*
X13899000Y-7482000D02*
G75*
G03*
X13899000Y-7482000I-50000J0D01*
G01*
X13799000Y-7686000D02*
X13899000Y-7786000D01*
X13899000Y-7686000D02*
X13799000Y-7786000D01*
X13899000Y-7736000D02*
G75*
G03*
X13899000Y-7736000I-50000J0D01*
G01*
X13799000Y-11674000D02*
X13899000Y-11774000D01*
X13899000Y-11674000D02*
X13799000Y-11774000D01*
X13899000Y-11724000D02*
G75*
G03*
X13899000Y-11724000I-50000J0D01*
G01*
X13799000Y-11928000D02*
X13899000Y-12028000D01*
X13899000Y-11928000D02*
X13799000Y-12028000D01*
X13899000Y-11978000D02*
G75*
G03*
X13899000Y-11978000I-50000J0D01*
G01*
X13799000Y-12182000D02*
X13899000Y-12282000D01*
X13899000Y-12182000D02*
X13799000Y-12282000D01*
X13899000Y-12232000D02*
G75*
G03*
X13899000Y-12232000I-50000J0D01*
G01*
X13799000Y-12436000D02*
X13899000Y-12536000D01*
X13899000Y-12436000D02*
X13799000Y-12536000D01*
X13899000Y-12486000D02*
G75*
G03*
X13899000Y-12486000I-50000J0D01*
G01*
D11*
X11325119Y-14921476D02*
X11325119Y-14721476D01*
X11372738Y-14721476D01*
X11401309Y-14731000D01*
X11420357Y-14750048D01*
X11429881Y-14769095D01*
X11439405Y-14807190D01*
X11439405Y-14835762D01*
X11429881Y-14873857D01*
X11420357Y-14892905D01*
X11401309Y-14911952D01*
X11372738Y-14921476D01*
X11325119Y-14921476D01*
X11525119Y-14921476D02*
X11525119Y-14788143D01*
X11525119Y-14826238D02*
X11534643Y-14807190D01*
X11544167Y-14797667D01*
X11563214Y-14788143D01*
X11582262Y-14788143D01*
X11648928Y-14921476D02*
X11648928Y-14788143D01*
X11648928Y-14721476D02*
X11639405Y-14731000D01*
X11648928Y-14740524D01*
X11658452Y-14731000D01*
X11648928Y-14721476D01*
X11648928Y-14740524D01*
X11772738Y-14921476D02*
X11753690Y-14911952D01*
X11744167Y-14892905D01*
X11744167Y-14721476D01*
X11877500Y-14921476D02*
X11858452Y-14911952D01*
X11848928Y-14892905D01*
X11848928Y-14721476D01*
X12106071Y-14921476D02*
X12106071Y-14721476D01*
X12172738Y-14864333D01*
X12239405Y-14721476D01*
X12239405Y-14921476D01*
X12420357Y-14921476D02*
X12420357Y-14816714D01*
X12410833Y-14797667D01*
X12391786Y-14788143D01*
X12353690Y-14788143D01*
X12334643Y-14797667D01*
X12420357Y-14911952D02*
X12401309Y-14921476D01*
X12353690Y-14921476D01*
X12334643Y-14911952D01*
X12325119Y-14892905D01*
X12325119Y-14873857D01*
X12334643Y-14854809D01*
X12353690Y-14845286D01*
X12401309Y-14845286D01*
X12420357Y-14835762D01*
X12515595Y-14788143D02*
X12515595Y-14988143D01*
X12515595Y-14797667D02*
X12534643Y-14788143D01*
X12572738Y-14788143D01*
X12591786Y-14797667D01*
X12601309Y-14807190D01*
X12610833Y-14826238D01*
X12610833Y-14883381D01*
X12601309Y-14902428D01*
X12591786Y-14911952D01*
X12572738Y-14921476D01*
X12534643Y-14921476D01*
X12515595Y-14911952D01*
X12696548Y-14902428D02*
X12706071Y-14911952D01*
X12696548Y-14921476D01*
X12687024Y-14911952D01*
X12696548Y-14902428D01*
X12696548Y-14921476D01*
X12696548Y-14797667D02*
X12706071Y-14807190D01*
X12696548Y-14816714D01*
X12687024Y-14807190D01*
X12696548Y-14797667D01*
X12696548Y-14816714D01*
D12*
X11027500Y-15231000D02*
X11067500Y-15271000D01*
X11067500Y-15231000D02*
X11027500Y-15271000D01*
D11*
X11363214Y-15141476D02*
X11382262Y-15141476D01*
X11401309Y-15151000D01*
X11410833Y-15160524D01*
X11420357Y-15179571D01*
X11429881Y-15217667D01*
X11429881Y-15265286D01*
X11420357Y-15303381D01*
X11410833Y-15322428D01*
X11401309Y-15331952D01*
X11382262Y-15341476D01*
X11363214Y-15341476D01*
X11344167Y-15331952D01*
X11334643Y-15322428D01*
X11325119Y-15303381D01*
X11315595Y-15265286D01*
X11315595Y-15217667D01*
X11325119Y-15179571D01*
X11334643Y-15160524D01*
X11344167Y-15151000D01*
X11363214Y-15141476D01*
X11515595Y-15322428D02*
X11525119Y-15331952D01*
X11515595Y-15341476D01*
X11506071Y-15331952D01*
X11515595Y-15322428D01*
X11515595Y-15341476D01*
X11696548Y-15208143D02*
X11696548Y-15341476D01*
X11648928Y-15131952D02*
X11601309Y-15274809D01*
X11725119Y-15274809D01*
X11839405Y-15141476D02*
X11858452Y-15141476D01*
X11877500Y-15151000D01*
X11887024Y-15160524D01*
X11896548Y-15179571D01*
X11906071Y-15217667D01*
X11906071Y-15265286D01*
X11896548Y-15303381D01*
X11887024Y-15322428D01*
X11877500Y-15331952D01*
X11858452Y-15341476D01*
X11839405Y-15341476D01*
X11820357Y-15331952D01*
X11810833Y-15322428D01*
X11801309Y-15303381D01*
X11791786Y-15265286D01*
X11791786Y-15217667D01*
X11801309Y-15179571D01*
X11810833Y-15160524D01*
X11820357Y-15151000D01*
X11839405Y-15141476D01*
X12029881Y-15141476D02*
X12048928Y-15141476D01*
X12067976Y-15151000D01*
X12077500Y-15160524D01*
X12087024Y-15179571D01*
X12096548Y-15217667D01*
X12096548Y-15265286D01*
X12087024Y-15303381D01*
X12077500Y-15322428D01*
X12067976Y-15331952D01*
X12048928Y-15341476D01*
X12029881Y-15341476D01*
X12010833Y-15331952D01*
X12001309Y-15322428D01*
X11991786Y-15303381D01*
X11982262Y-15265286D01*
X11982262Y-15217667D01*
X11991786Y-15179571D01*
X12001309Y-15160524D01*
X12010833Y-15151000D01*
X12029881Y-15141476D01*
X12182262Y-15341476D02*
X12182262Y-15208143D01*
X12182262Y-15227190D02*
X12191786Y-15217667D01*
X12210833Y-15208143D01*
X12239405Y-15208143D01*
X12258452Y-15217667D01*
X12267976Y-15236714D01*
X12267976Y-15341476D01*
X12267976Y-15236714D02*
X12277500Y-15217667D01*
X12296548Y-15208143D01*
X12325119Y-15208143D01*
X12344167Y-15217667D01*
X12353690Y-15236714D01*
X12353690Y-15341476D01*
X12448928Y-15341476D02*
X12448928Y-15208143D01*
X12448928Y-15227190D02*
X12458452Y-15217667D01*
X12477500Y-15208143D01*
X12506071Y-15208143D01*
X12525119Y-15217667D01*
X12534643Y-15236714D01*
X12534643Y-15341476D01*
X12534643Y-15236714D02*
X12544167Y-15217667D01*
X12563214Y-15208143D01*
X12591786Y-15208143D01*
X12610833Y-15217667D01*
X12620357Y-15236714D01*
X12620357Y-15341476D01*
X13010833Y-15131952D02*
X12839405Y-15389095D01*
X13267976Y-15141476D02*
X13287024Y-15141476D01*
X13306071Y-15151000D01*
X13315595Y-15160524D01*
X13325119Y-15179571D01*
X13334643Y-15217667D01*
X13334643Y-15265286D01*
X13325119Y-15303381D01*
X13315595Y-15322428D01*
X13306071Y-15331952D01*
X13287024Y-15341476D01*
X13267976Y-15341476D01*
X13248928Y-15331952D01*
X13239405Y-15322428D01*
X13229881Y-15303381D01*
X13220357Y-15265286D01*
X13220357Y-15217667D01*
X13229881Y-15179571D01*
X13239405Y-15160524D01*
X13248928Y-15151000D01*
X13267976Y-15141476D01*
X13420357Y-15322428D02*
X13429881Y-15331952D01*
X13420357Y-15341476D01*
X13410833Y-15331952D01*
X13420357Y-15322428D01*
X13420357Y-15341476D01*
X13553690Y-15141476D02*
X13572738Y-15141476D01*
X13591786Y-15151000D01*
X13601309Y-15160524D01*
X13610833Y-15179571D01*
X13620357Y-15217667D01*
X13620357Y-15265286D01*
X13610833Y-15303381D01*
X13601309Y-15322428D01*
X13591786Y-15331952D01*
X13572738Y-15341476D01*
X13553690Y-15341476D01*
X13534643Y-15331952D01*
X13525119Y-15322428D01*
X13515595Y-15303381D01*
X13506071Y-15265286D01*
X13506071Y-15217667D01*
X13515595Y-15179571D01*
X13525119Y-15160524D01*
X13534643Y-15151000D01*
X13553690Y-15141476D01*
X13810833Y-15341476D02*
X13696548Y-15341476D01*
X13753690Y-15341476D02*
X13753690Y-15141476D01*
X13734643Y-15170048D01*
X13715595Y-15189095D01*
X13696548Y-15198619D01*
X13991786Y-15141476D02*
X13896548Y-15141476D01*
X13887024Y-15236714D01*
X13896548Y-15227190D01*
X13915595Y-15217667D01*
X13963214Y-15217667D01*
X13982262Y-15227190D01*
X13991786Y-15236714D01*
X14001309Y-15255762D01*
X14001309Y-15303381D01*
X13991786Y-15322428D01*
X13982262Y-15331952D01*
X13963214Y-15341476D01*
X13915595Y-15341476D01*
X13896548Y-15331952D01*
X13887024Y-15322428D01*
X14067976Y-15141476D02*
X14201309Y-15141476D01*
X14115595Y-15341476D01*
X14267976Y-15141476D02*
X14267976Y-15179571D01*
X14344167Y-15141476D02*
X14344167Y-15179571D01*
X14639405Y-15417667D02*
X14629881Y-15408143D01*
X14610833Y-15379571D01*
X14601309Y-15360524D01*
X14591786Y-15331952D01*
X14582262Y-15284333D01*
X14582262Y-15246238D01*
X14591786Y-15198619D01*
X14601309Y-15170048D01*
X14610833Y-15151000D01*
X14629881Y-15122428D01*
X14639405Y-15112905D01*
X14820357Y-15341476D02*
X14706071Y-15341476D01*
X14763214Y-15341476D02*
X14763214Y-15141476D01*
X14744167Y-15170048D01*
X14725119Y-15189095D01*
X14706071Y-15198619D01*
X14896548Y-15160524D02*
X14906071Y-15151000D01*
X14925119Y-15141476D01*
X14972738Y-15141476D01*
X14991786Y-15151000D01*
X15001309Y-15160524D01*
X15010833Y-15179571D01*
X15010833Y-15198619D01*
X15001309Y-15227190D01*
X14887024Y-15341476D01*
X15010833Y-15341476D01*
X15248928Y-15341476D02*
X15248928Y-15141476D01*
X15334643Y-15341476D02*
X15334643Y-15236714D01*
X15325119Y-15217667D01*
X15306071Y-15208143D01*
X15277500Y-15208143D01*
X15258452Y-15217667D01*
X15248928Y-15227190D01*
X15458452Y-15341476D02*
X15439405Y-15331952D01*
X15429881Y-15322428D01*
X15420357Y-15303381D01*
X15420357Y-15246238D01*
X15429881Y-15227190D01*
X15439405Y-15217667D01*
X15458452Y-15208143D01*
X15487024Y-15208143D01*
X15506071Y-15217667D01*
X15515595Y-15227190D01*
X15525119Y-15246238D01*
X15525119Y-15303381D01*
X15515595Y-15322428D01*
X15506071Y-15331952D01*
X15487024Y-15341476D01*
X15458452Y-15341476D01*
X15639405Y-15341476D02*
X15620357Y-15331952D01*
X15610833Y-15312905D01*
X15610833Y-15141476D01*
X15791786Y-15331952D02*
X15772738Y-15341476D01*
X15734643Y-15341476D01*
X15715595Y-15331952D01*
X15706071Y-15312905D01*
X15706071Y-15236714D01*
X15715595Y-15217667D01*
X15734643Y-15208143D01*
X15772738Y-15208143D01*
X15791786Y-15217667D01*
X15801309Y-15236714D01*
X15801309Y-15255762D01*
X15706071Y-15274809D01*
X15877500Y-15331952D02*
X15896548Y-15341476D01*
X15934643Y-15341476D01*
X15953690Y-15331952D01*
X15963214Y-15312905D01*
X15963214Y-15303381D01*
X15953690Y-15284333D01*
X15934643Y-15274809D01*
X15906071Y-15274809D01*
X15887024Y-15265286D01*
X15877500Y-15246238D01*
X15877500Y-15236714D01*
X15887024Y-15217667D01*
X15906071Y-15208143D01*
X15934643Y-15208143D01*
X15953690Y-15217667D01*
X16029881Y-15417667D02*
X16039405Y-15408143D01*
X16058452Y-15379571D01*
X16067976Y-15360524D01*
X16077500Y-15331952D01*
X16087024Y-15284333D01*
X16087024Y-15246238D01*
X16077500Y-15198619D01*
X16067976Y-15170048D01*
X16058452Y-15151000D01*
X16039405Y-15122428D01*
X16029881Y-15112905D01*
D13*
X11067500Y-15515000D02*
G75*
G03*
X11067500Y-15515000I-34500J0D01*
G01*
D11*
X11363214Y-15405476D02*
X11382262Y-15405476D01*
X11401309Y-15415000D01*
X11410833Y-15424524D01*
X11420357Y-15443571D01*
X11429881Y-15481667D01*
X11429881Y-15529286D01*
X11420357Y-15567381D01*
X11410833Y-15586428D01*
X11401309Y-15595952D01*
X11382262Y-15605476D01*
X11363214Y-15605476D01*
X11344167Y-15595952D01*
X11334643Y-15586428D01*
X11325119Y-15567381D01*
X11315595Y-15529286D01*
X11315595Y-15481667D01*
X11325119Y-15443571D01*
X11334643Y-15424524D01*
X11344167Y-15415000D01*
X11363214Y-15405476D01*
X11515595Y-15586428D02*
X11525119Y-15595952D01*
X11515595Y-15605476D01*
X11506071Y-15595952D01*
X11515595Y-15586428D01*
X11515595Y-15605476D01*
X11696548Y-15405476D02*
X11658452Y-15405476D01*
X11639405Y-15415000D01*
X11629881Y-15424524D01*
X11610833Y-15453095D01*
X11601309Y-15491190D01*
X11601309Y-15567381D01*
X11610833Y-15586428D01*
X11620357Y-15595952D01*
X11639405Y-15605476D01*
X11677500Y-15605476D01*
X11696548Y-15595952D01*
X11706071Y-15586428D01*
X11715595Y-15567381D01*
X11715595Y-15519762D01*
X11706071Y-15500714D01*
X11696548Y-15491190D01*
X11677500Y-15481667D01*
X11639405Y-15481667D01*
X11620357Y-15491190D01*
X11610833Y-15500714D01*
X11601309Y-15519762D01*
X11810833Y-15605476D02*
X11848928Y-15605476D01*
X11867976Y-15595952D01*
X11877500Y-15586428D01*
X11896548Y-15557857D01*
X11906071Y-15519762D01*
X11906071Y-15443571D01*
X11896548Y-15424524D01*
X11887024Y-15415000D01*
X11867976Y-15405476D01*
X11829881Y-15405476D01*
X11810833Y-15415000D01*
X11801309Y-15424524D01*
X11791786Y-15443571D01*
X11791786Y-15491190D01*
X11801309Y-15510238D01*
X11810833Y-15519762D01*
X11829881Y-15529286D01*
X11867976Y-15529286D01*
X11887024Y-15519762D01*
X11896548Y-15510238D01*
X11906071Y-15491190D01*
X12029881Y-15405476D02*
X12048928Y-15405476D01*
X12067976Y-15415000D01*
X12077500Y-15424524D01*
X12087024Y-15443571D01*
X12096548Y-15481667D01*
X12096548Y-15529286D01*
X12087024Y-15567381D01*
X12077500Y-15586428D01*
X12067976Y-15595952D01*
X12048928Y-15605476D01*
X12029881Y-15605476D01*
X12010833Y-15595952D01*
X12001309Y-15586428D01*
X11991786Y-15567381D01*
X11982262Y-15529286D01*
X11982262Y-15481667D01*
X11991786Y-15443571D01*
X12001309Y-15424524D01*
X12010833Y-15415000D01*
X12029881Y-15405476D01*
X12182262Y-15605476D02*
X12182262Y-15472143D01*
X12182262Y-15491190D02*
X12191786Y-15481667D01*
X12210833Y-15472143D01*
X12239405Y-15472143D01*
X12258452Y-15481667D01*
X12267976Y-15500714D01*
X12267976Y-15605476D01*
X12267976Y-15500714D02*
X12277500Y-15481667D01*
X12296548Y-15472143D01*
X12325119Y-15472143D01*
X12344167Y-15481667D01*
X12353690Y-15500714D01*
X12353690Y-15605476D01*
X12448928Y-15605476D02*
X12448928Y-15472143D01*
X12448928Y-15491190D02*
X12458452Y-15481667D01*
X12477500Y-15472143D01*
X12506071Y-15472143D01*
X12525119Y-15481667D01*
X12534643Y-15500714D01*
X12534643Y-15605476D01*
X12534643Y-15500714D02*
X12544167Y-15481667D01*
X12563214Y-15472143D01*
X12591786Y-15472143D01*
X12610833Y-15481667D01*
X12620357Y-15500714D01*
X12620357Y-15605476D01*
X13010833Y-15395952D02*
X12839405Y-15653095D01*
X13267976Y-15405476D02*
X13287024Y-15405476D01*
X13306071Y-15415000D01*
X13315595Y-15424524D01*
X13325119Y-15443571D01*
X13334643Y-15481667D01*
X13334643Y-15529286D01*
X13325119Y-15567381D01*
X13315595Y-15586428D01*
X13306071Y-15595952D01*
X13287024Y-15605476D01*
X13267976Y-15605476D01*
X13248928Y-15595952D01*
X13239405Y-15586428D01*
X13229881Y-15567381D01*
X13220357Y-15529286D01*
X13220357Y-15481667D01*
X13229881Y-15443571D01*
X13239405Y-15424524D01*
X13248928Y-15415000D01*
X13267976Y-15405476D01*
X13420357Y-15586428D02*
X13429881Y-15595952D01*
X13420357Y-15605476D01*
X13410833Y-15595952D01*
X13420357Y-15586428D01*
X13420357Y-15605476D01*
X13553690Y-15405476D02*
X13572738Y-15405476D01*
X13591786Y-15415000D01*
X13601309Y-15424524D01*
X13610833Y-15443571D01*
X13620357Y-15481667D01*
X13620357Y-15529286D01*
X13610833Y-15567381D01*
X13601309Y-15586428D01*
X13591786Y-15595952D01*
X13572738Y-15605476D01*
X13553690Y-15605476D01*
X13534643Y-15595952D01*
X13525119Y-15586428D01*
X13515595Y-15567381D01*
X13506071Y-15529286D01*
X13506071Y-15481667D01*
X13515595Y-15443571D01*
X13525119Y-15424524D01*
X13534643Y-15415000D01*
X13553690Y-15405476D01*
X13696548Y-15424524D02*
X13706071Y-15415000D01*
X13725119Y-15405476D01*
X13772738Y-15405476D01*
X13791786Y-15415000D01*
X13801309Y-15424524D01*
X13810833Y-15443571D01*
X13810833Y-15462619D01*
X13801309Y-15491190D01*
X13687024Y-15605476D01*
X13810833Y-15605476D01*
X13877500Y-15405476D02*
X14010833Y-15405476D01*
X13925119Y-15605476D01*
X14077500Y-15424524D02*
X14087024Y-15415000D01*
X14106071Y-15405476D01*
X14153690Y-15405476D01*
X14172738Y-15415000D01*
X14182262Y-15424524D01*
X14191786Y-15443571D01*
X14191786Y-15462619D01*
X14182262Y-15491190D01*
X14067976Y-15605476D01*
X14191786Y-15605476D01*
X14267976Y-15405476D02*
X14267976Y-15443571D01*
X14344167Y-15405476D02*
X14344167Y-15443571D01*
X14639405Y-15681667D02*
X14629881Y-15672143D01*
X14610833Y-15643571D01*
X14601309Y-15624524D01*
X14591786Y-15595952D01*
X14582262Y-15548333D01*
X14582262Y-15510238D01*
X14591786Y-15462619D01*
X14601309Y-15434048D01*
X14610833Y-15415000D01*
X14629881Y-15386428D01*
X14639405Y-15376905D01*
X14706071Y-15424524D02*
X14715595Y-15415000D01*
X14734643Y-15405476D01*
X14782262Y-15405476D01*
X14801309Y-15415000D01*
X14810833Y-15424524D01*
X14820357Y-15443571D01*
X14820357Y-15462619D01*
X14810833Y-15491190D01*
X14696548Y-15605476D01*
X14820357Y-15605476D01*
X14991786Y-15472143D02*
X14991786Y-15605476D01*
X14944167Y-15395952D02*
X14896548Y-15538809D01*
X15020357Y-15538809D01*
X15248928Y-15605476D02*
X15248928Y-15405476D01*
X15334643Y-15605476D02*
X15334643Y-15500714D01*
X15325119Y-15481667D01*
X15306071Y-15472143D01*
X15277500Y-15472143D01*
X15258452Y-15481667D01*
X15248928Y-15491190D01*
X15458452Y-15605476D02*
X15439405Y-15595952D01*
X15429881Y-15586428D01*
X15420357Y-15567381D01*
X15420357Y-15510238D01*
X15429881Y-15491190D01*
X15439405Y-15481667D01*
X15458452Y-15472143D01*
X15487024Y-15472143D01*
X15506071Y-15481667D01*
X15515595Y-15491190D01*
X15525119Y-15510238D01*
X15525119Y-15567381D01*
X15515595Y-15586428D01*
X15506071Y-15595952D01*
X15487024Y-15605476D01*
X15458452Y-15605476D01*
X15639405Y-15605476D02*
X15620357Y-15595952D01*
X15610833Y-15576905D01*
X15610833Y-15405476D01*
X15791786Y-15595952D02*
X15772738Y-15605476D01*
X15734643Y-15605476D01*
X15715595Y-15595952D01*
X15706071Y-15576905D01*
X15706071Y-15500714D01*
X15715595Y-15481667D01*
X15734643Y-15472143D01*
X15772738Y-15472143D01*
X15791786Y-15481667D01*
X15801309Y-15500714D01*
X15801309Y-15519762D01*
X15706071Y-15538809D01*
X15877500Y-15595952D02*
X15896548Y-15605476D01*
X15934643Y-15605476D01*
X15953690Y-15595952D01*
X15963214Y-15576905D01*
X15963214Y-15567381D01*
X15953690Y-15548333D01*
X15934643Y-15538809D01*
X15906071Y-15538809D01*
X15887024Y-15529286D01*
X15877500Y-15510238D01*
X15877500Y-15500714D01*
X15887024Y-15481667D01*
X15906071Y-15472143D01*
X15934643Y-15472143D01*
X15953690Y-15481667D01*
X16029881Y-15681667D02*
X16039405Y-15672143D01*
X16058452Y-15643571D01*
X16067976Y-15624524D01*
X16077500Y-15595952D01*
X16087024Y-15548333D01*
X16087024Y-15510238D01*
X16077500Y-15462619D01*
X16067976Y-15434048D01*
X16058452Y-15415000D01*
X16039405Y-15386428D01*
X16029881Y-15376905D01*
D14*
X11030000Y-15741500D02*
X11030000Y-15816500D01*
X10992500Y-15779000D02*
X11067500Y-15779000D01*
D11*
X11363214Y-15669476D02*
X11382262Y-15669476D01*
X11401309Y-15679000D01*
X11410833Y-15688524D01*
X11420357Y-15707571D01*
X11429881Y-15745667D01*
X11429881Y-15793286D01*
X11420357Y-15831381D01*
X11410833Y-15850428D01*
X11401309Y-15859952D01*
X11382262Y-15869476D01*
X11363214Y-15869476D01*
X11344167Y-15859952D01*
X11334643Y-15850428D01*
X11325119Y-15831381D01*
X11315595Y-15793286D01*
X11315595Y-15745667D01*
X11325119Y-15707571D01*
X11334643Y-15688524D01*
X11344167Y-15679000D01*
X11363214Y-15669476D01*
X11515595Y-15850428D02*
X11525119Y-15859952D01*
X11515595Y-15869476D01*
X11506071Y-15859952D01*
X11515595Y-15850428D01*
X11515595Y-15869476D01*
X11591786Y-15669476D02*
X11725119Y-15669476D01*
X11639405Y-15869476D01*
X11896548Y-15669476D02*
X11801309Y-15669476D01*
X11791786Y-15764714D01*
X11801309Y-15755190D01*
X11820357Y-15745667D01*
X11867976Y-15745667D01*
X11887024Y-15755190D01*
X11896548Y-15764714D01*
X11906071Y-15783762D01*
X11906071Y-15831381D01*
X11896548Y-15850428D01*
X11887024Y-15859952D01*
X11867976Y-15869476D01*
X11820357Y-15869476D01*
X11801309Y-15859952D01*
X11791786Y-15850428D01*
X12029881Y-15669476D02*
X12048928Y-15669476D01*
X12067976Y-15679000D01*
X12077500Y-15688524D01*
X12087024Y-15707571D01*
X12096548Y-15745667D01*
X12096548Y-15793286D01*
X12087024Y-15831381D01*
X12077500Y-15850428D01*
X12067976Y-15859952D01*
X12048928Y-15869476D01*
X12029881Y-15869476D01*
X12010833Y-15859952D01*
X12001309Y-15850428D01*
X11991786Y-15831381D01*
X11982262Y-15793286D01*
X11982262Y-15745667D01*
X11991786Y-15707571D01*
X12001309Y-15688524D01*
X12010833Y-15679000D01*
X12029881Y-15669476D01*
X12182262Y-15869476D02*
X12182262Y-15736143D01*
X12182262Y-15755190D02*
X12191786Y-15745667D01*
X12210833Y-15736143D01*
X12239405Y-15736143D01*
X12258452Y-15745667D01*
X12267976Y-15764714D01*
X12267976Y-15869476D01*
X12267976Y-15764714D02*
X12277500Y-15745667D01*
X12296548Y-15736143D01*
X12325119Y-15736143D01*
X12344167Y-15745667D01*
X12353690Y-15764714D01*
X12353690Y-15869476D01*
X12448928Y-15869476D02*
X12448928Y-15736143D01*
X12448928Y-15755190D02*
X12458452Y-15745667D01*
X12477500Y-15736143D01*
X12506071Y-15736143D01*
X12525119Y-15745667D01*
X12534643Y-15764714D01*
X12534643Y-15869476D01*
X12534643Y-15764714D02*
X12544167Y-15745667D01*
X12563214Y-15736143D01*
X12591786Y-15736143D01*
X12610833Y-15745667D01*
X12620357Y-15764714D01*
X12620357Y-15869476D01*
X13010833Y-15659952D02*
X12839405Y-15917095D01*
X13267976Y-15669476D02*
X13287024Y-15669476D01*
X13306071Y-15679000D01*
X13315595Y-15688524D01*
X13325119Y-15707571D01*
X13334643Y-15745667D01*
X13334643Y-15793286D01*
X13325119Y-15831381D01*
X13315595Y-15850428D01*
X13306071Y-15859952D01*
X13287024Y-15869476D01*
X13267976Y-15869476D01*
X13248928Y-15859952D01*
X13239405Y-15850428D01*
X13229881Y-15831381D01*
X13220357Y-15793286D01*
X13220357Y-15745667D01*
X13229881Y-15707571D01*
X13239405Y-15688524D01*
X13248928Y-15679000D01*
X13267976Y-15669476D01*
X13420357Y-15850428D02*
X13429881Y-15859952D01*
X13420357Y-15869476D01*
X13410833Y-15859952D01*
X13420357Y-15850428D01*
X13420357Y-15869476D01*
X13553690Y-15669476D02*
X13572738Y-15669476D01*
X13591786Y-15679000D01*
X13601309Y-15688524D01*
X13610833Y-15707571D01*
X13620357Y-15745667D01*
X13620357Y-15793286D01*
X13610833Y-15831381D01*
X13601309Y-15850428D01*
X13591786Y-15859952D01*
X13572738Y-15869476D01*
X13553690Y-15869476D01*
X13534643Y-15859952D01*
X13525119Y-15850428D01*
X13515595Y-15831381D01*
X13506071Y-15793286D01*
X13506071Y-15745667D01*
X13515595Y-15707571D01*
X13525119Y-15688524D01*
X13534643Y-15679000D01*
X13553690Y-15669476D01*
X13696548Y-15688524D02*
X13706071Y-15679000D01*
X13725119Y-15669476D01*
X13772738Y-15669476D01*
X13791786Y-15679000D01*
X13801309Y-15688524D01*
X13810833Y-15707571D01*
X13810833Y-15726619D01*
X13801309Y-15755190D01*
X13687024Y-15869476D01*
X13810833Y-15869476D01*
X13906071Y-15869476D02*
X13944167Y-15869476D01*
X13963214Y-15859952D01*
X13972738Y-15850428D01*
X13991786Y-15821857D01*
X14001309Y-15783762D01*
X14001309Y-15707571D01*
X13991786Y-15688524D01*
X13982262Y-15679000D01*
X13963214Y-15669476D01*
X13925119Y-15669476D01*
X13906071Y-15679000D01*
X13896548Y-15688524D01*
X13887024Y-15707571D01*
X13887024Y-15755190D01*
X13896548Y-15774238D01*
X13906071Y-15783762D01*
X13925119Y-15793286D01*
X13963214Y-15793286D01*
X13982262Y-15783762D01*
X13991786Y-15774238D01*
X14001309Y-15755190D01*
X14182262Y-15669476D02*
X14087024Y-15669476D01*
X14077500Y-15764714D01*
X14087024Y-15755190D01*
X14106071Y-15745667D01*
X14153690Y-15745667D01*
X14172738Y-15755190D01*
X14182262Y-15764714D01*
X14191786Y-15783762D01*
X14191786Y-15831381D01*
X14182262Y-15850428D01*
X14172738Y-15859952D01*
X14153690Y-15869476D01*
X14106071Y-15869476D01*
X14087024Y-15859952D01*
X14077500Y-15850428D01*
X14267976Y-15669476D02*
X14267976Y-15707571D01*
X14344167Y-15669476D02*
X14344167Y-15707571D01*
X14639405Y-15945667D02*
X14629881Y-15936143D01*
X14610833Y-15907571D01*
X14601309Y-15888524D01*
X14591786Y-15859952D01*
X14582262Y-15812333D01*
X14582262Y-15774238D01*
X14591786Y-15726619D01*
X14601309Y-15698048D01*
X14610833Y-15679000D01*
X14629881Y-15650428D01*
X14639405Y-15640905D01*
X14696548Y-15669476D02*
X14820357Y-15669476D01*
X14753690Y-15745667D01*
X14782262Y-15745667D01*
X14801309Y-15755190D01*
X14810833Y-15764714D01*
X14820357Y-15783762D01*
X14820357Y-15831381D01*
X14810833Y-15850428D01*
X14801309Y-15859952D01*
X14782262Y-15869476D01*
X14725119Y-15869476D01*
X14706071Y-15859952D01*
X14696548Y-15850428D01*
X15058452Y-15869476D02*
X15058452Y-15669476D01*
X15144167Y-15869476D02*
X15144167Y-15764714D01*
X15134643Y-15745667D01*
X15115595Y-15736143D01*
X15087024Y-15736143D01*
X15067976Y-15745667D01*
X15058452Y-15755190D01*
X15267976Y-15869476D02*
X15248928Y-15859952D01*
X15239405Y-15850428D01*
X15229881Y-15831381D01*
X15229881Y-15774238D01*
X15239405Y-15755190D01*
X15248928Y-15745667D01*
X15267976Y-15736143D01*
X15296548Y-15736143D01*
X15315595Y-15745667D01*
X15325119Y-15755190D01*
X15334643Y-15774238D01*
X15334643Y-15831381D01*
X15325119Y-15850428D01*
X15315595Y-15859952D01*
X15296548Y-15869476D01*
X15267976Y-15869476D01*
X15448928Y-15869476D02*
X15429881Y-15859952D01*
X15420357Y-15840905D01*
X15420357Y-15669476D01*
X15601309Y-15859952D02*
X15582262Y-15869476D01*
X15544167Y-15869476D01*
X15525119Y-15859952D01*
X15515595Y-15840905D01*
X15515595Y-15764714D01*
X15525119Y-15745667D01*
X15544167Y-15736143D01*
X15582262Y-15736143D01*
X15601309Y-15745667D01*
X15610833Y-15764714D01*
X15610833Y-15783762D01*
X15515595Y-15802809D01*
X15687024Y-15859952D02*
X15706071Y-15869476D01*
X15744167Y-15869476D01*
X15763214Y-15859952D01*
X15772738Y-15840905D01*
X15772738Y-15831381D01*
X15763214Y-15812333D01*
X15744167Y-15802809D01*
X15715595Y-15802809D01*
X15696548Y-15793286D01*
X15687024Y-15774238D01*
X15687024Y-15764714D01*
X15696548Y-15745667D01*
X15715595Y-15736143D01*
X15744167Y-15736143D01*
X15763214Y-15745667D01*
X15839405Y-15945667D02*
X15848928Y-15936143D01*
X15867976Y-15907571D01*
X15877500Y-15888524D01*
X15887024Y-15859952D01*
X15896548Y-15812333D01*
X15896548Y-15774238D01*
X15887024Y-15726619D01*
X15877500Y-15698048D01*
X15867976Y-15679000D01*
X15848928Y-15650428D01*
X15839405Y-15640905D01*
D15*
X11055785Y-16071284D02*
X11055785Y-16014715D01*
X10999216Y-16014715D01*
X10999216Y-16071284D01*
X11055785Y-16071284D01*
D11*
X11363214Y-15933476D02*
X11382262Y-15933476D01*
X11401309Y-15943000D01*
X11410833Y-15952524D01*
X11420357Y-15971571D01*
X11429881Y-16009667D01*
X11429881Y-16057286D01*
X11420357Y-16095381D01*
X11410833Y-16114428D01*
X11401309Y-16123952D01*
X11382262Y-16133476D01*
X11363214Y-16133476D01*
X11344167Y-16123952D01*
X11334643Y-16114428D01*
X11325119Y-16095381D01*
X11315595Y-16057286D01*
X11315595Y-16009667D01*
X11325119Y-15971571D01*
X11334643Y-15952524D01*
X11344167Y-15943000D01*
X11363214Y-15933476D01*
X11515595Y-16114428D02*
X11525119Y-16123952D01*
X11515595Y-16133476D01*
X11506071Y-16123952D01*
X11515595Y-16114428D01*
X11515595Y-16133476D01*
X11639405Y-16019190D02*
X11620357Y-16009667D01*
X11610833Y-16000143D01*
X11601309Y-15981095D01*
X11601309Y-15971571D01*
X11610833Y-15952524D01*
X11620357Y-15943000D01*
X11639405Y-15933476D01*
X11677500Y-15933476D01*
X11696548Y-15943000D01*
X11706071Y-15952524D01*
X11715595Y-15971571D01*
X11715595Y-15981095D01*
X11706071Y-16000143D01*
X11696548Y-16009667D01*
X11677500Y-16019190D01*
X11639405Y-16019190D01*
X11620357Y-16028714D01*
X11610833Y-16038238D01*
X11601309Y-16057286D01*
X11601309Y-16095381D01*
X11610833Y-16114428D01*
X11620357Y-16123952D01*
X11639405Y-16133476D01*
X11677500Y-16133476D01*
X11696548Y-16123952D01*
X11706071Y-16114428D01*
X11715595Y-16095381D01*
X11715595Y-16057286D01*
X11706071Y-16038238D01*
X11696548Y-16028714D01*
X11677500Y-16019190D01*
X11839405Y-15933476D02*
X11858452Y-15933476D01*
X11877500Y-15943000D01*
X11887024Y-15952524D01*
X11896548Y-15971571D01*
X11906071Y-16009667D01*
X11906071Y-16057286D01*
X11896548Y-16095381D01*
X11887024Y-16114428D01*
X11877500Y-16123952D01*
X11858452Y-16133476D01*
X11839405Y-16133476D01*
X11820357Y-16123952D01*
X11810833Y-16114428D01*
X11801309Y-16095381D01*
X11791786Y-16057286D01*
X11791786Y-16009667D01*
X11801309Y-15971571D01*
X11810833Y-15952524D01*
X11820357Y-15943000D01*
X11839405Y-15933476D01*
X12029881Y-15933476D02*
X12048928Y-15933476D01*
X12067976Y-15943000D01*
X12077500Y-15952524D01*
X12087024Y-15971571D01*
X12096548Y-16009667D01*
X12096548Y-16057286D01*
X12087024Y-16095381D01*
X12077500Y-16114428D01*
X12067976Y-16123952D01*
X12048928Y-16133476D01*
X12029881Y-16133476D01*
X12010833Y-16123952D01*
X12001309Y-16114428D01*
X11991786Y-16095381D01*
X11982262Y-16057286D01*
X11982262Y-16009667D01*
X11991786Y-15971571D01*
X12001309Y-15952524D01*
X12010833Y-15943000D01*
X12029881Y-15933476D01*
X12182262Y-16133476D02*
X12182262Y-16000143D01*
X12182262Y-16019190D02*
X12191786Y-16009667D01*
X12210833Y-16000143D01*
X12239405Y-16000143D01*
X12258452Y-16009667D01*
X12267976Y-16028714D01*
X12267976Y-16133476D01*
X12267976Y-16028714D02*
X12277500Y-16009667D01*
X12296548Y-16000143D01*
X12325119Y-16000143D01*
X12344167Y-16009667D01*
X12353690Y-16028714D01*
X12353690Y-16133476D01*
X12448928Y-16133476D02*
X12448928Y-16000143D01*
X12448928Y-16019190D02*
X12458452Y-16009667D01*
X12477500Y-16000143D01*
X12506071Y-16000143D01*
X12525119Y-16009667D01*
X12534643Y-16028714D01*
X12534643Y-16133476D01*
X12534643Y-16028714D02*
X12544167Y-16009667D01*
X12563214Y-16000143D01*
X12591786Y-16000143D01*
X12610833Y-16009667D01*
X12620357Y-16028714D01*
X12620357Y-16133476D01*
X13010833Y-15923952D02*
X12839405Y-16181095D01*
X13267976Y-15933476D02*
X13287024Y-15933476D01*
X13306071Y-15943000D01*
X13315595Y-15952524D01*
X13325119Y-15971571D01*
X13334643Y-16009667D01*
X13334643Y-16057286D01*
X13325119Y-16095381D01*
X13315595Y-16114428D01*
X13306071Y-16123952D01*
X13287024Y-16133476D01*
X13267976Y-16133476D01*
X13248928Y-16123952D01*
X13239405Y-16114428D01*
X13229881Y-16095381D01*
X13220357Y-16057286D01*
X13220357Y-16009667D01*
X13229881Y-15971571D01*
X13239405Y-15952524D01*
X13248928Y-15943000D01*
X13267976Y-15933476D01*
X13420357Y-16114428D02*
X13429881Y-16123952D01*
X13420357Y-16133476D01*
X13410833Y-16123952D01*
X13420357Y-16114428D01*
X13420357Y-16133476D01*
X13553690Y-15933476D02*
X13572738Y-15933476D01*
X13591786Y-15943000D01*
X13601309Y-15952524D01*
X13610833Y-15971571D01*
X13620357Y-16009667D01*
X13620357Y-16057286D01*
X13610833Y-16095381D01*
X13601309Y-16114428D01*
X13591786Y-16123952D01*
X13572738Y-16133476D01*
X13553690Y-16133476D01*
X13534643Y-16123952D01*
X13525119Y-16114428D01*
X13515595Y-16095381D01*
X13506071Y-16057286D01*
X13506071Y-16009667D01*
X13515595Y-15971571D01*
X13525119Y-15952524D01*
X13534643Y-15943000D01*
X13553690Y-15933476D01*
X13687024Y-15933476D02*
X13810833Y-15933476D01*
X13744167Y-16009667D01*
X13772738Y-16009667D01*
X13791786Y-16019190D01*
X13801309Y-16028714D01*
X13810833Y-16047762D01*
X13810833Y-16095381D01*
X13801309Y-16114428D01*
X13791786Y-16123952D01*
X13772738Y-16133476D01*
X13715595Y-16133476D01*
X13696548Y-16123952D01*
X13687024Y-16114428D01*
X14001309Y-16133476D02*
X13887024Y-16133476D01*
X13944167Y-16133476D02*
X13944167Y-15933476D01*
X13925119Y-15962048D01*
X13906071Y-15981095D01*
X13887024Y-15990619D01*
X14182262Y-15933476D02*
X14087024Y-15933476D01*
X14077500Y-16028714D01*
X14087024Y-16019190D01*
X14106071Y-16009667D01*
X14153690Y-16009667D01*
X14172738Y-16019190D01*
X14182262Y-16028714D01*
X14191786Y-16047762D01*
X14191786Y-16095381D01*
X14182262Y-16114428D01*
X14172738Y-16123952D01*
X14153690Y-16133476D01*
X14106071Y-16133476D01*
X14087024Y-16123952D01*
X14077500Y-16114428D01*
X14267976Y-15933476D02*
X14267976Y-15971571D01*
X14344167Y-15933476D02*
X14344167Y-15971571D01*
X14639405Y-16209667D02*
X14629881Y-16200143D01*
X14610833Y-16171571D01*
X14601309Y-16152524D01*
X14591786Y-16123952D01*
X14582262Y-16076333D01*
X14582262Y-16038238D01*
X14591786Y-15990619D01*
X14601309Y-15962048D01*
X14610833Y-15943000D01*
X14629881Y-15914428D01*
X14639405Y-15904905D01*
X14706071Y-15952524D02*
X14715595Y-15943000D01*
X14734643Y-15933476D01*
X14782262Y-15933476D01*
X14801309Y-15943000D01*
X14810833Y-15952524D01*
X14820357Y-15971571D01*
X14820357Y-15990619D01*
X14810833Y-16019190D01*
X14696548Y-16133476D01*
X14820357Y-16133476D01*
X15058452Y-16133476D02*
X15058452Y-15933476D01*
X15144167Y-16133476D02*
X15144167Y-16028714D01*
X15134643Y-16009667D01*
X15115595Y-16000143D01*
X15087024Y-16000143D01*
X15067976Y-16009667D01*
X15058452Y-16019190D01*
X15267976Y-16133476D02*
X15248928Y-16123952D01*
X15239405Y-16114428D01*
X15229881Y-16095381D01*
X15229881Y-16038238D01*
X15239405Y-16019190D01*
X15248928Y-16009667D01*
X15267976Y-16000143D01*
X15296548Y-16000143D01*
X15315595Y-16009667D01*
X15325119Y-16019190D01*
X15334643Y-16038238D01*
X15334643Y-16095381D01*
X15325119Y-16114428D01*
X15315595Y-16123952D01*
X15296548Y-16133476D01*
X15267976Y-16133476D01*
X15448928Y-16133476D02*
X15429881Y-16123952D01*
X15420357Y-16104905D01*
X15420357Y-15933476D01*
X15601309Y-16123952D02*
X15582262Y-16133476D01*
X15544167Y-16133476D01*
X15525119Y-16123952D01*
X15515595Y-16104905D01*
X15515595Y-16028714D01*
X15525119Y-16009667D01*
X15544167Y-16000143D01*
X15582262Y-16000143D01*
X15601309Y-16009667D01*
X15610833Y-16028714D01*
X15610833Y-16047762D01*
X15515595Y-16066809D01*
X15687024Y-16123952D02*
X15706071Y-16133476D01*
X15744167Y-16133476D01*
X15763214Y-16123952D01*
X15772738Y-16104905D01*
X15772738Y-16095381D01*
X15763214Y-16076333D01*
X15744167Y-16066809D01*
X15715595Y-16066809D01*
X15696548Y-16057286D01*
X15687024Y-16038238D01*
X15687024Y-16028714D01*
X15696548Y-16009667D01*
X15715595Y-16000143D01*
X15744167Y-16000143D01*
X15763214Y-16009667D01*
X15839405Y-16209667D02*
X15848928Y-16200143D01*
X15867976Y-16171571D01*
X15877500Y-16152524D01*
X15887024Y-16123952D01*
X15896548Y-16076333D01*
X15896548Y-16038238D01*
X15887024Y-15990619D01*
X15877500Y-15962048D01*
X15867976Y-15943000D01*
X15848928Y-15914428D01*
X15839405Y-15904905D01*
D16*
X11022500Y-16352000D02*
X11067500Y-16307000D01*
X11022500Y-16262000D01*
X10977500Y-16307000D01*
X11022500Y-16352000D01*
D11*
X11363214Y-16197476D02*
X11382262Y-16197476D01*
X11401309Y-16207000D01*
X11410833Y-16216524D01*
X11420357Y-16235571D01*
X11429881Y-16273667D01*
X11429881Y-16321286D01*
X11420357Y-16359381D01*
X11410833Y-16378428D01*
X11401309Y-16387952D01*
X11382262Y-16397476D01*
X11363214Y-16397476D01*
X11344167Y-16387952D01*
X11334643Y-16378428D01*
X11325119Y-16359381D01*
X11315595Y-16321286D01*
X11315595Y-16273667D01*
X11325119Y-16235571D01*
X11334643Y-16216524D01*
X11344167Y-16207000D01*
X11363214Y-16197476D01*
X11515595Y-16378428D02*
X11525119Y-16387952D01*
X11515595Y-16397476D01*
X11506071Y-16387952D01*
X11515595Y-16378428D01*
X11515595Y-16397476D01*
X11620357Y-16397476D02*
X11658452Y-16397476D01*
X11677500Y-16387952D01*
X11687024Y-16378428D01*
X11706071Y-16349857D01*
X11715595Y-16311762D01*
X11715595Y-16235571D01*
X11706071Y-16216524D01*
X11696548Y-16207000D01*
X11677500Y-16197476D01*
X11639405Y-16197476D01*
X11620357Y-16207000D01*
X11610833Y-16216524D01*
X11601309Y-16235571D01*
X11601309Y-16283190D01*
X11610833Y-16302238D01*
X11620357Y-16311762D01*
X11639405Y-16321286D01*
X11677500Y-16321286D01*
X11696548Y-16311762D01*
X11706071Y-16302238D01*
X11715595Y-16283190D01*
X11839405Y-16197476D02*
X11858452Y-16197476D01*
X11877500Y-16207000D01*
X11887024Y-16216524D01*
X11896548Y-16235571D01*
X11906071Y-16273667D01*
X11906071Y-16321286D01*
X11896548Y-16359381D01*
X11887024Y-16378428D01*
X11877500Y-16387952D01*
X11858452Y-16397476D01*
X11839405Y-16397476D01*
X11820357Y-16387952D01*
X11810833Y-16378428D01*
X11801309Y-16359381D01*
X11791786Y-16321286D01*
X11791786Y-16273667D01*
X11801309Y-16235571D01*
X11810833Y-16216524D01*
X11820357Y-16207000D01*
X11839405Y-16197476D01*
X12029881Y-16197476D02*
X12048928Y-16197476D01*
X12067976Y-16207000D01*
X12077500Y-16216524D01*
X12087024Y-16235571D01*
X12096548Y-16273667D01*
X12096548Y-16321286D01*
X12087024Y-16359381D01*
X12077500Y-16378428D01*
X12067976Y-16387952D01*
X12048928Y-16397476D01*
X12029881Y-16397476D01*
X12010833Y-16387952D01*
X12001309Y-16378428D01*
X11991786Y-16359381D01*
X11982262Y-16321286D01*
X11982262Y-16273667D01*
X11991786Y-16235571D01*
X12001309Y-16216524D01*
X12010833Y-16207000D01*
X12029881Y-16197476D01*
X12182262Y-16397476D02*
X12182262Y-16264143D01*
X12182262Y-16283190D02*
X12191786Y-16273667D01*
X12210833Y-16264143D01*
X12239405Y-16264143D01*
X12258452Y-16273667D01*
X12267976Y-16292714D01*
X12267976Y-16397476D01*
X12267976Y-16292714D02*
X12277500Y-16273667D01*
X12296548Y-16264143D01*
X12325119Y-16264143D01*
X12344167Y-16273667D01*
X12353690Y-16292714D01*
X12353690Y-16397476D01*
X12448928Y-16397476D02*
X12448928Y-16264143D01*
X12448928Y-16283190D02*
X12458452Y-16273667D01*
X12477500Y-16264143D01*
X12506071Y-16264143D01*
X12525119Y-16273667D01*
X12534643Y-16292714D01*
X12534643Y-16397476D01*
X12534643Y-16292714D02*
X12544167Y-16273667D01*
X12563214Y-16264143D01*
X12591786Y-16264143D01*
X12610833Y-16273667D01*
X12620357Y-16292714D01*
X12620357Y-16397476D01*
X13010833Y-16187952D02*
X12839405Y-16445095D01*
X13267976Y-16197476D02*
X13287024Y-16197476D01*
X13306071Y-16207000D01*
X13315595Y-16216524D01*
X13325119Y-16235571D01*
X13334643Y-16273667D01*
X13334643Y-16321286D01*
X13325119Y-16359381D01*
X13315595Y-16378428D01*
X13306071Y-16387952D01*
X13287024Y-16397476D01*
X13267976Y-16397476D01*
X13248928Y-16387952D01*
X13239405Y-16378428D01*
X13229881Y-16359381D01*
X13220357Y-16321286D01*
X13220357Y-16273667D01*
X13229881Y-16235571D01*
X13239405Y-16216524D01*
X13248928Y-16207000D01*
X13267976Y-16197476D01*
X13420357Y-16378428D02*
X13429881Y-16387952D01*
X13420357Y-16397476D01*
X13410833Y-16387952D01*
X13420357Y-16378428D01*
X13420357Y-16397476D01*
X13553690Y-16197476D02*
X13572738Y-16197476D01*
X13591786Y-16207000D01*
X13601309Y-16216524D01*
X13610833Y-16235571D01*
X13620357Y-16273667D01*
X13620357Y-16321286D01*
X13610833Y-16359381D01*
X13601309Y-16378428D01*
X13591786Y-16387952D01*
X13572738Y-16397476D01*
X13553690Y-16397476D01*
X13534643Y-16387952D01*
X13525119Y-16378428D01*
X13515595Y-16359381D01*
X13506071Y-16321286D01*
X13506071Y-16273667D01*
X13515595Y-16235571D01*
X13525119Y-16216524D01*
X13534643Y-16207000D01*
X13553690Y-16197476D01*
X13687024Y-16197476D02*
X13810833Y-16197476D01*
X13744167Y-16273667D01*
X13772738Y-16273667D01*
X13791786Y-16283190D01*
X13801309Y-16292714D01*
X13810833Y-16311762D01*
X13810833Y-16359381D01*
X13801309Y-16378428D01*
X13791786Y-16387952D01*
X13772738Y-16397476D01*
X13715595Y-16397476D01*
X13696548Y-16387952D01*
X13687024Y-16378428D01*
X13991786Y-16197476D02*
X13896548Y-16197476D01*
X13887024Y-16292714D01*
X13896548Y-16283190D01*
X13915595Y-16273667D01*
X13963214Y-16273667D01*
X13982262Y-16283190D01*
X13991786Y-16292714D01*
X14001309Y-16311762D01*
X14001309Y-16359381D01*
X13991786Y-16378428D01*
X13982262Y-16387952D01*
X13963214Y-16397476D01*
X13915595Y-16397476D01*
X13896548Y-16387952D01*
X13887024Y-16378428D01*
X14172738Y-16264143D02*
X14172738Y-16397476D01*
X14125119Y-16187952D02*
X14077500Y-16330809D01*
X14201309Y-16330809D01*
X14267976Y-16197476D02*
X14267976Y-16235571D01*
X14344167Y-16197476D02*
X14344167Y-16235571D01*
X14639405Y-16473667D02*
X14629881Y-16464143D01*
X14610833Y-16435571D01*
X14601309Y-16416524D01*
X14591786Y-16387952D01*
X14582262Y-16340333D01*
X14582262Y-16302238D01*
X14591786Y-16254619D01*
X14601309Y-16226048D01*
X14610833Y-16207000D01*
X14629881Y-16178428D01*
X14639405Y-16168905D01*
X14820357Y-16397476D02*
X14706071Y-16397476D01*
X14763214Y-16397476D02*
X14763214Y-16197476D01*
X14744167Y-16226048D01*
X14725119Y-16245095D01*
X14706071Y-16254619D01*
X14991786Y-16197476D02*
X14953690Y-16197476D01*
X14934643Y-16207000D01*
X14925119Y-16216524D01*
X14906071Y-16245095D01*
X14896548Y-16283190D01*
X14896548Y-16359381D01*
X14906071Y-16378428D01*
X14915595Y-16387952D01*
X14934643Y-16397476D01*
X14972738Y-16397476D01*
X14991786Y-16387952D01*
X15001309Y-16378428D01*
X15010833Y-16359381D01*
X15010833Y-16311762D01*
X15001309Y-16292714D01*
X14991786Y-16283190D01*
X14972738Y-16273667D01*
X14934643Y-16273667D01*
X14915595Y-16283190D01*
X14906071Y-16292714D01*
X14896548Y-16311762D01*
X15248928Y-16397476D02*
X15248928Y-16197476D01*
X15334643Y-16397476D02*
X15334643Y-16292714D01*
X15325119Y-16273667D01*
X15306071Y-16264143D01*
X15277500Y-16264143D01*
X15258452Y-16273667D01*
X15248928Y-16283190D01*
X15458452Y-16397476D02*
X15439405Y-16387952D01*
X15429881Y-16378428D01*
X15420357Y-16359381D01*
X15420357Y-16302238D01*
X15429881Y-16283190D01*
X15439405Y-16273667D01*
X15458452Y-16264143D01*
X15487024Y-16264143D01*
X15506071Y-16273667D01*
X15515595Y-16283190D01*
X15525119Y-16302238D01*
X15525119Y-16359381D01*
X15515595Y-16378428D01*
X15506071Y-16387952D01*
X15487024Y-16397476D01*
X15458452Y-16397476D01*
X15639405Y-16397476D02*
X15620357Y-16387952D01*
X15610833Y-16368905D01*
X15610833Y-16197476D01*
X15791786Y-16387952D02*
X15772738Y-16397476D01*
X15734643Y-16397476D01*
X15715595Y-16387952D01*
X15706071Y-16368905D01*
X15706071Y-16292714D01*
X15715595Y-16273667D01*
X15734643Y-16264143D01*
X15772738Y-16264143D01*
X15791786Y-16273667D01*
X15801309Y-16292714D01*
X15801309Y-16311762D01*
X15706071Y-16330809D01*
X15877500Y-16387952D02*
X15896548Y-16397476D01*
X15934643Y-16397476D01*
X15953690Y-16387952D01*
X15963214Y-16368905D01*
X15963214Y-16359381D01*
X15953690Y-16340333D01*
X15934643Y-16330809D01*
X15906071Y-16330809D01*
X15887024Y-16321286D01*
X15877500Y-16302238D01*
X15877500Y-16292714D01*
X15887024Y-16273667D01*
X15906071Y-16264143D01*
X15934643Y-16264143D01*
X15953690Y-16273667D01*
X16029881Y-16473667D02*
X16039405Y-16464143D01*
X16058452Y-16435571D01*
X16067976Y-16416524D01*
X16077500Y-16387952D01*
X16087024Y-16340333D01*
X16087024Y-16302238D01*
X16077500Y-16254619D01*
X16067976Y-16226048D01*
X16058452Y-16207000D01*
X16039405Y-16178428D01*
X16029881Y-16168905D01*
D17*
X10967500Y-16521000D02*
X11067500Y-16621000D01*
X11067500Y-16521000D02*
X10967500Y-16621000D01*
X11067500Y-16571000D02*
G75*
G03*
X11067500Y-16571000I-50000J0D01*
G01*
D11*
X11429881Y-16661476D02*
X11315595Y-16661476D01*
X11372738Y-16661476D02*
X11372738Y-16461476D01*
X11353690Y-16490048D01*
X11334643Y-16509095D01*
X11315595Y-16518619D01*
X11515595Y-16642428D02*
X11525119Y-16651952D01*
X11515595Y-16661476D01*
X11506071Y-16651952D01*
X11515595Y-16642428D01*
X11515595Y-16661476D01*
X11648928Y-16461476D02*
X11667976Y-16461476D01*
X11687024Y-16471000D01*
X11696548Y-16480524D01*
X11706071Y-16499571D01*
X11715595Y-16537667D01*
X11715595Y-16585286D01*
X11706071Y-16623381D01*
X11696548Y-16642428D01*
X11687024Y-16651952D01*
X11667976Y-16661476D01*
X11648928Y-16661476D01*
X11629881Y-16651952D01*
X11620357Y-16642428D01*
X11610833Y-16623381D01*
X11601309Y-16585286D01*
X11601309Y-16537667D01*
X11610833Y-16499571D01*
X11620357Y-16480524D01*
X11629881Y-16471000D01*
X11648928Y-16461476D01*
X11839405Y-16461476D02*
X11858452Y-16461476D01*
X11877500Y-16471000D01*
X11887024Y-16480524D01*
X11896548Y-16499571D01*
X11906071Y-16537667D01*
X11906071Y-16585286D01*
X11896548Y-16623381D01*
X11887024Y-16642428D01*
X11877500Y-16651952D01*
X11858452Y-16661476D01*
X11839405Y-16661476D01*
X11820357Y-16651952D01*
X11810833Y-16642428D01*
X11801309Y-16623381D01*
X11791786Y-16585286D01*
X11791786Y-16537667D01*
X11801309Y-16499571D01*
X11810833Y-16480524D01*
X11820357Y-16471000D01*
X11839405Y-16461476D01*
X12029881Y-16461476D02*
X12048928Y-16461476D01*
X12067976Y-16471000D01*
X12077500Y-16480524D01*
X12087024Y-16499571D01*
X12096548Y-16537667D01*
X12096548Y-16585286D01*
X12087024Y-16623381D01*
X12077500Y-16642428D01*
X12067976Y-16651952D01*
X12048928Y-16661476D01*
X12029881Y-16661476D01*
X12010833Y-16651952D01*
X12001309Y-16642428D01*
X11991786Y-16623381D01*
X11982262Y-16585286D01*
X11982262Y-16537667D01*
X11991786Y-16499571D01*
X12001309Y-16480524D01*
X12010833Y-16471000D01*
X12029881Y-16461476D01*
X12182262Y-16661476D02*
X12182262Y-16528143D01*
X12182262Y-16547190D02*
X12191786Y-16537667D01*
X12210833Y-16528143D01*
X12239405Y-16528143D01*
X12258452Y-16537667D01*
X12267976Y-16556714D01*
X12267976Y-16661476D01*
X12267976Y-16556714D02*
X12277500Y-16537667D01*
X12296548Y-16528143D01*
X12325119Y-16528143D01*
X12344167Y-16537667D01*
X12353690Y-16556714D01*
X12353690Y-16661476D01*
X12448928Y-16661476D02*
X12448928Y-16528143D01*
X12448928Y-16547190D02*
X12458452Y-16537667D01*
X12477500Y-16528143D01*
X12506071Y-16528143D01*
X12525119Y-16537667D01*
X12534643Y-16556714D01*
X12534643Y-16661476D01*
X12534643Y-16556714D02*
X12544167Y-16537667D01*
X12563214Y-16528143D01*
X12591786Y-16528143D01*
X12610833Y-16537667D01*
X12620357Y-16556714D01*
X12620357Y-16661476D01*
X13010833Y-16451952D02*
X12839405Y-16709095D01*
X13267976Y-16461476D02*
X13287024Y-16461476D01*
X13306071Y-16471000D01*
X13315595Y-16480524D01*
X13325119Y-16499571D01*
X13334643Y-16537667D01*
X13334643Y-16585286D01*
X13325119Y-16623381D01*
X13315595Y-16642428D01*
X13306071Y-16651952D01*
X13287024Y-16661476D01*
X13267976Y-16661476D01*
X13248928Y-16651952D01*
X13239405Y-16642428D01*
X13229881Y-16623381D01*
X13220357Y-16585286D01*
X13220357Y-16537667D01*
X13229881Y-16499571D01*
X13239405Y-16480524D01*
X13248928Y-16471000D01*
X13267976Y-16461476D01*
X13420357Y-16642428D02*
X13429881Y-16651952D01*
X13420357Y-16661476D01*
X13410833Y-16651952D01*
X13420357Y-16642428D01*
X13420357Y-16661476D01*
X13553690Y-16461476D02*
X13572738Y-16461476D01*
X13591786Y-16471000D01*
X13601309Y-16480524D01*
X13610833Y-16499571D01*
X13620357Y-16537667D01*
X13620357Y-16585286D01*
X13610833Y-16623381D01*
X13601309Y-16642428D01*
X13591786Y-16651952D01*
X13572738Y-16661476D01*
X13553690Y-16661476D01*
X13534643Y-16651952D01*
X13525119Y-16642428D01*
X13515595Y-16623381D01*
X13506071Y-16585286D01*
X13506071Y-16537667D01*
X13515595Y-16499571D01*
X13525119Y-16480524D01*
X13534643Y-16471000D01*
X13553690Y-16461476D01*
X13687024Y-16461476D02*
X13810833Y-16461476D01*
X13744167Y-16537667D01*
X13772738Y-16537667D01*
X13791786Y-16547190D01*
X13801309Y-16556714D01*
X13810833Y-16575762D01*
X13810833Y-16623381D01*
X13801309Y-16642428D01*
X13791786Y-16651952D01*
X13772738Y-16661476D01*
X13715595Y-16661476D01*
X13696548Y-16651952D01*
X13687024Y-16642428D01*
X13906071Y-16661476D02*
X13944167Y-16661476D01*
X13963214Y-16651952D01*
X13972738Y-16642428D01*
X13991786Y-16613857D01*
X14001309Y-16575762D01*
X14001309Y-16499571D01*
X13991786Y-16480524D01*
X13982262Y-16471000D01*
X13963214Y-16461476D01*
X13925119Y-16461476D01*
X13906071Y-16471000D01*
X13896548Y-16480524D01*
X13887024Y-16499571D01*
X13887024Y-16547190D01*
X13896548Y-16566238D01*
X13906071Y-16575762D01*
X13925119Y-16585286D01*
X13963214Y-16585286D01*
X13982262Y-16575762D01*
X13991786Y-16566238D01*
X14001309Y-16547190D01*
X14172738Y-16528143D02*
X14172738Y-16661476D01*
X14125119Y-16451952D02*
X14077500Y-16594809D01*
X14201309Y-16594809D01*
X14267976Y-16461476D02*
X14267976Y-16499571D01*
X14344167Y-16461476D02*
X14344167Y-16499571D01*
X14639405Y-16737667D02*
X14629881Y-16728143D01*
X14610833Y-16699571D01*
X14601309Y-16680524D01*
X14591786Y-16651952D01*
X14582262Y-16604333D01*
X14582262Y-16566238D01*
X14591786Y-16518619D01*
X14601309Y-16490048D01*
X14610833Y-16471000D01*
X14629881Y-16442428D01*
X14639405Y-16432905D01*
X14696548Y-16461476D02*
X14820357Y-16461476D01*
X14753690Y-16537667D01*
X14782262Y-16537667D01*
X14801309Y-16547190D01*
X14810833Y-16556714D01*
X14820357Y-16575762D01*
X14820357Y-16623381D01*
X14810833Y-16642428D01*
X14801309Y-16651952D01*
X14782262Y-16661476D01*
X14725119Y-16661476D01*
X14706071Y-16651952D01*
X14696548Y-16642428D01*
X15001309Y-16461476D02*
X14906071Y-16461476D01*
X14896548Y-16556714D01*
X14906071Y-16547190D01*
X14925119Y-16537667D01*
X14972738Y-16537667D01*
X14991786Y-16547190D01*
X15001309Y-16556714D01*
X15010833Y-16575762D01*
X15010833Y-16623381D01*
X15001309Y-16642428D01*
X14991786Y-16651952D01*
X14972738Y-16661476D01*
X14925119Y-16661476D01*
X14906071Y-16651952D01*
X14896548Y-16642428D01*
X15248928Y-16661476D02*
X15248928Y-16461476D01*
X15334643Y-16661476D02*
X15334643Y-16556714D01*
X15325119Y-16537667D01*
X15306071Y-16528143D01*
X15277500Y-16528143D01*
X15258452Y-16537667D01*
X15248928Y-16547190D01*
X15458452Y-16661476D02*
X15439405Y-16651952D01*
X15429881Y-16642428D01*
X15420357Y-16623381D01*
X15420357Y-16566238D01*
X15429881Y-16547190D01*
X15439405Y-16537667D01*
X15458452Y-16528143D01*
X15487024Y-16528143D01*
X15506071Y-16537667D01*
X15515595Y-16547190D01*
X15525119Y-16566238D01*
X15525119Y-16623381D01*
X15515595Y-16642428D01*
X15506071Y-16651952D01*
X15487024Y-16661476D01*
X15458452Y-16661476D01*
X15639405Y-16661476D02*
X15620357Y-16651952D01*
X15610833Y-16632905D01*
X15610833Y-16461476D01*
X15791786Y-16651952D02*
X15772738Y-16661476D01*
X15734643Y-16661476D01*
X15715595Y-16651952D01*
X15706071Y-16632905D01*
X15706071Y-16556714D01*
X15715595Y-16537667D01*
X15734643Y-16528143D01*
X15772738Y-16528143D01*
X15791786Y-16537667D01*
X15801309Y-16556714D01*
X15801309Y-16575762D01*
X15706071Y-16594809D01*
X15877500Y-16651952D02*
X15896548Y-16661476D01*
X15934643Y-16661476D01*
X15953690Y-16651952D01*
X15963214Y-16632905D01*
X15963214Y-16623381D01*
X15953690Y-16604333D01*
X15934643Y-16594809D01*
X15906071Y-16594809D01*
X15887024Y-16585286D01*
X15877500Y-16566238D01*
X15877500Y-16556714D01*
X15887024Y-16537667D01*
X15906071Y-16528143D01*
X15934643Y-16528143D01*
X15953690Y-16537667D01*
X16029881Y-16737667D02*
X16039405Y-16728143D01*
X16058452Y-16699571D01*
X16067976Y-16680524D01*
X16077500Y-16651952D01*
X16087024Y-16604333D01*
X16087024Y-16566238D01*
X16077500Y-16518619D01*
X16067976Y-16490048D01*
X16058452Y-16471000D01*
X16039405Y-16442428D01*
X16029881Y-16432905D01*
M02*
