%TF.GenerationSoftware,KiCad,Pcbnew,(5.99.0-12789-g9e557d84c6)*%
%TF.CreationDate,2021-11-25T19:19:57-08:00*%
%TF.ProjectId,Detector,44657465-6374-46f7-922e-6b696361645f,rev?*%
%TF.SameCoordinates,Original*%
%TF.FileFunction,Copper,L1,Top*%
%TF.FilePolarity,Positive*%
%FSLAX46Y46*%
G04 Gerber Fmt 4.6, Leading zero omitted, Abs format (unit mm)*
G04 Created by KiCad (PCBNEW (5.99.0-12789-g9e557d84c6)) date 2021-11-25 19:19:57*
%MOMM*%
%LPD*%
G01*
G04 APERTURE LIST*
G04 Aperture macros list*
%AMRoundRect*
0 Rectangle with rounded corners*
0 $1 Rounding radius*
0 $2 $3 $4 $5 $6 $7 $8 $9 X,Y pos of 4 corners*
0 Add a 4 corners polygon primitive as box body*
4,1,4,$2,$3,$4,$5,$6,$7,$8,$9,$2,$3,0*
0 Add four circle primitives for the rounded corners*
1,1,$1+$1,$2,$3*
1,1,$1+$1,$4,$5*
1,1,$1+$1,$6,$7*
1,1,$1+$1,$8,$9*
0 Add four rect primitives between the rounded corners*
20,1,$1+$1,$2,$3,$4,$5,0*
20,1,$1+$1,$4,$5,$6,$7,0*
20,1,$1+$1,$6,$7,$8,$9,0*
20,1,$1+$1,$8,$9,$2,$3,0*%
G04 Aperture macros list end*
%TA.AperFunction,ComponentPad*%
%ADD10R,1.700000X1.700000*%
%TD*%
%TA.AperFunction,ComponentPad*%
%ADD11O,1.700000X1.700000*%
%TD*%
%TA.AperFunction,SMDPad,CuDef*%
%ADD12RoundRect,0.250000X-0.337500X-0.475000X0.337500X-0.475000X0.337500X0.475000X-0.337500X0.475000X0*%
%TD*%
%TA.AperFunction,ComponentPad*%
%ADD13R,1.800000X1.800000*%
%TD*%
%TA.AperFunction,ComponentPad*%
%ADD14C,1.800000*%
%TD*%
%TA.AperFunction,SMDPad,CuDef*%
%ADD15RoundRect,0.250000X-0.350000X-0.450000X0.350000X-0.450000X0.350000X0.450000X-0.350000X0.450000X0*%
%TD*%
%TA.AperFunction,SMDPad,CuDef*%
%ADD16RoundRect,0.250000X-0.475000X0.337500X-0.475000X-0.337500X0.475000X-0.337500X0.475000X0.337500X0*%
%TD*%
%TA.AperFunction,SMDPad,CuDef*%
%ADD17RoundRect,0.100000X-0.100000X0.637500X-0.100000X-0.637500X0.100000X-0.637500X0.100000X0.637500X0*%
%TD*%
%TA.AperFunction,SMDPad,CuDef*%
%ADD18RoundRect,0.250000X-0.412500X-0.650000X0.412500X-0.650000X0.412500X0.650000X-0.412500X0.650000X0*%
%TD*%
%TA.AperFunction,SMDPad,CuDef*%
%ADD19R,1.000000X1.500000*%
%TD*%
%TA.AperFunction,SMDPad,CuDef*%
%ADD20RoundRect,0.250000X0.412500X0.650000X-0.412500X0.650000X-0.412500X-0.650000X0.412500X-0.650000X0*%
%TD*%
%TA.AperFunction,ComponentPad*%
%ADD21C,1.120000*%
%TD*%
%TA.AperFunction,ComponentPad*%
%ADD22R,1.050000X1.500000*%
%TD*%
%TA.AperFunction,ComponentPad*%
%ADD23O,1.050000X1.500000*%
%TD*%
%TA.AperFunction,ViaPad*%
%ADD24C,1.600000*%
%TD*%
%TA.AperFunction,ViaPad*%
%ADD25C,0.800000*%
%TD*%
%TA.AperFunction,Conductor*%
%ADD26C,0.500000*%
%TD*%
%TA.AperFunction,Conductor*%
%ADD27C,0.250000*%
%TD*%
%TA.AperFunction,Conductor*%
%ADD28C,0.400000*%
%TD*%
G04 APERTURE END LIST*
%TO.C,JP1*%
G36*
X138475000Y-129860000D02*
G01*
X137975000Y-129860000D01*
X137975000Y-129260000D01*
X138475000Y-129260000D01*
X138475000Y-129860000D01*
G37*
%TD*%
D10*
%TO.P,J3,1,Pin_1*%
%TO.N,GND*%
X131200000Y-142060000D03*
D11*
%TO.P,J3,2,Pin_2*%
%TO.N,+5V*%
X133740000Y-142060000D03*
%TO.P,J3,3,Pin_3*%
%TO.N,/Group-A/Group-A-Output*%
X136280000Y-142060000D03*
%TD*%
D12*
%TO.P,C6,1*%
%TO.N,Net-(C6-Pad1)*%
X121687500Y-121060000D03*
%TO.P,C6,2*%
%TO.N,GND*%
X123762500Y-121060000D03*
%TD*%
D13*
%TO.P,Q8,1,C*%
%TO.N,Net-(Q8-Pad1)*%
X115225000Y-140460000D03*
D14*
%TO.P,Q8,2,E*%
%TO.N,GND*%
X112685000Y-140460000D03*
%TD*%
D13*
%TO.P,Q6,1,C*%
%TO.N,Net-(Q6-Pad1)*%
X115225000Y-116760000D03*
D14*
%TO.P,Q6,2,E*%
%TO.N,GND*%
X112685000Y-116760000D03*
%TD*%
D15*
%TO.P,R11,1*%
%TO.N,+3V3*%
X112725000Y-121060000D03*
%TO.P,R11,2*%
%TO.N,Net-(R11-Pad2)*%
X114725000Y-121060000D03*
%TD*%
%TO.P,R8,1*%
%TO.N,Net-(R8-Pad1)*%
X117225000Y-97060000D03*
%TO.P,R8,2*%
%TO.N,Net-(C4-Pad1)*%
X119225000Y-97060000D03*
%TD*%
D13*
%TO.P,Q1,1,C*%
%TO.N,Net-(Q1-Pad1)*%
X115225000Y-53560000D03*
D14*
%TO.P,Q1,2,E*%
%TO.N,GND*%
X112685000Y-53560000D03*
%TD*%
D12*
%TO.P,C2,1*%
%TO.N,Net-(C2-Pad1)*%
X121687500Y-73560000D03*
%TO.P,C2,2*%
%TO.N,GND*%
X123762500Y-73560000D03*
%TD*%
D15*
%TO.P,R2,1*%
%TO.N,Net-(R2-Pad1)*%
X117225000Y-60560000D03*
%TO.P,R2,2*%
%TO.N,Net-(C1-Pad1)*%
X119225000Y-60560000D03*
%TD*%
%TO.P,R13,1*%
%TO.N,+3V3*%
X112725000Y-131560000D03*
%TO.P,R13,2*%
%TO.N,Net-(R13-Pad2)*%
X114725000Y-131560000D03*
%TD*%
D16*
%TO.P,C9,1*%
%TO.N,+3V3*%
X127225000Y-72522500D03*
%TO.P,C9,2*%
%TO.N,GND*%
X127225000Y-74597500D03*
%TD*%
D13*
%TO.P,Q4,1,C*%
%TO.N,Net-(Q4-Pad1)*%
X115225000Y-93060000D03*
D14*
%TO.P,Q4,2,E*%
%TO.N,GND*%
X112685000Y-93060000D03*
%TD*%
D15*
%TO.P,R9,1*%
%TO.N,+3V3*%
X112725000Y-108060000D03*
%TO.P,R9,2*%
%TO.N,Net-(R9-Pad2)*%
X114725000Y-108060000D03*
%TD*%
D13*
%TO.P,Q3,1,C*%
%TO.N,Net-(Q3-Pad1)*%
X115225000Y-77260000D03*
D14*
%TO.P,Q3,2,E*%
%TO.N,GND*%
X112685000Y-77260000D03*
%TD*%
D15*
%TO.P,R5,1*%
%TO.N,+3V3*%
X112725000Y-84060000D03*
%TO.P,R5,2*%
%TO.N,Net-(R5-Pad2)*%
X114725000Y-84060000D03*
%TD*%
%TO.P,R15,1*%
%TO.N,+3V3*%
X112725000Y-144560000D03*
%TO.P,R15,2*%
%TO.N,Net-(R15-Pad2)*%
X114725000Y-144560000D03*
%TD*%
D12*
%TO.P,C1,1*%
%TO.N,Net-(C1-Pad1)*%
X121687500Y-60560000D03*
%TO.P,C1,2*%
%TO.N,GND*%
X123762500Y-60560000D03*
%TD*%
D17*
%TO.P,U1,1*%
%TO.N,Net-(J1-Pad7)*%
X133175000Y-70697500D03*
%TO.P,U1,2*%
%TO.N,Net-(J1-Pad5)*%
X132525000Y-70697500D03*
%TO.P,U1,3,V+*%
%TO.N,+3V3*%
X131875000Y-70697500D03*
%TO.P,U1,4,-*%
%TO.N,Net-(Q1-Pad1)*%
X131225000Y-70697500D03*
%TO.P,U1,5,+*%
%TO.N,Net-(C1-Pad1)*%
X130575000Y-70697500D03*
%TO.P,U1,6,-*%
%TO.N,Net-(Q2-Pad1)*%
X129925000Y-70697500D03*
%TO.P,U1,7,+*%
%TO.N,Net-(C2-Pad1)*%
X129275000Y-70697500D03*
%TO.P,U1,8,-*%
%TO.N,Net-(Q3-Pad1)*%
X129275000Y-76422500D03*
%TO.P,U1,9,+*%
%TO.N,Net-(C3-Pad1)*%
X129925000Y-76422500D03*
%TO.P,U1,10,-*%
%TO.N,Net-(Q4-Pad1)*%
X130575000Y-76422500D03*
%TO.P,U1,11,+*%
%TO.N,Net-(C4-Pad1)*%
X131225000Y-76422500D03*
%TO.P,U1,12,V-*%
%TO.N,GND*%
X131875000Y-76422500D03*
%TO.P,U1,13*%
%TO.N,Net-(J1-Pad3)*%
X132525000Y-76422500D03*
%TO.P,U1,14*%
%TO.N,Net-(J1-Pad1)*%
X133175000Y-76422500D03*
%TD*%
D12*
%TO.P,C7,1*%
%TO.N,Net-(C7-Pad1)*%
X121687500Y-131560000D03*
%TO.P,C7,2*%
%TO.N,GND*%
X123762500Y-131560000D03*
%TD*%
D18*
%TO.P,C11,1*%
%TO.N,+5V*%
X132162500Y-137560000D03*
%TO.P,C11,2*%
%TO.N,GND*%
X135287500Y-137560000D03*
%TD*%
D15*
%TO.P,R17,1*%
%TO.N,+3V3*%
X137225000Y-134060000D03*
%TO.P,R17,2*%
%TO.N,Net-(JP1-Pad2)*%
X139225000Y-134060000D03*
%TD*%
D16*
%TO.P,C10,1*%
%TO.N,+3V3*%
X127225000Y-120022500D03*
%TO.P,C10,2*%
%TO.N,GND*%
X127225000Y-122097500D03*
%TD*%
D13*
%TO.P,Q7,1,C*%
%TO.N,Net-(Q7-Pad1)*%
X115225000Y-124660000D03*
D14*
%TO.P,Q7,2,E*%
%TO.N,GND*%
X112685000Y-124660000D03*
%TD*%
D15*
%TO.P,R6,1*%
%TO.N,Net-(R6-Pad1)*%
X117225000Y-84060000D03*
%TO.P,R6,2*%
%TO.N,Net-(C3-Pad1)*%
X119225000Y-84060000D03*
%TD*%
%TO.P,R1,1*%
%TO.N,+3V3*%
X112725000Y-60560000D03*
%TO.P,R1,2*%
%TO.N,Net-(R1-Pad2)*%
X114725000Y-60560000D03*
%TD*%
%TO.P,R14,1*%
%TO.N,Net-(R14-Pad1)*%
X117225000Y-131560000D03*
%TO.P,R14,2*%
%TO.N,Net-(C7-Pad1)*%
X119225000Y-131560000D03*
%TD*%
D17*
%TO.P,U2,1*%
%TO.N,Net-(J2-Pad7)*%
X133175000Y-118197500D03*
%TO.P,U2,2*%
%TO.N,Net-(J2-Pad5)*%
X132525000Y-118197500D03*
%TO.P,U2,3,V+*%
%TO.N,+3V3*%
X131875000Y-118197500D03*
%TO.P,U2,4,-*%
%TO.N,Net-(Q5-Pad1)*%
X131225000Y-118197500D03*
%TO.P,U2,5,+*%
%TO.N,Net-(C5-Pad1)*%
X130575000Y-118197500D03*
%TO.P,U2,6,-*%
%TO.N,Net-(Q6-Pad1)*%
X129925000Y-118197500D03*
%TO.P,U2,7,+*%
%TO.N,Net-(C6-Pad1)*%
X129275000Y-118197500D03*
%TO.P,U2,8,-*%
%TO.N,Net-(Q7-Pad1)*%
X129275000Y-123922500D03*
%TO.P,U2,9,+*%
%TO.N,Net-(C7-Pad1)*%
X129925000Y-123922500D03*
%TO.P,U2,10,-*%
%TO.N,Net-(Q8-Pad1)*%
X130575000Y-123922500D03*
%TO.P,U2,11,+*%
%TO.N,Net-(C8-Pad1)*%
X131225000Y-123922500D03*
%TO.P,U2,12,V-*%
%TO.N,GND*%
X131875000Y-123922500D03*
%TO.P,U2,13*%
%TO.N,Net-(J2-Pad3)*%
X132525000Y-123922500D03*
%TO.P,U2,14*%
%TO.N,Net-(J2-Pad1)*%
X133175000Y-123922500D03*
%TD*%
D15*
%TO.P,R10,1*%
%TO.N,Net-(R10-Pad1)*%
X117225000Y-108060000D03*
%TO.P,R10,2*%
%TO.N,Net-(C5-Pad1)*%
X119225000Y-108060000D03*
%TD*%
%TO.P,R4,1*%
%TO.N,Net-(R4-Pad1)*%
X117225000Y-73560000D03*
%TO.P,R4,2*%
%TO.N,Net-(C2-Pad1)*%
X119225000Y-73560000D03*
%TD*%
D12*
%TO.P,C8,1*%
%TO.N,Net-(C8-Pad1)*%
X121687500Y-144560000D03*
%TO.P,C8,2*%
%TO.N,GND*%
X123762500Y-144560000D03*
%TD*%
D15*
%TO.P,R16,1*%
%TO.N,Net-(R16-Pad1)*%
X117225000Y-144560000D03*
%TO.P,R16,2*%
%TO.N,Net-(C8-Pad1)*%
X119225000Y-144560000D03*
%TD*%
%TO.P,R7,1*%
%TO.N,+3V3*%
X112725000Y-97060000D03*
%TO.P,R7,2*%
%TO.N,Net-(R7-Pad2)*%
X114725000Y-97060000D03*
%TD*%
D13*
%TO.P,Q5,1,C*%
%TO.N,Net-(Q5-Pad1)*%
X115225000Y-100960000D03*
D14*
%TO.P,Q5,2,E*%
%TO.N,GND*%
X112685000Y-100960000D03*
%TD*%
D15*
%TO.P,R12,1*%
%TO.N,Net-(R12-Pad1)*%
X117225000Y-121060000D03*
%TO.P,R12,2*%
%TO.N,Net-(C6-Pad1)*%
X119225000Y-121060000D03*
%TD*%
D12*
%TO.P,C5,1*%
%TO.N,Net-(C5-Pad1)*%
X121687500Y-108060000D03*
%TO.P,C5,2*%
%TO.N,GND*%
X123762500Y-108060000D03*
%TD*%
%TO.P,C3,1*%
%TO.N,Net-(C3-Pad1)*%
X121687500Y-84060000D03*
%TO.P,C3,2*%
%TO.N,GND*%
X123762500Y-84060000D03*
%TD*%
D15*
%TO.P,R3,1*%
%TO.N,+3V3*%
X112725000Y-73560000D03*
%TO.P,R3,2*%
%TO.N,Net-(R3-Pad2)*%
X114725000Y-73560000D03*
%TD*%
D19*
%TO.P,JP1,1,A*%
%TO.N,/Group-A/Group-A-Output*%
X137575000Y-129560000D03*
%TO.P,JP1,2,B*%
%TO.N,Net-(JP1-Pad2)*%
X138875000Y-129560000D03*
%TD*%
D20*
%TO.P,C12,1*%
%TO.N,+3V3*%
X135287500Y-129560000D03*
%TO.P,C12,2*%
%TO.N,GND*%
X132162500Y-129560000D03*
%TD*%
D12*
%TO.P,C4,1*%
%TO.N,Net-(C4-Pad1)*%
X121687500Y-97060000D03*
%TO.P,C4,2*%
%TO.N,GND*%
X123762500Y-97060000D03*
%TD*%
D13*
%TO.P,Q2,1,C*%
%TO.N,Net-(Q2-Pad1)*%
X115225000Y-69360000D03*
D14*
%TO.P,Q2,2,E*%
%TO.N,GND*%
X112685000Y-69360000D03*
%TD*%
D10*
%TO.P,J1,1,Pin_1*%
%TO.N,Net-(J1-Pad1)*%
X135950000Y-77360000D03*
D11*
%TO.P,J1,2,Pin_2*%
%TO.N,/Group-A/Group-A-Output*%
X138490000Y-77360000D03*
%TO.P,J1,3,Pin_3*%
%TO.N,Net-(J1-Pad3)*%
X135950000Y-74820000D03*
%TO.P,J1,4,Pin_4*%
%TO.N,/Group-A/Group-A-Output*%
X138490000Y-74820000D03*
%TO.P,J1,5,Pin_5*%
%TO.N,Net-(J1-Pad5)*%
X135950000Y-72280000D03*
%TO.P,J1,6,Pin_6*%
%TO.N,/Group-A/Group-A-Output*%
X138490000Y-72280000D03*
%TO.P,J1,7,Pin_7*%
%TO.N,Net-(J1-Pad7)*%
X135950000Y-69740000D03*
%TO.P,J1,8,Pin_8*%
%TO.N,/Group-A/Group-A-Output*%
X138490000Y-69740000D03*
%TD*%
D10*
%TO.P,TP5,1,1*%
%TO.N,Net-(C5-Pad1)*%
X126725000Y-104060000D03*
D11*
%TO.P,TP5,2,2*%
%TO.N,Net-(Q5-Pad1)*%
X126725000Y-101520000D03*
%TD*%
D10*
%TO.P,TP2,1,1*%
%TO.N,Net-(C2-Pad1)*%
X126725000Y-69560000D03*
D11*
%TO.P,TP2,2,2*%
%TO.N,Net-(Q2-Pad1)*%
X126725000Y-67020000D03*
%TD*%
D10*
%TO.P,TP3,1,1*%
%TO.N,Net-(C3-Pad1)*%
X126725000Y-80060000D03*
D11*
%TO.P,TP3,2,2*%
%TO.N,Net-(Q3-Pad1)*%
X126725000Y-77520000D03*
%TD*%
D10*
%TO.P,TP4,1,1*%
%TO.N,Net-(C4-Pad1)*%
X126725000Y-93060000D03*
D11*
%TO.P,TP4,2,2*%
%TO.N,Net-(Q4-Pad1)*%
X126725000Y-90520000D03*
%TD*%
D21*
%TO.P,RV1,1,1*%
%TO.N,Net-(R1-Pad2)*%
X118185000Y-55090000D03*
%TO.P,RV1,2,2*%
%TO.N,Net-(R2-Pad1)*%
X120725000Y-57630000D03*
%TO.P,RV1,3,3*%
%TO.N,Net-(Q1-Pad1)*%
X123265000Y-55090000D03*
%TD*%
D22*
%TO.P,U3,1,VO*%
%TO.N,+3V3*%
X134995000Y-133932500D03*
D23*
%TO.P,U3,2,GND*%
%TO.N,GND*%
X133725000Y-133932500D03*
%TO.P,U3,3,VI*%
%TO.N,+5V*%
X132455000Y-133932500D03*
%TD*%
D21*
%TO.P,RV7,1,1*%
%TO.N,Net-(R13-Pad2)*%
X118185000Y-126090000D03*
%TO.P,RV7,2,2*%
%TO.N,Net-(R14-Pad1)*%
X120725000Y-128630000D03*
%TO.P,RV7,3,3*%
%TO.N,Net-(Q7-Pad1)*%
X123265000Y-126090000D03*
%TD*%
%TO.P,RV5,1,1*%
%TO.N,Net-(R9-Pad2)*%
X118185000Y-102590000D03*
%TO.P,RV5,2,2*%
%TO.N,Net-(R10-Pad1)*%
X120725000Y-105130000D03*
%TO.P,RV5,3,3*%
%TO.N,Net-(Q5-Pad1)*%
X123265000Y-102590000D03*
%TD*%
D10*
%TO.P,TP8,1,1*%
%TO.N,Net-(C8-Pad1)*%
X126725000Y-140560000D03*
D11*
%TO.P,TP8,2,2*%
%TO.N,Net-(Q8-Pad1)*%
X126725000Y-138020000D03*
%TD*%
D21*
%TO.P,RV3,1,1*%
%TO.N,Net-(R5-Pad2)*%
X118185000Y-78670000D03*
%TO.P,RV3,2,2*%
%TO.N,Net-(R6-Pad1)*%
X120725000Y-81210000D03*
%TO.P,RV3,3,3*%
%TO.N,Net-(Q3-Pad1)*%
X123265000Y-78670000D03*
%TD*%
%TO.P,RV8,1,1*%
%TO.N,Net-(R15-Pad2)*%
X118185000Y-139090000D03*
%TO.P,RV8,2,2*%
%TO.N,Net-(R16-Pad1)*%
X120725000Y-141630000D03*
%TO.P,RV8,3,3*%
%TO.N,Net-(Q8-Pad1)*%
X123265000Y-139090000D03*
%TD*%
D10*
%TO.P,TP6,1,1*%
%TO.N,Net-(C6-Pad1)*%
X126725000Y-117060000D03*
D11*
%TO.P,TP6,2,2*%
%TO.N,Net-(Q6-Pad1)*%
X126725000Y-114520000D03*
%TD*%
D21*
%TO.P,RV2,1,1*%
%TO.N,Net-(R3-Pad2)*%
X118185000Y-68090000D03*
%TO.P,RV2,2,2*%
%TO.N,Net-(R4-Pad1)*%
X120725000Y-70630000D03*
%TO.P,RV2,3,3*%
%TO.N,Net-(Q2-Pad1)*%
X123265000Y-68090000D03*
%TD*%
%TO.P,RV6,1,1*%
%TO.N,Net-(R11-Pad2)*%
X118185000Y-115540000D03*
%TO.P,RV6,2,2*%
%TO.N,Net-(R12-Pad1)*%
X120725000Y-118080000D03*
%TO.P,RV6,3,3*%
%TO.N,Net-(Q6-Pad1)*%
X123265000Y-115540000D03*
%TD*%
D10*
%TO.P,TP7,1,1*%
%TO.N,Net-(C7-Pad1)*%
X126725000Y-127560000D03*
D11*
%TO.P,TP7,2,2*%
%TO.N,Net-(Q7-Pad1)*%
X126725000Y-125020000D03*
%TD*%
D21*
%TO.P,RV4,1,1*%
%TO.N,Net-(R7-Pad2)*%
X118185000Y-91590000D03*
%TO.P,RV4,2,2*%
%TO.N,Net-(R8-Pad1)*%
X120725000Y-94130000D03*
%TO.P,RV4,3,3*%
%TO.N,Net-(Q4-Pad1)*%
X123265000Y-91590000D03*
%TD*%
D10*
%TO.P,J2,1,Pin_1*%
%TO.N,Net-(J2-Pad1)*%
X135950000Y-124860000D03*
D11*
%TO.P,J2,2,Pin_2*%
%TO.N,/Group-A/Group-A-Output*%
X138490000Y-124860000D03*
%TO.P,J2,3,Pin_3*%
%TO.N,Net-(J2-Pad3)*%
X135950000Y-122320000D03*
%TO.P,J2,4,Pin_4*%
%TO.N,/Group-A/Group-A-Output*%
X138490000Y-122320000D03*
%TO.P,J2,5,Pin_5*%
%TO.N,Net-(J2-Pad5)*%
X135950000Y-119780000D03*
%TO.P,J2,6,Pin_6*%
%TO.N,/Group-A/Group-A-Output*%
X138490000Y-119780000D03*
%TO.P,J2,7,Pin_7*%
%TO.N,Net-(J2-Pad7)*%
X135950000Y-117240000D03*
%TO.P,J2,8,Pin_8*%
%TO.N,/Group-A/Group-A-Output*%
X138490000Y-117240000D03*
%TD*%
D10*
%TO.P,TP1,1,1*%
%TO.N,Net-(C1-Pad1)*%
X126725000Y-56560000D03*
D11*
%TO.P,TP1,2,2*%
%TO.N,Net-(Q1-Pad1)*%
X126725000Y-54020000D03*
%TD*%
D24*
%TO.N,+3V3*%
X132225000Y-127560000D03*
D25*
%TO.N,GND*%
X129687500Y-74597500D03*
X130687500Y-74597500D03*
X129687500Y-122097500D03*
X130687500Y-122097500D03*
X125225000Y-72060000D03*
D24*
%TO.N,+3V3*%
X129450500Y-129560000D03*
D25*
%TO.N,GND*%
X125725000Y-60560000D03*
X125725000Y-108060000D03*
X125225000Y-119560000D03*
X125725000Y-84060000D03*
X125725000Y-97060000D03*
X125225000Y-144560000D03*
X125725000Y-131560000D03*
%TD*%
D26*
%TO.N,+3V3*%
X115225000Y-134060000D02*
X112725000Y-131560000D01*
X125225000Y-134060000D02*
X115225000Y-134060000D01*
X129450500Y-129834500D02*
X125225000Y-134060000D01*
X129450500Y-129560000D02*
X129450500Y-129834500D01*
D27*
%TO.N,GND*%
X125225000Y-144560000D02*
X123762500Y-144560000D01*
D26*
%TO.N,+3V3*%
X134725000Y-127560000D02*
X132225000Y-127560000D01*
X135287500Y-128122500D02*
X134725000Y-127560000D01*
X135287500Y-129560000D02*
X135287500Y-128122500D01*
D28*
%TO.N,GND*%
X129687500Y-74597500D02*
X130687500Y-74597500D01*
X130687500Y-74597500D02*
X130846698Y-74597500D01*
D27*
X123762500Y-121022500D02*
X125225000Y-119560000D01*
X123762500Y-121060000D02*
X123762500Y-121022500D01*
D28*
X129687500Y-122097500D02*
X130687500Y-122097500D01*
X130687500Y-122097500D02*
X130846698Y-122097500D01*
X130846698Y-122097500D02*
X131875000Y-123125802D01*
X131875000Y-123125802D02*
X131875000Y-123922500D01*
X127225000Y-122097500D02*
X129687500Y-122097500D01*
X131875000Y-75625802D02*
X131875000Y-76422500D01*
X130846698Y-74597500D02*
X131875000Y-75625802D01*
X127225000Y-74597500D02*
X129687500Y-74597500D01*
D26*
%TO.N,+3V3*%
X131875000Y-71564910D02*
X131875000Y-70697500D01*
X130917410Y-72522500D02*
X131875000Y-71564910D01*
X127225000Y-72522500D02*
X130917410Y-72522500D01*
X114225000Y-122560000D02*
X112725000Y-121060000D01*
X126762500Y-120022500D02*
X124225000Y-122560000D01*
X127225000Y-120022500D02*
X126762500Y-120022500D01*
X124225000Y-122560000D02*
X114225000Y-122560000D01*
D28*
X131875000Y-118994198D02*
X131875000Y-118197500D01*
X130846698Y-120022500D02*
X131875000Y-118994198D01*
X127225000Y-120022500D02*
X130846698Y-120022500D01*
D27*
%TO.N,GND*%
X123762500Y-73522500D02*
X125225000Y-72060000D01*
X123762500Y-73560000D02*
X123762500Y-73522500D01*
D26*
%TO.N,+3V3*%
X114225000Y-75060000D02*
X112725000Y-73560000D01*
X124225000Y-75060000D02*
X114225000Y-75060000D01*
X126762500Y-72522500D02*
X124225000Y-75060000D01*
X127225000Y-72522500D02*
X126762500Y-72522500D01*
X111335489Y-72170489D02*
X111335489Y-61949511D01*
X112725000Y-73560000D02*
X111335489Y-72170489D01*
X111335489Y-61949511D02*
X112725000Y-60560000D01*
X111335489Y-74949511D02*
X112725000Y-73560000D01*
X111335489Y-82670489D02*
X111335489Y-74949511D01*
X112725000Y-84060000D02*
X111335489Y-82670489D01*
X111335489Y-85449511D02*
X112725000Y-84060000D01*
X112725000Y-97060000D02*
X111335489Y-95670489D01*
X111335489Y-95670489D02*
X111335489Y-85449511D01*
X111335489Y-98449511D02*
X112725000Y-97060000D01*
X111335489Y-106670489D02*
X111335489Y-98449511D01*
X112725000Y-108060000D02*
X111335489Y-106670489D01*
X111335489Y-119670489D02*
X111335489Y-109449511D01*
X112725000Y-121060000D02*
X111335489Y-119670489D01*
X111335489Y-109449511D02*
X112725000Y-108060000D01*
X111335489Y-122449511D02*
X112725000Y-121060000D01*
X111335489Y-130170489D02*
X111335489Y-122449511D01*
X112725000Y-131560000D02*
X111335489Y-130170489D01*
X111335489Y-134670489D02*
X111335489Y-132949511D01*
X111335489Y-143170489D02*
X111335489Y-134670489D01*
X111335489Y-132949511D02*
X112725000Y-131560000D01*
X112725000Y-144560000D02*
X111335489Y-143170489D01*
%TO.N,+5V*%
X133740000Y-139137500D02*
X132162500Y-137560000D01*
X132162500Y-134225000D02*
X132455000Y-133932500D01*
X133740000Y-142060000D02*
X133740000Y-139137500D01*
X132162500Y-137560000D02*
X132162500Y-134225000D01*
D27*
%TO.N,GND*%
X125725000Y-108060000D02*
X123762500Y-108060000D01*
D26*
X133725000Y-135997500D02*
X133725000Y-133932500D01*
D27*
X123762500Y-60560000D02*
X125725000Y-60560000D01*
X125725000Y-131560000D02*
X123762500Y-131560000D01*
D26*
X135287500Y-137560000D02*
X133725000Y-135997500D01*
X132162500Y-130497500D02*
X133725000Y-132060000D01*
D27*
X125725000Y-84060000D02*
X123762500Y-84060000D01*
D26*
X133725000Y-132060000D02*
X133725000Y-133932500D01*
D27*
X125725000Y-97060000D02*
X123762500Y-97060000D01*
D26*
X132162500Y-129560000D02*
X132162500Y-130497500D01*
D27*
%TO.N,Net-(JP1-Pad2)*%
X139225000Y-129910000D02*
X138875000Y-129560000D01*
X139225000Y-134060000D02*
X139225000Y-129910000D01*
%TO.N,Net-(R1-Pad2)*%
X114725000Y-58550000D02*
X118185000Y-55090000D01*
X114725000Y-60560000D02*
X114725000Y-58550000D01*
%TO.N,Net-(R4-Pad1)*%
X120155000Y-70630000D02*
X120725000Y-70630000D01*
X117225000Y-73560000D02*
X120155000Y-70630000D01*
%TO.N,Net-(R5-Pad2)*%
X114725000Y-84060000D02*
X114725000Y-82050000D01*
X114725000Y-82050000D02*
X118185000Y-78590000D01*
%TO.N,Net-(R2-Pad1)*%
X120155000Y-57630000D02*
X120725000Y-57630000D01*
X117225000Y-60560000D02*
X120155000Y-57630000D01*
%TO.N,Net-(R3-Pad2)*%
X118185000Y-70100000D02*
X118185000Y-68090000D01*
X114725000Y-73560000D02*
X118185000Y-70100000D01*
%TO.N,Net-(R6-Pad1)*%
X117225000Y-84060000D02*
X120155000Y-81130000D01*
X120155000Y-81130000D02*
X120725000Y-81130000D01*
%TO.N,Net-(R7-Pad2)*%
X114725000Y-97060000D02*
X118185000Y-93600000D01*
X118185000Y-93600000D02*
X118185000Y-91590000D01*
%TO.N,Net-(C1-Pad1)*%
X121687500Y-60560000D02*
X125687500Y-56560000D01*
X126725000Y-56560000D02*
X130575000Y-60410000D01*
X125687500Y-56560000D02*
X126725000Y-56560000D01*
X130575000Y-60410000D02*
X130575000Y-70697500D01*
X119225000Y-60560000D02*
X121687500Y-60560000D01*
%TO.N,Net-(C2-Pad1)*%
X125687500Y-69560000D02*
X126725000Y-69560000D01*
X121687500Y-73560000D02*
X125687500Y-69560000D01*
X119225000Y-73560000D02*
X121687500Y-73560000D01*
X128137500Y-69560000D02*
X129275000Y-70697500D01*
X126725000Y-69560000D02*
X128137500Y-69560000D01*
%TO.N,Net-(C5-Pad1)*%
X126725000Y-104060000D02*
X130575000Y-107910000D01*
X121687500Y-108060000D02*
X125687500Y-104060000D01*
X119225000Y-108060000D02*
X121687500Y-108060000D01*
X130575000Y-107910000D02*
X130575000Y-118197500D01*
X125687500Y-104060000D02*
X126725000Y-104060000D01*
%TO.N,Net-(C6-Pad1)*%
X126725000Y-117060000D02*
X128137500Y-117060000D01*
X119225000Y-121060000D02*
X121687500Y-121060000D01*
X128137500Y-117060000D02*
X129275000Y-118197500D01*
X125687500Y-117060000D02*
X126725000Y-117060000D01*
X121687500Y-121060000D02*
X125687500Y-117060000D01*
%TO.N,Net-(C7-Pad1)*%
X125687500Y-127560000D02*
X126725000Y-127560000D01*
X126725000Y-127560000D02*
X127825000Y-127560000D01*
X121687500Y-131560000D02*
X125687500Y-127560000D01*
X129925000Y-125460000D02*
X129925000Y-123922500D01*
X119225000Y-131560000D02*
X121687500Y-131560000D01*
X127825000Y-127560000D02*
X129925000Y-125460000D01*
%TO.N,Net-(C8-Pad1)*%
X131024520Y-124813612D02*
X131024520Y-136260480D01*
X131024520Y-136260480D02*
X126725000Y-140560000D01*
X119225000Y-144560000D02*
X121687500Y-144560000D01*
X131225000Y-124613132D02*
X131024520Y-124813612D01*
X131225000Y-123922500D02*
X131225000Y-124613132D01*
X121687500Y-144560000D02*
X125687500Y-140560000D01*
X125687500Y-140560000D02*
X126725000Y-140560000D01*
D26*
%TO.N,+3V3*%
X135287500Y-133640000D02*
X134995000Y-133932500D01*
X137097500Y-133932500D02*
X137225000Y-134060000D01*
X135287500Y-129560000D02*
X135287500Y-133640000D01*
X134995000Y-133932500D02*
X137097500Y-133932500D01*
D27*
%TO.N,/Group-A/Group-A-Output*%
X137575000Y-132639620D02*
X138149520Y-133214140D01*
X138149520Y-133214140D02*
X138149520Y-140190480D01*
X138149520Y-140190480D02*
X136280000Y-142060000D01*
X138490000Y-122320000D02*
X138490000Y-124860000D01*
X138490000Y-74820000D02*
X138490000Y-77360000D01*
X137575000Y-125775000D02*
X137575000Y-129560000D01*
X138490000Y-117240000D02*
X138490000Y-119780000D01*
X138490000Y-124860000D02*
X137575000Y-125775000D01*
X138490000Y-72280000D02*
X138490000Y-74820000D01*
X137575000Y-129560000D02*
X137575000Y-132639620D01*
X138490000Y-119780000D02*
X138490000Y-122320000D01*
X138490000Y-77360000D02*
X138490000Y-117240000D01*
X138490000Y-69740000D02*
X138490000Y-72280000D01*
%TO.N,Net-(J2-Pad3)*%
X132525000Y-123185001D02*
X133390001Y-122320000D01*
X132525000Y-123922500D02*
X132525000Y-123185001D01*
X133390001Y-122320000D02*
X135950000Y-122320000D01*
%TO.N,Net-(J2-Pad5)*%
X132525000Y-118934999D02*
X132525000Y-118197500D01*
X133370001Y-119780000D02*
X132525000Y-118934999D01*
X135950000Y-119780000D02*
X133370001Y-119780000D01*
%TO.N,Net-(J2-Pad1)*%
X134112500Y-124860000D02*
X135950000Y-124860000D01*
X133175000Y-123922500D02*
X134112500Y-124860000D01*
%TO.N,Net-(J2-Pad7)*%
X133175000Y-118197500D02*
X134132500Y-117240000D01*
X134132500Y-117240000D02*
X135950000Y-117240000D01*
%TO.N,Net-(Q1-Pad1)*%
X124335000Y-54020000D02*
X123265000Y-55090000D01*
X126725000Y-54020000D02*
X131225000Y-58520000D01*
X115225000Y-53560000D02*
X121735000Y-53560000D01*
X121735000Y-53560000D02*
X123265000Y-55090000D01*
X126725000Y-54020000D02*
X124335000Y-54020000D01*
X131225000Y-58520000D02*
X131225000Y-70697500D01*
%TO.N,Net-(Q2-Pad1)*%
X117525000Y-67060000D02*
X122235000Y-67060000D01*
X127927081Y-67020000D02*
X129925000Y-69017919D01*
X115225000Y-69360000D02*
X117525000Y-67060000D01*
X126725000Y-67020000D02*
X127927081Y-67020000D01*
X126725000Y-67020000D02*
X124335000Y-67020000D01*
X129925000Y-69017919D02*
X129925000Y-70697500D01*
X122235000Y-67060000D02*
X123265000Y-68090000D01*
X124335000Y-67020000D02*
X123265000Y-68090000D01*
%TO.N,Net-(Q5-Pad1)*%
X131225000Y-106020000D02*
X131225000Y-118197500D01*
X115225000Y-100960000D02*
X121635000Y-100960000D01*
X124335000Y-101520000D02*
X123265000Y-102590000D01*
X121635000Y-100960000D02*
X123265000Y-102590000D01*
X126725000Y-101520000D02*
X131225000Y-106020000D01*
X126725000Y-101520000D02*
X124335000Y-101520000D01*
%TO.N,Net-(Q6-Pad1)*%
X127927081Y-114520000D02*
X129925000Y-116517919D01*
X126725000Y-114520000D02*
X124285000Y-114520000D01*
X117425000Y-114560000D02*
X122285000Y-114560000D01*
X124285000Y-114520000D02*
X123265000Y-115540000D01*
X122285000Y-114560000D02*
X123265000Y-115540000D01*
X115225000Y-116760000D02*
X117425000Y-114560000D01*
X126725000Y-114520000D02*
X127927081Y-114520000D01*
X129925000Y-116517919D02*
X129925000Y-118197500D01*
%TO.N,Net-(Q7-Pad1)*%
X121835000Y-124660000D02*
X123265000Y-126090000D01*
X115225000Y-124660000D02*
X121835000Y-124660000D01*
X126725000Y-125020000D02*
X124335000Y-125020000D01*
X124335000Y-125020000D02*
X123265000Y-126090000D01*
X126725000Y-125020000D02*
X128177500Y-125020000D01*
X128177500Y-125020000D02*
X129275000Y-123922500D01*
%TO.N,Net-(Q8-Pad1)*%
X124335000Y-138020000D02*
X123265000Y-139090000D01*
X126725000Y-138020000D02*
X124335000Y-138020000D01*
X122235000Y-138060000D02*
X123265000Y-139090000D01*
X117725000Y-138060000D02*
X122235000Y-138060000D01*
X130575000Y-134170000D02*
X126725000Y-138020000D01*
X130575000Y-123922500D02*
X130575000Y-134170000D01*
X115225000Y-140460000D02*
X115325000Y-140460000D01*
X115325000Y-140460000D02*
X117725000Y-138060000D01*
%TO.N,Net-(R8-Pad1)*%
X117225000Y-97060000D02*
X120155000Y-94130000D01*
X120155000Y-94130000D02*
X120725000Y-94130000D01*
%TO.N,Net-(R9-Pad2)*%
X114725000Y-108060000D02*
X114725000Y-106050000D01*
X114725000Y-106050000D02*
X118185000Y-102590000D01*
%TO.N,Net-(R10-Pad1)*%
X120155000Y-105130000D02*
X120725000Y-105130000D01*
X117225000Y-108060000D02*
X120155000Y-105130000D01*
%TO.N,Net-(R11-Pad2)*%
X118185000Y-117600000D02*
X118185000Y-115540000D01*
X114725000Y-121060000D02*
X118185000Y-117600000D01*
%TO.N,Net-(R12-Pad1)*%
X117225000Y-121060000D02*
X120205000Y-118080000D01*
X120205000Y-118080000D02*
X120725000Y-118080000D01*
%TO.N,Net-(R13-Pad2)*%
X114725000Y-131560000D02*
X114725000Y-129550000D01*
X114725000Y-129550000D02*
X118185000Y-126090000D01*
%TO.N,Net-(R14-Pad1)*%
X117225000Y-131560000D02*
X120155000Y-128630000D01*
X120155000Y-128630000D02*
X120725000Y-128630000D01*
%TO.N,Net-(R15-Pad2)*%
X114725000Y-144560000D02*
X118185000Y-141100000D01*
X118185000Y-141100000D02*
X118185000Y-139090000D01*
%TO.N,Net-(R16-Pad1)*%
X120155000Y-141630000D02*
X120725000Y-141630000D01*
X117225000Y-144560000D02*
X120155000Y-141630000D01*
%TO.N,Net-(C3-Pad1)*%
X129925000Y-77960000D02*
X129925000Y-76422500D01*
X127825000Y-80060000D02*
X129925000Y-77960000D01*
X121687500Y-84060000D02*
X125687500Y-80060000D01*
X126725000Y-80060000D02*
X127825000Y-80060000D01*
X125687500Y-80060000D02*
X126725000Y-80060000D01*
X119225000Y-84060000D02*
X121687500Y-84060000D01*
%TO.N,Net-(C4-Pad1)*%
X131225000Y-76422500D02*
X131225000Y-88560000D01*
X131225000Y-88560000D02*
X126725000Y-93060000D01*
X121687500Y-97060000D02*
X125687500Y-93060000D01*
X119225000Y-97060000D02*
X121687500Y-97060000D01*
X125687500Y-93060000D02*
X126725000Y-93060000D01*
%TO.N,Net-(J1-Pad1)*%
X134112500Y-77360000D02*
X135950000Y-77360000D01*
X133175000Y-76422500D02*
X134112500Y-77360000D01*
%TO.N,Net-(J1-Pad3)*%
X132525000Y-76422500D02*
X132525000Y-75685001D01*
X132525000Y-75685001D02*
X133390001Y-74820000D01*
X133390001Y-74820000D02*
X135950000Y-74820000D01*
%TO.N,Net-(Q3-Pad1)*%
X126725000Y-77520000D02*
X127822500Y-76422500D01*
X121935000Y-77260000D02*
X123265000Y-78590000D01*
X115225000Y-77260000D02*
X121935000Y-77260000D01*
X124335000Y-77520000D02*
X123265000Y-78590000D01*
X127822500Y-76422500D02*
X129275000Y-76422500D01*
X126725000Y-77520000D02*
X124335000Y-77520000D01*
%TO.N,Net-(Q4-Pad1)*%
X126725000Y-90520000D02*
X124335000Y-90520000D01*
X115225000Y-93060000D02*
X117725000Y-90560000D01*
X122235000Y-90560000D02*
X123265000Y-91590000D01*
X124335000Y-90520000D02*
X123265000Y-91590000D01*
X117725000Y-90560000D02*
X122235000Y-90560000D01*
X130575000Y-86670000D02*
X126725000Y-90520000D01*
X130575000Y-76422500D02*
X130575000Y-86670000D01*
%TO.N,Net-(J1-Pad5)*%
X133370001Y-72280000D02*
X135950000Y-72280000D01*
X132525000Y-71434999D02*
X133370001Y-72280000D01*
X132525000Y-70697500D02*
X132525000Y-71434999D01*
%TO.N,Net-(J1-Pad7)*%
X134132500Y-69740000D02*
X135950000Y-69740000D01*
X133175000Y-70697500D02*
X134132500Y-69740000D01*
%TD*%
M02*
