%TF.GenerationSoftware,KiCad,Pcbnew,(6.0.0-rc1-415-g653c7b78d7)*%
%TF.CreationDate,2021-12-14T13:19:45-08:00*%
%TF.ProjectId,Detector,44657465-6374-46f7-922e-6b696361645f,rev?*%
%TF.SameCoordinates,Original*%
%TF.FileFunction,Legend,Top*%
%TF.FilePolarity,Positive*%
%FSLAX46Y46*%
G04 Gerber Fmt 4.6, Leading zero omitted, Abs format (unit mm)*
G04 Created by KiCad (PCBNEW (6.0.0-rc1-415-g653c7b78d7)) date 2021-12-14 13:19:45*
%MOMM*%
%LPD*%
G01*
G04 APERTURE LIST*
G04 Aperture macros list*
%AMRoundRect*
0 Rectangle with rounded corners*
0 $1 Rounding radius*
0 $2 $3 $4 $5 $6 $7 $8 $9 X,Y pos of 4 corners*
0 Add a 4 corners polygon primitive as box body*
4,1,4,$2,$3,$4,$5,$6,$7,$8,$9,$2,$3,0*
0 Add four circle primitives for the rounded corners*
1,1,$1+$1,$2,$3*
1,1,$1+$1,$4,$5*
1,1,$1+$1,$6,$7*
1,1,$1+$1,$8,$9*
0 Add four rect primitives between the rounded corners*
20,1,$1+$1,$2,$3,$4,$5,0*
20,1,$1+$1,$4,$5,$6,$7,0*
20,1,$1+$1,$6,$7,$8,$9,0*
20,1,$1+$1,$8,$9,$2,$3,0*%
G04 Aperture macros list end*
%ADD10C,0.150000*%
%ADD11C,0.120000*%
%ADD12RoundRect,0.250000X-0.337500X-0.475000X0.337500X-0.475000X0.337500X0.475000X-0.337500X0.475000X0*%
%ADD13R,1.800000X1.800000*%
%ADD14C,1.800000*%
%ADD15RoundRect,0.250000X0.350000X0.450000X-0.350000X0.450000X-0.350000X-0.450000X0.350000X-0.450000X0*%
%ADD16RoundRect,0.250000X-0.350000X-0.450000X0.350000X-0.450000X0.350000X0.450000X-0.350000X0.450000X0*%
%ADD17RoundRect,0.250000X-0.475000X0.337500X-0.475000X-0.337500X0.475000X-0.337500X0.475000X0.337500X0*%
%ADD18RoundRect,0.100000X-0.100000X0.637500X-0.100000X-0.637500X0.100000X-0.637500X0.100000X0.637500X0*%
%ADD19RoundRect,0.250000X-0.412500X-0.650000X0.412500X-0.650000X0.412500X0.650000X-0.412500X0.650000X0*%
%ADD20C,2.200000*%
%ADD21R,1.000000X1.500000*%
%ADD22RoundRect,0.250000X0.412500X0.650000X-0.412500X0.650000X-0.412500X-0.650000X0.412500X-0.650000X0*%
%ADD23R,2.100000X2.100000*%
%ADD24C,2.100000*%
%ADD25R,1.700000X1.700000*%
%ADD26O,1.700000X1.700000*%
%ADD27C,1.120000*%
%ADD28R,1.050000X1.500000*%
%ADD29O,1.050000X1.500000*%
G04 APERTURE END LIST*
D10*
%TO.C,C6*%
X122558333Y-119737142D02*
X122510714Y-119784761D01*
X122367857Y-119832380D01*
X122272619Y-119832380D01*
X122129761Y-119784761D01*
X122034523Y-119689523D01*
X121986904Y-119594285D01*
X121939285Y-119403809D01*
X121939285Y-119260952D01*
X121986904Y-119070476D01*
X122034523Y-118975238D01*
X122129761Y-118880000D01*
X122272619Y-118832380D01*
X122367857Y-118832380D01*
X122510714Y-118880000D01*
X122558333Y-118927619D01*
X123415476Y-118832380D02*
X123225000Y-118832380D01*
X123129761Y-118880000D01*
X123082142Y-118927619D01*
X122986904Y-119070476D01*
X122939285Y-119260952D01*
X122939285Y-119641904D01*
X122986904Y-119737142D01*
X123034523Y-119784761D01*
X123129761Y-119832380D01*
X123320238Y-119832380D01*
X123415476Y-119784761D01*
X123463095Y-119737142D01*
X123510714Y-119641904D01*
X123510714Y-119403809D01*
X123463095Y-119308571D01*
X123415476Y-119260952D01*
X123320238Y-119213333D01*
X123129761Y-119213333D01*
X123034523Y-119260952D01*
X122986904Y-119308571D01*
X122939285Y-119403809D01*
%TO.C,Q8*%
X113763274Y-140407619D02*
X113668036Y-140360000D01*
X113572798Y-140264761D01*
X113429941Y-140121904D01*
X113334703Y-140074285D01*
X113239465Y-140074285D01*
X113287084Y-140312380D02*
X113191846Y-140264761D01*
X113096608Y-140169523D01*
X113048989Y-139979047D01*
X113048989Y-139645714D01*
X113096608Y-139455238D01*
X113191846Y-139360000D01*
X113287084Y-139312380D01*
X113477560Y-139312380D01*
X113572798Y-139360000D01*
X113668036Y-139455238D01*
X113715655Y-139645714D01*
X113715655Y-139979047D01*
X113668036Y-140169523D01*
X113572798Y-140264761D01*
X113477560Y-140312380D01*
X113287084Y-140312380D01*
X114287084Y-139740952D02*
X114191846Y-139693333D01*
X114144227Y-139645714D01*
X114096608Y-139550476D01*
X114096608Y-139502857D01*
X114144227Y-139407619D01*
X114191846Y-139360000D01*
X114287084Y-139312380D01*
X114477560Y-139312380D01*
X114572798Y-139360000D01*
X114620417Y-139407619D01*
X114668036Y-139502857D01*
X114668036Y-139550476D01*
X114620417Y-139645714D01*
X114572798Y-139693333D01*
X114477560Y-139740952D01*
X114287084Y-139740952D01*
X114191846Y-139788571D01*
X114144227Y-139836190D01*
X114096608Y-139931428D01*
X114096608Y-140121904D01*
X114144227Y-140217142D01*
X114191846Y-140264761D01*
X114287084Y-140312380D01*
X114477560Y-140312380D01*
X114572798Y-140264761D01*
X114620417Y-140217142D01*
X114668036Y-140121904D01*
X114668036Y-139931428D01*
X114620417Y-139836190D01*
X114572798Y-139788571D01*
X114477560Y-139740952D01*
%TO.C,Q6*%
X113859761Y-114407619D02*
X113764523Y-114360000D01*
X113669285Y-114264761D01*
X113526428Y-114121904D01*
X113431190Y-114074285D01*
X113335952Y-114074285D01*
X113383571Y-114312380D02*
X113288333Y-114264761D01*
X113193095Y-114169523D01*
X113145476Y-113979047D01*
X113145476Y-113645714D01*
X113193095Y-113455238D01*
X113288333Y-113360000D01*
X113383571Y-113312380D01*
X113574047Y-113312380D01*
X113669285Y-113360000D01*
X113764523Y-113455238D01*
X113812142Y-113645714D01*
X113812142Y-113979047D01*
X113764523Y-114169523D01*
X113669285Y-114264761D01*
X113574047Y-114312380D01*
X113383571Y-114312380D01*
X114669285Y-113312380D02*
X114478809Y-113312380D01*
X114383571Y-113360000D01*
X114335952Y-113407619D01*
X114240714Y-113550476D01*
X114193095Y-113740952D01*
X114193095Y-114121904D01*
X114240714Y-114217142D01*
X114288333Y-114264761D01*
X114383571Y-114312380D01*
X114574047Y-114312380D01*
X114669285Y-114264761D01*
X114716904Y-114217142D01*
X114764523Y-114121904D01*
X114764523Y-113883809D01*
X114716904Y-113788571D01*
X114669285Y-113740952D01*
X114574047Y-113693333D01*
X114383571Y-113693333D01*
X114288333Y-113740952D01*
X114240714Y-113788571D01*
X114193095Y-113883809D01*
%TO.C,R11*%
X113082142Y-119912380D02*
X112748809Y-119436190D01*
X112510714Y-119912380D02*
X112510714Y-118912380D01*
X112891666Y-118912380D01*
X112986904Y-118960000D01*
X113034523Y-119007619D01*
X113082142Y-119102857D01*
X113082142Y-119245714D01*
X113034523Y-119340952D01*
X112986904Y-119388571D01*
X112891666Y-119436190D01*
X112510714Y-119436190D01*
X114034523Y-119912380D02*
X113463095Y-119912380D01*
X113748809Y-119912380D02*
X113748809Y-118912380D01*
X113653571Y-119055238D01*
X113558333Y-119150476D01*
X113463095Y-119198095D01*
X114986904Y-119912380D02*
X114415476Y-119912380D01*
X114701190Y-119912380D02*
X114701190Y-118912380D01*
X114605952Y-119055238D01*
X114510714Y-119150476D01*
X114415476Y-119198095D01*
%TO.C,R8*%
X118058333Y-95862380D02*
X117725000Y-95386190D01*
X117486904Y-95862380D02*
X117486904Y-94862380D01*
X117867857Y-94862380D01*
X117963095Y-94910000D01*
X118010714Y-94957619D01*
X118058333Y-95052857D01*
X118058333Y-95195714D01*
X118010714Y-95290952D01*
X117963095Y-95338571D01*
X117867857Y-95386190D01*
X117486904Y-95386190D01*
X118629761Y-95290952D02*
X118534523Y-95243333D01*
X118486904Y-95195714D01*
X118439285Y-95100476D01*
X118439285Y-95052857D01*
X118486904Y-94957619D01*
X118534523Y-94910000D01*
X118629761Y-94862380D01*
X118820238Y-94862380D01*
X118915476Y-94910000D01*
X118963095Y-94957619D01*
X119010714Y-95052857D01*
X119010714Y-95100476D01*
X118963095Y-95195714D01*
X118915476Y-95243333D01*
X118820238Y-95290952D01*
X118629761Y-95290952D01*
X118534523Y-95338571D01*
X118486904Y-95386190D01*
X118439285Y-95481428D01*
X118439285Y-95671904D01*
X118486904Y-95767142D01*
X118534523Y-95814761D01*
X118629761Y-95862380D01*
X118820238Y-95862380D01*
X118915476Y-95814761D01*
X118963095Y-95767142D01*
X119010714Y-95671904D01*
X119010714Y-95481428D01*
X118963095Y-95386190D01*
X118915476Y-95338571D01*
X118820238Y-95290952D01*
%TO.C,Q1*%
X113859761Y-54767619D02*
X113764523Y-54720000D01*
X113669285Y-54624761D01*
X113526428Y-54481904D01*
X113431190Y-54434285D01*
X113335952Y-54434285D01*
X113383571Y-54672380D02*
X113288333Y-54624761D01*
X113193095Y-54529523D01*
X113145476Y-54339047D01*
X113145476Y-54005714D01*
X113193095Y-53815238D01*
X113288333Y-53720000D01*
X113383571Y-53672380D01*
X113574047Y-53672380D01*
X113669285Y-53720000D01*
X113764523Y-53815238D01*
X113812142Y-54005714D01*
X113812142Y-54339047D01*
X113764523Y-54529523D01*
X113669285Y-54624761D01*
X113574047Y-54672380D01*
X113383571Y-54672380D01*
X114764523Y-54672380D02*
X114193095Y-54672380D01*
X114478809Y-54672380D02*
X114478809Y-53672380D01*
X114383571Y-53815238D01*
X114288333Y-53910476D01*
X114193095Y-53958095D01*
%TO.C,C2*%
X122558333Y-72237142D02*
X122510714Y-72284761D01*
X122367857Y-72332380D01*
X122272619Y-72332380D01*
X122129761Y-72284761D01*
X122034523Y-72189523D01*
X121986904Y-72094285D01*
X121939285Y-71903809D01*
X121939285Y-71760952D01*
X121986904Y-71570476D01*
X122034523Y-71475238D01*
X122129761Y-71380000D01*
X122272619Y-71332380D01*
X122367857Y-71332380D01*
X122510714Y-71380000D01*
X122558333Y-71427619D01*
X122939285Y-71427619D02*
X122986904Y-71380000D01*
X123082142Y-71332380D01*
X123320238Y-71332380D01*
X123415476Y-71380000D01*
X123463095Y-71427619D01*
X123510714Y-71522857D01*
X123510714Y-71618095D01*
X123463095Y-71760952D01*
X122891666Y-72332380D01*
X123510714Y-72332380D01*
%TO.C,R2*%
X118058333Y-57062380D02*
X117725000Y-56586190D01*
X117486904Y-57062380D02*
X117486904Y-56062380D01*
X117867857Y-56062380D01*
X117963095Y-56110000D01*
X118010714Y-56157619D01*
X118058333Y-56252857D01*
X118058333Y-56395714D01*
X118010714Y-56490952D01*
X117963095Y-56538571D01*
X117867857Y-56586190D01*
X117486904Y-56586190D01*
X118439285Y-56157619D02*
X118486904Y-56110000D01*
X118582142Y-56062380D01*
X118820238Y-56062380D01*
X118915476Y-56110000D01*
X118963095Y-56157619D01*
X119010714Y-56252857D01*
X119010714Y-56348095D01*
X118963095Y-56490952D01*
X118391666Y-57062380D01*
X119010714Y-57062380D01*
%TO.C,R13*%
X113082142Y-130312380D02*
X112748809Y-129836190D01*
X112510714Y-130312380D02*
X112510714Y-129312380D01*
X112891666Y-129312380D01*
X112986904Y-129360000D01*
X113034523Y-129407619D01*
X113082142Y-129502857D01*
X113082142Y-129645714D01*
X113034523Y-129740952D01*
X112986904Y-129788571D01*
X112891666Y-129836190D01*
X112510714Y-129836190D01*
X114034523Y-130312380D02*
X113463095Y-130312380D01*
X113748809Y-130312380D02*
X113748809Y-129312380D01*
X113653571Y-129455238D01*
X113558333Y-129550476D01*
X113463095Y-129598095D01*
X114367857Y-129312380D02*
X114986904Y-129312380D01*
X114653571Y-129693333D01*
X114796428Y-129693333D01*
X114891666Y-129740952D01*
X114939285Y-129788571D01*
X114986904Y-129883809D01*
X114986904Y-130121904D01*
X114939285Y-130217142D01*
X114891666Y-130264761D01*
X114796428Y-130312380D01*
X114510714Y-130312380D01*
X114415476Y-130264761D01*
X114367857Y-130217142D01*
%TO.C,C9*%
X126082142Y-73987918D02*
X126129761Y-74035537D01*
X126177380Y-74178394D01*
X126177380Y-74273632D01*
X126129761Y-74416490D01*
X126034523Y-74511728D01*
X125939285Y-74559347D01*
X125748809Y-74606966D01*
X125605952Y-74606966D01*
X125415476Y-74559347D01*
X125320238Y-74511728D01*
X125225000Y-74416490D01*
X125177380Y-74273632D01*
X125177380Y-74178394D01*
X125225000Y-74035537D01*
X125272619Y-73987918D01*
X126177380Y-73511728D02*
X126177380Y-73321252D01*
X126129761Y-73226013D01*
X126082142Y-73178394D01*
X125939285Y-73083156D01*
X125748809Y-73035537D01*
X125367857Y-73035537D01*
X125272619Y-73083156D01*
X125225000Y-73130775D01*
X125177380Y-73226013D01*
X125177380Y-73416490D01*
X125225000Y-73511728D01*
X125272619Y-73559347D01*
X125367857Y-73606966D01*
X125605952Y-73606966D01*
X125701190Y-73559347D01*
X125748809Y-73511728D01*
X125796428Y-73416490D01*
X125796428Y-73226013D01*
X125748809Y-73130775D01*
X125701190Y-73083156D01*
X125605952Y-73035537D01*
%TO.C,Q4*%
X113859761Y-90407619D02*
X113764523Y-90360000D01*
X113669285Y-90264761D01*
X113526428Y-90121904D01*
X113431190Y-90074285D01*
X113335952Y-90074285D01*
X113383571Y-90312380D02*
X113288333Y-90264761D01*
X113193095Y-90169523D01*
X113145476Y-89979047D01*
X113145476Y-89645714D01*
X113193095Y-89455238D01*
X113288333Y-89360000D01*
X113383571Y-89312380D01*
X113574047Y-89312380D01*
X113669285Y-89360000D01*
X113764523Y-89455238D01*
X113812142Y-89645714D01*
X113812142Y-89979047D01*
X113764523Y-90169523D01*
X113669285Y-90264761D01*
X113574047Y-90312380D01*
X113383571Y-90312380D01*
X114669285Y-89645714D02*
X114669285Y-90312380D01*
X114431190Y-89264761D02*
X114193095Y-89979047D01*
X114812142Y-89979047D01*
%TO.C,R9*%
X113558333Y-106812380D02*
X113225000Y-106336190D01*
X112986904Y-106812380D02*
X112986904Y-105812380D01*
X113367857Y-105812380D01*
X113463095Y-105860000D01*
X113510714Y-105907619D01*
X113558333Y-106002857D01*
X113558333Y-106145714D01*
X113510714Y-106240952D01*
X113463095Y-106288571D01*
X113367857Y-106336190D01*
X112986904Y-106336190D01*
X114034523Y-106812380D02*
X114225000Y-106812380D01*
X114320238Y-106764761D01*
X114367857Y-106717142D01*
X114463095Y-106574285D01*
X114510714Y-106383809D01*
X114510714Y-106002857D01*
X114463095Y-105907619D01*
X114415476Y-105860000D01*
X114320238Y-105812380D01*
X114129761Y-105812380D01*
X114034523Y-105860000D01*
X113986904Y-105907619D01*
X113939285Y-106002857D01*
X113939285Y-106240952D01*
X113986904Y-106336190D01*
X114034523Y-106383809D01*
X114129761Y-106431428D01*
X114320238Y-106431428D01*
X114415476Y-106383809D01*
X114463095Y-106336190D01*
X114510714Y-106240952D01*
%TO.C,Q3*%
X113859761Y-80767619D02*
X113764523Y-80720000D01*
X113669285Y-80624761D01*
X113526428Y-80481904D01*
X113431190Y-80434285D01*
X113335952Y-80434285D01*
X113383571Y-80672380D02*
X113288333Y-80624761D01*
X113193095Y-80529523D01*
X113145476Y-80339047D01*
X113145476Y-80005714D01*
X113193095Y-79815238D01*
X113288333Y-79720000D01*
X113383571Y-79672380D01*
X113574047Y-79672380D01*
X113669285Y-79720000D01*
X113764523Y-79815238D01*
X113812142Y-80005714D01*
X113812142Y-80339047D01*
X113764523Y-80529523D01*
X113669285Y-80624761D01*
X113574047Y-80672380D01*
X113383571Y-80672380D01*
X114145476Y-79672380D02*
X114764523Y-79672380D01*
X114431190Y-80053333D01*
X114574047Y-80053333D01*
X114669285Y-80100952D01*
X114716904Y-80148571D01*
X114764523Y-80243809D01*
X114764523Y-80481904D01*
X114716904Y-80577142D01*
X114669285Y-80624761D01*
X114574047Y-80672380D01*
X114288333Y-80672380D01*
X114193095Y-80624761D01*
X114145476Y-80577142D01*
%TO.C,R5*%
X113331269Y-82812380D02*
X112997936Y-82336190D01*
X112759840Y-82812380D02*
X112759840Y-81812380D01*
X113140793Y-81812380D01*
X113236031Y-81860000D01*
X113283650Y-81907619D01*
X113331269Y-82002857D01*
X113331269Y-82145714D01*
X113283650Y-82240952D01*
X113236031Y-82288571D01*
X113140793Y-82336190D01*
X112759840Y-82336190D01*
X114236031Y-81812380D02*
X113759840Y-81812380D01*
X113712221Y-82288571D01*
X113759840Y-82240952D01*
X113855078Y-82193333D01*
X114093174Y-82193333D01*
X114188412Y-82240952D01*
X114236031Y-82288571D01*
X114283650Y-82383809D01*
X114283650Y-82621904D01*
X114236031Y-82717142D01*
X114188412Y-82764761D01*
X114093174Y-82812380D01*
X113855078Y-82812380D01*
X113759840Y-82764761D01*
X113712221Y-82717142D01*
%TO.C,R15*%
X111482142Y-145812380D02*
X111148809Y-145336190D01*
X110910714Y-145812380D02*
X110910714Y-144812380D01*
X111291666Y-144812380D01*
X111386904Y-144860000D01*
X111434523Y-144907619D01*
X111482142Y-145002857D01*
X111482142Y-145145714D01*
X111434523Y-145240952D01*
X111386904Y-145288571D01*
X111291666Y-145336190D01*
X110910714Y-145336190D01*
X112434523Y-145812380D02*
X111863095Y-145812380D01*
X112148809Y-145812380D02*
X112148809Y-144812380D01*
X112053571Y-144955238D01*
X111958333Y-145050476D01*
X111863095Y-145098095D01*
X113339285Y-144812380D02*
X112863095Y-144812380D01*
X112815476Y-145288571D01*
X112863095Y-145240952D01*
X112958333Y-145193333D01*
X113196428Y-145193333D01*
X113291666Y-145240952D01*
X113339285Y-145288571D01*
X113386904Y-145383809D01*
X113386904Y-145621904D01*
X113339285Y-145717142D01*
X113291666Y-145764761D01*
X113196428Y-145812380D01*
X112958333Y-145812380D01*
X112863095Y-145764761D01*
X112815476Y-145717142D01*
%TO.C,C1*%
X122558333Y-56937142D02*
X122510714Y-56984761D01*
X122367857Y-57032380D01*
X122272619Y-57032380D01*
X122129761Y-56984761D01*
X122034523Y-56889523D01*
X121986904Y-56794285D01*
X121939285Y-56603809D01*
X121939285Y-56460952D01*
X121986904Y-56270476D01*
X122034523Y-56175238D01*
X122129761Y-56080000D01*
X122272619Y-56032380D01*
X122367857Y-56032380D01*
X122510714Y-56080000D01*
X122558333Y-56127619D01*
X123510714Y-57032380D02*
X122939285Y-57032380D01*
X123225000Y-57032380D02*
X123225000Y-56032380D01*
X123129761Y-56175238D01*
X123034523Y-56270476D01*
X122939285Y-56318095D01*
%TO.C,U1*%
X130463095Y-68512380D02*
X130463095Y-69321904D01*
X130510714Y-69417142D01*
X130558333Y-69464761D01*
X130653571Y-69512380D01*
X130844047Y-69512380D01*
X130939285Y-69464761D01*
X130986904Y-69417142D01*
X131034523Y-69321904D01*
X131034523Y-68512380D01*
X132034523Y-69512380D02*
X131463095Y-69512380D01*
X131748809Y-69512380D02*
X131748809Y-68512380D01*
X131653571Y-68655238D01*
X131558333Y-68750476D01*
X131463095Y-68798095D01*
%TO.C,C7*%
X122558333Y-130237142D02*
X122510714Y-130284761D01*
X122367857Y-130332380D01*
X122272619Y-130332380D01*
X122129761Y-130284761D01*
X122034523Y-130189523D01*
X121986904Y-130094285D01*
X121939285Y-129903809D01*
X121939285Y-129760952D01*
X121986904Y-129570476D01*
X122034523Y-129475238D01*
X122129761Y-129380000D01*
X122272619Y-129332380D01*
X122367857Y-129332380D01*
X122510714Y-129380000D01*
X122558333Y-129427619D01*
X122891666Y-129332380D02*
X123558333Y-129332380D01*
X123129761Y-130332380D01*
%TO.C,C11*%
X137582142Y-138202857D02*
X137629761Y-138250476D01*
X137677380Y-138393333D01*
X137677380Y-138488571D01*
X137629761Y-138631428D01*
X137534523Y-138726666D01*
X137439285Y-138774285D01*
X137248809Y-138821904D01*
X137105952Y-138821904D01*
X136915476Y-138774285D01*
X136820238Y-138726666D01*
X136725000Y-138631428D01*
X136677380Y-138488571D01*
X136677380Y-138393333D01*
X136725000Y-138250476D01*
X136772619Y-138202857D01*
X137677380Y-137250476D02*
X137677380Y-137821904D01*
X137677380Y-137536190D02*
X136677380Y-137536190D01*
X136820238Y-137631428D01*
X136915476Y-137726666D01*
X136963095Y-137821904D01*
X137677380Y-136298095D02*
X137677380Y-136869523D01*
X137677380Y-136583809D02*
X136677380Y-136583809D01*
X136820238Y-136679047D01*
X136915476Y-136774285D01*
X136963095Y-136869523D01*
%TO.C,R17*%
X137582142Y-132862380D02*
X137248809Y-132386190D01*
X137010714Y-132862380D02*
X137010714Y-131862380D01*
X137391666Y-131862380D01*
X137486904Y-131910000D01*
X137534523Y-131957619D01*
X137582142Y-132052857D01*
X137582142Y-132195714D01*
X137534523Y-132290952D01*
X137486904Y-132338571D01*
X137391666Y-132386190D01*
X137010714Y-132386190D01*
X138534523Y-132862380D02*
X137963095Y-132862380D01*
X138248809Y-132862380D02*
X138248809Y-131862380D01*
X138153571Y-132005238D01*
X138058333Y-132100476D01*
X137963095Y-132148095D01*
X138867857Y-131862380D02*
X139534523Y-131862380D01*
X139105952Y-132862380D01*
%TO.C,C10*%
X126082142Y-121964109D02*
X126129761Y-122011728D01*
X126177380Y-122154585D01*
X126177380Y-122249823D01*
X126129761Y-122392680D01*
X126034523Y-122487918D01*
X125939285Y-122535537D01*
X125748809Y-122583156D01*
X125605952Y-122583156D01*
X125415476Y-122535537D01*
X125320238Y-122487918D01*
X125225000Y-122392680D01*
X125177380Y-122249823D01*
X125177380Y-122154585D01*
X125225000Y-122011728D01*
X125272619Y-121964109D01*
X126177380Y-121011728D02*
X126177380Y-121583156D01*
X126177380Y-121297442D02*
X125177380Y-121297442D01*
X125320238Y-121392680D01*
X125415476Y-121487918D01*
X125463095Y-121583156D01*
X125177380Y-120392680D02*
X125177380Y-120297442D01*
X125225000Y-120202204D01*
X125272619Y-120154585D01*
X125367857Y-120106966D01*
X125558333Y-120059347D01*
X125796428Y-120059347D01*
X125986904Y-120106966D01*
X126082142Y-120154585D01*
X126129761Y-120202204D01*
X126177380Y-120297442D01*
X126177380Y-120392680D01*
X126129761Y-120487918D01*
X126082142Y-120535537D01*
X125986904Y-120583156D01*
X125796428Y-120630775D01*
X125558333Y-120630775D01*
X125367857Y-120583156D01*
X125272619Y-120535537D01*
X125225000Y-120487918D01*
X125177380Y-120392680D01*
%TO.C,Q7*%
X113763274Y-124407619D02*
X113668036Y-124360000D01*
X113572798Y-124264761D01*
X113429941Y-124121904D01*
X113334703Y-124074285D01*
X113239465Y-124074285D01*
X113287084Y-124312380D02*
X113191846Y-124264761D01*
X113096608Y-124169523D01*
X113048989Y-123979047D01*
X113048989Y-123645714D01*
X113096608Y-123455238D01*
X113191846Y-123360000D01*
X113287084Y-123312380D01*
X113477560Y-123312380D01*
X113572798Y-123360000D01*
X113668036Y-123455238D01*
X113715655Y-123645714D01*
X113715655Y-123979047D01*
X113668036Y-124169523D01*
X113572798Y-124264761D01*
X113477560Y-124312380D01*
X113287084Y-124312380D01*
X114048989Y-123312380D02*
X114715655Y-123312380D01*
X114287084Y-124312380D01*
%TO.C,R6*%
X118058333Y-82862380D02*
X117725000Y-82386190D01*
X117486904Y-82862380D02*
X117486904Y-81862380D01*
X117867857Y-81862380D01*
X117963095Y-81910000D01*
X118010714Y-81957619D01*
X118058333Y-82052857D01*
X118058333Y-82195714D01*
X118010714Y-82290952D01*
X117963095Y-82338571D01*
X117867857Y-82386190D01*
X117486904Y-82386190D01*
X118915476Y-81862380D02*
X118725000Y-81862380D01*
X118629761Y-81910000D01*
X118582142Y-81957619D01*
X118486904Y-82100476D01*
X118439285Y-82290952D01*
X118439285Y-82671904D01*
X118486904Y-82767142D01*
X118534523Y-82814761D01*
X118629761Y-82862380D01*
X118820238Y-82862380D01*
X118915476Y-82814761D01*
X118963095Y-82767142D01*
X119010714Y-82671904D01*
X119010714Y-82433809D01*
X118963095Y-82338571D01*
X118915476Y-82290952D01*
X118820238Y-82243333D01*
X118629761Y-82243333D01*
X118534523Y-82290952D01*
X118486904Y-82338571D01*
X118439285Y-82433809D01*
%TO.C,R1*%
X113558333Y-60362380D02*
X113225000Y-59886190D01*
X112986904Y-60362380D02*
X112986904Y-59362380D01*
X113367857Y-59362380D01*
X113463095Y-59410000D01*
X113510714Y-59457619D01*
X113558333Y-59552857D01*
X113558333Y-59695714D01*
X113510714Y-59790952D01*
X113463095Y-59838571D01*
X113367857Y-59886190D01*
X112986904Y-59886190D01*
X114510714Y-60362380D02*
X113939285Y-60362380D01*
X114225000Y-60362380D02*
X114225000Y-59362380D01*
X114129761Y-59505238D01*
X114034523Y-59600476D01*
X113939285Y-59648095D01*
%TO.C,R14*%
X117582142Y-130362380D02*
X117248809Y-129886190D01*
X117010714Y-130362380D02*
X117010714Y-129362380D01*
X117391666Y-129362380D01*
X117486904Y-129410000D01*
X117534523Y-129457619D01*
X117582142Y-129552857D01*
X117582142Y-129695714D01*
X117534523Y-129790952D01*
X117486904Y-129838571D01*
X117391666Y-129886190D01*
X117010714Y-129886190D01*
X118534523Y-130362380D02*
X117963095Y-130362380D01*
X118248809Y-130362380D02*
X118248809Y-129362380D01*
X118153571Y-129505238D01*
X118058333Y-129600476D01*
X117963095Y-129648095D01*
X119391666Y-129695714D02*
X119391666Y-130362380D01*
X119153571Y-129314761D02*
X118915476Y-130029047D01*
X119534523Y-130029047D01*
%TO.C,U2*%
X130463095Y-116012380D02*
X130463095Y-116821904D01*
X130510714Y-116917142D01*
X130558333Y-116964761D01*
X130653571Y-117012380D01*
X130844047Y-117012380D01*
X130939285Y-116964761D01*
X130986904Y-116917142D01*
X131034523Y-116821904D01*
X131034523Y-116012380D01*
X131463095Y-116107619D02*
X131510714Y-116060000D01*
X131605952Y-116012380D01*
X131844047Y-116012380D01*
X131939285Y-116060000D01*
X131986904Y-116107619D01*
X132034523Y-116202857D01*
X132034523Y-116298095D01*
X131986904Y-116440952D01*
X131415476Y-117012380D01*
X132034523Y-117012380D01*
%TO.C,R10*%
X117582142Y-106862380D02*
X117248809Y-106386190D01*
X117010714Y-106862380D02*
X117010714Y-105862380D01*
X117391666Y-105862380D01*
X117486904Y-105910000D01*
X117534523Y-105957619D01*
X117582142Y-106052857D01*
X117582142Y-106195714D01*
X117534523Y-106290952D01*
X117486904Y-106338571D01*
X117391666Y-106386190D01*
X117010714Y-106386190D01*
X118534523Y-106862380D02*
X117963095Y-106862380D01*
X118248809Y-106862380D02*
X118248809Y-105862380D01*
X118153571Y-106005238D01*
X118058333Y-106100476D01*
X117963095Y-106148095D01*
X119153571Y-105862380D02*
X119248809Y-105862380D01*
X119344047Y-105910000D01*
X119391666Y-105957619D01*
X119439285Y-106052857D01*
X119486904Y-106243333D01*
X119486904Y-106481428D01*
X119439285Y-106671904D01*
X119391666Y-106767142D01*
X119344047Y-106814761D01*
X119248809Y-106862380D01*
X119153571Y-106862380D01*
X119058333Y-106814761D01*
X119010714Y-106767142D01*
X118963095Y-106671904D01*
X118915476Y-106481428D01*
X118915476Y-106243333D01*
X118963095Y-106052857D01*
X119010714Y-105957619D01*
X119058333Y-105910000D01*
X119153571Y-105862380D01*
%TO.C,R4*%
X118058333Y-72362380D02*
X117725000Y-71886190D01*
X117486904Y-72362380D02*
X117486904Y-71362380D01*
X117867857Y-71362380D01*
X117963095Y-71410000D01*
X118010714Y-71457619D01*
X118058333Y-71552857D01*
X118058333Y-71695714D01*
X118010714Y-71790952D01*
X117963095Y-71838571D01*
X117867857Y-71886190D01*
X117486904Y-71886190D01*
X118915476Y-71695714D02*
X118915476Y-72362380D01*
X118677380Y-71314761D02*
X118439285Y-72029047D01*
X119058333Y-72029047D01*
%TO.C,C8*%
X122558333Y-145537142D02*
X122510714Y-145584761D01*
X122367857Y-145632380D01*
X122272619Y-145632380D01*
X122129761Y-145584761D01*
X122034523Y-145489523D01*
X121986904Y-145394285D01*
X121939285Y-145203809D01*
X121939285Y-145060952D01*
X121986904Y-144870476D01*
X122034523Y-144775238D01*
X122129761Y-144680000D01*
X122272619Y-144632380D01*
X122367857Y-144632380D01*
X122510714Y-144680000D01*
X122558333Y-144727619D01*
X123129761Y-145060952D02*
X123034523Y-145013333D01*
X122986904Y-144965714D01*
X122939285Y-144870476D01*
X122939285Y-144822857D01*
X122986904Y-144727619D01*
X123034523Y-144680000D01*
X123129761Y-144632380D01*
X123320238Y-144632380D01*
X123415476Y-144680000D01*
X123463095Y-144727619D01*
X123510714Y-144822857D01*
X123510714Y-144870476D01*
X123463095Y-144965714D01*
X123415476Y-145013333D01*
X123320238Y-145060952D01*
X123129761Y-145060952D01*
X123034523Y-145108571D01*
X122986904Y-145156190D01*
X122939285Y-145251428D01*
X122939285Y-145441904D01*
X122986904Y-145537142D01*
X123034523Y-145584761D01*
X123129761Y-145632380D01*
X123320238Y-145632380D01*
X123415476Y-145584761D01*
X123463095Y-145537142D01*
X123510714Y-145441904D01*
X123510714Y-145251428D01*
X123463095Y-145156190D01*
X123415476Y-145108571D01*
X123320238Y-145060952D01*
%TO.C,R16*%
X118082142Y-145662380D02*
X117748809Y-145186190D01*
X117510714Y-145662380D02*
X117510714Y-144662380D01*
X117891666Y-144662380D01*
X117986904Y-144710000D01*
X118034523Y-144757619D01*
X118082142Y-144852857D01*
X118082142Y-144995714D01*
X118034523Y-145090952D01*
X117986904Y-145138571D01*
X117891666Y-145186190D01*
X117510714Y-145186190D01*
X119034523Y-145662380D02*
X118463095Y-145662380D01*
X118748809Y-145662380D02*
X118748809Y-144662380D01*
X118653571Y-144805238D01*
X118558333Y-144900476D01*
X118463095Y-144948095D01*
X119891666Y-144662380D02*
X119701190Y-144662380D01*
X119605952Y-144710000D01*
X119558333Y-144757619D01*
X119463095Y-144900476D01*
X119415476Y-145090952D01*
X119415476Y-145471904D01*
X119463095Y-145567142D01*
X119510714Y-145614761D01*
X119605952Y-145662380D01*
X119796428Y-145662380D01*
X119891666Y-145614761D01*
X119939285Y-145567142D01*
X119986904Y-145471904D01*
X119986904Y-145233809D01*
X119939285Y-145138571D01*
X119891666Y-145090952D01*
X119796428Y-145043333D01*
X119605952Y-145043333D01*
X119510714Y-145090952D01*
X119463095Y-145138571D01*
X119415476Y-145233809D01*
%TO.C,R7*%
X112058333Y-96012380D02*
X111725000Y-95536190D01*
X111486904Y-96012380D02*
X111486904Y-95012380D01*
X111867857Y-95012380D01*
X111963095Y-95060000D01*
X112010714Y-95107619D01*
X112058333Y-95202857D01*
X112058333Y-95345714D01*
X112010714Y-95440952D01*
X111963095Y-95488571D01*
X111867857Y-95536190D01*
X111486904Y-95536190D01*
X112391666Y-95012380D02*
X113058333Y-95012380D01*
X112629761Y-96012380D01*
%TO.C,Q5*%
X113859761Y-104467619D02*
X113764523Y-104420000D01*
X113669285Y-104324761D01*
X113526428Y-104181904D01*
X113431190Y-104134285D01*
X113335952Y-104134285D01*
X113383571Y-104372380D02*
X113288333Y-104324761D01*
X113193095Y-104229523D01*
X113145476Y-104039047D01*
X113145476Y-103705714D01*
X113193095Y-103515238D01*
X113288333Y-103420000D01*
X113383571Y-103372380D01*
X113574047Y-103372380D01*
X113669285Y-103420000D01*
X113764523Y-103515238D01*
X113812142Y-103705714D01*
X113812142Y-104039047D01*
X113764523Y-104229523D01*
X113669285Y-104324761D01*
X113574047Y-104372380D01*
X113383571Y-104372380D01*
X114716904Y-103372380D02*
X114240714Y-103372380D01*
X114193095Y-103848571D01*
X114240714Y-103800952D01*
X114335952Y-103753333D01*
X114574047Y-103753333D01*
X114669285Y-103800952D01*
X114716904Y-103848571D01*
X114764523Y-103943809D01*
X114764523Y-104181904D01*
X114716904Y-104277142D01*
X114669285Y-104324761D01*
X114574047Y-104372380D01*
X114335952Y-104372380D01*
X114240714Y-104324761D01*
X114193095Y-104277142D01*
%TO.C,R12*%
X117582142Y-119862380D02*
X117248809Y-119386190D01*
X117010714Y-119862380D02*
X117010714Y-118862380D01*
X117391666Y-118862380D01*
X117486904Y-118910000D01*
X117534523Y-118957619D01*
X117582142Y-119052857D01*
X117582142Y-119195714D01*
X117534523Y-119290952D01*
X117486904Y-119338571D01*
X117391666Y-119386190D01*
X117010714Y-119386190D01*
X118534523Y-119862380D02*
X117963095Y-119862380D01*
X118248809Y-119862380D02*
X118248809Y-118862380D01*
X118153571Y-119005238D01*
X118058333Y-119100476D01*
X117963095Y-119148095D01*
X118915476Y-118957619D02*
X118963095Y-118910000D01*
X119058333Y-118862380D01*
X119296428Y-118862380D01*
X119391666Y-118910000D01*
X119439285Y-118957619D01*
X119486904Y-119052857D01*
X119486904Y-119148095D01*
X119439285Y-119290952D01*
X118867857Y-119862380D01*
X119486904Y-119862380D01*
%TO.C,C5*%
X122558333Y-106737142D02*
X122510714Y-106784761D01*
X122367857Y-106832380D01*
X122272619Y-106832380D01*
X122129761Y-106784761D01*
X122034523Y-106689523D01*
X121986904Y-106594285D01*
X121939285Y-106403809D01*
X121939285Y-106260952D01*
X121986904Y-106070476D01*
X122034523Y-105975238D01*
X122129761Y-105880000D01*
X122272619Y-105832380D01*
X122367857Y-105832380D01*
X122510714Y-105880000D01*
X122558333Y-105927619D01*
X123463095Y-105832380D02*
X122986904Y-105832380D01*
X122939285Y-106308571D01*
X122986904Y-106260952D01*
X123082142Y-106213333D01*
X123320238Y-106213333D01*
X123415476Y-106260952D01*
X123463095Y-106308571D01*
X123510714Y-106403809D01*
X123510714Y-106641904D01*
X123463095Y-106737142D01*
X123415476Y-106784761D01*
X123320238Y-106832380D01*
X123082142Y-106832380D01*
X122986904Y-106784761D01*
X122939285Y-106737142D01*
%TO.C,C3*%
X122558333Y-82737142D02*
X122510714Y-82784761D01*
X122367857Y-82832380D01*
X122272619Y-82832380D01*
X122129761Y-82784761D01*
X122034523Y-82689523D01*
X121986904Y-82594285D01*
X121939285Y-82403809D01*
X121939285Y-82260952D01*
X121986904Y-82070476D01*
X122034523Y-81975238D01*
X122129761Y-81880000D01*
X122272619Y-81832380D01*
X122367857Y-81832380D01*
X122510714Y-81880000D01*
X122558333Y-81927619D01*
X122891666Y-81832380D02*
X123510714Y-81832380D01*
X123177380Y-82213333D01*
X123320238Y-82213333D01*
X123415476Y-82260952D01*
X123463095Y-82308571D01*
X123510714Y-82403809D01*
X123510714Y-82641904D01*
X123463095Y-82737142D01*
X123415476Y-82784761D01*
X123320238Y-82832380D01*
X123034523Y-82832380D01*
X122939285Y-82784761D01*
X122891666Y-82737142D01*
%TO.C,R3*%
X113558333Y-72312380D02*
X113225000Y-71836190D01*
X112986904Y-72312380D02*
X112986904Y-71312380D01*
X113367857Y-71312380D01*
X113463095Y-71360000D01*
X113510714Y-71407619D01*
X113558333Y-71502857D01*
X113558333Y-71645714D01*
X113510714Y-71740952D01*
X113463095Y-71788571D01*
X113367857Y-71836190D01*
X112986904Y-71836190D01*
X113891666Y-71312380D02*
X114510714Y-71312380D01*
X114177380Y-71693333D01*
X114320238Y-71693333D01*
X114415476Y-71740952D01*
X114463095Y-71788571D01*
X114510714Y-71883809D01*
X114510714Y-72121904D01*
X114463095Y-72217142D01*
X114415476Y-72264761D01*
X114320238Y-72312380D01*
X114034523Y-72312380D01*
X113939285Y-72264761D01*
X113891666Y-72217142D01*
%TO.C,JP1*%
X137391666Y-127012380D02*
X137391666Y-127726666D01*
X137344047Y-127869523D01*
X137248809Y-127964761D01*
X137105952Y-128012380D01*
X137010714Y-128012380D01*
X137867857Y-128012380D02*
X137867857Y-127012380D01*
X138248809Y-127012380D01*
X138344047Y-127060000D01*
X138391666Y-127107619D01*
X138439285Y-127202857D01*
X138439285Y-127345714D01*
X138391666Y-127440952D01*
X138344047Y-127488571D01*
X138248809Y-127536190D01*
X137867857Y-127536190D01*
X139391666Y-128012380D02*
X138820238Y-128012380D01*
X139105952Y-128012380D02*
X139105952Y-127012380D01*
X139010714Y-127155238D01*
X138915476Y-127250476D01*
X138820238Y-127298095D01*
%TO.C,C12*%
X133582142Y-127917142D02*
X133534523Y-127964761D01*
X133391666Y-128012380D01*
X133296428Y-128012380D01*
X133153571Y-127964761D01*
X133058333Y-127869523D01*
X133010714Y-127774285D01*
X132963095Y-127583809D01*
X132963095Y-127440952D01*
X133010714Y-127250476D01*
X133058333Y-127155238D01*
X133153571Y-127060000D01*
X133296428Y-127012380D01*
X133391666Y-127012380D01*
X133534523Y-127060000D01*
X133582142Y-127107619D01*
X134534523Y-128012380D02*
X133963095Y-128012380D01*
X134248809Y-128012380D02*
X134248809Y-127012380D01*
X134153571Y-127155238D01*
X134058333Y-127250476D01*
X133963095Y-127298095D01*
X134915476Y-127107619D02*
X134963095Y-127060000D01*
X135058333Y-127012380D01*
X135296428Y-127012380D01*
X135391666Y-127060000D01*
X135439285Y-127107619D01*
X135486904Y-127202857D01*
X135486904Y-127298095D01*
X135439285Y-127440952D01*
X134867857Y-128012380D01*
X135486904Y-128012380D01*
%TO.C,C4*%
X122558333Y-95737142D02*
X122510714Y-95784761D01*
X122367857Y-95832380D01*
X122272619Y-95832380D01*
X122129761Y-95784761D01*
X122034523Y-95689523D01*
X121986904Y-95594285D01*
X121939285Y-95403809D01*
X121939285Y-95260952D01*
X121986904Y-95070476D01*
X122034523Y-94975238D01*
X122129761Y-94880000D01*
X122272619Y-94832380D01*
X122367857Y-94832380D01*
X122510714Y-94880000D01*
X122558333Y-94927619D01*
X123415476Y-95165714D02*
X123415476Y-95832380D01*
X123177380Y-94784761D02*
X122939285Y-95499047D01*
X123558333Y-95499047D01*
%TO.C,Q2*%
X113859761Y-64907619D02*
X113764523Y-64860000D01*
X113669285Y-64764761D01*
X113526428Y-64621904D01*
X113431190Y-64574285D01*
X113335952Y-64574285D01*
X113383571Y-64812380D02*
X113288333Y-64764761D01*
X113193095Y-64669523D01*
X113145476Y-64479047D01*
X113145476Y-64145714D01*
X113193095Y-63955238D01*
X113288333Y-63860000D01*
X113383571Y-63812380D01*
X113574047Y-63812380D01*
X113669285Y-63860000D01*
X113764523Y-63955238D01*
X113812142Y-64145714D01*
X113812142Y-64479047D01*
X113764523Y-64669523D01*
X113669285Y-64764761D01*
X113574047Y-64812380D01*
X113383571Y-64812380D01*
X114193095Y-63907619D02*
X114240714Y-63860000D01*
X114335952Y-63812380D01*
X114574047Y-63812380D01*
X114669285Y-63860000D01*
X114716904Y-63907619D01*
X114764523Y-64002857D01*
X114764523Y-64098095D01*
X114716904Y-64240952D01*
X114145476Y-64812380D01*
X114764523Y-64812380D01*
D11*
%TO.C,C6*%
X122463748Y-121795000D02*
X122986252Y-121795000D01*
X122463748Y-120325000D02*
X122986252Y-120325000D01*
%TO.C,Q8*%
X115515000Y-141680000D02*
X115515000Y-141524000D01*
X115515000Y-143996000D02*
X115515000Y-143840000D01*
X112282665Y-143838608D02*
G75*
G03*
X115515000Y-143995516I1672335J1078609D01*
G01*
X115515000Y-141524484D02*
G75*
G03*
X112282665Y-141681392I-1560000J-1235517D01*
G01*
X112913870Y-143839837D02*
G75*
G03*
X114995961Y-143840000I1041130J1079837D01*
G01*
X114995961Y-141680000D02*
G75*
G03*
X112913870Y-141680163I-1040961J-1080000D01*
G01*
%TO.C,Q6*%
X115515000Y-117996000D02*
X115515000Y-117840000D01*
X115515000Y-115680000D02*
X115515000Y-115524000D01*
X114995961Y-115680000D02*
G75*
G03*
X112913870Y-115680163I-1040961J-1080000D01*
G01*
X112913870Y-117839837D02*
G75*
G03*
X114995961Y-117840000I1041130J1079837D01*
G01*
X112282665Y-117838608D02*
G75*
G03*
X115515000Y-117995516I1672335J1078609D01*
G01*
X115515000Y-115524484D02*
G75*
G03*
X112282665Y-115681392I-1560000J-1235517D01*
G01*
%TO.C,R11*%
X113952064Y-121795000D02*
X113497936Y-121795000D01*
X113952064Y-120325000D02*
X113497936Y-120325000D01*
%TO.C,R8*%
X117997936Y-96325000D02*
X118452064Y-96325000D01*
X117997936Y-97795000D02*
X118452064Y-97795000D01*
%TO.C,Q1*%
X115515000Y-52496000D02*
X115515000Y-52340000D01*
X115515000Y-50180000D02*
X115515000Y-50024000D01*
X112913870Y-52339837D02*
G75*
G03*
X114995961Y-52340000I1041130J1079837D01*
G01*
X114995961Y-50180000D02*
G75*
G03*
X112913870Y-50180163I-1040961J-1080000D01*
G01*
X112282665Y-52338608D02*
G75*
G03*
X115515000Y-52495516I1672335J1078609D01*
G01*
X115515000Y-50024484D02*
G75*
G03*
X112282665Y-50181392I-1560000J-1235517D01*
G01*
%TO.C,C2*%
X122463748Y-72825000D02*
X122986252Y-72825000D01*
X122463748Y-74295000D02*
X122986252Y-74295000D01*
%TO.C,R2*%
X117997936Y-58995000D02*
X118452064Y-58995000D01*
X117997936Y-57525000D02*
X118452064Y-57525000D01*
%TO.C,R13*%
X113952064Y-132295000D02*
X113497936Y-132295000D01*
X113952064Y-130825000D02*
X113497936Y-130825000D01*
%TO.C,C9*%
X127960000Y-73298748D02*
X127960000Y-73821252D01*
X126490000Y-73298748D02*
X126490000Y-73821252D01*
%TO.C,Q4*%
X115515000Y-91980000D02*
X115515000Y-91824000D01*
X115515000Y-94296000D02*
X115515000Y-94140000D01*
X112282665Y-94138608D02*
G75*
G03*
X115515000Y-94295516I1672335J1078609D01*
G01*
X114995961Y-91980000D02*
G75*
G03*
X112913870Y-91980163I-1040961J-1080000D01*
G01*
X112913870Y-94139837D02*
G75*
G03*
X114995961Y-94140000I1041130J1079837D01*
G01*
X115515000Y-91824484D02*
G75*
G03*
X112282665Y-91981392I-1560000J-1235517D01*
G01*
%TO.C,R9*%
X113952064Y-107325000D02*
X113497936Y-107325000D01*
X113952064Y-108795000D02*
X113497936Y-108795000D01*
%TO.C,Q3*%
X115515000Y-78496000D02*
X115515000Y-78340000D01*
X115515000Y-76180000D02*
X115515000Y-76024000D01*
X115515000Y-76024484D02*
G75*
G03*
X112282665Y-76181392I-1560000J-1235517D01*
G01*
X114995961Y-76180000D02*
G75*
G03*
X112913870Y-76180163I-1040961J-1080000D01*
G01*
X112282665Y-78338608D02*
G75*
G03*
X115515000Y-78495516I1672335J1078609D01*
G01*
X112913870Y-78339837D02*
G75*
G03*
X114995961Y-78340000I1041130J1079837D01*
G01*
%TO.C,R5*%
X113952064Y-84795000D02*
X113497936Y-84795000D01*
X113952064Y-83325000D02*
X113497936Y-83325000D01*
%TO.C,R15*%
X113952064Y-146125000D02*
X113497936Y-146125000D01*
X113952064Y-147595000D02*
X113497936Y-147595000D01*
%TO.C,C1*%
X122463748Y-57525000D02*
X122986252Y-57525000D01*
X122463748Y-58995000D02*
X122986252Y-58995000D01*
%TO.C,U1*%
X128615000Y-73560000D02*
X128615000Y-75760000D01*
X133835000Y-73560000D02*
X133835000Y-75760000D01*
X133835000Y-73560000D02*
X133835000Y-69960000D01*
X128615000Y-73560000D02*
X128615000Y-71360000D01*
%TO.C,C7*%
X122463748Y-132295000D02*
X122986252Y-132295000D01*
X122463748Y-130825000D02*
X122986252Y-130825000D01*
%TO.C,C11*%
X133013748Y-136650000D02*
X134436252Y-136650000D01*
X133013748Y-138470000D02*
X134436252Y-138470000D01*
%TO.C,R17*%
X137997936Y-134795000D02*
X138452064Y-134795000D01*
X137997936Y-133325000D02*
X138452064Y-133325000D01*
%TO.C,C10*%
X126490000Y-120798748D02*
X126490000Y-121321252D01*
X127960000Y-120798748D02*
X127960000Y-121321252D01*
%TO.C,Q7*%
X115515000Y-125580000D02*
X115515000Y-125424000D01*
X115515000Y-127896000D02*
X115515000Y-127740000D01*
X112282665Y-127738608D02*
G75*
G03*
X115515000Y-127895516I1672335J1078609D01*
G01*
X115515000Y-125424484D02*
G75*
G03*
X112282665Y-125581392I-1560000J-1235517D01*
G01*
X114995961Y-125580000D02*
G75*
G03*
X112913870Y-125580163I-1040961J-1080000D01*
G01*
X112913870Y-127739837D02*
G75*
G03*
X114995961Y-127740000I1041130J1079837D01*
G01*
%TO.C,R6*%
X117997936Y-83325000D02*
X118452064Y-83325000D01*
X117997936Y-84795000D02*
X118452064Y-84795000D01*
%TO.C,R1*%
X113952064Y-58995000D02*
X113497936Y-58995000D01*
X113952064Y-57525000D02*
X113497936Y-57525000D01*
%TO.C,R14*%
X117997936Y-130825000D02*
X118452064Y-130825000D01*
X117997936Y-132295000D02*
X118452064Y-132295000D01*
%TO.C,U2*%
X128615000Y-121060000D02*
X128615000Y-123260000D01*
X133835000Y-121060000D02*
X133835000Y-123260000D01*
X133835000Y-121060000D02*
X133835000Y-117460000D01*
X128615000Y-121060000D02*
X128615000Y-118860000D01*
%TO.C,R10*%
X117997936Y-108795000D02*
X118452064Y-108795000D01*
X117997936Y-107325000D02*
X118452064Y-107325000D01*
%TO.C,R4*%
X117997936Y-72825000D02*
X118452064Y-72825000D01*
X117997936Y-74295000D02*
X118452064Y-74295000D01*
%TO.C,C8*%
X122463748Y-147595000D02*
X122986252Y-147595000D01*
X122463748Y-146125000D02*
X122986252Y-146125000D01*
%TO.C,R16*%
X117997936Y-146125000D02*
X118452064Y-146125000D01*
X117997936Y-147595000D02*
X118452064Y-147595000D01*
%TO.C,R7*%
X113952064Y-97795000D02*
X113497936Y-97795000D01*
X113952064Y-96325000D02*
X113497936Y-96325000D01*
%TO.C,Q5*%
X115515000Y-99880000D02*
X115515000Y-99724000D01*
X115515000Y-102196000D02*
X115515000Y-102040000D01*
X115515000Y-99724484D02*
G75*
G03*
X112282665Y-99881392I-1560000J-1235517D01*
G01*
X114995961Y-99880000D02*
G75*
G03*
X112913870Y-99880163I-1040961J-1080000D01*
G01*
X112913870Y-102039837D02*
G75*
G03*
X114995961Y-102040000I1041130J1079837D01*
G01*
X112282665Y-102038608D02*
G75*
G03*
X115515000Y-102195516I1672335J1078609D01*
G01*
%TO.C,R12*%
X117997936Y-120325000D02*
X118452064Y-120325000D01*
X117997936Y-121795000D02*
X118452064Y-121795000D01*
%TO.C,C5*%
X122463748Y-107325000D02*
X122986252Y-107325000D01*
X122463748Y-108795000D02*
X122986252Y-108795000D01*
%TO.C,C3*%
X122463748Y-83325000D02*
X122986252Y-83325000D01*
X122463748Y-84795000D02*
X122986252Y-84795000D01*
%TO.C,R3*%
X113952064Y-74295000D02*
X113497936Y-74295000D01*
X113952064Y-72825000D02*
X113497936Y-72825000D01*
%TO.C,JP1*%
X136825000Y-128560000D02*
X139625000Y-128560000D01*
X139625000Y-130560000D02*
X136825000Y-130560000D01*
X139625000Y-128560000D02*
X139625000Y-130560000D01*
X136825000Y-130560000D02*
X136825000Y-128560000D01*
%TO.C,C12*%
X134436252Y-130470000D02*
X133013748Y-130470000D01*
X134436252Y-128650000D02*
X133013748Y-128650000D01*
%TO.C,C4*%
X122463748Y-96325000D02*
X122986252Y-96325000D01*
X122463748Y-97795000D02*
X122986252Y-97795000D01*
%TO.C,Q2*%
X115515000Y-68596000D02*
X115515000Y-68440000D01*
X115515000Y-66280000D02*
X115515000Y-66124000D01*
X114995961Y-66280000D02*
G75*
G03*
X112913870Y-66280163I-1040961J-1080000D01*
G01*
X115515000Y-66124484D02*
G75*
G03*
X112282665Y-66281392I-1560000J-1235517D01*
G01*
X112282665Y-68438608D02*
G75*
G03*
X115515000Y-68595516I1672335J1078609D01*
G01*
X112913870Y-68439837D02*
G75*
G03*
X114995961Y-68440000I1041130J1079837D01*
G01*
%TD*%
%LPC*%
D12*
%TO.C,C6*%
X121687500Y-121060000D03*
X123762500Y-121060000D03*
%TD*%
D13*
%TO.C,Q8*%
X115225000Y-142760000D03*
D14*
X112685000Y-142760000D03*
%TD*%
D13*
%TO.C,Q6*%
X115225000Y-116760000D03*
D14*
X112685000Y-116760000D03*
%TD*%
D15*
%TO.C,R11*%
X114725000Y-121060000D03*
X112725000Y-121060000D03*
%TD*%
D16*
%TO.C,R8*%
X117225000Y-97060000D03*
X119225000Y-97060000D03*
%TD*%
D13*
%TO.C,Q1*%
X115225000Y-51260000D03*
D14*
X112685000Y-51260000D03*
%TD*%
D12*
%TO.C,C2*%
X121687500Y-73560000D03*
X123762500Y-73560000D03*
%TD*%
D16*
%TO.C,R2*%
X117225000Y-58260000D03*
X119225000Y-58260000D03*
%TD*%
D15*
%TO.C,R13*%
X114725000Y-131560000D03*
X112725000Y-131560000D03*
%TD*%
D17*
%TO.C,C9*%
X127225000Y-72522500D03*
X127225000Y-74597500D03*
%TD*%
D13*
%TO.C,Q4*%
X115225000Y-93060000D03*
D14*
X112685000Y-93060000D03*
%TD*%
D15*
%TO.C,R9*%
X114725000Y-108060000D03*
X112725000Y-108060000D03*
%TD*%
D13*
%TO.C,Q3*%
X115225000Y-77260000D03*
D14*
X112685000Y-77260000D03*
%TD*%
D15*
%TO.C,R5*%
X114725000Y-84060000D03*
X112725000Y-84060000D03*
%TD*%
%TO.C,R15*%
X114725000Y-146860000D03*
X112725000Y-146860000D03*
%TD*%
D12*
%TO.C,C1*%
X121687500Y-58260000D03*
X123762500Y-58260000D03*
%TD*%
D18*
%TO.C,U1*%
X133175000Y-70697500D03*
X132525000Y-70697500D03*
X131875000Y-70697500D03*
X131225000Y-70697500D03*
X130575000Y-70697500D03*
X129925000Y-70697500D03*
X129275000Y-70697500D03*
X129275000Y-76422500D03*
X129925000Y-76422500D03*
X130575000Y-76422500D03*
X131225000Y-76422500D03*
X131875000Y-76422500D03*
X132525000Y-76422500D03*
X133175000Y-76422500D03*
%TD*%
D12*
%TO.C,C7*%
X121687500Y-131560000D03*
X123762500Y-131560000D03*
%TD*%
D19*
%TO.C,C11*%
X132162500Y-137560000D03*
X135287500Y-137560000D03*
%TD*%
D16*
%TO.C,R17*%
X137225000Y-134060000D03*
X139225000Y-134060000D03*
%TD*%
D17*
%TO.C,C10*%
X127225000Y-120022500D03*
X127225000Y-122097500D03*
%TD*%
D13*
%TO.C,Q7*%
X115225000Y-126660000D03*
D14*
X112685000Y-126660000D03*
%TD*%
D20*
%TO.C,REF\u002A\u002A*%
X132725000Y-97060000D03*
%TD*%
D16*
%TO.C,R6*%
X117225000Y-84060000D03*
X119225000Y-84060000D03*
%TD*%
D15*
%TO.C,R1*%
X114725000Y-58260000D03*
X112725000Y-58260000D03*
%TD*%
D20*
%TO.C,REF\u002A\u002A*%
X132725000Y-54560000D03*
%TD*%
D16*
%TO.C,R14*%
X117225000Y-131560000D03*
X119225000Y-131560000D03*
%TD*%
D18*
%TO.C,U2*%
X133175000Y-118197500D03*
X132525000Y-118197500D03*
X131875000Y-118197500D03*
X131225000Y-118197500D03*
X130575000Y-118197500D03*
X129925000Y-118197500D03*
X129275000Y-118197500D03*
X129275000Y-123922500D03*
X129925000Y-123922500D03*
X130575000Y-123922500D03*
X131225000Y-123922500D03*
X131875000Y-123922500D03*
X132525000Y-123922500D03*
X133175000Y-123922500D03*
%TD*%
D16*
%TO.C,R10*%
X117225000Y-108060000D03*
X119225000Y-108060000D03*
%TD*%
%TO.C,R4*%
X117225000Y-73560000D03*
X119225000Y-73560000D03*
%TD*%
D12*
%TO.C,C8*%
X121687500Y-146860000D03*
X123762500Y-146860000D03*
%TD*%
D16*
%TO.C,R16*%
X117225000Y-146860000D03*
X119225000Y-146860000D03*
%TD*%
D15*
%TO.C,R7*%
X114725000Y-97060000D03*
X112725000Y-97060000D03*
%TD*%
D13*
%TO.C,Q5*%
X115225000Y-100960000D03*
D14*
X112685000Y-100960000D03*
%TD*%
D16*
%TO.C,R12*%
X117225000Y-121060000D03*
X119225000Y-121060000D03*
%TD*%
D12*
%TO.C,C5*%
X121687500Y-108060000D03*
X123762500Y-108060000D03*
%TD*%
%TO.C,C3*%
X121687500Y-84060000D03*
X123762500Y-84060000D03*
%TD*%
D15*
%TO.C,R3*%
X114725000Y-73560000D03*
X112725000Y-73560000D03*
%TD*%
D21*
%TO.C,JP1*%
X137575000Y-129560000D03*
X138875000Y-129560000D03*
%TD*%
D22*
%TO.C,C12*%
X135287500Y-129560000D03*
X132162500Y-129560000D03*
%TD*%
D12*
%TO.C,C4*%
X121687500Y-97060000D03*
X123762500Y-97060000D03*
%TD*%
D13*
%TO.C,Q2*%
X115225000Y-67360000D03*
D14*
X112685000Y-67360000D03*
%TD*%
D23*
%TO.C,J3*%
X137405000Y-142860000D03*
D24*
X134865000Y-142860000D03*
X132325000Y-142860000D03*
%TD*%
D25*
%TO.C,J1*%
X135950000Y-77360000D03*
D26*
X138490000Y-77360000D03*
X135950000Y-74820000D03*
X138490000Y-74820000D03*
X135950000Y-72280000D03*
X138490000Y-72280000D03*
X135950000Y-69740000D03*
X138490000Y-69740000D03*
%TD*%
D25*
%TO.C,TP5*%
X126725000Y-104060000D03*
D26*
X126725000Y-101520000D03*
%TD*%
D25*
%TO.C,TP2*%
X126725000Y-69560000D03*
D26*
X126725000Y-67020000D03*
%TD*%
D25*
%TO.C,TP3*%
X126725000Y-80060000D03*
D26*
X126725000Y-77520000D03*
%TD*%
D25*
%TO.C,TP4*%
X126725000Y-93060000D03*
D26*
X126725000Y-90520000D03*
%TD*%
D27*
%TO.C,RV1*%
X118185000Y-52790000D03*
X120725000Y-55330000D03*
X123265000Y-52790000D03*
%TD*%
D28*
%TO.C,U3*%
X134995000Y-133932500D03*
D29*
X133725000Y-133932500D03*
X132455000Y-133932500D03*
%TD*%
D27*
%TO.C,RV7*%
X118185000Y-126090000D03*
X120725000Y-128630000D03*
X123265000Y-126090000D03*
%TD*%
D25*
%TO.C,TP9*%
X135725000Y-109360000D03*
%TD*%
D27*
%TO.C,RV5*%
X118185000Y-102590000D03*
X120725000Y-105130000D03*
X123265000Y-102590000D03*
%TD*%
D25*
%TO.C,TP8*%
X126725000Y-142860000D03*
D26*
X126725000Y-140320000D03*
%TD*%
D27*
%TO.C,RV3*%
X118185000Y-78670000D03*
X120725000Y-81210000D03*
X123265000Y-78670000D03*
%TD*%
%TO.C,RV8*%
X118185000Y-141390000D03*
X120725000Y-143930000D03*
X123265000Y-141390000D03*
%TD*%
D25*
%TO.C,TP6*%
X126725000Y-117060000D03*
D26*
X126725000Y-114520000D03*
%TD*%
D27*
%TO.C,RV2*%
X118185000Y-68090000D03*
X120725000Y-70630000D03*
X123265000Y-68090000D03*
%TD*%
D25*
%TO.C,TP10*%
X135725000Y-84760000D03*
%TD*%
D27*
%TO.C,RV6*%
X118185000Y-115540000D03*
X120725000Y-118080000D03*
X123265000Y-115540000D03*
%TD*%
D25*
%TO.C,TP7*%
X126725000Y-127560000D03*
D26*
X126725000Y-125020000D03*
%TD*%
D27*
%TO.C,RV4*%
X118185000Y-91590000D03*
X120725000Y-94130000D03*
X123265000Y-91590000D03*
%TD*%
D25*
%TO.C,J2*%
X135950000Y-124860000D03*
D26*
X138490000Y-124860000D03*
X135950000Y-122320000D03*
X138490000Y-122320000D03*
X135950000Y-119780000D03*
X138490000Y-119780000D03*
X135950000Y-117240000D03*
X138490000Y-117240000D03*
%TD*%
D25*
%TO.C,TP1*%
X126725000Y-54260000D03*
D26*
X126725000Y-51720000D03*
%TD*%
M02*
